<?xml version="1.0" standalone="no"?><!DOCTYPE svg PUBLIC "-//W3C//DTD SVG 1.1//EN" "http://www.w3.org/Graphics/SVG/1.1/DTD/svg11.dtd"><svg class="icon" width="200px" height="200.00px" viewBox="0 0 1024 1024" version="1.1" xmlns="http://www.w3.org/2000/svg"><path d="M678.144 858.699294l52.088471 82.808471 75.294117-33.761883-52.08847-82.80847-75.294118 33.761882zM470.031059 143.299765l75.294117-33.746824-75.294117 33.746824zM574.358588 518.896941l75.294118-33.746823-75.294118 33.746823zM470.031059 143.299765c-51.636706-7.710118-100.517647-1.536-144.158118 16.007529l75.294118-33.761882c43.640471-17.543529 92.521412-23.717647 144.158117-15.992471l-75.294117 33.746824z" fill="#CECEF9" /><path d="M325.872941 159.307294C213.654588 204.423529 136.176941 324.728471 136.176941 477.424941l75.294118-33.761882c0-152.696471 77.477647-273.001412 189.696-318.117647l-75.294118 33.761882z" fill="#CECEF9" /><path d="M136.176941 477.424941c0 212.073412 149.458824 406.332235 333.854118 433.889883l75.294117-33.746824c-184.395294-27.557647-333.854118-221.816471-333.854117-433.904941l-75.294118 33.761882zM470.031059 911.314824c53.549176 7.996235 104.101647 1.084235 148.931765-17.965177l75.294117-33.746823c-44.830118 19.034353-95.382588 25.961412-148.931765 17.965176l-75.294117 33.746824z" fill="#CECEF9" /><path d="M618.962824 893.349647a270.953412 270.953412 0 0 0 59.181176-34.650353l75.294118-33.761882a270.893176 270.893176 0 0 1-59.181177 34.665412l-75.294117 33.746823zM730.232471 941.507765a339.456 339.456 0 0 1-64.195765 38.957176l75.294118-33.746823c22.738824-10.541176 44.212706-23.612235 64.195764-38.972236l-75.294117 33.761883z" fill="#CECEF9" /><path d="M666.051765 980.464941c-58.473412 27.090824-125.214118 37.436235-196.020706 26.849883l75.294117-33.746824c70.806588 10.571294 137.547294 0.240941 196.005648-26.849882l-75.294118 33.731764z" fill="#CECEF9" /><path d="M470.031059 1007.314824C239.540706 972.875294 52.705882 730.051765 52.705882 464.956235l75.294118-33.761882c0 265.110588 186.834824 507.934118 417.325176 542.373647l-75.294117 33.746824zM52.705882 464.941176C52.705882 284.687059 139.098353 140.528941 266.857412 77.568l75.294117-33.761882C214.392471 106.782118 128 250.925176 128 431.194353l-75.294118 33.746823z" fill="#CECEF9" /><path d="M266.857412 77.552941c60.129882-29.620706 129.415529-41.261176 203.173647-30.253176l75.294117-33.746824c-73.758118-11.023059-143.058824 0.632471-203.173647 30.268235l-75.294117 33.731765z" fill="#CECEF9" /><path d="M470.031059 47.299765c230.490353 34.439529 417.325176 277.263059 417.325176 542.373647l75.294118-33.761883c0-265.095529-186.834824-507.934118-417.325177-542.358588l-75.294117 33.746824z" fill="#CECEF9" /><path d="M887.356235 589.673412c0 67.599059-32.406588 121.645176-80.323764 145.257412l75.294117-33.746824c47.917176-23.612235 80.323765-77.673412 80.323765-145.272471l-75.294118 33.761883z" fill="#CECEF9" /><path d="M807.047529 734.930824c-22.558118 11.113412-48.534588 15.495529-76.197647 11.354352l75.294118-33.746823c27.663059 4.126118 53.639529-0.240941 76.197647-11.354353l-75.294118 33.746824zM730.849882 746.285176c-48.188235-7.198118-87.792941-44.468706-113.739294-85.684705l75.294118-33.761883c25.946353 41.231059 65.566118 78.501647 113.739294 85.684706l-75.294118 33.761882zM617.110588 660.600471l-0.346353-0.557177 75.294118-33.746823 0.346353 0.542117-75.294118 33.761883z" fill="#CECEF9" /><path d="M616.764235 660.043294c-15.149176 19.516235-33.882353 35.056941-55.16047 45.568l75.294117-33.746823c21.293176-10.526118 40.011294-26.051765 55.160471-45.568l-75.294118 33.746823z" fill="#CECEF9" /><path d="M561.603765 705.611294c-27.090824 13.402353-58.322824 18.672941-91.572706 13.70353l75.294117-33.761883c33.249882 4.969412 64.481882-0.301176 91.572706-13.703529l-75.294117 33.761882z" fill="#CECEF9" /><path d="M470.031059 719.314824c-103.725176-15.510588-187.783529-124.777412-187.78353-244.073412l75.294118-33.746824c0 119.296 84.058353 228.562824 187.783529 244.058353l-75.294117 33.761883z" fill="#CECEF9" /><path d="M282.232471 475.256471c0-81.136941 38.866824-145.995294 96.37647-174.336l75.294118-33.746824c-57.509647 28.325647-96.376471 93.199059-96.376471 174.320941l-75.294117 33.746824z" fill="#CECEF9" /><path d="M378.608941 300.920471c27.045647-13.327059 58.232471-18.567529 91.407059-13.613177l75.294118-33.761882c-33.174588-4.954353-64.361412 0.301176-91.407059 13.628235l-75.294118 33.746824zM470.031059 287.307294c103.725176 15.510588 187.783529 124.762353 187.783529 244.058353l75.294118-33.746823c0-119.296-84.058353-228.562824-187.78353-244.073412l-75.294117 33.761882zM657.829647 531.365647c0 24.410353 8.96 54.392471 24.470588 79.028706l75.294118-33.746824c-15.510588-24.636235-24.470588-54.618353-24.470588-79.028705l-75.294118 33.746823z" fill="#CECEF9" /><path d="M682.300235 610.394353c15.585882 24.756706 33.370353 37.616941 48.549647 39.890823l75.294118-33.746823c-15.179294-2.273882-32.963765-15.134118-48.549647-39.905882l-75.294118 33.761882z" fill="#CECEF9" /><path d="M730.849882 650.285176c11.294118 1.686588 21.985882 0.331294 31.533177-3.493647l75.294117-33.761882a60.039529 60.039529 0 0 1-31.533176 3.508706l-75.294118 33.746823z" fill="#CECEF9" /><path d="M762.383059 646.776471c24.545882-9.863529 41.502118-36.171294 41.502117-69.571765l75.294118-33.761882c0 33.400471-16.956235 59.723294-41.502118 69.586823l-75.294117 33.761882zM803.885176 577.204706c0-212.088471-149.458824-406.347294-333.854117-433.904941l75.294117-33.746824c184.395294 27.557647 333.854118 221.816471 333.854118 433.889883l-75.294118 33.761882zM574.358588 518.896941c0-66.258824-46.712471-126.976-104.327529-135.589647l75.294117-33.761882c57.615059 8.613647 104.327529 69.330824 104.32753 135.604706l-75.294118 33.746823z" fill="#CECEF9" /><path d="M470.031059 383.307294a85.775059 85.775059 0 0 0-45.056 4.99953l75.294117-33.746824a85.790118 85.790118 0 0 1 45.056-5.014588l-75.294117 33.761882z" fill="#CECEF9" /><path d="M424.975059 388.306824c-35.056941 14.095059-59.271529 51.696941-59.27153 99.418352l75.294118-33.761882c0-47.721412 24.214588-85.308235 59.271529-99.403294l-75.294117 33.746824z" fill="#CECEF9" /><path d="M365.703529 487.725176c0 66.258824 46.712471 126.976 104.32753 135.589648l75.294117-33.761883c-57.615059-8.598588-104.327529-69.315765-104.327529-135.589647l-75.294118 33.761882zM470.031059 623.314824a85.775059 85.775059 0 0 0 45.040941-4.99953l75.294118-33.761882a85.790118 85.790118 0 0 1-45.040942 4.999529l-75.294117 33.761883z" fill="#CECEF9" /><path d="M515.072 618.315294c35.072-14.110118 59.286588-51.696941 59.286588-99.418353l75.294118-33.746823c0 47.721412-24.214588 85.308235-59.286588 99.403294l-75.294118 33.761882z" fill="#CECEF9" /><path d="M470.031059 143.299765c-184.395294-27.557647-333.854118 122.036706-333.854118 334.125176 0 212.073412 149.458824 406.332235 333.854118 433.889883 78.757647 11.760941 151.04-8.734118 208.112941-52.61553l52.088471 82.808471c-71.348706 54.844235-161.867294 80.504471-260.216471 65.807059C239.555765 972.875294 52.705882 730.051765 52.705882 464.956235 52.705882 199.830588 239.540706 12.860235 470.031059 47.284706c230.490353 34.439529 417.325176 277.263059 417.325176 542.373647 0 99.403294-70.068706 169.532235-156.506353 156.611765-48.188235-7.198118-87.792941-44.453647-113.739294-85.684706l-0.346353-0.557177c-34.409412 44.348235-87.341176 68.141176-146.733176 59.27153-103.725176-15.510588-187.798588-124.777412-187.798588-244.073412 0-119.296 84.073412-203.444706 187.783529-187.934118 103.740235 15.510588 187.813647 124.762353 187.813647 244.058353 0 24.410353 8.96 54.392471 24.470588 79.028706 15.585882 24.756706 33.370353 37.616941 48.549647 39.905882 40.342588 6.023529 73.035294-26.714353 73.035294-73.095529 0-212.088471-149.458824-406.347294-333.854117-433.904941z m104.327529 375.597176c0-66.258824-46.712471-126.976-104.327529-135.589647-57.615059-8.613647-104.327529 38.128941-104.32753 104.417882 0 66.258824 46.712471 126.976 104.32753 135.589648 57.615059 8.598588 104.327529-38.144 104.327529-104.417883z" fill="#4E5969" /></svg>