<?xml version="1.0" standalone="no"?><!DOCTYPE svg PUBLIC "-//W3C//DTD SVG 1.1//EN" "http://www.w3.org/Graphics/SVG/1.1/DTD/svg11.dtd"><svg class="icon" width="200px" height="200.00px" viewBox="0 0 1024 1024" version="1.1" xmlns="http://www.w3.org/2000/svg"><path d="M467.802585 41.196308l21.01563 16.809354 78.769231-35.320124L546.571815 5.891938l-78.76923 35.30437zM809.582277 220.144246l1.370585 0.393846 78.76923-35.304369-1.370584-0.393846-78.769231 35.304369z" fill="#CECEF9" /><path d="M810.952862 220.553846l0.315076 0.078769 78.769231-35.320123-0.315077-0.078769-78.76923 35.304369z" fill="#CECEF9" /><path d="M811.267938 220.632615h0.031508l78.769231-35.304369h-0.031508l-78.769231 35.288616z" fill="#CECEF9" /><path d="M811.299446 220.632615l37.651692 10.397539 78.769231-35.320123-37.651692-10.397539-78.769231 35.320123z" fill="#CECEF9" /><path d="M848.951138 231.030154v408.607508l78.769231-35.30437V195.710031l-78.769231 35.320123z" fill="#CECEF9" /><path d="M848.951138 639.637662l-0.582892 3.859692 78.769231-35.320123 0.582892-3.843939-78.769231 35.30437z" fill="#CECEF9" /><path d="M848.352492 643.4816l-41.747692-14.162708 78.769231-35.304369 41.747692 14.162708-78.769231 35.320123zM848.352492 643.544615v0.063016l78.769231-35.320123v-0.063016l-78.769231 35.320123z" fill="#CECEF9" /><path d="M848.352492 643.591877l-0.015754 0.157538 78.769231-35.320123 0.015754-0.141784-78.769231 35.304369z" fill="#CECEF9" /><path d="M848.336738 643.733662l-0.063015 0.362338 78.769231-35.320123 0.063015-0.346585-78.769231 35.30437z" fill="#CECEF9" /><path d="M848.273723 644.096l-0.157538 1.008246 78.76923-35.304369 0.157539-1.024-78.769231 35.320123zM479.507692 1013.003815l-11.705107 2.079508 78.76923-35.304369 11.705108-2.079508-78.769231 35.304369zM467.802585 1015.083323l-11.705108-5.576861 78.769231-35.30437 11.705107 5.576862-78.76923 35.304369zM87.488985 531.440246l-0.157539-1.055508 78.769231-35.320123 0.157538 1.071262-78.76923 35.304369z" fill="#CECEF9" /><path d="M87.331446 530.384738l-0.063015-0.362338 78.769231-35.320123 0.063015 0.378092-78.769231 35.304369zM87.268431 530.006646l-0.015754-0.141784 78.769231-35.30437v0.141785l-78.769231 35.304369z" fill="#CECEF9" /><path d="M87.252677 529.864862v-0.063016l78.769231-35.304369v0.063015l-78.769231 35.30437z" fill="#CECEF9" /><path d="M129.000369 528.068923l-41.763446 1.685662 78.769231-35.30437 41.763446-1.685661-78.769231 35.304369zM87.236923 529.754585L86.654031 525.737354l78.769231-35.320123 0.582892 4.032984-78.769231 35.30437z" fill="#CECEF9" /><path d="M86.654031 525.737354V117.114092l78.769231-35.304369V490.417231l-78.769231 35.320123z" fill="#CECEF9" /><path d="M86.654031 117.114092l37.667446 0.866462 78.769231-35.304369L165.423262 81.809723 86.654031 117.114092z" fill="#CECEF9" /><path d="M124.321477 117.980554h0.315077l78.769231-35.304369h-0.315077l-78.769231 35.304369zM124.636554 117.996308H126.038646l78.769231-35.30437-1.386339-0.015753-78.76923 35.304369zM446.786954 51.719877l21.015631-10.523569 78.76923-35.30437-21.01563 10.52357-78.769231 35.304369zM467.802585 41.196308l78.76923-35.30437-78.76923 35.30437zM171.346708 214.567385v315.139938l78.76923-35.320123V179.247262l-78.76923 35.320123zM764.242708 618.306954V303.151262l78.76923-35.30437v315.139939l-78.76923 35.320123z" fill="#CECEF9" /><path d="M171.346708 214.567385l78.76923-35.320123-78.76923 35.320123zM684.607015 456.357415L442.911508 695.311754l78.76923-35.304369 241.695508-238.954339-78.769231 35.304369z" fill="#CECEF9" /><path d="M442.911508 695.311754l-157.002831-202.121846 78.769231-35.320123 157.00283 202.121846-78.76923 35.320123zM285.908677 493.174154l59.896123-59.202954 78.769231-35.320123-59.896123 59.218708-78.769231 35.304369z" fill="#CECEF9" /><path d="M345.8048 433.9712l97.106708 125.022523 78.76923-35.320123-97.106707-125.022523-78.769231 35.320123z" fill="#CECEF9" /><path d="M442.911508 558.993723l181.799384-179.751385 78.769231-35.304369-181.799385 179.751385-78.76923 35.288615z" fill="#CECEF9" /><path d="M624.710892 379.242338l59.896123 77.115077 78.769231-35.304369-59.896123-77.115077-78.769231 35.304369zM684.607015 456.357415l78.769231-35.304369-78.769231 35.304369zM488.802462 58.005662c69.206646 55.343262 149.567015 96.161477 213.858461 123.336861l78.769231-35.320123C717.122954 118.862769 636.778338 78.0288 567.571692 22.685538l-78.76923 35.320124z" fill="#CECEF9" /><path d="M702.660923 181.326769a1123.627323 1123.627323 0 0 0 78.690462 29.9008l78.76923-35.304369a1124.352 1124.352 0 0 1-78.690461-29.9008l-78.769231 35.320123z" fill="#CECEF9" /><path d="M781.351385 211.227569c9.672862 3.245292 17.297723 5.639877 22.44923 7.199508l78.769231-35.304369c-5.151508-1.575385-12.776369-3.954215-22.449231-7.215262l-78.76923 35.320123z" fill="#CECEF9" /><path d="M803.800615 218.427077c2.567877 0.787692 4.5056 1.354831 5.781662 1.732923l78.769231-35.320123c-1.260308-0.362338-3.213785-0.945231-5.781662-1.732923l-78.769231 35.320123zM806.6048 629.318892c41.747692 14.178462 41.747692 14.194215 41.747692 14.225723l78.769231-35.320123c0-0.015754 0-0.047262-41.747692-14.209969l-78.769231 35.304369zM848.116185 645.104246c-0.141785 0.803446-0.315077 1.890462-0.567139 3.213785l78.769231-35.320123 0.567138-3.198031-78.76923 35.304369z" fill="#CECEF9" /><path d="M847.549046 648.318031c-0.472615 2.646646-1.213046 6.301538-2.205538 10.838646l78.76923-35.304369c0.992492-4.537108 1.732923-8.192 2.205539-10.8544l-78.769231 35.320123z" fill="#CECEF9" /><path d="M845.327754 659.156677a442.5728 442.5728 0 0 1-9.924923 36.769477l78.769231-35.304369c4.757662-15.107938 7.924185-27.711015 9.924923-36.769477l-78.769231 35.304369z" fill="#CECEF9" /><path d="M835.418585 695.926154a506.454646 506.454646 0 0 1-51.420554 112.797538l78.769231-35.320123a506.4704 506.4704 0 0 0 51.420553-112.797538l-78.76923 35.320123zM783.998031 808.723692c-37.6832 61.156431-96.256 125.432123-185.659077 167.227077l78.769231-35.304369c89.387323-41.794954 147.975877-106.0864 185.659077-167.242831l-78.769231 35.320123z" fill="#CECEF9" /><path d="M598.338954 975.950769c-34.752985 16.257969-74.169108 29.113108-118.831262 37.053046l78.769231-35.304369c44.662154-7.955692 84.078277-20.795077 118.831262-37.053046l-78.769231 35.304369zM456.081723 1009.506462C296.605538 933.462646 203.957169 814.804677 151.622892 714.216369l78.769231-35.304369c52.334277 100.588308 144.982646 219.230523 304.490339 295.290092l-78.769231 35.30437zM151.607138 714.216369a697.533046 697.533046 0 0 1-51.420553-128.157538l78.76923-35.304369a697.533046 697.533046 0 0 0 51.420554 128.157538l-78.769231 35.304369z" fill="#CECEF9" /><path d="M100.186585 586.058831a549.336615 549.336615 0 0 1-9.924923-39.7312l78.76923-35.304369c2.000738 9.657108 5.167262 23.205415 9.924923 39.7312l-78.76923 35.304369z" fill="#CECEF9" /><path d="M90.277415 546.343385c-1.024-4.852185-1.732923-8.711877-2.221292-11.516062l78.769231-35.304369c0.472615 2.788431 1.197292 6.663877 2.205538 11.500308l-78.76923 35.304369zM88.056123 534.827323c-0.252062-1.402092-0.441108-2.520615-0.567138-3.387077l78.76923-35.304369 0.551385 3.387077-78.769231 35.288615zM87.236923 529.801846l78.769231-35.304369-78.769231 35.304369z" fill="#CECEF9" /><path d="M87.236923 529.801846c0.063015-0.031508 1.669908-0.110277 41.763446-1.732923l78.769231-35.304369c-40.093538 1.606892-41.700431 1.701415-41.747692 1.732923l-78.769231 35.304369zM126.022892 117.996308c1.260308 0.015754 3.213785 0.031508 5.781662 0.015754l78.769231-35.30437-5.781662-0.015754-78.769231 35.30437z" fill="#CECEF9" /><path d="M131.804554 118.012062c5.135754-0.015754 12.760615-0.126031 22.433477-0.48837l78.769231-35.320123a696.477538 696.477538 0 0 1-22.433477 0.504123l-78.769231 35.30437zM154.238031 117.523692a928.799508 928.799508 0 0 0 78.690461-6.380307l78.769231-35.30437c-31.901538 3.938462-59.328985 5.655631-78.674708 6.364554l-78.76923 35.320123z" fill="#CECEF9" /><path d="M232.928492 111.143385c56.572062-6.994708 125.605415-20.858092 188.510523-47.702647l78.769231-35.304369c-62.905108 26.844554-131.938462 40.692185-188.510523 47.702646l-78.769231 35.30437z" fill="#CECEF9" /><path d="M421.454769 63.440738c8.570092-3.654892 17.029908-7.561846 25.332185-11.720861l78.769231-35.304369c-8.302277 4.159015-16.762092 8.050215-25.332185 11.720861l-78.769231 35.304369zM171.346708 529.707323c0.283569 1.543877 0.677415 3.576123 1.197292 6.049477l78.769231-35.304369a270.399015 270.399015 0 0 1-1.181539-6.065231l-78.76923 35.320123zM172.544 535.7568c1.465108 7.057723 3.938462 17.691569 7.7824 31.082338l78.769231-35.304369c-3.843938-13.390769-6.301538-24.040369-7.7824-31.082338l-78.769231 35.304369zM180.3264 566.839138a577.441477 577.441477 0 0 0 42.535385 105.944616l78.76923-35.320123a577.425723 577.425723 0 0 1-42.535384-105.928862l-78.769231 35.304369zM222.861785 672.783754c41.700431 80.124062 115.3024 176.5376 244.9408 241.853046l78.76923-35.320123c-129.6384-65.299692-203.224615-161.713231-244.925046-241.853046l-78.769231 35.320123z" fill="#CECEF9" /><path d="M467.802585 914.6368a405.756062 405.756062 0 0 0 83.983753-26.639754l78.769231-35.320123a405.661538 405.661538 0 0 1-83.983754 26.639754l-78.76923 35.320123z" fill="#CECEF9" /><path d="M551.786338 887.997046c79.131569-35.257108 129.244554-90.584615 160.941293-142.020923l78.769231-35.304369c-31.696738 51.420554-81.809723 106.748062-160.941293 142.005169l-78.769231 35.320123z" fill="#CECEF9" /><path d="M712.727631 745.976123a419.257108 419.257108 0 0 0 42.535384-93.215508l78.769231-35.304369a419.272862 419.272862 0 0 1-42.535384 93.215508l-78.769231 35.304369z" fill="#CECEF9" /><path d="M755.263015 652.760615c3.859692-12.240738 6.317292-22.149908 7.7824-28.766523l78.769231-35.304369a347.214769 347.214769 0 0 1-7.7824 28.750769l-78.769231 35.320123z" fill="#CECEF9" /><path d="M763.045415 624.009846c0.519877-2.331569 0.913723-4.253538 1.197293-5.702892l78.76923-35.320123c-0.283569 1.465108-0.677415 3.371323-1.197292 5.702892l-78.769231 35.304369zM764.226954 303.151262a1215.566769 1215.566769 0 0 1-81.337108-31.035077l78.769231-35.30437c32.452923 13.705846 60.6208 23.993108 81.352861 31.035077l-78.76923 35.30437z" fill="#CECEF9" /><path d="M682.889846 272.116185c-62.070154-26.230154-141.627077-65.772308-215.087261-120.485416l78.76923-35.304369c73.475938 54.713108 153.017108 94.239508 215.087262 120.485415l-78.769231 35.30437zM467.802585 151.630769c-73.475938 32.768-153.017108 48.521846-215.103016 56.209723l78.769231-35.320123c62.070154-7.672123 141.627077-23.441723 215.103015-56.193969l-78.76923 35.304369z" fill="#CECEF9" /><path d="M252.699569 207.840492c-32.452923 4.017231-60.605046 5.876185-81.352861 6.726893l78.76923-35.320123a1002.968615 1002.968615 0 0 0 81.352862-6.726893l-78.769231 35.320123z" fill="#CECEF9" /><path d="M467.802585 41.196308l21.01563 16.809354c69.190892 55.343262 149.551262 96.161477 213.842708 123.336861a1124.415015 1124.415015 0 0 0 78.690462 29.885046 811.008 811.008 0 0 0 28.230892 8.916677l1.370585 0.393846 0.315076 0.094523h0.031508l37.651692 10.397539v408.607508l-0.582892 3.859692-41.7792-14.178462c41.7792 14.178462 41.7792 14.194215 41.763446 14.225723v0.063016l-0.031507 0.126031-0.047262 0.362338-0.157538 1.008246c-0.141785 0.803446-0.315077 1.890462-0.567139 3.213785-0.488369 2.646646-1.213046 6.301538-2.205538 10.838646a442.730338 442.730338 0 0 1-9.924923 36.769477 506.580677 506.580677 0 0 1-51.420554 112.797538c-52.350031 84.944738-144.982646 175.907446-304.490339 204.280123l-11.705107 2.079508-11.705108-5.576861C296.589785 933.462646 203.941415 814.804677 151.607138 714.216369a697.485785 697.485785 0 0 1-51.420553-128.157538 549.336615 549.336615 0 0 1-9.924923-39.7312 360.526769 360.526769 0 0 1-2.772677-14.887385l-0.157539-1.055508-0.063015-0.362338-0.015754-0.157538v-0.063016c-0.015754-0.015754-0.015754-0.047262 41.747692-1.732923l-41.763446 1.685662L86.654031 525.737354V117.114092l37.667446 0.866462h0.315077l1.386338 0.015754a696.509046 696.509046 0 0 0 28.230893-0.472616 928.799508 928.799508 0 0 0 78.674707-6.380307c64.291446-7.955692 144.667569-24.749292 213.858462-59.423508l21.015631-10.523569zM171.346708 214.567385v315.139938a431.009477 431.009477 0 0 0 8.979692 37.147569 577.441477 577.441477 0 0 0 42.535385 105.928862c41.700431 80.124062 115.3024 176.5376 244.9408 241.837292 129.6384-26.545231 203.224615-100.982154 244.925046-168.644923a419.272862 419.272862 0 0 0 42.535384-93.215508c3.859692-12.240738 6.317292-22.149908 7.7824-28.766523 0.519877-2.315815 0.913723-4.237785 1.197293-5.687138V303.151262a1215.566769 1215.566769 0 0 1-81.352862-31.035077c-62.070154-26.230154-141.627077-65.756554-215.087261-120.485416-73.475938 32.768-153.017108 48.521846-215.103016 56.209723-32.452923 4.017231-60.6208 5.876185-81.352861 6.726893z m513.260307 241.79003L442.911508 695.311754l-156.987077-202.121846 59.880369-59.234462 97.106708 125.038277 181.799384-179.751385 59.896123 77.115077z" fill="#4E5969" /></svg>