<?xml version="1.0" standalone="no"?><!DOCTYPE svg PUBLIC "-//W3C//DTD SVG 1.1//EN" "http://www.w3.org/Graphics/SVG/1.1/DTD/svg11.dtd"><svg class="icon" width="200px" height="200.00px" viewBox="0 0 1024 1024" version="1.1" xmlns="http://www.w3.org/2000/svg"><path d="M685.156721 50.763541L923.043672 356.217705l83.934426-37.61941L769.107934 13.144131l-83.934426 37.61941z" fill="#CECEF9" /><path d="M923.043672 356.217705L246.280393 1022.942426l83.934427-37.636196 676.763278-666.724722-83.934426 37.636197z" fill="#CECEF9" /><path d="M246.280393 1022.942426L8.393443 987.387803l83.934426-37.61941 237.886951 35.537837-83.934427 37.636196z" fill="#CECEF9" /><path d="M8.393443 987.40459V717.471475l83.934426-37.636196v269.916328l-83.934426 37.619409z" fill="#CECEF9" /><path d="M8.393443 717.471475L685.156721 50.780328l83.934427-37.61941L92.327869 679.852066l-83.934426 37.636196zM685.156721 50.763541l83.934427-37.61941-83.934427 37.61941zM104.515148 777.031344v115.66164l83.934426-37.61941v-115.66164l-83.934426 37.602623z" fill="#CECEF9" /><path d="M104.515148 892.692984l101.946754 15.242491 83.934426-37.636196-101.946754-15.225705-83.934426 37.61941z" fill="#CECEF9" /><path d="M206.478689 907.935475L668.151607 453.078033l83.934426-37.636197-461.706492 454.840656-83.934426 37.636197z" fill="#CECEF9" /><path d="M668.168393 453.078033l-101.946754-130.904131 83.934427-37.61941 101.946754 130.904131-83.934427 37.61941z" fill="#CECEF9" /><path d="M566.221639 322.173902L104.515148 777.031344l83.934426-37.636196L650.156066 284.554492l-83.934427 37.61941z" fill="#CECEF9" /><path d="M104.515148 777.031344l83.934426-37.636196-83.934426 37.636196zM634.191738 255.211016l101.946754 130.920918 83.934426-37.636196-101.946754-130.904131-83.934426 37.619409z" fill="#CECEF9" /><path d="M736.138492 386.131934l50.98177-50.22636 83.934427-37.61941-50.981771 50.209574-83.934426 37.636196z" fill="#CECEF9" /><path d="M787.120262 335.905574l-101.963541-130.904131 83.934427-37.636197 101.963541 130.904131-83.934427 37.636197z" fill="#CECEF9" /><path d="M685.156721 205.001443l-50.964983 50.209573 83.934426-37.619409 50.964984-50.226361-83.934427 37.636197zM634.191738 255.211016l83.934426-37.619409-83.934426 37.619409z" fill="#CECEF9" /><path d="M685.156721 50.763541L923.043672 356.217705 246.280393 1022.942426 8.393443 987.387803V717.488262L685.156721 50.763541zM104.515148 777.031344v115.66164l101.946754 15.242491L668.168393 453.078033l-101.946754-130.904131L104.515148 777.031344z m529.67659-521.820328l101.946754 130.920918 50.98177-50.22636-101.963541-130.904131-50.964983 50.209573z" fill="#4E5969" /></svg>