<?xml version="1.0" standalone="no"?><!DOCTYPE svg PUBLIC "-//W3C//DTD SVG 1.1//EN" "http://www.w3.org/Graphics/SVG/1.1/DTD/svg11.dtd"><svg class="icon" width="200px" height="200.00px" viewBox="0 0 1024 1024" version="1.1" xmlns="http://www.w3.org/2000/svg"><path d="M124.448 530.608L523.232 138.352l80-35.872-398.784 392.256-80 35.872z" fill="#CECEF9" /><path d="M523.232 138.352l246.8 92.8 80-35.856-246.8-92.8-80 35.84z" fill="#CECEF9" /><path d="M770.032 231.152l49.36 287.04 80-35.872-49.36-287.04-80 35.872z" fill="#CECEF9" /><path d="M819.392 518.176L420.608 910.432l80-35.856 398.784-392.256-80 35.856z" fill="#CECEF9" /><path d="M420.608 910.432l-296.16-379.84 80-35.84 296.16 379.808-80 35.872z" fill="#CECEF9" /><path d="M124.448 530.608l80-35.872-80 35.872zM471.92 54.592L50.4 469.2l80-35.856L551.92 18.72l-80 35.872zM50.4 569.872L376.16 987.696l80-35.872L130.4 534.016l-80 35.856zM465.024 1000.96L886.56 586.352l80-35.872L545.04 965.12l-80 35.856zM903.728 524.624L849.44 208.896l80-35.856 54.288 315.712-80 35.872zM800.16 145.68l-271.488-102.08 80-35.872 271.472 102.096-80 35.856zM528.656 43.6l80-35.872-80 35.872zM663.68 361.472l80-35.872-80 35.872zM642.72 287.152l80-35.856-80 35.856z" fill="#CECEF9" /><path d="M528.656 43.6c-14-5.28-28.32-5.04-40.736 0.224l80-35.856c12.416-5.28 26.736-5.504 40.752-0.24l-80 35.872z" fill="#CECEF9" /><path d="M487.92 43.84c-5.84 2.464-11.248 6.08-16 10.752l80-35.872a51.568 51.568 0 0 1 16-10.752l-80 35.856zM50.4 469.2c-24.528 24.144-24.528 69.216 0 100.672l80-35.856c-24.528-31.472-24.528-76.544 0-100.672l-80 35.856zM376.192 987.68c19.616 25.184 49.008 34.016 72.544 24.192l80-35.856c-23.536 9.824-52.928 0.976-72.544-24.192l-80 35.872z" fill="#CECEF9" /><path d="M448.72 1011.872a51.52 51.52 0 0 0 16.32-10.912l80-35.856a51.52 51.52 0 0 1-16.32 10.912l-80 35.856zM886.56 586.352c14.848-14.608 21.296-37.776 17.184-61.728l80-35.872c4.112 23.952-2.336 47.12-17.184 61.744l-80 35.84zM849.44 208.896c-4.976-28.928-24.416-53.856-49.28-63.2l80-35.872c24.864 9.36 44.304 34.288 49.28 63.2l-80 35.872zM663.68 361.472c0 8.912-4.352 16.032-10.752 19.12l80-35.856c6.4-3.104 10.736-10.224 10.736-19.136l-80 35.872z" fill="#CECEF9" /><path d="M652.928 380.592a17.328 17.328 0 0 1-10.192 1.472l80-35.856c3.696 0.544 7.184-0.016 10.192-1.472l-80 35.856z" fill="#CECEF9" /><path d="M642.72 382.08a21.888 21.888 0 0 1-10.304-4.624l80-35.856c3.04 2.4 6.56 4.048 10.304 4.608l-80 35.856z" fill="#CECEF9" /><path d="M632.432 377.456a28.832 28.832 0 0 1-10.56-22.176l80-35.856c0 8.8 4.256 17.136 10.56 22.176l-80 35.856z" fill="#CECEF9" /><path d="M621.888 355.28c0-8.912 4.32-16.016 10.736-19.12l80-35.856c-6.4 3.088-10.736 10.208-10.736 19.12l-80 35.856z" fill="#CECEF9" /><path d="M632.64 336.16c3.008-1.456 6.48-2.032 10.176-1.472l80-35.872a17.328 17.328 0 0 0-10.192 1.472l-80 35.872z" fill="#CECEF9" /><path d="M642.816 334.688c3.744 0.56 7.264 2.192 10.32 4.608l80-35.872a21.92 21.92 0 0 0-10.32-4.608l-80 35.872z" fill="#CECEF9" /><path d="M653.12 339.296c6.304 5.04 10.56 13.36 10.56 22.176l80-35.856c0-8.832-4.256-17.152-10.56-22.176l-80 35.856zM642.72 287.152a52.352 52.352 0 0 0-27.12 2.912l80-35.872a52.352 52.352 0 0 1 27.136-2.896l-80 35.856z" fill="#CECEF9" /><path d="M615.6 290.064c-21.12 8.32-35.68 30.576-35.68 58.88l80-35.856c0-28.32 14.56-50.576 35.68-58.88l-80 35.84z" fill="#CECEF9" /><path d="M579.904 348.96c0 26.528 12.8 51.584 31.808 66.656l80-35.856c-18.992-15.088-31.808-40.144-31.808-66.672l-80 35.872z" fill="#CECEF9" /><path d="M611.712 415.616a65.744 65.744 0 0 0 31.12 13.984l80-35.856a65.76 65.76 0 0 1-31.12-13.984l-80 35.856z" fill="#CECEF9" /><path d="M642.816 429.6c9.712 1.44 18.912 0.32 27.136-2.912l80-35.856a52.352 52.352 0 0 1-27.136 2.912l-80 35.856z" fill="#CECEF9" /><path d="M669.952 426.688c21.12-8.32 35.696-30.576 35.696-58.88l80-35.872c0 28.32-14.576 50.576-35.68 58.88l-80 35.872zM705.648 367.808c0-26.56-12.832-51.632-31.84-66.72l80-35.84c19.008 15.072 31.84 40.144 31.84 66.688l-80 35.872z" fill="#CECEF9" /><path d="M673.808 301.104a65.728 65.728 0 0 0-31.072-13.952l80-35.856c11.296 1.68 21.92 6.656 31.072 13.936l-80 35.856z" fill="#CECEF9" /><path d="M124.448 530.608L523.232 138.352l246.8 92.8 49.36 287.04-398.784 392.24-296.16-379.84zM528.672 43.6c-20.608-7.744-41.904-3.632-56.752 10.992L50.4 469.2c-24.528 24.144-24.528 69.216 0 100.672l325.792 417.824c24.528 31.456 64.32 37.408 88.848 13.28l421.504-414.624c14.864-14.608 21.312-37.776 17.184-61.728L849.44 208.896c-4.976-28.928-24.416-53.856-49.28-63.2L528.656 43.6z m135.008 317.872c0 13.104-9.376 22.32-20.96 20.592a21.888 21.888 0 0 1-10.288-4.608 28.832 28.832 0 0 1-10.56-22.176c0-13.104 9.392-22.32 20.96-20.592 3.744 0.56 7.264 2.192 10.304 4.608 6.288 5.024 10.544 13.36 10.544 22.176z m-20.96-74.32c-34.688-5.184-62.816 22.48-62.816 61.808 0 26.528 12.8 51.584 31.808 66.656a65.728 65.728 0 0 0 31.104 13.984c34.72 5.184 62.832-22.48 62.832-61.792 0-26.56-12.832-51.632-31.84-66.72a65.728 65.728 0 0 0-31.072-13.92z" fill="#4E5969" /></svg>