<?xml version="1.0" standalone="no"?><!DOCTYPE svg PUBLIC "-//W3C//DTD SVG 1.1//EN" "http://www.w3.org/Graphics/SVG/1.1/DTD/svg11.dtd"><svg class="icon" width="200px" height="200.00px" viewBox="0 0 1024 1024" version="1.1" xmlns="http://www.w3.org/2000/svg"><path d="M38.787879 804.088242V130.296242l77.575757-34.784969v673.807515l-77.575757 34.769454zM124.772848 46.886788l687.957334 102.787879 77.575757-34.769455L202.364121 12.101818l-77.575757 34.78497zM898.715152 258.792727v673.792l77.575757-34.753939v-673.82303l-77.575757 34.784969zM812.730182 1015.994182L124.788364 913.221818l77.575757-34.78497 687.941818 102.803394-77.575757 34.769455zM124.772848 913.206303l77.575758-34.78497-77.575758 34.78497zM124.772848 143.142788v673.792l77.575758-34.769455V108.357818l-77.575758 34.78497zM124.772848 816.934788l193.489455 28.920242 77.575758-34.769454-193.47394-28.920243-77.575757 34.78497z" fill="#CECEF9" /><path d="M318.262303 845.85503V172.047515l77.575758-34.769454v673.792l-77.575758 34.784969z" fill="#CECEF9" /><path d="M318.262303 172.06303L124.788364 143.127273l77.575757-34.78497 193.47394 28.920242-77.575758 34.769455zM124.772848 143.142788l77.575758-34.78497-77.575758 34.78497zM404.262788 184.909576v673.792l77.575757-34.769455V150.124606l-77.575757 34.78497z" fill="#CECEF9" /><path d="M404.262788 858.701576l408.467394 61.036606 77.575757-34.769455-408.467394-61.036606-77.575757 34.769455z" fill="#CECEF9" /><path d="M812.730182 919.738182V245.946182l77.575757-34.78497V884.984242l-77.575757 34.769455z" fill="#CECEF9" /><path d="M812.730182 245.946182l-408.467394-61.036606 77.575757-34.78497 408.467394 61.036606-77.575757 34.78497zM404.262788 184.909576l77.575757-34.78497-77.575757 34.78497zM124.788364 913.190788C77.265455 906.100364 38.787879 857.274182 38.787879 804.088242l77.575757-34.769454c0 53.154909 38.493091 102.012121 86.000485 109.102545l-77.575757 34.78497zM38.787879 130.296242c0-36.150303 17.795879-64.99297 44.125091-77.513697l77.575757-34.769454C134.159515 30.533818 116.363636 59.36097 116.363636 95.511273L38.787879 130.296242z" fill="#CECEF9" /><path d="M82.91297 52.782545a71.835152 71.835152 0 0 1 41.875394-5.895757l77.575757-34.78497c-15.204848-2.265212-29.478788 0-41.875394 5.895758l-77.575757 34.784969zM812.730182 149.690182c47.491879 7.090424 86.000485 55.947636 86.000485 109.102545l77.575757-34.769454c0-53.170424-38.508606-102.012121-86.000485-109.118061l-77.575757 34.78497zM898.730667 932.584727c0 36.150303-17.811394 64.99297-44.140606 77.513697l77.575757-34.784969c26.329212-12.520727 44.140606-41.347879 44.140606-77.498182l-77.575757 34.769454z" fill="#CECEF9" /><path d="M854.590061 1010.098424a71.835152 71.835152 0 0 1-41.859879 5.895758l77.575757-34.769455c15.204848 2.265212 29.478788 0 41.859879-5.895757l-77.575757 34.769454z" fill="#CECEF9" /><path d="M124.788364 913.206303C77.265455 906.084848 38.787879 857.258667 38.787879 804.088242V130.296242C38.787879 77.110303 77.28097 39.780848 124.788364 46.886788l687.941818 102.803394c47.491879 7.090424 86.000485 55.947636 86.000485 109.102545v673.792c0 53.170424-38.508606 90.515394-86.000485 83.409455L124.788364 913.221818z m0-770.063515v673.792l193.473939 28.920242V172.047515L124.788364 143.142788z m279.474424 41.766788v673.792l408.467394 61.036606V245.946182l-408.467394-61.036606z" fill="#4E5969" /></svg>