<?xml version="1.0" standalone="no"?><!DOCTYPE svg PUBLIC "-//W3C//DTD SVG 1.1//EN" "http://www.w3.org/Graphics/SVG/1.1/DTD/svg11.dtd"><svg class="icon" width="200px" height="200.00px" viewBox="0 0 1024 1024" version="1.1" xmlns="http://www.w3.org/2000/svg"><path d="M247.855262 145.8176L120.516923 566.587077l78.769231-35.320123 127.338338-420.769477-78.76923 35.320123z" fill="#CECEF9" /><path d="M120.516923 566.587077l270.651077 40.440123 78.769231-35.304369-270.651077-40.455877-78.769231 35.320123z" fill="#CECEF9" /><path d="M391.168 607.0272l-53.515815 145.691569 78.76923-35.320123 53.515816-145.675815-78.769231 35.288615zM367.931077 870.841108l38.848985 37.2736 78.76923-35.30437-38.848984-37.289353-78.769231 35.320123z" fill="#CECEF9" /><path d="M406.780062 908.114708l209.163815-267.500308 78.769231-35.320123-209.163816 267.500308-78.76923 35.320123z" fill="#CECEF9" /><path d="M615.943877 640.6144l44.126523 6.600862 78.769231-35.320124-44.126523-6.600861-78.769231 35.320123z" fill="#CECEF9" /><path d="M660.086154 647.215262V207.415138l78.769231-35.320123v439.800123l-78.769231 35.320124zM660.086154 207.415138l-412.215139-61.597538 78.769231-35.320123 412.199385 61.597538-78.769231 35.320123zM247.855262 145.8176l78.76923-35.320123-78.76923 35.320123zM231.613046 45.654646l517.403569 77.319877 78.769231-35.320123L310.382277 10.350277l-78.769231 35.304369z" fill="#CECEF9" /><path d="M749.016615 122.974523V758.232615l78.769231-35.320123V87.670154l-78.769231 35.320123z" fill="#CECEF9" /><path d="M749.016615 758.232615l-89.277046-13.343507 78.769231-35.30437 89.277046 13.327754-78.769231 35.320123z" fill="#CECEF9" /><path d="M659.739569 744.889108l-195.725784 250.328615 78.76923-35.288615 195.725785-250.34437-78.769231 35.30437zM371.554462 995.721846l-56.383016-54.098708 78.769231-35.320123 56.398769 54.098708-78.769231 35.320123zM254.582154 705.378462l7.309784-19.94437 78.769231-35.304369-7.309784 19.928615-78.769231 35.320124z" fill="#CECEF9" /><path d="M261.891938 685.449846L120.516923 664.292431l78.769231-35.304369 141.375015 21.110153-78.769231 35.320123zM35.761231 524.288L168.014769 87.229046l78.769231-35.304369L114.530462 488.967877l-78.769231 35.320123zM168.030523 87.229046l78.769231-35.304369-78.769231 35.304369zM904.680369 146.2272v635.258092l78.769231-35.304369V110.907077l-78.769231 35.304369z" fill="#CECEF9" /><path d="M904.680369 781.485292l-88.946215-13.280492 78.769231-35.320123 88.946215 13.296246-78.769231 35.304369zM815.734154 768.2048V132.946708l78.769231-35.320123v635.258092l-78.769231 35.320123z" fill="#CECEF9" /><path d="M815.734154 132.946708l88.946215 13.280492 78.769231-35.304369-88.946215-13.296246-78.769231 35.320123zM904.680369 146.2272l78.769231-35.304369-78.769231 35.304369zM337.652185 752.718769c-14.304492 38.912-1.906215 87.229046 30.278892 118.122339l78.769231-35.320123c-32.185108-30.877538-44.583385-79.210338-30.278893-118.122339l-78.76923 35.320123zM168.030523 87.229046c5.293292-17.455262 16.667569-30.499446 31.192615-37.194831l78.769231-35.304369c-14.525046 6.695385-25.899323 19.723815-31.192615 37.179077l-78.769231 35.320123z" fill="#CECEF9" /><path d="M199.223138 50.034215a56.7296 56.7296 0 0 1 32.389908-4.379569l78.769231-35.304369a56.7296 56.7296 0 0 0-32.389908 4.379569l-78.769231 35.304369zM464.013785 995.233477a55.453538 55.453538 0 0 1-18.794339 15.517538l78.769231-35.304369a55.453538 55.453538 0 0 0 18.794338-15.533292l-78.76923 35.320123z" fill="#CECEF9" /><path d="M445.2352 1010.766769c-22.401969 11.248246-51.467815 6.270031-73.680738-15.044923l78.76923-35.304369c22.212923 21.2992 51.278769 26.293169 73.680739 15.029169l-78.769231 35.304369zM315.171446 941.607385c-64.401723-61.755077-89.182523-158.420677-60.589292-236.228923l78.769231-35.320124c-28.593231 77.824-3.812431 174.473846 60.589292 236.244677l-78.769231 35.320123zM120.516923 664.308185c-60.195446-8.979692-102.998646-79.714462-84.755692-140.020185l78.769231-35.320123c-18.242954 60.305723 24.560246 131.040492 84.755692 140.035938l-78.769231 35.30437z" fill="#CECEF9" /><path d="M247.855262 145.8176L120.516923 566.587077l270.651077 40.440123-53.515815 145.691569c-14.304492 38.912-1.906215 87.229046 30.278892 118.122339l38.848985 37.2736 209.163815-267.500308 44.126523 6.600862V207.415138l-412.215138-61.597538zM168.030523 87.229046c8.822154-29.097354 34.532431-45.906708 63.582523-41.5744l517.403569 77.319877V758.232615l-89.277046-13.343507-195.725784 250.328615c-22.134154 28.325415-63.235938 28.545969-92.459323 0.504123l-56.383016-54.098708c-64.401723-61.770831-89.182523-158.436431-60.589292-236.244676l7.309784-19.94437-141.375015-21.110154c-60.195446-9.0112-102.998646-79.730215-84.755692-140.051692L168.014769 87.2448z m736.649846 58.998154v635.258092l-88.946215-13.280492V132.946708l88.946215 13.280492z" fill="#4E5969" /></svg>