<?xml version="1.0" standalone="no"?><!DOCTYPE svg PUBLIC "-//W3C//DTD SVG 1.1//EN" "http://www.w3.org/Graphics/SVG/1.1/DTD/svg11.dtd"><svg class="icon" width="200px" height="200.00px" viewBox="0 0 1024 1024" version="1.1" xmlns="http://www.w3.org/2000/svg"><path d="M898.730667 280.203636L38.787879 151.722667l77.575757-34.769455 859.942788 128.496485-77.575757 34.78497zM38.787879 151.707152V46.545455L116.363636 11.776v105.161697L38.787879 151.707152z" fill="#CECEF9" /><path d="M38.787879 46.545455l859.942788 128.496484 77.575757-34.769454L116.363636 11.776 38.787879 46.545455z" fill="#CECEF9" /><path d="M898.730667 175.041939v105.177213l77.575757-34.78497V140.272485l-77.575757 34.769454zM898.730667 280.203636l77.575757-34.753939-77.575757 34.753939zM898.730667 648.300606L38.787879 519.804121l77.575757-34.769454 859.942788 128.496485-77.575757 34.769454z" fill="#CECEF9" /><path d="M38.787879 519.804121v-105.161697l77.575757-34.784969v105.177212l-77.575757 34.769454z" fill="#CECEF9" /><path d="M38.787879 414.642424l859.942788 128.496485 77.575757-34.78497L116.363636 379.857455l-77.575757 34.784969z" fill="#CECEF9" /><path d="M898.730667 543.138909v105.161697l77.575757-34.769454v-105.177213l-77.575757 34.78497zM898.730667 648.300606l77.575757-34.769454-77.575757 34.769454zM898.730667 1016.397576L38.787879 887.885576l77.575757-34.769455 859.942788 128.496485-77.575757 34.78497z" fill="#CECEF9" /><path d="M38.787879 887.885576V782.739394l77.575757-34.769455v105.161697l-77.575757 34.769455z" fill="#CECEF9" /><path d="M38.787879 782.723879l859.942788 128.496485 77.575757-34.769455L116.363636 747.954424l-77.575757 34.769455zM898.730667 911.220364v105.177212l77.575757-34.78497V876.450909l-77.575757 34.769455zM898.730667 1016.397576l77.575757-34.78497-77.575757 34.78497z" fill="#CECEF9" /><path d="M898.730667 280.203636L38.787879 151.722667V46.545455l859.942788 128.496484v105.177213z m0 368.09697L38.787879 519.804121v-105.177212l859.942788 128.512v105.161697z m0 368.09697L38.787879 887.885576V782.739394l859.942788 128.496485v105.177212z" fill="#4E5969" /></svg>