<?xml version="1.0" standalone="no"?><!DOCTYPE svg PUBLIC "-//W3C//DTD SVG 1.1//EN" "http://www.w3.org/Graphics/SVG/1.1/DTD/svg11.dtd"><svg class="icon" width="200px" height="200.00px" viewBox="0 0 1024 1024" version="1.1" xmlns="http://www.w3.org/2000/svg"><path d="M263.314286 43.885714l137.596343 20.553143 73.142857-32.782628L336.457143 11.103086 263.314286 43.885714z" fill="#CECEF9" /><path d="M400.910629 64.438857V215.186286l73.142857-32.797257V31.656229l-73.142857 32.782628z" fill="#CECEF9" /><path d="M400.910629 215.171657L263.314286 194.603886l73.142857-32.782629 137.596343 20.553143-73.142857 32.797257z" fill="#CECEF9" /><path d="M263.314286 194.603886V43.885714L336.457143 11.103086v150.718171l-73.142857 32.782629zM263.314286 43.885714L336.457143 11.103086 263.314286 43.885714zM538.492343 85.006629l137.596343 20.553142 73.142857-32.768L611.620571 52.224l-73.142857 32.782629z" fill="#CECEF9" /><path d="M676.088686 105.559771V256.292571l73.142857-32.768V72.762514l-73.142857 32.782629z" fill="#CECEF9" /><path d="M676.088686 256.292571l-137.596343-20.567771 73.142857-32.782629 137.596343 20.553143-73.142857 32.797257z" fill="#CECEF9" /><path d="M538.492343 235.7248V85.006629l73.142857-32.782629v150.718171l-73.142857 32.782629zM538.492343 85.006629l73.142857-32.782629-73.142857 32.782629zM263.314286 420.688457l137.596343 20.553143 73.142857-32.768L336.457143 387.8912l-73.142857 32.782629z" fill="#CECEF9" /><path d="M400.910629 441.256229v150.718171l73.142857-32.797257V408.458971l-73.142857 32.797258z" fill="#CECEF9" /><path d="M400.910629 591.9744L263.314286 571.392l73.142857-32.782629 137.596343 20.553143-73.142857 32.797257z" fill="#CECEF9" /><path d="M263.314286 571.406629V420.688457l73.142857-32.782628V538.624L263.314286 571.392zM263.314286 420.688457l73.142857-32.782628-73.142857 32.782628zM538.492343 461.809371l137.596343 20.553143 73.142857-32.782628-137.596343-20.567772-73.142857 32.797257zM676.088686 482.362514v150.7328l73.142857-32.797257V449.579886l-73.142857 32.782628z" fill="#CECEF9" /><path d="M676.088686 633.095314l-137.596343-20.567771 73.142857-32.782629 137.596343 20.553143-73.142857 32.797257z" fill="#CECEF9" /><path d="M538.492343 612.527543V461.809371l73.142857-32.797257v150.7328l-73.142857 32.782629zM538.492343 461.809371l73.142857-32.797257-73.142857 32.797257zM263.314286 797.4912l137.596343 20.567771 73.142857-32.797257L336.457143 764.708571l-73.142857 32.782629z" fill="#CECEF9" /><path d="M400.910629 818.058971v150.718172l73.142857-32.797257V785.261714l-73.142857 32.797257z" fill="#CECEF9" /><path d="M400.910629 968.777143L263.314286 948.209371l73.142857-32.782628 137.596343 20.553143-73.142857 32.797257z" fill="#CECEF9" /><path d="M263.314286 948.224V797.476571l73.142857-32.782628v150.718171l-73.142857 32.782629zM263.314286 797.4912l73.142857-32.782629-73.142857 32.782629zM538.492343 838.612114l137.596343 20.553143 73.142857-32.782628-137.596343-20.567772-73.142857 32.797257z" fill="#CECEF9" /><path d="M676.088686 859.165257v150.7328l73.142857-32.797257V826.382629l-73.142857 32.782628z" fill="#CECEF9" /><path d="M676.088686 1009.898057L538.477714 989.330286l73.142857-32.782629 137.596343 20.553143-73.142857 32.797257z" fill="#CECEF9" /><path d="M538.492343 989.330286V838.612114l73.142857-32.797257V956.562286l-73.142857 32.782628zM538.492343 838.612114l73.142857-32.797257-73.142857 32.797257z" fill="#CECEF9" /><path d="M263.314286 43.885714l137.596343 20.553143V215.186286L263.314286 194.603886V43.885714z m275.178057 41.106286l137.596343 20.567771V256.292571l-137.596343-20.567771V85.006629zM263.314286 420.703086l137.596343 20.553143v150.7328L263.314286 571.392V420.688457z m275.178057 41.120914l137.596343 20.553143v150.7328l-137.596343-20.567772V461.824zM263.314286 797.4912l137.596343 20.567771v150.718172L263.314286 948.209371V797.4912z m275.178057 41.120914l137.596343 20.553143v150.7328L538.477714 989.330286V838.612114z" fill="#4E5969" /></svg>