<?xml version="1.0" standalone="no"?><!DOCTYPE svg PUBLIC "-//W3C//DTD SVG 1.1//EN" "http://www.w3.org/Graphics/SVG/1.1/DTD/svg11.dtd"><svg class="icon" width="200px" height="181.88px" viewBox="0 0 1126 1024" version="1.1" xmlns="http://www.w3.org/2000/svg"><path d="M396.117333 978.9952L547.157333 47.616l85.333334-38.263467-151.04 931.362134-85.333334 38.263466z" fill="#CECEF9" /><path d="M547.157333 47.616l95.232 32.938667 85.333334-38.263467L632.490667 9.386667l-85.333334 38.263466z" fill="#CECEF9" /><path d="M642.389333 80.554667l-151.057066 931.362133 85.333333-38.263467 151.04-931.362133-85.333333 38.263467z" fill="#CECEF9" /><path d="M491.332267 1011.9168l-95.232-32.938667 85.333333-38.229333 95.232 32.904533-85.333333 38.263467zM396.117333 978.9952l85.333334-38.263467-85.333334 38.263467zM136.789333 472.439467L376.046933 241.834667l85.333334-38.263467-239.2576 230.621867-85.333334 38.2464zM376.046933 241.834667l-68.4032-86.3232 85.333334-38.263467 68.4032 86.3232-85.333334 38.263467z" fill="#CECEF9" /><path d="M307.643733 155.511467L0 452.010667l85.333333-38.263467L392.977067 117.248l-85.333334 38.263467z" fill="#CECEF9" /><path d="M0 452.010667l307.643733 388.437333 85.333334-38.263467L85.333333 413.7472l-85.333333 38.263467z" fill="#CECEF9" /><path d="M307.643733 840.448l68.4032-65.877333 85.333334-38.263467-68.4032 65.877333-85.333334 38.263467zM376.046933 774.5536L136.789333 472.439467l85.333334-38.2464 239.2576 302.114133-85.333334 38.2464zM136.789333 472.439467l85.333334-38.2464-85.333334 38.2464zM726.954667 218.1632l307.6608 388.437333 85.333333-38.2464-307.6608-388.437333-85.333333 38.2464z" fill="#CECEF9" /><path d="M1034.615467 606.600533L726.954667 903.099733l85.333333-38.2464 307.6608-296.4992-85.333333 38.2464z" fill="#CECEF9" /><path d="M726.954667 903.099733l-68.386134-86.3232 85.333334-38.2464 68.386133 86.3232-85.333333 38.2464zM658.568533 816.776533l239.2576-230.6048 85.333334-38.263466-239.274667 230.621866-85.333333 38.2464z" fill="#CECEF9" /><path d="M897.826133 586.171733l-239.274666-302.1312 85.333333-38.2464 239.274667 302.114134-85.333334 38.263466z" fill="#CECEF9" /><path d="M658.568533 284.040533l68.386134-65.877333 85.333333-38.2464-68.386133 65.877333-85.333334 38.2464zM726.954667 218.1632l85.333333-38.2464-85.333333 38.2464z" fill="#CECEF9" /><path d="M396.117333 978.9952L547.157333 47.616l95.232 32.9216-151.057066 931.362133-95.232-32.938666zM136.772267 472.456533L376.046933 241.834667l-68.4032-86.3232L0 452.010667l307.643733 388.437333 68.4032-65.877333L136.789333 472.4224z m590.165333-254.293333l307.6608 388.437333-307.6608 296.4992-68.386133-86.3232 239.2576-230.6048-239.274667-302.1312 68.4032-65.877333z" fill="#4E5969" /></svg>