<?xml version="1.0" standalone="no"?><!DOCTYPE svg PUBLIC "-//W3C//DTD SVG 1.1//EN" "http://www.w3.org/Graphics/SVG/1.1/DTD/svg11.dtd"><svg class="icon" width="200px" height="200.00px" viewBox="0 0 1024 1024" version="1.1" xmlns="http://www.w3.org/2000/svg"><path d="M267.494761 154.234592v229.866366l72.112676-32.320902V121.91369l-72.112676 32.320902zM267.494761 613.967324v229.866366l72.112676-32.335324V581.660845l-72.112676 32.320901zM288.306479 869.924056l83.275718 12.446648 72.112676-32.335324-83.275718-12.432225-72.112676 32.320901z" fill="#CECEF9" /><path d="M371.582197 882.370704v91.943662l72.112676-32.320901v-91.943662l-72.112676 32.306479z" fill="#CECEF9" /><path d="M371.582197 974.314366l-83.275718-12.446648 72.112676-32.320901 83.275718 12.446648-72.112676 32.320901zM184.233465 831.387042V601.520676l72.112676-32.320901v229.866366l-72.112676 32.320901zM100.957746 520.119887v-91.943662l72.112677-32.320901v91.943662l-72.112677 32.320901zM184.233465 371.668732V141.802366l72.112676-32.335324v229.866366l-72.112676 32.335324zM288.306479 42.416676l83.275718 12.446648 72.112676-32.320901L360.419155 10.095775l-72.112676 32.320901z" fill="#CECEF9" /><path d="M371.582197 54.863324v91.943662l72.112676-32.320901V22.542423l-72.112676 32.320901z" fill="#CECEF9" /><path d="M371.582197 146.821408l-83.275718-12.46107 72.112676-32.320901 83.275718 12.446648-72.112676 32.320901z" fill="#CECEF9" /><path d="M288.306479 134.360338l72.112676-32.320901-72.112676 32.320901zM663.018366 190.363042l-83.261296-12.446648 72.112676-32.335324 83.261296 12.446648-72.112676 32.335324z" fill="#CECEF9" /><path d="M579.75707 177.916394V85.95831l72.112676-32.335324v91.943662l-72.112676 32.335324z" fill="#CECEF9" /><path d="M579.75707 85.95831l83.261296 12.46107 72.112676-32.335324-83.261296-12.446648-72.112676 32.335324zM767.105803 228.885634V458.780845l72.112676-32.335324V196.579155l-72.112676 32.335324zM850.381521 540.167211v91.943662l72.112676-32.335324v-91.943662l-72.112676 32.335324zM767.105803 688.618366v229.866366l72.112676-32.320901V656.297465l-72.112676 32.320901zM663.018366 1017.870423l-83.261296-12.446648 72.112676-32.335324 83.261296 12.446648-72.112676 32.335324z" fill="#CECEF9" /><path d="M579.75707 1005.423775v-91.943662l72.112676-32.335324v91.943662l-72.112676 32.335324z" fill="#CECEF9" /><path d="M579.75707 913.480113l83.261296 12.432225 72.112676-32.306479-83.261296-12.46107-72.112676 32.335324z" fill="#CECEF9" /><path d="M683.844507 906.038085V676.186141l72.112676-32.335324V873.717183l-72.112676 32.320902zM683.844507 446.319775V216.453408l72.112676-32.320901v229.851944l-72.112676 32.335324zM663.018366 190.363042l72.112676-32.335324-72.112676 32.335324zM288.306479 134.360338a17.739718 17.739718 0 0 0-8.98524 0.90862l72.112676-32.320902c2.725859-1.038423 5.769014-1.384563 8.98524-0.908619l-72.112676 32.320901z" fill="#CECEF9" /><path d="M279.321239 135.268958c-6.99493 2.653746-11.826479 9.836169-11.826478 18.965634l72.112676-32.320902c0-9.143887 4.831549-16.311887 11.826478-18.965634l-72.112676 32.320902zM267.494761 384.100958c0 52.570141-30.806535 86.506366-59.593916 106.034479l72.112676-32.335324c28.78738-19.528113 59.593915-53.449915 59.593916-106.020057l-72.112676 32.320902zM207.900845 490.135437c28.78738 28.123944 59.593915 71.261746 59.593916 123.831887l72.112676-32.335324c0-52.555718-30.806535-95.707944-59.593916-123.831887l-72.112676 32.335324zM267.494761 843.83369c0 12.691831 9.33138 24.374085 20.811718 26.104789l72.112676-32.335324c-11.480338-1.730704-20.811718-13.412958-20.811718-26.104789l-72.112676 32.335324z" fill="#CECEF9" /><path d="M288.306479 961.867718c-57.473803-8.581408-104.073014-67.007099-104.073014-130.480676l72.112676-32.320901c0 63.459155 46.599211 121.884845 104.073014 130.480676l-72.112676 32.320901zM184.233465 601.520676c0-11.32169-8.192-29.248901-31.239211-49.901972l72.112676-32.335324c23.047211 20.65307 31.224789 38.580282 31.224788 49.901972l-72.112676 32.335324zM152.994254 551.604282a180.656676 180.656676 0 0 0-32.277634-23.076057l72.112676-32.320901c10.340958 5.725746 21.835718 13.701408 32.277634 23.076056l-72.112676 32.320902z" fill="#CECEF9" /><path d="M120.71662 528.528225c-11.076507-6.129577-17.984901-8.148732-19.758874-8.408338l72.112677-32.320901c1.773972 0.259606 8.682366 2.278761 19.758873 8.408338l-72.112676 32.320901zM100.957746 428.176225c1.773972 0.259606 8.682366 0.317296 19.758874-2.509521l72.112676-32.320901c-11.076507 2.812394-17.984901 2.769127-19.758873 2.509521l-72.112677 32.320901z" fill="#CECEF9" /><path d="M120.71662 425.666704c6.20169-1.586479 12.836056-3.836394 19.383887-6.749746l72.112676-32.320902a123.976113 123.976113 0 0 1-19.383887 6.749747l-72.112676 32.320901z" fill="#CECEF9" /><path d="M140.100507 418.916958c4.370028-1.93262 8.725634-4.168113 12.893747-6.663212l72.112676-32.335323c-4.182535 2.509521-8.509296 4.730592-12.893747 6.677633l-72.112676 32.320902z" fill="#CECEF9" /><path d="M152.994254 412.253746c23.047211-13.787944 31.239211-29.263324 31.239211-40.585014l72.112676-32.335324c0 11.336113-8.192 26.825915-31.239211 40.585015l-72.112676 32.335323zM184.233465 141.802366c0-43.166648 21.547268-77.549972 53.406648-92.448451l72.112676-32.306478c-31.873803 14.869634-53.42107 49.26738-53.421071 92.419605l-72.112676 32.335324z" fill="#CECEF9" /><path d="M237.640113 49.368338c14.999437-7.009352 32.277634-9.691944 50.666366-6.951662l72.112676-32.320901c-18.388732-2.740282-35.66693-0.05769-50.666366 6.937239l-72.112676 32.335324zM663.018366 98.41938c57.473803 8.581408 104.087437 67.007099 104.087437 130.480676l72.112676-32.335324c0-63.459155-46.613634-121.884845-104.087437-130.480676l-72.112676 32.335324zM767.105803 458.766423c0 11.32169 8.177577 29.248901 31.224789 49.901971l72.112676-32.306479c-23.047211-20.667493-31.224789-38.594704-31.224789-49.930816l-72.112676 32.335324z" fill="#CECEF9" /><path d="M798.330592 508.682817a180.714366 180.714366 0 0 0 32.292056 23.076056l72.112676-32.335324a180.714366 180.714366 0 0 1-32.292056-23.076056l-72.112676 32.335324z" fill="#CECEF9" /><path d="M830.622648 531.758873c11.076507 6.115155 17.984901 8.13431 19.758873 8.408338l72.112676-32.335324c-1.773972-0.259606-8.682366-2.278761-19.758873-8.408338l-72.112676 32.335324zM850.381521 632.110873c-1.773972-0.274028-8.682366-0.317296-19.758873 2.509521l72.112676-32.335324c11.076507-2.812394 17.984901-2.769127 19.758873-2.509521l-72.112676 32.335324zM830.622648 634.620394c-6.20169 1.586479-12.836056 3.836394-19.383887 6.749747l72.112676-32.335324a123.803042 123.803042 0 0 1 19.383887-6.749747l-72.112676 32.335324z" fill="#CECEF9" /><path d="M811.238761 641.370141a119.288789 119.288789 0 0 0-12.908169 6.663211l72.112676-32.320901c4.182535-2.509521 8.523718-4.730592 12.908169-6.677634l-72.112676 32.335324zM798.330592 648.033352c-23.047211 13.773521-31.224789 29.263324-31.224789 40.585014l72.112676-32.320901c0-11.336113 8.177577-26.825915 31.224789-40.585014l-72.112676 32.320901zM767.105803 918.484732c0 43.166648-21.547268 77.549972-53.421071 92.448451l72.112676-32.335324c31.873803-14.884056 53.42107-49.281803 53.421071-92.448451l-72.112676 32.335324z" fill="#CECEF9" /><path d="M713.684732 1010.918761c-14.999437 7.009352-32.277634 9.691944-50.666366 6.951662l72.112676-32.335324c18.388732 2.740282 35.681352 0.05769 50.666366-6.93724l-72.112676 32.320902zM663.018366 925.926761c3.216225 0.475944 6.273803 0.11538 8.98524-0.90862l72.112676-32.335324c-2.711437 1.038423-5.769014 1.384563-8.98524 0.90862l-72.112676 32.335324z" fill="#CECEF9" /><path d="M672.003606 925.018141c6.99493-2.668169 11.826479-9.836169 11.826479-18.980056l72.112676-32.320902c0 9.143887-4.831549 16.311887-11.826479 18.965634l-72.112676 32.335324zM683.844507 676.186141c0-52.570141 30.806535-86.506366 59.593916-106.034479l72.112676-32.320901c-28.78738 19.528113-59.593915 53.449915-59.593916 106.020056l-72.112676 32.335324z" fill="#CECEF9" /><path d="M743.438423 570.151662c-28.78738-28.123944-59.593915-71.261746-59.593916-123.831887l72.112676-32.335324c0 52.570141 30.806535 95.707944 59.593916 123.84631l-72.112676 32.320901zM683.830085 216.453408c0-12.691831-9.316958-24.374085-20.811719-26.104788l72.112676-32.306479c11.494761 1.701859 20.826141 13.384113 20.826141 26.090366l-72.112676 32.320901z" fill="#CECEF9" /><path d="M288.306479 134.360338c-11.480338-1.716282-20.811718 7.182423-20.811718 19.874254v229.866366c0 52.570141-30.806535 86.506366-59.593916 106.034479 28.78738 28.123944 59.593915 71.261746 59.593916 123.831887v229.866366c0 12.691831 9.33138 24.374085 20.811718 26.104789l83.275718 12.432225v91.943662l-83.275718-12.446648c-57.473803-8.581408-104.073014-67.007099-104.073014-130.480676V601.520676c0-11.32169-8.192-29.248901-31.239211-49.901972a180.656676 180.656676 0 0 0-32.277634-23.076056C109.640113 522.398648 102.731718 520.36507 100.957746 520.105465v-91.943662c1.773972 0.259606 8.682366 0.317296 19.758874-2.509521a123.947268 123.947268 0 0 0 32.277634-13.412958c23.047211-13.787944 31.239211-29.263324 31.239211-40.585014V141.802366c0-63.473577 46.599211-107.967099 104.073014-99.371267l83.275718 12.432225v91.943662l-83.275718-12.446648zM663.018366 190.377465l-83.261296-12.446648V85.95831l83.261296 12.446648c57.473803 8.581408 104.087437 67.007099 104.087437 130.480676v229.866366c0 11.32169 8.177577 29.248901 31.224789 49.901972 10.456338 9.38907 21.936676 17.35031 32.292056 23.076056 11.076507 6.129577 17.984901 8.148732 19.758873 8.422761v91.943662c-1.773972-0.274028-8.682366-0.317296-19.758873 2.509521a123.990535 123.990535 0 0 0-32.292056 13.412958c-23.047211 13.773521-31.224789 29.263324-31.224789 40.585014v229.866366c0 63.473577-46.613634 107.967099-104.087437 99.371267l-83.261296-12.432225v-91.943662l83.261296 12.432225c11.494761 1.730704 20.826141-7.168 20.826141-19.874253V676.186141c0-52.570141 30.806535-86.506366 59.593916-106.034479-28.78738-28.123944-59.608338-71.261746-59.608338-123.831887V216.453408c0-12.691831-9.316958-24.374085-20.811719-26.104788z" fill="#4E5969" /></svg>