<?xml version="1.0" standalone="no"?><!DOCTYPE svg PUBLIC "-//W3C//DTD SVG 1.1//EN" "http://www.w3.org/Graphics/SVG/1.1/DTD/svg11.dtd"><svg class="icon" width="200px" height="200.00px" viewBox="0 0 1024 1024" version="1.1" xmlns="http://www.w3.org/2000/svg"><path d="M171.616865 36.780973l609.183135 91.025297 69.189189-31.010594L240.806054 5.756541l-69.189189 31.024432zM841.728 203.07027v749.858595l69.189189-31.024433V172.059676l-69.189189 31.010594zM780.8 1009.98227L171.616865 918.970811l69.189189-31.010595 609.183135 91.025298-69.189189 31.010594zM110.702703 843.692973V93.820541L179.891892 62.823784v749.844757L110.702703 843.692973zM110.702703 93.834378L179.891892 62.823784 110.702703 93.834378zM191.930811 128.027676v705.743567l69.189189-31.010594V97.003243l-69.189189 31.010595z" fill="#CECEF9" /><path d="M191.930811 833.771243l568.569081 84.964325 69.189189-31.024433-568.569081-84.964324-69.189189 31.024432z" fill="#CECEF9" /><path d="M760.499892 918.735568v-705.72973l69.189189-31.024433v705.72973l-69.189189 31.024433zM760.499892 212.992L191.930811 128.027676l69.189189-31.010595 568.569081 84.964324-69.189189 31.010595z" fill="#CECEF9" /><path d="M191.930811 128.027676l69.189189-31.010595-69.189189 31.010595zM371.186162 509.260108l114.867892-107.603027 69.189189-31.010595-114.854054 107.58919-69.189189 31.024432z" fill="#CECEF9" /><path d="M486.054054 401.657081l-57.427027-70.960432 69.189189-30.996757 57.427027 70.946594-69.189189 31.010595z" fill="#CECEF9" /><path d="M428.640865 330.696649L256.332108 492.115027l69.189189-31.024432 172.308757-161.390703-69.189189 31.010594z" fill="#CECEF9" /><path d="M256.332108 492.101189l172.308757 212.881297 69.189189-31.024432L325.521297 461.076757l-69.189189 31.024432z" fill="#CECEF9" /><path d="M428.640865 704.982486l57.427027-53.801513 69.189189-31.024432-57.427027 53.801513-69.189189 31.024432zM486.054054 651.180973l-114.854054-141.920865 69.189189-31.024432 114.854054 141.920865-69.189189 31.024432zM371.186162 509.260108l69.189189-31.024432-69.189189 31.024432z" fill="#CECEF9" /><path d="M516.829405 693.856865l84.078703-328.275027 69.189189-31.010595L586.032432 662.832432l-69.189189 31.010595z" fill="#CECEF9" /><path d="M600.908108 365.581838l78.446703 34.553081 69.189189-31.010595-78.446703-34.553081-69.189189 31.010595zM679.354811 400.134919L595.26227 728.423784l69.189189-31.024433 84.092541-328.275027-69.189189 31.010595z" fill="#CECEF9" /><path d="M595.26227 728.423784l-78.432865-34.566919 69.18919-31.010595 78.432864 34.553081-69.189189 31.024433z" fill="#CECEF9" /><path d="M516.829405 693.856865l69.18919-31.010595-69.18919 31.010595zM110.702703 93.834378c0-24.838919 12.60627-44.613189 31.259675-53.137297L211.165405 9.686486C192.498162 18.210595 179.891892 37.971027 179.891892 62.823784L110.702703 93.834378z" fill="#CECEF9" /><path d="M141.962378 40.710919c8.773189-4.012973 18.888649-5.535135 29.654487-3.929946l69.189189-31.024432A52.196324 52.196324 0 0 0 211.165405 9.686486l-69.189189 31.010595zM780.8 127.80627c33.653622 5.036973 60.928 38.732108 60.928 75.277838l69.189189-31.024432c0-36.531892-27.274378-70.240865-60.928-75.277838l-69.189189 31.024432zM841.728 952.928865c0 24.838919-12.620108 44.613189-31.273514 53.137297l69.18919-31.024432c18.653405-8.524108 31.273514-28.284541 31.273513-53.137298l-69.189189 31.024433z" fill="#CECEF9" /><path d="M810.468324 1006.066162c-8.787027 4.012973-18.902486 5.535135-29.668324 3.916108l69.189189-31.010594a52.196324 52.196324 0 0 0 29.668325-3.929946l-69.18919 31.024432zM171.616865 918.956973C137.977081 913.933838 110.702703 880.238703 110.702703 843.679135l69.189189-30.996757c0 36.531892 27.260541 70.227027 60.914162 75.264l-69.189189 31.010595z" fill="#CECEF9" /><path d="M110.702703 93.834378c0-36.531892 27.260541-62.076541 60.914162-57.053405l609.183135 91.025297c33.653622 5.036973 60.928 38.732108 60.928 75.277838v749.844757c0 36.531892-27.274378 62.090378-60.928 57.053405L171.616865 918.970811C137.977081 913.933838 110.702703 880.238703 110.702703 843.679135V93.848216z m81.228108 34.193298v705.743567l568.569081 84.964325v-705.72973L191.930811 128.027676z m179.255351 381.232432l114.867892-107.603027-57.427027-70.960432-172.281081 161.40454 172.281081 212.881297 57.427027-53.801513-114.854054-141.920865z m145.643243 184.596757l84.078703-328.275027 78.446703 34.553081-84.092541 328.288865-78.432865-34.566919z" fill="#4E5969" /></svg>