<?xml version="1.0" standalone="no"?><!DOCTYPE svg PUBLIC "-//W3C//DTD SVG 1.1//EN" "http://www.w3.org/Graphics/SVG/1.1/DTD/svg11.dtd"><svg class="icon" width="200px" height="200.00px" viewBox="0 0 1024 1024" version="1.1" xmlns="http://www.w3.org/2000/svg"><path d="M75.294118 45.176471l532.675764 79.600941 75.294118-33.761883L150.588235 11.444706 75.294118 45.176471z" fill="#CECEF9" /><path d="M607.969882 124.777412v93.394823l75.294118-33.761882V91.015529l-75.294118 33.761883z" fill="#CECEF9" /><path d="M607.969882 218.172235L157.244235 150.814118l75.294118-33.746824 450.710588 67.343059-75.294117 33.761882z" fill="#CECEF9" /><path d="M157.244235 150.814118v700.491294l75.294118-33.746824V117.067294l-75.294118 33.746824z" fill="#CECEF9" /><path d="M157.244235 851.305412l450.710589 67.358117 75.294117-33.761882-450.710588-67.343059-75.294118 33.746824z" fill="#CECEF9" /><path d="M607.969882 918.663529v93.394824l75.294118-33.746824v-93.394823l-75.294118 33.731765z" fill="#CECEF9" /><path d="M607.969882 1012.058353L75.294118 932.472471l75.294117-33.761883 532.675765 79.600941-75.294118 33.746824z" fill="#CECEF9" /><path d="M75.294118 932.472471V45.176471L150.588235 11.429647V898.710588l-75.294117 33.761883zM75.294118 45.176471L150.588235 11.429647 75.294118 45.176471zM655.902118 330.782118l214.919529 276.931764 75.294118-33.746823-214.91953-276.931765-75.294117 33.746824z" fill="#CECEF9" /><path d="M870.821647 607.713882L655.902118 820.419765l75.294117-33.746824 214.91953-212.705882-75.294118 33.746823z" fill="#CECEF9" /><path d="M655.902118 820.419765l-57.976471-74.691765 75.294118-33.746824 57.97647 74.691765-75.294117 33.746824z" fill="#CECEF9" /><path d="M597.925647 745.728l115.952941-114.778353 75.294118-33.761882-115.952941 114.793411-75.294118 33.746824zM713.878588 630.949647l-395.595294-59.120941 75.294118-33.761882 395.595294 59.120941-75.294118 33.761882zM318.268235 571.828706V478.418824l75.294118-33.761883v93.394824l-75.294118 33.761882z" fill="#CECEF9" /><path d="M318.268235 478.418824l395.610353 59.120941 75.294118-33.746824-395.595294-59.120941-75.294118 33.761882z" fill="#CECEF9" /><path d="M713.878588 537.539765l-115.952941-149.38353 75.294118-33.761882 115.952941 149.383529-75.294118 33.761883z" fill="#CECEF9" /><path d="M597.925647 388.156235l57.976471-57.374117 75.294117-33.761883-57.97647 57.374118-75.294118 33.761882zM655.902118 330.782118l75.294117-33.761883-75.294117 33.761883z" fill="#CECEF9" /><path d="M75.294118 45.176471l532.675764 79.600941v93.394823L157.244235 150.814118v700.491294l450.710589 67.358117v93.394824L75.294118 932.472471V45.176471z m580.608 285.605647l214.919529 276.931764-214.919529 212.705883-57.976471-74.691765 115.952941-114.778353-395.595294-59.120941v-93.394824l395.595294 59.105883-115.952941-149.38353 57.976471-57.374117z" fill="#4E5969" /></svg>