<?xml version="1.0" standalone="no"?><!DOCTYPE svg PUBLIC "-//W3C//DTD SVG 1.1//EN" "http://www.w3.org/Graphics/SVG/1.1/DTD/svg11.dtd"><svg class="icon" width="200px" height="200.00px" viewBox="0 0 1024 1024" version="1.1" xmlns="http://www.w3.org/2000/svg"><path d="M31.507692 47.261538l873.172677 130.473354 78.769231-35.304369L110.276923 11.957169 31.507692 47.261538z" fill="#CECEF9" /><path d="M904.664615 177.734892v832.527754l78.769231-35.320123V142.430523l-78.769231 35.304369z" fill="#CECEF9" /><path d="M904.680369 1010.262646L31.507692 879.773538l78.769231-35.304369 873.172677 130.473354-78.769231 35.320123z" fill="#CECEF9" /><path d="M31.507692 879.789292V47.261538L110.276923 11.957169v832.512l-78.769231 35.320123zM31.507692 47.261538L110.276923 11.957169 31.507692 47.261538zM118.815508 158.247385v146.920369l78.76923-35.304369V122.943015l-78.76923 35.30437z" fill="#CECEF9" /><path d="M118.815508 305.167754l130.977477 19.566277 78.76923-35.304369-130.977477-19.566277-78.76923 35.304369z" fill="#CECEF9" /><path d="M249.792985 324.734031v-146.904616l78.76923-35.320123v146.92037l-78.76923 35.304369z" fill="#CECEF9" /><path d="M249.792985 177.829415l-130.977477-19.58203 78.76923-35.30437 130.977477 19.566277-78.76923 35.320123zM118.815508 158.247385l78.76923-35.30437-78.76923 35.30437zM337.116554 190.8736v146.920369l78.769231-35.320123V155.569231l-78.769231 35.304369z" fill="#CECEF9" /><path d="M337.116554 337.793969l480.240246 71.758769 78.769231-35.320123L415.885785 302.473846l-78.769231 35.320123z" fill="#CECEF9" /><path d="M817.3568 409.552738V262.616615l78.769231-35.304369v146.904616l-78.769231 35.320123z" fill="#CECEF9" /><path d="M817.3568 262.632369l-480.240246-71.758769 78.769231-35.304369 480.240246 71.758769-78.769231 35.304369zM337.116554 190.8736l78.769231-35.304369-78.769231 35.304369zM817.3568 507.4944l-480.240246-71.758769 78.769231-35.320123 480.240246 71.758769-78.769231 35.320123z" fill="#CECEF9" /><path d="M337.116554 435.735631v146.904615l78.769231-35.304369v-146.920369l-78.769231 35.320123zM337.116554 582.640246l480.240246 71.774523 78.769231-35.320123-480.240246-71.758769-78.769231 35.304369z" fill="#CECEF9" /><path d="M817.3568 654.414769v-146.920369l78.769231-35.320123v146.920369l-78.769231 35.304369zM817.3568 507.4944l78.769231-35.320123-78.769231 35.320123zM817.3568 752.356431L337.116554 680.566154l78.769231-35.304369 480.240246 71.758769-78.769231 35.320123z" fill="#CECEF9" /><path d="M337.116554 680.581908v146.920369l78.769231-35.304369V645.277538l-78.769231 35.30437z" fill="#CECEF9" /><path d="M337.116554 827.502277l480.240246 71.758769 78.769231-35.304369-480.240246-71.758769-78.769231 35.304369z" fill="#CECEF9" /><path d="M817.3568 899.261046v-146.904615l78.769231-35.320123v146.920369l-78.769231 35.304369zM817.3568 752.356431l78.769231-35.320123-78.769231 35.320123zM249.792985 814.458092v-146.920369l78.76923-35.304369v146.920369l-78.76923 35.288615z" fill="#CECEF9" /><path d="M249.792985 667.537723l-130.977477-19.566277 78.76923-35.320123 130.977477 19.582031-78.76923 35.304369z" fill="#CECEF9" /><path d="M118.815508 647.955692v146.92037l78.76923-35.288616v-146.936123l-78.76923 35.320123z" fill="#CECEF9" /><path d="M118.815508 794.876062l130.977477 19.58203 78.76923-35.320123-130.977477-19.566277-78.76923 35.30437z" fill="#CECEF9" /><path d="M249.792985 814.458092l78.76923-35.304369-78.76923 35.304369zM118.815508 550.029785l130.977477 19.566277 78.76923-35.30437-130.977477-19.58203-78.76923 35.320123z" fill="#CECEF9" /><path d="M249.792985 569.596062v-146.904616l78.76923-35.320123v146.920369l-78.76923 35.30437zM249.792985 422.675692l-130.977477-19.566277 78.76923-35.304369 130.977477 19.566277-78.76923 35.304369z" fill="#CECEF9" /><path d="M118.815508 403.109415v146.92037l78.76923-35.320123v-146.904616l-78.76923 35.304369zM118.815508 550.029785l78.76923-35.320123-78.76923 35.320123z" fill="#CECEF9" /><path d="M31.507692 47.261538l873.172677 130.473354v832.527754L31.507692 879.789292V47.261538z m87.32357 110.985847v146.920369l130.961723 19.566277v-146.904616l-130.961723-19.58203z m218.285292 32.610461v146.936123l480.240246 71.758769V262.616615L337.132308 190.8736z m480.240246 316.636554L337.132308 435.735631v146.904615l480.240246 71.774523v-146.920369z m0 244.862031L337.132308 680.597662v146.904615l480.240246 71.758769v-146.904615z m-567.563815 62.101661v-146.920369l-130.961723-19.566277v146.920369l130.961723 19.566277zM118.831262 550.029785l130.961723 19.566277v-146.904616l-130.961723-19.582031v146.92037z" fill="#4E5969" /></svg>