<?xml version="1.0" standalone="no"?><!DOCTYPE svg PUBLIC "-//W3C//DTD SVG 1.1//EN" "http://www.w3.org/Graphics/SVG/1.1/DTD/svg11.dtd"><svg class="icon" width="200px" height="200.00px" viewBox="0 0 1024 1024" version="1.1" xmlns="http://www.w3.org/2000/svg"><path d="M66.782609 44.521739l553.99884 82.780754 74.202899-33.257739L140.985507 11.264 66.782609 44.521739z" fill="#CECEF9" /><path d="M620.781449 127.302493v93.555014l74.202899-33.257739V94.044754l-74.202899 33.257739z" fill="#CECEF9" /><path d="M620.781449 220.857507l-468.769391-70.047536 74.202899-33.257739 468.769391 70.047536-74.202899 33.257739z" fill="#CECEF9" /><path d="M152.012058 150.809971v701.662609l74.202899-33.27258V117.537391l-74.202899 33.27258z" fill="#CECEF9" /><path d="M152.012058 852.47258l468.769391 70.047536 74.202899-33.27258-468.769391-70.047536-74.202899 33.27258z" fill="#CECEF9" /><path d="M620.781449 922.520116v93.555014l74.202899-33.272579V889.247536l-74.202899 33.27258z" fill="#CECEF9" /><path d="M620.781449 1016.07513L66.782609 933.279536l74.202898-33.257739 553.998841 82.780754-74.202899 33.272579z" fill="#CECEF9" /><path d="M66.782609 933.279536V44.521739L140.985507 11.264v888.757797l-74.202898 33.257739zM66.782609 44.521739L140.985507 11.264 66.782609 44.521739zM464.925681 595.181449l120.550029 150.335073 74.202899-33.257739-120.550029-150.349913-74.202899 33.272579zM585.47571 745.516522l-60.252753 57.136232 74.202898-33.25774 60.252754-57.136231-74.202899 33.257739z" fill="#CECEF9" /><path d="M525.208116 802.652754L301.798029 524.050551l74.202899-33.27258 223.439768 278.617043-74.202899 33.25774zM301.783188 524.050551l223.439769-211.849276 74.202898-33.257739L375.986087 490.777971l-74.202899 33.27258z" fill="#CECEF9" /><path d="M525.208116 312.201275l60.267594 75.152696 74.202899-33.27258-60.252754-75.137855-74.202898 33.257739z" fill="#CECEF9" /><path d="M585.47571 387.33913l-120.505507 114.287305 74.202898-33.27258 120.505508-114.272464-74.202899 33.27258z" fill="#CECEF9" /><path d="M464.955362 501.626435l411.529276 61.484522 74.202898-33.242899-411.529275-61.514203-74.202899 33.27258z" fill="#CECEF9" /><path d="M876.484638 563.110957v93.555014l74.202898-33.257739v-93.555015l-74.202898 33.25774z" fill="#CECEF9" /><path d="M876.484638 656.665971l-411.573797-61.484522 74.202898-33.272579 411.573797 61.499362-74.202898 33.27258zM464.925681 595.181449l74.202899-33.272579-74.202899 33.272579z" fill="#CECEF9" /><path d="M66.782609 44.521739l553.99884 82.780754v93.555014l-468.769391-70.047536v701.662609l468.769391 70.047536v93.555014L66.782609 933.279536V44.521739z m398.143072 550.65971l120.550029 150.335073-60.252753 57.136232-223.439769-278.602203 223.439769-211.849276 60.252753 75.152696-120.505507 114.272464 411.514435 61.484522v93.555014l-411.573797-61.484522z" fill="#4E5969" /></svg>