<?xml version="1.0" standalone="no"?><!DOCTYPE svg PUBLIC "-//W3C//DTD SVG 1.1//EN" "http://www.w3.org/Graphics/SVG/1.1/DTD/svg11.dtd"><svg class="icon" width="200px" height="200.00px" viewBox="0 0 1024 1024" version="1.1" xmlns="http://www.w3.org/2000/svg"><path d="M367.784119 700.935642l9.475821 46.981731 76.417911-34.265791-9.475821-46.966448-76.417911 34.250508zM377.25994 747.917373l186.459702 27.86197 76.41791-34.265791-186.459701-27.86197-76.417911 34.265791z" fill="#CECEF9" /><path d="M563.734925 775.779343l9.475821-44.138985 76.417911-34.265791-9.475821 44.138985-76.417911 34.265791zM470.505075 139.64609l76.41791-34.250508-76.41791 34.250508zM655.833791 764.347224l-13.220298 61.531701 76.41791-34.250507 13.220298-61.531702-76.41791 34.250508zM580.653851 870.476418l-220.297552-32.920836 76.41791-34.235224 220.297552 32.905552-76.41791 34.250508zM298.381373 774.449672l-13.220298-65.49015 76.41791-34.265791 13.220299 65.49015-76.417911 34.265791zM152.835821 345.668776l76.41791-34.265791-76.41791 34.265791zM618.740537 922.257194v92.175284l76.417911-34.250508v-92.175283l-76.417911 34.250507z" fill="#CECEF9" /><path d="M618.740537 1014.447761l-296.486209-44.322388 76.417911-34.235224 296.501492 44.291821-76.41791 34.265791z" fill="#CECEF9" /><path d="M322.254328 970.140657v-92.175284l76.417911-34.265791v92.175284l-76.417911 34.265791z" fill="#CECEF9" /><path d="M322.254328 877.965373l296.501493 44.291821 76.41791-34.250507-296.501492-44.307105-76.417911 34.265791zM618.740537 922.257194l76.417911-34.250507-76.417911 34.250507zM470.505075 139.64609c-36.038687-5.379821-70.151642-1.589493-100.596538 9.750925l76.417911-34.250508c30.444896-11.340418 64.557851-15.130746 100.596537-9.766208l-76.41791 34.265791z" fill="#CECEF9" /><path d="M369.908537 149.397015c-78.297791 29.145791-132.355821 108.131343-132.355821 208.926567l76.417911-34.250507c0-100.810507 54.05803-179.780776 132.355821-208.926568l-76.417911 34.250508z" fill="#CECEF9" /><path d="M237.537433 358.323582c0 55.112597 16.124179 108.406448 43.512358 154.058508l76.41791-34.265791c-27.388179-45.65206-43.497075-98.930627-43.497074-154.058508l-76.417911 34.265791z" fill="#CECEF9" /><path d="M281.049791 512.366806l6.847045 11.370985 76.41791-34.265791-6.847045-11.355701-76.41791 34.250507z" fill="#CECEF9" /><path d="M287.896836 523.737791c29.864119 49.503522 66.284896 109.843104 79.887283 177.197851l76.417911-34.250508c-13.602388-67.37003-50.023164-127.709612-79.887284-177.213134l-76.41791 34.265791zM573.210746 731.625075c13.602388-63.27403 50.023164-112.746985 79.887284-153.324896l76.41791-34.250507c-29.864119 40.57791-66.284896 90.020299-79.887283 153.324895l-76.417911 34.265791z" fill="#CECEF9" /><path d="M653.09803 578.315463l6.847045-9.322985 76.41791-34.265791-6.847045 9.322985-76.41791 34.265791z" fill="#CECEF9" /><path d="M659.945075 568.992478c27.388179-37.46006 43.512358-85.939582 43.512358-141.052179l76.41791-34.250508c0 55.112597-16.124179 103.576836-43.512358 141.036896l-76.41791 34.265791z" fill="#CECEF9" /><path d="M703.457433 427.940299c0-139.997612-104.295164-269.067463-232.952358-288.294209l76.41791-34.250508c128.657194 19.211463 232.952358 148.296597 232.952358 288.294209l-76.41791 34.250508zM152.835821 345.668776C152.835821 215.85003 218.601075 112.578866 315.850507 68.01194l76.417911-34.250507C295.018985 78.313075 229.253731 181.568955 229.253731 311.402985l-76.41791 34.265791z" fill="#CECEF9" /><path d="M315.850507 68.01194c45.774328-20.969075 98.502687-28.931821 154.654568-20.541134l76.41791-34.265791C490.755821 4.829612 438.027463 12.792358 392.268418 33.776716l-76.417911 34.250508z" fill="#CECEF9" /><path d="M470.505075 47.470806C645.945313 73.666866 788.159045 249.703164 788.159045 440.610388l76.41791-34.265791c0-190.89194-142.213731-366.912955-317.65397-393.124298l-76.41791 34.235223zM788.174328 440.610388c0 75.011821-22.008358 141.281433-59.392 192.389731l76.417911-34.250507c37.368358-51.108299 59.376716-117.37791 59.376716-192.405015l-76.41791 34.265791z" fill="#CECEF9" /><path d="M728.782328 633.000119l-4.233552 5.792478 76.417911-34.265791 4.233552-5.792478-76.417911 34.265791z" fill="#CECEF9" /><path d="M724.548776 638.792597c-32.401194 44.261254-59.071045 80.68203-68.714985 125.554627l76.41791-34.250508c9.64394-44.887881 36.313791-81.308657 68.714986-125.56991l-76.417911 34.265791zM642.613493 825.878925c-3.943164 18.309731-14.779224 32.309493-29.222209 39.615045l76.41791-34.265791c14.442985-7.305552 25.279045-21.29003 29.222209-39.599761l-76.41791 34.250507z" fill="#CECEF9" /><path d="M613.391284 865.49397a54.195582 54.195582 0 0 1-32.737433 4.982448l76.41791-34.250508a54.210866 54.210866 0 0 0 32.737433-4.997731l-76.41791 34.265791zM360.356299 837.555582c-29.680716-4.432239-55.402985-30.628299-61.974926-63.121194l76.417911-34.235224c6.57194 32.462328 32.294209 58.673672 61.974925 63.121194l-76.41791 34.235224zM285.161075 708.959522c-9.628657-47.761194-36.313791-92.16-68.714985-146.095761l76.41791-34.250507c32.401194 53.951045 59.071045 98.334567 68.714985 146.080477l-76.41791 34.265791z" fill="#CECEF9" /><path d="M216.44609 562.863761l-4.233553-7.061015 76.417911-34.250507 4.233552 7.061015-76.41791 34.250507z" fill="#CECEF9" /><path d="M212.212537 555.81803C174.844179 493.537433 152.835821 420.680597 152.835821 345.668776l76.41791-34.265791c0 75.027104 22.008358 147.868657 59.376717 210.149254l-76.417911 34.265791z" fill="#CECEF9" /><path d="M470.505075 139.64609C341.847881 120.419343 237.552716 218.32597 237.552716 358.323582c0 55.112597 16.108896 108.406448 43.497075 154.058508l6.847045 11.355701c29.864119 49.503522 66.284896 109.843104 79.887283 177.197851l9.475821 46.981731 186.459702 27.86197 9.506388-44.138985c13.602388-63.304597 50.007881-112.762269 79.887283-153.340179l6.831762-9.307701c27.388179-37.46006 43.512358-85.939582 43.512358-141.052179 0-139.997612-104.295164-269.067463-232.952358-288.294209zM152.835821 345.668776C152.835821 154.761552 295.064836 21.244179 470.505075 47.470806 645.945313 73.666866 788.159045 249.703164 788.159045 440.595104c0 75.027104-22.008358 141.296716-59.376717 192.420299l-4.233552 5.777194c-32.401194 44.261254-59.071045 80.68203-68.714985 125.554627l-13.220298 61.531701c-6.57194 30.521313-32.294209 49.045015-61.959642 44.597493l-220.297552-32.920836c-29.680716-4.432239-55.402985-30.628299-61.974926-63.121194l-13.220298-65.474866c-9.628657-47.761194-36.313791-92.16-68.714985-146.095761l-4.233553-7.045731C174.844179 493.537433 152.835821 420.680597 152.835821 345.668776z m465.904716 576.588418v92.175284l-296.486209-44.291821v-92.175284l296.501493 44.291821z" fill="#4E5969" /></svg>