<?xml version="1.0" standalone="no"?><!DOCTYPE svg PUBLIC "-//W3C//DTD SVG 1.1//EN" "http://www.w3.org/Graphics/SVG/1.1/DTD/svg11.dtd"><svg class="icon" width="200px" height="200.00px" viewBox="0 0 1024 1024" version="1.1" xmlns="http://www.w3.org/2000/svg"><path d="M760.638951 70.303475l152.727082 193.166689 83.934426-37.636197L844.573377 32.684066l-83.934426 37.619409zM913.366033 263.470164l3.693115 10.139279 83.934426-37.61941-3.693115-10.156066-83.934426 37.636197z" fill="#CECEF9" /><path d="M917.042361 273.62623l-44.669902 14.671737 83.934426-37.636197 44.669902-14.671737-83.934426 37.61941zM917.092721 273.710164l0.033574 0.100721 83.934426-37.61941-0.033573-0.100721-83.934427 37.61941zM917.126295 273.810885l0.083935 0.235017 83.934426-37.61941-0.083935-0.235017-83.934426 37.61941z" fill="#CECEF9" /><path d="M917.21023 274.045902l0.167868 0.503606 83.934427-37.602623-0.167869-0.520393-83.934426 37.602623zM183.673705 983.275016l-0.436459-0.26859 83.934426-37.636196 0.436459 0.26859-83.934426 37.636196zM183.237246 983.006426l-0.184656-0.134295 83.934426-37.602623 0.184656 0.100722-83.934426 37.636196zM183.05259 982.872131l-0.083934-0.050361 83.934426-37.619409 0.083934 0.05036-83.934426 37.61941zM202.02177 935.801705l-19.137049 46.969705 83.934427-37.61941 19.137049-46.986492-83.934427 37.636197z" fill="#CECEF9" /><path d="M182.884721 982.77141l-8.611672-5.405377 83.934426-37.61941 8.611673 5.405377-83.934427 37.61941z" fill="#CECEF9" /><path d="M174.273049 977.366033L21.545967 784.216131l83.934426-37.61941L258.207475 939.729836l-83.934426 37.61941zM21.545967 669.192393l137.518164-132.817836 83.934426-37.636196-137.518164 132.817836-83.934426 37.636196zM262.185967 551.784918l95.550951 120.848787 83.934426-37.636197-95.550951-120.848787-83.934426 37.636197zM615.566689 423.583475l-95.550951-120.848786 83.934426-37.61941 95.550951 120.865573-83.934426 37.602623zM520.015738 187.710951l137.48459-132.817836 83.934426-37.61941-137.48459 132.817836-83.934426 37.61941zM657.517115 54.893115l83.934426-37.61941-83.934426 37.61941zM719.830033 448.629508v0.033574l83.934426-37.636197v-0.033574l-83.934426 37.636197z" fill="#CECEF9" /><path d="M719.813246 448.663082l-0.016787 0.067148 83.934426-37.636197 0.016787-0.067148-83.934426 37.636197z" fill="#CECEF9" /><path d="M719.796459 448.713443l-0.067148 0.167868 83.934427-37.602622 0.067147-0.167869-83.934426 37.602623z" fill="#CECEF9" /><path d="M719.729311 448.881311l-0.167868 0.436459 83.934426-37.619409 0.167869-0.436459-83.934427 37.636196z" fill="#CECEF9" /><path d="M719.561443 449.31777l-0.503607 1.259017 83.934426-37.636197 0.503607-1.242229-83.934426 37.619409zM368.060852 789.621508l-1.175082 0.369312 83.934427-37.61941 1.175082-0.386099-83.934427 37.636197zM366.868984 789.99082l-0.402886 0.134295 83.934427-37.636197 0.402885-0.117508-83.934426 37.61941zM366.466098 790.125115l-0.167868 0.033574 83.934426-37.61941 0.167869-0.050361-83.934427 37.636197z" fill="#CECEF9" /><path d="M366.315016 790.158689l-0.067147 0.033573 83.934426-37.636196h0.067148l-83.934427 37.602623z" fill="#CECEF9" /><path d="M366.231082 790.192262h-0.016787l83.934426-37.61941h0.033574l-83.934426 37.602623z" fill="#CECEF9" /><path d="M348.13482 737.162492l18.045901 53.046557 83.934427-37.636197-18.045902-53.046557-83.934426 37.636197z" fill="#CECEF9" /><path d="M366.180721 790.209049l-29.763147 8.829902 83.934426-37.636197 29.763148-8.829902-83.934427 37.636197z" fill="#CECEF9" /><path d="M336.434361 799.038951l-125.817705-159.106099 83.934426-37.636196 125.800918 159.106098-83.934426 37.636197z" fill="#CECEF9" /><path d="M210.616656 639.916066l-103.121836 99.630164 83.934426-37.636197 103.121836-99.613377-83.934426 37.636196zM107.49482 739.54623l120.378754 152.257049 83.934426-37.602623-120.378754-152.290623-83.934426 37.636197zM829.46518 310.725246l-120.395541-152.257049 83.934427-37.636197 120.395541 152.257049-83.934427 37.636197z" fill="#CECEF9" /><path d="M709.086426 158.468197l-103.138623 99.613377 83.934427-37.636197 103.138622-99.613377-83.934426 37.61941z" fill="#CECEF9" /><path d="M605.947803 258.064787l125.800918 159.122885 83.934427-37.636197-125.800918-159.106098-83.934427 37.636197z" fill="#CECEF9" /><path d="M731.748721 417.170885l-11.918688 31.425049 83.934426-37.619409 11.918689-31.42505-83.934427 37.61941z" fill="#CECEF9" /><path d="M719.84682 448.595934l-45.156722-26.875803 83.934427-37.636197 45.156721 26.892591-83.934426 37.619409zM674.690098 421.720131l83.934427-37.636197-83.934427 37.636197zM657.517115 54.893115c4.549246-4.398164 9.568525-7.92341 14.87318-10.575738l83.934426-37.636197a60.14741 60.14741 0 0 0-14.87318 10.575738l-83.934426 37.636197z" fill="#CECEF9" /><path d="M672.407082 44.317377c27.91659-13.966689 64.310557-4.263869 88.231869 25.986098l83.934426-37.619409C820.652066 2.417311 784.258098-7.268721 756.341508 6.68118l-83.934426 37.636197zM872.372459 288.297967c44.669902-14.688525 44.686689-14.638164 44.720262-14.587803l83.934427-37.61941c-0.033574-0.050361-0.050361-0.100721-44.720263 14.571016l-83.934426 37.636197zM917.394885 274.566295l0.419672 1.259016 83.934427-37.619409-0.419673-1.275804-83.934426 37.636197z" fill="#CECEF9" /><path d="M917.831344 275.825311c0.318951 0.956852 0.688262 2.131934 1.107935 3.525246l83.934426-37.636196a139.784393 139.784393 0 0 0-1.107935-3.525246l-83.934426 37.636196z" fill="#CECEF9" /><path d="M918.939279 279.33377c0.839344 2.769836 1.880131 6.379016 2.954491 10.793968l83.934427-37.61941a200.301115 200.301115 0 0 0-2.954492-10.793967l-83.934426 37.636196zM921.89377 290.127738c2.182295 8.829902 4.58282 20.882885 6.328656 35.806426l83.934426-37.61941a292.242885 292.242885 0 0 0-6.328655-35.806426l-83.934427 37.61941zM928.222426 325.934164c3.474885 29.947803 4.196721 71.109246-4.968918 120.781639l83.934426-37.602623c9.165639-49.68918 8.443803-90.850623 4.968918-120.798426l-83.934426 37.61941z" fill="#CECEF9" /><path d="M923.253508 446.73259c-18.364852 99.714098-75.692066 229.778885-222.761967 371.829508l83.934426-37.602623c147.069902-142.084197 204.397115-272.132197 222.761967-371.863082l-83.934426 37.636197z" fill="#CECEF9" /><path d="M700.491541 818.562098c-76.481049 73.879082-146.801311 121.604197-209.601049 151.350558l83.934426-37.61941c62.782951-29.746361 133.12-77.471475 209.601049-151.350557l-83.934426 37.619409z" fill="#CECEF9" /><path d="M490.873705 969.912656c-57.965115 27.463344-109.517639 39.617049-153.616787 42.856918l83.934426-37.636197c44.099148-3.239869 95.651672-15.376787 153.633574-42.840131l-83.934426 37.61941zM337.240131 1012.752787c-45.761049 3.390951-82.557902-2.904131-108.946885-10.743607l83.934426-37.61941c26.388984 7.822689 63.185836 14.11777 108.946885 10.743607l-83.934426 37.636197z" fill="#CECEF9" /><path d="M228.293246 1002.00918a226.539016 226.539016 0 0 1-31.25718-11.717246l83.934426-37.619409a226.287213 226.287213 0 0 0 31.25718 11.717245l-83.934426 37.61941z" fill="#CECEF9" /><path d="M197.036066 990.291934a161.271607 161.271607 0 0 1-9.283148-4.683541l83.934426-37.619409a161.154098 161.154098 0 0 0 9.283148 4.683541l-83.934426 37.619409z" fill="#CECEF9" /><path d="M187.752918 985.608393a115.49377 115.49377 0 0 1-2.988066-1.695475l83.934427-37.61941c0.80577 0.470033 1.812984 1.040787 2.988065 1.678689l-83.934426 37.636196z" fill="#CECEF9" /><path d="M184.764852 983.912918a106.882098 106.882098 0 0 1-1.091147-0.637902l83.934426-37.636196 1.091148 0.654688-83.934427 37.61941zM182.968656 982.82177l83.934426-37.636196-83.934426 37.636196zM182.951869 982.82177c0-0.100721 0.688262-1.930492 19.069901-47.020065l83.934427-37.636197c-18.381639 45.106361-19.069902 46.936131-19.069902 47.020066l-83.934426 37.636196zM21.545967 784.216131c-28.470557-36.024656-28.470557-87.52682 0-115.023738l83.934426-37.636196c-28.470557 27.513705-28.470557 79.015869 0 115.023737l-83.934426 37.636197zM159.064131 536.374557c4.549246-4.414951 9.568525-7.92341 14.87318-10.575737l83.934427-37.636197a60.19777 60.19777 0 0 0-14.873181 10.575738l-83.934426 37.636196z" fill="#CECEF9" /><path d="M173.937311 525.782033c27.91659-13.966689 64.327344-4.263869 88.248656 26.002885l83.934426-37.636197c-23.921311-30.249967-60.332066-39.952787-88.248655-25.986098l-83.934427 37.61941zM357.753705 672.633705c5.992918-2.85377 12.858754-6.345443 20.48-10.50859l83.934426-37.61941c-7.621246 4.163148-14.487082 7.638033-20.48 10.491803l-83.934426 37.636197zM378.233705 662.125115c31.592918-17.290492 75.893508-46.533246 124.592262-93.553312l83.934426-37.636196c-48.698754 47.036852-92.999344 76.26282-124.609049 93.570098l-83.934426 37.61941z" fill="#CECEF9" /><path d="M502.825967 568.571803c48.681967-47.036852 80.828852-91.656393 100.57023-123.937573l83.934426-37.636197c-19.741377 32.297967-51.871475 76.917508-100.57023 123.937574l-83.934426 37.636196z" fill="#CECEF9" /><path d="M603.396197 444.617443c4.750689-7.772328 8.796328-14.82282 12.170492-21.017181l83.934426-37.636196c-3.374164 6.211148-7.419803 13.261639-12.170492 21.033967l-83.934426 37.61941zM520.015738 302.751475c-28.487344-36.024656-28.487344-87.52682 0-115.040524l83.934426-37.61941c-28.487344 27.513705-28.487344 78.999082 0 115.023738l-83.934426 37.636196zM674.690098 421.720131c45.156721 26.875803 45.156721 26.89259 45.139935 26.909377l83.934426-37.636197-45.123148-26.909377-83.934426 37.636197zM719.074623 450.56c-0.419672 1.007213-0.956852 2.350164-1.678689 4.028852l83.934427-37.636196c0.721836-1.661902 1.259016-3.004852 1.678688-4.012066l-83.934426 37.636197z" fill="#CECEF9" /><path d="M717.395934 454.588852c-1.410098 3.307016-3.458098 7.889836-6.19436 13.597378l83.934426-37.61941c2.736262-5.707541 4.784262-10.290361 6.211148-13.597377l-83.934427 37.602623zM711.201574 468.18623c-5.472525 11.415082-13.748459 27.245115-25.348197 46.231081l83.934426-37.619409a526.134557 526.134557 0 0 0 25.348197-46.231082l-83.934426 37.61941z" fill="#CECEF9" /><path d="M685.853377 514.417311c-23.216262 37.971934-59.845246 88.517246-114.285115 141.110558l83.934427-37.636197c54.439869-52.576525 91.068852-103.121836 114.285114-141.09377l-83.934426 37.619409z" fill="#CECEF9" /><path d="M571.568262 655.527869c-54.423082 52.576525-104.66623 85.915279-141.815606 106.260983l83.934426-37.619409c37.149377-20.362492 87.392525-53.684459 141.815607-106.260984l-83.934427 37.602623zM429.769443 761.788852c-12.640525 6.916197-23.77023 12.338361-33.036591 16.501509l83.934427-37.61941c9.266361-4.163148 20.396066-9.585311 33.019803-16.501508l-83.934426 37.619409z" fill="#CECEF9" /><path d="M396.732852 778.290361c-4.36459 1.964066-8.326295 3.642754-11.817967 5.086426l83.934426-37.636197c3.491672-1.426885 7.453377-3.105574 11.817968-5.069639l-83.934427 37.61941z" fill="#CECEF9" /><path d="M384.914885 783.376787c-5.489311 2.232656-9.870689 3.860984-13.04341 4.952131l83.934427-37.61941c3.172721-1.107934 7.554098-2.736262 13.043409-4.968918l-83.934426 37.636197z" fill="#CECEF9" /><path d="M371.871475 788.328918c-1.577967 0.553967-2.85377 0.973639-3.810623 1.29259l83.934427-37.636197c0.956852-0.302164 2.232656-0.721836 3.810623-1.275803l-83.934427 37.61941zM366.214295 790.192262c-0.016787 0-0.033574 0-18.079475-53.046557l83.934426-37.602623c18.045902 53.046557 18.062689 53.02977 18.079475 53.02977l-83.934426 37.61941zM227.873574 891.820066c3.323803 1.342951 7.721967 2.971279 13.144131 4.582819l83.934426-37.636196a138.491803 138.491803 0 0 1-13.127344-4.58282l-83.934426 37.636197z" fill="#CECEF9" /><path d="M241.017705 896.402885c16.316852 4.834623 42.370098 9.736393 77.169311 7.168l83.934427-37.61941c-34.799213 2.551607-60.852459-2.350164-77.169312-7.184786l-83.934426 37.636196z" fill="#CECEF9" /><path d="M318.187016 903.570885c30.468197-2.232656 68.38977-10.273574 112.958951-29.796721l83.934426-37.61941c-44.56918 19.523148-82.490754 27.547279-112.975737 29.796721l-83.934426 37.61941z" fill="#CECEF9" /><path d="M431.145967 873.774164c56.689311-24.84459 124.139016-68.322623 200.586492-142.168131l83.934426-37.61941c-76.447475 73.845508-143.89718 117.306754-200.603278 142.168131l-83.934427 37.61941z" fill="#CECEF9" /><path d="M631.715672 731.606033c136.544525-131.860984 182.355934-245.22282 196.205115-320.394492l83.934426-37.636197c-13.84918 75.188459-59.66059 188.533508-196.188328 320.411279l-83.934426 37.61941z" fill="#CECEF9" /><path d="M827.920787 411.211541c6.94977-37.770492 6.043279-66.962885 3.911344-85.47882l83.934426-37.61941c2.148721 18.515934 3.038426 47.691541-3.911344 85.462033l-83.934426 37.636197zM831.815344 325.732721a179.95541 179.95541 0 0 0-2.350164-15.007475l83.934427-37.61941c0.772197 3.810623 1.645115 8.846689 2.350163 15.007475l-83.934426 37.61941z" fill="#CECEF9" /><path d="M657.517115 54.893115c28.470557-27.496918 74.651279-20.597508 103.121836 15.41036l152.727082 193.166689 3.693115 10.139279-44.686689 14.688524c44.669902-14.688525 44.703475-14.638164 44.720262-14.587803l0.033574 0.117508 0.083935 0.21823 0.167868 0.503606a131.777049 131.777049 0 0 1 1.561181 4.801049c0.839344 2.753049 1.880131 6.379016 2.954491 10.777181 2.182295 8.829902 4.58282 20.882885 6.328656 35.806426 3.474885 29.947803 4.196721 71.109246-4.968918 120.781639-18.364852 99.730885-75.692066 229.778885-222.761967 371.863082-147.086689 142.050623-271.36 187.425574-363.234623 194.190689-45.777836 3.357377-82.591475-2.920918-108.963672-10.743607a226.539016 226.539016 0 0 1-31.25718-11.734033 160.583344 160.583344 0 0 1-13.362361-7.016918l-0.436459-0.26859-0.184656-0.134295-0.083934-0.050361c-0.050361-0.016787-0.083934-0.050361 19.053114-47.020065l-19.137049 46.969705-8.611672-5.405377-152.727082-193.149902c-28.470557-36.024656-28.470557-87.52682 0-115.023738l137.518164-132.817836c28.470557-27.513705 74.651279-20.614295 103.121836 15.410361l95.550951 120.848787c6.009705-2.85377 12.875541-6.345443 20.48-10.50859 31.609705-17.290492 75.910295-46.516459 124.609049-93.553312 48.681967-47.036852 80.828852-91.656393 100.57023-123.937573 4.750689-7.789115 8.796328-14.839607 12.170492-21.033968l-95.550951-120.865573c-28.487344-36.007869-28.487344-87.510033 0-115.023738l137.48459-132.817836z m17.18977 366.827016a8632.084984 8632.084984 0 0 1 45.123148 26.909377v0.033574l-0.033574 0.067148-0.067148 0.167868-0.167868 0.419672-0.503607 1.259017c-0.402885 1.007213-0.940066 2.350164-1.661902 3.995279-1.410098 3.323803-3.458098 7.92341-6.19436 13.614164-5.472525 11.415082-13.748459 27.245115-25.348197 46.231081-23.233049 37.971934-59.845246 88.517246-114.285115 141.110558-54.423082 52.576525-104.66623 85.915279-141.815606 106.260983a441.897967 441.897967 0 0 1-44.837771 21.571148 275.892459 275.892459 0 0 1-16.854033 6.261508l-1.175082 0.369312-0.419672 0.134295-0.167868 0.05036h-0.050361l-0.033574 0.016787c-0.016787 0-0.033574 0-18.079475-53.046557l18.045901 53.046557-29.763147 8.846689-125.800918-159.106099-103.121836 99.613378 120.378754 152.257049c3.323803 1.376525 7.721967 2.988066 13.144131 4.599606 16.316852 4.834623 42.370098 9.736393 77.169311 7.168 69.262689-5.103213 177.017705-40.087082 313.545443-171.964852 136.527738-131.860984 182.339148-245.22282 196.188328-320.394492 6.94977-37.770492 6.043279-66.962885 3.911344-85.47882a179.95541 179.95541 0 0 0-2.350164-15.007475l-120.412328-152.257049-103.121836 99.59659 125.800918 159.106098-11.918688 31.425049-45.123148-26.875803z" fill="#4E5969" /></svg>