<?xml version="1.0" standalone="no"?><!DOCTYPE svg PUBLIC "-//W3C//DTD SVG 1.1//EN" "http://www.w3.org/Graphics/SVG/1.1/DTD/svg11.dtd"><svg class="icon" width="200px" height="200.00px" viewBox="0 0 1024 1024" version="1.1" xmlns="http://www.w3.org/2000/svg"><path d="M685.645576 911.980606l125.424485-421.391515 77.575757-34.769455-125.424485 421.391516-77.575757 34.753939z" fill="#CECEF9" /><path d="M811.070061 490.589091l-266.550303-39.827394 77.575757-34.769455 266.550303 39.827394-77.575757 34.769455zM544.504242 450.761697l52.720485-145.92 77.575758-34.769455-52.720485 145.92-77.575758 34.769455zM567.389091 186.709333l-38.260364-37.220848 77.575758-34.769455 38.260363 37.205334-77.575757 34.784969z" fill="#CECEF9" /><path d="M529.128727 149.488485L323.149576 417.683394l77.575757-34.769455L606.704485 114.71903l-77.575758 34.769455z" fill="#CECEF9" /><path d="M323.149576 417.683394l-43.473455-6.485333 77.575758-34.78497 43.473454 6.500848-77.575757 34.769455z" fill="#CECEF9" /><path d="M279.676121 411.198061V851.316364l77.575758-34.78497V376.413091l-77.575758 34.78497z" fill="#CECEF9" /><path d="M279.676121 851.316364l405.969455 60.664242 77.575757-34.78497-405.969454-60.664242-77.575758 34.78497zM685.645576 911.980606l77.575757-34.78497-77.575757 34.78497zM701.657212 1012.161939L192.077576 936.029091l77.575757-34.78497 509.579637 76.148364-77.575758 34.769454zM192.077576 936.029091V300.295758l77.575757-34.769455v635.717818l-77.575757 34.78497z" fill="#CECEF9" /><path d="M192.077576 300.295758l87.924363 13.141333 77.575758-34.78497-87.924364-13.125818-77.575757 34.769455z" fill="#CECEF9" /><path d="M280.001939 313.437091L472.762182 62.448485l77.575757-34.769455L357.577697 278.652121l-77.575758 34.78497zM563.820606 61.750303l55.544242 53.992727 77.575758-34.784969-55.544242-53.992728-77.575758 34.769455zM679.036121 352.023273l-7.214545 19.968 77.575757-34.78497 7.214546-19.968-77.575758 34.78497zM671.821576 371.991273l139.248485 20.790303 77.575757-34.75394-139.248485-20.821333-77.575757 34.78497zM894.541576 532.728242l-130.280728 437.682425 77.575758-34.769455 130.280727-437.682424-77.575757 34.753939zM764.276364 970.410667l77.575757-34.769455-77.575757 34.769455zM38.787879 913.113212V277.410909l77.575757-34.78497v635.733334l-77.575757 34.769454z" fill="#CECEF9" /><path d="M38.787879 277.395394l87.598545 13.079273 77.575758-34.769455L116.363636 242.610424 38.787879 277.410909zM126.386424 290.474667v635.733333l77.575758-34.78497V255.720727l-77.575758 34.769455z" fill="#CECEF9" /><path d="M126.386424 926.208L38.787879 913.113212l77.575757-34.769454 87.598546 13.079272-77.575758 34.78497zM38.787879 913.113212l77.575757-34.769454-77.575757 34.769454zM597.224727 304.841697c14.072242-38.974061 1.877333-87.303758-29.835636-118.132364l77.575757-34.784969c31.71297 30.844121 43.907879 79.173818 29.835637 118.147878l-77.575758 34.769455zM764.276364 970.410667c-5.228606 17.485576-16.430545 30.564848-30.72 37.298424l77.575757-34.769455c14.289455-6.749091 25.491394-19.812848 30.72-37.298424l-77.575757 34.769455z" fill="#CECEF9" /><path d="M733.556364 1007.709091a55.125333 55.125333 0 0 1-31.899152 4.452848l77.575758-34.753939c11.434667 1.706667 22.341818 0.015515 31.883636-4.468364l-77.575758 34.769455zM472.762182 62.448485c5.244121-6.811152 11.543273-12.008727 18.509576-15.577212l77.575757-34.78497c-6.966303 3.568485-13.265455 8.781576-18.509576 15.592727l-77.575757 34.769455z" fill="#CECEF9" /><path d="M491.271758 46.855758c22.062545-11.326061 50.688-6.392242 72.548848 14.894545l77.575758-34.78497C619.52 5.694061 590.910061 0.760242 568.847515 12.086303l-77.575757 34.78497zM619.364848 115.74303c63.410424 61.657212 87.831273 158.347636 59.671273 236.280243l77.575758-34.78497c28.16-77.932606 3.739152-174.607515-59.671273-236.264727l-77.575758 34.753939zM811.070061 392.797091c59.267879 8.843636 101.438061 79.530667 83.471515 139.931151l77.575757-34.784969c17.966545-60.38497-24.203636-131.072-83.471515-139.931152l-77.575757 34.78497z" fill="#CECEF9" /><path d="M685.645576 911.980606l125.424485-421.391515-266.550303-39.827394 52.704969-145.92c14.072242-38.974061 1.877333-87.303758-29.835636-118.132364l-38.260364-37.220848-205.979151 268.194909-43.473455-6.485333V851.316364l405.969455 60.664242z m78.615272 58.430061c-8.688485 29.137455-34.009212 46.033455-62.603636 41.751272L192.077576 936.029091V300.295758l87.924363 13.141333L472.762182 62.448485c21.814303-28.392727 62.277818-28.70303 91.073939-0.713697L619.364848 115.74303c63.410424 61.657212 87.831273 158.347636 59.671273 236.280243l-7.214545 19.968 139.248485 20.790303c59.267879 8.874667 101.438061 79.546182 83.471515 139.946666l-130.280728 437.682425zM38.787879 913.113212V277.410909l87.598545 13.079273v635.733333L38.787879 913.113212z" fill="#4E5969" /></svg>