<?xml version="1.0" standalone="no"?><!DOCTYPE svg PUBLIC "-//W3C//DTD SVG 1.1//EN" "http://www.w3.org/Graphics/SVG/1.1/DTD/svg11.dtd"><svg class="icon" width="200px" height="200.00px" viewBox="0 0 1024 1024" version="1.1" xmlns="http://www.w3.org/2000/svg"><path d="M204.309634 130.509521v685.791549l72.112676-32.335324V98.174197l-72.112676 32.335324z" fill="#CECEF9" /><path d="M204.309634 816.286648L469.857352 700.935211l72.112676-32.320901-265.562141 115.365859-72.112676 32.320901z" fill="#CECEF9" /><path d="M469.857352 700.935211L735.419493 895.639437l72.112676-32.320902-265.562141-194.73307-72.112676 32.320901z" fill="#CECEF9" /><path d="M735.419493 895.653859v-685.791549l72.112676-32.306479V863.332958l-72.112676 32.320901z" fill="#CECEF9" /><path d="M735.419493 209.876732L204.309634 130.509521l72.112676-32.335324L807.517746 177.541408l-72.112676 32.335324zM204.309634 130.509521l72.112676-32.335324-72.112676 32.335324zM183.872901 38.00338l571.968902 85.467944 72.112676-32.320901L256 5.682479l-72.112676 32.320901zM817.137577 199.723268v775.22569l72.112677-32.320902V167.387944l-72.112677 32.335324z" fill="#CECEF9" /><path d="M751.039099 1008.495775L469.857352 802.311211l72.112676-32.335324 281.181747 206.184564-72.112676 32.335324z" fill="#CECEF9" /><path d="M469.857352 802.311211l-281.167324 122.158874 72.112676-32.335324 281.167324-122.158874-72.112676 32.335324zM122.591549 871.164394V95.938704L194.704225 63.60338v775.240113l-72.112676 32.320901zM122.591549 95.938704L194.704225 63.60338 122.591549 95.938704zM789.460732 935.272563l0.043268 0.028845 72.112676-32.320901-0.043268-0.028845-72.112676 32.320901z" fill="#CECEF9" /><path d="M789.489577 935.301408l-17.307042 32.941071 72.112676-32.335324 17.307043-32.926648-72.112677 32.335324zM122.591549 95.938704c0-25.196169 12.691831-45.257915 31.441127-53.925859l72.112676-32.320901C207.396056 18.345465 194.704225 38.407211 194.704225 63.60338L122.591549 95.938704z" fill="#CECEF9" /><path d="M154.032676 42.012845a52.151887 52.151887 0 0 1 29.854648-4.009465l72.112676-32.320901a52.151887 52.151887 0 0 0-29.854648 4.009465l-72.112676 32.320901zM755.856225 123.471324c33.835268 5.047887 61.281352 39.200451 61.281352 76.251944l72.112677-32.335324c0-37.051493-27.446085-71.189634-61.295775-76.237521l-72.112676 32.320901zM817.137577 974.96338c0 19.311775-9.778479 33.532394-23.364507 39.661972l72.112676-32.335324c13.586028-6.115155 23.364507-20.350197 23.364508-39.661972l-72.112677 32.320902z" fill="#CECEF9" /><path d="M793.758648 1014.625352c-12.547606 5.653634-28.340282 4.398873-42.719549-6.129577l72.112676-32.335324c14.379268 10.528451 30.171944 11.783211 42.719549 6.129577l-72.112676 32.335324zM188.675606 924.455662C158.748845 937.464789 122.591549 908.302423 122.591549 871.164394l72.112676-32.320901c0 37.138028 36.157296 66.285972 66.084057 53.276845l-72.112676 32.335324z" fill="#CECEF9" /><path d="M204.295211 130.509521v685.791549l265.562141-115.380281 265.562141 194.73307v-685.791549L204.295211 130.523944zM122.591549 95.938704c0-37.065915 27.431662-62.997634 61.295775-57.935324l571.968901 85.467944c33.835268 5.047887 61.281352 39.200451 61.281352 76.251944v775.22569c0 37.152451-36.157296 55.483493-66.098478 33.546817L469.857352 802.311211 188.675606 924.455662C158.748845 937.464789 122.591549 908.302423 122.591549 871.164394V95.938704z m666.869183 839.333859l0.028845 0.028845-17.307042 32.941071" fill="#4E5969" /></svg>