<?xml version="1.0" standalone="no"?><!DOCTYPE svg PUBLIC "-//W3C//DTD SVG 1.1//EN" "http://www.w3.org/Graphics/SVG/1.1/DTD/svg11.dtd"><svg class="icon" width="200px" height="200.00px" viewBox="0 0 1024 1024" version="1.1" xmlns="http://www.w3.org/2000/svg"><path d="M198.627155 130.740282v685.791549l72.112676-32.335324V98.404958l-72.112676 32.335324z" fill="#CECEF9" /><path d="M198.627155 816.517408l270.56676-114.615887 72.112677-32.320901-270.566761 114.615887-72.112676 32.320901zM469.208338 701.901521l270.566761 195.483042 72.112676-32.320901-270.566761-195.483042-72.112676 32.320901z" fill="#CECEF9" /><path d="M739.775099 897.384563v-685.791549l72.112676-32.320901v685.791549l-72.112676 32.320901z" fill="#CECEF9" /><path d="M739.775099 211.593014L198.641577 130.740282l72.112677-32.335324 541.133521 80.867155-72.112676 32.320901zM198.627155 130.740282l72.112676-32.335324-72.112676 32.335324zM177.829859 38.176451l582.756958 87.083267 72.112676-32.335324L249.928113 5.855549l-72.112676 32.320902zM823.021972 201.67031v775.240113l72.112676-32.320902V169.349408l-72.112676 32.320902z" fill="#CECEF9" /><path d="M755.697577 1010.255324l-286.489239-206.96338 72.112676-32.335324 286.48924 206.96338-72.112677 32.335324z" fill="#CECEF9" /><path d="M469.208338 803.277521L182.719099 924.643155l72.112676-32.335324 286.489239-121.351211-72.112676 32.320901zM115.380282 871.164394V95.938704L187.492958 63.60338v775.240113l-72.112676 32.320901zM115.380282 95.938704L187.492958 63.60338 115.380282 95.938704zM429.575211 477.429183L591.468169 327.68l72.112676-32.320901-161.892958 149.749183-72.112676 32.320901z" fill="#CECEF9" /><path d="M591.468169 327.68l58.872789 72.054986 72.112676-32.335324-58.872789-72.040563-72.112676 32.320901zM650.340958 399.734986L429.575211 603.929239l72.112676-32.320901 220.765747-204.208676-72.112676 32.335324z" fill="#CECEF9" /><path d="M429.575211 603.929239l-132.442141-162.109295 72.112676-32.306479 132.442141 162.094873-72.112676 32.320901zM297.13307 441.819944l58.858367-54.445071 72.112676-32.335324-58.858367 54.459493-72.112676 32.320902z" fill="#CECEF9" /><path d="M355.991437 387.374873l73.583774 90.05431 72.112676-32.320901-73.583774-90.068733-72.112676 32.335324zM429.575211 477.429183l72.112676-32.320901-72.112676 32.320901zM115.380282 95.938704c0-25.196169 12.922592-45.214648 32.046873-53.839324l72.112676-32.320901C200.415549 18.388732 187.492958 38.407211 187.492958 63.60338L115.380282 95.938704z" fill="#CECEF9" /><path d="M147.427155 42.113803a53.983549 53.983549 0 0 1 30.388282-3.937352l72.112676-32.335324a53.983549 53.983549 0 0 0-30.388282 3.937352l-72.112676 32.320901zM760.586817 125.259718c34.469859 5.148845 62.449577 39.373521 62.449577 76.410592l72.112676-32.320902c0-37.065915-27.979718-71.261746-62.449577-76.425014l-72.112676 32.335324zM823.021972 976.910423c0 17.826254-8.480451 31.296901-20.681916 38.06107l72.112676-32.335324c12.201465-6.749746 20.681915-20.220394 20.681916-38.046648l-72.112676 32.320902z" fill="#CECEF9" /><path d="M802.340056 1014.971493c-13.211042 7.312225-30.792113 6.749746-46.642479-4.716169l72.112677-32.320901c15.864789 11.451493 33.431437 12.028394 46.642478 4.701746l-72.112676 32.335324zM182.719099 924.628732C152.215437 937.580169 115.380282 908.316845 115.380282 871.178817l72.112676-32.320902c0 37.138028 36.835155 66.38693 67.338817 53.464339l-72.112676 32.335323z" fill="#CECEF9" /><path d="M198.627155 130.740282v685.791549l270.56676-114.63031 270.566761 195.483042v-685.791549L198.641577 130.740282zM115.380282 95.938704c0-37.065915 27.950873-62.911099 62.449577-57.762253l582.756958 87.083267c34.484282 5.148845 62.449577 39.373521 62.449577 76.410592v775.240113c0 37.138028-36.849577 55.382535-67.353239 33.344901l-286.474817-206.96338L182.719099 924.628732C152.215437 937.565746 115.380282 908.302423 115.380282 871.164394V95.938704z m314.194929 381.490479L591.468169 327.68l58.872789 72.054986-220.765747 204.194253-132.456563-162.109295 58.872789-54.445071 73.583774 90.05431z" fill="#4E5969" /></svg>