<?xml version="1.0" standalone="no"?><!DOCTYPE svg PUBLIC "-//W3C//DTD SVG 1.1//EN" "http://www.w3.org/Graphics/SVG/1.1/DTD/svg11.dtd"><svg class="icon" width="200px" height="200.00px" viewBox="0 0 1024 1024" version="1.1" xmlns="http://www.w3.org/2000/svg"><path d="M217.817212 402.245818l77.575758-34.769454-77.575758 34.769454zM498.65697 983.908848l-26.763637 24.870788 77.575758-34.769454 26.763636-24.870788-77.575757 34.78497z" fill="#CECEF9" /><path d="M471.877818 1008.779636l-26.763636-32.861091 77.575757-34.784969 26.763637 32.876606-77.575758 34.769454zM445.114182 975.90303l77.575757-34.753939-77.575757 34.753939z" fill="#CECEF9" /><path d="M445.114182 975.90303l26.763636-28.687515 77.575758-34.769454-26.763637 28.70303-77.575757 34.753939z" fill="#CECEF9" /><path d="M471.893333 947.215515l26.763637 36.708849 77.575757-34.78497-26.763636-36.693333-77.575758 34.769454z" fill="#CECEF9" /><path d="M498.65697 983.924364l0.077575-0.077576 77.575758-34.769455-0.077576 0.062061-77.575757 34.78497z" fill="#CECEF9" /><path d="M498.734545 983.846788l0.186182-0.186182 77.575758-34.769454-0.186182 0.186181-77.575758 34.769455z" fill="#CECEF9" /><path d="M498.920727 983.660606l0.698182-0.651636 77.575758-34.769455-0.698182 0.651637-77.575758 34.784969zM441.561212 971.496727l1.148121 1.442909 77.575758-34.784969-1.163636-1.442909-77.575758 34.784969z" fill="#CECEF9" /><path d="M442.709333 972.939636l1.442909 1.784243 77.575758-34.769455-1.442909-1.784242-77.575758 34.769454z" fill="#CECEF9" /><path d="M444.152242 974.723879l0.698182 0.868848 77.575758-34.784969-0.698182-0.853334-77.575758 34.769455zM444.850424 975.592727l0.186182 0.232728 77.575758-34.78497-0.186182-0.232727-77.575758 34.784969zM445.036606 975.825455l0.077576 0.09309 77.575757-34.784969-0.077575-0.077576-77.575758 34.769455zM445.114182 975.90303l77.575757-34.753939-77.575757 34.753939zM413.261576 399.918545l77.575757-34.784969-77.575757 34.784969zM471.893333 251.593697l77.575758-34.769455-77.575758 34.769455zM217.817212 402.245818c0-113.741576 53.046303-203.962182 130.808243-243.510303l77.575757-34.769454c-77.761939 39.548121-130.808242 129.753212-130.808242 243.494787l-77.575758 34.78497z" fill="#CECEF9" /><path d="M348.625455 158.735515c36.600242-18.618182 78.661818-26.003394 123.252363-19.331879l77.575758-34.784969c-44.590545-6.671515-86.652121 0.729212-123.252364 19.347394l-77.575757 34.769454zM471.893333 139.403636c139.326061 20.821333 254.060606 171.504485 254.060606 338.773334l77.575758-34.78497c0-167.253333-114.71903-317.952-254.060606-338.773333l-77.575758 34.784969zM725.953939 478.17697c0 36.103758-14.36703 81.330424-40.835878 131.770182l77.575757-34.78497c26.468848-50.424242 40.835879-95.650909 40.835879-131.770182l-77.575758 34.78497z" fill="#CECEF9" /><path d="M685.118061 609.947152c-25.941333 49.415758-61.036606 99.328-96.907637 144.321939l77.575758-34.769455c35.886545-44.993939 70.966303-94.906182 96.907636-144.337454l-77.575757 34.78497z" fill="#CECEF9" /><path d="M588.210424 754.269091a1615.84097 1615.84097 0 0 1-98.614303 112.019394l77.575758-34.78497a1615.90303 1615.90303 0 0 0 98.614303-112.003879l-77.575758 34.769455z" fill="#CECEF9" /><path d="M489.596121 866.288485c-6.469818 6.702545-12.412121 12.76897-17.702788 18.090667l77.575758-34.78497c5.290667-5.321697 11.23297-11.372606 17.702788-18.090667l-77.575758 34.78497z" fill="#CECEF9" /><path d="M471.877818 884.363636c-5.290667-6.888727-11.23297-14.739394-17.702788-23.365818l77.575758-34.78497c6.469818 8.641939 12.412121 16.477091 17.702788 23.396849l-77.575758 34.753939z" fill="#CECEF9" /><path d="M454.17503 860.982303a2492.664242 2492.664242 0 0 1-98.614303-141.467151l77.575758-34.78497a2493.222788 2493.222788 0 0 0 98.614303 141.498182l-77.575758 34.753939zM355.560727 719.515152c-35.886545-55.730424-70.966303-116.115394-96.907636-173.304243l77.575757-34.753939c25.941333 57.157818 61.036606 117.542788 96.907637 173.273212l-77.575758 34.78497z" fill="#CECEF9" /><path d="M258.653091 546.226424c-26.468848-58.368-40.835879-107.876848-40.835879-143.980606l77.575758-34.769454c0 36.103758 14.36703 85.612606 40.835878 143.980606l-77.575757 34.753939zM445.114182 975.90303l77.575757-34.753939-77.575757 34.753939zM445.114182 975.90303c0 0.015515 0 0.03103 26.763636-28.687515l77.575758-34.769454-26.763637 28.70303-77.575757 34.753939z" fill="#CECEF9" /><path d="M471.893333 947.215515l26.763637 36.708849 77.575757-34.78497-26.763636-36.693333-77.575758 34.769454z" fill="#CECEF9" /><path d="M499.618909 983.00897l2.59103-2.451394 77.575758-34.769455a570.33697 570.33697 0 0 1-2.59103 2.451394l-77.575758 34.769455z" fill="#CECEF9" /><path d="M502.225455 980.557576c2.234182-2.141091 5.492364-5.259636 9.619393-9.278061l77.575758-34.753939c-4.12703 4.002909-7.385212 7.121455-9.619394 9.24703l-77.575757 34.78497z" fill="#CECEF9" /><path d="M511.844848 971.29503c8.22303-8.036848 19.921455-19.673212 33.931637-34.210909l77.575757-34.769454c-14.010182 14.537697-25.708606 26.174061-33.947151 34.195394l-77.575758 34.784969z" fill="#CECEF9" /><path d="M545.776485 937.084121a1685.767758 1685.767758 0 0 0 102.94303-116.937697l77.575758-34.784969a1685.333333 1685.333333 0 0 1-102.927515 116.953212l-77.575758 34.784969z" fill="#CECEF9" /><path d="M648.719515 820.130909c37.40703-46.917818 75.605333-100.879515 104.649697-156.206545l77.575758-34.78497c-29.044364 55.32703-67.242667 109.304242-104.649697 156.237576l-77.575758 34.753939zM753.369212 663.924364c28.485818-54.30303 50.765576-114.71903 50.765576-174.08l77.575757-34.75394c0 59.329939-22.279758 119.745939-50.765575 174.04897l-77.575758 34.78497z" fill="#CECEF9" /><path d="M804.134788 489.859879c0-214.574545-147.781818-412.64097-332.241455-440.211394l77.575758-34.78497c184.475152 27.570424 332.241455 225.652364 332.241454 440.211394l-77.575757 34.78497zM471.877818 49.648485c-51.649939-7.726545-100.429576-1.210182-143.887515 16.880485l77.575758-34.78497C449.039515 13.653333 497.803636 7.152485 549.453576 14.863515l-77.575758 34.78497z" fill="#CECEF9" /><path d="M327.990303 66.52897C216.250182 113.027879 139.636364 236.078545 139.636364 390.562909l77.575757-34.769454C217.212121 201.278061 293.825939 78.242909 405.566061 31.744l-77.575758 34.78497z" fill="#CECEF9" /><path d="M139.636364 390.562909c0 59.345455 22.279758 126.417455 50.765575 189.238303l77.575758-34.769454C239.491879 482.195394 217.212121 415.138909 217.212121 355.793455l-77.575757 34.769454z" fill="#CECEF9" /><path d="M190.401939 579.801212c29.028848 64 67.227152 129.396364 104.649697 187.485091l77.575758-34.769455c-37.422545-58.104242-75.620848-123.500606-104.649697-187.500606l-77.575758 34.78497zM295.051636 767.301818a2601.735758 2601.735758 0 0 0 102.927516 147.704243l77.575757-34.769455a2601.192727 2601.192727 0 0 1-102.927515-147.704242l-77.575758 34.753939zM397.979152 915.006061a2447.980606 2447.980606 0 0 0 33.962666 44.342303l77.575758-34.769455a2454.652121 2454.652121 0 0 1-33.962667-44.342303l-77.575757 34.769455z" fill="#CECEF9" /><path d="M431.941818 959.348364c4.111515 5.244121 7.369697 9.340121 9.619394 12.148363l77.575758-34.784969c-2.249697-2.792727-5.507879-6.888727-9.619394-12.132849l-77.575758 34.769455zM413.261576 399.918545c0-25.289697 12.132848-45.505939 30.083879-54.318545l77.575757-34.78497c-17.95103 8.843636-30.099394 29.044364-30.099394 54.318546l-77.575757 34.784969z" fill="#CECEF9" /><path d="M443.345455 345.584485a47.941818 47.941818 0 0 1 28.547878-4.235637l77.575758-34.769454a47.941818 47.941818 0 0 0-28.547879 4.235636l-77.575757 34.769455z" fill="#CECEF9" /><path d="M471.893333 341.348848c32.380121 4.840727 58.631758 38.912 58.631758 76.086304l77.575757-34.78497c0-37.174303-26.251636-71.230061-58.647272-76.070788l-77.575758 34.769454z" fill="#CECEF9" /><path d="M530.509576 417.435152c0 25.289697-12.132848 45.490424-30.083879 54.318545l77.575758-34.769455c17.95103-8.843636 30.099394-29.044364 30.099393-54.318545l-77.575757 34.769455z" fill="#CECEF9" /><path d="M500.425697 471.753697a47.941818 47.941818 0 0 1-28.547879 4.235636l77.575758-34.769454c10.364121 1.551515 20.107636-0.093091 28.547879-4.235637l-77.575758 34.769455z" fill="#CECEF9" /><path d="M471.893333 476.004848c-32.395636-4.856242-58.647273-38.912-58.647272-76.086303l77.575757-34.784969c0 37.174303 26.251636 71.245576 58.647273 76.086303l-77.575758 34.769454zM471.877818 251.593697c-21.147152-3.149576-41.192727-0.636121-59.066182 6.531879l77.575758-34.769455c17.873455-7.168 37.91903-9.69697 59.066182-6.531879l-77.575758 34.769455z" fill="#CECEF9" /><path d="M412.811636 258.125576c-45.986909 18.447515-77.730909 67.646061-77.730909 130.11006l77.575758-34.784969c0-62.448485 31.744-111.662545 77.730909-130.094546l-77.575758 34.769455z" fill="#CECEF9" /><path d="M335.080727 388.235636c0 86.745212 61.238303 166.229333 136.797091 177.508849l77.575758-34.769455c-75.558788-11.29503-136.797091-90.763636-136.797091-177.524363l-77.575758 34.784969z" fill="#CECEF9" /><path d="M471.893333 565.744485c21.147152 3.165091 41.177212 0.651636 59.066182-6.516364l77.575758-34.784969c-17.88897 7.168-37.91903 9.69697-59.066182 6.516363l-77.575758 34.78497z" fill="#CECEF9" /><path d="M530.959515 559.212606c45.986909-18.432 77.730909-67.646061 77.730909-130.094545l77.575758-34.78497c0 62.464-31.744 111.662545-77.730909 130.110061l-77.575758 34.769454z" fill="#CECEF9" /><path d="M608.690424 429.118061c0-86.745212-61.253818-166.229333-136.797091-177.524364l77.575758-34.769455c75.558788 11.29503 136.797091 90.763636 136.797091 177.508849l-77.575758 34.78497z" fill="#CECEF9" /><path d="M217.817212 402.245818c0-167.268848 114.71903-283.663515 254.060606-262.842182C611.234909 160.22497 725.953939 310.908121 725.953939 478.17697c0 36.103758-14.36703 81.330424-40.835878 131.770182-25.941333 49.431273-61.036606 99.328-96.907637 144.321939a1615.034182 1615.034182 0 0 1-116.332606 130.110061 2493.533091 2493.533091 0 0 1-116.317091-164.864c-35.886545-55.730424-70.966303-116.115394-96.907636-173.304243-26.468848-58.33697-40.835879-107.861333-40.835879-143.980606zM445.114182 975.90303l26.763636-28.70303 26.779152 36.708848-26.779152 24.855273-26.763636-32.861091z m0 0l26.763636-28.70303 26.779152 36.708848 0.077575-0.077575 0.186182-0.186182 0.698182-0.651636a691.510303 691.510303 0 0 0 12.210424-11.71394c8.238545-8.036848 19.93697-19.657697 33.947152-34.210909a1685.767758 1685.767758 0 0 0 102.94303-116.937697c37.40703-46.933333 75.605333-100.89503 104.649697-156.237576 28.485818-54.30303 50.765576-114.703515 50.765576-174.048969 0-214.574545-147.781818-412.64097-332.25697-440.211394C287.402667 22.078061 139.636364 175.988364 139.636364 390.562909c0 59.345455 22.279758 126.417455 50.765575 189.238303 29.044364 64 67.242667 129.396364 104.649697 187.500606a2601.735758 2601.735758 0 0 0 146.494061 204.179394l1.163636 1.458424 1.442909 1.784243 0.698182 0.868848 0.186182 0.232728 0.077576 0.09309z m-31.868121-576c0-37.189818 26.251636-63.394909 58.647272-58.554182 32.380121 4.825212 58.631758 38.896485 58.631758 76.070788 0 37.174303-26.251636 63.394909-58.647273 58.554182-32.380121-4.840727-58.631758-38.896485-58.631757-76.070788z m58.647272-148.324848c-75.558788-11.279515-136.812606 49.881212-136.812606 136.641939 0 86.745212 61.253818 166.229333 136.797091 177.508849 75.558788 11.29503 136.812606-49.881212 136.812606-136.626425 0-86.745212-61.253818-166.229333-136.812606-177.524363z" fill="#4E5969" /></svg>