<?xml version="1.0" standalone="no"?><!DOCTYPE svg PUBLIC "-//W3C//DTD SVG 1.1//EN" "http://www.w3.org/Graphics/SVG/1.1/DTD/svg11.dtd"><svg class="icon" width="200px" height="200.00px" viewBox="0 0 1024 1024" version="1.1" xmlns="http://www.w3.org/2000/svg"><path d="M203.130092 405.567015l292.076308-265.436553 78.769231-35.30437-292.076308 265.452308-78.769231 35.288615z" fill="#CECEF9" /><path d="M495.222154 140.130462l213.338584 45.166276 78.769231-35.320123-213.338584-45.150523-78.769231 35.30437z" fill="#CECEF9" /><path d="M708.560738 185.296738l12.555816 227.643077 78.769231-35.320123-12.555816-227.643077-78.769231 35.320123zM721.116554 412.939815l-292.076308 265.452308 78.769231-35.320123 292.076308-265.452308-78.769231 35.320123z" fill="#CECEF9" /><path d="M429.024492 678.376369L203.130092 405.567015l78.769231-35.304369 225.910154 272.809354-78.769231 35.304369zM203.130092 405.567015l78.769231-35.304369-78.769231 35.304369zM437.925415 55.611077L122.454646 342.283815l78.769231-35.320123L516.694646 20.290954l-78.769231 35.304369zM122.454646 444.731077l258.174031 311.800123 78.769231-35.320123L201.223877 409.442462l-78.769231 35.288615zM477.436062 770.993231L792.891077 484.273231l78.769231-35.304369-315.455016 286.688492-78.76923 35.320123zM812.835446 431.797169l-14.336-260.159015 78.769231-35.320123 14.336 260.174769-78.769231 35.304369z" fill="#CECEF9" /><path d="M734.176492 93.955938L490.338462 42.346338l78.76923-35.320123 243.838031 51.6096-78.769231 35.320123zM490.338462 42.346338l78.76923-35.320123-78.76923 35.320123zM575.204431 305.624615l78.769231-35.320123-78.769231 35.30437zM544.011815 336.202831l78.769231-35.288616-78.769231 35.288616zM767.873969 609.4848L445.172185 902.7584l78.76923-35.304369 322.717539-293.289354-78.769231 35.320123z" fill="#CECEF9" /><path d="M445.172185 902.7584L170.866215 571.502277l78.769231-35.320123 274.305969 331.271877-78.76923 35.304369z" fill="#CECEF9" /><path d="M170.866215 571.502277L106.322708 630.153846l78.76923-35.320123 64.543508-58.651569-78.769231 35.320123z" fill="#CECEF9" /><path d="M106.322708 630.153846l290.437907 350.743631 78.769231-35.288615L185.107692 594.817969 106.322708 630.153846zM493.568 995.375262l338.865231-307.940431 78.769231-35.320123-338.865231 307.94043-78.769231 35.320124z" fill="#CECEF9" /><path d="M832.433231 687.434831l-64.543508-77.950031 78.769231-35.320123 64.543508 77.950031-78.769231 35.320123zM767.889723 609.4848l78.769231-35.320123-78.769231 35.320123zM490.338462 42.346338a61.219446 61.219446 0 0 0-35.666708 2.74117l78.769231-35.30437a61.219446 61.219446 0 0 1 35.666707-2.756923l-78.76923 35.320123z" fill="#CECEF9" /><path d="M454.656 45.103262c-6.096738 2.4576-11.768123 5.986462-16.746338 10.492061l78.76923-35.304369c4.978215-4.521354 10.633846-8.034462 16.762093-10.507816l-78.769231 35.320124zM122.454646 342.283815c-26.734277 24.308185-26.734277 70.167631 0 102.463016l78.769231-35.320123c-26.734277-32.295385-26.734277-78.139077 0-102.447262l-78.769231 35.304369zM380.612923 756.5312c21.393723 25.820554 53.405538 35.131077 79.0528 25.379446l78.769231-35.304369c-25.631508 9.751631-57.659077 0.425354-79.037046-25.3952l-78.769231 35.320123z" fill="#CECEF9" /><path d="M459.665723 781.910646a55.847385 55.847385 0 0 0 17.770339-10.917415l78.76923-35.320123c-5.356308 4.867938-11.342769 8.491323-17.770338 10.933169l-78.769231 35.304369zM792.891077 484.288985c13.831877-12.555815 21.0944-31.665231 19.944369-52.491816l78.769231-35.304369c1.150031 20.826585-6.112492 39.920246-19.928615 52.491815l-78.769231 35.30437zM798.483692 171.6224c-2.032246-36.958523-29.664492-70.340923-64.322954-77.666462l78.769231-35.320123c34.658462 7.341292 62.290708 40.723692 64.322954 77.682216l-78.769231 35.304369zM575.204431 305.624615a33.792 33.792 0 0 1-0.567139-0.677415l78.769231-35.320123 0.567139 0.677415-78.769231 35.30437z" fill="#CECEF9" /><path d="M574.637292 304.9472c-8.916677-10.759877-8.916677-26.056862 0-34.154338l78.769231-35.320124c-8.916677 8.113231-8.916677 23.394462 0 34.154339l-78.769231 35.320123z" fill="#CECEF9" /><path d="M574.637292 270.792862c1.386338-1.260308 2.914462-2.284308 4.537108-3.056247l78.769231-35.320123c-1.622646 0.787692-3.150769 1.795938-4.537108 3.056246l-78.769231 35.320124z" fill="#CECEF9" /><path d="M579.1744 267.736615c8.522831-4.048738 19.613538-1.354831 27.128123 7.183754l78.769231-35.304369c-7.514585-8.538585-18.589538-11.248246-27.128123-7.199508l-78.769231 35.320123z" fill="#CECEF9" /><path d="M606.302523 274.920369l0.582892 0.677416 78.769231-35.320123a33.792 33.792 0 0 0-0.582892-0.661662l-78.769231 35.304369zM606.885415 275.597785c8.916677 10.759877 8.916677 26.041108 0 34.138584l78.769231-35.304369c8.916677-8.097477 8.916677-23.394462 0-34.154338l-78.769231 35.320123z" fill="#CECEF9" /><path d="M606.885415 309.736369c-1.402092 1.260308-2.930215 2.284308-4.568615 3.056246l78.769231-35.304369c1.6384-0.787692 3.166523-1.795938 4.568615-3.056246l-78.769231 35.304369z" fill="#CECEF9" /><path d="M602.332554 312.792615c-8.522831 4.048738-19.613538 1.354831-27.128123-7.183753l78.769231-35.30437c7.514585 8.522831 18.589538 11.232492 27.128123 7.183754l-78.769231 35.304369z" fill="#CECEF9" /><path d="M544.011815 336.218585a88.505108 88.505108 0 0 1-1.669907-1.969231l78.76923-35.304369 1.669908 1.953477-78.769231 35.320123z" fill="#CECEF9" /><path d="M542.341908 334.249354c-26.734277-32.295385-26.734277-78.139077 0-102.447262l78.76923-35.320123c-26.734277 24.308185-26.734277 70.167631 0 102.463016l-78.76923 35.304369z" fill="#CECEF9" /><path d="M542.341908 231.802092a55.926154 55.926154 0 0 1 13.658584-9.184492l78.769231-35.304369c-4.883692 2.315815-9.468062 5.356308-13.658585 9.168738l-78.76923 35.320123z" fill="#CECEF9" /><path d="M556.016246 222.6176c25.6-12.146215 58.935138-4.001477 81.478892 21.7088l78.769231-35.320123c-22.528-25.678769-55.878892-33.855015-81.478892-21.693046l-78.769231 35.304369zM637.495138 244.3264c0.567138 0.630154 1.134277 1.291815 1.685662 1.953477l78.769231-35.304369a88.505108 88.505108 0 0 0-1.685662-1.969231l-78.769231 35.320123z" fill="#CECEF9" /><path d="M639.165046 246.279877c26.734277 32.295385 26.734277 78.154831 0 102.463015l78.769231-35.320123c26.734277-24.292431 26.734277-70.167631 0-102.447261l-78.769231 35.304369zM639.1808 348.742892a55.989169 55.989169 0 0 1-13.674338 9.168739l78.76923-35.320123c4.883692-2.300062 9.483815-5.356308 13.674339-9.168739l-78.769231 35.320123z" fill="#CECEF9" /><path d="M625.506462 357.911631c-25.615754 12.146215-58.950892 4.001477-81.494647-21.7088l78.769231-35.288616c22.543754 25.678769 55.878892 33.839262 81.494646 21.677293l-78.76923 35.320123zM396.760615 980.897477c21.393723 25.836308 53.405538 35.131077 79.0528 25.3952l78.769231-35.304369c-25.647262 9.751631-57.659077 0.441108-79.0528-25.3952l-78.769231 35.304369z" fill="#CECEF9" /><path d="M475.813415 1006.292677a55.815877 55.815877 0 0 0 17.770339-10.917415l78.769231-35.320124c-5.356308 4.867938-11.358523 8.507077-17.770339 10.93317l-78.769231 35.304369z" fill="#CECEF9" /><path d="M203.130092 405.567015l292.076308-265.436553 213.354338 45.166276 12.555816 227.643077-292.076308 265.452308-225.910154-272.809354zM490.338462 42.346338c-19.519015-4.143262-38.596923 0.693169-52.4288 13.248985L122.454646 342.299569c-26.734277 24.292431-26.734277 70.151877 0 102.447262L380.612923 756.499692c26.750031 32.295385 70.088862 38.770215 96.823139 14.477785L792.891077 484.304738c13.816123-12.571569 21.078646-31.680985 19.928615-52.507569l-14.336-260.174769c-2.048-36.958523-29.680246-70.340923-64.322954-77.666462L490.338462 42.346338z m84.865969 263.262524a33.713231 33.713231 0 0 1-0.582893-0.661662c-8.900923-10.759877-8.900923-26.056862 0-34.154338 8.727631-7.924185 22.7328-6.033723 31.680985 4.127507l0.582892 0.677416c8.916677 10.759877 8.916677 26.041108 0 34.154338-8.727631 7.908431-22.7328 6.017969-31.680984-4.143261z m-31.192616 30.609723a88.442092 88.442092 0 0 1-1.669907-1.969231c-26.734277-32.295385-26.734277-78.154831 0-102.447262 26.182892-23.804062 68.308677-18.069662 95.15323 12.524308 0.567138 0.630154 1.118523 1.291815 1.669908 1.953477 26.734277 32.295385 26.734277 78.154831 0 102.463015-26.182892 23.788308-68.308677 18.069662-95.153231-12.524307z m223.862154 273.266215L445.172185 902.7584 170.866215 571.502277 106.322708 630.153846l290.437907 350.743631c26.734277 32.295385 70.088862 38.770215 96.823139 14.477785L832.433231 687.434831l-64.559262-77.950031z" fill="#4E5969" /></svg>