<?xml version="1.0" standalone="no"?><!DOCTYPE svg PUBLIC "-//W3C//DTD SVG 1.1//EN" "http://www.w3.org/Graphics/SVG/1.1/DTD/svg11.dtd"><svg class="icon" width="200px" height="200.00px" viewBox="0 0 1024 1024" version="1.1" xmlns="http://www.w3.org/2000/svg"><path d="M251.714954 302.568369L165.415385 249.966277l78.76923-35.304369 86.29957 52.586338-78.769231 35.320123zM223.499815 804.533169l90.694893-11.815384 78.76923-35.30437-90.694892 11.815385-78.769231 35.288615zM330.704738 191.944862l78.769231-35.320124-78.769231 35.320124zM416.894031 399.391508l-89.024985-44.945723 78.769231-35.320123 89.024985 44.945723-78.769231 35.320123zM438.019938 677.888l-84.487876-56.745354 78.76923-35.320123 84.487877 56.761108-78.769231 35.304369zM454.797785 358.447262l78.76923-35.30437-78.76923 35.30437z" fill="#CECEF9" /><path d="M330.704738 191.944862c-37.966769 33.918031-65.9456 78.580185-78.989784 110.623507l78.769231-35.320123c13.044185-32.043323 41.023015-76.705477 78.989784-110.623508l-78.769231 35.320124zM165.415385 249.966277c17.849108-43.858708 53.090462-99.328 100.745846-141.910646l78.769231-35.320123C297.275077 115.318154 262.033723 170.787446 244.184615 214.661908l-78.76923 35.304369zM266.161231 108.055631c20.873846-18.652554 45.166277-35.713969 72.404677-47.954708l78.76923-35.304369c-27.2384 12.240738-51.515077 29.302154-72.404676 47.938954l-78.769231 35.320123z" fill="#CECEF9" /><path d="M338.550154 60.100923c34.658462-15.596308 74.074585-23.378708 117.255877-16.699077l78.769231-35.320123c-43.165538-6.663877-82.581662 1.118523-117.240124 16.699077l-78.76923 35.320123z" fill="#CECEF9" /><path d="M455.806031 43.386092c109.378954 16.888123 208.139815 95.594338 264.979692 194.402462l78.769231-35.320123C742.730831 103.676062 643.969969 24.969846 534.591015 8.065969l-78.76923 35.320123zM720.801477 237.788554c57.564554 100.036923 74.074585 224.901908 11.437292 327.553969l78.769231-35.304369c62.637292-102.652062 46.127262-227.517046-11.437292-327.569723l-78.769231 35.320123z" fill="#CECEF9" /><path d="M732.238769 565.342523c-101.7856 166.801723-129.606892 237.489231-148.574523 330.043077l78.769231-35.320123c18.967631-92.553846 46.788923-163.2256 148.558769-330.043077l-78.769231 35.320123z" fill="#CECEF9" /><path d="M583.664246 895.3856c-7.908431 38.565415-32.547446 68.025108-60.447508 86.866708l78.769231-35.320123c27.900062-18.8416 52.539077-48.285538 60.447508-86.866708l-78.769231 35.320123z" fill="#CECEF9" /><path d="M523.216738 982.252308c-6.821415 4.615877-14.115446 8.774892-21.771815 12.41403l78.769231-35.304369c7.656369-3.639138 14.9504-7.813908 21.771815-12.429784l-78.769231 35.320123z" fill="#CECEF9" /><path d="M501.444923 994.666338a171.433354 171.433354 0 0 1-81.5104 16.384l78.769231-35.304369a171.433354 171.433354 0 0 0 81.526154-16.384l-78.769231 35.304369z" fill="#CECEF9" /><path d="M419.934523 1011.050338c-39.069538-1.8432-81.321354-17.486769-118.090831-53.311015l78.769231-35.304369c36.769477 35.824246 79.021292 51.452062 118.090831 53.311015l-78.769231 35.288616z" fill="#CECEF9" /><path d="M301.843692 957.739323c-36.611938-35.698215-63.472246-87.181785-78.343877-153.206154l78.769231-35.320123c14.871631 66.040123 41.731938 117.523692 78.343877 153.221908l-78.769231 35.304369z" fill="#CECEF9" /><path d="M314.194708 792.733538c10.980431 48.758154 28.293908 76.264369 43.984738 91.5456l78.769231-35.304369c-15.690831-15.281231-33.004308-42.787446-43.984739-91.561354l-78.76923 35.30437z" fill="#CECEF9" /><path d="M358.179446 884.279138c15.533292 15.139446 33.713231 22.480738 53.058954 23.394462l78.769231-35.304369c-19.329969-0.913723-37.525662-8.255015-53.058954-23.394462l-78.769231 35.304369z" fill="#CECEF9" /><path d="M411.2384 907.6736a92.742892 92.742892 0 0 0 41.542892-7.939938l78.769231-35.288616a92.742892 92.742892 0 0 1-41.542892 7.924185l-78.769231 35.304369z" fill="#CECEF9" /><path d="M452.781292 899.749415c4.978215-2.205538 9.720123-4.820677 14.115446-7.798153l78.769231-35.30437c-4.395323 2.961723-9.137231 5.576862-14.115446 7.7824l-78.769231 35.320123z" fill="#CECEF9" /><path d="M466.896738 891.951262c16.273723-10.996185 23.599262-23.788308 25.300677-32.043324l78.769231-35.320123c-1.685662 8.270769-9.026954 21.062892-25.300677 32.059077l-78.769231 35.30437zM492.197415 859.907938c22.212923-108.354954 56.130954-189.487262 160.216616-360.0384l78.769231-35.304369c-104.085662 170.551138-138.003692 251.683446-160.216616 360.022646l-78.769231 35.320123zM652.398277 499.869538c40.282585-66.008615 31.381662-145.801846-8.664615-215.402338l78.76923-35.320123c40.046277 69.616246 48.9472 149.393723 8.664616 215.418092l-78.769231 35.304369zM643.733662 284.4672c-40.770954-70.8608-111.836554-126.818462-188.352985-138.633846l78.769231-35.288616c76.516431 11.815385 147.582031 67.741538 188.352984 138.602339l-78.76923 35.320123z" fill="#CECEF9" /><path d="M455.380677 145.849108c-24.355446-3.765169-48.553354 0.441108-71.837539 10.870154l78.769231-35.320124c23.284185-10.429046 47.482092-14.619569 71.837539-10.870153l-78.769231 35.320123z" fill="#CECEF9" /><path d="M383.543138 156.703508c-18.274462 8.192-36.013292 20.227938-52.8384 35.241354l78.769231-35.320124c16.825108-15.013415 34.548185-27.0336 52.8384-35.2256l-78.769231 35.30437zM454.797785 358.447262c-2.2528 0.504123-4.568615 1.276062-6.884431 2.315815l78.769231-35.320123c2.315815-1.024 4.631631-1.795938 6.88443-2.300062l-78.76923 35.30437z" fill="#CECEF9" /><path d="M447.913354 360.763077c-12.177723 5.419323-24.670523 18.116923-31.019323 38.628431l78.769231-35.320123c6.3488-20.495754 18.8416-33.209108 31.019323-38.628431l-78.769231 35.320123zM327.869046 354.445785c12.666092-40.881231 38.5024-72.373169 71.0656-88.457847l78.769231-35.304369c-32.5632 16.068923-58.399508 47.576615-71.0656 88.442093l-78.769231 35.320123z" fill="#CECEF9" /><path d="M398.934646 265.987938a114.530462 114.530462 0 0 1 25.584246-9.074215l78.769231-35.304369a114.530462 114.530462 0 0 0-25.584246 9.074215l-78.769231 35.304369z" fill="#CECEF9" /><path d="M424.518892 256.913723c46.6944-10.492062 99.989662 9.452308 136.522831 64.905846l78.769231-35.304369c-36.548923-55.469292-89.828431-75.397908-136.522831-64.905846l-78.769231 35.304369z" fill="#CECEF9" /><path d="M561.041723 321.819569c26.844554 40.770954 31.602215 82.707692 23.709539 120.2176l78.76923-35.304369c7.892677-37.525662 3.135015-79.446646-23.709538-120.2176l-78.769231 35.304369z" fill="#CECEF9" /><path d="M584.751262 442.052923c-7.294031 34.689969-25.316431 65.7408-43.512124 92.018215l78.769231-35.304369c18.195692-26.293169 36.218092-57.344 43.512123-92.033969l-78.76923 35.304369zM541.239138 534.071138c-13.233231 19.109415-28.798031 38.722954-43.307323 56.997416l78.769231-35.320123c14.509292-18.274462 30.089846-37.872246 43.307323-56.981662l-78.769231 35.304369z" fill="#CECEF9" /><path d="M497.931815 591.068554c-5.450831 6.868677-10.759877 13.548308-15.753846 19.960123l78.769231-35.320123c4.993969-6.396062 10.303015-13.075692 15.753846-19.960123l-78.769231 35.320123zM482.193723 611.028677c-19.361477 24.875323-34.752985 46.647138-44.173785 66.859323l78.769231-35.320123c9.4208-20.196431 24.812308-41.968246 44.173785-66.859323l-78.769231 35.320123zM353.532062 621.142646c13.957908-29.979569 34.658462-58.273477 54.240492-83.432369l78.769231-35.320123c-19.566277 25.174646-40.282585 53.468554-54.240493 83.432369l-78.76923 35.320123zM407.772554 537.710277c6.159754-7.924185 12.177723-15.486031 18.0224-22.843077l78.769231-35.320123c-5.844677 7.357046-11.862646 14.934646-18.0224 22.843077l-78.769231 35.320123zM425.794954 514.851446c13.831877-17.408 26.718523-33.634462 38.281846-50.349292l78.769231-35.320123c-11.563323 16.714831-24.449969 32.941292-38.281846 50.365046l-78.769231 35.304369z" fill="#CECEF9" /><path d="M464.092554 464.502154c16.462769-23.804062 26.025354-42.897723 29.302154-58.462523l78.76923-35.320123c-3.261046 15.580554-12.839385 34.658462-29.302153 58.462523l-78.769231 35.320123z" fill="#CECEF9" /><path d="M493.410462 406.039631c2.678154-12.760615 1.024-21.251938-5.466585-31.098093l78.769231-35.304369c6.490585 9.846154 8.144738 18.321723 5.466584 31.082339l-78.76923 35.320123z" fill="#CECEF9" /><path d="M487.943877 374.941538c-10.271508-15.596308-21.330708-19.156677-33.146092-16.494276l78.76923-35.30437c11.815385-2.6624 22.874585 0.897969 33.146093 16.494277l-78.769231 35.304369z" fill="#CECEF9" /><path d="M330.704738 191.944862c-37.966769 33.918031-65.9456 78.580185-78.989784 110.623507L165.415385 249.966277c17.849108-43.858708 53.090462-99.328 100.745846-141.910646 47.434831-42.377846 112.545477-76.563692 189.6448-64.669539 109.378954 16.888123 208.139815 95.594338 264.979692 194.402462 57.580308 100.036923 74.090338 224.901908 11.437292 327.553969-101.769846 166.801723-129.591138 237.489231-148.558769 330.043077-7.908431 38.565415-32.547446 68.025108-60.447508 86.866708a171.008 171.008 0 0 1-103.282215 28.79803c-39.069538-1.8432-81.321354-17.486769-118.090831-53.311015-36.611938-35.698215-63.472246-87.181785-78.343877-153.206154l90.694893-11.815384c10.980431 48.773908 28.293908 76.280123 43.984738 91.561353 15.533292 15.139446 33.728985 22.480738 53.058954 23.394462a93.262769 93.262769 0 0 0 55.658338-15.722338c16.273723-10.996185 23.599262-23.788308 25.300677-32.043324 22.212923-108.354954 56.130954-189.487262 160.216616-360.0384 40.282585-66.008615 31.365908-145.801846-8.680369-215.402338-40.770954-70.8608-111.836554-126.818462-188.352985-138.633846-43.480615-6.695385-86.457108 11.972923-124.675939 46.111508z m124.093047 166.518153c-14.083938 3.150769-30.341908 16.510031-37.903754 40.928493l-89.040739-44.945723c15.848369-51.105477 52.255508-87.544123 96.6656-97.516308 46.6944-10.507815 99.989662 9.4208 136.522831 64.905846 26.844554 40.770954 31.602215 82.691938 23.709539 120.201846-7.294031 34.705723-25.316431 65.756554-43.512124 92.033969-13.233231 19.109415-28.798031 38.722954-43.307323 56.997416-5.450831 6.868677-10.759877 13.548308-15.753846 19.960123-19.345723 24.875323-34.737231 46.647138-44.158031 66.859323l-84.487876-56.745354c13.957908-29.979569 34.658462-58.257723 54.240492-83.432369 6.159754-7.908431 12.177723-15.486031 18.0224-22.843077 13.831877-17.423754 26.718523-33.650215 38.281846-50.365046 16.478523-23.804062 26.056862-42.897723 29.333662-58.462523 2.678154-12.760615 1.024-21.251938-5.466585-31.098093-10.271508-15.596308-21.330708-19.156677-33.146092-16.494276z" fill="#4E5969" /></svg>