<?xml version="1.0" standalone="no"?><!DOCTYPE svg PUBLIC "-//W3C//DTD SVG 1.1//EN" "http://www.w3.org/Graphics/SVG/1.1/DTD/svg11.dtd"><svg class="icon" width="200px" height="200.00px" viewBox="0 0 1024 1024" version="1.1" xmlns="http://www.w3.org/2000/svg"><path d="M98.191781 42.082192l415.09874 62.02915 70.136986-31.449424L168.328767 10.660822 98.191781 42.082192z" fill="#CECEF9" /><path d="M513.290521 104.111342v479.217973l70.136986-31.435397V72.661918l-70.136986 31.449424z" fill="#CECEF9" /><path d="M513.290521 583.329315L98.191781 521.300164l70.136986-31.435397 415.09874 62.029151-70.136986 31.435397z" fill="#CECEF9" /><path d="M98.191781 521.300164V42.082192L168.328767 10.646795v479.217972l-70.136986 31.435397zM98.191781 42.082192L168.328767 10.646795 98.191781 42.082192zM177.264219 145.183562v296.651397l70.136986-31.435397V113.734137l-70.136986 31.449425zM177.264219 441.834959l256.953863 38.407014 70.136986-31.449425-256.953863-38.392986-70.136986 31.435397z" fill="#CECEF9" /><path d="M434.218082 480.241973v-296.679452l70.136986-31.42137v296.651397l-70.136986 31.449425z" fill="#CECEF9" /><path d="M434.218082 183.576548L177.264219 145.183562l70.136986-31.449425 256.953863 38.392986-70.136986 31.449425z" fill="#CECEF9" /><path d="M177.264219 145.183562l70.136986-31.449425-70.136986 31.449425zM592.348932 115.922411l256.96789 38.407014 70.136986-31.449425-256.96789-38.392986-70.136986 31.435397z" fill="#CECEF9" /><path d="M849.316822 154.315397v296.679452l70.136986-31.449424V122.88l-70.136986 31.435397z" fill="#CECEF9" /><path d="M849.316822 450.980822l-256.96789-38.392986 70.136986-31.449425 256.96789 38.407014-70.136986 31.435397z" fill="#CECEF9" /><path d="M592.348932 412.587836V115.922411l70.136986-31.435397V381.124384l-70.136986 31.449424zM592.348932 115.922411l70.136986-31.435397-70.136986 31.435397zM671.42137 219.023781v114.098849l70.136986-31.449425v-114.098849l-70.136986 31.449425z" fill="#CECEF9" /><path d="M671.42137 333.12263L770.244384 347.879452l70.136986-31.449425-98.823014-14.770849-70.136986 31.449425z" fill="#CECEF9" /><path d="M770.244384 347.879452v-114.098849l70.136986-31.435398v114.09885l-70.136986 31.449424z" fill="#CECEF9" /><path d="M770.244384 233.79463l-98.823014-14.770849 70.136986-31.449425 98.823014 14.770849-70.136986 31.449425zM671.42137 219.023781l70.136986-31.449425-70.136986 31.449425zM236.558027 222.502575l138.366247 20.676384 70.136986-31.449425-138.366246-20.676383-70.136987 31.449424z" fill="#CECEF9" /><path d="M374.910247 243.178959v159.729973l70.136986-31.435398V211.729534l-70.136986 31.449425z" fill="#CECEF9" /><path d="M374.924274 402.908932L236.558027 382.246575l70.136987-31.449424 138.366246 20.676383-70.136986 31.435398z" fill="#CECEF9" /><path d="M236.558027 382.246575V222.502575l70.136987-31.449424v159.744l-70.136987 31.449424z" fill="#CECEF9" /><path d="M236.558027 222.502575l70.136987-31.449424-70.136987 31.449424zM730.715178 524.540493l118.601644 17.716603 70.136986-31.435397-118.601644-17.716603-70.136986 31.435397zM849.316822 542.257096v91.290301l70.136986-31.449424v-91.276274l-70.136986 31.449424z" fill="#CECEF9" /><path d="M849.316822 633.547397L730.715178 615.80274l70.136986-31.435398 118.601644 17.716603-70.136986 31.449425z" fill="#CECEF9" /><path d="M730.715178 615.816767v-91.276274l70.136986-31.435397v91.276274l-70.136986 31.435397zM730.715178 524.540493l70.136986-31.435397-70.136986 31.435397zM98.191781 612.576438l256.96789 38.407014 70.136987-31.449425L168.328767 581.155068l-70.136986 31.449425z" fill="#CECEF9" /><path d="M355.159671 650.983452v296.665425l70.136987-31.449425V619.548055l-70.136987 31.42137z" fill="#CECEF9" /><path d="M355.159671 947.648877L98.191781 909.241863l70.136986-31.435397 256.967891 38.392986-70.136987 31.449425z" fill="#CECEF9" /><path d="M98.191781 909.25589V612.576438l70.136986-31.42137v296.651398l-70.136986 31.435397zM98.191781 612.576438l70.136986-31.42137-70.136986 31.42137zM592.348932 503.86411l79.05841 11.811068 70.136987-31.435397-79.058411-11.811069-70.136986 31.435398zM671.42137 515.675178v91.290301l70.136986-31.449424v-91.276274l-70.136986 31.435397z" fill="#CECEF9" /><path d="M671.407342 606.965479l-79.05841-11.825095 70.136986-31.435398 79.058411 11.811069-70.136987 31.449424zM592.348932 595.140384V503.86411l70.136986-31.435398v91.276274l-70.136986 31.435398zM592.348932 503.86411l70.136986-31.435398-70.136986 31.435398zM177.264219 715.677808v114.09885l70.136986-31.435398v-114.098849l-70.136986 31.435397z" fill="#CECEF9" /><path d="M177.264219 829.776658l98.823014 14.770849 70.136986-31.435397-98.823014-14.77085-70.136986 31.435398z" fill="#CECEF9" /><path d="M276.087233 844.547507v-114.098849l70.136986-31.449425v114.112877l-70.136986 31.435397z" fill="#CECEF9" /><path d="M276.087233 730.448658L177.264219 715.677808l70.136986-31.435397 98.823014 14.756822-70.136986 31.449425zM177.264219 715.677808l70.136986-31.435397-70.136986 31.435397zM592.348932 686.430685l256.96789 38.392986 70.136986-31.435397-256.96789-38.407014-70.136986 31.449425z" fill="#CECEF9" /><path d="M849.316822 724.823671v296.665425l70.136986-31.449425V693.388274l-70.136986 31.435397z" fill="#CECEF9" /><path d="M849.316822 1021.475068l-256.96789-38.392986 70.136986-31.435397 256.96789 38.392986-70.136986 31.449425z" fill="#CECEF9" /><path d="M592.348932 983.082082V686.430685l70.136986-31.449425v296.665425l-70.136986 31.435397zM592.348932 686.430685l70.136986-31.449425-70.136986 31.449425zM671.42137 789.518027v114.09885l70.136986-31.435398v-114.098849l-70.136986 31.435397z" fill="#CECEF9" /><path d="M671.42137 903.616877l98.823014 14.770849 70.136986-31.435397-98.823014-14.77085-70.136986 31.435398z" fill="#CECEF9" /><path d="M770.244384 918.387726v-114.098849l70.136986-31.435398v114.09885l-70.136986 31.435397z" fill="#CECEF9" /><path d="M770.244384 804.288877l-98.823014-14.77085 70.136986-31.435397 98.823014 14.770849-70.136986 31.435398zM671.42137 789.518027l70.136986-31.435397-70.136986 31.435397zM434.218082 754.084822V662.794521l70.136986-31.435398v91.276274l-70.136986 31.449425z" fill="#CECEF9" /><path d="M434.218082 662.794521l79.072439 11.825095 70.136986-31.449424-79.072439-11.811069-70.136986 31.435398z" fill="#CECEF9" /><path d="M513.290521 674.619616V765.89589l70.136986-31.449424v-91.276274l-70.136986 31.449424z" fill="#CECEF9" /><path d="M513.290521 765.89589l-79.072439-11.811068 70.136986-31.449425 79.072439 11.811069-70.136986 31.449424zM434.218082 754.084822l70.136986-31.449425-70.136986 31.449425zM434.218082 959.459945v-136.921424l70.136986-31.435398v136.907398l-70.136986 31.449424z" fill="#CECEF9" /><path d="M434.218082 822.538521l79.072439 11.811068 70.136986-31.435397-79.072439-11.811069-70.136986 31.42137zM513.290521 834.349589v136.921425l70.136986-31.435398v-136.921424l-70.136986 31.435397z" fill="#CECEF9" /><path d="M513.290521 971.271014l-79.072439-11.811069 70.136986-31.449424 79.072439 11.825095-70.136986 31.435398zM434.218082 959.459945l70.136986-31.449424-70.136986 31.449424z" fill="#CECEF9" /><path d="M98.191781 42.082192l415.09874 62.02915v479.217973L98.191781 521.300164V42.082192z m79.058411 103.10137v296.651397l256.981918 38.407014v-296.679452L177.236164 145.183562z m415.09874-29.261151l256.96789 38.407014V450.980822l-256.96789-38.392986V115.922411z m79.072438 103.10137v114.098849L770.244384 347.879452v-114.098849l-98.823014-14.77085z m-434.863343 3.478794l138.366247 20.676384v159.729973L236.558027 382.246575V222.502575z m494.157151 302.037918l118.601644 17.716603v91.290301L730.715178 615.80274v-91.276274zM98.191781 612.590466l256.96789 38.392986v296.665425L98.191781 909.241863V612.590466z m494.157151-108.712329l79.072438 11.797041v91.290301l-79.072438-11.825095V503.86411zM177.250192 715.677808v114.084822l98.837041 14.770849v-114.098849L177.250192 715.677808z m415.09874-29.26115l256.96789 38.392986v296.665424l-256.96789-38.407013V686.430685z m79.072438 103.101369v114.084822l98.823014 14.77085v-114.09885l-98.823014-14.770849z m-237.203288-35.447232V662.794521l79.072439 11.811068V765.89589l-79.072439-11.825095z m0 205.361095v-136.907397l79.072439 11.811069v136.921424l-79.072439-11.811068z" fill="#4E5969" /></svg>