<?xml version="1.0" standalone="no"?><!DOCTYPE svg PUBLIC "-//W3C//DTD SVG 1.1//EN" "http://www.w3.org/Graphics/SVG/1.1/DTD/svg11.dtd"><svg class="icon" width="200px" height="200.00px" viewBox="0 0 1024 1024" version="1.1" xmlns="http://www.w3.org/2000/svg"><path d="M225.543758 187.733333l77.575757-34.769454-77.575757 34.769454zM225.543758 323.413333v400.027152l77.575757-34.769455V288.643879l-77.575757 34.769454zM311.451152 736.28703v-56.009697l77.575757-34.784969v56.009697l-77.575757 34.784969zM311.451152 558.390303V336.244364l77.575757-34.78497v222.130424l-77.575757 34.769455zM268.489697 50.284606l77.575758-34.769454-77.575758 34.769454z" fill="#CECEF9" /><path d="M311.404606 680.525576l77.575758-34.769455-77.575758 34.769455zM633.576727 248.707879l77.575758-34.769455-77.575758 34.769455zM268.489697 817.586424l77.575758-34.769454-77.575758 34.769454zM225.543758 187.733333c0-17.997576 8.890182-32.364606 22.031515-38.601697l77.575757-34.784969c-13.141333 6.237091-22.031515 20.604121-22.031515 38.617212l-77.575757 34.769454z" fill="#CECEF9" /><path d="M247.590788 149.131636c6.17503-2.947879 13.312-4.06497 20.898909-2.947878l77.575758-34.75394c-7.586909-1.148121-14.723879 0-20.914425 2.916849l-77.575757 34.784969z" fill="#CECEF9" /><path d="M268.489697 146.199273c23.738182 3.537455 42.961455 27.880727 42.961455 54.380606l77.575757-34.78497c0-26.484364-19.238788-50.827636-42.961454-54.380606l-77.575758 34.78497z" fill="#CECEF9" /><path d="M311.435636 200.579879c0 17.997576-8.890182 32.364606-22.031515 38.601697l77.575758-34.78497c13.141333-6.221576 22.031515-20.588606 22.031515-38.601697l-77.575758 34.78497z" fill="#CECEF9" /><path d="M289.404121 239.181576a35.964121 35.964121 0 0 1-20.914424 2.932363l77.575758-34.784969c7.602424 1.132606 14.739394 0 20.914424-2.932364l-77.575758 34.78497z" fill="#CECEF9" /><path d="M268.489697 242.113939c-23.722667-3.55297-42.945939-27.896242-42.945939-54.380606l77.575757-34.769454c0 26.484364 19.238788 50.827636 42.94594 54.365091l-77.575758 34.784969zM268.489697 50.284606c-19.921455-2.978909-38.787879-0.744727-55.637333 5.740606l77.575757-34.753939C307.277576 14.739394 326.144 12.520727 346.065455 15.515152l-77.575758 34.769454z" fill="#CECEF9" /><path d="M212.867879 56.040727C169.534061 72.750545 139.636364 117.697939 139.636364 174.886788l77.575757-34.75394C217.212121 82.897455 247.125333 37.965576 290.443636 21.255758l-77.575757 34.784969z" fill="#CECEF9" /><path d="M139.636364 174.902303c0 62.634667 35.855515 121.281939 85.907394 148.526545l77.575757-34.784969C253.052121 261.430303 217.212121 202.78303 217.212121 140.117333l-77.575757 34.78497zM225.543758 723.440485a103.889455 103.889455 0 0 0-17.37697 5.926788l77.575757-34.769455a103.873939 103.873939 0 0 1 17.37697-5.926788l-77.575757 34.769455z" fill="#CECEF9" /><path d="M208.166788 729.367273C167.408485 747.442424 139.636364 791.164121 139.636364 846.289455l77.575757-34.769455c0-55.125333 27.772121-98.862545 68.530424-116.922182l-77.575757 34.769455z" fill="#CECEF9" /><path d="M139.636364 846.289455c0 79.468606 57.685333 152.498424 128.853333 163.126303l77.575758-34.769455C274.897455 964.002909 217.212121 890.973091 217.212121 811.52l-77.575757 34.769455z" fill="#CECEF9" /><path d="M268.489697 1009.415758c19.921455 2.978909 38.787879 0.744727 55.637333-5.740606l77.575758-34.78497c-16.833939 6.500848-35.700364 8.73503-55.637333 5.740606l-77.575758 34.78497z" fill="#CECEF9" /><path d="M324.12703 1003.675152c43.318303-16.725333 73.231515-61.657212 73.231515-118.877091l77.575758-34.769455c0 57.204364-29.913212 102.151758-73.231515 118.861576l-77.575758 34.769454zM397.34303 884.798061c0-62.634667-35.84-121.281939-85.891878-148.511031l77.575757-34.784969c50.036364 27.229091 85.891879 85.876364 85.891879 148.526545l-77.575758 34.769455zM311.451152 680.261818c0.186182-0.822303 1.225697-3.61503 5.771636-8.300606l77.575757-34.769454c-4.561455 4.685576-5.585455 7.478303-5.771636 8.300606l-77.575757 34.769454z" fill="#CECEF9" /><path d="M317.222788 671.961212c6.904242-7.121455 18.633697-15.065212 36.305454-23.676121l77.575758-34.769455c-17.671758 8.595394-29.401212 16.554667-36.305455 23.676122l-77.575757 34.769454zM353.528242 648.285091c2.172121-1.05503 4.375273-2.110061 6.640485-3.149576l77.575758-34.753939c-2.265212 1.024-4.468364 2.063515-6.640485 3.13406l-77.575758 34.769455z" fill="#CECEF9" /><path d="M360.168727 645.135515c25.941333-11.931152 57.37503-22.605576 92.315152-34.490182l77.575757-34.769454c-34.940121 11.869091-66.373818 22.55903-92.315151 34.490182l-77.575758 34.769454z" fill="#CECEF9" /><path d="M452.468364 610.645333c12.132848-4.12703 24.684606-8.378182 37.577697-12.908606l77.575757-34.769454c-12.877576 4.499394-25.444848 8.781576-37.577697 12.908606l-77.575757 34.769454zM490.046061 597.736727c24.467394-8.564364 49.958788-17.966545 74.565818-28.842666l77.575757-34.769455c-24.60703 10.876121-50.098424 20.278303-74.565818 28.842667l-77.575757 34.769454z" fill="#CECEF9" /><path d="M564.627394 568.894061c26.670545-11.791515 52.332606-25.305212 74.581333-41.378909l77.575758-34.78497c-22.248727 16.089212-47.910788 29.602909-74.581333 41.394424l-77.575758 34.769455z" fill="#CECEF9" /><path d="M639.224242 527.515152c39.45503-28.501333 74.333091-69.569939 79.592728-130.125576l77.575757-34.769455c-5.259636 60.540121-40.137697 101.624242-79.592727 130.110061L639.224242 527.515152z" fill="#CECEF9" /><path d="M718.81697 397.389576c6.050909-1.427394 11.884606-3.397818 17.485575-5.833697l77.575758-34.78497a104.153212 104.153212 0 0 1-17.485576 5.849212l-77.575757 34.769455z" fill="#CECEF9" /><path d="M736.302545 391.555879c41.068606-17.92 69.08897-61.796848 69.08897-117.170424l77.575758-34.78497c0 55.389091-28.020364 99.265939-69.08897 117.170424l-77.575758 34.78497zM805.391515 274.385455c0-79.453091-57.685333-152.498424-128.853333-163.126303l77.575757-34.78497c71.168 10.643394 128.853333 83.673212 128.853334 163.126303l-77.575758 34.78497z" fill="#CECEF9" /><path d="M676.538182 111.243636c-19.921455-2.963394-38.787879-0.729212-55.637334 5.771637l77.575758-34.78497c16.849455-6.500848 35.715879-8.719515 55.637333-5.740606l-77.575757 34.753939z" fill="#CECEF9" /><path d="M620.900848 117.015273c-43.318303 16.709818-73.231515 61.641697-73.231515 118.84606l77.575758-34.753939c0-57.219879 29.913212-102.167273 73.231515-118.877091l-77.575758 34.78497z" fill="#CECEF9" /><path d="M547.684848 235.876848c0 61.998545 35.126303 120.087273 84.38691 147.673213l77.575757-34.769455c-49.260606-27.585939-84.402424-85.674667-84.402424-147.688727l-77.575758 34.784969z" fill="#CECEF9" /><path d="M632.056242 383.550061c-4.359758 20.914424-18.447515 40.773818-45.707636 60.462545l77.575758-34.78497c27.260121-19.688727 41.347879-39.532606 45.723151-60.44703l-77.575757 34.769455zM586.348606 444.012606c-16.182303 11.682909-35.328 22.062545-56.521697 31.697455l77.575758-34.78497c21.193697-9.619394 40.339394-20.014545 56.521697-31.697455l-77.575758 34.78497z" fill="#CECEF9" /><path d="M529.826909 475.694545c-22.962424 10.441697-48.314182 19.968-74.845091 29.261576l77.575758-34.784969c26.530909-9.293576 51.882667-18.819879 74.845091-29.246061l-77.575758 34.78497zM454.981818 504.956121c-11.031273 3.847758-22.357333 7.695515-33.76097 11.574303l77.575758-34.784969c11.403636-3.863273 22.729697-7.71103 33.745455-11.574303l-77.575758 34.784969z" fill="#CECEF9" /><path d="M421.236364 516.530424c-34.133333 11.589818-68.887273 23.381333-98.148849 36.429576l77.575758-34.769455c29.246061-13.048242 64-24.855273 98.133333-36.44509l-77.575758 34.784969z" fill="#CECEF9" /><path d="M323.087515 552.96c-3.987394 1.784242-7.866182 3.584-11.636363 5.430303l77.575757-34.78497c3.770182-1.830788 7.64897-3.630545 11.636364-5.430303l-77.575758 34.78497zM311.451152 336.259879a103.920485 103.920485 0 0 0 17.376969-5.926788l77.575758-34.769455a104.060121 104.060121 0 0 1-17.37697 5.911273l-77.575757 34.78497z" fill="#CECEF9" /><path d="M328.812606 330.333091c40.773818-18.059636 68.530424-61.796848 68.530424-116.922182l77.575758-34.78497c0 55.125333-27.772121 98.862545-68.530424 116.937697l-77.575758 34.769455z" fill="#CECEF9" /><path d="M397.34303 213.410909c0-79.453091-57.685333-152.498424-128.853333-163.126303l77.575758-34.769454c71.168 10.627879 128.853333 83.657697 128.853333 163.110787l-77.575758 34.78497zM311.404606 680.525576l0.03103-0.263758 77.575758-34.769454a0.775758 0.775758 0 0 0-0.03103 0.263757l-77.575758 34.769455z" fill="#CECEF9" /><path d="M311.451152 680.261818a0.930909 0.930909 0 0 1-0.046546 0.263758l77.575758-34.78497 0.046545-0.248242-77.575757 34.769454z" fill="#CECEF9" /><path d="M311.404606 680.525576l77.575758-34.769455-77.575758 34.769455zM633.576727 248.707879c0-17.997576 8.905697-32.380121 22.047031-38.601697l77.575757-34.78497c-13.141333 6.237091-22.031515 20.604121-22.031515 38.617212l-77.575758 34.769455z" fill="#CECEF9" /><path d="M655.623758 210.106182a35.948606 35.948606 0 0 1 20.914424-2.947879l77.575757-34.753939c-7.602424-1.148121-14.723879 0-20.914424 2.916848l-77.575757 34.78497z" fill="#CECEF9" /><path d="M676.538182 207.173818c23.722667 3.537455 42.945939 27.880727 42.945939 54.365091l77.575758-34.769454c0-26.484364-19.238788-50.827636-42.94594-54.380607l-77.575757 34.78497z" fill="#CECEF9" /><path d="M719.484121 261.538909c0 18.013091-8.890182 32.380121-22.031515 38.617212l77.575758-34.784969c13.141333-6.221576 22.031515-20.588606 22.031515-38.601697l-77.575758 34.769454z" fill="#CECEF9" /><path d="M697.452606 300.156121c-6.206061 2.932364-13.327515 4.06497-20.914424 2.932364l77.575757-34.78497c7.602424 1.132606 14.723879 0 20.914425-2.932363l-77.575758 34.784969z" fill="#CECEF9" /><path d="M676.538182 303.088485c-23.738182-3.55297-42.961455-27.896242-42.961455-54.380606l77.575758-34.769455c0 26.484364 19.238788 50.827636 42.961454 54.380606l-77.575757 34.75394zM268.489697 817.586424a36.258909 36.258909 0 0 0-18.540606 1.923879l77.575757-34.78497c5.616485-2.172121 11.900121-2.901333 18.540607-1.908363l-77.575758 34.769454z" fill="#CECEF9" /><path d="M249.949091 819.510303c-14.429091 5.585455-24.405333 20.557576-24.405333 39.625697l77.575757-34.78497c0-19.068121 9.960727-34.040242 24.405333-39.610182l-77.575757 34.769455z" fill="#CECEF9" /><path d="M225.543758 859.136c0 26.484364 19.238788 50.827636 42.945939 54.365091l77.575758-34.769455c-23.722667-3.55297-42.945939-27.896242-42.94594-54.380606l-77.575757 34.78497zM268.489697 913.501091c6.640485 0.99297 12.939636 0.248242 18.556121-1.908364l77.575758-34.784969c-5.616485 2.172121-11.915636 2.916848-18.556121 1.923878l-77.575758 34.769455z" fill="#CECEF9" /><path d="M287.030303 911.592727c14.444606-5.585455 24.405333-20.557576 24.405333-39.625697l77.575758-34.784969c0 19.083636-9.960727 34.055758-24.389818 39.625697l-77.575758 34.784969z" fill="#CECEF9" /><path d="M311.451152 871.951515c0-26.468848-19.238788-50.812121-42.961455-54.365091l77.575758-34.769454c23.738182 3.537455 42.961455 27.880727 42.961454 54.380606l-77.575757 34.753939z" fill="#CECEF9" /><path d="M225.543758 187.733333c0-26.484364 19.238788-45.08703 42.945939-41.53406 23.738182 3.537455 42.961455 27.880727 42.961455 54.380606 0 26.484364-19.238788 45.071515-42.961455 41.53406-23.722667-3.55297-42.945939-27.896242-42.945939-54.380606z m42.945939-137.448727C197.321697 39.656727 139.636364 95.433697 139.636364 174.902303c0 62.634667 35.855515 121.281939 85.907394 148.51103v400.027152C175.476364 735.728485 139.636364 783.639273 139.636364 846.289455c0 79.468606 57.685333 152.498424 128.853333 163.126303 71.168 10.643394 128.853333-45.149091 128.853333-124.617697 0-62.634667-35.84-121.281939-85.891878-148.511031v-56.009697c0.186182-0.837818 1.210182-3.630545 5.771636-8.316121 6.904242-7.121455 18.633697-15.065212 36.305454-23.676121 27.151515-13.234424 60.974545-24.731152 98.940122-37.639758 12.132848-4.111515 24.684606-8.378182 37.593212-12.893091 50.967273-17.842424 106.340848-39.330909 149.147151-70.23709 39.470545-28.501333 74.348606-69.569939 79.592728-130.125576 50.424242-11.993212 86.590061-60.074667 86.59006-123.004121 0-79.453091-57.685333-152.498424-128.853333-163.126303-71.168-10.627879-128.853333 45.149091-128.853334 124.617696 0 61.998545 35.126303 120.087273 84.371394 147.673213-4.359758 20.914424-18.447515 40.773818-45.707636 60.462545-33.698909 24.343273-80.337455 43.070061-131.366788 60.943515-11.031273 3.847758-22.357333 7.695515-33.76097 11.574303-38.787879 13.172364-78.382545 26.608485-109.769696 41.844364V336.259879c50.036364-12.272485 85.891879-60.198788 85.891878-122.84897 0-79.453091-57.685333-152.498424-128.853333-163.126303z m42.914909 630.24097s0-0.093091 0.046546-0.263758a0.775758 0.775758 0 0 1-0.046546 0.263758zM633.592242 248.707879c0-26.484364 19.223273-45.08703 42.94594-41.534061 23.722667 3.537455 42.945939 27.880727 42.945939 54.380606 0 26.484364-19.238788 45.071515-42.945939 41.534061-23.722667-3.55297-42.945939-27.896242-42.94594-54.380606zM268.489697 817.586424c-23.722667-3.537455-42.945939 15.049697-42.945939 41.549576 0 26.484364 19.238788 50.827636 42.945939 54.365091 23.738182 3.55297 42.961455-15.049697 42.961455-41.534061s-19.238788-50.827636-42.961455-54.380606z" fill="#4E5969" /></svg>