<?xml version="1.0" standalone="no"?><!DOCTYPE svg PUBLIC "-//W3C//DTD SVG 1.1//EN" "http://www.w3.org/Graphics/SVG/1.1/DTD/svg11.dtd"><svg class="icon" width="200px" height="200.00px" viewBox="0 0 1024 1024" version="1.1" xmlns="http://www.w3.org/2000/svg"><path d="M545.461677 73.050839L388.129032 49.548387 470.709677 12.535742l157.332646 23.502452-82.580646 37.012645z" fill="#CECEF9" /><path d="M388.129032 49.548387v156.870194l82.580645-37.012646V12.535742L388.129032 49.548387z" fill="#CECEF9" /><path d="M388.129032 206.418581l157.332645 23.518967 82.580646-37.029161L470.709677 169.405935l-82.580645 37.012646z" fill="#CECEF9" /><path d="M545.461677 229.937548V73.050839l82.580646-37.012645v156.870193l-82.580646 37.029161zM545.461677 73.050839l82.580646-37.012645-82.580646 37.012645zM545.461677 465.259355L388.129032 441.723871l82.580645-37.029161 157.332646 23.518967-82.580646 37.012646z" fill="#CECEF9" /><path d="M388.129032 441.740387v156.870194l82.580645-37.029162v-156.870193l-82.580645 37.029161z" fill="#CECEF9" /><path d="M388.129032 598.610581l157.332645 23.502451 82.580646-37.012645L470.709677 561.581419l-82.580645 37.029162z" fill="#CECEF9" /><path d="M545.461677 622.113032V465.259355l82.580646-37.012645v156.870193l-82.580646 37.012645zM545.461677 465.259355l82.580646-37.029161-82.580646 37.012645zM545.461677 857.434839L388.129032 833.899355l82.580645-37.012645 157.332646 23.502451-82.580646 37.029162z" fill="#CECEF9" /><path d="M388.129032 833.915871v156.88671l82.580645-37.029162V796.903226L388.129032 833.899355z" fill="#CECEF9" /><path d="M388.129032 990.802581l157.332645 23.502451 82.580646-37.012645L470.709677 953.773419 388.129032 990.802581z" fill="#CECEF9" /><path d="M545.461677 1014.305032v-156.870193l82.580646-37.029162v156.88671l-82.580646 37.012645zM545.461677 857.434839l82.580646-37.029162-82.580646 37.029162z" fill="#CECEF9" /><path d="M545.461677 73.050839L388.129032 49.548387v156.870194l157.332645 23.518967V73.050839z m0 392.192L388.129032 441.740387v156.870194l157.332645 23.502451V465.259355z m0 392.192L388.129032 833.899355v156.88671l157.332645 23.502451v-156.870193z" fill="#4E5969" /></svg>