<?xml version="1.0" standalone="no"?><!DOCTYPE svg PUBLIC "-//W3C//DTD SVG 1.1//EN" "http://www.w3.org/Graphics/SVG/1.1/DTD/svg11.dtd"><svg class="icon" width="200px" height="200.00px" viewBox="0 0 1024 1024" version="1.1" xmlns="http://www.w3.org/2000/svg"><path d="M447.787323 282.135631l78.769231-35.304369-78.769231 35.288615zM721.5104 373.901785v0.063015l78.769231-35.304369v-0.078769l-78.769231 35.320123z" fill="#CECEF9" /><path d="M721.526154 373.9648l0.063015 0.677415 78.769231-35.304369-0.078769-0.677415-78.769231 35.304369zM770.426092 558.584123l1.150031 2.426092 78.769231-35.320123-1.150031-2.410338-78.769231 35.304369z" fill="#CECEF9" /><path d="M771.576123 560.994462l0.897969 2.520615 78.769231-35.288615-0.897969-2.520616-78.769231 35.288616zM182.240492 385.669908l0.346585-0.6144 78.769231-35.30437-0.346585 0.6144-78.769231 35.30437zM182.587077 385.055508l0.126031-0.2048 78.76923-35.320123-0.12603 0.220553-78.769231 35.30437zM182.713108 384.850708l0.047261-0.094523 78.769231-35.30437-0.047262 0.07877-78.76923 35.320123z" fill="#CECEF9" /><path d="M182.744615 384.756185l0.031508-0.031508 78.769231-35.304369-0.015754 0.031507-78.769231 35.30437z" fill="#CECEF9" /><path d="M217.340062 413.176123l-34.548185-28.482954 78.769231-35.304369 34.548184 28.4672-78.76923 35.320123z" fill="#CECEF9" /><path d="M182.791877 384.708923l44.315569-76.705477 78.769231-35.304369-44.315569 76.689723-78.769231 35.304369z" fill="#CECEF9" /><path d="M227.107446 308.003446l28.278154 95.956677 78.769231-35.304369-28.278154-95.956677-78.769231 35.304369z" fill="#CECEF9" /><path d="M255.369846 403.960123l0.047262 0.126031 78.76923-35.304369-0.031507-0.126031-78.769231 35.304369z" fill="#CECEF9" /><path d="M255.417108 404.086154l0.157538 0.535631 78.769231-35.320123-0.157539-0.519877-78.76923 35.304369zM255.574646 404.621785l0.677416 2.221292 78.76923-35.304369-0.677415-2.237046-78.769231 35.320123zM459.760246 111.726277l75.208862-67.552492 78.76923-35.30437-75.208861 67.536739-78.769231 35.320123z" fill="#CECEF9" /><path d="M534.969108 44.173785l-7.609108 114.215384 78.769231-35.320123 7.609107-114.215384-78.76923 35.320123z" fill="#CECEF9" /><path d="M527.36 158.373415v0.126031l78.769231-35.304369v-0.126031l-78.769231 35.304369z" fill="#CECEF9" /><path d="M527.344246 158.499446l-0.031508 0.598646 78.769231-35.304369 0.031508-0.598646-78.769231 35.304369zM645.435077 347.277785l61.014646-128.535631 78.769231-35.304369-60.998892 128.519877-78.769231 35.320123z" fill="#CECEF9" /><path d="M706.449723 218.742154l15.060677 155.112369 78.769231-35.320123-15.060677-155.096615-78.769231 35.304369z" fill="#CECEF9" /><path d="M721.5104 373.838769v0.063016l78.769231-35.320123v-0.047262l-78.769231 35.320123zM721.5104 373.901785l78.769231-35.320123-78.769231 35.320123zM309.374031 592.187077l78.769231-35.320123-78.769231 35.304369zM333.918523 590.674708l78.769231-35.320123-78.769231 35.320123zM447.787323 282.135631c-15.990154 38.770215-24.040369 80.817231-29.018585 123.730707l78.769231-35.320123c4.978215-42.913477 13.028431-84.944738 29.018585-123.730707l-78.769231 35.320123z" fill="#CECEF9" /><path d="M418.768738 405.866338c-2.961723 25.552738-4.600123 48.143754-6.238523 70.93957l78.769231-35.30437c1.6384-22.811569 3.2768-45.386831 6.238523-70.939569l-78.769231 35.288616z" fill="#CECEF9" /><path d="M412.530215 476.805908a2107.234462 2107.234462 0 0 1-4.174769 51.688369l78.769231-35.304369c1.748677-18.195692 2.961723-35.005046 4.174769-51.704123l-78.769231 35.320123z" fill="#CECEF9" /><path d="M408.355446 528.494277c-3.733662 38.722954-9.720123 79.194585-25.458215 112.340677l78.769231-35.304369c15.738092-33.146092 21.740308-73.633477 25.458215-112.340677l-78.769231 35.304369z" fill="#CECEF9" /><path d="M382.897231 640.834954c-5.797415 12.224985-15.092185 25.993846-29.632985 33.004308l78.769231-35.320124c14.5408-7.010462 23.835569-20.779323 29.632985-32.988553l-78.769231 35.320123z" fill="#CECEF9" /><path d="M353.264246 673.839262c-4.600123 2.205538-9.720123 3.749415-15.423015 4.363815l78.769231-35.304369c5.702892-0.630154 10.822892-2.158277 15.423015-4.37957l-78.769231 35.320124z" fill="#CECEF9" /><path d="M337.841231 678.203077c-23.835569 2.552123-43.228554-12.760615-54.335016-24.260923l78.769231-35.320123c11.106462 11.500308 30.499446 26.8288 54.350769 24.260923l-78.76923 35.320123zM283.506215 653.942154c-21.614277-22.401969-39.825723-59.108431-53.248-89.875692l78.769231-35.30437c13.422277 30.767262 31.633723 67.457969 53.248 89.859939l-78.769231 35.320123z" fill="#CECEF9" /><path d="M230.273969 564.082215a899.780923 899.780923 0 0 1-10.539323-25.237661l78.769231-35.320123c3.387077 8.444062 6.900185 16.919631 10.539323 25.237661l-78.769231 35.320123z" fill="#CECEF9" /><path d="M219.734646 538.844554c-10.113969 57.438523-8.822154 131.229538 31.507692 208.061046l78.769231-35.320123c-40.329846-76.815754-41.621662-150.606769-31.507692-208.061046l-78.769231 35.320123z" fill="#CECEF9" /><path d="M251.242338 746.889846c45.764923 87.181785 113.301662 136.948185 179.940431 159.980308l78.769231-35.304369c-66.638769-23.032123-134.175508-72.798523-179.956185-159.980308l-78.76923 35.320123zM431.182769 906.870154c62.763323 21.693046 121.005292 18.416246 155.679508 3.450092l78.769231-35.320123c-34.658462 14.966154-92.916185 18.242954-155.679508-3.434338l-78.769231 35.304369z" fill="#CECEF9" /><path d="M586.862277 910.320246c2.993231-1.307569 5.828923-2.693908 8.491323-4.159015l78.769231-35.320123a95.562831 95.562831 0 0 1-8.507077 4.159015l-78.769231 35.320123z" fill="#CECEF9" /><path d="M595.337846 906.161231c87.559877-48.663631 156.750769-165.509908 103.928123-315.659816l78.769231-35.304369c52.822646 150.134154-16.384 266.996185-103.912369 315.644062l-78.769231 35.320123zM699.265969 590.501415a561.325292 561.325292 0 0 1-23.362954-59.628307l78.769231-35.320123a561.199262 561.199262 0 0 0 23.362954 59.644061l-78.769231 35.304369z" fill="#CECEF9" /><path d="M675.903015 530.873108c-5.419323 15.738092-12.130462 31.791262-20.842338 44.268307l78.769231-35.320123c8.727631-12.461292 15.423015-28.514462 20.826584-44.268307l-78.76923 35.320123zM655.076431 575.141415c-5.907692 8.428308-14.430523 17.754585-26.529477 23.063631l78.769231-35.320123c12.098954-5.309046 20.637538-14.635323 26.529477-23.063631l-78.769231 35.320123z" fill="#CECEF9" /><path d="M628.546954 598.189292c-13.201723 5.797415-28.199385 5.702892-43.197046-0.787692l78.76923-35.288615c14.997662 6.459077 29.995323 6.5536 43.197047 0.771938l-78.769231 35.320123z" fill="#CECEF9" /><path d="M585.349908 597.417354c-49.183508-21.220431-79.872-68.450462-98.760862-115.680492l78.769231-35.30437c18.873108 47.214277 49.577354 94.444308 98.760861 115.664739l-78.76923 35.320123z" fill="#CECEF9" /><path d="M486.589046 481.752615c-18.936123-47.387569-29.050092-101.895877-34.579692-151.221169l78.769231-35.304369c5.5296 49.309538 15.643569 103.817846 34.579692 151.205415l-78.769231 35.30437z" fill="#CECEF9" /><path d="M452.009354 330.531446a1023.243815 1023.243815 0 0 1-4.222031-48.395815l78.769231-35.304369c1.008246 15.627815 2.363077 31.885785 4.222031 48.395815l-78.769231 35.304369zM721.589169 374.642215c0.063015 0.661662 0.173292 1.717169 0.346585 3.119262l78.769231-35.304369-0.346585-3.119262-78.769231 35.304369zM721.935754 377.777231c0.330831 2.835692 0.866462 7.089231 1.654154 12.571569l78.76923-35.320123c-0.787692-5.466585-1.323323-9.735877-1.654153-12.571569l-78.769231 35.320123z" fill="#CECEF9" /><path d="M723.574154 390.3488c1.575385 10.948923 4.096 26.592492 7.876923 44.929969l78.769231-35.320123c-3.780923-18.337477-6.301538-33.965292-7.876923-44.929969l-78.769231 35.320123z" fill="#CECEF9" /><path d="M731.451077 435.278769c7.656369 37.179077 20.054646 83.117292 38.975015 123.305354l78.769231-35.304369c-18.904615-40.203815-31.318646-86.126277-38.990769-123.321108l-78.769231 35.320123zM772.474092 563.515077c75.145846 209.053538-25.221908 365.252923-134.380307 425.920985l78.76923-35.30437c109.1584-60.668062 209.526154-216.867446 134.380308-425.920984l-78.769231 35.304369z" fill="#CECEF9" /><path d="M638.093785 989.436062a153.284923 153.284923 0 0 1-6.5536 3.434338l78.76923-35.304369c2.237046-1.102769 4.411077-2.2528 6.5536-3.434339l-78.76923 35.30437z" fill="#CECEF9" /><path d="M631.540185 992.8704c-53.4528 26.450708-134.049477 29.002831-214.173539 1.323323l78.769231-35.320123c80.124062 27.695262 160.720738 25.143138 214.189292-1.307569l-78.769231 35.304369z" fill="#CECEF9" /><path d="M417.366646 994.193723c-85.039262-29.396677-174.016985-94.349785-233.913108-208.423385l78.769231-35.304369c59.896123 114.057846 148.873846 179.026708 233.913108 208.423385l-78.769231 35.288615z" fill="#CECEF9" /><path d="M183.453538 785.786092C127.464369 679.132554 127.968492 577.803815 141.453785 505.383385l78.76923-35.30437c-13.485292 72.388923-13.989415 173.733415 41.999754 280.3712l-78.769231 35.320123z" fill="#CECEF9" /><path d="M141.469538 505.399138a450.292185 450.292185 0 0 1 25.237662-86.583138l78.769231-35.304369A450.276431 450.276431 0 0 0 220.238769 470.094769l-78.769231 35.304369z" fill="#CECEF9" /><path d="M166.722954 418.816c4.222031-10.381785 8.065969-18.589538 10.933169-24.3712l78.769231-35.304369c-2.8672 5.765908-6.711138 13.989415-10.933169 24.3712l-78.769231 35.304369z" fill="#CECEF9" /><path d="M177.656123 394.4448c1.4336-2.882954 2.630892-5.167262 3.513108-6.805662l78.769231-35.304369c-0.882215 1.6384-2.079508 3.906954-3.513108 6.805662l-78.769231 35.288615z" fill="#CECEF9" /><path d="M181.169231 387.639138a143.675077 143.675077 0 0 1 1.071261-1.96923l78.769231-35.30437a151.867077 151.867077 0 0 0-1.071261 1.969231l-78.769231 35.304369z" fill="#CECEF9" /><path d="M182.776123 384.724677s0.015754-0.031508 34.563939 28.451446l78.76923-35.320123c-34.548185-28.4672-34.548185-28.451446-34.563938-28.435692l-78.769231 35.304369zM256.252062 406.843077c0.598646 1.984985 1.496615 4.930954 2.678153 8.680369l78.769231-35.304369a1030.648123 1030.648123 0 0 1-2.678154-8.680369l-78.76923 35.304369z" fill="#CECEF9" /><path d="M258.930215 415.523446c2.331569 7.514585 5.750154 18.211446 9.987939 30.767262l78.769231-35.30437a1481.601969 1481.601969 0 0 1-10.003693-30.767261l-78.76923 35.304369z" fill="#CECEF9" /><path d="M268.918154 446.306462c8.522831 25.332185 20.086154 57.391262 32.641969 86.2208l78.769231-35.30437c-12.555815-28.829538-24.103385-60.904369-32.641969-86.236554l-78.769231 35.30437z" fill="#CECEF9" /><path d="M301.560123 532.527262c6.207015 14.194215 11.972923 25.993846 17.014154 35.257107l78.769231-35.320123a448.606523 448.606523 0 0 1-17.014154-35.257108l-78.769231 35.320124z" fill="#CECEF9" /><path d="M318.590031 567.768615c4.316554-16.163446 7.309785-36.233846 9.688615-60.888615l78.769231-35.304369c-2.378831 24.654769-5.356308 44.725169-9.688615 60.904369l-78.769231 35.288615zM328.262892 506.88c1.244554-12.855138 2.394585-28.215138 3.623385-44.677908l78.769231-35.320123c-1.244554 16.462769-2.378831 31.822769-3.623385 44.677908l-78.769231 35.320123zM331.870523 462.202092c1.906215-25.678769 4.017231-54.035692 7.010462-79.824738l78.76923-35.304369c-2.993231 25.789046-5.088492 54.145969-7.010461 79.808984l-78.769231 35.320123zM338.880985 382.377354c10.586585-91.325046 35.446154-193.914092 120.879261-270.651077l78.769231-35.320123c-85.433108 76.752738-110.292677 179.326031-120.879262 270.651077l-78.76923 35.320123zM527.312738 159.098092l-0.157538 2.599385 78.769231-35.304369 0.157538-2.615139-78.769231 35.320123z" fill="#CECEF9" /><path d="M527.1552 161.697477c-0.126031 2.363077-0.299323 5.891938-0.472615 10.460554l78.76923-35.304369c0.173292-4.568615 0.346585-8.113231 0.472616-10.460554l-78.769231 35.304369z" fill="#CECEF9" /><path d="M526.682585 172.158031a1097.680738 1097.680738 0 0 0-0.803447 38.549661l78.769231-35.320123c0.063015-16.116185 0.441108-29.380923 0.787693-38.533907l-78.769231 35.304369z" fill="#CECEF9" /><path d="M525.863385 210.707692c-0.110277 32.405662 1.039754 75.697231 6.033723 120.201846l78.76923-35.304369c-4.993969-44.520369-6.144-87.796185-6.017969-120.201846l-78.769231 35.288615z" fill="#CECEF9" /><path d="M531.897108 330.909538c5.041231 45.056 13.737354 88.4736 27.332923 122.501908l78.769231-35.320123c-13.595569-34.028308-22.275938-77.430154-27.332924-122.486154l-78.76923 35.304369z" fill="#CECEF9" /><path d="M559.230031 453.395692c10.4448 26.151385 22.039631 42.629908 34.248861 52.09797l78.769231-35.288616c-12.209231-9.483815-23.788308-25.962338-34.248861-52.113723l-78.769231 35.320123z" fill="#CECEF9" /><path d="M593.478892 505.509415c3.040492-6.427569 6.585108-15.911385 10.665354-29.0816l78.769231-35.304369c-4.080246 13.170215-7.624862 22.654031-10.665354 29.065846l-78.769231 35.320123z" fill="#CECEF9" /><path d="M604.144246 476.427815c3.576123-11.594831 6.805662-23.315692 10.271508-35.950277l78.769231-35.320123c-3.465846 12.634585-6.679631 24.3712-10.271508 35.966031l-78.769231 35.304369z" fill="#CECEF9" /><path d="M614.431508 440.477538c2.315815-8.491323 4.773415-17.376492 7.514584-26.923323l78.769231-35.304369c-2.756923 9.531077-5.198769 18.432-7.514585 26.907569l-78.76923 35.30437zM621.946092 413.554215c6.333046-22.055385 13.863385-45.969723 23.504739-66.27643l78.769231-35.320123c-9.641354 20.322462-17.171692 44.221046-23.504739 66.292184l-78.769231 35.304369zM309.374031 592.187077l0.220554-0.315077 78.76923-35.288615a1.732923 1.732923 0 0 0-0.220553 0.283569l-78.769231 35.304369z" fill="#CECEF9" /><path d="M309.594585 591.872a2.048 2.048 0 0 1-0.2048 0.315077l78.76923-35.320123 0.2048-0.299323-78.76923 35.320123z" fill="#CECEF9" /><path d="M309.389785 592.187077l78.76923-35.320123-78.76923 35.304369zM333.918523 590.674708a2.363077 2.363077 0 0 1 0.236308 0.220554l78.769231-35.320124a2.363077 2.363077 0 0 0-0.236308-0.220553l-78.769231 35.320123z" fill="#CECEF9" /><path d="M334.154831 590.895262l78.769231-35.320124-78.769231 35.320124z" fill="#CECEF9" /><path d="M334.154831 590.895262a1.890462 1.890462 0 0 1-0.236308-0.220554l78.769231-35.320123a1.732923 1.732923 0 0 0 0.236308 0.220553l-78.769231 35.320124zM588.484923 513.937723l0.078769-0.063015 78.769231-35.320123a0.740431 0.740431 0 0 0-0.078769 0.078769l-78.769231 35.304369z" fill="#CECEF9" /><path d="M447.787323 282.135631c-15.990154 38.770215-24.040369 80.817231-29.018585 123.730707-2.961723 25.552738-4.600123 48.143754-6.238523 70.93957a2107.234462 2107.234462 0 0 1-4.174769 51.688369c-3.733662 38.722954-9.720123 79.194585-25.458215 112.356431-7.624862 16.068923-21.2992 34.816-45.056 37.352369-23.835569 2.552123-43.228554-12.760615-54.335016-24.260923-21.614277-22.401969-39.825723-59.108431-53.248-89.875692a897.339077 897.339077 0 0 1-10.523569-25.237662c-10.129723 57.454277-8.822154 131.261046 31.507692 208.0768 45.764923 87.166031 113.301662 136.932431 179.940431 159.964554 68.214154 23.583508 131.103508 17.644308 164.155077-0.708923 87.559877-48.663631 156.750769-165.509908 103.928123-315.659816a561.341046 561.341046 0 0 1-23.362954-59.628307c-5.419323 15.738092-12.130462 31.791262-20.826584 44.268307-5.907692 8.428308-14.430523 17.738831-26.529477 23.063631-13.201723 5.781662-28.199385 5.671385-43.197046-0.787692-49.183508-21.220431-79.872-68.450462-98.760862-115.680492-18.936123-47.371815-29.050092-101.880123-34.579692-151.205416a1025.339077 1025.339077 0 0 1-4.222031-48.395815z m273.723077 91.766154v0.063015l0.078769 0.677415a536.560246 536.560246 0 0 0 2.000739 15.690831c1.559631 10.964677 4.064492 26.608246 7.845415 44.945723 7.672123 37.179077 20.0704 83.117292 38.990769 123.305354l1.150031 2.426092 0.897969 2.520616c75.145846 209.053538-25.206154 365.237169-134.380307 425.905231-53.295262 29.617231-137.263262 33.602954-220.711385 4.757661-85.070769-29.396677-174.032738-94.349785-233.928862-208.423385C127.464369 679.148308 127.968492 577.803815 141.453785 505.399138a450.323692 450.323692 0 0 1 25.253415-86.583138c4.237785-10.381785 8.081723-18.589538 10.948923-24.3712a236.575508 236.575508 0 0 1 4.584369-8.774892l0.346585-0.6144 0.126031-0.2048 0.047261-0.07877 0.015754-0.047261s0.015754-0.031508 34.563939 28.451446l-34.548185-28.482954 44.315569-76.689723 28.278154 95.956677 0.031508 0.126031 0.157538 0.535631 0.677416 2.221292a1471.503754 1471.503754 0 0 0 12.666092 39.447631c8.522831 25.347938 20.0704 57.407015 32.641969 86.236554 6.207015 14.194215 11.972923 25.993846 17.014154 35.257107 4.332308-16.1792 7.325538-36.233846 9.704369-60.904369 1.2288-12.855138 2.363077-28.215138 3.591877-44.677908 1.906215-25.678769 4.017231-54.035692 7.010462-79.824738 10.586585-91.325046 35.446154-193.914092 120.879261-270.651077l75.208862-67.552492-7.609108 114.215384v0.110277l-0.047262 0.598646-0.157538 2.599385a1101.508923 1101.508923 0 0 0-1.276062 48.994461c-0.126031 32.421415 1.024 75.712985 6.01797 120.2176 5.056985 45.056 13.737354 88.4736 27.332923 122.501908 10.4448 26.151385 22.039631 42.614154 34.248861 52.097969 3.040492-6.427569 6.585108-15.911385 10.665354-29.0816 3.576123-11.594831 6.805662-23.315692 10.271508-35.950277 2.331569-8.491323 4.773415-17.376492 7.514584-26.923323 6.3488-22.055385 13.879138-45.969723 23.520493-66.27643l60.998892-128.535631 15.044923 155.112369v0.047262z m-412.120615 218.269538l0.2048-0.283569a1.417846 1.417846 0 0 1-0.2048 0.283569z m24.528738-1.496615z m254.582154-76.721231c0-0.015754 0-0.047262 0.047261-0.078769z" fill="#4E5969" /></svg>