<?xml version="1.0" standalone="no"?><!DOCTYPE svg PUBLIC "-//W3C//DTD SVG 1.1//EN" "http://www.w3.org/Graphics/SVG/1.1/DTD/svg11.dtd"><svg class="icon" width="200px" height="200.00px" viewBox="0 0 1024 1024" version="1.1" xmlns="http://www.w3.org/2000/svg"><path d="M198.992457 33.440914l545.353143 81.481143 73.142857-32.782628-545.353143-81.481143-73.142857 32.768z" fill="#CECEF9" /><path d="M744.3456 114.922057v47.601372l73.142857-32.782629V82.139429l-73.142857 32.782628z" fill="#CECEF9" /><path d="M744.3456 162.523429l125.8496 18.812342 73.142857-32.797257-125.8496-18.797714-73.142857 32.782629z" fill="#CECEF9" /><path d="M870.1952 181.335771v214.162286l73.142857-32.768V148.538514l-73.142857 32.797257zM513.609143 790.747429v98.830628l73.142857-32.782628v-98.830629l-73.142857 32.782629zM513.609143 889.592686l209.773714 31.3344 73.142857-32.782629-209.773714-31.349028-73.142857 32.797257z" fill="#CECEF9" /><path d="M723.382857 920.927086v95.188114l73.142857-32.782629v-95.188114l-73.142857 32.782629z" fill="#CECEF9" /><path d="M723.382857 1016.1152L219.9552 940.909714l73.142857-32.782628 503.3984 75.220114-73.142857 32.782629zM219.969829 940.895086v-95.188115l73.142857-32.797257v95.202743l-73.142857 32.782629z" fill="#CECEF9" /><path d="M219.969829 845.706971l209.744457 31.3344 73.142857-32.782628-209.744457-31.349029-73.142857 32.797257z" fill="#CECEF9" /><path d="M429.714286 877.056v-98.830629l73.142857-32.797257v98.830629l-73.142857 32.797257zM73.142857 276.406857V62.229943l73.142857-32.797257v214.191543l-73.142857 32.782628z" fill="#CECEF9" /><path d="M73.142857 62.229943l125.8496 18.797714 73.142857-32.782628L146.285714 29.432686 73.142857 62.229943z" fill="#CECEF9" /><path d="M198.992457 81.042286V33.426286l73.142857-32.797257v47.601371l-73.142857 32.782629zM198.992457 33.440914l73.142857-32.797257-73.142857 32.797257zM198.992457 176.2304l-41.954743-6.275657 73.142857-32.782629 41.954743 6.261029-73.142857 32.797257z" fill="#CECEF9" /><path d="M157.037714 169.954743v118.9888l73.142857-32.782629V137.172114l-73.142857 32.782629z" fill="#CECEF9" /><path d="M198.992457 377.665829v-201.435429l73.142857-32.797257v201.450057l-73.142857 32.782629zM198.992457 176.2304l73.142857-32.797257-73.142857 32.797257zM786.285714 382.976v-118.9888l73.142857-32.797257v119.003428l-73.142857 32.782629z" fill="#CECEF9" /><path d="M786.285714 263.9872l-41.940114-6.275657 73.142857-32.782629 41.954743 6.261029-73.142857 32.797257z" fill="#CECEF9" /><path d="M744.3456 257.711543v201.450057l73.142857-32.782629V224.928914l-73.142857 32.782629zM744.3456 459.1616l73.142857-32.782629-73.142857 32.782629zM660.450743 197.588114L282.887314 141.165714l73.142857-32.797257 377.563429 56.4224-73.142857 32.797257z" fill="#CECEF9" /><path d="M282.887314 141.165714v309.379657l73.142857-32.797257V108.368457l-73.142857 32.797257zM660.450743 506.953143V197.588114l73.142857-32.797257v309.379657l-73.142857 32.782629z" fill="#CECEF9" /><path d="M660.450743 197.588114l73.142857-32.797257-73.142857 32.797257zM870.1952 395.512686c0 71.797029-35.0208 129.067886-86.747429 153.775543l73.142858-32.782629c51.726629-24.722286 86.747429-81.993143 86.747428-153.790171l-73.142857 32.797257z" fill="#CECEF9" /><path d="M783.447771 549.302857a134.729143 134.729143 0 0 1-41.632914 12.127086l73.142857-32.782629a134.729143 134.729143 0 0 0 41.632915-12.141714l-73.142858 32.782629z" fill="#CECEF9" /><path d="M741.814857 561.429943c-11.732114 95.626971-63.400229 170.847086-135.68 206.613943l73.142857-32.782629c72.265143-35.781486 123.947886-111.0016 135.68-206.613943l-73.142857 32.768z" fill="#CECEF9" /><path d="M606.134857 768.043886a220.335543 220.335543 0 0 1-92.511086 22.718171l73.142858-32.797257a220.306286 220.306286 0 0 0 92.511085-22.703543l-73.142857 32.782629zM429.714286 778.210743c-118.549943-38.473143-211.894857-159.831771-228.205715-297.515886l73.142858-32.797257c16.310857 137.684114 109.655771 259.042743 228.205714 297.530514l-73.142857 32.782629z" fill="#CECEF9" /><path d="M201.5232 480.694857C127.868343 449.565257 73.142857 366.153143 73.142857 276.406857l73.142857-32.782628c0 89.731657 54.725486 173.1584 128.380343 204.273371l-73.142857 32.797257z" fill="#CECEF9" /><path d="M157.037714 288.943543c0 35.240229 16.881371 68.520229 41.954743 88.722286l73.142857-32.782629c-25.073371-20.202057-41.954743-53.496686-41.954743-88.722286l-73.142857 32.782629zM744.3456 459.1616c25.073371-12.712229 41.954743-40.96 41.954743-76.1856l73.142857-32.782629c0 35.2256-16.881371 63.473371-41.954743 76.1856l-73.142857 32.782629zM282.887314 450.545371c0 118.286629 84.523886 226.801371 188.781715 242.395429l73.142857-32.797257c-104.257829-15.579429-188.781714-124.1088-188.781715-242.395429l-73.142857 32.797257z" fill="#CECEF9" /><path d="M471.669029 692.926171c29.198629 4.373943 56.846629 0.980114 81.5104-8.762514l73.142857-32.768c-24.663771 9.728-52.311771 13.1072-81.5104 8.747886l-73.142857 32.782628z" fill="#CECEF9" /><path d="M553.179429 684.178286c63.458743-25.044114 107.271314-92.0576 107.271314-177.225143l73.142857-32.782629c0 85.167543-43.812571 152.181029-107.271314 177.210515l-73.142857 32.797257z" fill="#CECEF9" /><path d="M198.992457 33.440914l545.353143 81.481143v47.601372l125.8496 18.812342v214.176915c0 89.746286-54.710857 156.803657-128.380343 165.917257-16.296229 132.8128-109.641143 226.274743-228.205714 229.332114v98.830629l209.773714 31.3344v95.188114L219.9552 940.909714v-95.188114l209.744457 31.349029v-98.845258C311.164343 739.7376 217.819429 618.378971 201.5232 480.694857 127.868343 449.565257 73.142857 366.153143 73.142857 276.406857V62.229943l125.8496 18.797714V33.440914z m0 142.774857l-41.954743-6.261028v118.9888c0 35.240229 16.881371 68.520229 41.954743 88.722286v-201.435429z m545.353143 282.945829c25.073371-12.712229 41.954743-40.96 41.954743-76.1856v-118.9888l-41.954743-6.275657v201.450057z m-83.894857-261.573486L282.887314 141.165714v309.379657c0 118.286629 84.523886 226.801371 188.781715 242.395429 104.257829 15.5648 188.781714-67.6864 188.781714-185.987657V197.588114z" fill="#4E5969" /></svg>