<?xml version="1.0" standalone="no"?><!DOCTYPE svg PUBLIC "-//W3C//DTD SVG 1.1//EN" "http://www.w3.org/Graphics/SVG/1.1/DTD/svg11.dtd"><svg class="icon" width="200px" height="200.00px" viewBox="0 0 1024 1024" version="1.1" xmlns="http://www.w3.org/2000/svg"><path d="M195.46862 40.815775L756.029296 124.581859l72.112676-32.335324L267.581296 8.480451l-72.112676 32.335324zM836.132056 225.712676v713.266479l72.112676-32.320901V193.377352l-72.112676 32.335324zM756.043718 1016.168563L195.46862 932.416901l72.112676-32.320901 560.575098 83.766085-72.112676 32.320901zM115.380282 831.286085V117.990761l72.112676-32.320902v713.266479l-72.112676 32.335324zM115.380282 118.005183l72.112676-32.320901-72.112676 32.320901zM756.043718 213.741972L195.46862 129.975887l72.112676-32.335324 560.575098 83.766085-72.112676 32.335324z" fill="#CECEF9" /><path d="M195.46862 129.975887V330.564507l72.112676-32.320901V97.640563l-72.112676 32.335324zM195.46862 330.57893L756.029296 414.359437l72.112676-32.320902-560.575099-83.766084-72.112676 32.320901z" fill="#CECEF9" /><path d="M756.043718 414.359437V213.741972l72.112676-32.335324v200.617465l-72.112676 32.320901zM756.043718 213.741972l72.112676-32.335324-72.112676 32.335324zM756.043718 503.505127l-240.250591-35.912113 72.112676-32.306479 240.250591 35.89769-72.112676 32.320902z" fill="#CECEF9" /><path d="M515.793127 467.607437v423.503324l72.112676-32.320902V435.272113l-72.112676 32.335324z" fill="#CECEF9" /><path d="M515.793127 891.110761l240.250591 35.912112 72.112676-32.335324-240.250591-35.912112-72.112676 32.335324z" fill="#CECEF9" /><path d="M756.043718 927.008451V503.505127l72.112676-32.320902v423.503324l-72.112676 32.320902zM756.043718 503.505127l72.112676-32.320902-72.112676 32.320902zM435.704789 879.140056V455.636732l72.112676-32.320901v423.503324l-72.112676 32.320901zM435.704789 455.636732L195.483042 419.739042l72.112676-32.320901L507.817465 423.301408l-72.112676 32.320902z" fill="#CECEF9" /><path d="M195.46862 419.739042v423.503324l72.112676-32.320901V387.418141l-72.112676 32.320901z" fill="#CECEF9" /><path d="M195.46862 843.242366l240.250591 35.912113 72.112676-32.335324-240.250591-35.912113-72.112676 32.335324zM435.704789 879.140056l72.112676-32.320901-72.112676 32.320901zM115.380282 118.005183C115.380282 84.516056 131.966197 57.819944 156.484507 46.25307l72.112676-32.335324C204.078873 25.499042 187.492958 52.209577 187.492958 85.669859L115.380282 118.005183z" fill="#CECEF9" /><path d="M156.484507 46.25307a67.194592 67.194592 0 0 1 38.984113-5.437295l72.112676-32.335324a67.194592 67.194592 0 0 0-38.998535 5.437295l-72.112676 32.335324zM756.043718 124.581859c44.233915 6.605521 80.088338 51.877859 80.088338 101.130817l72.112676-32.335324c0-49.238535-35.854423-94.510873-80.088338-101.130817l-72.112676 32.335324zM836.132056 938.979155c0 33.489127-16.585915 60.185239-41.104225 71.752113l72.112676-32.320902c24.51831-11.581296 41.104225-38.277408 41.104225-71.752112l-72.112676 32.320901z" fill="#CECEF9" /><path d="M795.042254 1010.731268a67.209014 67.209014 0 0 1-38.998536 5.437295l72.112676-32.320901a67.209014 67.209014 0 0 0 38.998536-5.437296l-72.112676 32.320902zM195.46862 932.416901C151.234704 925.782535 115.380282 880.510197 115.380282 831.257239l72.112676-32.320901c0 49.238535 35.854423 94.510873 80.088338 101.130817l-72.112676 32.320901z" fill="#CECEF9" /><path d="M115.380282 118.005183c0-49.238535 35.854423-83.79493 80.088338-77.189408L756.029296 124.581859c44.233915 6.605521 80.088338 51.877859 80.088338 101.130817v713.266479c0 49.238535-35.854423 83.79493-80.088338 77.189408L195.46862 932.416901C151.234704 925.796958 115.380282 880.52462 115.380282 831.271662V118.005183z m640.663436 95.736789L195.46862 129.975887v200.617465l560.575098 83.751662V213.741972z m0 289.763155l-240.250591-35.912113v423.517747l240.250591 35.912112V503.490704z m-320.324507 375.634929V455.636732L195.46862 419.739042v423.503324l240.250591 35.912113z" fill="#4E5969" /></svg>