<?xml version="1.0" standalone="no"?><!DOCTYPE svg PUBLIC "-//W3C//DTD SVG 1.1//EN" "http://www.w3.org/Graphics/SVG/1.1/DTD/svg11.dtd"><svg class="icon" width="200px" height="200.00px" viewBox="0 0 1024 1024" version="1.1" xmlns="http://www.w3.org/2000/svg"><path d="M701.929739 337.727072l-83.700869-12.510608 74.202898-33.257739 83.70087 12.495768-74.202899 33.272579zM325.305507 281.436754v94.089275l74.202899-33.242899v-94.104116l-74.202899 33.25774z" fill="#CECEF9" /><path d="M325.305507 375.54087l481.250319 71.917449 74.202899-33.27258-481.26516-71.902609-74.202898 33.242899zM869.331478 527.404522V950.835942l74.202899-33.257739V494.146783l-74.202899 33.257739zM806.555826 1012.023652L136.978551 911.968464l74.202898-33.257739 669.577276 100.055188-74.202899 33.257739zM74.202899 832.022261V408.590841l74.202898-33.25774v423.41658l-74.202898 33.27258zM136.978551 347.40313l104.626087 15.627131 74.202898-33.257739-104.626087-15.641971-74.202898 33.272579z" fill="#CECEF9" /><path d="M241.604638 363.030261v-94.089275l74.202898-33.27258v94.089275l-74.202898 33.27258z" fill="#CECEF9" /><path d="M241.604638 268.940986l74.202898-33.27258-74.202898 33.27258zM157.903768 444.623768V820.98087l74.202899-33.25774V411.351188l-74.202899 33.27258zM157.903768 821.010551l627.726841 93.792463 74.202898-33.257739-627.72684-93.792463-74.202899 33.242898z" fill="#CECEF9" /><path d="M785.630609 914.803014V538.431072l74.202898-33.272579v376.386782l-74.202898 33.257739zM785.630609 538.416232L157.903768 444.623768l74.202899-33.27258 627.72684 93.792464-74.202898 33.27258z" fill="#CECEF9" /><path d="M157.903768 444.623768l74.202899-33.27258-74.202899 33.27258zM513.617623 803.58771V568.349681l74.202899-33.27258v235.25287l-74.202899 33.242899zM513.617623 568.349681l-83.700869-12.510609 74.202898-33.257739 83.70087 12.495768-74.202899 33.27258z" fill="#CECEF9" /><path d="M429.931594 555.839072v235.238029l74.202899-33.257739V522.581333l-74.202899 33.257739z" fill="#CECEF9" /><path d="M429.931594 791.077101l83.686029 12.510609 74.202899-33.27258-83.70087-12.495768-74.202898 33.257739zM513.617623 803.58771l74.202899-33.27258-74.202899 33.27258zM241.604638 268.940986c0-97.190957 47.638261-174.732986 118.116174-208.435943l74.202898-33.272579c-70.477913 33.717797-118.131014 111.259826-118.131014 208.435942l-74.202899 33.27258z" fill="#CECEF9" /><path d="M359.720812 60.505043c33.153855-15.86458 71.383188-22.02342 112.046376-15.938782l74.202899-33.257739c-40.663188-6.084638-78.892522 0.074203-112.046377 15.923942l-74.202898 33.272579z" fill="#CECEF9" /><path d="M471.782029 44.566261c127.109565 18.995942 230.14771 150.246029 230.14771 293.160811l74.202899-33.272579c0-142.914783-103.038145-274.16487-230.162551-293.160812l-74.202899 33.27258z" fill="#CECEF9" /><path d="M618.24371 325.216464c0-90.943072-65.595362-174.465855-146.476522-186.546087l74.202899-33.27258c80.881159 12.095072 146.476522 95.617855 146.476522 186.546087l-74.202899 33.27258zM471.767188 138.655536c-22.646725-3.383652-44.106203-0.801391-63.25055 6.64858l74.202898-33.242899c19.144348-7.479652 40.603826-10.047072 63.250551-6.66342l-74.202899 33.257739z" fill="#CECEF9" /><path d="M408.516638 145.304116c-49.226203 19.18887-83.225971 70.656-83.225971 136.132638l74.202898-33.25774c0-65.476638 33.999768-116.943768 83.225971-136.132637l-74.202898 33.257739zM806.555826 447.443478c34.667594 5.194203 62.775652 40.989681 62.775652 79.961044l74.202899-33.257739c0-38.986203-28.108058-74.781681-62.775652-79.961044l-74.202899 33.27258zM869.331478 950.835942c0 26.505275-13.000348 47.653101-32.204058 56.83942l74.202899-33.257739c19.20371-9.201159 32.204058-30.348986 32.204058-56.83942l-74.202899 33.257739z" fill="#CECEF9" /><path d="M837.11258 1007.675362a52.238841 52.238841 0 0 1-30.556754 4.34829l74.202899-33.257739a52.238841 52.238841 0 0 0 30.571594-4.34829l-74.202899 33.257739zM136.978551 911.968464C102.310957 906.789101 74.202899 871.008464 74.202899 832.022261l74.202898-33.27258c0 38.986203 28.108058 74.781681 62.775652 79.961044l-74.202898 33.257739zM74.202899 408.590841c0-26.505275 13.000348-47.653101 32.204058-56.839421l74.202898-33.272579C161.420986 327.68 148.405797 348.812986 148.405797 375.318261l-74.202898 33.27258z" fill="#CECEF9" /><path d="M106.406957 351.73658a52.238841 52.238841 0 0 1 30.571594-4.33345l74.202898-33.272579a52.238841 52.238841 0 0 0-30.571594 4.34829l-74.202898 33.257739z" fill="#CECEF9" /><path d="M241.604638 268.940986c0-142.914783 103.038145-243.370667 230.177391-224.374725 127.109565 18.995942 230.14771 150.246029 230.14771 293.160811l-83.700869-12.510608c0-90.943072-65.565681-174.465855-146.461682-186.546087-80.881159-12.095072-146.476522 51.823304-146.476521 142.766377v94.089275l481.28 71.93229c34.652754 5.179362 62.775652 40.96 62.775652 79.946203V950.835942c0 38.971362-28.122899 66.367072-62.775652 61.18771l-669.606957-100.055188C102.325797 906.789101 74.202899 871.008464 74.202899 832.022261V408.590841c0-38.971362 28.108058-66.367072 62.775652-61.187711l104.626087 15.627131v-94.089275zM157.903768 444.623768V820.98087l627.726841 93.807304V538.416232L157.903768 444.623768z m355.713855 358.963942V568.349681l-83.700869-12.510609v235.238029l83.700869 12.510609z" fill="#4E5969" /></svg>