<?xml version="1.0" standalone="no"?><!DOCTYPE svg PUBLIC "-//W3C//DTD SVG 1.1//EN" "http://www.w3.org/Graphics/SVG/1.1/DTD/svg11.dtd"><svg class="icon" width="200px" height="187.03px" viewBox="0 0 1095 1024" version="1.1" xmlns="http://www.w3.org/2000/svg"><path d="M606.082246 72.596211l-216.459228-32.336843 89.824561-40.259368 216.477193 32.336842-89.824561 40.259369z" fill="#CECEF9" /><path d="M389.640982 40.259368v98.088421l89.824562-40.277333v-98.088421l-89.824562 40.277333z" fill="#CECEF9" /><path d="M389.640982 138.329825l64.925193 9.701052 89.824562-40.241403-64.925193-9.719018-89.824562 40.259369z" fill="#CECEF9" /><path d="M454.566175 148.030877v49.044211l89.824562-40.259369v-49.04421l-89.824562 40.259368z" fill="#CECEF9" /><path d="M454.566175 197.075088L129.886316 148.569825l89.824561-40.277334 324.697825 48.505263-89.824562 40.277334z" fill="#CECEF9" /><path d="M129.886316 148.569825v760.095438l89.824561-40.241403V108.274526l-89.824561 40.277334z" fill="#CECEF9" /><path d="M129.886316 908.665263l735.950596 109.981193 89.824562-40.259368-735.950597-109.981193-89.824561 40.277333z" fill="#CECEF9" /><path d="M865.836912 1018.646456v-760.095438l89.824562-40.277334v760.095439l-89.824562 40.277333zM865.836912 258.533053l-324.679859-48.505264 89.824561-40.277333 324.67986 48.505263-89.824562 40.277334z" fill="#CECEF9" /><path d="M541.157053 210.009825V160.965614l89.824561-40.241403v49.026245l-89.824561 40.259369z" fill="#CECEF9" /><path d="M541.157053 160.965614l64.925193 9.701053 89.824561-40.241404-64.925193-9.701052-89.824561 40.241403z" fill="#CECEF9" /><path d="M606.082246 170.684632v-98.088421l89.824561-40.259369v98.088421l-89.824561 40.259369zM606.082246 72.596211l89.824561-40.259369-89.824561 40.259369zM216.459228 823.529544V259.592982l89.824561-40.259368V783.270175l-89.824561 40.259369z" fill="#CECEF9" /><path d="M216.459228 259.592982l562.786807 84.07579 89.824561-40.259368-562.786807-84.093755-89.824561 40.259369zM779.264 343.668772v563.972491l89.824561-40.277333V303.427368l-89.824561 40.277334z" fill="#CECEF9" /><path d="M779.246035 907.641263L216.477193 823.511579l89.824561-40.259368 562.786807 84.093754-89.824561 40.277333zM216.459228 823.529544l89.824561-40.259369-89.824561 40.259369zM0 374.352842v269.725193l89.824561-40.277333V334.093474l-89.824561 40.259368z" fill="#CECEF9" /><path d="M0 644.078035l86.590877 12.934737 89.824562-40.277333L89.824561 603.800702l-89.824561 40.277333z" fill="#CECEF9" /><path d="M86.590877 657.012772V387.287579l89.824562-40.259368V616.735439l-89.824562 40.241403z" fill="#CECEF9" /><path d="M86.590877 387.287579L0 374.352842l89.824561-40.259368 86.590878 12.934737-89.824562 40.259368zM0 374.352842l89.824561-40.259368-89.824561 40.259368zM909.132351 510.203509v269.725193l89.824561-40.277334V469.962105l-89.824561 40.259369z" fill="#CECEF9" /><path d="M909.132351 779.928702l86.590877 12.934737 89.824561-40.277334-86.590877-12.934737-89.824561 40.277334z" fill="#CECEF9" /><path d="M995.723228 792.863439V523.138246l89.824561-40.259369v269.707228l-89.824561 40.277334z" fill="#CECEF9" /><path d="M995.723228 523.138246l-86.590877-12.934737 89.824561-40.259369 86.590877 12.934737-89.824561 40.259369zM909.132351 510.203509l89.824561-40.259369-89.824561 40.259369zM432.918456 512.610807l-108.220631-16.168421 89.824561-40.277333 108.220632 16.168421-89.824562 40.259368z" fill="#CECEF9" /><path d="M324.697825 496.424421v122.610526l89.824561-40.277333v-122.592561l-89.824561 40.259368z" fill="#CECEF9" /><path d="M324.697825 619.034947l108.220631 16.168421 89.824562-40.259368-108.220632-16.168421-89.824561 40.241403z" fill="#CECEF9" /><path d="M432.918456 635.203368v-122.592561l89.824562-40.277333v122.610526l-89.824562 40.259368zM432.918456 512.610807l89.824562-40.277333-89.824562 40.277333zM671.025404 548.181333l-108.220632-16.168421 89.824561-40.259368 108.220632 16.168421-89.824561 40.259368z" fill="#CECEF9" /><path d="M562.804772 532.012912v122.592562l89.824561-40.259369v-122.592561l-89.824561 40.259368z" fill="#CECEF9" /><path d="M562.804772 654.605474l108.220632 16.168421 89.824561-40.259369-108.220632-16.168421-89.824561 40.259369z" fill="#CECEF9" /><path d="M671.025404 670.79186v-122.610527l89.824561-40.259368v122.592561l-89.824561 40.277334zM671.025404 548.181333l89.824561-40.259368-89.824561 40.259368z" fill="#CECEF9" /><path d="M606.082246 72.596211l-216.459228-32.336843v98.088421l64.943157 9.701053v49.044211L129.868351 148.569825v760.095438l735.968561 109.981193v-760.095438L541.157053 210.009825V160.965614l64.925193 9.701053V72.578246z m-389.623018 750.933333V259.592982l562.804772 84.11172v563.954526L216.459228 823.511579zM0 374.352842v269.725193l86.590877 12.934737V387.287579L0 374.352842zM909.132351 510.203509v269.725193l86.590877 12.934737V523.138246l-86.590877-12.934737z m-476.213895 2.407298l-108.220631-16.168421v122.592561l108.220631 16.168421v-122.592561z m238.106948 35.570526l-108.220632-16.168421v122.592562l108.220632 16.168421v-122.592562z" fill="#4E5969" /></svg>