<?xml version="1.0" standalone="no"?><!DOCTYPE svg PUBLIC "-//W3C//DTD SVG 1.1//EN" "http://www.w3.org/Graphics/SVG/1.1/DTD/svg11.dtd"><svg class="icon" width="200px" height="200.00px" viewBox="0 0 1024 1024" version="1.1" xmlns="http://www.w3.org/2000/svg"><path d="M109.384597 40.058269l720.040119 107.596418 76.417911-34.250508L185.802507 5.807761l-76.41791 34.250508zM892.943284 226.930627v604.740776l76.41791-34.250507V192.664836l-76.41791 34.265791zM829.424716 891.949851L109.384597 784.384l76.41791-34.250507 720.04012 107.596417-76.417911 34.235224zM45.850746 705.092776V100.352l76.417911-34.265791v604.75606l-76.417911 34.250507zM45.850746 100.352l76.417911-34.265791-76.417911 34.265791zM130.552358 136.268418V694.48597l76.417911-34.265791V102.002627l-76.417911 34.265791zM130.552358 694.48597l677.689314 101.269015 76.41791-34.250507-677.67403-101.269015-76.41791 34.250507z" fill="#CECEF9" /><path d="M808.241672 795.754985V237.522149l76.41791-34.250507v558.232836l-76.41791 34.250507z" fill="#CECEF9" /><path d="M808.241672 237.522149L130.567642 136.268418l76.41791-34.265791 677.67403 101.269015-76.41791 34.250507zM130.552358 136.268418l76.417911-34.265791-76.417911 34.265791zM723.524776 1015.701015l-508.255522-75.959403 76.41791-34.250508 508.270806 75.959403-76.41791 34.235224z" fill="#CECEF9" /><path d="M215.269254 939.741612V846.710448l76.41791-34.265791v93.046447l-76.41791 34.250508z" fill="#CECEF9" /><path d="M215.269254 846.710448l508.270806 75.959403 76.41791-34.265791-508.270806-75.959403-76.41791 34.265791z" fill="#CECEF9" /><path d="M723.524776 922.669851v93.031164l76.417911-34.265791v-93.031164l-76.417911 34.250507zM723.524776 1015.701015l76.417911-34.265791-76.417911 34.265791zM462.756299 580.027224l-62.219463-78.175523 76.41791-34.265791 62.204179 78.190806-76.41791 34.250508z" fill="#CECEF9" /><path d="M400.536836 501.851701l280.453731 43.130269 76.417911-34.250507-280.453732-43.145553-76.41791 34.265791z" fill="#CECEF9" /><path d="M680.975284 544.98197l0.351522-92.985313 76.41791-34.265791-0.351522 93.000597-76.41791 34.250507zM681.311522 451.996657L400.888358 408.835821l76.417911-34.250508 280.453731 43.130269-76.41791 34.265791z" fill="#CECEF9" /><path d="M400.873075 408.866388l62.723821-58.96406 76.41791-34.265791-62.723821 58.96406-76.41791 34.250507z" fill="#CECEF9" /><path d="M463.596896 349.887045l-59.667105-74.96597 76.41791-34.235224 59.667105 74.950686-76.41791 34.250508z" fill="#CECEF9" /><path d="M403.945075 274.921075L238.530866 430.416239l76.41791-34.265791L480.362985 240.670567l-76.41791 34.250508zM238.546149 430.416239L402.615403 636.561194l76.41791-34.250507L314.96406 396.150448l-76.417911 34.265791z" fill="#CECEF9" /><path d="M402.615403 636.561194l60.140896-56.549254 76.41791-34.235224-60.140896 56.533971-76.41791 34.250507zM462.756299 580.01194l76.41791-34.235224-76.41791 34.235224zM45.850746 100.352c0-26.211343 13.143881-47.073433 32.599881-56.090746l76.41791-34.265791C135.427821 19.012776 122.268657 39.890149 122.268657 66.086209L45.850746 100.352z" fill="#CECEF9" /><path d="M78.450627 44.24597a53.920478 53.920478 0 0 1 30.93397-4.187701l76.41791-34.250508a53.920478 53.920478 0 0 0-30.93397 4.187702l-76.41791 34.250507zM829.424716 147.654687c35.091104 5.242269 63.533851 40.730746 63.533851 79.27594l76.417911-34.265791c0-38.52991-28.442746-74.018388-63.533851-79.260657l-76.417911 34.250508zM892.958567 831.671403c0 26.211343-13.143881 47.073433-32.615164 56.090746l76.41791-34.235224c19.456-9.032597 32.615164-29.894687 32.615165-56.106029l-76.417911 34.265791z" fill="#CECEF9" /><path d="M860.343403 887.777433a53.935761 53.935761 0 0 1-30.918687 4.187701l76.417911-34.265791c11.233433 1.681194 21.779104 0.061134 30.918686-4.187701l-76.41791 34.265791zM109.384597 784.368716C74.278209 779.126448 45.850746 743.63797 45.850746 705.092776l76.417911-34.250507c0 38.52991 28.442746 74.018388 63.53385 79.27594l-76.41791 34.250507z" fill="#CECEF9" /><path d="M45.850746 100.352C45.850746 61.806806 74.293493 34.816 109.384597 40.042985l720.040119 107.596418c35.091104 5.242269 63.533851 40.730746 63.533851 79.27594v604.740776c0 38.545194-28.442746 65.536-63.533851 60.293732L109.384597 784.353433C74.278209 779.126448 45.850746 743.63797 45.850746 705.092776V100.352z m84.716896 35.916418V694.48597l677.67403 101.253731V237.522149L130.567642 136.268418z m592.957134 879.417313l-508.255522-75.944119V846.710448l508.255522 75.959403v93.031164zM462.756299 580.042507l-62.219463-78.175522 280.453731 43.130269 0.320955-92.985314L400.888358 408.835821l62.723821-58.96406-59.667104-74.950686-165.368359 155.47988L402.600119 636.561194l60.140896-56.549254z" fill="#4E5969" /></svg>