<?xml version="1.0" standalone="no"?><!DOCTYPE svg PUBLIC "-//W3C//DTD SVG 1.1//EN" "http://www.w3.org/Graphics/SVG/1.1/DTD/svg11.dtd"><svg class="icon" width="200px" height="200.00px" viewBox="0 0 1024 1024" version="1.1" xmlns="http://www.w3.org/2000/svg"><path d="M427.053851 185.970627V41.678328l76.41791-34.250507v144.277015l-76.41791 34.265791z" fill="#CECEF9" /><path d="M427.053851 41.678328l84.701612 12.654806 76.41791-34.250507-84.701612-12.654806-76.41791 34.250507zM511.755463 54.333134v144.292299l76.41791-34.250508V20.082627l-76.41791 34.250507z" fill="#CECEF9" /><path d="M511.755463 198.625433l-84.701612-12.654806 76.41791-34.250508 84.701612 12.654806-76.41791 34.250508zM427.053851 185.970627l76.41791-34.250508-76.41791 34.250508zM266.392836 55.815642l84.716895 108.849671 76.417911-34.265791L342.810746 21.549851l-76.41791 34.265791z" fill="#CECEF9" /><path d="M351.109731 164.665313l-59.911641 59.071045 76.41791-34.265791 59.911642-59.071045-76.417911 34.265791z" fill="#CECEF9" /><path d="M291.213373 223.736358L206.481194 114.871403l76.41791-34.250507 84.716896 108.849671-76.41791 34.265791z" fill="#CECEF9" /><path d="M206.496478 114.871403l59.911641-59.055761 76.417911-34.265791-59.911642 59.071045-76.41791 34.250507zM266.392836 55.815642l76.41791-34.265791-76.41791 34.265791zM732.297552 193.444299l-84.701612 83.540059 76.417911-34.265791 84.701612-83.524776-76.417911 34.250508z" fill="#CECEF9" /><path d="M647.59594 276.984358l-59.911641-76.968119 76.41791-34.265791 59.911642 76.983403-76.417911 34.250507z" fill="#CECEF9" /><path d="M587.699582 200.016239l84.701612-83.54006 76.41791-34.250507-84.701611 83.524776-76.417911 34.265791z" fill="#CECEF9" /><path d="M672.401194 116.476179l59.911642 76.96812 76.41791-34.250508-59.911642-76.968119-76.41791 34.250507zM732.312836 193.444299l76.41791-34.250508-76.41791 34.250508zM260.783761 281.370746l417.241791 62.357015 76.417911-34.265791-417.241791-62.357015-76.417911 34.265791zM751.18806 402.370866l130.216119 272.949492 76.417911-34.265791-130.21612-272.934209-76.41791 34.250508zM892.943284 725.511642v203.424477l76.41791-34.235223V691.245851l-76.41791 34.250507zM808.241672 1012.476179l-677.67403-101.253731 76.41791-34.265791 677.67403 101.269015-76.41791 34.250507zM45.850746 802.357493v-203.424478l76.417911-34.265791v203.439761L45.850746 802.38806zM57.389851 552.195821l130.216119-234.037493 76.417911-34.265791-130.21612 234.037493-76.41791 34.250507zM187.60597 318.158328l76.417911-34.265791-76.417911 34.265791z" fill="#CECEF9" /><path d="M678.025552 439.907343l-417.241791-62.357015 76.417911-34.235224 417.241791 62.341732-76.417911 34.250507z" fill="#CECEF9" /><path d="M260.783761 377.565612L161.944836 555.176119l76.41791-34.250507 98.823642-177.625791-76.41791 34.265791z" fill="#CECEF9" /><path d="M161.944836 555.176119l253.279522 37.84215 76.417911-34.250508-253.279523-37.842149-76.41791 34.250507z" fill="#CECEF9" /><path d="M415.224358 593.018269l9.521672 33.898985 76.41791-34.250508-9.521671-33.898985-76.417911 34.250508zM514.048 640.259821l9.536955-31.025672 76.417911-34.265791-9.536956 31.025672-76.41791 34.265791z" fill="#CECEF9" /><path d="M523.584955 609.218866l253.279523 37.842149 76.41791-34.250508-253.279522-37.842149-76.417911 34.250508z" fill="#CECEF9" /><path d="M776.864478 647.061015l-98.838926-207.153672 76.417911-34.250507 98.823641 207.153671-76.41791 34.250508zM678.025552 439.907343l76.417911-34.250507-76.417911 34.250507zM808.241672 747.94794l-228.13803-34.082388 76.41791-34.265791 228.13803 34.082388-76.41791 34.265791zM358.705672 680.776597l-228.153314-34.082388 76.417911-34.265791L435.123582 646.495522l-76.41791 34.265791z" fill="#CECEF9" /><path d="M130.552358 646.678925v168.348657l76.417911-34.265791V612.428418l-76.417911 34.250507zM130.552358 815.027582l677.689314 101.253731 76.41791-34.250507-677.67403-101.269015-76.41791 34.265791z" fill="#CECEF9" /><path d="M808.241672 916.296597V747.94794l76.41791-34.250507V882.015522l-76.41791 34.265791zM808.241672 747.94794l76.41791-34.250507-76.41791 34.250507zM187.60597 318.158328c7.886328-14.183164 19.211463-24.78997 32.508179-31.056238l76.417911-34.250508c-13.296716 6.266269-24.606567 16.857791-32.508179 31.056239l-76.417911 34.250507z" fill="#CECEF9" /><path d="M220.114149 287.10209a70.243343 70.243343 0 0 1 40.654329-5.731344l76.41791-34.265791a70.22806 70.22806 0 0 0-40.654328 5.746627l-76.417911 34.235224zM678.025552 343.727761c30.12394 4.493373 57.98591 26.822687 73.177791 58.643105l76.417911-34.250508c-15.191881-31.820418-43.053851-54.165015-73.177791-58.658388l-76.417911 34.250508zM881.404179 675.320358a117.301493 117.301493 0 0 1 11.554388 50.191284l76.417911-34.250508c0-17.041194-3.973731-34.357493-11.539105-50.191283l-76.41791 34.250507zM892.958567 928.936119c0 36.130388-17.545552 64.985791-43.481791 77.56418l76.417911-34.265792c25.936239-12.563104 43.481791-41.418507 43.481791-77.548895l-76.417911 34.265791z" fill="#CECEF9" /><path d="M849.476776 1006.500299a69.907104 69.907104 0 0 1-41.235104 5.97588l76.41791-34.250507c14.97791 2.231403 29.038806-0.076418 41.235105-5.991165l-76.417911 34.265792zM130.567642 911.207164C83.75403 904.237851 45.850746 855.513791 45.850746 802.38806l76.417911-34.265791c0 53.125731 37.918567 101.865075 84.716895 108.849671l-76.41791 34.265791zM45.850746 598.933015c0-17.02591 3.973731-33.165373 11.539105-46.752478l76.41791-34.250507C126.257672 531.517134 122.268657 547.641313 122.268657 564.682507l-76.417911 34.235224zM424.74603 626.917254l0.244537 0.718328 76.417911-34.250507a33.623881 33.623881 0 0 1-0.244538-0.718329l-76.41791 34.250508zM424.990567 627.635582c0.336239 0.993433 0.947582 2.735761 1.879881 4.997731l76.41791-34.265791a83.662328 83.662328 0 0 1-1.87988-4.982447l-76.417911 34.250507z" fill="#CECEF9" /><path d="M426.870448 632.633313c1.925731 4.630925 4.860179 10.744358 8.895045 16.842508l76.41791-34.265791a101.223164 101.223164 0 0 1-8.895045-16.842508l-76.41791 34.265791zM435.765493 649.475821c7.794627 11.783642 18.019343 21.458149 33.62388 23.796537l76.417911-34.265791c-15.604537-2.338388-25.829254-11.997612-33.623881-23.796537l-76.41791 34.265791zM469.404657 673.272358c7.488955 1.115701 13.755224 0.168119 19.104477-2.139701l76.417911-34.265791c-5.349254 2.323104-11.615522 3.270687-19.104478 2.139701l-76.41791 34.265791z" fill="#CECEF9" /><path d="M488.493851 671.117373c5.792478-2.521791 10.499821-6.663642 14.54997-11.584955l76.41791-34.265791c-4.050149 4.921313-8.757493 9.078448-14.54997 11.600239l-76.41791 34.250507z" fill="#CECEF9" /><path d="M503.043821 659.532418c4.034866-4.890746 6.969313-10.133015 8.879761-14.198448l76.417911-34.250507a68.928955 68.928955 0 0 1-8.864478 14.183164l-76.417911 34.265791zM511.923582 645.33397c0.932299-1.986866 1.558925-3.530507 1.895164-4.432239l76.417911-34.235224c-0.336239 0.871164-0.962866 2.445373-1.895164 4.416956l-76.417911 34.250507z" fill="#CECEF9" /><path d="M513.818746 640.901731a32.55403 32.55403 0 0 0 0.198687-0.519641l76.41791-34.265791a48.143284 48.143284 0 0 1-0.198686 0.534925l-76.417911 34.265791zM514.017433 640.38209l0.030567-0.122269 76.41791-34.250508-0.030567 0.106986-76.41791 34.265791zM580.103642 713.865552a142.748657 142.748657 0 0 1-11.982329 16.964776l76.417911-34.250507c4.73791-5.731343 8.696358-11.539104 11.982328-16.964776l-76.41791 34.235224z" fill="#CECEF9" /><path d="M568.121313 730.830328c-8.971463 10.88191-21.030209 21.855522-36.451343 29.558448l76.417911-34.265791c15.421134-7.687642 27.479881-18.661254 36.451343-29.543164l-76.417911 34.250507z" fill="#CECEF9" /><path d="M531.66997 760.388776c-16.704955 8.329552-37.353075 12.792358-62.265313 9.078448l76.41791-34.265791c24.912239 3.729194 45.545075-0.733612 62.265314-9.063164l-76.417911 34.235224zM469.404657 769.467224c-47.91403-7.168-80.040119-39.890149-98.731941-68.134209l76.417911-34.250508c18.691821 28.228776 50.81791 60.966209 98.73194 68.118926l-76.41791 34.265791z" fill="#CECEF9" /><path d="M370.688 701.333015a214.428657 214.428657 0 0 1-11.982328-20.556418l76.41791-34.265791c3.28597 6.434388 7.244418 13.418985 11.982328 20.571701l-76.41791 34.250508z" fill="#CECEF9" /><path d="M427.053851 185.970627v-144.277015l84.701612 12.639522v144.292299l-84.716896-12.654806zM266.392836 55.815642l84.716895 108.849671-59.911641 59.071045-84.701612-108.864955 59.911641-59.055761z m465.904716 137.628657l-84.701612 83.540059-59.911641-76.968119 84.716895-83.54006 59.911642 76.96812z m-544.691582 124.714029c15.176597-27.281194 43.038567-41.296239 73.162508-36.787582l417.257074 62.357015c30.12394 4.493373 57.98591 26.822687 73.177791 58.643105l130.21612 272.949492a117.270925 117.270925 0 0 1 11.539104 50.191284v203.424477c0 53.141015-37.933851 90.53994-84.716895 83.54006l-677.67403-101.253731C83.75403 904.222567 45.850746 855.498507 45.850746 802.357493v-203.424478c0-17.02591 3.973731-33.165373 11.539105-46.752478l130.216119-234.022209z m490.419582 121.749015l-417.241791-62.357015-98.838925 177.625791 253.279522 37.84215 9.521672 33.898985a83.662328 83.662328 0 0 0 2.139701 5.716059c1.910448 4.630925 4.844896 10.744358 8.864478 16.842508 7.794627 11.783642 18.034627 21.458149 33.654448 23.796537 15.619821 2.338388 25.829254-4.279403 33.639164-13.755224a68.806687 68.806687 0 0 0 10.973612-19.135044l0.030567-0.122269 9.536955-31.040955 253.264239 37.842149-98.823642-207.153672z m130.21612 308.040597l-228.13803-34.082388a142.825075 142.825075 0 0 1-11.982329 16.964776c-18.676537 22.665552-50.81791 45.789612-98.73194 38.636896-47.898746-7.168-80.024836-39.890149-98.701373-68.134209-4.73791-7.152716-8.711642-14.137313-11.982328-20.556418l-228.13803-34.082388v168.333373l677.67403 101.269015V747.94794z" fill="#4E5969" /></svg>