<?xml version="1.0" standalone="no"?><!DOCTYPE svg PUBLIC "-//W3C//DTD SVG 1.1//EN" "http://www.w3.org/Graphics/SVG/1.1/DTD/svg11.dtd"><svg class="icon" width="200px" height="200.00px" viewBox="0 0 1024 1024" version="1.1" xmlns="http://www.w3.org/2000/svg"><path d="M516.15211 205.753863L245.016548 515.408658l70.136986-31.435398 271.149589-309.654794-70.136986 31.435397z" fill="#CECEF9" /><path d="M245.016548 515.408658l185.273863 27.690082 70.136986-31.449425-185.273863-27.690082-70.136986 31.449425z" fill="#CECEF9" /><path d="M430.290411 543.09874v302.276383l70.136986-31.449424V511.649315l-70.136986 31.449425z" fill="#CECEF9" /><path d="M430.290411 845.375123L701.425973 535.706301l70.136986-31.435397-271.149589 309.640767-70.136986 31.449425z" fill="#CECEF9" /><path d="M701.425973 535.720329l-185.273863-27.690082 70.136986-31.42137 185.273863 27.676055-70.136986 31.435397z" fill="#CECEF9" /><path d="M516.15211 508.044274v-302.290411l70.136986-31.435397v302.276383l-70.136986 31.449425zM516.15211 205.753863l70.136986-31.435397-70.136986 31.435397zM602.027836 96.31211v328.774137l70.136986-31.435398V64.876712l-70.136986 31.42137z" fill="#CECEF9" /><path d="M602.027836 425.086247l188.528219 28.181041 70.136986-31.449425-188.528219-28.167014-70.136986 31.435398zM824.670685 541.513644L423.627397 999.508164l70.136987-31.421369 401.043287-458.022576-70.136986 31.449425zM344.414685 954.816877V626.04274l70.136986-31.449425v328.774137l-70.136986 31.449425zM344.414685 626.04274L155.900493 597.847671l70.136986-31.435397 188.52822 28.167014-70.136987 31.449424zM121.785863 509.615342l401.043288-457.99452 70.136986-31.449425-401.043288 458.008548-70.136986 31.449425z" fill="#CECEF9" /><path d="M522.829151 51.620822l70.136986-31.449425-70.136986 31.435398z" fill="#CECEF9" /><path d="M522.829151 51.620822c3.282411-3.745315 6.901479-6.620932 10.759013-8.696986l70.136987-31.435398a38.687562 38.687562 0 0 0-10.759014 8.682959l-70.136986 31.435398z" fill="#CECEF9" /><path d="M533.602192 42.923836c28.237151-15.219726 68.425644 12.386192 68.425644 53.388274l70.136986-31.435398c0-41.002082-40.188493-68.608-68.439671-53.388274l-70.136987 31.435398zM790.542027 453.267288c38.603397 5.751233 59.349918 59.434082 34.128658 88.232328l70.136986-31.421369c25.22126-28.812274 4.47474-82.481096-34.128657-88.260384l-70.136987 31.449425zM423.627397 999.522192a38.659507 38.659507 0 0 1-10.759013 8.682959l70.136986-31.449425c3.843507-2.062027 7.476603-4.937644 10.759014-8.682959l-70.136987 31.449425z" fill="#CECEF9" /><path d="M412.854356 1008.205151c-28.251178 15.205699-68.439671-12.386192-68.439671-53.388274l70.136986-31.449425c0 41.002082 40.188493 68.608 68.453699 53.388274l-70.136986 31.449425zM155.900493 597.861699c-38.58937-5.751233-59.33589-59.434082-34.11463-88.232329l70.136986-31.449425c-25.235288 28.812274-4.488767 82.481096 34.11463 88.232329l-70.136986 31.449425z" fill="#CECEF9" /><path d="M516.166137 205.753863L245.016548 515.408658l185.273863 27.676054v302.290411l271.149589-309.654794-185.273863-27.690082V205.753863z m6.663014-154.147068c27.297315-31.182904 79.198685-1.879671 79.198685 44.705315v328.774137l188.528219 28.167013c38.575342 5.779288 59.33589 59.44811 34.11463 88.246356L423.627397 999.508164c-27.311342 31.182904-79.212712 1.893699-79.212712-44.691287V626.028712L155.900493 597.861699c-38.58937-5.76526-59.33589-59.434082-34.11463-88.232329l401.043288-458.022575z" fill="#4E5969" /></svg>