<?xml version="1.0" standalone="no"?><!DOCTYPE svg PUBLIC "-//W3C//DTD SVG 1.1//EN" "http://www.w3.org/Graphics/SVG/1.1/DTD/svg11.dtd"><svg class="icon" width="200px" height="200.00px" viewBox="0 0 1024 1024" version="1.1" xmlns="http://www.w3.org/2000/svg"><path d="M274.533751 146.475268L191.907047 134.129577l72.112676-32.320901 82.626704 12.34569-72.112676 32.320902zM191.907047 134.129577V40.282141l72.112676-32.320902v93.847437l-72.112676 32.320901z" fill="#CECEF9" /><path d="M191.907047 40.282141L749.597638 123.601127l72.112676-32.320902L264.019723 7.961239l-72.112676 32.306479zM749.597638 123.615549v93.847437l72.112676-32.320901V91.294648l-72.112676 32.320901z" fill="#CECEF9" /><path d="M749.597638 217.462986l-82.612281-12.34569 72.112676-32.320902 82.612281 12.345691-72.112676 32.320901z" fill="#CECEF9" /><path d="M666.985357 205.117296V396.042817l72.112676-32.320902V172.796394l-72.112676 32.320902zM666.985357 396.042817l110.837183 352.31369 72.112676-32.320901-110.837183-352.313691-72.112676 32.320902z" fill="#CECEF9" /><path d="M777.808117 748.356507l49.757747 150.080901 72.112676-32.335323-49.757747-150.066479-72.112676 32.320901zM750.765864 1015.375324L198.065469 932.791887l72.112676-32.320901 552.700395 82.583437-72.112676 32.320901zM119.895328 796.873915l48.603944-154.162478 72.112676-32.320902-48.603943 154.162479-72.112677 32.320901z" fill="#CECEF9" /><path d="M168.513695 642.711437l106.005633-305.310648 72.112677-32.320902-106.005634 305.310648-72.112676 32.320902z" fill="#CECEF9" /><path d="M274.533751 337.400789V146.475268l72.112676-32.320902v190.925521l-72.112676 32.320902zM274.533751 146.475268l72.112676-32.320902-72.112676 32.320902zM357.146033 158.820958V366.76507l72.112676-32.320901V126.485634l-72.112676 32.320901zM357.160455 366.76507l-100.380845 289.056451 72.112676-32.335324 100.380845-289.042028-72.112676 32.320901zM661.620174 646.31707l-77.261522-245.601352 72.112676-32.320901 77.261522 245.586929-72.112676 32.335324zM584.358652 400.715718V192.771606l72.112676-32.320902v207.944113l-72.112676 32.320901z" fill="#CECEF9" /><path d="M584.358652 192.771606l-227.212619-33.950648 72.112676-32.320902 227.212619 33.950648-72.112676 32.320902zM357.146033 158.820958l72.112676-32.320902-72.112676 32.320902zM228.814314 741.462535L198.065469 838.958873l72.112676-32.335324 30.734423-97.467493-72.112676 32.320902z" fill="#CECEF9" /><path d="M198.065469 838.944451l552.700395 82.583436 72.112676-32.320901-552.700395-82.597859-72.112676 32.335324z" fill="#CECEF9" /><path d="M750.765864 921.527887l-46.007888-138.773633 72.112676-32.320902 46.007888 138.773634-72.112676 32.320901zM704.757976 782.754254l72.112676-32.320902-72.112676 32.320902zM470.752343 492.789183v-0.245183l72.112676-32.320901v0.23076l-72.112676 32.335324zM553.379047 504.904113v0.23076l72.112676-32.335324v-0.23076l-72.112676 32.335324zM470.752343 492.789183l72.112676-32.335324-72.112676 32.335324zM827.565864 898.437408c15.47538 46.671324-0.90862 91.280225-33.070874 109.351662l72.112676-32.335324c32.162254-18.071437 48.546254-62.680338 33.085296-109.337239l-72.112676 32.306479z" fill="#CECEF9" /><path d="M794.49499 1007.78907c-12.504338 7.023775-27.402817 10.038085-43.729126 7.586254l72.112676-32.320901c16.340732 2.451831 31.224789-0.576901 43.729126-7.600677l-72.112676 32.335324zM198.065469 932.791887c-56.666141-8.466028-96.515606-77.737465-78.170141-135.917972l72.112677-32.320901c-18.345465 58.166085 21.504 127.437521 78.17014 135.903549l-72.112676 32.335324zM256.77961 655.821521c15.230197 13.009127 35.162141 25.816338 57.733409 32.969916l72.112676-32.335324c-22.556845-7.153577-42.503211-19.960789-57.733409-32.969916l-72.112676 32.335324zM314.513019 688.791437c24.027944 7.615099 52.209577 9.288113 82.698816-3.86524l72.112677-32.320901c-30.489239 13.13893-58.670873 11.480338-82.698817 3.865239l-72.112676 32.320902z" fill="#CECEF9" /><path d="M397.211835 684.926197c11.869746-5.105577 24.085634-12.46107 36.532282-22.571267l72.112676-32.306479c-12.446648 10.095775-24.662535 17.451268-36.532281 22.556845l-72.112677 32.320901z" fill="#CECEF9" /><path d="M433.744117 662.35493a206.96338 206.96338 0 0 1 39.402366-25.383662l72.112676-32.320902a206.96338 206.96338 0 0 0-39.402366 25.383662l-72.112676 32.335324z" fill="#CECEF9" /><path d="M473.146483 636.971268c53.175887-26.032676 108.183437-22.210704 156.585465-4.586367l72.112676-32.335324c-48.402028-17.609915-103.409577-21.44631-156.585465 4.600789l-72.112676 32.320902z" fill="#CECEF9" /><path d="M629.731948 632.384901c10.975549 3.995042 21.633803 8.696789 31.888226 13.917747l72.112676-32.320902a285.955606 285.955606 0 0 0-31.888226-13.932169l-72.112676 32.335324zM704.757976 782.754254c-20.609803-21.359775-53.36338-46.974197-90.371605-60.444846l72.112676-32.320901c37.008225 13.470648 69.761803 39.08507 90.371605 60.430423l-72.112676 32.335324z" fill="#CECEF9" /><path d="M614.386371 722.309408c-30.431549-11.076507-63.43031-13.989859-96.284845 0.475944l72.112676-32.335324c32.854535-14.465803 65.853296-11.538028 96.284845-0.461521l-72.112676 32.306479z" fill="#CECEF9" /><path d="M518.101526 722.785352a136.538141 136.538141 0 0 0-30.994029 19.196394l72.112677-32.320901a136.480451 136.480451 0 0 1 31.00845-19.210817l-72.112676 32.335324z" fill="#CECEF9" /><path d="M487.107497 741.981746a227.328 227.328 0 0 1-45.560788 29.090254l72.112676-32.335324a227.38569 227.38569 0 0 0 45.575211-29.075831l-72.112676 32.320901z" fill="#CECEF9" /><path d="M441.546709 771.072c-48.200113 22.931831-96.227155 22.35493-139.09093 8.768901l72.112676-32.335324c42.863775 13.600451 90.890817 14.16293 139.09093-8.768901l-72.112676 32.335324zM302.441357 779.826479c-27.604732-8.754479-52.512451-22.70107-73.641465-38.363944l72.112676-32.320901c21.129014 15.648451 46.036732 29.609465 73.655887 38.363943l-72.112676 32.335324z" fill="#CECEF9" /><path d="M274.533751 146.475268L191.907047 134.129577V40.282141l557.690591 83.333408v93.847437l-82.612281-12.34569V396.042817l110.837183 352.31369 49.757746 150.080901c21.489577 64.814873-18.475268 125.663549-76.814422 116.937916L198.065469 932.791887c-56.666141-8.466028-96.515606-77.737465-78.170141-135.917972l48.603944-154.162478 106.034479-305.310648V146.475268z m82.626704 12.34569V366.76507l-100.380845 289.056451c15.230197 13.009127 35.176563 25.816338 57.733409 32.969916 33.359324 10.586141 74.752 9.663099 119.231098-26.422085 64.656225-52.498028 135.499718-52.007662 195.987831-29.998873 10.975549 4.009465 21.633803 8.711211 31.888226 13.932169l-77.261522-245.58693V192.771606l-227.212619-33.950648z m347.597521 623.933296c-20.609803-21.359775-53.36338-46.974197-90.371605-60.430423-40.036958-14.581183-84.516056-15.042704-127.264451 19.657915-62.939944 51.08462-128.259606 55.743099-184.666141 37.859155-27.619155-8.768901-52.526873-22.715493-73.641465-38.363943l-30.748845 97.467493 552.700395 82.583436-46.007888-138.773633z" fill="#4E5969" /></svg>