<?xml version="1.0" standalone="no"?><!DOCTYPE svg PUBLIC "-//W3C//DTD SVG 1.1//EN" "http://www.w3.org/Graphics/SVG/1.1/DTD/svg11.dtd"><svg class="icon" width="200px" height="193.39px" viewBox="0 0 1059 1024" version="1.1" xmlns="http://www.w3.org/2000/svg"><path d="M101.537684 185.577544L0 170.397193l89.824561-40.241404 101.537685 15.162386-89.824562 40.259369zM0 170.397193V53.894737L89.824561 13.635368v116.502457L0 170.397193z" fill="#CECEF9" /><path d="M0 53.894737l101.537684 15.180351 89.824562-40.277334L89.824561 13.653333 0 53.894737zM101.537684 69.075088v116.502456l89.824562-40.259369V28.797754l-89.824562 40.277334zM101.537684 185.577544l89.824562-40.259369-89.824562 40.259369zM964.608 314.547649l-761.532632-113.789754 89.824562-40.277334 761.532631 113.789755-89.824561 40.277333z" fill="#CECEF9" /><path d="M203.075368 200.757895V84.237474l89.824562-40.259369v116.502456l-89.824562 40.277334z" fill="#CECEF9" /><path d="M203.075368 84.255439l761.532632 113.771789 89.824561-40.259368-761.532631-113.789755-89.824562 40.259369z" fill="#CECEF9" /><path d="M964.608 198.027228v116.520421l89.824561-40.277333V157.76786l-89.824561 40.259368zM964.608 314.547649l89.824561-40.277333-89.824561 40.277333zM101.537684 535.120842L0 519.940491l89.824561-40.259368 101.537685 15.162386-89.824562 40.277333z" fill="#CECEF9" /><path d="M0 519.940491v-116.520421l89.824561-40.259368v116.520421l-89.824561 40.259368z" fill="#CECEF9" /><path d="M0 403.42007l101.537684 15.180351 89.824562-40.259368L89.824561 363.160702l-89.824561 40.259368z" fill="#CECEF9" /><path d="M101.537684 418.600421v116.520421l89.824562-40.277333V378.341053l-89.824562 40.259368zM101.537684 535.120842l89.824562-40.277333-89.824562 40.277333zM964.608 664.072982l-761.532632-113.789754 89.824562-40.259368 761.532631 113.789754-89.824561 40.259368zM203.075368 550.283228v-116.502456l89.824562-40.277333v116.520421l-89.824562 40.259368z" fill="#CECEF9" /><path d="M203.075368 433.780772l761.532632 113.789754 89.824561-40.277333-761.532631-113.789754-89.824562 40.277333zM964.608 547.570526v116.502456l89.824561-40.259368v-116.520421l-89.824561 40.277333zM964.608 664.072982l89.824561-40.259368-89.824561 40.259368zM101.537684 884.646175L0 869.465825l89.824561-40.241404 101.537685 15.162386-89.824562 40.259368z" fill="#CECEF9" /><path d="M0 869.465825v-116.502457l89.824561-40.259368v116.502456L0 869.501754z" fill="#CECEF9" /><path d="M0 752.963368l101.537684 15.180351 89.824562-40.277333L89.824561 712.704l-89.824561 40.259368zM101.537684 768.143719v116.502456l89.824562-40.259368v-116.520421l-89.824562 40.277333zM101.537684 884.646175l89.824562-40.259368-89.824562 40.259368zM964.608 1013.616281l-761.532632-113.789755 89.824562-40.277333 761.532631 113.807719-89.824561 40.241404z" fill="#CECEF9" /><path d="M203.075368 899.826526v-116.520421l89.824562-40.259368v116.502456l-89.824562 40.277333z" fill="#CECEF9" /><path d="M203.075368 783.306105l761.532632 113.789755 89.824561-40.259369-761.532631-113.789754-89.824562 40.259368zM964.608 897.09586v116.520421l89.824561-40.259369v-116.520421l-89.824561 40.259369z" fill="#CECEF9" /><path d="M964.608 1013.616281l89.824561-40.259369-89.824561 40.241404z" fill="#CECEF9" /><path d="M101.537684 185.577544L0 170.397193V53.894737l101.537684 15.180351v116.502456z m863.070316 128.970105l-761.532632-113.789754V84.237474l761.532632 113.789754v116.520421zM101.537684 535.120842L0 519.940491v-116.520421l101.537684 15.180351v116.520421z m863.070316 128.95214l-761.532632-113.789754v-116.502456l761.532632 113.789754v116.502456zM101.537684 884.646175L0 869.465825v-116.502457l101.537684 15.180351v116.502456z m863.070316 128.970106l-761.532632-113.789755v-116.520421l761.532632 113.789755v116.520421z" fill="#4E5969" /></svg>