<?xml version="1.0" standalone="no"?><!DOCTYPE svg PUBLIC "-//W3C//DTD SVG 1.1//EN" "http://www.w3.org/Graphics/SVG/1.1/DTD/svg11.dtd"><svg class="icon" width="200px" height="200.00px" viewBox="0 0 1024 1024" version="1.1" xmlns="http://www.w3.org/2000/svg"><path d="M706.193194 343.85003v143.940776l76.41791-34.265791v-143.940776l-76.41791 34.265791zM238.760119 417.944836v-143.940776l76.417911-34.265791v143.940776l-76.417911 34.265791zM238.760119 274.00406l76.417911-34.265791-76.417911 34.265791zM323.736836 286.704716v143.940777l76.41791-34.265792v-143.940776l-76.41791 34.265791zM621.201194 475.090149v-143.940776l76.41791-34.250507v143.925492l-76.41791 34.265791zM472.476657 140.991045l76.41791-34.250508-76.41791 34.250508zM153.752836 405.244179v23.995224l76.41791-34.265791v-23.995224l-76.41791 34.265791zM451.232478 809.525493l42.488358 6.35797 76.41791-34.265791-42.488358-6.342687-76.41791 34.250508zM791.185194 524.471403v-23.995224l76.41791-34.235224v23.979941l-76.41791 34.250507z" fill="#CECEF9" /><path d="M791.185194 500.491463l84.976716 12.685373 76.417911-34.235224-84.976717-12.71594-76.41791 34.265791z" fill="#CECEF9" /><path d="M876.177194 513.192119v23.995224l76.41791-34.265791v-23.995224l-76.41791 34.265791zM514.965015 914.370866v96.592238l76.41791-34.235223v-96.622806l-76.41791 34.265791z" fill="#CECEF9" /><path d="M514.965015 1010.978388l-84.976716-12.700657 76.41791-34.265791 84.976716 12.700657-76.41791 34.265791zM429.973015 998.277731v-96.607522l76.41791-34.265791v96.607522l-76.41791 34.265791zM68.776119 416.523463v-23.995224l76.417911-34.235224v23.97994l-76.417911 34.250508z" fill="#CECEF9" /><path d="M68.776119 392.543522l84.976717 12.685374 76.41791-34.235224L145.19403 358.262448l-76.417911 34.265791z" fill="#CECEF9" /><path d="M153.752836 405.244179l76.41791-34.265791-76.41791 34.265791zM238.760119 274.00406c0-99.098746 48.372537-178.206567 119.930269-212.640478l76.417911-34.250507c-71.542448 34.418627-119.930269 113.526448-119.930269 212.625194l-76.417911 34.265791z" fill="#CECEF9" /><path d="M358.705672 61.363582c33.654448-16.200597 72.459463-22.497433 113.770985-16.322866l76.41791-34.250507c-41.311522-6.174567-80.116537 0.122269-113.786268 16.322866l-76.417911 34.250507z" fill="#CECEF9" /><path d="M472.476657 45.040716c129.069851 19.287881 233.716537 153.080358 233.716537 298.809314l76.41791-34.265791c0-145.728955-104.646687-279.506149-233.716537-298.79403l-76.41791 34.235224zM706.193194 487.790806c0 99.098746-48.387821 178.206567-119.945552 212.625194l76.41791-34.250507c71.557731-34.418627 119.945552-113.541731 119.945552-212.640478l-76.41791 34.265791z" fill="#CECEF9" /><path d="M586.247642 700.416c-33.669731 16.200597-72.474746 22.497433-113.770985 16.338149l76.41791-34.265791c41.296239 6.174567 80.101254-0.122269 113.770985-16.322865l-76.41791 34.250507zM472.476657 716.754149c-129.085134-19.287881-233.716537-153.080358-233.716538-298.809313l76.417911-34.265791c0 145.744239 104.631403 279.536716 233.716537 298.809313l-76.41791 34.265791zM472.476657 140.991045c-23.001791-3.423522-44.780896-0.794746-64.221612 6.831761l76.41791-34.265791c19.440716-7.611224 41.219821-10.24 64.221612-6.816478l-76.41791 34.250508z" fill="#CECEF9" /><path d="M408.255045 147.822806c-49.992597 19.593552-84.518209 72.10794-84.518209 138.88191l76.41791-34.265791c0-66.77397 34.525612-119.288358 84.518209-138.88191l-76.41791 34.265791zM323.736836 430.645493c0 92.740776 66.590567 177.870328 148.739821 190.143044l76.41791-34.250507c-82.149254-12.272716-148.739821-97.417552-148.739821-190.158329l-76.41791 34.265792zM472.476657 620.788537c23.001791 3.438806 44.780896 0.794746 64.221612-6.816477l76.41791-34.265791c-19.440716 7.626507-41.219821 10.270567-64.221612 6.831761l-76.41791 34.250507z" fill="#CECEF9" /><path d="M536.698269 613.97206c49.977313-19.593552 84.518209-72.10794 84.518209-138.881911l76.41791-34.265791c0 66.789254-34.540896 119.288358-84.518209 138.881911l-76.41791 34.265791zM621.201194 331.149373c0-92.740776-66.590567-177.870328-148.724537-190.158328l76.41791-34.250508c82.13397 12.272716 148.724537 97.402269 148.724537 190.158329l-76.41791 34.250507zM153.752836 429.224119c0 185.496836 133.196418 355.75594 297.479642 380.301374l76.41791-34.250508C363.351881 750.729552 230.170746 580.455164 230.170746 394.973612l-76.41791 34.250507zM493.720836 815.883463c46.003582 6.877612 89.561791 1.589493 128.443224-13.648239l76.41791-34.250508c-38.881433 15.237731-82.439642 20.510567-128.443224 13.632956l-76.41791 34.265791z" fill="#CECEF9" /><path d="M622.16406 802.235224c99.96991-39.187104 169.021134-144.215881 169.021134-277.763821l76.41791-34.250507c0 133.54794-69.051224 238.576716-169.036417 277.76382l-76.417911 34.250508z" fill="#CECEF9" /><path d="M876.177194 537.17206c0 156.702567-73.926687 282.868537-184.549254 342.016l76.417911-34.265791c110.622567-59.147463 184.549254-185.298149 184.549253-342.000717l-76.41791 34.250508z" fill="#CECEF9" /><path d="M691.62794 879.18806c-52.055881 27.816119-112.227343 40.807164-176.662925 35.182806l76.41791-34.265791c64.435582 5.654925 124.607045-7.336119 176.678209-35.182806l-76.41791 34.265791zM429.973015 901.670209C228.642388 859.136 68.776119 646.95403 68.776119 416.523463l76.417911-34.250508c0 230.445851 159.866269 442.612537 361.196895 485.131463l-76.41791 34.265791z" fill="#CECEF9" /><path d="M238.760119 274.00406c0-145.744239 104.631403-248.251224 233.716538-228.963344 129.069851 19.287881 233.716537 153.065075 233.716537 298.809314v143.940776c0 145.728955-104.646687 248.251224-233.716537 228.94806-129.085134-19.272597-233.716537-153.065075-233.716538-298.79403v-143.940776z m233.716538-133.013015c-82.149254-12.272716-148.739821 52.972896-148.739821 145.713671v143.940777c0 92.740776 66.590567 177.870328 148.739821 190.143044 82.13397 12.272716 148.724537-52.957612 148.724537-145.698388v-143.940776c0-92.740776-66.590567-177.870328-148.724537-190.158328zM153.752836 405.244179v23.995224c0 185.481552 133.181134 355.740657 297.464358 380.28609l42.488358 6.35797c164.283224 24.545433 297.464358-105.915224 297.464358-291.41206v-23.995224l84.976717 12.71594v23.995224c0 230.430567-159.866269 394.820776-361.196896 377.183523v96.592238l-84.976716-12.685373v-96.607522C228.642388 859.136 68.776119 646.95403 68.776119 416.523463v-23.995224l84.976717 12.71594z" fill="#4E5969" /></svg>