<?xml version="1.0" standalone="no"?><!DOCTYPE svg PUBLIC "-//W3C//DTD SVG 1.1//EN" "http://www.w3.org/Graphics/SVG/1.1/DTD/svg11.dtd"><svg class="icon" width="200px" height="200.00px" viewBox="0 0 1024 1024" version="1.1" xmlns="http://www.w3.org/2000/svg"><path d="M874.19871 79.855484L602.029419 39.176258l82.580646-37.012645 272.136258 40.66271-82.580646 37.029161z" fill="#CECEF9" /><path d="M602.045935 39.176258v111.467355l82.580646-37.029161V2.163613l-82.580646 37.012645z" fill="#CECEF9" /><path d="M602.045935 150.627097l152.675097 22.82529 82.580645-37.012645-152.675096-22.82529-82.580646 37.029161z" fill="#CECEF9" /><path d="M754.737548 173.452387l-136.538838 133.367742 82.580645-37.029161 136.538839-133.367742-82.580646 37.029161zM684.857806 399.310452l139.858581-136.588387 82.580645-37.029162-139.85858 136.604903-82.580646 37.012646z" fill="#CECEF9" /><path d="M824.716387 262.722065v171.965935l82.580645-37.029161V225.692903l-82.580645 37.029162z" fill="#CECEF9" /><path d="M824.716387 434.688l98.964645 14.781935 82.580645-37.012645-98.964645-14.798451-82.580645 37.029161z" fill="#CECEF9" /><path d="M923.681032 449.469935V87.238194l82.580645-37.012646v362.231742l-82.580645 37.012645zM923.664516 87.238194l-49.482322-7.399226 82.580645-37.012645 49.482322 7.399225-82.580645 37.012646zM874.19871 79.838968l82.580645-37.012645-82.580645 37.012645zM581.598968 416.156903l82.580645-37.012645-82.580645 37.012645zM618.19871 306.820129c-64.545032-70.821161-147.868903-120.138323-238.823226-133.731097l82.580645-37.012645c90.954323 13.592774 174.278194 62.893419 238.823226 133.714581l-82.580645 37.029161zM379.375484 173.089032c-57.393548-8.588387-111.731613-2.031484-160.239484 16.912516l82.580645-37.012645c48.507871-18.944 102.845935-25.500903 160.239484-16.912516l-82.580645 37.012645z" fill="#CECEF9" /><path d="M219.136 190.018065C94.389677 238.740645 8.258065 369.383226 8.258065 535.601548l82.580645-37.029161c0-166.201806 86.131613-296.860903 210.877935-345.583484l-82.580645 37.029162z" fill="#CECEF9" /><path d="M8.258065 535.601548c0 230.829419 166.152258 442.797419 371.117419 473.401807l82.580645-37.012645C256.990968 941.369806 90.83871 729.401806 90.83871 498.572387L8.258065 535.618065zM379.375484 1009.019871c57.393548 8.571871 111.731613 2.014968 160.239484-16.929032l82.580645-37.012645c-48.507871 18.944-102.845935 25.484387-160.239484 16.912516l-82.580645 37.029161z" fill="#CECEF9" /><path d="M539.614968 992.090839c124.746323-48.722581 210.877935-179.381677 210.877935-345.583484l82.580645-37.012645c0 166.18529-86.131613 296.860903-210.877935 345.583484l-82.580645 37.012645z" fill="#CECEF9" /><path d="M750.492903 646.507355c0-88.163097-24.245677-173.584516-65.635097-247.180387l82.580646-37.029162c41.389419 73.612387 65.635097 159.01729 65.635096 247.196904l-82.580645 36.996129zM581.598968 416.156903l0.743226 1.040516 82.580645-37.012645a63.223742 63.223742 0 0 1-0.743226-1.040516l-82.580645 37.012645z" fill="#CECEF9" /><path d="M582.35871 417.197419c43.024516 60.647226 69.169548 136.092903 69.169548 214.528l82.580645-37.029161c0-78.418581-26.161548-153.880774-69.169548-214.511484l-82.580645 37.029161z" fill="#CECEF9" /><path d="M651.528258 631.708903c0 115.117419-56.353032 206.980129-139.660387 246.932645l82.580645-37.012645c83.307355-39.969032 139.660387-131.815226 139.660387-246.916129l-82.580645 36.996129z" fill="#CECEF9" /><path d="M511.867871 878.641548c-39.20929 18.795355-84.397419 26.095484-132.492387 18.910968l82.580645-37.012645c48.094968 7.184516 93.283097-0.115613 132.492387-18.910968l-82.580645 37.012645zM379.375484 897.552516c-150.296774-22.461935-272.152774-177.87871-272.152774-347.169032l82.580645-37.012645c0 169.273806 121.856 324.707097 272.152774 347.169032l-82.580645 37.012645z" fill="#CECEF9" /><path d="M107.22271 550.383484c0-115.117419 56.336516-206.980129 139.660387-246.916129l82.580645-37.029161c-83.323871 39.952516-139.660387 131.815226-139.660387 246.916129l-82.580645 37.029161z" fill="#CECEF9" /><path d="M246.883097 303.450839c39.20929-18.795355 84.397419-26.095484 132.492387-18.910968l82.580645-36.996129c-48.094968-7.201032-93.283097 0.099097-132.492387 18.894452l-82.580645 37.012645z" fill="#CECEF9" /><path d="M379.375484 284.556387c80.268387 11.99071 152.427355 61.902452 202.24 131.600516l82.580645-37.012645c-49.829161-69.698065-121.971613-119.626323-202.24-131.617032l-82.580645 37.029161z" fill="#CECEF9" /><path d="M874.19871 79.855484L602.029419 39.176258v111.467355l152.691613 22.808774-136.538838 133.367742c-64.545032-70.821161-147.868903-120.138323-238.823226-133.731097C174.410323 142.468129 8.258065 304.772129 8.258065 535.618065c0 230.829419 166.152258 442.780903 371.117419 473.401806 204.965161 30.637419 371.117419-131.666581 371.117419-362.496 0-88.163097-24.245677-173.584516-65.635097-247.180387l139.858581-136.604903v171.965935l98.964645 14.781936V87.238194l-49.498838-7.38271zM581.598968 416.156903l0.743226 1.040516c43.008 60.647226 69.169548 136.092903 69.169548 214.528 0 169.273806-121.856 288.289032-272.152774 265.827097-150.296774-22.461935-272.152774-177.87871-272.152774-347.169032s121.839484-288.289032 272.152774-265.827097c80.268387 11.99071 152.427355 61.902452 202.24 131.600516z" fill="#4E5969" /></svg>