<?xml version="1.0" standalone="no"?><!DOCTYPE svg PUBLIC "-//W3C//DTD SVG 1.1//EN" "http://www.w3.org/Graphics/SVG/1.1/DTD/svg11.dtd"><svg class="icon" width="200px" height="200.00px" viewBox="0 0 1024 1024" version="1.1" xmlns="http://www.w3.org/2000/svg"><path d="M169.3696 240.986585v215.953723l78.769231-35.30437V205.682215l-78.769231 35.30437z" fill="#CECEF9" /><path d="M169.3696 456.940308l114.8928 17.171692 78.769231-35.320123-114.8928-17.171692-78.769231 35.320123zM284.2624 474.112v101.202708l78.769231-35.30437v-101.202707l-78.769231 35.304369z" fill="#CECEF9" /><path d="M284.2624 575.330462l-114.8928-17.171693 78.769231-35.320123 114.8928 17.171692-78.769231 35.30437z" fill="#CECEF9" /><path d="M169.3696 558.158769v253.006769l78.769231-35.288615V522.822892l-78.769231 35.320123z" fill="#CECEF9" /><path d="M169.3696 811.165538l114.8928 17.171693 78.769231-35.304369-114.8928-17.171693-78.769231 35.304369z" fill="#CECEF9" /><path d="M284.2624 828.337231v101.218461l78.769231-35.320123V793.048615l-78.769231 35.30437z" fill="#CECEF9" /><path d="M284.2624 929.555692L77.461662 898.630892l78.76923-35.320123 206.800739 30.909046-78.769231 35.320123z" fill="#CECEF9" /><path d="M77.461662 898.646646V227.249231l78.76923-35.304369v671.397415l-78.76923 35.304369zM31.507692 132.726154l78.769231-35.320123-78.769231 35.320123zM904.664615 313.800862l-528.494277-78.974031 78.769231-35.304369 528.494277 78.958276-78.769231 35.320124zM376.170338 234.826831V133.624123l78.769231-35.320123v101.218462l-78.769231 35.304369z" fill="#CECEF9" /><path d="M376.170338 133.624123l528.494277 78.974031 78.769231-35.320123L454.955323 98.304l-78.769231 35.320123z" fill="#CECEF9" /><path d="M904.680369 212.5824v101.218462l78.769231-35.320124v-101.202707l-78.769231 35.304369zM904.680369 313.800862l78.769231-35.320124-78.769231 35.320124zM904.664615 668.026092l-528.494277-78.97403 78.769231-35.30437 528.494277 78.974031-78.769231 35.304369zM376.170338 589.052062v-101.202708l78.769231-35.320123v101.218461l-78.769231 35.30437z" fill="#CECEF9" /><path d="M376.170338 487.849354l528.494277 78.974031 78.769231-35.320123-528.494277-78.974031-78.769231 35.320123zM904.680369 566.823385v101.202707l78.769231-35.304369v-101.218461l-78.769231 35.320123zM904.680369 668.026092l78.769231-35.304369-78.769231 35.304369zM904.664615 1022.267077l-528.494277-78.989785 78.769231-35.304369 528.494277 78.974031-78.769231 35.304369z" fill="#CECEF9" /><path d="M376.170338 943.293046v-101.218461l78.769231-35.30437v101.202708l-78.769231 35.320123z" fill="#CECEF9" /><path d="M376.170338 842.074585l528.494277 78.97403 78.769231-35.304369-528.494277-78.974031-78.769231 35.30437z" fill="#CECEF9" /><path d="M904.680369 921.048615v101.202708l78.769231-35.304369v-101.218462l-78.769231 35.320123z" fill="#CECEF9" /><path d="M904.680369 1022.267077l78.769231-35.320123-78.769231 35.304369zM31.507692 132.7104C31.507692 94.712123 50.538338 64.433231 78.674708 51.357538l78.76923-35.320123C129.307569 29.144615 110.276923 59.392 110.276923 97.406031L31.507692 132.7104z" fill="#CECEF9" /><path d="M78.674708 51.341785c13.233231-6.159754 28.514462-8.522831 44.740923-6.096739l78.769231-35.320123c-16.226462-2.426092-31.507692-0.063015-44.740924 6.096739l-78.76923 35.320123z" fill="#CECEF9" /><path d="M123.415631 45.245046c50.774646 7.5776 91.923692 59.045415 91.923692 114.940062l78.769231-35.30437c0-55.9104-41.149046-107.362462-91.923692-114.955815l-78.769231 35.320123z" fill="#CECEF9" /><path d="M215.339323 160.185108c0 37.462646-18.495015 67.410708-45.969723 80.801477l78.769231-35.320123c27.474708-13.390769 45.969723-43.323077 45.969723-80.785724l-78.769231 35.30437zM77.461662 227.249231C49.986954 205.650708 31.507692 170.173046 31.507692 132.726154l78.769231-35.320123c0 37.462646 18.479262 72.940308 45.953969 94.523077l-78.76923 35.320123z" fill="#CECEF9" /><path d="M31.507692 132.7104C31.507692 76.815754 72.656738 37.651692 123.415631 45.245046c50.758892 7.5776 91.923692 59.045415 91.923692 114.940062 0 37.462646-18.495015 67.410708-45.969723 80.81723v215.93797l114.8928 17.171692v101.202708l-114.8928-17.171693V811.165538l114.8928 17.171693v101.218461L77.461662 898.646646V227.249231C49.986954 205.650708 31.507692 170.173046 31.507692 132.726154zM904.680369 313.816615l-528.494277-78.97403V133.624123l528.494277 78.974031v101.202708z m0 354.225231l-528.494277-78.974031v-101.202707l528.494277 78.97403v101.202708z m0 354.225231l-528.494277-78.974031v-101.202708l528.494277 78.974031v101.202708z" fill="#4E5969" /></svg>