<?xml version="1.0" standalone="no"?><!DOCTYPE svg PUBLIC "-//W3C//DTD SVG 1.1//EN" "http://www.w3.org/Graphics/SVG/1.1/DTD/svg11.dtd"><svg class="icon" width="200px" height="200.00px" viewBox="0 0 1024 1024" version="1.1" xmlns="http://www.w3.org/2000/svg"><path d="M268.83103 333.218909l77.575758-34.769454-77.575758 34.769454zM427.03903 672.814545v77.529213l77.575758-34.769455v-77.544727l-77.575758 34.784969z" fill="#CECEF9" /><path d="M427.03903 750.359273L268.83103 726.714182l77.575758-34.78497 158.208 23.645091-77.575758 34.78497z" fill="#CECEF9" /><path d="M268.83103 726.714182v98.36606l77.575758-34.769454v-98.366061l-77.575758 34.75394zM268.83103 825.095758l158.208 23.629575 77.575758-34.784969-158.208-23.629576-77.575758 34.769454z" fill="#CECEF9" /><path d="M427.03903 848.725333v147.549091l77.575758-34.753939V813.924848l-77.575758 34.78497z" fill="#CECEF9" /><path d="M427.03903 996.289939l90.406788 13.498182 77.575758-34.769454-90.406788-13.498182-77.575758 34.753939z" fill="#CECEF9" /><path d="M517.430303 1009.788121v-147.549091l77.575758-34.784969v147.549091l-77.575758 34.784969z" fill="#CECEF9" /><path d="M517.430303 862.23903l158.208 23.629576 77.575758-34.769454-158.192485-23.645091-77.575758 34.784969z" fill="#CECEF9" /><path d="M675.638303 885.868606v-98.366061l77.575758-34.784969v98.36606l-77.575758 34.78497z" fill="#CECEF9" /><path d="M675.638303 787.502545l-158.192485-23.64509 77.575758-34.769455 158.208 23.629576-77.575758 34.784969zM517.430303 763.857455v-77.529213l77.575758-34.784969v77.544727l-77.575758 34.769455zM472.234667 43.907879l77.575757-34.78497-77.575757 34.78497zM268.83103 333.218909c0-83.130182 42.108121-149.255758 104.38594-177.788121l77.575757-34.769455c-62.277818 28.532364-104.385939 94.642424-104.385939 177.772606l-77.575758 34.78497z" fill="#CECEF9" /><path d="M373.21697 155.430788c29.308121-13.420606 63.069091-18.525091 99.017697-13.156849l77.575757-34.769454c-35.948606-5.383758-69.725091-0.279273-99.017697 13.156848l-77.575757 34.769455zM472.234667 142.273939c112.329697 16.787394 203.403636 129.489455 203.403636 251.733334l77.575758-34.769455c0-122.259394-91.073939-234.945939-203.403637-251.733333l-77.575757 34.769454z" fill="#CECEF9" /><path d="M675.638303 394.007273c0 83.130182-42.108121 149.255758-104.385939 177.803636l77.575757-34.78497c62.277818-28.547879 104.385939-94.673455 104.38594-177.803636l-77.575758 34.78497z" fill="#CECEF9" /><path d="M571.267879 571.795394c-29.323636 13.420606-63.084606 18.525091-99.033212 13.156848l77.575757-34.769454c35.948606 5.368242 69.725091 0.263758 99.017697-13.172364l-77.575757 34.78497z" fill="#CECEF9" /><path d="M472.234667 584.952242c-112.329697-16.787394-203.403636-129.489455-203.403637-251.733333l77.575758-34.769454c0 122.228364 91.073939 234.945939 203.403636 251.733333l-77.575757 34.769454zM472.234667 43.907879c-45.428364-6.795636-88.467394-2.001455-126.867394 12.288l77.575757-34.75394C461.34303 7.13697 504.397576 2.327273 549.810424 9.107394l-77.575757 34.78497z" fill="#CECEF9" /><path d="M345.367273 56.211394C246.613333 92.982303 178.424242 192.589576 178.424242 319.705212l77.575758-34.769454C256 157.789091 324.189091 58.181818 422.94303 21.410909l-77.575757 34.78497zM178.424242 319.705212C178.424242 479.573333 286.223515 628.115394 427.03903 672.814545l77.575758-34.784969C363.799273 593.345939 256 444.803879 256 284.951273l-77.575758 34.769454zM517.430303 686.312727a245.108364 245.108364 0 0 0 94.642424-20.557575l77.575758-34.769455a245.108364 245.108364 0 0 1-94.642424 20.557576l-77.575758 34.769454z" fill="#CECEF9" /><path d="M612.072727 665.755152c91.710061-40.401455 153.972364-136.750545 153.972364-258.234182l77.575757-34.78497c0 121.483636-62.262303 217.832727-153.956848 258.249697l-77.575758 34.769455z" fill="#CECEF9" /><path d="M766.045091 407.52097c0-176.562424-131.537455-339.378424-293.810424-363.613091l77.575757-34.78497c162.27297 24.250182 293.810424 187.050667 293.810424 363.613091l-77.575757 34.78497z" fill="#CECEF9" /><path d="M268.83103 333.218909c0-122.243879 91.073939-207.732364 203.403637-190.94497 112.329697 16.787394 203.403636 129.489455 203.403636 251.733334 0 122.243879-91.073939 207.732364-203.403636 190.944969-112.329697-16.787394-203.403636-129.489455-203.403637-251.733333zM472.234667 43.907879C309.961697 19.657697 178.424242 143.142788 178.424242 319.705212 178.424242 479.573333 286.223515 628.115394 427.03903 672.814545v77.529213L268.83103 726.729697v98.366061l158.208 23.64509v147.549091l90.391273 13.513697v-147.549091l158.208 23.629576v-98.36606l-158.192485-23.645091v-77.529212c140.8-2.637576 248.599273-118.970182 248.599273-278.807273 0-176.562424-131.537455-339.362909-293.810424-363.613091z" fill="#4E5969" /></svg>