<?xml version="1.0" standalone="no"?><!DOCTYPE svg PUBLIC "-//W3C//DTD SVG 1.1//EN" "http://www.w3.org/Graphics/SVG/1.1/DTD/svg11.dtd"><svg class="icon" width="200px" height="200.00px" viewBox="0 0 1024 1024" version="1.1" xmlns="http://www.w3.org/2000/svg"><path d="M122.591549 118.005183v713.266479l72.112676-32.320901V85.669859L122.591549 118.005183zM204.309634 932.647662l531.109859 79.367211 72.112676-32.335324-531.109859-79.367211-72.112676 32.335324zM817.137577 935.056225V351.707944l72.112677-32.335324v583.362704l-72.112677 32.320901zM793.196169 285.075831l-119.058028-147.686761 72.112676-32.335324 119.058028 147.701184-72.112676 32.320901zM616.361465 102.630761l-412.051831-61.584226 72.112676-32.320901 412.051831 61.584225-72.112676 32.306479zM204.309634 41.046535l72.112676-32.320901-72.112676 32.320901zM204.309634 843.487549V130.22107l72.112676-32.335324v713.280902l-72.112676 32.306479z" fill="#CECEF9" /><path d="M204.309634 130.22107l412.051831 61.569803 72.112676-32.335324-412.051831-61.569803-72.112676 32.335324z" fill="#CECEF9" /><path d="M616.361465 191.790873l119.058028 147.686761 72.112676-32.306479-119.058028-147.715606-72.112676 32.335324z" fill="#CECEF9" /><path d="M735.419493 339.492056v583.362705l72.112676-32.335324V307.171155l-72.112676 32.320901z" fill="#CECEF9" /><path d="M735.419493 922.854761L204.309634 843.487549l72.112676-32.335324 531.109859 79.367212-72.112676 32.335324zM204.309634 843.487549l72.112676-32.335324-72.112676 32.335324zM293.498592 722.799775l0.822084 2.004732 72.112676-32.335324-0.836507-2.004732-72.112676 32.335324z" fill="#CECEF9" /><path d="M294.335099 724.804507l0.995155 1.93262 72.112676-32.335324-1.009578-1.93262-72.112676 32.335324zM455.103099 323.713803l72.112676-32.320902-72.112676 32.320902zM610.029972 669.537352l72.112676-32.335324-72.112676 32.335324zM204.309634 41.060958a70.410817 70.410817 0 0 0-35.291944 3.432563l72.112676-32.320901c10.672676-3.995042 22.64338-5.336338 35.291944-3.446986l-72.112676 32.335324z" fill="#CECEF9" /><path d="M169.032113 44.493521C141.542761 54.762366 122.591549 82.554592 122.591549 118.005183L194.704225 85.669859C194.704225 50.219268 213.669859 22.441465 241.144789 12.17262l-72.112676 32.320901zM122.591549 831.271662c0 49.238535 36.589972 94.626254 81.703662 101.376l72.112676-32.335324C231.294197 893.577014 194.704225 848.189296 194.704225 798.950761l-72.112676 32.320901zM735.419493 1012.000451c12.634141 1.889352 24.604845 0.548056 35.291944-3.432564l72.112676-32.335324c-10.687099 3.995042-22.64338 5.336338-35.291944 3.461409l-72.112676 32.306479z" fill="#CECEF9" /><path d="M770.711437 1008.567887c27.460507-10.268845 46.426141-38.06107 46.42614-73.511662l72.112677-32.320901c0 35.450592-18.965634 63.242817-46.440564 73.497239l-72.112676 32.335324zM817.137577 351.707944c0-23.652958-8.610254-47.623211-23.941408-66.632113l72.112676-32.320901c15.331155 19.008901 23.941408 42.979155 23.941409 66.632112l-72.112677 32.306479zM674.138141 137.374648c-15.316732-19.008901-36.099606-31.513239-57.776676-34.75831l72.112676-32.306479c21.67707 3.230648 42.459944 15.720563 57.776676 34.743887l-72.112676 32.320902zM455.103099 323.713803c-10.773634-1.600901-26.652845-2.091268-41.248451 4.196958l72.112676-32.320902c14.595606-6.288225 30.474817-5.812282 41.248451-4.196958l-72.112676 32.320902z" fill="#CECEF9" /><path d="M413.854648 327.910761c-11.465915 4.932507-22.153014 14.047549-28.931606 30.070985l72.112676-32.320901c6.778592-16.023437 17.451268-25.138479 28.931606-30.070986l-72.112676 32.320902z" fill="#CECEF9" /><path d="M384.90862 357.981746c-13.066817 30.864225-3.115268 70.973296 13.326422 110.505465l72.112676-32.335324c-16.44169-39.517746-26.393239-79.641239-13.326422-110.491042l-72.112676 32.320901z" fill="#CECEF9" /><path d="M398.235042 468.487211c5.480563 14.004282 13.787944 32.537239 23.552 52.988395l72.112676-32.320902c-9.764056-20.451155-18.071437-38.984113-23.552-52.988394l-72.112676 32.306479zM421.787042 521.475606a1048.374085 1048.374085 0 0 1-14.105239 44.277183l72.112676-32.320902c5.494986-16.095549 10.167887-30.820958 14.105239-44.277183l-72.112676 32.320902z" fill="#CECEF9" /><path d="M407.681803 565.752789c-3.562366 10.384225-6.99493 19.989634-10.312113 28.84507l72.112676-32.306479c3.317183-8.884282 6.749746-18.475268 10.312113-28.873915l-72.112676 32.335324z" fill="#CECEF9" /><path d="M397.36969 594.612282c-20.667493 4.182535-37.960113 9.374648-52.28169 15.547493l72.112676-32.320902c14.321577-6.172845 31.614197-11.364958 52.28169-15.561915l-72.112676 32.335324z" fill="#CECEF9" /><path d="M345.088 610.159775c-13.225465 5.696901-23.898141 12.215887-32.378592 19.585802l72.112677-32.335323c8.480451-7.355493 19.153127-13.888901 32.378591-19.571381l-72.112676 32.306479zM312.709408 629.745577c-14.16293 12.331268-23.537577 28.224901-26.032676 47.378029l72.112676-32.306479c2.509521-19.181972 11.869746-35.075606 26.047099-47.392451l-72.112676 32.320901z" fill="#CECEF9" /><path d="M286.676732 677.138028c-2.451831 18.648338 2.336451 34.974648 6.807437 45.661747l72.112676-32.335324c-4.470986-10.672676-9.259268-26.998986-6.807437-45.661747l-72.112676 32.320902zM295.330254 726.737127c4.932507 9.562141 14.884056 26.652845 31.614197 38.493746l72.112676-32.335324c-16.730141-11.826479-26.68169-28.917183-31.614197-38.493746l-72.112676 32.335324z" fill="#CECEF9" /><path d="M326.958873 765.230873c18.980056 13.412958 40.383099 15.792676 59.795831 7.139155l72.112676-32.335324c-19.412732 8.653521-40.815775 6.288225-59.810253-7.139155l-72.112676 32.335324z" fill="#CECEF9" /><path d="M386.754704 772.370028c1.687437-0.749972 3.360451-1.586479 5.019042-2.509521l72.112677-32.335324c-1.658592 0.923042-3.317183 1.759549-5.019043 2.509521l-72.112676 32.335324z" fill="#CECEF9" /><path d="M391.773746 769.860507c17.739718-9.879437 32.796845-28.758535 46.700169-53.392225l72.112677-32.335324c-13.903324 24.63369-28.946028 43.527211-46.700169 53.392225l-72.112677 32.335324z" fill="#CECEF9" /><path d="M438.473915 716.468282c6.20169-10.975549 12.576451-23.854873 19.153127-38.825465l72.112676-32.320902a435.416338 435.416338 0 0 1-19.153126 38.811043l-72.112677 32.335324z" fill="#CECEF9" /><path d="M457.627042 677.657239c7.398761-0.90862 15.36-1.730704 23.941409-2.480676l72.112676-32.320901c-8.581408 0.721127-16.542648 1.557634-23.941409 2.466253l-72.112676 32.335324z" fill="#CECEF9" /><path d="M481.568451 675.176563c8.07662-0.692282 15.619606-1.153803 22.64338-1.384563l72.112676-32.320901c-7.023775 0.230761-14.566761 0.677859-22.64338 1.384563l-72.112676 32.320901z" fill="#CECEF9" /><path d="M504.211831 673.792c20.624225 31.57093 43.18107 54.863324 66.055211 69.228169l72.112676-32.306479c-22.874141-14.39369-45.430986-37.671662-66.055211-69.242591l-72.112676 32.320901z" fill="#CECEF9" /><path d="M570.267042 743.034592c22.441465 14.090817 49.440451 21.893408 72.978028 12.259154l72.112676-32.335323c-23.537577 9.634254-50.536563 1.846085-72.978028-12.259155l-72.112676 32.335324zM643.24507 755.279324l72.112676-32.320901-72.112676 32.320901z" fill="#CECEF9" /><path d="M643.24507 755.279324c12.40338-5.076732 19.730028-15.18693 23.725071-23.263549l72.112676-32.320902c-3.995042 8.07662-11.307268 18.172394-23.725071 23.26355l-72.112676 32.320901zM666.970141 732.015775c4.283493-8.682366 6.634366-18.720451 7.095887-29.119099l72.112676-32.320901a73.122254 73.122254 0 0 1-7.095887 29.119098l-72.112676 32.320902z" fill="#CECEF9" /><path d="M674.066028 702.896676c0.923042-21.489577-6.244958-46.296338-24.186591-67.728225l72.112676-32.335324c17.941634 21.431887 25.095211 46.25307 24.186591 67.742648l-72.112676 32.320901z" fill="#CECEF9" /><path d="M649.879437 635.168451c-22.975099-27.446085-58.411268-43.988732-106.654648-49.498141l72.112676-32.335324c48.24338 5.509408 83.679549 22.066479 106.654648 49.498141l-72.112676 32.335324z" fill="#CECEF9" /><path d="M543.239211 585.67031c-10.816901-19.427155-22.513577-41.580169-33.417014-63.127437l72.112676-32.335324c10.903437 21.56169 22.600113 43.700282 33.417014 63.127437l-72.112676 32.335324zM509.822197 522.528451c10.586141-43.628169 14.379268-77.838423 12.763944-104.707606l72.112676-32.335324c1.615324 26.883606-2.16338 61.093859-12.763944 104.707606l-72.112676 32.335324z" fill="#CECEF9" /><path d="M522.586141 417.820845c-1.298028-21.417465-6.302648-43.080113-18.54738-61.32462l72.112676-32.320901c12.259155 18.230085 17.249352 39.907155 18.54738 61.310197l-72.112676 32.335324z" fill="#CECEF9" /><path d="M504.038761 356.496225c-13.398535-19.946366-31.700732-30.200789-48.935662-32.782422l72.112676-32.320902c17.23493 2.567211 35.537127 12.836056 48.935662 32.782423l-72.112676 32.320901zM610.029972 669.537352l72.112676-32.335324-72.112676 32.335324zM610.029972 669.537352l-0.201916-0.028845 72.112676-32.320901c0.129803 0.014423 0.187493 0.028845 0.201916 0.014422l-72.112676 32.335324z" fill="#CECEF9" /><path d="M609.828056 669.508507c0.144225 0 0.201915 0.028845 0.201916 0.028845l72.112676-32.335324-0.201916-0.014422-72.112676 32.320901z" fill="#CECEF9" /><path d="M204.295211 41.060958C159.181521 34.311211 122.591549 68.752225 122.591549 118.005183v713.266479c0 49.238535 36.589972 94.626254 81.703662 101.376l531.124282 79.367211c45.142535 6.735324 81.718085-27.70569 81.718084-76.958648V351.707944c0-23.652958-8.610254-47.623211-23.941408-66.632113l-119.058028-147.686761c-15.316732-19.023324-36.099606-31.527662-57.776676-34.758309l-412.051831-61.584226z m0 802.426591V130.206648l412.066254 61.584225 119.058028 147.701183v583.362705L204.295211 843.487549z m250.807888-519.773746c-19.225239-2.870085-54.747944-2.148958-70.194479 34.267943-13.066817 30.864225-3.115268 70.973296 13.326422 110.505465 5.480563 14.004282 13.787944 32.537239 23.552 52.988395a1052.585465 1052.585465 0 0 1-14.105239 44.277183c-3.562366 10.384225-6.99493 19.989634-10.312113 28.84507-39.748507 8.07662-67.007099 19.802141-84.660282 35.147718-14.177352 12.331268-23.537577 28.224901-26.032676 47.378029-2.451831 18.662761 2.336451 34.98907 6.807437 45.676169l0.836507 2.004732 1.009578 1.93262c4.932507 9.562141 14.884056 26.652845 31.614197 38.493746 20.638648 14.581183 44.132958 16.124394 64.829295 4.615212 17.739718-9.865014 32.796845-28.744113 46.700169-53.377803 6.20169-10.975549 12.576451-23.840451 19.153127-38.825465 7.398761-0.894197 15.36-1.730704 23.941409-2.451831 8.07662-0.721127 15.619606-1.153803 22.64338-1.398986 20.624225 31.585352 43.18107 54.863324 66.055211 69.228169 22.441465 14.119662 49.440451 21.907831 72.978028 12.259155 12.40338-5.076732 19.730028-15.18693 23.725071-23.263549 4.283493-8.682366 6.634366-18.720451 7.095887-29.119099 0.923042-21.489577-6.244958-46.296338-24.186591-67.728225-22.975099-27.446085-58.411268-43.988732-106.654648-49.498141-10.802479-19.427155-22.499155-41.580169-33.402592-63.141859 10.586141-43.628169 14.379268-77.824 12.763944-104.707606-1.298028-21.417465-6.302648-43.080113-18.54738-61.32462-13.384113-19.946366-31.700732-30.200789-48.935662-32.782422z m154.926873 345.823549l-0.201916-0.028845c0.129803 0 0.201915 0.028845 0.201916 0.028845z" fill="#4E5969" /></svg>