<?xml version="1.0" standalone="no"?><!DOCTYPE svg PUBLIC "-//W3C//DTD SVG 1.1//EN" "http://www.w3.org/Graphics/SVG/1.1/DTD/svg11.dtd"><svg class="icon" width="200px" height="200.00px" viewBox="0 0 1024 1024" version="1.1" xmlns="http://www.w3.org/2000/svg"><path d="M126.639543 38.341486L365.319314 74.020571l73.142857-32.782628L199.7824 5.558857l-73.142857 32.782629z" fill="#CECEF9" /><path d="M365.304686 74.020571l11.922285 15.403886 73.142858-32.797257-11.922286-15.403886-73.142857 32.782629zM565.233371 117.511314l11.907658-11.849143 73.142857-32.782628-11.907657 11.849143-73.142858 32.782628z" fill="#CECEF9" /><path d="M577.141029 105.662171L815.835429 141.326629l73.142857-32.782629-238.679772-35.664457-73.142857 32.782628zM876.617143 218.843429v400.471771l73.142857-32.782629V186.046171l-73.142857 32.797258zM815.8208 678.648686l-40.5504-6.056229 73.142857-32.782628 40.5504 6.056228-73.142857 32.782629z" fill="#CECEF9" /><path d="M775.2704 672.592457v283.7504l73.142857-32.782628V639.809829l-73.142857 32.782628zM714.459429 1015.690971l-486.473143-72.704 73.142857-32.782628 486.487771 72.704-73.142857 32.768zM167.175314 865.4848V581.719771l73.142857-32.782628v283.7504l-73.142857 32.797257z" fill="#CECEF9" /><path d="M167.175314 581.719771l-40.535771-6.056228 73.142857-32.782629 40.535771 6.056229-73.142857 32.782628zM65.828571 498.161371V97.674971l73.142858-32.782628v400.471771l-73.142858 32.797257zM65.828571 97.674971l73.142858-32.782628-73.142858 32.782628zM146.900114 132.608v354.859886l73.142857-32.797257V99.810743l-73.142857 32.797257zM146.900114 487.467886l101.361372 15.140571 73.142857-32.782628-101.346743-15.140572-73.142857 32.782629z" fill="#CECEF9" /><path d="M248.246857 502.608457v352.182857l73.142857-32.797257V469.825829l-73.142857 32.782628z" fill="#CECEF9" /><path d="M248.246857 854.791314l445.952 66.633143 73.142857-32.782628L321.389714 821.979429l-73.142857 32.797257z" fill="#CECEF9" /><path d="M694.198857 921.424457V569.2416l73.142857-32.782629v352.182858l-73.142857 32.782628z" fill="#CECEF9" /><path d="M694.198857 569.2416l101.346743 15.1552 73.142857-32.797257-101.346743-15.140572-73.142857 32.782629z" fill="#CECEF9" /><path d="M795.5456 584.3968V229.522286l73.142857-32.782629v354.859886l-73.142857 32.797257z" fill="#CECEF9" /><path d="M795.5456 229.522286L610.450286 201.874286l73.142857-32.797257 185.095314 27.662628-73.142857 32.797257zM331.995429 160.256L146.900114 132.608l73.142857-32.797257 185.095315 27.648-73.142857 32.797257zM146.900114 132.608l73.142857-32.797257-73.142857 32.797257zM65.828571 97.674971C65.828571 71.9872 78.409143 51.492571 97.031314 42.569143l73.142857-32.782629C151.566629 18.695314 138.971429 39.189943 138.971429 64.892343L65.828571 97.674971z" fill="#CECEF9" /><path d="M97.031314 42.569143a50.570971 50.570971 0 0 1 29.608229-4.227657l73.142857-32.782629a50.570971 50.570971 0 0 0-29.608229 4.213029l-73.142857 32.797257zM377.226971 89.424457c23.274057 30.1056 58.923886 64.936229 94.0032 70.173257l73.142858-32.782628c-35.079314-5.251657-70.729143-40.082286-94.0032-70.187886l-73.142858 32.797257z" fill="#CECEF9" /><path d="M471.230171 159.597714c15.433143 2.311314 30.983314-1.082514 45.524115-7.562971l73.142857-32.797257c-14.5408 6.495086-30.090971 9.874286-45.524114 7.5776l-73.142858 32.782628z" fill="#CECEF9" /><path d="M516.754286 152.034743c18.5344-8.265143 35.445029-21.547886 48.479085-34.523429l73.142858-32.782628c-13.034057 12.960914-29.944686 26.243657-48.479086 34.523428l-73.142857 32.768zM815.8208 141.326629c33.5872 5.0176 60.810971 39.716571 60.810971 77.5168l73.142858-32.797258c0-37.7856-27.223771-72.484571-60.810972-77.502171l-73.142857 32.782629zM876.631771 619.3152c0 25.7024-12.580571 46.197029-31.217371 55.120457l73.142857-32.797257c18.622171-8.923429 31.217371-29.403429 31.217372-55.120457l-73.142858 32.797257z" fill="#CECEF9" /><path d="M845.4144 674.435657a50.5856 50.5856 0 0 1-29.5936 4.213029l73.142857-32.782629a50.570971 50.570971 0 0 0 29.5936-4.227657l-73.142857 32.797257zM775.285029 956.357486c0 25.687771-12.5952 46.197029-31.217372 55.105828l73.142857-32.782628c18.622171-8.923429 31.217371-29.418057 31.217372-55.120457l-73.142857 32.797257z" fill="#CECEF9" /><path d="M744.067657 1011.463314a50.570971 50.570971 0 0 1-29.5936 4.227657l73.142857-32.797257a50.5856 50.5856 0 0 0 29.5936-4.213028l-73.142857 32.782628zM227.986286 942.986971c-33.5872-5.0176-60.810971-39.716571-60.810972-77.502171l73.142857-32.797257c0 37.800229 27.223771 72.4992 60.810972 77.5168l-73.142857 32.782628zM126.639543 575.663543C93.037714 570.660571 65.828571 535.946971 65.828571 498.161371l73.142858-32.797257c0 37.7856 27.223771 72.4992 60.810971 77.5168l-73.142857 32.782629zM610.450286 201.874286c-14.014171 12.273371-32.782629 26.112-55.178972 36.191085l73.142857-32.782628c22.381714-10.093714 41.1648-23.932343 55.178972-36.205714l-73.142857 32.797257z" fill="#CECEF9" /><path d="M555.271314 238.065371c-24.2688 10.927543-52.765257 17.437257-84.041143 12.770743l73.142858-32.797257c31.275886 4.681143 59.786971-1.828571 84.041142-12.756114l-73.142857 32.782628zM471.230171 250.836114c-60.152686-8.996571-110.036114-56.276114-139.234742-90.565485l73.142857-32.797258c29.198629 34.289371 79.082057 81.583543 139.234743 90.565486l-73.142858 32.797257z" fill="#CECEF9" /><path d="M65.828571 97.674971c0-37.7856 27.223771-64.351086 60.810972-59.333485L365.319314 74.020571l11.907657 15.418515c23.274057 30.1056 58.923886 64.936229 94.0032 70.173257 35.079314 5.237029 70.729143-18.929371 94.0032-42.0864l11.907658-11.849143L815.835429 141.326629c33.5872 5.0176 60.810971 39.716571 60.810971 77.5168v400.471771c0 37.7856-27.223771 64.365714-60.810971 59.333486l-40.5504-6.056229v283.7504c0 37.800229-27.209143 64.365714-60.810972 59.348114l-486.473143-72.704c-33.5872-5.0176-60.810971-39.716571-60.810971-77.502171V581.719771l-40.535772-6.056228C93.037714 570.660571 65.828571 535.946971 65.828571 498.161371V97.674971z m81.086172 34.933029v354.859886l101.346743 15.140571v352.182857l445.937371 66.633143V569.2416l101.346743 15.1552V229.522286L610.450286 201.874286c-29.184 25.556114-79.067429 57.943771-139.220115 48.961828-60.152686-8.996571-110.036114-56.276114-139.234742-90.580114L146.914743 132.608z" fill="#4E5969" /></svg>