<?xml version="1.0" standalone="no"?><!DOCTYPE svg PUBLIC "-//W3C//DTD SVG 1.1//EN" "http://www.w3.org/Graphics/SVG/1.1/DTD/svg11.dtd"><svg class="icon" width="200px" height="200.00px" viewBox="0 0 1024 1024" version="1.1" xmlns="http://www.w3.org/2000/svg"><path d="M406.312389 45.831063v126.19833l77.574582-34.768927V11.062135l-77.574582 34.768928zM417.638278 186.349661l113.134771 16.911259 77.574582-34.784442-113.150286-16.911259-77.574582 34.784442z" fill="#CECEF9" /><path d="M542.098938 192.322904V66.124574l77.574582-34.784443v126.213845l-77.574582 34.768928zM530.773049 51.819821l-113.150286-16.911259 77.574582-34.784443 113.150286 16.911259-77.574582 34.784443zM417.638278 34.908562l77.574582-34.784443-77.574582 34.784443zM406.312389 853.506583v126.213845l77.574582-34.784442V818.737655l-77.574582 34.768928zM417.638278 994.025181l113.134771 16.911259 77.574582-34.784442-113.150286-16.911259-77.574582 34.784442z" fill="#CECEF9" /><path d="M542.098938 999.998424V873.815609l77.574582-34.768928v126.19833l-77.574582 34.768928zM530.773049 859.495341l-113.150286-16.911259 77.574582-34.768928 113.150286 16.911259-77.574582 34.753413zM417.638278 842.584082l77.574582-34.768928-77.574582 34.768928zM904.170543 524.062848v126.19833l77.574582-34.768928v-126.19833l-77.574582 34.768928z" fill="#CECEF9" /><path d="M892.844654 661.199194l-113.134771-16.911259 77.574582-34.768928 113.134771 16.911259-77.574582 34.753413zM768.383994 629.983182V503.784852l77.574582-34.784443v126.19833l-77.574582 34.784443z" fill="#CECEF9" /><path d="M779.709883 492.846836l113.134771 16.911259 77.574582-34.768928-113.134771-16.911259-77.574582 34.768928zM892.844654 509.758095l77.574582-34.768928-77.574582 34.768928zM168.701444 401.541552L55.551158 384.630293l77.574583-34.753412 113.150285 16.895744-77.574582 34.784442z" fill="#CECEF9" /><path d="M44.240784 395.56831v126.19833l77.574582-34.768928v-126.19833l-77.574582 34.768928zM55.551158 536.086908l113.150286 16.911259 77.574582-34.784443-113.150285-16.911259-77.574583 34.784443z" fill="#CECEF9" /><path d="M180.011818 542.060151v-126.198331l77.574582-34.784442v126.213845l-77.574582 34.768928zM180.011818 415.86182l77.574582-34.784442-77.574582 34.784442zM818.233421 868.804291l-80.010424 77.279799 77.574582-34.768928 80.010424-77.279799-77.574582 34.768928z" fill="#CECEF9" /><path d="M722.227118 943.694793l-80.010424-101.188286 77.574582-34.768927 80.010424 101.188285-77.574582 34.768928zM642.216694 824.664354l80.010424-77.279799 77.574582-34.784443-80.010424 77.279799-77.574582 34.784443z" fill="#CECEF9" /><path d="M738.222997 749.773852l80.010424 101.188285 77.574582-34.768928-80.010424-101.2038-77.574582 34.784443zM818.233421 850.962137l77.574582-34.768928-77.574582 34.768928zM306.194633 203.32298l-80.010424-101.188285 77.574583-34.768928 80.010424 101.188285-77.574583 34.784443z" fill="#CECEF9" /><path d="M210.172816 99.745398L130.177906 177.040712l77.574583-34.768928 79.994909-77.279799-77.574582 34.768928zM130.177906 194.882865l79.99491 101.188285 77.574582-34.784442-79.994909-101.188285-77.574583 34.784442z" fill="#CECEF9" /><path d="M226.184209 298.460448l80.010424-77.279799 77.574583-34.784443-80.010424 77.279799-77.574583 34.784443z" fill="#CECEF9" /><path d="M306.194633 221.180649l77.574583-34.784443-77.574583 34.784443zM210.18833 867.19074L130.177906 765.98694l77.574583-34.768928 80.010424 101.188285-77.574583 34.784443zM130.177906 748.144786l80.010424-77.279799 77.574583-34.768928-80.010424 77.264284-77.574583 34.784443z" fill="#CECEF9" /><path d="M226.184209 673.254284l80.010424 101.188285 77.574583-34.768928-80.010424-101.188285-77.574583 34.768928zM306.194633 792.300238l-80.010424 77.264284 77.574583-34.753413 80.010424-77.295314-77.574583 34.784443zM226.184209 869.580037l77.574583-34.784443-77.574583 34.784443zM738.238512 374.980015l80.010424-77.279798 77.574582-34.784443-80.010424 77.279799-77.574582 34.784442zM818.248936 279.842548l-80.010424-101.188285 77.574582-34.768928 80.010424 101.188285-77.574582 34.768928z" fill="#CECEF9" /><path d="M722.227118 176.264966l-79.994909 77.279798 77.574582-34.768927 80.010424-77.295314-77.574582 34.784443zM642.232209 271.386918l80.010424 101.2038 77.574582-34.784442-80.010424-101.188285-77.574582 34.768927zM722.227118 372.590718l77.574582-34.784442-77.574582 34.784442zM474.205664 750.08415l77.574582-34.784442-77.574582 34.784442zM417.638278 34.908562a9.557189 9.557189 0 0 0-4.887198 0.496477l77.574582-34.768927a9.557189 9.557189 0 0 1 4.871683-0.511993l-77.574582 34.784443z" fill="#CECEF9" /><path d="M412.75108 35.405039c-3.816669 1.473917-6.43869 5.414706-6.438691 10.426024l77.574582-34.768928c0-5.026833 2.637536-8.967622 6.438691-10.426023l-77.574582 34.768927zM406.312389 172.029393c0 6.981712 5.073378 13.389373 11.325889 14.320268l77.574582-34.784442c-6.252511-0.930895-11.325889-7.338555-11.325889-14.304753l-77.574582 34.768927zM530.773049 203.26092c1.753186 0.248239 3.413282 0.06206 4.887199-0.511992l77.574582-34.768928a9.572703 9.572703 0 0 1-4.887199 0.496478l-77.574582 34.784442z" fill="#CECEF9" /><path d="M535.660248 202.748928c3.801155-1.458402 6.43869-5.399191 6.43869-10.426024l77.574582-34.768928c0 5.011318-2.637536 8.952107-6.43869 10.426024l-77.574582 34.768928zM542.098938 66.124574c0-6.981712-5.073378-13.373858-11.325889-14.304753l77.574582-34.784443c6.252511 0.930895 11.325889 7.338555 11.325889 14.320268l-77.574582 34.768928zM417.638278 842.584082a9.572703 9.572703 0 0 0-4.887198 0.511992l77.574582-34.784442a9.541674 9.541674 0 0 1 4.871683-0.496478l-77.574582 34.768928z" fill="#CECEF9" /><path d="M412.75108 843.096074c-3.816669 1.458402-6.43869 5.399191-6.438691 10.426024l77.574582-34.784443c0-5.011318 2.637536-8.952107 6.438691-10.426023l-77.574582 34.784442zM406.312389 979.720428c0 6.966197 5.073378 13.373858 11.325889 14.304753l77.574582-34.768927c-6.252511-0.930895-11.325889-7.35407-11.325889-14.320268l-77.574582 34.784442zM530.773049 1010.93644c1.753186 0.263754 3.413282 0.06206 4.887199-0.511992l77.574582-34.768928a9.572703 9.572703 0 0 1-4.887199 0.496478l-77.574582 34.784442z" fill="#CECEF9" /><path d="M535.660248 1010.424448c3.801155-1.458402 6.43869-5.399191 6.43869-10.426024l77.574582-34.768927c0 5.011318-2.637536 8.952107-6.43869 10.426023l-77.574582 34.768928zM542.098938 873.815609c0-6.981712-5.073378-13.389373-11.325889-14.320268l77.574582-34.784443c6.252511 0.930895 11.325889 7.35407 11.325889 14.320268l-77.574582 34.768928zM892.844654 509.758095c6.252511 0.930895 11.325889 7.338555 11.325889 14.304753l77.574582-34.768928c0-6.981712-5.073378-13.373858-11.325889-14.320268l-77.574582 34.784443zM904.170543 650.261178c0 4.747564-2.342752 8.533204-5.802579 10.16227l77.574582-34.768928c3.459826-1.644581 5.802579-5.430221 5.802579-10.16227l-77.574582 34.768928z" fill="#CECEF9" /><path d="M898.367964 660.423448a9.464099 9.464099 0 0 1-5.52331 0.775746l77.574582-34.784443c2.016939 0.310298 3.878729 0 5.52331-0.775746l-77.574582 34.784443zM779.709883 644.287935c-6.252511-0.930895-11.325889-7.338555-11.325889-14.304753l77.574582-34.784443c0 6.981712 5.073378 13.373858 11.325889 14.320268l-77.574582 34.768928zM768.383994 503.784852c0-4.747564 2.342752-8.533204 5.818094-10.162271l77.574582-34.784442c-3.475341 1.644581-5.818094 5.430221-5.818094 10.16227l-77.574582 34.784443z" fill="#CECEF9" /><path d="M774.202088 493.622581a9.464099 9.464099 0 0 1 5.507795-0.775745l77.574582-34.768928a9.479614 9.479614 0 0 0-5.507795 0.775746l-77.574582 34.753413zM180.011818 415.86182c0-6.981712-5.057863-13.373858-11.310374-14.304753l77.574582-34.784442c6.252511 0.930895 11.325889 7.338555 11.325889 14.304753l-77.574582 34.784442zM55.551158 384.630293a9.557189 9.557189 0 0 0-4.887198 0.511993l77.574582-34.768928a9.557189 9.557189 0 0 1 4.887199-0.511992l-77.574583 34.784442z" fill="#CECEF9" /><path d="M50.66396 385.142286c-3.801155 1.473917-6.423175 5.414706-6.423176 10.426024l77.574582-34.768928c0-5.026833 2.637536-8.967622 6.423176-10.426024l-77.574582 34.768928zM44.240784 521.782155c0 6.950683 5.073378 13.358343 11.325889 14.304753l77.574582-34.784443c-6.252511-0.930895-11.325889-7.338555-11.325889-14.304753l-77.574582 34.768928zM168.701444 552.982652c1.753186 0.263754 3.413282 0.077575 4.887199-0.496478l77.574582-34.784442a9.572703 9.572703 0 0 1-4.887199 0.511992l-77.574582 34.768928z" fill="#CECEF9" /><path d="M173.588643 552.486174c3.801155-1.473917 6.423175-5.414706 6.423175-10.426023l77.574582-34.768928c0 5.011318-2.622021 8.952107-6.423175 10.426024l-77.574582 34.753413zM818.233421 850.962137c4.421751 5.58537 4.421751 13.575552 0 17.842154l77.574582-34.768928c4.421751-4.266602 4.421751-12.256784 0-17.842154l-77.574582 34.768928zM738.222997 946.08409a9.33998 9.33998 0 0 1-2.311723 1.644581l77.574582-34.768928a9.33998 9.33998 0 0 0 2.327238-1.644581l-77.574582 34.768928z" fill="#CECEF9" /><path d="M735.911274 947.728671c-4.328662 2.172088-9.976091 0.667141-13.684156-4.033878l77.574582-34.768928c3.72358 4.70102 9.355495 6.205967 13.699671 4.033878l-77.574582 34.768928zM642.216694 842.506507c-4.421751-5.58537-4.421751-13.575552 0-17.842153l77.574582-34.784443c-4.421751 4.266602-4.421751 12.256784 0 17.842154l-77.574582 34.784442zM722.227118 747.36904a9.30895 9.30895 0 0 1 2.311722-1.629066l77.574583-34.784443a9.33998 9.33998 0 0 0-2.311723 1.644581l-77.574582 34.784443z" fill="#CECEF9" /><path d="M724.53884 745.739974c4.344177-2.172088 9.976091-0.667141 13.684157 4.033878l77.574582-34.784443c-3.708065-4.685505-9.355495-6.205967-13.684156-4.033878l-77.574583 34.784443zM306.194633 221.180649c4.406236-4.266602 4.406236-12.256784 0-17.842154l77.574583-34.784443c4.406236 5.58537 4.406236 13.575552 0 17.842154l-77.574583 34.784443zM226.184209 102.134695c-3.537401-4.468296-8.843502-6.050817-13.063559-4.313147l77.574582-34.768928c4.235572-1.737671 9.526159-0.155149 13.06356 4.313147l-77.574583 34.768928z" fill="#CECEF9" /><path d="M213.12065 97.821548a9.24689 9.24689 0 0 0-2.947834 1.92385l77.574582-34.768928a9.24689 9.24689 0 0 1 2.947834-1.92385l-77.574582 34.768928zM130.177906 177.040712c-4.421751 4.251087-4.421751 12.256784 0 17.842153l77.574583-34.784442c-4.421751-5.58537-4.421751-13.575552 0-17.842154l-77.574583 34.768928zM210.172816 296.07115c3.537401 4.468296 8.843502 6.050817 13.079074 4.313147l77.574582-34.768928c-4.251087 1.722156-9.541674 0.155149-13.079074-4.328661l-77.574582 34.784442z" fill="#CECEF9" /><path d="M223.25189 300.384297a9.262405 9.262405 0 0 0 2.932319-1.923849l77.574583-34.784443a9.231375 9.231375 0 0 1-2.947835 1.939364l-77.574582 34.768928zM226.184209 869.580037a9.30895 9.30895 0 0 1-2.311722 1.644581l77.574582-34.784443a9.33998 9.33998 0 0 0 2.327237-1.644581l-77.574582 34.784443z" fill="#CECEF9" /><path d="M223.888002 871.224618c-4.344177 2.172088-9.991606 0.651626-13.699672-4.033878l77.574583-34.784443c3.708065 4.70102 9.355495 6.205967 13.684156 4.033878l-77.574582 34.784443zM130.177906 765.98694c-4.421751-5.58537-4.421751-13.575552 0-17.842154l77.574583-34.768928c-4.421751 4.266602-4.421751 12.256784 0 17.842154l-77.574583 34.784443zM210.18833 670.864987a9.33998 9.33998 0 0 1 2.311723-1.644581l77.574582-34.768928a9.33998 9.33998 0 0 0-2.327237 1.644581l-77.574582 34.768928z" fill="#CECEF9" /><path d="M212.500053 669.220406c4.328662-2.172088 9.976091-0.651626 13.684156 4.033878l77.574583-34.768928c-3.72358-4.70102-9.355495-6.205967-13.684157-4.033878l-77.574582 34.768928zM306.194633 774.442569c4.421751 5.58537 4.421751 13.591067 0 17.842154l77.574583-34.753413c4.421751-4.282117 4.421751-12.256784 0-17.857669l-77.574583 34.768928zM722.227118 372.590718c3.537401 4.468296 8.843502 6.050817 13.079074 4.313147l77.574583-34.784443c-4.251087 1.737671-9.541674 0.155149-13.079075-4.313146l-77.574582 34.784442z" fill="#CECEF9" /><path d="M735.290677 376.903865a9.27792 9.27792 0 0 0 2.947835-1.92385l77.574582-34.784442a9.231375 9.231375 0 0 1-2.947834 1.939364l-77.574583 34.768928zM818.248936 297.700217c4.406236-4.266602 4.406236-12.256784 0-17.842154l77.574582-34.784443c4.406236 5.58537 4.406236 13.575552 0 17.842154l-77.574582 34.784443zM738.238512 178.654263c-3.537401-4.468296-8.843502-6.050817-13.06356-4.313147l77.574582-34.784443c4.235572-1.722156 9.526159-0.155149 13.06356 4.328662l-77.574582 34.768928z" fill="#CECEF9" /><path d="M725.174952 174.341116a9.231375 9.231375 0 0 0-2.947834 1.92385l77.574582-34.768928a9.262405 9.262405 0 0 1 2.947834-1.939365l-77.574582 34.784443zM642.232209 253.544764c-4.421751 4.266602-4.421751 12.256784 0 17.842154l77.574582-34.768927c-4.421751-5.58537-4.421751-13.575552 0-17.842154l-77.574582 34.768927zM474.205664 750.08415c31.49528 4.70102 61.31495 1.179134 87.938546-9.076226l77.574582-34.768928c-26.623597 10.239845-56.443266 13.777246-87.938546 9.060712l-77.574582 34.784442z" fill="#CECEF9" /><path d="M562.14421 741.007924c68.451811-26.375358 115.725762-97.325071 115.725762-187.652914l77.574582-34.784443c0 90.327844-47.27395 161.293071-115.725762 187.668429l-77.574582 34.768928z" fill="#CECEF9" /><path d="M677.869972 553.35501c0-125.453614-91.181164-240.791503-203.664308-257.594158l77.574582-34.784443c112.483144 16.818169 203.664308 132.140543 203.664308 257.594158l-77.574582 34.784443z" fill="#CECEF9" /><path d="M474.205664 295.760852c-31.49528-4.70102-61.31495-1.194649-87.938547 9.060711l77.574582-34.768927c26.623597-10.25536 56.443266-13.777246 87.938547-9.076227l-77.574582 34.784443z" fill="#CECEF9" /><path d="M386.267117 304.821563c-68.467326 26.375358-115.741277 97.340586-115.741276 187.66843l77.574582-34.784443c0-90.327844 47.27395-161.277556 115.741276-187.652914l-77.574582 34.768927zM270.541355 492.489993c0 125.453614 91.181164 240.791503 203.664309 257.594157l77.574582-34.784442c-112.483144-16.802655-203.664308-132.140543-203.664308-257.594158l-77.574583 34.784443z" fill="#CECEF9" /><path d="M417.638278 34.908562c-6.252511-0.930895-11.325889 3.956304-11.325889 10.922501v126.19833c0 6.981712 5.073378 13.389373 11.325889 14.320268l113.134771 16.911259c6.252511 0.930895 11.325889-3.971819 11.325889-10.938016V66.124574c0-6.981712-5.073378-13.373858-11.325889-14.304753l-113.150286-16.911259z m0 807.67552c-6.252511-0.930895-11.325889 3.956304-11.325889 10.938016v126.19833c0 6.966197 5.073378 13.373858 11.325889 14.304753l113.134771 16.911259c6.252511 0.930895 11.325889-3.956304 11.325889-10.938016V873.815609c0-6.966197-5.073378-13.373858-11.325889-14.304753l-113.150286-16.911259z m475.221891-332.825987c6.236996 0.930895 11.310374 7.338555 11.310374 14.304753v126.19833c0 6.981712-5.073378 11.868911-11.325889 10.938016l-113.134771-16.911259c-6.252511-0.930895-11.325889-7.338555-11.325889-14.304753V503.784852c0-6.981712 5.073378-11.868911 11.325889-10.938016l113.134771 16.911259zM179.996303 415.86182c0-6.981712-5.057863-13.373858-11.310374-14.304753L55.551158 384.630293c-6.236996-0.930895-11.310374 3.956304-11.310374 10.922502v126.19833c0 6.981712 5.073378 13.389373 11.325889 14.320268l113.134771 16.911259c6.252511 0.930895 11.325889-3.971819 11.325889-10.938016v-126.198331z m638.221603 435.100317c4.421751 5.58537 4.421751 13.575552 0 17.842154l-80.010424 77.279799c-4.406236 4.282117-11.574128 3.211588-15.995879-2.389297l-80.010424-101.188286c-4.421751-5.58537-4.421751-13.575552 0-17.842153l80.010424-77.279799c4.421751-4.266602 11.589643-3.196073 15.995879 2.389297l80.010424 101.188285zM306.194633 221.180649c4.406236-4.266602 4.406236-12.256784 0-17.842154l-80.010424-101.2038c-4.421751-5.58537-11.589643-6.655899-16.011393-2.389297L130.177906 177.040712c-4.421751 4.266602-4.421751 12.256784 0 17.842153l79.99491 101.2038c4.421751 5.58537 11.589643 6.671414 16.011393 2.389297l80.010424-77.279798z m-80.010424 648.399388c-4.421751 4.266602-11.574128 3.196073-15.995879-2.389297L130.177906 765.98694c-4.421751-5.58537-4.421751-13.575552 0-17.842154l80.010424-77.279799c4.421751-4.266602 11.574128-3.196073 15.995879 2.389297l80.010424 101.188285c4.421751 5.58537 4.421751 13.591067 0 17.842154l-80.010424 77.295314zM722.227118 372.590718c4.421751 5.58537 11.589643 6.655899 16.011394 2.389297l80.010424-77.279798c4.406236-4.266602 4.406236-12.256784 0-17.842154l-80.010424-101.2038c-4.421751-5.58537-11.589643-6.671414-16.011394-2.389297l-79.994909 77.279798c-4.421751 4.266602-4.421751 12.256784 0 17.842154l80.010424 101.2038z m-248.021454 377.477917c112.483144 16.818169 203.664308-71.260011 203.664308-196.72914 0-125.438099-91.181164-240.775988-203.664308-257.578643-112.483144-16.802655-203.664308 71.260011-203.664309 196.729141 0 125.453614 91.181164 240.791503 203.664309 257.594157z" fill="#4E5969" /></svg>