<?xml version="1.0" standalone="no"?><!DOCTYPE svg PUBLIC "-//W3C//DTD SVG 1.1//EN" "http://www.w3.org/Graphics/SVG/1.1/DTD/svg11.dtd"><svg class="icon" width="200px" height="200.00px" viewBox="0 0 1024 1024" version="1.1" xmlns="http://www.w3.org/2000/svg"><path d="M228.799099 82.612282V35.681352l72.112676-32.335324v46.93093l-72.112676 32.335324z" fill="#CECEF9" /><path d="M228.799099 35.681352l81.285408 12.143775 72.112676-32.320902-81.285408-12.158197-72.112676 32.335324z" fill="#CECEF9" /><path d="M310.084507 47.825127V94.756056l72.112676-32.335324V15.504225l-72.112676 32.320902z" fill="#CECEF9" /><path d="M310.084507 94.756056l325.184901 48.589521 72.112677-32.335323L382.197183 62.420732l-72.112676 32.335324z" fill="#CECEF9" /><path d="M635.254986 143.345577V96.414648l72.112676-32.320902v46.916508l-72.112676 32.335323z" fill="#CECEF9" /><path d="M635.254986 96.414648l81.299831 12.143775 72.112676-32.320902-81.299831-12.143775-72.112676 32.320902z" fill="#CECEF9" /><path d="M716.554817 108.558423v46.930929l72.112676-32.320901V76.237521l-72.112676 32.320902z" fill="#CECEF9" /><path d="M716.554817 155.489352l81.285408 12.143775 72.112676-32.320902-81.285408-12.143774-72.112676 32.320901zM858.818704 247.144563V951.021972l72.112676-32.320902V214.809239l-72.112676 32.335324zM797.854648 1012.303324L147.484845 915.124282l72.112676-32.335324 650.340958 97.193465-72.112676 32.320901zM86.535211 835.627268V131.735437l72.112676-32.320902v703.877409L86.535211 835.64169zM147.499268 70.454085l81.299831 12.158197 72.112676-32.335324-81.299831-12.143775-72.112676 32.320902zM228.799099 82.612282l72.112676-32.335324-72.112676 32.335324zM228.799099 176.459718l-60.978479-9.115042 72.112676-32.320901 60.978479 9.100619-72.112676 32.335324z" fill="#CECEF9" /><path d="M167.82062 167.344676v211.160338l72.112676-32.320901V135.023775l-72.112676 32.320901zM167.82062 378.519437l609.698253 91.107155 72.112676-32.335324-609.683831-91.107155-72.112676 32.335324z" fill="#CECEF9" /><path d="M777.518873 469.626592V258.451831l72.112676-32.320901V437.291268l-72.112676 32.335324zM777.518873 258.451831l-60.964056-9.115042 72.112676-32.320902 60.964056 9.115043-72.112676 32.320901z" fill="#CECEF9" /><path d="M716.554817 249.336789v46.930929l72.112676-32.335324v-46.916507l-72.112676 32.320902z" fill="#CECEF9" /><path d="M716.554817 296.267718l-81.299831-12.143774 72.112676-32.335324 81.299831 12.158197-72.112676 32.306479zM635.254986 284.123944v-46.93093l72.112676-32.320901v46.916507l-72.112676 32.335324z" fill="#CECEF9" /><path d="M635.269408 237.193014L310.084507 188.603493l72.112676-32.320901 325.170479 48.589521-72.112676 32.320901z" fill="#CECEF9" /><path d="M310.084507 188.603493v46.93093l72.112676-32.335324v-46.916507l-72.112676 32.320901z" fill="#CECEF9" /><path d="M310.084507 235.52l-81.285408-12.129352 72.112676-32.335324 81.285408 12.143775-72.112676 32.335324z" fill="#CECEF9" /><path d="M228.799099 223.390648v-46.93093l72.112676-32.335324v46.93093l-72.112676 32.335324zM228.799099 176.459718l72.112676-32.335324-72.112676 32.335324zM777.518873 563.474028L167.82062 472.366873l72.112676-32.335324 609.698253 91.107155-72.112676 32.335324z" fill="#CECEF9" /><path d="M167.82062 472.366873v351.938704l72.112676-32.320901V440.031549l-72.112676 32.335324zM167.82062 824.305577l609.698253 91.107155 72.112676-32.320901-609.683831-91.107155-72.112676 32.320901z" fill="#CECEF9" /><path d="M777.518873 915.412732V563.488451l72.112676-32.335324V883.091831l-72.112676 32.320901zM777.518873 563.474028l72.112676-32.335324-72.112676 32.335324zM797.854648 167.633127c33.662197 5.047887 60.964056 40.628282 60.964056 79.497014l72.112676-32.320902c0-38.868732-27.301859-74.463549-60.978479-79.497014l-72.112676 32.320902zM858.818704 951.021972c0 26.436507-12.619718 47.594366-31.296901 56.824789l72.112676-32.320902c18.677183-9.244845 31.296901-30.388282 31.296901-56.824789l-72.112676 32.320902z" fill="#CECEF9" /><path d="M827.521803 1007.846761c-8.783324 4.355606-18.893521 6.057465-29.681578 4.456563l72.112676-32.320901a49.627944 49.627944 0 0 0 29.681578-4.470986l-72.112676 32.335324zM147.499268 915.109859C113.83707 910.105239 86.535211 874.510423 86.535211 835.64169l72.112676-32.335324c0 38.883155 27.301859 74.477972 60.964057 79.497014l-72.112676 32.335324zM86.535211 131.735437c0-26.436507 12.619718-47.579944 31.296902-56.824789l72.112676-32.320902C171.253183 51.820169 158.647887 72.978028 158.647887 99.414535L86.535211 131.735437z" fill="#CECEF9" /><path d="M117.832113 74.910648a49.642366 49.642366 0 0 1 29.667155-4.456563l72.112676-32.320902a49.642366 49.642366 0 0 0-29.681578 4.456563l-72.112676 32.320902z" fill="#CECEF9" /><path d="M228.799099 82.612282V35.681352l81.285408 12.143775V94.756056l325.170479 48.589521V96.414648l81.299831 12.143775v46.930929l81.285408 12.143775c33.67662 5.047887 60.978479 40.628282 60.978479 79.511436V951.021972c0 38.883155-27.301859 66.314817-60.978479 61.281352L147.499268 915.109859C113.83707 910.090817 86.535211 874.496 86.535211 835.627268V131.735437c0-38.868732 27.301859-66.314817 60.964057-61.281352l81.299831 12.158197z m0 93.847436l-60.978479-9.115042v211.160338l609.698253 91.121578V258.451831l-60.964056-9.115042v46.930929l-81.299831-12.143774v-46.93093L310.084507 188.603493v46.93093l-81.285408-12.143775v-46.93093zM777.518873 563.474028L167.835042 472.366873v351.938704l609.683831 91.107155V563.488451z" fill="#4E5969" /></svg>