<?xml version="1.0" standalone="no"?><!DOCTYPE svg PUBLIC "-//W3C//DTD SVG 1.1//EN" "http://www.w3.org/Graphics/SVG/1.1/DTD/svg11.dtd"><svg class="icon" width="200px" height="200.00px" viewBox="0 0 1024 1024" version="1.1" xmlns="http://www.w3.org/2000/svg"><path d="M80.457143 43.885714l248.042057 37.0688 73.142857-32.797257L153.6 11.117714 80.457143 43.885714z" fill="#CECEF9" /><path d="M328.4992 80.954514v90.7264l73.142857-32.782628V48.157257l-73.142857 32.797257z" fill="#CECEF9" /><path d="M328.4992 171.680914l-165.361371-24.722285 73.142857-32.768 165.361371 24.707657-73.142857 32.768z" fill="#CECEF9" /><path d="M163.137829 146.973257V328.411429l73.142857-32.782629V114.176l-73.142857 32.797257z" fill="#CECEF9" /><path d="M163.137829 328.426057L80.457143 316.079543l73.142857-32.797257 82.680686 12.361143-73.142857 32.782628z" fill="#CECEF9" /><path d="M80.457143 316.079543V43.885714L153.6 11.103086v272.1792l-73.142857 32.797257zM80.457143 43.885714L153.6 11.103086 80.457143 43.885714zM783.242971 239.630629l-165.361371-24.722286 73.142857-32.768 165.361372 24.707657-73.142858 32.782629z" fill="#CECEF9" /><path d="M617.8816 214.922971V124.196571l73.142857-32.797257v90.7264l-73.142857 32.797257z" fill="#CECEF9" /><path d="M617.8816 124.196571l248.042057 37.054172 73.142857-32.782629-248.042057-37.0688-73.142857 32.797257z" fill="#CECEF9" /><path d="M865.923657 161.250743V433.444571l73.142857-32.782628V128.468114l-73.142857 32.782629z" fill="#CECEF9" /><path d="M865.923657 433.444571l-82.680686-12.346514 73.142858-32.797257 82.680685 12.361143-73.142857 32.782628z" fill="#CECEF9" /><path d="M783.242971 421.098057V239.616l73.142858-32.782629v181.4528l-73.142858 32.797258zM783.242971 239.630629l73.142858-32.782629-73.142858 32.782629zM865.923657 637.586286L80.457143 520.221257l73.142857-32.797257 785.466514 117.379657-73.142857 32.782629z" fill="#CECEF9" /><path d="M80.457143 520.221257V429.494857l73.142857-32.797257v90.7264l-73.142857 32.797257z" fill="#CECEF9" /><path d="M80.457143 429.494857l785.466514 117.365029 73.142857-32.797257L153.6 396.712229 80.457143 429.494857z" fill="#CECEF9" /><path d="M865.923657 546.859886v90.7264l73.142857-32.782629V514.048l-73.142857 32.797257zM865.923657 637.586286l73.142857-32.782629-73.142857 32.782629zM163.137829 827.450514V645.983086l73.142857-32.782629v181.4528l-73.142857 32.797257z" fill="#CECEF9" /><path d="M163.137829 645.997714L80.457143 633.621943l73.142857-32.797257 82.680686 12.361143-73.142857 32.782628z" fill="#CECEF9" /><path d="M80.457143 633.636571v272.193829l73.142857-32.797257V600.839314l-73.142857 32.797257z" fill="#CECEF9" /><path d="M80.457143 905.8304l248.042057 37.054171 73.142857-32.782628L153.6 873.033143l-73.142857 32.797257z" fill="#CECEF9" /><path d="M328.4992 942.884571v-90.7264l73.142857-32.797257v90.741029l-73.142857 32.782628z" fill="#CECEF9" /><path d="M328.4992 852.158171l-165.361371-24.722285 73.142857-32.768 165.361371 24.693028-73.142857 32.797257z" fill="#CECEF9" /><path d="M163.137829 827.450514l73.142857-32.797257-73.142857 32.797257zM783.242971 920.107886V738.640457l73.142858-32.768v181.4528l-73.142858 32.782629z" fill="#CECEF9" /><path d="M783.242971 738.640457l82.680686 12.361143 73.142857-32.782629-82.680685-12.361142-73.142858 32.782628z" fill="#CECEF9" /><path d="M865.923657 751.0016v272.193829l73.142857-32.797258V718.218971l-73.142857 32.782629z" fill="#CECEF9" /><path d="M865.923657 1023.195429L617.8816 986.112l73.142857-32.782629 248.042057 37.054172-73.142857 32.797257z" fill="#CECEF9" /><path d="M617.8816 986.126629V895.414857l73.142857-32.797257v90.741029l-73.142857 32.782628z" fill="#CECEF9" /><path d="M617.8816 895.400229l165.361371 24.707657 73.142858-32.782629-165.361372-24.722286-73.142857 32.797258zM783.242971 920.107886l73.142858-32.782629-73.142858 32.782629z" fill="#CECEF9" /><path d="M80.457143 43.885714l248.042057 37.0688v90.7264l-165.361371-24.722285v181.467428L80.457143 316.079543V43.885714z m702.785828 195.744915l-165.361371-24.722286V124.196571l248.042057 37.054172V433.444571l-82.680686-12.346514V239.616z m82.680686 397.955657L80.457143 520.221257V429.494857l785.466514 117.365029v90.7264zM163.137829 827.450514V645.983086L80.457143 633.636571v272.193829l248.042057 37.054171v-90.7264l-165.361371-24.722285z m620.105142 92.657372V738.640457l82.680686 12.361143v272.193829L617.8816 986.112V895.414857l165.361371 24.707657z" fill="#4E5969" /></svg>