<?xml version="1.0" standalone="no"?><!DOCTYPE svg PUBLIC "-//W3C//DTD SVG 1.1//EN" "http://www.w3.org/Graphics/SVG/1.1/DTD/svg11.dtd"><svg class="icon" width="200px" height="200.00px" viewBox="0 0 1024 1024" version="1.1" xmlns="http://www.w3.org/2000/svg"><path d="M85.15454 42.796698l304.810666 45.559873 81.269842-36.441396L166.440635 6.371556l-81.269841 36.425142zM446.496508 129.251556l43.446857 75.093333 81.269841-36.425143-43.446857-75.093333-81.269841 36.408889z" fill="#CECEF9" /><path d="M489.943365 204.344889l334.457905 49.980952 81.269841-36.441397-334.457905-49.964698-81.269841 36.425143zM917.130159 369.225143v530.529524l81.269841-36.425143v-530.529524l-81.269841 36.425143zM824.40127 1012.215873L108.999111 905.313524l81.269841-36.441397 715.402159 106.918603-81.269841 36.425143zM16.253968 790.397968V108.30019L97.52381 71.84254v682.114031l-81.269842 36.425143zM16.253968 108.30019L97.52381 71.84254 16.253968 108.30019zM106.33346 248.068063v554.926731l81.269842-36.425143V211.626667l-81.269842 36.425143zM108.999111 804.246349l708.624254 105.910857 81.269841-36.441396-708.624254-105.87835-81.269841 36.408889z" fill="#CECEF9" /><path d="M827.050667 886.296381V356.628317l81.269841-36.425142v529.668063l-81.269841 36.425143zM824.40127 355.376762L106.33346 248.068063l81.269842-36.425142 718.067809 107.292444-81.269841 36.441397zM106.33346 248.068063l81.269842-36.425142-81.269842 36.425142zM624.347429 552.846222v101.050921l81.269841-36.425143v-101.050921l-81.269841 36.425143z" fill="#CECEF9" /><path d="M624.347429 653.897143l-315.310731-47.104 81.269842-36.441397 315.326984 47.120254-81.269841 36.425143z" fill="#CECEF9" /><path d="M309.036698 606.793143v-101.067175l81.269842-36.425143v101.050921l-81.269842 36.441397z" fill="#CECEF9" /><path d="M309.036698 505.725968l315.326985 47.136508 81.269841-36.441397-315.326984-47.120254-81.269842 36.425143zM624.347429 552.846222l81.269841-36.425143-81.269841 36.425143zM16.253968 108.30019c0-28.50946 13.653333-49.525841 32.784254-59.570793l81.269841-36.441397C111.177143 22.332952 97.52381 43.365587 97.52381 71.875048L16.253968 108.30019z" fill="#CECEF9" /><path d="M49.054476 48.713143a58.660571 58.660571 0 0 1 36.08381-5.916445l81.269841-36.425142a58.660571 58.660571 0 0 0-36.08381 5.916444l-81.269841 36.425143zM389.965206 88.356571c21.861587 3.250794 43.268063 17.960635 56.531302 40.894985l81.269841-36.441397c-13.263238-22.918095-34.669714-37.627937-56.531301-40.894984l-81.269842 36.441396zM824.40127 254.325841c48.761905 7.281778 92.745143 56.40127 92.745143 114.915556l81.269841-36.441397c0-58.498032-43.983238-107.633778-92.745143-114.915556l-81.269841 36.441397zM917.130159 899.754667c0 25.51873-8.809651 52.337778-20.821334 72.070095l81.269842-36.441397c12.011683-19.716063 20.837587-46.535111 20.837587-72.053841l-81.269841 36.425143z" fill="#CECEF9" /><path d="M896.308825 971.824762c-6.826667 11.215238-18.984635 26.916571-36.70146 35.303619l81.269841-36.441397c17.716825-8.370794 29.85854-24.088381 36.701461-35.303619l-81.269842 36.441397z" fill="#CECEF9" /><path d="M859.607365 1007.128381a59.977143 59.977143 0 0 1-35.206095 5.087492l81.269841-36.425143a59.977143 59.977143 0 0 0 35.206095-5.103746l-81.269841 36.441397zM108.999111 905.313524C60.237206 898.031746 16.253968 848.896 16.253968 790.397968l81.269842-36.425143c0 58.498032 43.983238 107.617524 92.745142 114.915556l-81.269841 36.425143z" fill="#CECEF9" /><path d="M106.33346 802.994794a4.616127 4.616127 0 0 0 2.649397 1.267809l81.269841-36.441397a4.599873 4.599873 0 0 1-2.633142-1.251555l-81.269842 36.425143zM817.623365 910.157206c0.666413-0.845206 1.462857-1.950476 2.324318-3.380825l81.269841-36.425143a33.255619 33.255619 0 0 1-2.324318 3.364572l-81.269841 36.441396zM819.947683 906.776381c2.243048-3.673397 4.193524-8.126984 5.526349-12.580571l81.269841-36.425143a55.53981 55.53981 0 0 1-5.526349 12.580571l-81.269841 36.425143z" fill="#CECEF9" /><path d="M825.474032 894.19581c0.650159-2.161778 1.072762-4.063492 1.300317-5.575112l81.269841-36.425142c-0.227556 1.511619-0.650159 3.413333-1.300317 5.575111l-81.269841 36.425143z" fill="#CECEF9" /><path d="M826.790603 888.620698c0.24381-1.495365 0.260063-2.275556 0.260064-2.324317l81.269841-36.425143c0 0.048762-0.016254 0.812698-0.260064 2.324318l-81.269841 36.425142zM827.050667 356.628317a4.616127 4.616127 0 0 0-2.649397-1.251555l81.269841-36.441397a4.599873 4.599873 0 0 1 2.649397 1.26781l-81.269841 36.425142z" fill="#CECEF9" /><path d="M16.253968 108.30019c0-44.535873 33.304381-70.81854 68.884318-65.503492l304.82692 45.559873c21.861587 3.250794 43.268063 17.960635 56.531302 40.894985l43.446857 75.093333 334.457905 49.980952c48.761905 7.281778 92.745143 56.40127 92.745143 114.915556v530.529524c0 25.51873-8.825905 52.337778-20.837588 72.053841-10.678857 17.521778-34.344635 45.99873-71.907555 40.391111L108.999111 905.313524C60.237206 898.031746 16.253968 848.896 16.253968 790.397968V108.30019z m90.095746 139.784127v554.910477a4.616127 4.616127 0 0 0 2.649397 1.267809l708.624254 105.894603c0.666413-0.845206 1.462857-1.950476 2.324318-3.380825a55.507302 55.507302 0 0 0 6.826666-18.155683c0.260063-1.495365 0.276317-2.275556 0.276318-2.324317V356.644571a4.599873 4.599873 0 0 0-2.649397-1.267809L106.349714 248.068063z m518.013969 304.761905v101.050921l-315.326985-47.104v-101.067175l315.326985 47.136508z" fill="#4E5969" /></svg>