<?xml version="1.0" standalone="no"?><!DOCTYPE svg PUBLIC "-//W3C//DTD SVG 1.1//EN" "http://www.w3.org/Graphics/SVG/1.1/DTD/svg11.dtd"><svg class="icon" width="200px" height="200.00px" viewBox="0 0 1024 1024" version="1.1" xmlns="http://www.w3.org/2000/svg"><path d="M468.436114 34.596571l201.289143 256.8192 73.142857-32.782628L541.5936 1.799314l-73.142857 32.782629z" fill="#CECEF9" /><path d="M669.739886 291.401143l-58.221715 56.890514 73.142858-32.797257 58.221714-56.861257-73.142857 32.768z" fill="#CECEF9" /><path d="M611.518171 348.291657l-101.902628-130.004114 73.142857-32.797257 101.902629 130.004114-73.142858 32.797257z" fill="#CECEF9" /><path d="M509.615543 218.287543l-0.029257 398.175086 73.142857-32.782629 0.029257-398.189714-73.142857 32.797257z" fill="#CECEF9" /><path d="M509.586286 616.462629l-82.344229-12.302629 73.142857-32.797257 82.358857 12.317257-73.142857 32.782629zM427.242057 604.16l0.029257-398.160457 73.142857-32.782629-0.029257 398.145829-73.142857 32.797257z" fill="#CECEF9" /><path d="M427.271314 205.999543l-101.902628 99.5328 73.142857-32.782629 101.902628-99.5328-73.142857 32.782629z" fill="#CECEF9" /><path d="M325.368686 305.532343l-58.221715-74.269257 73.142858-32.797257 58.221714 74.283885-73.142857 32.768zM267.146971 231.263086l201.289143-196.666515 73.142857-32.782628-201.289142 196.651886-73.142858 32.797257zM468.436114 34.596571l73.142857-32.782628-73.142857 32.782628zM221.330286 434.263771l123.509028 18.446629 73.142857-32.782629-123.523657-18.461257-73.142857 32.797257z" fill="#CECEF9" /><path d="M344.839314 452.7104v-92.745143l73.142857-32.782628v92.745142l-73.142857 32.782629zM344.839314 359.965257l-144.106057-21.533257 73.142857-32.797257 144.091429 21.547886-73.142857 32.782628zM138.971429 398.774857v463.754972l73.142857-32.797258V365.9776l-73.142857 32.782629zM200.733257 941.319314l535.259429 79.9744 73.142857-32.782628-535.259429-79.989029-73.142857 32.797257zM797.739886 960.965486V497.210514l73.142857-32.797257V928.182857l-73.142857 32.782629zM735.992686 418.4064L591.872 396.873143l73.142857-32.782629 144.120686 21.533257-73.142857 32.782629z" fill="#CECEF9" /><path d="M591.872 396.873143v92.745143l73.142857-32.768v-92.759772l-73.142857 32.782629z" fill="#CECEF9" /><path d="M591.872 489.618286l123.523657 18.475885 73.142857-32.797257-123.523657-18.461257-73.142857 32.797257z" fill="#CECEF9" /><path d="M715.395657 508.094171v417.3824l73.142857-32.797257V475.296914l-73.142857 32.797257z" fill="#CECEF9" /><path d="M715.395657 925.476571L221.330286 851.646171l73.142857-32.797257 494.08 73.8304-73.142857 32.797257zM221.330286 851.646171V434.263771l73.142857-32.797257v417.3824l-73.142857 32.797257z" fill="#CECEF9" /><path d="M221.330286 434.263771l73.142857-32.797257-73.142857 32.797257zM200.733257 338.432a51.726629 51.726629 0 0 0-26.667886 2.808686l73.142858-32.782629a51.741257 51.741257 0 0 1 26.667885-2.808686l-73.142857 32.768z" fill="#CECEF9" /><path d="M174.065371 341.240686C153.2928 349.359543 138.971429 371.0976 138.971429 398.774857l73.142857-32.782628c0-27.662629 14.336-49.415314 35.093943-57.519543l-73.142858 32.782628zM138.971429 862.529829c0 38.414629 27.648 73.684114 61.761828 78.789485l73.142857-32.797257C239.762286 903.431314 212.114286 868.1472 212.114286 829.732571l-73.142857 32.797258zM735.992686 1021.293714a51.741257 51.741257 0 0 0 26.667885-2.808685l73.142858-32.797258c-8.074971 3.159771-17.115429 4.242286-26.667886 2.823315l-73.142857 32.782628z" fill="#CECEF9" /><path d="M762.660571 1018.485029c20.757943-8.104229 35.079314-29.842286 35.079315-57.519543l73.142857-32.797257c0 27.677257-14.336 49.415314-35.079314 57.534171l-73.142858 32.768zM797.739886 497.210514c0-38.429257-27.648-73.698743-61.7472-78.789485l73.142857-32.797258c34.0992 5.090743 61.7472 40.374857 61.7472 78.789486l-73.142857 32.797257z" fill="#CECEF9" /><path d="M468.436114 34.596571l201.289143 256.8192-58.221714 56.875886-101.888-130.004114-0.029257 398.189714-82.344229-12.317257 0.029257-398.160457-101.902628 99.5328-58.221715-74.269257 201.289143-196.666515zM221.330286 434.249143l123.523657 18.461257v-92.745143l-144.106057-21.533257C166.619429 333.326629 138.971429 360.3456 138.971429 398.760229v463.7696c0 38.414629 27.648 73.684114 61.761828 78.789485l535.259429 79.9744c34.0992 5.105371 61.7472-21.9136 61.7472-60.328228V497.210514c0-38.429257-27.648-73.698743-61.761829-78.789485l-144.091428-21.547886v92.745143l123.509028 18.475885v417.3824L221.330286 851.646171V434.263771z" fill="#4E5969" /></svg>