<?xml version="1.0" standalone="no"?><!DOCTYPE svg PUBLIC "-//W3C//DTD SVG 1.1//EN" "http://www.w3.org/Graphics/SVG/1.1/DTD/svg11.dtd"><svg class="icon" width="200px" height="200.00px" viewBox="0 0 1024 1024" version="1.1" xmlns="http://www.w3.org/2000/svg"><path d="M467.576471 42.435765l224.075294 287.472941 75.294117-33.731765L542.870588 8.658824l-75.294117 33.761882z" fill="#CECEF9" /><path d="M691.651765 329.923765l-60.431059 59.482353 75.294118-33.761883 60.446117-59.482353-75.294117 33.761883z" fill="#CECEF9" /><path d="M631.220706 389.391059l-120.892235-155.045647 75.294117-33.761883 120.892236 155.060706-75.294118 33.746824z" fill="#CECEF9" /><path d="M510.343529 234.345412v492.047059l75.294118-33.746824V200.583529l-75.294118 33.761883z" fill="#CECEF9" /><path d="M510.343529 726.392471l-85.504-12.769883 75.294118-33.761882 85.488941 12.784941-75.294117 33.746824z" fill="#CECEF9" /><path d="M424.839529 713.622588v-492.122353l75.294118-33.761882v492.122353l-75.294118 33.761882z" fill="#CECEF9" /><path d="M424.839529 221.485176l-120.922353 118.994824 75.294118-33.746824 120.922353-118.994823-75.294118 33.746823z" fill="#CECEF9" /><path d="M303.902118 340.48l-60.431059-77.537882 75.294117-33.746824 60.431059 77.537882-75.294117 33.746824z" fill="#CECEF9" /><path d="M243.471059 262.942118L467.561412 42.435765l75.294117-33.761883L318.765176 229.195294l-75.294117 33.746824zM467.576471 42.435765l75.294117-33.761883-75.294117 33.761883zM168.312471 817.197176v-96.903529l75.294117-33.746823v96.903529l-75.294117 33.746823z" fill="#CECEF9" /><path d="M168.312471 720.293647L82.823529 707.523765l75.294118-33.761883 85.488941 12.784942-75.294117 33.746823z" fill="#CECEF9" /><path d="M82.823529 707.523765v193.807059l75.294118-33.761883v-193.807059l-75.294118 33.761883z" fill="#CECEF9" /><path d="M82.823529 901.315765l769.445647 114.989176 75.294118-33.761882L158.117647 867.568941l-75.294118 33.746824z" fill="#CECEF9" /><path d="M852.269176 1016.304941v-193.807059l75.294118-33.746823v193.807059l-75.294118 33.731764z" fill="#CECEF9" /><path d="M852.269176 822.512941l-85.504-12.8 75.294118-33.731765 85.504 12.769883-75.294118 33.746823z" fill="#CECEF9" /><path d="M766.765176 809.712941v96.90353l75.294118-33.746824v-96.903529l-75.294118 33.761882z" fill="#CECEF9" /><path d="M766.765176 906.631529l-598.437647-89.434353 75.294118-33.746823 598.437647 89.419294-75.294118 33.761882zM168.312471 817.197176l75.294117-33.746823-75.294117 33.746823z" fill="#CECEF9" /><path d="M467.576471 42.435765l224.075294 287.472941-60.431059 59.482353-120.892235-155.045647v492.047059l-85.488942-12.769883v-492.122353l-120.922353 118.979765-60.446117-77.537882L467.561412 42.435765zM168.297412 817.197176v-96.903529L82.823529 707.523765v193.807059l769.445647 114.974117v-193.807059l-85.504-12.769882v96.888471l-598.437647-89.419295z" fill="#4E5969" /></svg>