<?xml version="1.0" standalone="no"?><!DOCTYPE svg PUBLIC "-//W3C//DTD SVG 1.1//EN" "http://www.w3.org/Graphics/SVG/1.1/DTD/svg11.dtd"><svg class="icon" width="200px" height="177.16px" viewBox="0 0 1156 1024" version="1.1" xmlns="http://www.w3.org/2000/svg"><path d="M102.532741 169.851259v641.346371l94.814815-42.514963V127.355259l-94.814815 42.496zM102.532741 811.19763L692.148148 899.299556l94.814815-42.496-589.615407-88.101926-94.814815 42.496z" fill="#CECEF9" /><path d="M692.148148 899.299556v-641.327408l94.814815-42.514963v641.327408l-94.814815 42.514963z" fill="#CECEF9" /><path d="M692.148148 257.953185L102.532741 169.851259l94.814815-42.496L786.962963 215.457185l-94.814815 42.496zM102.532741 169.851259l94.814815-42.496-94.814815 42.496zM76.894815 49.417481l640.891259 95.762963 94.814815-42.496L171.70963 6.921481l-94.814815 42.496zM794.680889 244.129185v96.559408l94.814815-42.514963v-96.540445l-94.814815 42.496z" fill="#CECEF9" /><path d="M794.680889 340.688593l157.354667-30.170074 94.814814-42.514963-157.354666 30.170074-94.814815 42.514963zM1051.022222 409.069037v446.388148l94.814815-42.514963V366.554074l-94.814815 42.514963zM952.035556 924.425481l-157.354667-77.198222 94.814815-42.496 157.354666 77.17926-94.814814 42.514962z" fill="#CECEF9" /><path d="M794.680889 847.227259v96.540445l94.814815-42.496v-96.540445l-94.814815 42.496zM717.786074 1019.733333l-640.891259-95.762963 94.814815-42.496 640.891259 95.762963-94.814815 42.496zM0 825.02163V125.383111l94.814815-42.496v699.638519l-94.814815 42.496zM0 125.383111l94.814815-42.496-94.814815 42.496zM794.680889 725.485037l153.808592 75.472593 94.814815-42.514963-153.789629-75.472593-94.814815 42.514963z" fill="#CECEF9" /><path d="M948.489481 800.938667V432.924444l94.814815-42.477037v367.99526l-94.814815 42.496z" fill="#CECEF9" /><path d="M948.489481 432.924444l-153.789629 29.506371 94.814815-42.514963 153.789629-29.487408-94.814815 42.514963z" fill="#CECEF9" /><path d="M794.680889 462.430815v263.054222l94.814815-42.514963V419.934815l-94.814815 42.514963zM794.680889 725.485037l94.814815-42.496-94.814815 42.496zM333.255111 437.551407l-153.808592-22.983111 94.814814-42.514963 153.808593 22.983111-94.814815 42.514963zM179.446519 414.568296v-116.622222l94.814814-42.477037v116.584296l-94.814814 42.514963z" fill="#CECEF9" /><path d="M179.446519 297.965037l153.808592 22.983111 94.814815-42.514963-153.808593-22.983111-94.814814 42.514963z" fill="#CECEF9" /><path d="M333.255111 320.929185v116.622222l94.814815-42.514963v-116.603259l-94.814815 42.496zM333.255111 437.551407l94.814815-42.514963-94.814815 42.514963zM0 125.383111C0 92.539259 15.928889 66.294519 39.461926 54.878815l94.814815-42.514963C110.743704 23.798519 94.814815 50.062222 94.814815 82.887111L0 125.383111z" fill="#CECEF9" /><path d="M39.461926 54.878815a63.393185 63.393185 0 0 1 37.451852-5.461334l94.814815-42.496A63.393185 63.393185 0 0 0 134.257778 12.363852l-94.814815 42.514963zM717.786074 145.180444c42.477037 6.352593 76.894815 50.650074 76.894815 98.948741l94.814815-42.496c0-48.298667-34.436741-92.615111-76.894815-98.948741l-94.814815 42.496zM952.035556 310.518519c49.34163-9.481481 98.986667 39.973926 98.986666 98.550518l94.814815-42.496c0-58.595556-49.645037-108.032-98.986667-98.569481l-94.814814 42.514963zM1051.041185 855.438222c0 32.805926-15.587556 58.102519-37.944889 69.745778l94.814815-42.514963c22.376296-11.643259 37.925926-36.920889 37.925926-69.726815l-94.814815 42.496z" fill="#CECEF9" /><path d="M1013.096296 925.202963c-17.578667 9.140148-39.348148 9.860741-61.06074-0.777482l94.814814-42.514962c21.712593 10.657185 43.482074 9.91763 61.060741 0.758518l-94.814815 42.514963zM794.680889 943.786667c0 32.824889-15.928889 59.06963-39.461926 70.504296l94.814815-42.514963c23.552-11.415704 39.461926-37.660444 39.461926-70.504296l-94.814815 42.514963z" fill="#CECEF9" /><path d="M755.218963 1014.290963a63.393185 63.393185 0 0 1-37.432889 5.44237l94.814815-42.496a63.393185 63.393185 0 0 0 37.432889-5.461333l-94.814815 42.514963zM76.913778 923.97037C34.436741 917.636741 0 873.339259 0 825.02163l94.814815-42.496c0 48.298667 34.436741 92.596148 76.913778 98.94874l-94.814815 42.496z" fill="#CECEF9" /><path d="M102.532741 169.851259v641.346371L692.148148 899.299556v-641.327408L102.532741 169.832296zM0 125.383111c0-48.298667 34.436741-82.299259 76.913778-75.96563l640.872296 95.762963c42.477037 6.352593 76.894815 50.650074 76.894815 98.948741v96.559408l157.354667-30.170074c49.34163-9.481481 98.986667 39.973926 98.986666 98.550518v446.388148c0 58.576593-49.645037 93.165037-98.986666 68.968296l-157.354667-77.198222v96.540445c0 48.298667-34.417778 82.318222-76.894815 75.965629l-640.872296-95.762963C34.436741 917.636741 0 873.339259 0 825.02163V125.383111z m794.680889 600.101926l153.808592 75.472593V432.924444l-153.789629 29.487408v263.054222zM333.255111 437.551407l-153.808592-22.983111v-116.622222l153.808592 23.002074v116.603259z" fill="#4E5969" /></svg>