<?xml version="1.0" standalone="no"?><!DOCTYPE svg PUBLIC "-//W3C//DTD SVG 1.1//EN" "http://www.w3.org/Graphics/SVG/1.1/DTD/svg11.dtd"><svg class="icon" width="200px" height="200.00px" viewBox="0 0 1024 1024" version="1.1" xmlns="http://www.w3.org/2000/svg"><path d="M376.45633 35.259224l183.861492 27.47988 76.417911-34.265791L452.87424 1.008716l-76.41791 34.250508zM622.965225 124.805731l22.161194 91.640359 76.417911-34.265791-22.161194-91.640359-76.417911 34.265791zM645.141703 216.44609l80.208238-10.958329 76.417911-34.250507-80.208239 10.943045-76.41791 34.265791zM797.931673 250.039403l91.915463 189.929075 76.41791-34.265791-91.915463-189.913791-76.41791 34.250507zM879.928091 524.88406l-58.016478 56.732656 76.417911-34.265791 58.016477-56.717373-76.41791 34.250508z" fill="#CECEF9" /><path d="M821.911613 581.616716l58.016478 74.064239 76.41791-34.265791-58.016477-74.064239-76.417911 34.265791zM889.847136 743.576836L797.931673 906.010746l76.41791-34.250507 91.915463-162.449194-76.41791 34.265791zM725.349941 928.874985l-80.208238-34.922985 76.41791-34.250507 80.208239 34.922985-76.417911 34.250507z" fill="#CECEF9" /><path d="M645.141703 893.952l-22.176478 85.022567 76.417911-34.265791 22.161194-85.007283-76.417911 34.250507zM560.317822 1022.318806l-183.861492-27.479881 76.41791-34.250507 183.861493 27.464597-76.417911 34.265791zM313.82421 932.772299l-22.176477-91.609792 76.41791-34.265791 22.161194 91.625075-76.41791 34.250508zM291.632449 841.162507l-80.177672 10.927762 76.417911-34.265791 80.192955-10.927762-76.41791 34.265791zM138.873046 807.538627L46.9423 617.609552l76.41791-34.265791 91.930746 189.913791-76.41791 34.265791zM56.861344 532.69397l58.031762-56.732657 76.41791-34.250507-58.031761 56.717373-76.417911 34.265791z" fill="#CECEF9" /><path d="M114.893106 475.961313l-58.031762-74.064238 76.417911-34.250508 58.031761 74.064239-76.41791 34.250507zM46.9423 314.001194L138.873046 151.567284l76.41791-34.265791L123.36021 279.750687l-76.41791 34.250507zM211.454777 128.703045l80.192956 34.892418 76.41791-34.250508-80.192955-34.892418-76.417911 34.250508z" fill="#CECEF9" /><path d="M291.632449 163.595463l22.191761-84.992 76.417911-34.250508-22.176478 84.976717-76.41791 34.265791zM313.82421 78.603463l76.417911-34.250508-76.417911 34.250508zM392.947315 133.685493l-23.460299 89.928597 76.417911-34.250508 23.460298-89.943881-76.41791 34.265792zM290.577882 262.250985l-84.854448-36.940418 76.41791-34.250507 84.854448 36.940418-76.41791 34.235223z" fill="#CECEF9" /><path d="M205.738718 225.310567l-75.455045 133.33397 76.41791-34.235224 75.439761-133.349253-76.41791 34.250507z" fill="#CECEF9" /><path d="M130.283673 358.659821l61.394149 78.358925 76.417911-34.265791-61.39415-78.358925-76.41791 34.265791zM191.677822 537.859821L130.283673 597.893731l76.41791-34.265791 61.39415-60.003343-76.417911 34.250507z" fill="#CECEF9" /><path d="M130.283673 597.878448l75.439761 155.892537 76.41791-34.265791-75.439761-155.892537-76.41791 34.265791z" fill="#CECEF9" /><path d="M205.738718 753.755701l84.839164-11.569671 76.41791-34.265791-84.854448 11.584955-76.41791 34.250507zM369.487016 804.405493l23.460299 96.943761 76.41791-34.265791-23.460298-96.943762-76.417911 34.265792zM392.947315 901.349254l150.879522 22.543283 76.41791-34.250507-150.879522-22.558567-76.41791 34.265791z" fill="#CECEF9" /><path d="M543.826837 923.892537l23.460299-89.928597 76.41791-34.265791-23.460299 89.943881-76.41791 34.250507zM646.211553 795.327045l84.869732 36.940418 76.41791-34.265791-84.885015-36.940418-76.41791 34.265791z" fill="#CECEF9" /><path d="M731.081285 832.267463l75.439761-133.33397 76.41791-34.265792-75.439761 133.333971-76.41791 34.265791z" fill="#CECEF9" /><path d="M806.521046 698.918209l-61.424716-78.358925 76.41791-34.250508 61.424716 78.358925-76.41791 34.265792zM745.09633 519.718209l61.424716-60.018627 76.41791-34.250507-61.424716 60.003343-76.41791 34.250507zM806.521046 459.699582l-75.439761-155.892537 76.41791-34.235224 75.439761 155.877254-76.41791 34.250507z" fill="#CECEF9" /><path d="M731.081285 303.822328l-84.885015 11.569672 76.41791-34.250507 84.869732-11.584956-76.417911 34.265791zM567.287136 253.172537l-23.460299-96.943761 76.41791-34.250507 23.460299 96.928477-76.41791 34.265791z" fill="#CECEF9" /><path d="M543.826837 156.228776L392.962598 133.685493l76.417911-34.265792 150.879522 22.558568-76.41791 34.250507zM392.947315 133.685493l76.41791-34.265792-76.41791 34.265792zM468.387076 432.831045l76.41791-34.265791-76.41791 34.265791zM294.96427 502.875701l76.41791-34.265791-76.41791 34.265791zM285.931673 817.610507l0.030567 0.030568 76.41791-34.265791-0.030567-0.015284-76.41791 34.250507zM313.82421 78.603463c4.676776-17.988776 15.772657-31.560597 30.215642-38.606329l76.41791-34.250507c-14.442985 7.030448-25.538866 20.617552-30.215641 38.606328l-76.417911 34.250508z" fill="#CECEF9" /><path d="M344.039852 39.997134a54.883343 54.883343 0 0 1 32.431761-4.73791l76.417911-34.250508a54.883343 54.883343 0 0 0-32.431762 4.737911l-76.41791 34.250507zM560.317822 62.739104c29.206925 4.355821 54.837493 29.757134 62.647403 62.051344l76.417911-34.235224c-7.794627-32.324776-33.440478-57.710806-62.662687-62.081911l-76.41791 34.265791zM725.349941 205.487761c28.28991-3.820896 57.970627 14.366567 72.581732 44.551642l76.41791-34.250507c-14.611104-30.185075-44.291821-48.387821-72.581731-44.551642l-76.417911 34.250507zM889.847136 439.968478c14.611104 30.169791 10.560955 64.89409-9.934329 84.915582l76.417911-34.250508c20.495284-20.021493 24.545433-54.745791 9.934328-84.930865l-76.41791 34.250507zM879.928091 655.665672c20.48 26.150209 24.530149 62.097194 9.934328 87.911164l76.417911-34.265791c14.595821-25.81397 10.545672-61.745672-9.934329-87.880597l-76.41791 34.235224zM797.931673 906.010746a55.326567 55.326567 0 0 1-23.704836 22.74197l76.41791-34.250507a55.326567 55.326567 0 0 0 23.704836-22.74197l-76.41791 34.250507z" fill="#CECEF9" /><path d="M774.226837 928.752716c-14.427701 7.091582-31.896836 7.504239-48.876896 0.122269l76.417911-34.250507c16.964776 7.38197 34.449194 6.969313 48.876895-0.122269l-76.41791 34.250507zM622.965225 978.974567c-4.69206 17.973493-15.78794 31.560597-30.230925 38.606329l76.41791-34.265792c14.442985-7.030448 25.538866-20.617552 30.230926-38.606328l-76.417911 34.265791z" fill="#CECEF9" /><path d="M592.7343 1017.580896a54.86806 54.86806 0 0 1-32.431761 4.73791l76.41791-34.265791a54.898627 54.898627 0 0 0 32.431761-4.737911l-76.41791 34.265792zM376.45633 994.838925c-29.206925-4.355821-54.837493-29.757134-62.63212-62.051343l76.417911-34.265791c7.794627 32.309493 33.425194 57.695522 62.647403 62.051343l-76.417911 34.265791zM211.454777 852.090269c-28.28991 3.851463-57.970627-14.366567-72.597015-44.551642l76.417911-34.265791c14.626388 30.185075 44.307104 48.418388 72.597015 44.551642l-76.417911 34.265791zM46.9423 617.609552c-14.611104-30.169791-10.545672-64.89409 9.919044-84.915582l76.417911-34.265791c-20.48 20.021493-24.530149 54.745791-9.919045 84.930866l-76.41791 34.265791zM56.861344 401.897075c-20.48-26.134925-24.530149-62.08191-9.919044-87.880597l76.41791-34.265791c-14.611104 25.81397-10.545672 61.745672 9.919045 87.880597l-76.417911 34.265791zM138.873046 151.567284a55.296 55.296 0 0 1 23.704836-22.741971l76.41791-34.250507a55.296 55.296 0 0 0-23.704836 22.726687l-76.41791 34.265791z" fill="#CECEF9" /><path d="M162.577882 128.825313c14.427701-7.076299 31.896836-7.488955 48.876895-0.122268l76.417911-34.250508c-16.98006-7.38197-34.449194-6.969313-48.876896 0.122269l-76.41791 34.250507zM369.487016 223.61409c-4.539224 17.469134-15.008478 30.50603-28.427463 37.704597l76.417911-34.265791c13.418985-7.183284 23.888239-20.220179 28.427463-37.689314l-76.417911 34.250508z" fill="#CECEF9" /><path d="M341.04427 261.318687c-14.565254 7.794627-32.615164 8.711642-50.466388 0.917014l76.41791-34.235223c17.851224 7.76406 35.916418 6.847045 50.466388-0.947582l-76.41791 34.265791zM191.677822 437.018746c24.851104 31.698149 24.851104 76.570746 0 100.841075l76.417911-34.250508c24.851104-24.285612 24.851104-69.142925 0-100.856358l-76.417911 34.265791zM290.577882 742.170746c34.311642-4.676776 69.433313 23.001791 78.909134 62.234747l76.417911-34.265792c-9.475821-39.217672-44.597493-66.896239-78.909135-62.204179l-76.41791 34.235224zM567.287136 833.96394c4.554507-17.469134 15.023761-30.50603 28.458029-37.704597l76.417911-34.250507c-13.449552 7.183284-23.903522 20.235463-28.45803 37.689313l-76.41791 34.265791z" fill="#CECEF9" /><path d="M595.745165 796.274627c14.54997-7.794627 32.615164-8.711642 50.451105-0.947582l76.41791-34.265791c-17.83594-7.76406-35.901134-6.847045-50.451104 0.947582l-76.417911 34.250507zM745.09633 620.559284c-24.820537-31.698149-24.820537-76.570746 0-100.856359l76.41791-34.235224c-24.820537 24.270328-24.820537 69.127642 0 100.841075l-76.41791 34.250508zM646.211553 315.392c-34.326925 4.676776-69.433313-22.986507-78.924417-62.219463l76.41791-34.265791c9.491104 39.232955 44.597493 66.911522 78.909134 62.234747l-76.41791 34.235223zM468.387076 432.831045a73.789134 73.789134 0 0 0-37.444776 3.790328l76.41791-34.265791a73.789134 73.789134 0 0 1 37.444776-3.790328l-76.41791 34.265791z" fill="#CECEF9" /><path d="M430.9423 436.621373c-29.145791 11.111164-49.274269 41.051701-49.274269 79.214806l76.41791-34.265791c0-38.147821 20.128478-68.103642 49.274269-79.214806l-76.41791 34.265791z" fill="#CECEF9" /><path d="M381.668031 515.820896c0 53.003463 38.820299 101.773373 86.719045 108.926089l76.41791-34.265791c-47.883463-7.152716-86.719045-55.907343-86.719045-108.910806l-76.41791 34.265791z" fill="#CECEF9" /><path d="M468.387076 624.746985a73.773851 73.773851 0 0 0 37.444776-3.790328l76.41791-34.250508a73.789134 73.789134 0 0 1-37.444776 3.790329l-76.41791 34.235223z" fill="#CECEF9" /><path d="M505.831852 620.97194c29.145791-11.126448 49.274269-41.066985 49.274269-79.230089l76.41791-34.250508c0 38.147821-20.128478 68.103642-49.274269 79.214806l-76.41791 34.250508zM555.106121 541.741851c0-52.988179-38.820299-101.75809-86.719045-108.910806l76.41791-34.265791c47.883463 7.168 86.719045 55.93791 86.719045 108.926089l-76.41791 34.250508zM294.96427 502.875701c0-72.077373 35.901134-129.497791 88.996298-154.379462l76.417911-34.265791c-53.095164 24.881672-88.996299 82.317373-88.996299 154.379462l-76.41791 34.265791z" fill="#CECEF9" /><path d="M383.960568 348.496239c24.988657-11.707224 53.782925-16.200597 84.426508-11.615523l76.41791-34.265791c-30.643582-4.585075-59.453134-0.091701-84.426507 11.615523l-76.417911 34.265791z" fill="#CECEF9" /><path d="M468.387076 336.865433c95.782209 14.320716 173.43809 111.860537 173.438089 217.836895l76.417911-34.250507c0-105.991642-77.655881-203.531463-173.43809-217.836896l-76.41791 34.250508z" fill="#CECEF9" /><path d="M641.825165 554.702328c0 72.077373-35.916418 129.497791-89.011582 154.379463l76.417911-34.265791c53.095164-24.866388 89.011582-82.30209 89.011582-154.364179l-76.417911 34.250507z" fill="#CECEF9" /><path d="M552.828867 709.081791c-25.00394 11.707224-53.798209 16.200597-84.441791 11.615522l76.41791-34.250507c30.643582 4.585075 59.453134 0.076418 84.426508-11.615522l-76.417911 34.235223z" fill="#CECEF9" /><path d="M468.387076 720.712597c-95.782209-14.320716-173.422806-111.860537-173.422806-217.836896l76.41791-34.265791c0 105.991642 77.640597 203.531463 173.422806 217.836896l-76.41791 34.265791z" fill="#CECEF9" /><path d="M313.82421 78.603463c7.794627-29.971104 33.425194-47.715343 62.647403-43.344239l183.830926 27.464597c29.222209 4.371104 54.86806 29.772418 62.662686 62.066627l22.161194 91.655642 80.238806-10.958329c28.274627-3.820896 57.955343 14.366567 72.566448 44.551642l91.915463 189.913791c14.611104 30.185075 10.560955 64.909373-9.934329 84.930866l-58.001194 56.732656 58.016478 74.064239c20.48 26.134925 24.530149 62.08191 9.934328 87.880597l-91.930746 162.464478c-14.611104 25.798687-44.291821 35.152239-72.581732 22.848955L645.141703 893.936716l-22.176478 85.022568c-7.794627 29.955821-33.440478 47.70006-62.662686 43.328955l-183.830926-27.464597c-29.222209-4.371104-54.852776-29.757134-62.662686-62.066627l-22.161194-91.625075-80.192956 10.927761c-28.28991 3.866746-57.970627-14.366567-72.597015-44.551641L46.9423 617.609552c-14.611104-30.169791-10.545672-64.909373 9.919044-84.930865l58.031762-56.717374-58.031762-74.064238c-20.48-26.134925-24.530149-62.08191-9.919044-87.880597l91.930746-162.464478c14.611104-25.798687 44.291821-35.152239 72.581731-22.848955l80.192956 34.892418 22.161194-84.992z m79.123105 55.066746l-23.460299 89.943881c-9.475821 36.390209-44.597493 53.568955-78.909134 38.636895l-84.854448-36.940418-75.439761 133.33397 61.394149 78.358926c24.851104 31.713433 24.851104 76.570746 0 100.871641l-61.394149 60.003344 75.439761 155.877253 84.854448-11.569671c34.311642-4.69206 69.433313 22.986507 78.909134 62.204179l23.460299 96.959045 150.879522 22.543283 23.460299-89.94388c9.491104-36.374925 44.597493-53.568955 78.909134-38.621612l84.869731 36.925134 75.455045-133.33397-61.424716-78.358925c-24.820537-31.713433-24.820537-76.570746 0-100.856359l61.424716-60.003343-75.439761-155.892537-84.885015 11.584955c-34.311642 4.676776-69.41803-23.001791-78.909134-62.219463l-23.460299-96.943761-150.879522-22.558567z m75.439761 299.160836c-47.883463-7.152716-86.719045 30.001672-86.719045 82.989851 0 53.003463 38.820299 101.75809 86.719045 108.926089 47.898746 7.152716 86.719045-30.016955 86.719045-83.005134s-38.820299-101.75809-86.719045-108.910806z m-173.422806 70.044656c0-105.991642 77.640597-180.315701 173.422806-166.010268 95.782209 14.320716 173.43809 111.845254 173.438089 217.836895 0 105.976358-77.655881 180.315701-173.438089 165.994985-95.782209-14.305433-173.422806-111.845254-173.422806-217.821612z m-9.017314 314.734806v0.030568z" fill="#4E5969" /></svg>