<?xml version="1.0" standalone="no"?><!DOCTYPE svg PUBLIC "-//W3C//DTD SVG 1.1//EN" "http://www.w3.org/Graphics/SVG/1.1/DTD/svg11.dtd"><svg class="icon" width="200px" height="200.00px" viewBox="0 0 1024 1024" version="1.1" xmlns="http://www.w3.org/2000/svg"><path d="M124.772848 476.904727l77.575758-34.784969-77.575758 34.784969zM468.759273 48.733091l77.575757-34.769455-77.575757 34.769455zM425.751273 516.732121l151.241697 204.241455 77.575757-34.769455-151.241697-204.256969-77.575757 34.784969z" fill="#CECEF9" /><path d="M576.99297 720.989091l63.00703-55.854546 77.575758-34.784969-63.007031 55.854545-77.575757 34.769455zM640 665.134545l-128.248242-173.211151 77.575757-34.78497 128.248243 173.211152-77.575758 34.784969z" fill="#CECEF9" /><path d="M511.751758 491.923394V270.972121l77.575757-34.784969v220.951272l-77.575757 34.78497zM511.751758 270.956606l-86.000485-12.846545 77.575757-34.769455 86.000485 12.846546-77.575757 34.769454z" fill="#CECEF9" /><path d="M425.751273 258.110061v258.62206l77.575757-34.784969V223.340606l-77.575757 34.769455z" fill="#CECEF9" /><path d="M425.751273 516.732121l77.575757-34.769454-77.575757 34.753939zM124.772848 476.904727c0-144.089212 71.214545-258.978909 176.531394-308.829091l77.575758-34.769454c-105.316848 49.850182-176.531394 164.739879-176.531394 308.813576l-77.575758 34.784969z" fill="#CECEF9" /><path d="M301.304242 168.075636c49.555394-23.458909 106.651152-32.519758 167.455031-23.427878l77.575757-34.78497c-60.803879-9.076364-117.915152-0.015515-167.45503 23.427879l-77.575758 34.784969z" fill="#CECEF9" /><path d="M468.759273 144.647758c189.967515 28.392727 343.970909 223.169939 343.970909 435.044848l77.575757-34.753939c0-211.905939-154.003394-406.683152-343.970909-435.060364l-77.575757 34.769455z" fill="#CECEF9" /><path d="M812.730182 579.708121c0 144.073697-71.214545 258.963394-176.515879 308.813576l77.575758-34.769455c105.301333-49.850182 176.515879-164.739879 176.515878-308.82909l-77.575757 34.784969z" fill="#CECEF9" /><path d="M636.214303 888.521697c-49.555394 23.458909-106.666667 32.519758-167.45503 23.427879l77.575757-34.769455c60.788364 9.091879 117.899636 0.03103 167.455031-23.427879l-77.575758 34.769455zM468.759273 911.949576c-189.98303-28.392727-343.970909-223.154424-343.970909-435.044849l77.575757-34.784969c0 211.890424 153.987879 406.667636 343.970909 435.044848l-77.575757 34.78497zM468.759273 48.733091c-66.497939-9.929697-129.458424-2.513455-185.654303 19.145697l77.575757-34.769455C416.876606 11.450182 479.837091 4.018424 546.33503 13.963636l-77.575757 34.769455z" fill="#CECEF9" /><path d="M283.10497 67.878788C138.581333 123.578182 38.787879 273.361455 38.787879 464.058182l77.575757-34.78497c0-190.681212 99.793455-340.48 244.317091-396.163879l-77.575757 34.769455z" fill="#CECEF9" /><path d="M38.787879 464.058182c0 264.843636 192.496485 508.322909 429.971394 543.80606l77.575757-34.769454C308.860121 937.611636 116.363636 694.132364 116.363636 429.288727l-77.575757 34.75394z" fill="#CECEF9" /><path d="M468.759273 1007.864242c66.482424 9.929697 129.458424 2.513455 185.654303-19.145697l77.575757-34.769454c-56.195879 21.659152-119.156364 29.075394-185.654303 19.145697l-77.575757 34.769454z" fill="#CECEF9" /><path d="M654.413576 988.734061c144.523636-55.699394 244.317091-205.482667 244.317091-396.179394l77.575757-34.78497c0 190.696727-99.793455 340.495515-244.317091 396.179394l-77.575757 34.78497z" fill="#CECEF9" /><path d="M898.730667 592.554667c0-264.859152-192.512-508.338424-429.971394-543.806061l77.575757-34.78497c237.459394 35.483152 429.971394 278.962424 429.971394 543.806061l-77.575757 34.78497z" fill="#CECEF9" /><path d="M124.788364 476.904727c0-211.890424 153.987879-360.649697 343.970909-332.256969 189.967515 28.392727 343.970909 223.169939 343.970909 435.044848 0 211.890424-154.003394 360.649697-343.970909 332.272485-189.98303-28.392727-343.970909-223.169939-343.970909-435.060364zM468.759273 48.717576C231.284364 13.249939 38.787879 199.214545 38.787879 464.058182c0 264.843636 192.496485 508.322909 429.971394 543.80606 237.459394 35.483152 429.971394-150.450424 429.971394-415.309575S706.218667 84.216242 468.759273 48.748606z m-42.992485 467.99903l151.226182 204.241455 63.00703-55.854546-128.248242-173.195636V270.972121l-86.000485-12.86206v258.62206z" fill="#4E5969" /></svg>