<?xml version="1.0" standalone="no"?><!DOCTYPE svg PUBLIC "-//W3C//DTD SVG 1.1//EN" "http://www.w3.org/Graphics/SVG/1.1/DTD/svg11.dtd"><svg class="icon" width="200px" height="200.00px" viewBox="0 0 1024 1024" version="1.1" xmlns="http://www.w3.org/2000/svg"><path d="M67.584 396.675879L15.515152 388.887273l77.575757-34.769455 52.068849 7.773091-77.575758 34.78497z" fill="#CECEF9" /><path d="M15.515152 388.887273L106.775273 558.08l77.575757-34.769455L93.090909 354.117818l-77.575757 34.769455z" fill="#CECEF9" /><path d="M106.775273 558.08l91.275636-141.917091 77.575758-34.769454-91.275637 141.901575-77.575757 34.769455z" fill="#CECEF9" /><path d="M198.050909 416.162909l-42.852848-6.407757 77.575757-34.769455 42.852849 6.407758-77.575758 34.769454zM207.747879 700.183273l-72.067879 43.178666 77.575758-34.784969 72.067878-43.163152-77.575757 34.769455zM67.584 396.675879l77.575758-34.78497-77.575758 34.78497zM517.988848 531.114667V360.649697l77.575758-34.78497v170.480485l-77.575758 34.769455z" fill="#CECEF9" /><path d="M517.988848 360.649697l-86.574545-12.939636 77.575758-34.78497 86.574545 12.939636-77.575758 34.78497z" fill="#CECEF9" /><path d="M431.414303 347.694545v267.900122l77.575758-34.78497V312.940606l-77.575758 34.78497zM431.414303 615.594667l238.08 35.576242 77.575758-34.78497-238.08-35.576242-77.575758 34.78497z" fill="#CECEF9" /><path d="M669.478788 651.170909V553.735758l77.575757-34.769455v97.404121l-77.575757 34.78497z" fill="#CECEF9" /><path d="M669.478788 553.751273l-151.48994-22.636606 77.575758-34.769455 151.505455 22.636606-77.575758 34.769455zM517.988848 531.114667l77.575758-34.769455-77.575758 34.769455zM155.198061 409.755152c18.090667-114.548364 82.757818-204.148364 171.783757-247.125334l77.575758-34.769454c-89.025939 42.97697-153.693091 132.57697-171.783758 247.125333l-77.575757 34.769455z" fill="#CECEF9" /><path d="M326.981818 162.629818c50.067394-24.172606 107.845818-33.590303 169.363394-24.389818l77.575758-34.78497c-61.517576-9.18497-119.296 0.232727-169.363394 24.405334l-77.575758 34.769454zM496.345212 138.24C687.600485 166.787879 842.627879 364.419879 842.627879 579.630545l77.575757-34.784969c0-215.195152-155.027394-412.811636-346.282666-441.390546l-77.575758 34.78497z" fill="#CECEF9" /><path d="M842.627879 579.630545c0 146.338909-71.68 263.121455-177.695031 313.871516l77.575758-34.75394c106.01503-50.781091 177.69503-167.563636 177.69503-313.902545l-77.575757 34.784969z" fill="#CECEF9" /><path d="M664.932848 893.517576c-49.896727 23.893333-107.380364 33.155879-168.587636 24.017454l77.575758-34.784969c61.207273 9.153939 118.690909-0.124121 168.587636-24.017455l-77.575758 34.78497zM496.345212 917.53503c-120.397576-17.997576-226.490182-102.958545-288.597333-217.351757l77.575757-34.769455C347.430788 779.791515 453.507879 864.768 573.905455 882.734545l-77.575758 34.78497z" fill="#CECEF9" /><path d="M135.68 743.361939c77.451636 142.692848 210.075152 249.080242 360.665212 271.577213l77.575758-34.769455c-150.590061-22.49697-283.213576-128.899879-360.665212-271.592727l-77.575758 34.784969z" fill="#CECEF9" /><path d="M496.345212 1014.939152c66.947879 10.007273 130.327273 2.389333 186.91103-19.688728l77.575758-34.769454c-56.583758 22.062545-119.963152 29.680485-186.91103 19.688727l-77.575758 34.769455z" fill="#CECEF9" /><path d="M683.256242 995.250424C828.741818 938.511515 929.202424 786.245818 929.202424 592.554667l77.575758-34.769455c0 193.675636-100.460606 345.941333-245.946182 402.695758l-77.575758 34.769454z" fill="#CECEF9" /><path d="M929.202424 592.570182c0-269.017212-193.784242-516.033939-432.857212-551.749818l77.575758-34.769455C812.993939 41.766788 1006.778182 288.783515 1006.778182 557.769697l-77.575758 34.78497zM496.345212 40.820364c-70.019879-10.457212-136.145455-1.644606-194.668606 22.838303l77.575758-34.78497C437.775515 4.406303 503.901091-4.421818 573.905455 6.050909l-77.575758 34.769455z" fill="#CECEF9" /><path d="M301.676606 63.658667C177.322667 115.665455 87.350303 238.312727 67.584 396.675879l77.575758-34.78497C164.926061 203.558788 254.913939 80.880485 379.252364 28.873697l-77.575758 34.78497z" fill="#CECEF9" /><path d="M67.584 396.675879L15.515152 388.887273 106.775273 558.08l91.275636-141.901576-42.852848-6.407757C183.466667 230.772364 325.461333 112.702061 496.329697 138.24 687.600485 166.818909 842.627879 364.419879 842.627879 579.630545c0 215.195152-155.027394 366.467879-346.282667 337.904485-120.397576-17.997576-226.490182-102.958545-288.597333-217.351757l-72.067879 43.178666c77.451636 142.692848 210.075152 249.080242 360.665212 271.577213C735.418182 1050.686061 929.202424 861.571879 929.202424 592.570182c0-269.017212-193.784242-516.033939-432.857212-551.749818C277.53503 8.129939 96.659394 163.793455 67.584 396.675879z m450.404848 134.438788V360.649697l-86.574545-12.939636v267.884606l238.08 35.576242V553.735758l-151.505455-22.636606z" fill="#4E5969" /></svg>