<?xml version="1.0" standalone="no"?><!DOCTYPE svg PUBLIC "-//W3C//DTD SVG 1.1//EN" "http://www.w3.org/Graphics/SVG/1.1/DTD/svg11.dtd"><svg class="icon" width="200px" height="200.00px" viewBox="0 0 1024 1024" version="1.1" xmlns="http://www.w3.org/2000/svg"><path d="M211.412114 41.179429l435.2 65.024 73.142857-32.782629L284.554971 8.382171l-73.142857 32.797258z" fill="#CECEF9" /><path d="M646.612114 106.203429L809.545143 315.2896l73.142857-32.782629L719.754971 73.4208l-73.142857 32.782629z" fill="#CECEF9" /><path d="M809.545143 315.2896v629.160229l73.142857-32.797258V282.506971l-73.142857 32.782629zM729.790171 1022.961371L211.412114 945.503086l73.142857-32.797257 518.378058 77.458285-73.142858 32.797257zM131.657143 843.146971V119.690971L204.8 86.893714v723.470629l-73.142857 32.782628zM131.657143 119.690971L204.8 86.893714 131.657143 119.690971zM613.5808 191.707429L211.412114 131.613257l73.142857-32.797257 402.168686 60.094171-73.142857 32.797258z" fill="#CECEF9" /><path d="M211.412114 131.613257v723.456l73.142857-32.782628V98.816l-73.142857 32.797257z" fill="#CECEF9" /><path d="M211.412114 855.069257l518.378057 77.458286 73.142858-32.782629-518.378058-77.472914-73.142857 32.797257z" fill="#CECEF9" /><path d="M729.790171 932.527543V340.845714l73.142858-32.797257v591.696457l-73.142858 32.782629z" fill="#CECEF9" /><path d="M729.790171 340.845714l-116.209371-149.138285 73.142857-32.797258 116.209372 149.138286-73.142858 32.782629zM613.5808 191.707429l73.142857-32.797258-73.142857 32.797258zM390.846171 390.4512l217.073372 180.1216 73.142857-32.782629L463.989029 357.668571l-73.142858 32.782629z" fill="#CECEF9" /><path d="M607.919543 570.5728l-217.073372 115.258514 73.142858-32.797257 217.073371-115.243886-73.142857 32.782629z" fill="#CECEF9" /><path d="M390.846171 685.831314V390.436571l73.142858-32.782628V653.019429l-73.142858 32.797257zM390.846171 390.4512l73.142858-32.782629-73.142858 32.782629zM131.657143 119.690971C131.657143 85.723429 148.1728 58.602057 172.587886 46.7968l73.142857-32.797257C221.301029 25.819429 204.8 52.955429 204.8 86.893714L131.657143 119.690971z" fill="#CECEF9" /><path d="M172.587886 46.7968a65.901714 65.901714 0 0 1 38.824228-5.617371l73.142857-32.797258a65.901714 65.901714 0 0 0-38.824228 5.617372l-73.142857 32.797257zM809.545143 944.449829c0 33.952914-16.530286 61.074286-40.930743 72.894171l73.142857-32.797257c24.415086-11.805257 40.916114-38.926629 40.916114-72.894172l-73.142857 32.797258z" fill="#CECEF9" /><path d="M768.6144 1017.344c-11.498057 5.558857-24.722286 7.723886-38.824229 5.617371l73.142858-32.782628a65.901714 65.901714 0 0 0 38.824228-5.632l-73.142857 32.797257zM211.412114 945.503086C167.350857 938.920229 131.657143 893.103543 131.657143 843.146971l73.142857-32.782628c0 49.941943 35.693714 95.773257 79.754971 102.356114l-73.142857 32.782629z" fill="#CECEF9" /><path d="M131.657143 119.690971c0-49.941943 35.693714-85.0944 79.754971-78.511542l435.2 65.024L809.545143 315.304229v629.1456c0 49.941943-35.708343 85.0944-79.754972 78.511542L211.412114 945.503086C167.350857 938.920229 131.657143 893.074286 131.657143 843.146971V119.690971z m481.923657 72.016458L211.412114 131.613257v723.456l518.378057 77.458286V340.845714l-116.209371-149.138285zM390.846171 390.436571l217.073372 180.1216-217.073372 115.258515V390.436571z" fill="#4E5969" /></svg>