<?xml version="1.0" standalone="no"?><!DOCTYPE svg PUBLIC "-//W3C//DTD SVG 1.1//EN" "http://www.w3.org/Graphics/SVG/1.1/DTD/svg11.dtd"><svg class="icon" width="200px" height="200.00px" viewBox="0 0 1024 1024" version="1.1" xmlns="http://www.w3.org/2000/svg"><path d="M518.288384 91.640123l104.574031 250.911508 78.769231-35.320123-104.574031-250.911508-78.769231 35.320123z" fill="#CECEF9" /><path d="M622.862415 342.551631l233.834338 72.672492 78.769231-35.320123-233.834338-72.672492-78.769231 35.320123zM887.716076 525.863385l-169.196307 157.869292 78.76923-35.304369 169.196308-157.853539-78.769231 35.288616zM718.519769 683.732677l39.936 264.570092 78.76923-35.304369-39.936-264.570092-78.76923 35.304369zM677.228938 1001.692554l-209.132308-153.332185 78.769231-35.320123 209.132308 153.347939-78.769231 35.304369z" fill="#CECEF9" /><path d="M468.09663 848.344615l-209.148061 90.852431 78.76923-35.320123 209.148062-90.836677-78.769231 35.320123zM177.737492 861.530585l39.936-252.628677 78.76923-35.320123-39.936 252.64443-78.76923 35.30437z" fill="#CECEF9" /><path d="M217.673492 608.886154L48.477184 400.462769l78.769231-35.288615 169.196307 208.423384-78.76923 35.288616zM79.496507 299.086769l233.834339-2.788431 78.76923-35.320123-233.834338 2.788431-78.769231 35.320123z" fill="#CECEF9" /><path d="M313.330846 296.298338l104.558276-219.655876 78.769231-35.320124-104.558277 219.655877-78.76923 35.320123zM417.904876 76.642462l78.769231-35.320124-78.769231 35.320124zM468.09663 195.914831l-82.266584 172.819692 78.76923-35.320123 82.266585-172.819692-78.769231 35.320123z" fill="#CECEF9" /><path d="M343.672753 396.429785l-183.941907 2.205538 78.76923-35.320123 183.941908-2.205538-78.769231 35.320123z" fill="#CECEF9" /><path d="M159.730846 398.619569l133.12 163.981785 78.76923-35.320123-133.12-163.966031-78.76923 35.304369zM308.935522 620.024123l-31.428923 198.750523 78.769231-35.320123 31.428923-198.750523-78.769231 35.320123zM277.506599 818.774646l164.53317-71.4752 78.76923-35.304369-164.533169 71.459446-78.769231 35.320123zM494.137738 755.081846l164.533169 120.642954 78.769231-35.304369-164.533169-120.642954-78.769231 35.320123z" fill="#CECEF9" /><path d="M658.670907 875.7248l-31.413169-208.139815 78.769231-35.30437 31.413169 208.139816-78.769231 35.304369zM643.358169 614.967138l133.12-124.187569 78.76923-35.304369-133.12 124.187569-78.76923 35.304369zM776.462415 490.779569L592.504753 433.608862l78.769231-35.30437 183.957662 57.170708-78.769231 35.304369zM550.363215 393.310523l-82.266585-197.395692 78.769231-35.304369 82.266585 197.395692-78.769231 35.304369zM468.09663 195.914831l78.769231-35.304369-78.769231 35.304369zM417.904876 76.642462c4.9152-10.366031 12.0832-17.723077 20.401231-22.244431l78.769231-35.304369c-8.318031 4.521354-15.486031 11.8784-20.401231 22.228676l-78.769231 35.320124z" fill="#CECEF9" /><path d="M438.306107 54.398031c26.371938-14.304492 64.385969-0.2048 79.982277 37.242092l78.769231-35.320123C581.477061 18.904615 543.447276 4.773415 517.075338 19.093662l-78.769231 35.304369zM856.696753 415.224123c45.906708 14.257231 64.244185 79.651446 31.019323 110.655015l78.769231-35.320123c33.224862-30.987815 14.887385-96.382031-31.035077-110.655015l-78.769231 35.320123zM758.455769 948.302769c4.395323 29.097354-8.727631 51.798646-28.325416 60.841354l78.769231-35.304369c19.597785-9.058462 32.720738-31.744 28.325415-60.841354l-78.76923 35.304369z" fill="#CECEF9" /><path d="M730.130353 1009.144123c-15.407262 7.120738-34.816 5.797415-52.901415-7.451569l78.769231-35.304369c18.069662 13.248985 37.494154 14.556554 52.901415 7.451569l-78.769231 35.304369zM258.948569 939.197046c-41.070277 17.833354-89.056492-28.0576-81.211077-77.666461l78.76923-35.30437c-7.845415 49.608862 40.1408 95.499815 81.211077 77.666462l-78.76923 35.288615zM48.477184 400.462769c-27.915815-34.374892-19.440246-82.140554 11.185231-96.886154l78.769231-35.304369c-30.625477 14.729846-39.101046 62.511262-11.185231 96.886154l-78.769231 35.320123z" fill="#CECEF9" /><path d="M59.678169 303.576615c5.828923-2.804185 12.477046-4.411077 19.818338-4.489846l78.769231-35.320123a46.631385 46.631385 0 0 0-19.818339 4.5056l-78.76923 35.304369zM385.814292 368.718769c-5.198769 10.964677-13.548308 19.156677-23.63077 23.693785l78.769231-35.320123c10.082462-4.521354 18.432-12.713354 23.630769-23.678031l-78.76923 35.304369z" fill="#CECEF9" /><path d="M362.183522 392.412554c-5.702892 2.552123-11.941415 3.938462-18.510769 4.017231l78.769231-35.30437a46.379323 46.379323 0 0 0 18.495015-4.032984l-78.76923 35.320123zM292.835092 562.601354c13.185969 16.242215 19.219692 37.714708 16.10043 57.422769l78.769231-35.320123c3.119262-19.692308-2.898708-41.1648-16.100431-57.422769l-78.76923 35.320123zM442.055522 747.299446c16.305231-7.089231 35.776985-4.159015 52.082216 7.798154l78.769231-35.320123c-16.305231-11.957169-35.776985-14.871631-52.09797-7.7824l-78.76923 35.304369zM627.257738 667.584985c-3.119262-20.637538 2.898708-40.298338 16.100431-52.617847l78.76923-35.304369c-13.201723 12.303754-19.219692 31.980308-16.10043 52.617846l-78.769231 35.30437zM592.504753 433.608862c-18.2272-5.671385-33.9968-20.732062-42.141538-40.298339l78.769231-35.304369c8.144738 19.550523 23.914338 34.626954 42.141538 40.298338l-78.769231 35.30437z" fill="#CECEF9" /><path d="M417.904876 76.626708c20.527262-43.134031 79.856246-34.264615 100.383508 15.013415l104.574031 250.895754 233.834338 72.672492c45.906708 14.272985 64.244185 79.6672 31.019323 110.670769L718.519769 683.716923l39.936 264.570092c7.845415 51.956185-40.156554 83.495385-81.226831 53.405539L468.09663 848.344615l-209.148061 90.852431c-41.070277 17.833354-89.056492-28.0576-81.211077-77.666461l39.936-252.628677-169.196308-208.423385c-33.224862-40.928492-14.887385-100.856123 31.035077-101.391754l233.818585-2.804184 104.57403-219.655877z m50.191754 119.288123l-82.266584 172.819692c-8.160492 17.108677-23.914338 27.474708-42.157293 27.695262l-183.941907 2.205538 133.12 163.966031c13.185969 16.242215 19.203938 37.714708 16.068923 57.422769l-31.41317 198.750523 164.53317-71.4752c16.305231-7.089231 35.792738-4.174769 52.097969 7.7824l164.533169 120.642954-31.413169-208.139815c-3.119262-20.637538 2.898708-40.298338 16.100431-52.617847l133.12-124.187569-183.973416-57.170707c-18.2272-5.671385-33.9968-20.732062-42.141538-40.298339l-82.266585-197.395692z" fill="#4E5969" /></svg>