<?xml version="1.0" standalone="no"?><!DOCTYPE svg PUBLIC "-//W3C//DTD SVG 1.1//EN" "http://www.w3.org/Graphics/SVG/1.1/DTD/svg11.dtd"><svg class="icon" width="200px" height="200.00px" viewBox="0 0 1024 1024" version="1.1" xmlns="http://www.w3.org/2000/svg"><path d="M210.424789 843.314479V130.048l72.112676-32.320901V810.979155l-72.112676 32.320901z" fill="#CECEF9" /><path d="M210.424789 130.048l523.956281 78.299944 72.112676-32.335324-523.970704-78.285521-72.112676 32.320901z" fill="#CECEF9" /><path d="M734.38107 208.347944V921.6l72.112676-32.320901V176.01262l-72.112676 32.335324z" fill="#CECEF9" /><path d="M734.38107 921.614423l-523.970704-78.299944 72.112676-32.320902 523.970704 78.299944-72.112676 32.320902zM210.424789 843.314479l72.112676-32.320902-72.112676 32.320902zM129.802817 118.005183v713.266479l72.112676-32.320901V85.669859L129.802817 118.005183zM207.900845 932.099606l528.989747 79.049915 72.112676-32.320901-528.989747-79.049916-72.112676 32.320902zM814.98862 933.657239V220.390761l72.112676-32.320902v713.266479l-72.112676 32.320901zM736.890592 119.562817L207.900845 40.527324l72.112676-32.335324 528.989747 79.035493-72.112676 32.335324z" fill="#CECEF9" /><path d="M207.900845 40.527324l72.112676-32.335324-72.112676 32.320901zM331.328901 326.439662l282.133634 42.15707 72.112676-32.320901-282.133634-42.171493-72.112676 32.335324z" fill="#CECEF9" /><path d="M613.462535 368.596732v-89.160112l72.112676-32.320902v89.14569l-72.112676 32.335324zM613.462535 279.43662l-282.133634-42.157071 72.112676-32.335324 282.133634 42.157071-72.112676 32.335324z" fill="#CECEF9" /><path d="M331.328901 237.279549v89.160113l72.112676-32.335324V204.944225l-72.112676 32.335324z" fill="#CECEF9" /><path d="M331.328901 326.439662l72.112676-32.335324-72.112676 32.335324zM472.395718 637.288563l72.112676-32.335324-72.112676 32.335324zM207.900845 40.512901c-12.749521-1.903775-24.489465-0.317296-34.772732 3.995043l72.112676-32.335324C255.524056 7.874704 267.249577 6.273803 279.999099 8.192l-72.112676 32.320901z" fill="#CECEF9" /><path d="M173.128113 44.493521C146.677183 55.555606 129.802817 84.530479 129.802817 118.005183L201.915493 85.669859C201.915493 52.209577 218.789859 23.220282 245.240789 12.17262l-72.112676 32.320901zM129.802817 831.271662c0 46.483831 32.551662 94.03493 78.083606 100.827944l72.112676-32.320902C234.481577 892.971268 201.915493 845.434592 201.915493 798.950761l-72.112676 32.320901zM736.890592 1011.163944c12.749521 1.889352 24.489465 0.302873 34.772732-3.995043l72.112676-32.335324c-10.283268 4.312338-22.023211 5.898817-34.75831 3.995043l-72.112676 32.320901z" fill="#CECEF9" /><path d="M771.663324 1007.168901c26.45093-11.062085 43.325296-40.036958 43.325296-73.511662l72.112676-32.320901c0 33.460282-16.874366 62.449577-43.325296 73.497239l-72.112676 32.335324zM814.98862 220.376338c0-46.483831-32.551662-94.006085-78.098028-100.813521l72.112676-32.335324c45.546366 6.807437 78.098028 54.344113 78.098028 100.827944l-72.112676 32.335324zM472.395718 637.288563a68.651268 68.651268 0 0 0-34.816 3.504676l72.112676-32.320901a68.608 68.608 0 0 1 34.816-3.519099l-72.112676 32.335324z" fill="#CECEF9" /><path d="M437.579718 640.793239c-27.085521 10.326535-45.791549 38.147606-45.791549 73.598198l72.112676-32.320902c0-35.465014 18.706028-63.286085 45.791549-73.598197l-72.112676 32.320901z" fill="#CECEF9" /><path d="M391.788169 714.391437c0 49.238535 36.085183 94.554141 80.607549 101.202929l72.112676-32.320901c-44.522366-6.648789-80.621972-51.964394-80.621971-101.20293l-72.112677 32.320902z" fill="#CECEF9" /><path d="M472.395718 815.594366c12.46107 1.87493 24.273127 0.504789 34.801578-3.504676l72.112676-32.335324a68.651268 68.651268 0 0 1-34.801578 3.519099l-72.112676 32.320901z" fill="#CECEF9" /><path d="M507.197296 812.08969c27.099944-10.326535 45.805972-38.147606 45.805972-73.598197l72.112676-32.335324c0 35.450592-18.706028 63.286085-45.805972 73.598197l-72.112676 32.335324z" fill="#CECEF9" /><path d="M553.003268 738.491493c0-49.252958-36.085183-94.554141-80.621972-101.20293l72.112676-32.335324c44.536789 6.648789 80.621972 51.964394 80.621972 101.20293l-72.112676 32.335324z" fill="#CECEF9" /><path d="M210.424789 843.314479V130.048l523.956281 78.299944V921.6l-523.970704-78.299944zM207.872 40.527324C162.354479 33.705465 129.802817 71.521352 129.802817 118.005183v713.266479c0 46.498254 32.551662 94.03493 78.083606 100.827944l529.018591 79.049915c45.531944 6.807437 78.083606-31.008451 78.083606-77.492282V220.390761c0-46.483831-32.551662-94.03493-78.098028-100.827944L207.886423 40.512901z m123.442479 285.926761l282.133634 42.15707v-89.160113l-282.133634-42.15707v89.160113z m141.052394 310.848901c-44.507944-6.663211-80.593127 27.864338-80.593127 77.102873s36.085183 94.554141 80.60755 101.20293c44.522366 6.663211 80.607549-27.864338 80.607549-77.102874 0-49.252958-36.085183-94.554141-80.621972-101.202929z" fill="#4E5969" /></svg>