<?xml version="1.0" standalone="no"?><!DOCTYPE svg PUBLIC "-//W3C//DTD SVG 1.1//EN" "http://www.w3.org/Graphics/SVG/1.1/DTD/svg11.dtd"><svg class="icon" width="200px" height="200.00px" viewBox="0 0 1024 1024" version="1.1" xmlns="http://www.w3.org/2000/svg"><path d="M105.273313 42.228537l364.131344 195.324179 76.41791-34.250507L181.691224 7.97803l-76.417911 34.250507z" fill="#CECEF9" /><path d="M469.404657 237.552716l364.131343-86.505074 76.41791-34.235224-364.131343 86.489791-76.41791 34.250507zM892.958567 206.022687v684.398806l76.417911-34.250508v-684.398806l-76.417911 34.265791zM863.216716 932.069254l-378.971701 90.020298 76.41791-34.250507 378.956418-90.020299-76.41791 34.250508zM454.564299 1017.657313l-378.971702-203.271641 76.41791-34.265791 378.971702 203.271641-76.41791 34.265791zM45.850746 763.842866V79.44406l76.417911-34.235224v684.368239l-76.417911 34.265791zM64.680119 42.36609l76.417911-34.265791-76.417911 34.265791zM424.822448 317.317731L135.015164 161.883701l76.417911-34.265791L501.255642 283.05194l-76.417911 34.250508z" fill="#CECEF9" /><path d="M135.015164 161.868418v580.699701l76.417911-34.235223V127.61791l-76.417911 34.250508z" fill="#CECEF9" /><path d="M135.015164 742.568119l289.807284 155.464597 76.41791-34.265791-289.792-155.449313-76.41791 34.250507z" fill="#CECEF9" /><path d="M424.822448 898.032716V317.317731l76.41791-34.250507v580.699701l-76.41791 34.265791zM424.822448 317.317731l76.41791-34.250507-76.41791 34.250507zM513.986866 911.36l289.792-68.852537 76.41791-34.265791-289.792 68.852537-76.41791 34.250507z" fill="#CECEF9" /><path d="M803.778866 842.507463V261.807761l76.41791-34.265791v580.714985l-76.41791 34.250508z" fill="#CECEF9" /><path d="M803.778866 261.807761L513.986866 330.645015l76.41791-34.250508 289.792-68.852537-76.41791 34.265791z" fill="#CECEF9" /><path d="M513.986866 330.645015v580.699701l76.41791-34.250507V296.394507l-76.41791 34.250508zM513.986866 911.36l76.41791-34.265791-76.41791 34.250507zM216.87403 266.729075l156.045373 84.426507 76.41791-34.250507-156.045373-84.426508-76.41791 34.250508zM372.934687 351.155582l-29.986388 87.590209 76.41791-34.250507 29.986388-87.590209-76.41791 34.250507z" fill="#CECEF9" /><path d="M342.948299 438.745791l-156.045374-84.411224 76.417911-34.265791 156.045373 84.426508-76.41791 34.250507zM186.902925 354.319284l29.986388-87.574926 76.417911-34.265791-29.986388 87.590209-76.417911 34.250508zM216.87403 266.729075l76.41791-34.250508-76.41791 34.250508zM751.906388 438.745791l-156.045373 37.796299 76.41791-34.250508 156.045374-37.796298-76.417911 34.250507z" fill="#CECEF9" /><path d="M595.861015 476.54209l-30.001672-96.546389 76.417911-34.265791 30.001671 96.561672-76.41791 34.250508z" fill="#CECEF9" /><path d="M565.859343 379.995701l156.045373-37.796298 76.417911-34.250507-156.045373 37.781014-76.417911 34.265791z" fill="#CECEF9" /><path d="M721.904716 342.199403l30.001672 96.561672 76.417911-34.265791-30.001672-96.546388-76.417911 34.250507zM751.906388 438.745791l76.417911-34.235224-76.417911 34.235224zM216.87403 437.828776l156.045373 84.426508 76.41791-34.250508-156.045373-84.426507-76.41791 34.250507z" fill="#CECEF9" /><path d="M372.934687 522.24l-29.986388 87.605493 76.41791-34.265792 29.986388-87.574925-76.41791 34.235224z" fill="#CECEF9" /><path d="M342.948299 609.845493l-156.045374-84.426508 76.417911-34.250507 156.045373 84.411223-76.41791 34.265792zM186.902925 525.418985l29.986388-87.574925 76.417911-34.265791-29.986388 87.574925-76.417911 34.265791zM216.87403 437.828776l76.41791-34.250507-76.41791 34.250507zM751.906388 609.845493l-156.045373 37.796298 76.41791-34.265791 156.045374-37.781015-76.417911 34.250508z" fill="#CECEF9" /><path d="M595.861015 647.641791l-30.001672-96.561672 76.417911-34.250507 30.001671 96.546388-76.41791 34.265791z" fill="#CECEF9" /><path d="M565.859343 551.080119l156.045373-37.781015 76.417911-34.265791-156.045373 37.796299-76.417911 34.250507zM721.904716 513.299104l30.001672 96.546389 76.417911-34.250508-30.001672-96.561672-76.417911 34.265791zM751.906388 609.845493l76.417911-34.250508-76.417911 34.250508zM216.87403 608.928478l156.045373 84.426507 76.41791-34.265791L293.29194 574.662687l-76.41791 34.265791zM372.934687 693.354985l-29.986388 87.574925 76.41791-34.235223 29.986388-87.605493-76.41791 34.265791z" fill="#CECEF9" /><path d="M342.948299 780.945194l-156.045374-84.426507 76.417911-34.265791 156.045373 84.426507-76.41791 34.265791z" fill="#CECEF9" /><path d="M186.902925 696.518687l29.986388-87.590209 76.417911-34.265791-29.986388 87.590209-76.417911 34.265791zM216.87403 608.928478l76.41791-34.265791-76.41791 34.265791zM751.906388 780.945194l-156.045373 37.796299 76.41791-34.265792 156.045374-37.781014-76.417911 34.250507z" fill="#CECEF9" /><path d="M595.861015 818.741493l-30.001672-96.561672 76.417911-34.265791 30.001671 96.561671-76.41791 34.250508z" fill="#CECEF9" /><path d="M565.859343 722.179821l156.045373-37.796299 76.417911-34.235223-156.045373 37.765731-76.417911 34.265791z" fill="#CECEF9" /><path d="M721.904716 684.398806l30.001672 96.546388 76.417911-34.250507-30.001672-96.561672-76.417911 34.265791zM751.906388 780.945194l76.417911-34.250507-76.417911 34.250507zM64.680119 42.36609a36.22209 36.22209 0 0 1 4.386388-2.353672l76.417911-34.250508a36.237373 36.237373 0 0 0-4.386388 2.338389l-76.417911 34.265791z" fill="#CECEF9" /><path d="M69.081791 40.012418c11.034746-4.951881 24.19391-4.218269 36.191522 2.216119l76.417911-34.250507C169.693612 1.543642 156.534448 0.794746 145.499701 5.76191l-76.41791 34.250508zM833.536 151.062925c13.632955-3.240119 28.778985 1.329672 40.57791 12.257433l76.417911-34.265791c-11.814209-10.927761-26.944955-15.497552-40.577911-12.257433l-76.41791 34.265791z" fill="#CECEF9" /><path d="M874.11391 163.305075a59.162746 59.162746 0 0 1 18.844657 42.732895l76.417911-34.265791c0-15.864358-7.030448-31.789851-18.844657-42.717612l-76.417911 34.250508zM892.943284 890.421493c0 17.408-8.40597 31.973254-21.656836 38.698029l76.41791-34.265791c13.250866-6.724776 21.656836-21.29003 21.656836-38.69803l-76.41791 34.265792z" fill="#CECEF9" /><path d="M871.286448 929.119522a36.497194 36.497194 0 0 1-8.085015 2.949732l76.41791-34.250508c2.85803-0.687761 5.563224-1.681194 8.085015-2.965015l-76.41791 34.265791zM484.229731 1022.089552c-9.59809 2.292537-20.067343 0.718328-29.665432-4.432239l76.41791-34.250507c9.59809 5.150567 20.067343 6.724776 29.680716 4.432239l-76.41791 34.250507zM75.592597 814.385672C57.77194 804.818149 45.850746 784.567403 45.850746 763.827582l76.417911-34.265791c0 20.724537 11.921194 40.975284 29.74185 50.542806l-76.41791 34.265791zM45.850746 79.459343C45.850746 63.579701 52.881194 49.763343 64.680119 42.36609l76.417911-34.265791C129.299104 15.497552 122.268657 29.344478 122.268657 45.193552L45.850746 79.474627z" fill="#CECEF9" /><path d="M64.680119 42.350806c11.814209-7.397254 26.944955-7.443104 40.593194-0.122269l364.131344 195.324179 364.131343-86.505074c13.632955-3.240119 28.778985 1.329672 40.57791 12.257433a59.162746 59.162746 0 0 1 18.844657 42.732895V890.421493c0 20.724537-11.921194 37.414209-29.757134 41.647761l-378.956418 90.020298c-9.613373 2.292537-20.082627 0.718328-29.680716-4.432239l-378.971702-203.271641C57.77194 804.802866 45.850746 784.552119 45.850746 763.812299V79.44406C45.850746 63.579701 52.881194 49.763343 64.680119 42.350806z m360.142329 274.966925L135.015164 161.868418v580.699701l289.807284 155.449314V317.317731zM513.986866 911.36l289.792-68.837254V261.807761L513.986866 330.645015v580.699701zM216.889313 266.729075l156.045374 84.426507-29.986388 87.590209-156.045374-84.426507 29.986388-87.574926z m535.017075 172.016716l-156.045373 37.796299-29.986388-96.561672 156.045373-37.781015 29.986388 96.546388z m-535.017075-0.917015l156.045374 84.426508-29.986388 87.574925-156.045374-84.411224 29.986388-87.590209z m535.017075 172.016717l-156.045373 37.781014-29.986388-96.546388 156.045373-37.796298 29.986388 96.561672z m-535.017075-0.917015l156.045374 84.411223-29.986388 87.590209-156.045374-84.411223 29.986388-87.590209z m535.017075 172.016716l-156.045373 37.781015-29.986388-96.546388 156.045373-37.796299 29.986388 96.561672z" fill="#4E5969" /></svg>