<?xml version="1.0" standalone="no"?><!DOCTYPE svg PUBLIC "-//W3C//DTD SVG 1.1//EN" "http://www.w3.org/Graphics/SVG/1.1/DTD/svg11.dtd"><svg class="icon" width="200px" height="200.00px" viewBox="0 0 1024 1024" version="1.1" xmlns="http://www.w3.org/2000/svg"><path d="M785.525508 666.942951l92.210361 40.305311 83.934426-37.61941-92.210361-40.288524-83.934426 37.602623zM796.000525 274.818098V150.292984l83.934426-37.61941v124.525115l-83.934426 37.619409z" fill="#CECEF9" /><path d="M796.000525 150.292984l95.315934 14.235278 83.934426-37.61941-95.315934-14.235278-83.934426 37.61941z" fill="#CECEF9" /><path d="M891.316459 164.528262v318.900459l83.934426-37.61941V126.908852l-83.934426 37.61941z" fill="#CECEF9" /><path d="M891.316459 483.428721l-285.914229-42.722623 83.934426-37.636196 285.914229 42.739409-83.934426 37.602623z" fill="#CECEF9" /><path d="M605.40223 440.706098V334.394754l83.934426-37.636197v106.294558l-83.934426 37.636196z" fill="#CECEF9" /><path d="M605.40223 334.394754l130.803409 19.556721 83.934427-37.619409-130.80341-19.556722-83.934426 37.636197zM462.445115 153.6l83.934426-37.636197-83.934426 37.636197zM462.445115 153.6c-51.569311-7.721967-100.419148-1.947279-144.014689 14.856393l83.934426-37.636196c43.595541-16.786885 92.445377-22.561574 144.014689-14.856394l-83.934426 37.636197z" fill="#CECEF9" /><path d="M318.447213 168.456393C206.31082 211.649049 128.856131 327.847869 128.856131 475.790689l83.934426-37.61941c0-147.94282 77.454689-264.141639 189.557509-307.351082l-83.934427 37.636196zM128.872918 475.790689c0 205.471475 149.403279 394.374295 333.55541 421.888l83.934426-37.61941c-184.152131-27.530492-333.55541-216.416525-333.55541-421.888l-83.934426 37.61941zM462.445115 897.678689c55.917115 8.359869 108.627934 0.872918 154.942951-19.355279l83.934426-37.61941c-46.315016 20.228197-99.025836 27.698361-154.942951 19.355279l-83.934426 37.61941z" fill="#CECEF9" /><path d="M617.388066 878.32341c82.306098-35.957508 144.350426-112.220328 168.137442-211.363672l83.934426-37.636197c-23.787016 99.160131-85.831344 175.422951-168.137442 211.380459l-83.934426 37.61941zM877.735869 707.248262c-28.604852 119.522623-100.419148 213.193443-196.473705 262.546886l83.934426-37.61941c96.054557-49.37023 167.868852-143.041049 196.473705-262.546886l-83.934426 37.61941z" fill="#CECEF9" /><path d="M681.262164 969.795148c-64.041967 32.902295-138.861115 46.130361-218.817049 34.178098l83.934426-37.61941c79.955934 11.952262 154.775082-1.275803 218.817049-34.178098l-83.934426 37.61941z" fill="#CECEF9" /><path d="M462.445115 1003.973246C225.615738 968.603279 33.57377 725.730623 33.57377 461.55541l83.934427-37.636197C117.508197 688.094426 309.550164 930.983869 546.379541 966.370623l-83.934426 37.61941z" fill="#CECEF9" /><path d="M33.57377 461.55541C33.57377 281.918951 122.376393 138.659672 253.666623 76.514623l83.934426-37.61941C206.31082 101.040262 117.508197 244.282754 117.508197 423.919213l-83.934427 37.636197z" fill="#CECEF9" /><path d="M253.666623 76.514623c61.775738-29.242754 132.985705-40.540328 208.778492-29.20918l83.934426-37.636197c-75.792787-11.314361-146.985967-0.033574-208.778492 29.20918l-83.934426 37.636197z" fill="#CECEF9" /><path d="M462.445115 47.305443c134.849049 20.144262 254.925639 107.436066 333.55541 227.512655l83.934426-37.619409C801.30518 117.105311 681.22859 29.830295 546.379541 9.669246l-83.934426 37.636197z" fill="#CECEF9" /><path d="M736.205639 353.951475c-60.281705-105.438426-160.348328-183.413508-273.760524-200.351475l83.934426-37.636197c113.412197 16.954754 213.47882 94.913049 273.760525 200.368263l-83.934427 37.619409z" fill="#CECEF9" /><path d="M462.445115 153.6c-184.185705-27.530492-333.55541 116.719213-333.55541 322.190689 0 205.471475 149.369705 394.374295 333.55541 421.888 155.345836 23.216262 285.91423-75.792787 323.080393-230.718951l92.210361 40.288524c-47.674754 199.176393-215.392525 326.605639-415.307541 296.724984C225.615738 968.603279 33.57377 725.730623 33.57377 461.55541 33.57377 197.380197 225.615738 11.918689 462.445115 47.305443c134.849049 20.144262 254.925639 107.436066 333.55541 227.512655V150.292984l95.315934 14.235278v318.900459l-285.914229-42.722623V334.394754l130.803409 19.539935c-60.281705-105.438426-160.348328-183.413508-273.760524-200.351476z" fill="#4E5969" /></svg>