<?xml version="1.0" standalone="no"?><!DOCTYPE svg PUBLIC "-//W3C//DTD SVG 1.1//EN" "http://www.w3.org/Graphics/SVG/1.1/DTD/svg11.dtd"><svg class="icon" width="200px" height="200.00px" viewBox="0 0 1024 1024" version="1.1" xmlns="http://www.w3.org/2000/svg"><path d="M402.663226 141.923097L385.569032 38.647742l82.580645-37.029161 17.094194 103.308387-82.580645 37.012645zM148.48 825.789935L67.550968 901.12l82.580645-37.012645 80.962064-75.363097-82.580645 37.029161zM67.534452 901.136516l229.029161 34.221419 82.580645-37.012645L150.098581 864.123871l-82.580646 37.012645z" fill="#CECEF9" /><path d="M296.547097 935.357935V688.061935l82.580645-37.012645v247.296l-82.580645 37.012645z" fill="#CECEF9" /><path d="M296.563613 688.061935l-80.995097 75.313549 82.580645-36.996129 80.995097-75.330065-82.580645 37.012645zM215.568516 220.16l82.580645-37.012645-82.580645 37.012645zM866.634323 157.679484L637.621677 123.458065l82.580646-37.012646 229.012645 34.22142-82.580645 37.012645z" fill="#CECEF9" /><path d="M637.621677 123.458065v247.296l82.580646-37.012646V86.445419l-82.580646 37.012646z" fill="#CECEF9" /><path d="M637.621677 370.754065l80.962065-75.346581 82.580645-37.012645-80.962064 75.34658-82.580646 37.012646zM531.489032 916.876387l17.094194 103.308387 82.580645-37.012645-17.094194-103.324903-82.580645 37.029161zM785.655742 233.009548l80.978581-75.313548 82.580645-37.029161-80.978581 75.313548-82.580645 37.029161zM866.634323 157.679484l82.580645-37.012645-82.580645 37.012645zM215.568516 220.16a291.394065 291.394065 0 0 1 76.469678-51.464258l82.580645-37.012645a291.394065 291.394065 0 0 0-76.469678 51.464258l-82.580645 37.012645z" fill="#CECEF9" /><path d="M292.038194 168.695742a297.224258 297.224258 0 0 1 110.625032-26.756129l82.580645-37.029161c-38.366968 1.849806-75.809032 10.685935-110.625032 26.756129l-82.580645 37.029161zM385.569032 38.631226a377.988129 377.988129 0 0 0-130.741677 29.696l82.580645-37.012645A377.988129 377.988129 0 0 1 468.149677 1.602065l-82.580645 37.029161z" fill="#CECEF9" /><path d="M254.843871 68.327226a368.260129 368.260129 0 0 0-106.347355 69.367742l82.580645-37.012645a368.243613 368.243613 0 0 1 106.330839-69.367742l-82.580645 37.012645z" fill="#CECEF9" /><path d="M148.48 137.694968C-27.466323 301.419355-27.466323 609.478194 148.48 825.806452l82.580645-37.029162c-175.962839-216.295226-175.962839-524.370581 0-688.078451l-82.580645 37.012645z" fill="#CECEF9" /><path d="M215.568516 763.375484c-138.933677-170.760258-138.933677-413.960258 0-543.215484l82.580645-37.012645c-138.933677 129.255226-138.933677 372.43871 0 543.215484l-82.580645 37.029161zM718.583742 295.407484c138.917161 170.776774 138.917161 413.99329 0 543.248516l82.580645-37.029161c138.917161-129.23871 138.917161-372.471742 0-543.248516l-82.580645 37.029161z" fill="#CECEF9" /><path d="M718.583742 838.656a291.509677 291.509677 0 0 1-76.469677 51.447742l82.580645-37.029161a291.54271 291.54271 0 0 0 76.469677-51.447742l-82.580645 37.029161z" fill="#CECEF9" /><path d="M642.130581 890.103742a297.240774 297.240774 0 0 1-110.658065 26.756129l82.580645-37.012645a297.191226 297.191226 0 0 0 110.658065-26.756129l-82.580645 36.996129zM548.583226 1020.20129a378.268903 378.268903 0 0 0 130.725161-29.729032l82.580645-37.029161a378.235871 378.235871 0 0 1-130.725161 29.729032l-82.580645 37.012645z" fill="#CECEF9" /><path d="M679.308387 990.472258a368.309677 368.309677 0 0 0 106.347355-69.367742l82.580645-37.029161a368.309677 368.309677 0 0 1-106.347355 69.367742l-82.580645 37.029161z" fill="#CECEF9" /><path d="M785.655742 921.104516c175.962839-163.724387 175.962839-471.783226 0-688.094968l82.580645-37.012645c175.962839 216.295226 175.962839 524.370581 0 688.078452l-82.580645 37.029161z" fill="#CECEF9" /><path d="M215.568516 220.16c53.049806-49.350194 118.585806-74.933677 187.09471-78.236903L385.569032 38.647742c-86.858323 4.178581-169.984 36.64929-237.072516 99.063742C-27.482839 301.419355-27.482839 609.478194 148.48 825.806452L67.534452 901.12l229.029161 34.221419V688.061935l-80.995097 75.313549c-138.933677-170.760258-138.933677-413.960258 0-543.215484z m651.065807-62.480516L637.621677 123.458065v247.296l80.962065-75.346581c138.917161 170.776774 138.917161 413.99329 0 543.248516-53.049806 49.333677-118.552774 74.900645-187.09471 78.220387l17.094194 103.308387c86.841806-4.195097 169.967484-36.665806 237.072516-99.096774 175.962839-163.707871 175.962839-471.76671 0-688.078452l80.978581-75.313548z" fill="#4E5969" /></svg>