<?xml version="1.0" standalone="no"?><!DOCTYPE svg PUBLIC "-//W3C//DTD SVG 1.1//EN" "http://www.w3.org/Graphics/SVG/1.1/DTD/svg11.dtd"><svg class="icon" width="200px" height="200.00px" viewBox="0 0 1024 1024" version="1.1" xmlns="http://www.w3.org/2000/svg"><path d="M646.614588 262.987294l75.294118-33.761882-75.294118 33.761882zM735.265882 770.138353l152.154353 189.786353 75.294118-33.746824L810.56 736.376471l-75.294118 33.761882z" fill="#CECEF9" /><path d="M887.420235 959.924706l-60.205176 57.118118 75.294117-33.746824 60.205177-57.118118-75.294118 33.746824z" fill="#CECEF9" /><path d="M827.215059 1017.042824L675.060706 827.241412l75.294118-33.746824 152.154352 189.801412-75.294117 33.746824zM164.973176 124.897882l75.294118-33.746823-75.294118 33.746823zM646.614588 262.987294C553.505882 146.823529 414.136471 105.562353 302.520471 150.226824l75.294117-33.746824c111.616-44.664471 250.985412-3.388235 344.094118 112.745412l-75.294118 33.761882z" fill="#CECEF9" /><path d="M302.535529 150.226824a243.486118 243.486118 0 0 0-77.342117 49.78447l75.294117-33.761882a243.501176 243.501176 0 0 1 77.342118-49.769412l-75.294118 33.746824zM225.193412 200.011294c-116.389647 110.366118-116.389647 317.500235 0 462.682353l75.294117-33.761882c-116.389647-145.167059-116.389647-352.316235 0-462.667294l-75.294117 33.746823z" fill="#CECEF9" /><path d="M225.193412 662.693647c93.093647 116.103529 232.463059 157.379765 344.079059 112.730353l75.294117-33.746824c-111.616 44.649412-250.985412 3.373176-344.079059-112.745411l-75.294117 33.761882z" fill="#CECEF9" /><path d="M569.272471 775.424a243.576471 243.576471 0 0 0 77.342117-49.754353l75.294118-33.761882a243.576471 243.576471 0 0 1-77.342118 49.769411l-75.294117 33.746824z" fill="#CECEF9" /><path d="M646.614588 725.669647c116.359529-110.396235 116.359529-317.545412 0-462.682353l75.294118-33.761882c116.359529 145.152 116.359529 352.286118 0 462.682353l-75.294118 33.761882zM164.973176 124.897882a314.955294 314.955294 0 0 1 78.21553-54.543058l75.294118-33.746824a314.970353 314.970353 0 0 0-78.21553 54.543059l-75.294118 33.746823z" fill="#CECEF9" /><path d="M243.188706 70.354824c146.672941-71.905882 337.950118-21.232941 463.616 135.514352l75.294118-33.746823c-125.665882-156.762353-316.943059-207.420235-463.631059-135.529412l-75.294118 33.761883z" fill="#CECEF9" /><path d="M706.804706 205.854118c139.444706 173.959529 148.931765 417.129412 28.461176 564.284235l75.294118-33.761882c120.470588-147.139765 110.983529-390.324706-28.461176-564.254118l-75.294118 33.731765zM675.060706 827.241412c-12.047059 8.779294-24.515765 16.594824-37.376 23.431529l75.294118-33.761882a311.521882 311.521882 0 0 0 37.376-23.416471l-75.294118 33.746824z" fill="#CECEF9" /><path d="M637.684706 850.672941c-147.772235 78.607059-344.395294 29.138824-472.696471-130.891294l75.294118-33.761882c128.301176 160.045176 324.924235 209.498353 472.696471 130.891294l-75.294118 33.761882zM164.973176 719.781647c-149.609412-186.624-149.609412-452.954353 0-594.883765l75.294118-33.746823c-149.609412 141.929412-149.609412 408.244706 0 594.868706l-75.294118 33.761882z" fill="#CECEF9" /><path d="M646.614588 262.987294C530.224941 117.820235 341.552941 89.6 225.193412 200.011294c-116.389647 110.366118-116.389647 317.500235 0 462.682353 116.359529 145.136941 305.031529 173.327059 421.421176 62.976 116.359529-110.396235 116.359529-317.545412 0-462.682353zM164.973176 124.897882c149.639529-141.899294 392.222118-105.652706 541.83153 80.971294 139.444706 173.944471 148.931765 417.129412 28.461176 564.254118l152.154353 189.801412-60.205176 57.118118-152.154353-189.801412c-150.437647 109.778824-370.627765 66.484706-510.08753-107.459765-149.609412-186.624-149.609412-452.954353 0-594.883765z" fill="#4E5969" /></svg>