<?xml version="1.0" standalone="no"?><!DOCTYPE svg PUBLIC "-//W3C//DTD SVG 1.1//EN" "http://www.w3.org/Graphics/SVG/1.1/DTD/svg11.dtd"><svg class="icon" width="200px" height="200.00px" viewBox="0 0 1024 1024" version="1.1" xmlns="http://www.w3.org/2000/svg"><path d="M687.089159 314.204754v23.522318l74.202899-33.272579V280.932174l-74.202899 33.27258z" fill="#CECEF9" /><path d="M687.089159 337.727072l108.232348 16.176232 74.202899-33.272579-108.232348-16.176232-74.202899 33.272579zM881.91629 460.933565V931.394783l74.202898-33.25774V427.660986l-74.202898 33.272579zM795.336348 1012.572754L145.942261 915.515362l74.202898-33.242898 649.394087 97.02771-74.202898 33.27258zM59.362319 808.499942V338.023884l74.202898-33.27258v470.476058L59.362319 808.514783zM145.942261 256.860754l108.232348 16.176232 74.202898-33.27258-108.217507-16.176232-74.202899 33.27258z" fill="#CECEF9" /><path d="M254.174609 273.036986v-23.522319l74.202898-33.27258v23.522319l-74.202898 33.27258z" fill="#CECEF9" /><path d="M254.174609 249.514667l74.202898-33.27258-74.202898 33.27258zM340.754551 285.977971l259.754666 38.808116 74.202899-33.27258-259.754667-38.808116-74.202898 33.27258z" fill="#CECEF9" /><path d="M600.509217 324.786087V301.263768l74.202899-33.27258v23.522319l-74.202899 33.27258zM340.754551 262.440812v23.522318l74.202898-33.257739v-23.522319l-74.202898 33.25774zM340.754551 285.977971l74.202898-33.27258-74.202898 33.27258zM145.942261 350.950029v470.490899l74.202898-33.27258V317.69229l-74.202898 33.257739z" fill="#CECEF9" /><path d="M145.942261 821.426087l649.394087 97.057391 74.202898-33.272579-649.394087-97.042551-74.202898 33.27258z" fill="#CECEF9" /><path d="M795.321507 918.483478V447.977739l74.202899-33.257739v470.476058l-74.202899 33.257739z" fill="#CECEF9" /><path d="M795.336348 447.99258L145.942261 350.950029l74.202898-33.257739 649.394087 97.042551-74.202898 33.257739zM145.942261 350.950029l74.202898-33.257739-74.202898 33.257739zM470.639304 587.672116l74.202899-33.27258-74.202899 33.27258zM340.754551 615.305275l74.202898-33.257739-74.202898 33.257739zM254.174609 249.514667c0-88.345971 44.818551-158.616116 111.081739-188.935421l74.202898-33.257739c-66.263188 30.304464-111.081739 100.574609-111.081739 188.92058l-74.202898 33.27258z" fill="#CECEF9" /><path d="M365.256348 60.579246c31.194899-14.261797 67.123942-19.678609 105.382956-13.964985l74.202899-33.257739c-38.259014-5.728464-74.202899-0.296812-105.368116 13.950145l-74.202899 33.272579zM470.639304 46.614261c119.54087 17.868058 216.464696 137.661217 216.464696 267.575652l74.202899-33.242899c0-129.929275-96.908986-249.737275-216.464696-267.590492l-74.202899 33.257739zM795.321507 353.888464c47.816348 7.153159 86.594783 55.058551 86.594783 107.045101l74.202898-33.272579c0-51.97171-38.778435-99.877101-86.594782-107.030261l-74.202899 33.257739zM881.91629 931.409623c0 35.33542-17.92742 63.443478-44.432696 75.568232l74.202899-33.257739c26.505275-12.124754 44.432696-40.232812 44.432695-75.568232l-74.202898 33.257739z" fill="#CECEF9" /><path d="M837.483594 1006.977855c-12.480928 5.713623-26.861449 7.865507-42.147246 5.594899l74.202898-33.27258c15.285797 2.285449 29.666319 0.118725 42.147247-5.580058l-74.202899 33.257739zM145.942261 915.530203C98.125913 908.377043 59.362319 860.471652 59.362319 808.499942l74.202898-33.27258c0 51.97171 38.763594 99.891942 86.579942 107.045102l-74.202898 33.257739zM59.362319 338.023884c0-35.350261 17.92742-63.458319 44.432695-75.583072l74.202899-33.25774C151.492638 241.307826 133.565217 269.415884 133.565217 304.751304l-74.202898 33.27258z" fill="#CECEF9" /><path d="M103.795014 262.440812c12.466087-5.698783 26.861449-7.865507 42.147247-5.580058l74.202898-33.27258c-15.285797-2.285449-29.681159-0.118725-42.147246 5.594898l-74.202899 33.25774zM600.509217 301.263768c0-77.957565-58.145391-149.830493-129.869913-160.560232l74.202899-33.257739c71.724522 10.714899 129.869913 82.602667 129.869913 160.545391l-74.202899 33.27258z" fill="#CECEF9" /><path d="M470.639304 140.718377c-20.079304-3.012638-39.104928-0.890435-56.08255 5.416811l74.202898-33.272579c16.977623-6.307246 36.003246-8.414609 56.082551-5.416812l-74.202899 33.27258z" fill="#CECEF9" /><path d="M414.556754 146.135188c-43.646145 16.220754-73.802203 60.193391-73.802203 116.305624l74.202898-33.25774c0-56.127072 30.156058-100.09971 73.802203-116.320463l-74.202898 33.272579zM470.639304 587.672116a37.427942 37.427942 0 0 0-18.69913 1.79571l74.202898-33.257739c5.654261-2.107362 12.006029-2.81971 18.699131-1.810551l-74.202899 33.27258z" fill="#CECEF9" /><path d="M451.940174 589.467826c-14.543768 5.416812-24.590841 20.064464-24.590841 38.778435l74.202899-33.27258c0-18.69913 10.047072-33.361623 24.59084-38.763594l-74.202898 33.257739z" fill="#CECEF9" /><path d="M427.349333 628.246261c0 25.971014 19.381797 49.938551 43.289971 53.51513l74.202899-33.272579c-23.908174-3.561739-43.289971-27.529275-43.289971-53.515131l-74.202899 33.27258zM470.639304 681.776232c6.693101 0.994319 13.030029 0.296812 18.699131-1.825391l74.202898-33.25774c-5.669101 2.107362-12.006029 2.81971-18.69913 1.810551l-74.202899 33.257739z" fill="#CECEF9" /><path d="M489.323594 679.950841c14.543768-5.401971 24.605681-20.064464 24.605681-38.763595l74.202899-33.272579c0 18.69913-10.047072 33.361623-24.605681 38.778434l-74.202899 33.25774z" fill="#CECEF9" /><path d="M513.929275 641.187246c0-25.985855-19.381797-49.953391-43.289971-53.51513l74.202899-33.27258c23.908174 3.561739 43.289971 27.529275 43.289971 53.515131l-74.202899 33.272579zM340.754551 615.305275c0-53.010551 26.89113-95.172638 66.649043-113.352347l74.202899-33.27258c-39.757913 18.194551-66.634203 60.356638-66.634203 113.367188l-74.202899 33.257739z" fill="#CECEF9" /><path d="M407.418435 501.952928c18.69913-8.563014 40.262493-11.813101 63.220869-8.384928l74.202899-33.257739c-22.958377-3.428174-44.521739-0.178087-63.22087 8.370087l-74.202898 33.27258z" fill="#CECEF9" /><path d="M470.639304 493.568c71.724522 10.714899 129.869913 82.602667 129.869913 160.545391l74.202899-33.257739c0-77.957565-58.145391-149.830493-129.869913-160.545391l-74.202899 33.257739zM600.509217 654.113391c0 53.010551-26.89113 95.172638-66.634203 113.367189l74.202899-33.27258c39.743072-18.17971 66.634203-60.341797 66.634203-113.352348l-74.202899 33.257739z" fill="#CECEF9" /><path d="M533.860174 767.48058c-18.69913 8.548174-40.262493 11.798261-63.22087 8.370087l74.202899-33.257739c22.958377 3.428174 44.521739 0.178087 63.220869-8.384928l-74.202898 33.27258z" fill="#CECEF9" /><path d="M470.639304 775.865507c-71.724522-10.729739-129.884754-82.602667-129.884753-160.560232l74.202898-33.257739c0 77.942725 58.160232 149.830493 129.884754 160.545392l-74.202899 33.272579z" fill="#CECEF9" /><path d="M254.174609 249.514667c0-129.929275 96.908986-220.768464 216.464695-202.900406 119.54087 17.868058 216.449855 137.661217 216.449855 267.575652v23.537159l108.232348 16.176232c47.816348 7.138319 86.594783 55.058551 86.594783 107.030261V931.394783c0 51.97171-38.778435 88.301449-86.594783 81.16313L145.942261 915.515362C98.125913 908.377043 59.362319 860.471652 59.362319 808.499942V338.023884c0-51.97171 38.763594-88.301449 86.579942-81.16313l108.232348 16.176232v-23.522319z m86.579942 36.463304l259.754666 38.808116V301.263768c0-77.957565-58.145391-149.830493-129.869913-160.560232-71.739362-10.714899-129.884754 43.77971-129.884753 121.737276v23.522318zM145.942261 350.950029v470.490899l649.379246 97.02771V447.99258L145.942261 350.950029z m324.697043 236.707246c-23.908174-3.561739-43.289971 14.60313-43.289971 40.588986 0 25.971014 19.381797 49.938551 43.289971 53.51513 23.893333 3.561739 43.289971-14.58829 43.289971-40.574145s-19.381797-49.953391-43.289971-53.51513z m-129.884753 27.648c0-77.942725 58.160232-132.452174 129.884753-121.737275 71.724522 10.714899 129.869913 82.602667 129.869913 160.560232 0 77.942725-58.145391 132.452174-129.869913 121.722435-71.739362-10.714899-129.884754-82.587826-129.884753-160.545392z" fill="#4E5969" /></svg>