<?xml version="1.0" standalone="no"?><!DOCTYPE svg PUBLIC "-//W3C//DTD SVG 1.1//EN" "http://www.w3.org/Graphics/SVG/1.1/DTD/svg11.dtd"><svg class="icon" width="200px" height="200.00px" viewBox="0 0 1024 1024" version="1.1" xmlns="http://www.w3.org/2000/svg"><path d="M458.53803 144.185313l76.41791-34.265791-76.41791 34.265791zM263.061015 237.216478l76.41791-34.265791-76.41791 34.265791zM132.73791 780.07403v48.907463l76.417911-34.265792v-48.907462l-76.417911 34.265791z" fill="#CECEF9" /><path d="M132.73791 828.981493l347.51809 51.918328 76.41791-34.250508-347.518089-51.933612-76.417911 34.265792zM480.256 880.899821v97.814925l76.41791-34.265791v-97.799642l-76.41791 34.250508z" fill="#CECEF9" /><path d="M480.256 978.699463L45.850746 913.805373l76.417911-34.250507 434.405253 64.909373-76.41791 34.250507zM45.850746 913.79009V767.082985l76.417911-34.265791v146.707105l-76.417911 34.235223zM306.496955 512.64191l173.774329 25.98209 76.41791-34.265791-173.774328-25.966806-76.417911 34.250507z" fill="#CECEF9" /><path d="M480.256 538.608716v97.814926l76.41791-34.265791V504.358209l-76.41791 34.250507z" fill="#CECEF9" /><path d="M480.256 636.408358l-173.759045-25.966806 76.417911-34.250507 173.774328 25.966806-76.41791 34.250507zM306.496955 610.441552l76.417911-34.250507-76.417911 34.250507zM675.748299 763.414925v-146.691821l76.41791-34.250507v146.691821l-76.41791 34.250507z" fill="#CECEF9" /><path d="M675.748299 616.723104l86.87188 12.991045 76.417911-34.265791-86.871881-12.991045-76.41791 34.265791zM762.635463 629.714149V776.40597l76.41791-34.250507V595.448358l-76.41791 34.265791z" fill="#CECEF9" /><path d="M762.635463 776.40597l130.323104 19.471284 76.417911-34.250508-130.323105-19.486567-76.41791 34.265791z" fill="#CECEF9" /><path d="M892.943284 795.877254v97.799642l76.41791-34.265792v-97.784358l-76.41791 34.250508z" fill="#CECEF9" /><path d="M892.958567 893.676896l-130.323104-19.471284 76.41791-34.265791 130.323105 19.471283-76.417911 34.265792z" fill="#CECEF9" /><path d="M762.635463 874.205612v146.691821l76.41791-34.265791v-146.691821l-76.41791 34.265791z" fill="#CECEF9" /><path d="M762.620179 1020.897433l-86.87188-12.991045 76.41791-34.235224 86.871881 12.960478-76.417911 34.265791z" fill="#CECEF9" /><path d="M675.748299 1007.921672v-146.707105l76.41791-34.250507v146.691821l-76.41791 34.265791z" fill="#CECEF9" /><path d="M675.748299 861.229851l-130.323105-19.486567 76.41791-34.250508 130.323105 19.471284-76.41791 34.250507z" fill="#CECEF9" /><path d="M545.425194 841.743284v-97.799642l76.41791-34.250508v97.799642l-76.41791 34.250508z" fill="#CECEF9" /><path d="M545.425194 743.943642l130.323105 19.471283 76.41791-34.250507-130.323105-19.471284-76.41791 34.250508zM675.748299 763.414925l76.41791-34.250507-76.41791 34.250507zM458.53803 144.185313a91.029015 91.029015 0 0 0-46.89003 4.936597l76.41791-34.250507a91.029015 91.029015 0 0 1 46.89003-4.951881l-76.41791 34.265791z" fill="#CECEF9" /><path d="M411.648 149.12191c-36.497194 14.244299-61.715104 52.468537-61.715104 101.085612l76.41791-34.265791c0-48.601791 25.21791-86.82603 61.715104-101.070328l-76.41791 34.250507z" fill="#CECEF9" /><path d="M349.932896 250.192239c0 67.522866 48.632358 129.513075 108.605134 138.484537l76.41791-34.265791c-59.972776-8.956179-108.605134-70.946388-108.605134-138.469254l-76.41791 34.265791z" fill="#CECEF9" /><path d="M458.53803 388.661493a91.013731 91.013731 0 0 0 46.89003-4.936597l76.41791-34.250508a91.029015 91.029015 0 0 1-46.89003 4.936597l-76.41791 34.265791z" fill="#CECEF9" /><path d="M505.42806 383.724896c36.512478-14.244299 61.715104-52.453254 61.715104-101.070329l76.417911-34.250507c0 48.601791-25.21791 86.810746-61.699821 101.070328l-76.417911 34.250508zM567.143164 282.654567c0-67.507582-48.617075-129.513075-108.605134-138.469254l76.41791-34.265791c59.98806 8.971463 108.605134 70.961672 108.605135 138.469254l-76.417911 34.265791zM263.061015 237.216478c0-82.638328 40.470925-148.586985 100.306149-177.258985l76.417911-34.265792c-59.835224 28.687284-100.306149 94.63594-100.30615 177.274269l-76.41791 34.250508z" fill="#CECEF9" /><path d="M363.367164 59.957493c28.167642-13.495403 60.62997-18.737672 95.170866-13.571821l76.41791-34.250508c-34.540896-5.165851-67.003224 0.061134-95.170865 13.556537l-76.417911 34.265792z" fill="#CECEF9" /><path d="M458.53803 46.385672c107.963224 16.124179 195.477015 127.724896 195.477015 249.25994l76.41791-34.265791c0-121.519761-87.513791-233.120478-195.477015-249.25994l-76.41791 34.265791z" fill="#CECEF9" /><path d="M654.030328 295.630328c0 82.638328-40.470925 148.602269-100.321432 177.274269l76.41791-34.265791c59.850507-28.672 100.321433-94.620657 100.321433-177.258985l-76.417911 34.250507z" fill="#CECEF9" /><path d="M553.708896 472.904597c-28.167642 13.495403-60.614687 18.722388-95.170866 13.571821l76.41791-34.265791c34.540896 5.165851 67.003224-0.076418 95.170866-13.571821l-76.41791 34.265791z" fill="#CECEF9" /><path d="M458.53803 486.476418c-107.963224-16.139463-195.477015-127.740179-195.477015-249.25994l76.41791-34.265791c0 121.535045 87.513791 233.135761 195.477015 249.275223l-76.41791 34.235224zM306.496955 610.441552c-26.868537-4.004299-52.315701-0.947582-75.042388 7.916896l76.417911-34.250508c22.726687-8.864478 48.173851-11.921194 75.042388-7.916895l-76.417911 34.250507z" fill="#CECEF9" /><path d="M231.469851 618.358448c-58.413851 22.787821-98.73194 83.937433-98.731941 161.715582l76.417911-34.250508c0-77.793433 40.31809-138.927761 98.73194-161.715582l-76.41791 34.250508z" fill="#CECEF9" /><path d="M45.850746 767.082985c0-110.179343 53.951045-198.105791 133.761911-236.345313l76.41791-34.250508C176.219701 534.711403 122.268657 622.653134 122.268657 732.832478l-76.417911 34.265791z" fill="#CECEF9" /><path d="M179.612657 530.737672c37.551761-17.988776 80.819582-24.973373 126.884298-18.095762l76.417911-34.250507c-46.064716-6.877612-89.332537 0.106985-126.884299 18.095761l-76.41791 34.250508z" fill="#CECEF9" /><path d="M458.53803 144.185313c-59.972776-8.971463-108.605134 38.499343-108.605134 106.022209 0 67.507582 48.632358 129.513075 108.605134 138.469254 59.98806 8.956179 108.605134-38.514627 108.605134-106.022209s-48.617075-129.513075-108.605134-138.469254z m-195.477015 93.031165c0-121.519761 87.513791-206.970269 195.477015-190.830806 107.963224 16.139463 195.477015 127.724896 195.477015 249.25994 0 121.519761-87.513791 206.954985-195.477015 190.830806-107.963224-16.139463-195.477015-127.724896-195.477015-249.25994z m43.43594 373.225074c-95.980896-14.336-173.774328 61.608119-173.774328 169.647761v48.89218l347.548657 51.918328v97.814925L45.850746 913.774806v-146.691821c0-162.036537 116.690149-275.960358 260.646209-254.441075l173.774329 25.966806v97.784359l-173.774329-25.966806z m369.251344 152.988657v-146.707105l86.887164 12.991045V776.40597l130.323104 19.471284v97.799642l-130.323104-19.471284v146.691821l-86.887164-12.991045V861.229851l-130.323105-19.471284v-97.799642l130.323105 19.471284z" fill="#4E5969" /></svg>