<?xml version="1.0" standalone="no"?><!DOCTYPE svg PUBLIC "-//W3C//DTD SVG 1.1//EN" "http://www.w3.org/Graphics/SVG/1.1/DTD/svg11.dtd"><svg class="icon" width="200px" height="200.00px" viewBox="0 0 1024 1024" version="1.1" xmlns="http://www.w3.org/2000/svg"><path d="M91.824 42.128l300.048 44.848 80-35.872L171.84 6.272l-80 35.856zM447.52 127.744l42.768 75.04 80-35.872-42.768-75.04-80 35.872zM490.288 202.784L819.52 252l80-35.872-329.232-49.184-80 35.856zM910.8 366.72v530.8l80-35.856V330.864l-80 35.856zM819.52 1010.272L115.296 905.008l80-35.856L899.52 974.4l-80 35.872zM24 790.288V107.824l80-35.856V754.4l-80 35.872z" fill="#CECEF9" /><path d="M24 107.84l80-35.872-80 35.856zM112.672 247.456v555.2l80-35.84V211.584l-80 35.856zM115.296 803.92l697.552 104.24 80-35.856-697.552-104.24-80 35.856z" fill="#CECEF9" /><path d="M822.128 884.272v-529.92l80-35.872v529.92l-80 35.872zM819.52 353.088L112.672 247.456l80-35.856 706.848 105.616-80 35.872zM112.672 247.456l80-35.856-80 35.856zM423.072 521.328v-126.384l80-35.856v126.368l-80 35.872z" fill="#CECEF9" /><path d="M423.072 394.944l88.672 13.248 80-35.856-88.672-13.248-80 35.856z" fill="#CECEF9" /><path d="M511.744 408.192v126.4l80-35.872V372.32l-80 35.856z" fill="#CECEF9" /><path d="M511.744 534.576l110.848 16.56 80-35.856-110.848-16.56-80 35.856zM622.592 551.152v101.104l80-35.872v-101.104l-80 35.872z" fill="#CECEF9" /><path d="M622.592 652.256l-110.848-16.576 80-35.856 110.848 16.56-80 35.872z" fill="#CECEF9" /><path d="M511.744 635.68v126.384l80-35.856v-126.4l-80 35.872z" fill="#CECEF9" /><path d="M511.744 762.064l-88.672-13.248 80-35.872 88.672 13.264-80 35.856z" fill="#CECEF9" /><path d="M423.072 748.8v-126.368l80-35.856v126.368l-80 35.872zM423.072 622.432l-110.864-16.56 80-35.872 110.864 16.56-80 35.872zM312.208 605.872v-101.12l80-35.84v101.088l-80 35.872z" fill="#CECEF9" /><path d="M312.208 504.768l110.864 16.56 80-35.872-110.864-16.56-80 35.872zM423.072 521.328l80-35.856-80 35.856zM24 107.84c0-28.528 13.44-49.6 32.272-59.696l80-35.872C117.44 22.4 104 43.44 104 71.952L24 107.84z" fill="#CECEF9" /><path d="M56.288 48.144a56.992 56.992 0 0 1 35.52-6.016l80-35.856a56.992 56.992 0 0 0-35.52 6l-80 35.872zM391.872 86.976c21.52 3.2 42.592 17.872 55.648 40.768l80-35.856c-13.056-22.896-34.128-37.568-55.648-40.784l-80 35.872zM819.52 251.984c48 7.168 91.296 56.224 91.296 114.736l80-35.856c0-58.528-43.296-107.568-91.296-114.752l-80 35.872zM910.8 897.52c0 25.536-8.672 52.384-20.496 72.16l80-35.872c11.824-19.76 20.512-46.608 20.512-72.16l-80 35.872z" fill="#CECEF9" /><path d="M890.304 969.68c-6.72 11.232-18.688 26.976-36.128 35.408l80-35.872c17.44-8.432 29.392-24.16 36.128-35.408l-80 35.872z" fill="#CECEF9" /><path d="M854.176 1005.088a58.24 58.24 0 0 1-34.656 5.168l80-35.856a58.24 58.24 0 0 0 34.656-5.184l-80 35.872zM115.296 905.024C67.296 897.856 24 848.8 24 790.288l80-35.872c0 58.528 43.296 107.584 91.296 114.752l-80 35.856z" fill="#CECEF9" /><path d="M112.672 802.672a4.48 4.48 0 0 0 2.608 1.248l80-35.856a4.48 4.48 0 0 1-2.592-1.248l-80 35.856zM812.848 908.16c0.656-0.848 1.44-1.952 2.288-3.376l80-35.872a33.6 33.6 0 0 1-2.288 3.392l-80 35.856z" fill="#CECEF9" /><path d="M815.136 904.784c2.208-3.68 4.128-8.16 5.44-12.608l80-35.856a56.208 56.208 0 0 1-5.44 12.592l-80 35.872z" fill="#CECEF9" /><path d="M820.576 892.176c0.64-2.16 1.056-4.064 1.28-5.584l80-35.856a46.032 46.032 0 0 1-1.28 5.584l-80 35.856z" fill="#CECEF9" /><path d="M821.872 886.592c0.24-1.488 0.256-2.272 0.256-2.32l80-35.856c0 0.048-0.016 0.816-0.256 2.32l-80 35.856zM822.128 354.336a4.48 4.48 0 0 0-2.608-1.248l80-35.872a4.48 4.48 0 0 1 2.608 1.264l-80 35.856z" fill="#CECEF9" /><path d="M24 107.84c0-44.576 32.784-70.944 67.808-65.712l300.064 44.848c21.52 3.2 42.592 17.872 55.648 40.768l42.768 75.04 329.232 49.2c48 7.168 91.296 56.224 91.296 114.736v530.8c0 25.552-8.688 52.384-20.512 72.16-10.512 17.552-33.808 46.112-70.784 40.592L115.296 905.008C67.296 897.872 24 848.8 24 790.304V107.824z m88.688 139.616v555.216a4.48 4.48 0 0 0 2.608 1.248l697.552 104.24c0.656-0.848 1.44-1.952 2.288-3.376a56.208 56.208 0 0 0 6.72-18.192c0.256-1.488 0.272-2.272 0.272-2.32v-529.92a4.496 4.496 0 0 0-2.608-1.28l-706.832-105.6z m310.384 273.872v-126.384l88.672 13.248v126.4l110.848 16.56v101.104l-110.848-16.576v126.384l-88.688-13.248v-126.384l-110.848-16.56v-101.12l110.848 16.576z" fill="#4E5969" /></svg>