<?xml version="1.0" standalone="no"?><!DOCTYPE svg PUBLIC "-//W3C//DTD SVG 1.1//EN" "http://www.w3.org/Graphics/SVG/1.1/DTD/svg11.dtd"><svg class="icon" width="200px" height="200.00px" viewBox="0 0 1024 1024" version="1.1" xmlns="http://www.w3.org/2000/svg"><path d="M634.115606 216.136113v-111.918874l72.112676-32.335324v111.918874l-72.112676 32.335324z" fill="#CECEF9" /><path d="M634.115606 104.202817l80.030648 11.970704 72.112676-32.335324-80.045071-11.970704-72.112676 32.335324z" fill="#CECEF9" /><path d="M714.146254 116.159099v111.918873l72.112676-32.306479V83.823775l-72.112676 32.320901z" fill="#CECEF9" /><path d="M714.146254 228.092394l95.909859 14.336 72.112676-32.335324-95.909859-14.336-72.112676 32.335324z" fill="#CECEF9" /><path d="M810.056113 242.428394v89.131268l72.112676-32.335324v-89.131268l-72.112676 32.335324z" fill="#CECEF9" /><path d="M810.056113 331.559662l-95.909859-14.336 72.112676-32.320901 95.909859 14.321577-72.112676 32.335324z" fill="#CECEF9" /><path d="M714.146254 317.223662v111.918873l72.112676-32.306479v-111.933295l-72.112676 32.320901z" fill="#CECEF9" /><path d="M714.146254 429.156958l-80.045071-11.970704 72.112676-32.306479 80.045071 11.956281-72.112676 32.306479z" fill="#CECEF9" /><path d="M634.115606 417.200676v-111.933296l72.112676-32.320901v111.918873l-72.112676 32.335324z" fill="#CECEF9" /><path d="M634.115606 305.26738l-95.90986-14.336 72.112677-32.320901 95.909859 14.336-72.112676 32.320901zM538.191324 290.93138v-89.131267l72.112676-32.335324v89.131267l-72.112676 32.335324z" fill="#CECEF9" /><path d="M538.191324 201.800113l95.909859 14.336 72.112676-32.335324-95.909859-14.321578-72.112676 32.306479zM634.115606 216.136113l72.112676-32.335324-72.112676 32.335324zM209.847887 130.091268l270.682141 40.440788 72.112676-32.320901-270.696563-40.455211-72.112676 32.335324z" fill="#CECEF9" /><path d="M480.530028 170.532056v-89.131267l72.112676-32.335324v89.131267l-72.112676 32.335324zM480.530028 81.400789L189.223662 37.873577l72.112676-32.335323 291.291944 43.527211-72.112676 32.335324zM129.802817 95.909859v775.254535l72.112676-32.335324V63.60338L129.802817 95.909859zM193.810028 924.325859l286.070986-121.928113 72.112676-32.335323-286.070986 121.928112-72.112676 32.335324z" fill="#CECEF9" /><path d="M479.881014 802.397746l266.845747 204.251944 72.112676-32.320901-266.845747-204.266366-72.112676 32.335323z" fill="#CECEF9" /><path d="M746.726761 1006.64969l0.504788 0.360564 72.112676-32.320902-0.504788-0.360563-72.112676 32.320901zM811.238761 972.987493v-439.887324l72.112676-32.335324v439.887324l-72.112676 32.335324z" fill="#CECEF9" /><path d="M811.238761 533.085746l-80.030648-11.956281 72.112676-32.320902 80.030648 11.956282-72.112676 32.320901z" fill="#CECEF9" /><path d="M731.208113 521.129465v371.784112l72.112676-32.335323V488.808563l-72.112676 32.320902z" fill="#CECEF9" /><path d="M731.222535 892.899155L481.150197 701.512113l72.112676-32.335324L803.335211 860.592676l-72.112676 32.335324z" fill="#CECEF9" /><path d="M481.16462 701.512113L209.847887 817.152l72.112676-32.320901 271.331155-115.65431-72.112676 32.335324z" fill="#CECEF9" /><path d="M209.847887 817.152V130.091268l72.112676-32.335324v687.075155l-72.112676 32.320901z" fill="#CECEF9" /><path d="M209.847887 130.091268l72.112676-32.335324-72.112676 32.335324zM189.238085 37.873577a49.685634 49.685634 0 0 0-26.205747 2.855662l72.112676-32.320901A49.685634 49.685634 0 0 1 261.350761 5.538254l-72.112676 32.335323z" fill="#CECEF9" /><path d="M163.032338 40.729239C142.956169 48.849127 129.802817 70.309859 129.802817 95.909859L201.915493 63.60338c0-25.6 13.153352-47.075155 33.229521-55.180619l-72.112676 32.320901zM129.802817 871.164394c0 34.224676 32.840113 66.44462 64.007211 53.147043l72.112676-32.306479C234.755606 905.259268 201.915493 873.053746 201.915493 838.814648l-72.112676 32.335324zM747.231549 1007.024676c13.715831 9.937127 27.748958 11.177465 39.171606 6.518986l72.112676-32.335324c-11.422648 4.658479-25.455775 3.432563-39.171606-6.518986l-72.112676 32.335324z" fill="#CECEF9" /><path d="M786.403155 1013.543662c14.537915-5.913239 24.835606-21.38862 24.835606-40.556169l72.112676-32.320901c0 19.167549-10.29769 34.614085-24.835606 40.541746l-72.112676 32.335324z" fill="#CECEF9" /><path d="M634.115606 216.136113V104.202817l80.030648 11.970704v111.918873l95.909859 14.336v89.131268l-95.909859-14.336v111.918873l-80.045071-11.941859v-111.933296l-95.909859-14.336v-89.131267l95.909859 14.336zM209.833465 130.091268l270.696563 40.440788v-89.131267L189.223662 37.873577C155.172056 32.782423 129.802817 60.35831 129.802817 95.909859v775.254535c0 34.224676 32.840113 66.44462 64.007211 53.147043l286.070986-121.913691 266.845747 204.251944 0.504788 0.360564c31.167099 22.600113 64.007211 0.201915 64.007212-34.022761v-439.887324l-80.030648-11.970704v371.784112L481.16462 701.512113 209.833465 817.152V130.091268z" fill="#4E5969" /></svg>