<?xml version="1.0" standalone="no"?><!DOCTYPE svg PUBLIC "-//W3C//DTD SVG 1.1//EN" "http://www.w3.org/Graphics/SVG/1.1/DTD/svg11.dtd"><svg class="icon" width="200px" height="183.68px" viewBox="0 0 1115 1024" version="1.1" xmlns="http://www.w3.org/2000/svg"><path d="M405.394286 42.294857l225.225143 33.645714 91.428571-40.978285L496.822857 1.316571l-91.428571 40.978286z" fill="#CECEF9" /><path d="M630.619429 75.958857v96.731429l91.428571-40.978286v-96.731429l-91.428571 40.96z" fill="#CECEF9" /><path d="M630.619429 172.690286l-67.565715-10.093715 91.428572-40.978285 67.565714 10.093714-91.428571 40.978286z" fill="#CECEF9" /><path d="M563.053714 162.596571v48.384l91.428572-40.996571V121.618286l-91.428572 40.978285z" fill="#CECEF9" /><path d="M563.053714 210.980571l337.828572 50.468572 91.428571-40.978286-337.828571-50.468571-91.428572 40.96z" fill="#CECEF9" /><path d="M900.882286 261.449143v314.422857l91.428571-40.96V220.452571l-91.428571 40.978286z" fill="#CECEF9" /><path d="M900.882286 575.890286l-90.093715-13.476572 91.428572-40.978285 90.093714 13.458285-91.428571 40.996572z" fill="#CECEF9" /><path d="M810.788571 562.413714V344.740571l91.428572-40.978285v217.673143l-91.428572 40.978285z" fill="#CECEF9" /><path d="M810.788571 344.740571l-585.563428-87.497142 91.428571-40.996572 585.581715 87.497143-91.428572 40.996571z" fill="#CECEF9" /><path d="M225.225143 257.243429V813.531429l91.428571-40.996572V216.246857l-91.428571 40.996572z" fill="#CECEF9" /><path d="M225.225143 813.531429l382.866286 57.216 91.428571-40.996572-382.866286-57.216-91.428571 40.996572z" fill="#CECEF9" /><path d="M608.091429 870.747429v96.731428l91.428571-40.96v-96.768l-91.428571 40.996572z" fill="#CECEF9" /><path d="M608.091429 967.497143L135.131429 896.822857l91.428571-40.996571 472.96 70.674285-91.428571 40.996572zM135.131429 896.822857V147.017143l91.428571-40.996572v749.787429l-91.428571 40.996571z" fill="#CECEF9" /><path d="M135.131429 147.017143l337.828571 50.505143 91.428571-40.996572L226.56 106.057143l-91.428571 40.96z" fill="#CECEF9" /><path d="M472.96 197.504V149.138286l91.428571-40.978286V156.525714l-91.428571 40.978286z" fill="#CECEF9" /><path d="M472.978286 149.138286l-67.584-10.093715 91.428571-40.996571 67.565714 10.093714-91.428571 40.996572z" fill="#CECEF9" /><path d="M405.394286 139.044571V42.294857l91.428571-40.978286v96.731429l-91.428571 40.996571zM405.394286 42.294857l91.428571-40.978286-91.428571 40.978286zM0 634.752v-266.057143l91.428571-40.978286v266.057143l-91.428571 40.978286z" fill="#CECEF9" /><path d="M0 368.694857l90.093714 13.458286 91.428572-40.96L91.428571 327.698286l-91.428571 40.978285z" fill="#CECEF9" /><path d="M90.093714 382.171429v266.057142l91.428572-40.996571v-266.057143l-91.428572 40.996572z" fill="#CECEF9" /><path d="M90.093714 648.228571L0 634.733714l91.428571-40.978285 90.093715 13.458285-91.428572 40.978286zM0 634.752l91.428571-40.978286-91.428571 40.978286zM337.828571 491.739429l112.621715 16.822857 91.428571-40.96-112.621714-16.841143-91.428572 40.978286z" fill="#CECEF9" /><path d="M450.450286 508.580571v120.923429l91.428571-40.978286V467.565714l-91.428571 40.978286z" fill="#CECEF9" /><path d="M450.450286 629.504l-112.621715-16.822857 91.428572-40.996572 112.621714 16.822858-91.428571 40.996571z" fill="#CECEF9" /><path d="M337.828571 612.681143v-120.941714l91.428572-40.978286v120.923428l-91.428572 40.996572zM337.828571 491.739429l91.428572-40.978286-91.428572 40.978286zM585.581714 528.768l112.603429 16.822857 91.428571-40.978286-112.603428-16.822857-91.428572 40.96z" fill="#CECEF9" /><path d="M698.185143 545.590857v120.941714l91.428571-40.996571v-120.923429l-91.428571 40.978286z" fill="#CECEF9" /><path d="M698.185143 666.514286l-112.603429-16.822857 91.428572-40.96 112.603428 16.822857-91.428571 40.96zM585.581714 649.691429v-120.923429l91.428572-40.996571v120.941714l-91.428572 40.978286zM585.581714 528.768l91.428572-40.996571-91.428572 40.996571zM810.788571 780.105143v-120.941714l91.428572-40.978286v120.923428l-91.428572 40.996572z" fill="#CECEF9" /><path d="M810.788571 659.163429l90.093715 13.458285 91.428571-40.978285-90.093714-13.458286-91.428572 40.978286z" fill="#CECEF9" /><path d="M900.882286 672.621714v120.941715l91.428571-40.996572v-120.923428l-91.428571 40.978285z" fill="#CECEF9" /><path d="M900.882286 793.563429l112.603428 16.822857 91.428572-40.978286-112.603429-16.822857-91.428571 40.96zM1013.504 810.386286v96.731428l91.428571-40.96v-96.749714l-91.428571 40.978286z" fill="#CECEF9" /><path d="M1013.485714 907.136l-112.603428-16.822857 91.428571-40.996572 112.603429 16.822858-91.428572 40.996571z" fill="#CECEF9" /><path d="M900.882286 890.313143v120.923428l91.428571-40.978285v-120.941715l-91.428571 40.996572z" fill="#CECEF9" /><path d="M900.882286 1011.236571l-90.093715-13.458285 91.428572-40.978286 90.093714 13.458286-91.428571 40.978285z" fill="#CECEF9" /><path d="M810.788571 997.778286v-120.923429l91.428572-40.996571v120.941714l-91.428572 40.978286z" fill="#CECEF9" /><path d="M810.788571 876.854857l-112.603428-16.822857 91.428571-40.996571 112.603429 16.822857-91.428572 40.996571zM698.185143 860.013714v-96.731428l91.428571-40.996572v96.731429l-91.428571 40.996571z" fill="#CECEF9" /><path d="M698.185143 763.264l112.603428 16.822857 91.428572-40.96-112.603429-16.841143-91.428571 40.978286zM810.788571 780.105143l91.428572-40.996572-91.428572 40.996572z" fill="#CECEF9" /><path d="M405.394286 42.294857l225.225143 33.645714v96.749715l-67.565715-10.093715v48.384l337.828572 50.468572v314.422857l-90.093715-13.458286V344.740571l-585.563428-87.497142V813.531429l382.866286 57.216v96.731428L135.131429 896.841143V147.017143l337.828571 50.468571V149.138286l-67.565714-10.093715V42.294857zM0 634.752v-266.057143l90.093714 13.476572v266.057142L0 634.733714z m337.828571-142.994286l112.621715 16.822857v120.923429l-112.621715-16.822857v-120.941714z m247.753143 37.010286l112.603429 16.822857v120.941714l-112.603429-16.822857v-120.941714zM810.788571 780.105143v-120.941714l90.093715 13.458285v120.941715l112.621714 16.822857v96.749714l-112.621714-16.822857v120.923428l-90.093715-13.458285v-120.923429l-112.603428-16.822857v-96.749714l112.603428 16.822857z" fill="#4E5969" /></svg>