<?xml version="1.0" standalone="no"?><!DOCTYPE svg PUBLIC "-//W3C//DTD SVG 1.1//EN" "http://www.w3.org/Graphics/SVG/1.1/DTD/svg11.dtd"><svg class="icon" width="200px" height="200.00px" viewBox="0 0 1024 1024" version="1.1" xmlns="http://www.w3.org/2000/svg"><path d="M155.367226 162.221419l130.576516-123.193806 82.580645-37.012645-130.576516 123.17729-82.580645 37.029161z" fill="#CECEF9" /><path d="M285.943742 39.027613l65.304774 81.127226 82.580645-37.029162L368.524387 2.014968l-82.580645 37.012645z" fill="#CECEF9" /><path d="M351.248516 120.154839L155.367226 304.920774l82.580645-37.029161 195.88129-184.765936-82.580645 37.029162z" fill="#CECEF9" /><path d="M155.367226 304.920774L24.774194 142.699355l82.580645-37.012645 130.593032 162.204903-82.580645 37.029161z" fill="#CECEF9" /><path d="M24.774194 142.699355l65.288258-61.572129 82.580645-37.029161L107.354839 105.703226 24.774194 142.699355z" fill="#CECEF9" /><path d="M90.062452 81.127226l65.304774 81.094193 82.580645-37.029161-65.304774-81.094193-82.580645 37.029161zM155.367226 162.221419l82.580645-37.029161-82.580645 37.029161zM911.591226 313.426581l-507.887484-75.891613 82.580645-37.012645 507.870968 75.891612-82.580645 37.012646zM403.703742 237.534968V136.637935l82.580645-37.012645v100.897033l-82.580645 37.012645z" fill="#CECEF9" /><path d="M403.703742 136.637935l507.870968 75.891613 82.580645-37.012645-507.870968-75.891613-82.580645 37.012645z" fill="#CECEF9" /><path d="M911.591226 212.529548v100.913549l82.580645-37.029162v-100.913548l-82.580645 37.029161zM911.591226 313.426581l82.580645-37.012646-82.580645 37.012646zM155.367226 490.149161l130.576516-123.210322 82.580645-36.996129-130.576516 123.17729-82.580645 37.029161z" fill="#CECEF9" /><path d="M285.943742 366.955355l65.304774 81.127226 82.580645-37.029162-65.304774-81.127225-82.580645 37.029161z" fill="#CECEF9" /><path d="M351.248516 448.082581L155.367226 632.832l82.580645-37.012645 195.88129-184.765936-82.580645 37.012646z" fill="#CECEF9" /><path d="M155.367226 632.832L24.774194 470.627097l82.580645-37.029162 130.593032 162.22142-82.580645 37.012645z" fill="#CECEF9" /><path d="M24.774194 470.627097l65.288258-61.588645 82.580645-37.012646L107.354839 433.614452l-82.580645 36.996129z" fill="#CECEF9" /><path d="M90.062452 409.038452l65.304774 81.094193 82.580645-37.012645-65.304774-81.094194-82.580645 37.012646zM155.367226 490.149161l82.580645-37.029161-82.580645 37.029161zM911.591226 666.590968l-507.887484-75.908129 82.580645-37.012645 507.870968 75.891612-82.580645 37.012646z" fill="#CECEF9" /><path d="M403.703742 590.682839v-100.897033l82.580645-37.012645v100.897033l-82.580645 37.012645z" fill="#CECEF9" /><path d="M403.703742 489.785806l507.870968 75.891613 82.580645-37.012645-507.870968-75.891613-82.580645 37.012645z" fill="#CECEF9" /><path d="M911.591226 565.677419v100.913549l82.580645-37.029162v-100.913548l-82.580645 37.029161z" fill="#CECEF9" /><path d="M911.591226 666.590968l82.580645-37.029162-82.580645 37.012646zM155.367226 818.060387l130.576516-123.17729 82.580645-37.029162-130.576516 123.193807-82.580645 37.012645z" fill="#CECEF9" /><path d="M285.943742 694.883097l65.304774 81.110709 82.580645-37.012645-65.304774-81.127226-82.580645 37.029162z" fill="#CECEF9" /><path d="M351.248516 775.993806L155.367226 960.759742l82.580645-37.012645 195.88129-184.765936-82.580645 37.012645z" fill="#CECEF9" /><path d="M155.367226 960.759742L24.774194 798.554839l82.580645-37.029162 130.593032 162.22142-82.580645 37.012645zM24.774194 798.554839l65.288258-61.588645 82.580645-37.012646L107.354839 761.525677 24.774194 798.554839z" fill="#CECEF9" /><path d="M90.062452 736.966194l65.304774 81.094193 82.580645-37.012645-65.304774-81.094194-82.580645 37.012646zM155.367226 818.060387l82.580645-37.012645-82.580645 37.012645zM911.591226 1019.738839l-507.887484-75.891613 82.580645-37.029161 507.870968 75.891612-82.580645 37.029162z" fill="#CECEF9" /><path d="M403.703742 943.847226v-100.913549l82.580645-37.012645v100.913549l-82.580645 36.996129z" fill="#CECEF9" /><path d="M403.703742 842.933677l507.870968 75.908129 82.580645-37.029161-507.870968-75.891613-82.580645 37.012645zM911.591226 918.841806v100.897033l82.580645-37.029162v-100.897032l-82.580645 37.029161zM911.591226 1019.738839l82.580645-37.029162-82.580645 37.029162z" fill="#CECEF9" /><path d="M155.367226 162.204903l130.576516-123.17729 65.304774 81.11071-195.88129 184.765935L24.774194 142.699355 90.062452 81.094194l65.304774 81.094193z m756.224 151.221678l-507.887484-75.891613v-100.913549l507.870968 75.908129v100.913549z m-756.224 176.72258l130.576516-123.210322 65.304774 81.127226-195.88129 184.765935L24.774194 470.627097l65.288258-61.588645 65.304774 81.094193z m756.224 176.425291l-507.887484-75.891613v-100.897033l507.870968 75.891613v100.913549zM155.367226 818.060387l130.576516-123.17729 65.304774 81.110709-195.88129 184.765936L24.774194 798.554839l65.288258-61.588645 65.304774 81.094193z m756.224 201.661936l-507.887484-75.891613v-100.897033l507.870968 75.891613v100.913549z" fill="#4E5969" /></svg>