<?xml version="1.0" standalone="no"?><!DOCTYPE svg PUBLIC "-//W3C//DTD SVG 1.1//EN" "http://www.w3.org/Graphics/SVG/1.1/DTD/svg11.dtd"><svg class="icon" width="200px" height="200.00px" viewBox="0 0 1024 1024" version="1.1" xmlns="http://www.w3.org/2000/svg"><path d="M778.398648 1020.581859L108.169014 84.746817l72.112676-32.320902 670.229634 935.835043-72.112676 32.320901zM108.169014 84.746817l55.35369-47.637634 72.112676-32.320901L180.28169 52.425915 108.169014 84.746817z" fill="#CECEF9" /><path d="M163.522704 37.109183l670.229634 935.849465 72.112676-32.335324L235.63538 4.788282l-72.112676 32.320901z" fill="#CECEF9" /><path d="M833.766761 972.944225l-55.368113 47.637634 72.112676-32.320901 55.35369-47.637634-72.112676 32.335324zM778.398648 1020.581859l72.112676-32.320901-72.112676 32.320901zM433.728901 170.878197V105.443155l72.112676-32.320901v65.435042l-72.112676 32.335324z" fill="#CECEF9" /><path d="M433.728901 105.443155l74.46355 11.134197 72.112676-32.335324-74.46355-11.119774-72.112676 32.320901z" fill="#CECEF9" /><path d="M508.192451 116.577352v65.435042l72.112676-32.320901V84.227606l-72.112676 32.335324zM750.231437 528.802254v156.686422l72.112676-32.320901V496.46693l-72.112676 32.335324z" fill="#CECEF9" /><path d="M750.231437 685.503099l-74.477972-11.134198 72.112676-32.335324 74.477972 11.134198-72.112676 32.320901zM675.753465 674.354479V517.668056l72.112676-32.320901v156.686422l-72.112676 32.320902zM368.596732 272.672451l-37.296676-77.910536 72.112676-32.320901 37.296676 77.910535-72.112676 32.320902zM433.728901 170.89262l72.112676-32.335324-72.112676 32.335324zM214.607324 324.276282l68.333972 43.426253 72.112676-32.306479-68.333972-43.440676-72.112676 32.320902zM266.167887 456.473239v229.808676l72.112676-32.335323V424.137915l-72.112676 32.320902zM266.167887 686.281915l251.341521 37.556282 72.112677-32.335324-251.341522-37.556281-72.112676 32.335323zM517.509408 723.838197v83.564169l72.112677-32.320901v-83.564169l-72.112677 32.320901z" fill="#CECEF9" /><path d="M517.509408 807.402366L135.845859 750.375662l72.112676-32.335324 381.66355 57.041127-72.112677 32.320901z" fill="#CECEF9" /><path d="M135.845859 750.375662v-83.564169l72.112676-32.335324v83.564169l-72.112676 32.335324z" fill="#CECEF9" /><path d="M135.845859 666.811493l55.858479 8.336225 72.112676-32.320901-55.858479-8.350648-72.112676 32.335324z" fill="#CECEF9" /><path d="M191.704338 675.147718V445.339042l72.112676-32.320901V642.812394l-72.112676 32.320902z" fill="#CECEF9" /><path d="M191.704338 445.339042l72.112676-32.320901-72.112676 32.306479zM601.275493 882.601465v83.564169l72.112676-32.320902v-83.564169l-72.112676 32.320902z" fill="#CECEF9" /><path d="M601.275493 966.165634l-260.629634-38.940845 72.112676-32.335324 260.644057 38.940845-72.112677 32.335324z" fill="#CECEF9" /><path d="M340.645859 927.224789v-83.578592l72.112676-32.320901v83.564169l-72.112676 32.335324z" fill="#CECEF9" /><path d="M340.645859 843.646197l260.644056 38.940845 72.112677-32.306479-260.644057-38.955267-72.112676 32.320901zM601.275493 882.601465l72.112676-32.320902-72.112676 32.320902zM508.192451 182.012394c136.639099 40.84462 242.038986 187.882366 242.038986 346.78986l72.112676-32.335324c0-158.907493-105.399887-305.945239-242.038986-346.78986l-72.112676 32.335324z" fill="#CECEF9" /><path d="M675.753465 517.668056c0-126.91831-91.684056-243.510085-204.8-260.413295l72.112676-32.335324c113.115944 16.903211 204.8 133.494986 204.8 260.427718l-72.112676 32.320901z" fill="#CECEF9" /><path d="M470.967887 257.254761c-34.383324-5.134423-66.689803-0.490366-95.058929 11.985126l72.112676-32.320901c28.369127-12.489915 60.675606-17.133972 95.044507-11.999549l-72.112676 32.335324z" fill="#CECEF9" /><path d="M375.908958 269.239887c-2.466254 1.096113-4.903662 2.235493-7.312226 3.432564l72.112676-32.320902c2.408563-1.211493 4.845972-2.350873 7.312226-3.432563l-72.112676 32.320901zM331.300056 194.761915c2.480676-1.225915 4.975775-2.422986 7.499719-3.562366l72.112676-32.335324c-2.523944 1.153803-5.019042 2.336451-7.499719 3.576789l-72.112676 32.320901z" fill="#CECEF9" /><path d="M338.785352 191.199549a228.568338 228.568338 0 0 1 94.943549-20.306929l72.112676-32.335324c-33.921803 0-65.968676 7.139155-94.929126 20.306929l-72.112676 32.335324zM191.704338 445.339042c0-44.14738 8.148732-85.04969 22.902986-121.06276l72.112676-32.320902c-14.754254 35.998648-22.917408 76.900958-22.917408 121.048338l-72.112677 32.335324zM282.941296 367.716958c-10.773634 26.306704-16.773408 56.247887-16.773409 88.741859l72.112676-32.320902c0-32.508394 5.999775-62.449577 16.773409-88.756281l-72.112676 32.335324z" fill="#CECEF9" /><path d="M778.398648 1020.581859L108.169014 84.746817l55.35369-47.637634 670.229634 935.849465-55.35369 47.623211zM433.728901 170.907042V105.428732l74.46355 11.134198v65.435042c136.639099 40.84462 242.038986 187.882366 242.038986 346.789859v156.686423l-74.477972-11.134198V517.682479c0-126.91831-91.684056-243.510085-204.8-260.413296-37.354366-5.581521-72.271324 0.389408-102.356733 15.432113l-37.296676-77.924958a228.049127 228.049127 0 0 1 102.428845-23.869296zM191.704338 445.339042c0-44.14738 8.148732-85.04969 22.902986-121.06276l68.333972 43.440676c-10.773634 26.306704-16.773408 56.247887-16.773409 88.756281v229.808676l251.341521 37.556282v83.564169L135.845859 750.375662v-83.564169l55.858479 8.336225V445.339042zM601.275493 882.601465v83.564169l-260.644056-38.940845v-83.578592l260.644056 38.940845z" fill="#4E5969" /></svg>