<?xml version="1.0" standalone="no"?><!DOCTYPE svg PUBLIC "-//W3C//DTD SVG 1.1//EN" "http://www.w3.org/Graphics/SVG/1.1/DTD/svg11.dtd"><svg class="icon" width="200px" height="200.00px" viewBox="0 0 1024 1024" version="1.1" xmlns="http://www.w3.org/2000/svg"><path d="M429.682627 110.347463V36.374925l76.41791-34.265791v73.972538l-76.41791 34.265791z" fill="#CECEF9" /><path d="M429.682627 36.374925l86.413373 12.899344 76.41791-34.250508-86.413373-12.914627-76.41791 34.250508z" fill="#CECEF9" /><path d="M516.096 49.274269v73.972537l76.41791-34.235224V15.008478l-76.41791 34.250507zM796.916537 516.416955v259.820896l76.417911-34.265791v-259.820896l-76.417911 34.265791z" fill="#CECEF9" /><path d="M796.916537 776.237851l64.802388 9.674507 76.417911-34.250507-64.802388-9.689791-76.417911 34.265791z" fill="#CECEF9" /><path d="M861.734209 785.912358v94.483105l76.41791-34.250508V751.646567l-76.41791 34.250508z" fill="#CECEF9" /><path d="M861.734209 880.395463L84.059701 764.194388l76.417911-34.250507 777.674507 116.201074-76.41791 34.250508z" fill="#CECEF9" /><path d="M84.059701 764.194388v-94.483104l76.417911-34.250508v94.483105L84.059701 764.179104z" fill="#CECEF9" /><path d="M84.059701 669.726567l64.802389 9.674508 76.41791-34.265791L160.477612 635.460776l-76.417911 34.250508z" fill="#CECEF9" /><path d="M148.86209 679.401075v-259.820896l76.41791-34.265791v259.820896l-76.41791 34.265791zM429.682627 110.347463l76.41791-34.250508-76.41791 34.250508zM235.275463 692.315701l475.242985 71.007523 76.41791-34.250508-475.242985-71.022806-76.41791 34.265791z" fill="#CECEF9" /><path d="M710.518448 763.323224v-259.820896l76.41791-34.265791v259.820896l-76.41791 34.265791zM235.275463 432.479522v259.820896l76.41791-34.250508v-259.820895l-76.41791 34.250507zM235.275463 692.315701l76.41791-34.265791-76.41791 34.265791zM624.105075 915.746388V1010.244776l76.41791-34.250507v-94.483105l-76.41791 34.250508z" fill="#CECEF9" /><path d="M624.105075 1010.244776l-302.431523-45.193552 76.417911-34.265791 302.431522 45.193552-76.41791 34.250508z" fill="#CECEF9" /><path d="M321.673552 965.051224V870.552836l76.417911-34.265791v94.483104l-76.417911 34.265791z" fill="#CECEF9" /><path d="M321.673552 870.552836l302.431523 45.193552 76.41791-34.235224-302.431522-45.208836-76.417911 34.265791zM624.105075 915.746388l76.41791-34.250507-76.41791 34.250507zM516.096 123.26209c158.536597 46.783045 280.820537 213.481075 280.820537 393.154865l76.417911-34.265791c0-179.658507-122.28394-346.356537-280.820538-393.154865l-76.41791 34.265791zM148.86209 419.580179c0-129.360239 63.396299-233.059343 158.078089-280.759403l76.417911-34.250507C288.676299 152.255045 225.28 255.954149 225.28 385.329672l-76.41791 34.235224z" fill="#CECEF9" /><path d="M306.940179 138.820776c36.818149-18.554269 78.358925-28.641433 122.742448-28.473313l76.41791-34.250508c-44.383522-0.168119-85.924299 9.919045-122.742447 28.45803l-76.417911 34.265791zM710.518448 503.502328c0-143.512836-106.389015-275.715821-237.629135-295.33994l76.417911-34.250507c131.240119 19.608836 237.629134 151.827104 237.629134 295.324656l-76.41791 34.265791z" fill="#CECEF9" /><path d="M472.889313 208.162388c-36.741731-5.486806-71.527164-1.558925-102.598686 10.087164l76.41791-34.265791c31.056239-11.64609 65.856955-15.558687 102.598687-10.087164l-76.417911 34.265791z" fill="#CECEF9" /><path d="M370.290627 218.234269c-79.872 29.940537-135.015164 110.928239-135.015164 214.245253l76.41791-34.250507c0-103.317015 55.143164-184.32 135.015164-214.245254l-76.41791 34.250508z" fill="#CECEF9" /><path d="M429.682627 110.347463V36.374925l86.413373 12.899344v73.972537c158.536597 46.798328 280.820537 213.511642 280.820537 393.154866v259.820895l64.802388 9.689791v94.483105L84.059701 764.194388v-94.483104l64.802389 9.674507v-259.820895c0-179.658507 122.299224-309.813493 280.820537-309.217433zM235.275463 692.300418l475.242985 71.022806v-259.820896c0-143.512836-106.389015-275.731104-237.629135-295.33994-131.224836-19.608836-237.613851 80.819582-237.61385 224.317134v259.820896z m388.829612 223.44597V1010.244776l-302.431523-45.193552v-94.467821l302.431523 45.178269z" fill="#4E5969" /></svg>