<?xml version="1.0" standalone="no"?><!DOCTYPE svg PUBLIC "-//W3C//DTD SVG 1.1//EN" "http://www.w3.org/Graphics/SVG/1.1/DTD/svg11.dtd"><svg class="icon" width="200px" height="200.00px" viewBox="0 0 1024 1024" version="1.1" xmlns="http://www.w3.org/2000/svg"><path d="M72.112676 109.596845v715.213521l72.112676-32.306479V77.247099L72.112676 109.611268zM145.739718 916.580958l652.129352 97.438648 72.112676-32.320902-652.129352-97.45307-72.112676 32.335324zM871.496113 944.272225v-715.213521l72.112676-32.335324v715.213521l-72.112676 32.335324zM797.854648 137.302535L145.754141 39.835042l72.112676-32.335324 652.129352 97.453071-72.112676 32.320901zM145.739718 39.849465l72.112676-32.335324-72.112676 32.335324zM156.253746 825.863211V133.711324l72.112677-32.335324v692.16631l-72.112677 32.320901z" fill="#CECEF9" /><path d="M156.253746 133.696901l631.101296 94.323381 72.112676-32.335324-631.101295-94.308958-72.112677 32.335324z" fill="#CECEF9" /><path d="M787.34062 228.020282V920.157746l72.112676-32.306478V195.670535l-72.112676 32.320902z" fill="#CECEF9" /><path d="M787.355042 920.157746L156.253746 825.877634l72.112677-32.335324 631.101295 94.32338-72.112676 32.306479zM156.253746 825.863211l72.112677-32.335324-72.112677 32.335324zM303.536676 224.919437l72.112676-32.320902-72.112676 32.320902zM387.677746 514.365296l72.112677-32.335324-72.112677 32.335324zM303.536676 594.064225l72.112676-32.306479-72.112676 32.306479zM555.988732 354.938592l72.112676-32.335324-72.112676 32.335324zM640.129803 644.370028l72.112676-32.320901-72.112676 32.320901zM145.739718 39.849465a63.156282 63.156282 0 0 0-31.787267 3.144112l72.112676-32.335323a63.156282 63.156282 0 0 1 31.787267-3.144113l-72.112676 32.335324z" fill="#CECEF9" /><path d="M113.938028 42.979155C89.217803 52.324958 72.112676 77.506704 72.112676 109.611268l72.112676-32.335324C144.225352 45.142535 161.316056 19.975211 186.050704 10.672676l-72.112676 32.306479zM72.112676 824.824789c0 44.594479 32.969915 85.669859 73.627042 91.756169l72.112676-32.335324C177.180845 878.188169 144.225352 837.083944 144.225352 792.51831l-72.112676 32.306479zM797.854648 1014.019606c11.393803 1.701859 22.181859 0.475944 31.80169-3.144113l72.112676-32.320901a63.170704 63.170704 0 0 1-31.787268 3.144112l-72.112676 32.320902z" fill="#CECEF9" /><path d="M829.656338 1010.875493c24.74907-9.316958 41.825352-34.484282 41.825352-66.603268l72.112676-32.320901c0 32.104563-17.076282 57.28631-41.825352 66.603268l-72.112676 32.320901zM871.496113 229.044282c0-44.594479-32.969915-85.669859-73.627043-91.756169l72.112676-32.320902c40.671549 6.071887 73.627042 47.16169 73.627043 91.756169l-72.112676 32.320902zM303.551099 224.919437a72.170366 72.170366 0 0 0-36.344789 3.605633l72.112676-32.335324a72.184789 72.184789 0 0 1 36.344789-3.591211l-72.112676 32.335324z" fill="#CECEF9" /><path d="M267.20631 228.52507c-28.268169 10.643831-47.810704 39.416789-47.810704 76.122141l72.112676-32.335324c0-36.69093 19.542535-65.47831 47.825126-76.122141l-72.112676 32.335324z" fill="#CECEF9" /><path d="M219.395606 304.632789c0 50.983662 37.686085 97.929014 84.155493 104.866253l72.112676-32.320901c-46.483831-6.951662-84.155493-53.897014-84.155493-104.851831l-72.112676 32.306479z" fill="#CECEF9" /><path d="M303.536676 409.499042a72.170366 72.170366 0 0 0 36.344789-3.591211l72.112676-32.320901a72.184789 72.184789 0 0 1-36.344789 3.591211l-72.112676 32.320901z" fill="#CECEF9" /><path d="M339.881465 405.907831c28.268169-10.643831 47.810704-39.416789 47.810704-76.122141l72.112676-32.320901c0 36.69093-19.528113 65.47831-47.810704 76.122141l-72.112676 32.320901zM387.677746 329.78569c0-50.969239-37.657239-97.929014-84.14107-104.851831l72.112676-32.335324c46.483831 6.951662 84.155493 53.897014 84.155493 104.851831l-72.112676 32.335324zM387.677746 514.365296c0-34.657352 17.436845-62.262085 43.195493-74.189521l72.112676-32.306479c-25.758648 11.913014-43.18107 39.517746-43.18107 74.160676l-72.112676 32.335324z" fill="#CECEF9" /><path d="M430.873239 440.175775c12.11493-5.610366 26.104789-7.744901 40.96-5.523831l72.112676-32.335324c-14.855211-2.22107-28.84507-0.072113-40.96 5.538253l-72.112676 32.320902z" fill="#CECEF9" /><path d="M471.833239 434.651944c46.483831 6.937239 84.155493 53.882592 84.155493 104.851831l72.112676-32.320902c0-50.969239-37.671662-97.929014-84.155493-104.851831l-72.112676 32.306479z" fill="#CECEF9" /><path d="M555.988732 539.503775c0 34.671775-17.436845 62.262085-43.195493 74.189521l72.112676-32.335324c25.758648-11.927437 43.18107-39.517746 43.181071-74.175099l-72.112676 32.335324z" fill="#CECEF9" /><path d="M512.807662 613.678873c-12.11493 5.624789-26.104789 7.773746-40.96 5.552676l72.112676-32.335324c14.855211 2.22107 28.84507 0.086535 40.96-5.538253l-72.112676 32.335324zM471.833239 619.217127c-46.469408-6.937239-84.14107-53.882592-84.14107-104.851831l72.112676-32.335324c0 50.969239 37.671662 97.929014 84.14107 104.866253l-72.112676 32.320902zM303.551099 594.064225a72.170366 72.170366 0 0 0-36.344789 3.605634l72.112676-32.320901a72.170366 72.170366 0 0 1 36.344789-3.605634l-72.112676 32.335324z" fill="#CECEF9" /><path d="M267.20631 597.669859c-28.268169 10.643831-47.810704 39.416789-47.810704 76.122141l72.112676-32.335324c0-36.69093 19.542535-65.47831 47.825126-76.107718l-72.112676 32.306479z" fill="#CECEF9" /><path d="M219.395606 673.792c0 50.969239 37.686085 97.914592 84.155493 104.851831l72.112676-32.320901c-46.483831-6.937239-84.155493-53.897014-84.155493-104.851831l-72.112676 32.306478z" fill="#CECEF9" /><path d="M303.536676 778.643831a72.170366 72.170366 0 0 0 36.344789-3.591211l72.112676-32.320902a72.170366 72.170366 0 0 1-36.344789 3.591212l-72.112676 32.320901z" fill="#CECEF9" /><path d="M339.881465 775.067042c28.268169-10.658254 47.810704-39.431211 47.810704-76.136563l72.112676-32.320902c0 36.69093-19.528113 65.47831-47.810704 76.122141l-72.112676 32.320902z" fill="#CECEF9" /><path d="M387.677746 698.944901c0-50.969239-37.657239-97.929014-84.14107-104.866253l72.112676-32.335324c46.483831 6.951662 84.155493 53.897014 84.155493 104.866253l-72.112676 32.335324zM555.988732 354.938592c0-34.657352 17.408-62.247662 43.166648-74.175099l72.112676-32.335324c-25.758648 11.927437-43.18107 39.517746-43.18107 74.175099l-72.112676 32.335324z" fill="#CECEF9" /><path d="M599.169803 280.74907c12.11493-5.610366 26.090366-7.744901 40.96-5.523831l72.112676-32.335324c-14.869634-2.22107-28.84507-0.072113-40.96 5.538254l-72.112676 32.320901z" fill="#CECEF9" /><path d="M640.129803 275.225239c46.469408 6.937239 84.14107 53.882592 84.14107 104.851831l72.112676-32.320901c0-50.969239-37.671662-97.929014-84.14107-104.851831l-72.112676 32.306479zM724.270873 380.091493c0 34.657352-17.422423 62.247662-43.18107 74.175099l72.112676-32.335324c25.758648-11.927437 43.18107-39.517746 43.18107-74.175099l-72.112676 32.335324z" fill="#CECEF9" /><path d="M681.089803 454.266592c-12.11493 5.610366-26.104789 7.759324-40.96 5.538253l72.112676-32.335324c14.855211 2.22107 28.84507 0.086535 40.96-5.538253l-72.112676 32.335324z" fill="#CECEF9" /><path d="M640.129803 459.790423c-46.483831-6.937239-84.155493-53.882592-84.155493-104.851831l72.112676-32.335324c0 50.969239 37.671662 97.929014 84.155493 104.866253l-72.112676 32.335324zM640.11538 644.370028a72.184789 72.184789 0 0 0-36.330366 3.605634l72.112676-32.335324a72.170366 72.170366 0 0 1 36.344789-3.605634l-72.112676 32.335324z" fill="#CECEF9" /><path d="M603.785014 647.961239c-28.268169 10.643831-47.810704 39.431211-47.810704 76.122141l72.112676-32.320901c0-36.705352 19.528113-65.47831 47.810704-76.122141l-72.112676 32.320901z" fill="#CECEF9" /><path d="M555.988732 724.08338c0 50.969239 37.657239 97.929014 84.141071 104.851831l72.112676-32.306479c-46.483831-6.951662-84.155493-53.897014-84.155493-104.866253l-72.112676 32.320901z" fill="#CECEF9" /><path d="M640.129803 828.949634a72.170366 72.170366 0 0 0 36.330366-3.605634l72.112676-32.306479a72.170366 72.170366 0 0 1-36.344789 3.576789l-72.112676 32.335324z" fill="#CECEF9" /><path d="M676.460169 825.358423c28.268169-10.658254 47.810704-39.431211 47.810704-76.122141l72.112676-32.335324c0 36.705352-19.528113 65.47831-47.810704 76.122141l-72.112676 32.335324zM724.270873 749.236282c0-50.969239-37.671662-97.929014-84.14107-104.866254l72.112676-32.320901c46.469408 6.937239 84.14107 53.882592 84.14107 104.851831l-72.112676 32.335324z" fill="#CECEF9" /><path d="M145.739718 39.849465C105.068169 33.777577 72.112676 65.002366 72.112676 109.596845V824.824789c0 44.594479 32.969915 85.669859 73.627042 91.756169l652.129352 97.438648c40.657127 6.08631 73.627042-25.152901 73.627043-69.747381v-715.213521c0-44.608901-32.969915-85.684282-73.627043-91.770591L145.739718 39.849465z m10.528451 786.013746V133.696901l631.072451 94.294536V920.157746L156.253746 825.877634z m147.28293-600.929352c-46.483831-6.951662-84.155493 28.744113-84.155493 79.69893 0 50.983662 37.671662 97.929014 84.155493 104.866253 46.469408 6.951662 84.14107-28.744113 84.14107-79.713352s-37.671662-97.914592-84.14107-104.851831z m84.14107 289.431437c0-50.969239 37.671662-86.665014 84.14107-79.713352 46.469408 6.937239 84.14107 53.882592 84.141071 104.851831 0 50.969239-37.671662 86.665014-84.141071 79.727774-46.469408-6.951662-84.14107-53.897014-84.14107-104.866253z m-84.14107 79.713352c-46.483831-6.951662-84.155493 28.744113-84.155493 79.713352s37.671662 97.914592 84.155493 104.851831c46.469408 6.951662 84.14107-28.72969 84.14107-79.69893 0-50.983662-37.671662-97.929014-84.14107-104.866253zM555.97431 354.938592c0-50.969239 37.671662-86.665014 84.155493-79.713353 46.469408 6.937239 84.14107 53.882592 84.14107 104.851831 0 50.969239-37.671662 86.665014-84.14107 79.713353-46.483831-6.937239-84.155493-53.882592-84.155493-104.851831z m84.155493 289.431436c-46.483831-6.937239-84.155493 28.744113-84.155493 79.713352s37.671662 97.929014 84.155493 104.851831c46.469408 6.951662 84.14107-28.72969 84.14107-79.698929s-37.671662-97.929014-84.14107-104.851831z" fill="#4E5969" /></svg>