<?xml version="1.0" standalone="no"?><!DOCTYPE svg PUBLIC "-//W3C//DTD SVG 1.1//EN" "http://www.w3.org/Graphics/SVG/1.1/DTD/svg11.dtd"><svg class="icon" width="200px" height="196.73px" viewBox="0 0 1041 1024" version="1.1" xmlns="http://www.w3.org/2000/svg"><path d="M705.160533 86.749867l211.5584 267.5712 85.333334-38.2464L790.493867 48.4864l-85.333334 38.2464zM916.718933 511.624533l-101.2224 97.792 85.333334-38.263466 101.2224-97.792-85.333334 38.263466zM752.366933 866.986667l-127.6416 123.306666 85.333334-38.2464 127.658666-123.306666-85.333333 38.263466zM538.794667 977.4592l-186.197334-235.52 85.333334-38.263467 186.197333 235.52-85.333333 38.263467z" fill="#CECEF9" /><path d="M352.597333 741.922133L70.5024 1014.391467l85.333333-38.263467 282.0608-272.452267-85.333333 38.2464z" fill="#CECEF9" /><path d="M70.519467 1014.391467L0 925.184l85.333333-38.263467 70.519467 89.1904-85.333333 38.263467z" fill="#CECEF9" /><path d="M0 925.184l282.0608-272.4352 85.333333-38.263467L85.333333 886.954667l-85.333333 38.263466z" fill="#CECEF9" /><path d="M282.0608 652.731733L98.56 420.6592l85.333333-38.263467 183.5008 232.106667-85.333333 38.229333zM98.56 318.754133l125.3376-121.053866 85.333333-38.263467-125.3376 121.070933-85.333333 38.229334zM462.967467 163.413333l101.1712-97.7408 85.333333-38.2464-101.1712 97.723734-85.333333 38.263466zM564.138667 65.672533l85.333333-38.2464-85.333333 38.2464zM634.658133 154.862933l-121.9072 117.76 85.333334-38.263466 121.9072-117.76-85.333334 38.263466zM294.417067 286.890667l-100.488534 97.058133 85.333334-38.2464 100.488533-97.0752-85.333333 38.263467zM193.928533 383.9488L581.768533 874.496l85.333334-38.263467-387.84-490.530133-85.333334 38.2464z" fill="#CECEF9" /><path d="M581.768533 874.496l100.078934-96.682667 85.333333-38.263466-100.078933 96.682666-85.333334 38.263467zM723.899733 540.5696l122.299734-118.135467 85.333333-38.2464-122.299733 118.1184-85.333334 38.263467z" fill="#CECEF9" /><path d="M846.199467 422.434133L634.658133 154.862933l85.333334-38.2464L931.5328 384.170667l-85.333333 38.229333zM634.658133 154.862933l85.333334-38.2464-85.333334 38.2464zM564.138667 65.672533A82.2272 82.2272 0 0 1 584.482133 51.2l85.333334-38.2464a82.2272 82.2272 0 0 0-20.343467 14.472533l-85.333333 38.2464z" fill="#CECEF9" /><path d="M584.4992 51.2c38.161067-19.114667 87.9616-5.819733 120.661333 35.549867l85.333334-38.2464C757.8112 7.1168 708.010667-6.161067 669.8496 12.9536l-85.333333 38.2464zM916.718933 354.321067c38.946133 49.2544 38.946133 119.688533 0 157.303466l85.333334-38.263466c38.946133-37.614933 38.946133-108.032 0-157.2864l-85.333334 38.2464zM815.496533 609.399467c23.3984 97.7408 0.068267 196.573867-63.1296 257.604266l85.333334-38.263466c63.197867-61.0304 86.528-159.8464 63.1296-257.5872l-85.333334 38.2464zM624.725333 990.293333a50.090667 50.090667 0 0 1-12.407466 8.823467l85.333333-38.263467c4.437333-2.218667 8.618667-5.137067 12.407467-8.8064l-85.333334 38.2464z" fill="#CECEF9" /><path d="M612.317867 999.1168c-23.2448 11.639467-53.589333 3.549867-73.506134-21.6576l85.333334-38.2464c19.933867 25.207467 50.261333 33.28 73.506133 21.6576l-85.333333 38.2464zM98.577067 420.6592c-25.2416-31.914667-25.2416-77.533867 0-101.905067l85.333333-38.2464c-25.2416 24.354133-25.2416 69.973333 0 101.888l-85.333333 38.263467zM223.914667 197.700267c15.121067-14.626133 31.914667-26.453333 49.834666-35.4304l85.333334-38.2464a201.6256 201.6256 0 0 0-49.834667 35.413333l-85.333333 38.263467z" fill="#CECEF9" /><path d="M273.749333 162.269867c56.797867-28.433067 125.098667-28.398933 189.218134 1.143466l85.333333-38.263466c-64.1024-29.525333-132.420267-29.559467-189.218133-1.1264l-85.333334 38.2464zM512.750933 272.605867a43.4688 43.4688 0 0 1-12.219733 8.362666l85.333333-38.263466c4.420267-1.9968 8.533333-4.778667 12.219734-8.362667l-85.333334 38.263467z" fill="#CECEF9" /><path d="M500.5312 280.968533c-14.011733 6.365867-30.993067 4.949333-46.1312-4.539733l85.333333-38.263467c15.138133 9.506133 32.119467 10.922667 46.1312 4.539734l-85.333333 38.263466zM454.4 276.4288c-39.3216-24.6784-83.182933-29.44-120.32-15.018667l85.333333-38.263466c37.137067-14.404267 80.9984-9.642667 120.32 15.018666l-85.333333 38.263467z" fill="#CECEF9" /><path d="M334.062933 261.410133a118.749867 118.749867 0 0 0-39.645866 25.480534l85.333333-38.263467a118.7328 118.7328 0 0 1 39.645867-25.463467l-85.333334 38.2464zM681.864533 777.813333c42.24-40.823467 54.510933-110.062933 30.976-174.830933l85.333334-38.263467c23.552 64.785067 11.264 134.024533-30.976 174.830934l-85.333334 38.263466zM712.840533 602.965333c-8.3968-23.108267-4.010667-47.8208 11.0592-62.395733l85.333334-38.263467c-15.069867 14.574933-19.456 39.287467-11.0592 62.4128l-85.333334 38.263467z" fill="#CECEF9" /><path d="M564.138667 65.672533c38.946133-37.614933 102.0928-28.177067 141.038933 21.077334l211.541333 267.5712c38.946133 49.2544 38.946133 119.688533 0 157.303466l-101.2224 97.792c23.3984 97.7408 0.068267 196.5568-63.1296 257.5872l-127.658666 123.2896c-23.722667 22.920533-62.173867 17.169067-85.896534-12.834133l-186.231466-235.52L70.519467 1014.3744 0 925.184l282.0608-272.452267-183.483733-232.106666c-25.2416-31.8976-25.2416-77.5168 0-101.888l125.320533-121.053867c63.095467-60.928 154.7264-73.147733 239.069867-34.304l101.1712-97.723733z m70.519466 89.1904l-121.9072 117.76c-15.325867 14.7968-38.434133 16.298667-58.368 3.805867-54.613333-34.269867-117.9648-30.122667-159.965866 10.461867l-100.488534 97.058133L581.768533 874.496l100.078934-96.682667c42.257067-40.823467 54.528-110.062933 30.993066-174.830933-8.3968-23.125333-4.027733-47.837867 11.0592-62.4128l122.299734-118.135467L634.658133 154.862933z" fill="#4E5969" /></svg>