<?xml version="1.0" standalone="no"?><!DOCTYPE svg PUBLIC "-//W3C//DTD SVG 1.1//EN" "http://www.w3.org/Graphics/SVG/1.1/DTD/svg11.dtd"><svg class="icon" width="200px" height="200.00px" viewBox="0 0 1024 1024" version="1.1" xmlns="http://www.w3.org/2000/svg"><path d="M198.627155 41.291718L652.951437 109.178592l72.112676-32.335324-454.309859-67.886874-72.112677 32.335324z" fill="#CECEF9" /><path d="M652.951437 109.178592l170.070535 207.540281 72.112676-32.306479L725.064113 76.843268l-72.112676 32.335324z" fill="#CECEF9" /><path d="M823.021972 316.718873v620.31324l72.112676-32.335324V284.397972l-72.112676 32.335324zM739.775099 1013.731155l-541.133522-80.852732 72.112677-32.335324 541.133521 80.867155-72.112676 32.335323zM115.380282 831.286085V117.990761l72.112676-32.320902v713.266479l-72.112676 32.335324zM115.380282 118.005183l72.112676-32.320901-72.112676 32.320901zM618.467155 193.189859l-419.84-62.738028 72.112676-32.335324 419.84 62.738028-72.112676 32.335324z" fill="#CECEF9" /><path d="M198.627155 130.451831V843.71831l72.112676-32.320902V98.116507l-72.112676 32.335324z" fill="#CECEF9" /><path d="M198.627155 843.71831l541.147944 80.867155 72.112676-32.335324-541.133521-80.867155-72.112677 32.335324z" fill="#CECEF9" /><path d="M739.775099 924.585465V341.222761l72.112676-32.320902v583.348282l-72.112676 32.335324zM739.775099 341.222761l-121.307944-148.047324 72.112676-32.320902 121.293521 148.032902-72.112676 32.335324zM618.467155 193.175437l72.112676-32.320902-72.112676 32.320902zM281.888451 343.487099l104.058591 15.561915 72.112676-32.335324-104.058591-15.547493-72.112676 32.320902zM385.947042 359.049014v111.44293l72.112676-32.320902v-111.457352l-72.112676 32.335324z" fill="#CECEF9" /><path d="M385.947042 470.491944l-104.058591-15.547493 72.112676-32.335324 104.058591 15.561915-72.112676 32.320902z" fill="#CECEF9" /><path d="M281.888451 454.944451v-111.457352l72.112676-32.320902v111.44293l-72.112676 32.335324zM281.888451 343.487099l72.112676-32.320902-72.112676 32.320902zM656.513803 499.236056v301.459831l72.112676-32.335324V466.915155l-72.112676 32.320901z" fill="#CECEF9" /><path d="M656.513803 800.695887l-391.860282-58.555493 72.112676-32.335324 391.860282 58.555493-72.112676 32.335324zM264.653521 742.125972l188.24293-173.474254 72.112676-32.320901-188.257352 173.474253-72.112676 32.320902z" fill="#CECEF9" /><path d="M452.896451 568.651718l59.651605 94.107043 72.112676-32.335324-59.651605-94.09262-72.112676 32.320901z" fill="#CECEF9" /><path d="M512.548056 662.758761l143.980169-163.522705 72.112676-32.320901-143.980169 163.508282-72.112676 32.335324zM656.513803 499.236056l72.112676-32.320901-72.112676 32.320901zM115.380282 118.005183C115.380282 84.516056 132.615211 57.920901 158.099831 46.483831l72.112676-32.320901C204.727887 25.6 187.492958 52.195155 187.492958 85.669859L115.380282 118.005183z" fill="#CECEF9" /><path d="M158.099831 46.483831c11.999549-5.379606 25.816338-7.398761 40.527324-5.192113l72.112676-32.335324C256.028845 6.778592 242.212056 8.797746 230.212507 14.16293l-72.112676 32.320901zM823.021972 937.032113c0 33.460282-17.23493 60.069859-42.719549 71.506929l72.112676-32.335324c25.48462-11.422648 42.719549-38.032225 42.719549-71.506929l-72.112676 32.320901z" fill="#CECEF9" /><path d="M780.302423 1008.539042c-11.985127 5.379606-25.816338 7.398761-40.527324 5.192113l72.112676-32.306479c14.710986 2.177803 28.542197 0.158648 40.527324-5.220958l-72.112676 32.335324zM198.627155 932.878423C152.648113 925.998873 115.380282 880.52462 115.380282 831.271662l72.112676-32.320901c0 49.238535 37.267831 94.727211 83.246873 101.592338l-72.112676 32.335324z" fill="#CECEF9" /><path d="M115.380282 118.005183c0-49.238535 37.267831-83.593014 83.246873-76.727887l454.309859 67.901296 170.084958 207.540281v620.31324c0 49.224113-37.267831 83.578592-83.246873 76.713464l-541.133522-80.867154C152.63369 925.998873 115.380282 880.52462 115.380282 831.271662V118.005183z m503.086873 75.170254l-419.84-62.738029V843.71831l541.133521 80.867155V341.222761l-121.293521-148.047324zM281.888451 343.501521l104.058591 15.547493v111.44293l-104.058591-15.547493v-111.44293zM656.513803 499.221634v301.459831l-391.860282-58.555493 188.24293-173.488676 59.651605 94.107042 143.965747-163.522704z" fill="#4E5969" /></svg>