<?xml version="1.0" standalone="no"?><!DOCTYPE svg PUBLIC "-//W3C//DTD SVG 1.1//EN" "http://www.w3.org/Graphics/SVG/1.1/DTD/svg11.dtd"><svg class="icon" width="200px" height="200.00px" viewBox="0 0 1024 1024" version="1.1" xmlns="http://www.w3.org/2000/svg"><path d="M72.112676 121.134873V813.286761l72.112676-32.320902V88.799549L72.112676 121.149296zM156.253746 918.138592l631.086874 94.32338 72.112676-32.335324-631.086873-94.308958-72.112677 32.335324zM871.48169 932.734197v-692.137465l72.112676-32.335324V900.398873l-72.112676 32.320902zM787.34062 135.716056L156.253746 41.421521l72.112677-32.335324L859.453296 103.409577l-72.112676 32.320902zM156.253746 41.421521l72.112677-32.335324-72.112677 32.335324zM156.253746 133.696901l631.086874 94.323381 72.112676-32.335324-631.086873-94.308958-72.112677 32.335324z" fill="#CECEF9" /><path d="M787.34062 228.020282V920.157746l72.112676-32.306478V195.670535l-72.112676 32.320902z" fill="#CECEF9" /><path d="M787.34062 920.157746L156.253746 825.877634l72.112677-32.335324 631.086873 94.32338-72.112676 32.306479zM156.253746 825.863211V133.711324l72.112677-32.335324v692.16631l-72.112677 32.320901zM156.253746 133.696901l72.112677-32.306478-72.112677 32.306478zM366.620845 257.427831l-126.226028-18.864676 72.112676-32.320901 126.226028 18.850253-72.112676 32.335324z" fill="#CECEF9" /><path d="M240.394817 238.563155v138.441915l72.112676-32.335324V206.242254l-72.112676 32.320901z" fill="#CECEF9" /><path d="M240.394817 377.00507l126.226028 18.850254 72.112676-32.320901-126.226028-18.864677-72.112676 32.335324z" fill="#CECEF9" /><path d="M366.620845 395.855324V257.442254l72.112676-32.320902v138.427493l-72.112676 32.320901zM366.620845 257.442254l72.112676-32.335324-72.112676 32.320901zM703.199549 815.305915V450.112901l72.112676-32.320901v365.178592l-72.112676 32.335323z" fill="#CECEF9" /><path d="M703.199549 450.112901l-227.44338 215.472676 72.112676-32.335323 227.44338-215.472677-72.112676 32.335324z" fill="#CECEF9" /><path d="M475.756169 665.585577l-77.593239-120.990647 72.112676-32.320902 77.593239 120.990648-72.112676 32.306479z" fill="#CECEF9" /><path d="M398.177352 544.59493l-159.657465 201.280901 72.112676-32.335324 159.657465-201.266479-72.112676 32.320902zM238.519887 745.875831l464.694085 69.430084 72.112676-32.335323-464.694085-69.430085-72.112676 32.335324zM703.199549 815.305915l72.112676-32.320901-72.112676 32.320901zM156.253746 41.421521a72.170366 72.170366 0 0 0-36.330366 3.591211l72.112676-32.320901a72.170366 72.170366 0 0 1 36.344789-3.605634l-72.112676 32.335324z" fill="#CECEF9" /><path d="M119.92338 45.012732C91.655211 55.670986 72.112676 84.429521 72.112676 121.149296l72.112676-32.335324C144.225352 52.10862 163.753465 23.321239 192.036056 12.691831l-72.112676 32.320901zM72.112676 813.286761c0 50.969239 37.671662 97.929014 84.14107 104.851831l72.112677-32.306479C181.897014 878.866028 144.225352 831.920676 144.225352 780.951437L72.112676 813.286761zM787.34062 1012.461972a72.184789 72.184789 0 0 0 36.344788-3.605634l72.112677-32.320901a72.170366 72.170366 0 0 1-36.344789 3.591211l-72.112676 32.320901z" fill="#CECEF9" /><path d="M823.670986 1008.856338c28.297014-10.643831 47.825127-39.416789 47.825127-76.122141l72.112676-32.320901c0 36.69093-19.528113 65.47831-47.810704 76.122141l-72.112677 32.320901zM871.496113 240.58231c0-50.969239-37.686085-97.929014-84.155493-104.851831l72.112676-32.335324c46.469408 6.937239 84.155493 53.897014 84.155493 104.851831l-72.112676 32.335324z" fill="#CECEF9" /><path d="M156.253746 41.421521C109.784338 34.469859 72.112676 70.165634 72.112676 121.134873V813.286761c0 50.969239 37.671662 97.929014 84.14107 104.851831l631.086874 94.32338c46.469408 6.922817 84.155493-28.758535 84.155493-79.727775v-692.137465c0-50.983662-37.686085-97.929014-84.155493-104.880676L156.253746 41.421521z m0 92.289803l631.086874 94.294535v692.16631L156.253746 825.863211V133.711324z m210.367099 123.716507l-126.211606-18.864676v138.441915l126.211606 18.850254V257.442254z m336.578704 557.863662V450.127324l-227.44338 215.472676-77.593239-120.990648-159.643043 201.280902 464.694085 69.430084z" fill="#4E5969" /></svg>