<?xml version="1.0" standalone="no"?><!DOCTYPE svg PUBLIC "-//W3C//DTD SVG 1.1//EN" "http://www.w3.org/Graphics/SVG/1.1/DTD/svg11.dtd"><svg class="icon" width="200px" height="200.00px" viewBox="0 0 1024 1024" version="1.1" xmlns="http://www.w3.org/2000/svg"><path d="M209.97769 40.815775l437.493183 65.391774 72.112676-32.335324L282.075944 8.509296l-72.112676 32.335324z" fill="#CECEF9" /><path d="M647.470873 106.207549l163.767888 206.602817 72.112676-32.320901L719.583549 73.872225l-72.112676 32.335324z" fill="#CECEF9" /><path d="M811.238761 312.824789v620.284394l72.112676-32.335324V280.489465l-72.112676 32.320901zM731.07831 1010.284169l-521.10062-77.88169 72.112676-32.306479 521.086197 77.867268-72.112676 32.306478zM129.802817 831.271662V118.005183L201.915493 85.669859v713.280902l-72.112676 32.320901zM129.802817 118.005183L201.915493 85.669859 129.802817 118.005183zM614.255775 190.391887L209.97769 129.99031l72.112676-32.335324L686.368451 158.070986l-72.112676 32.320901z" fill="#CECEF9" /><path d="M209.97769 129.99031v713.266479l72.112676-32.320902V97.640563l-72.112676 32.335324z" fill="#CECEF9" /><path d="M209.97769 843.256789l521.086197 77.867267 72.112676-32.320901-521.086197-77.88169-72.112676 32.335324z" fill="#CECEF9" /><path d="M731.07831 921.124056V337.775775l72.112676-32.320902v583.362704l-72.112676 32.320902zM731.07831 337.775775L614.255775 190.377465l72.112676-32.320902 116.822535 147.369465-72.112676 32.320902zM614.255775 190.391887l72.112676-32.320901-72.112676 32.320901zM630.856113 527.230197l-320.670648-47.926084 72.112676-32.320902 320.670648 47.911662-72.112676 32.335324z" fill="#CECEF9" /><path d="M310.185465 479.304113v-89.160113l72.112676-32.320901v89.160112l-72.112676 32.320902z" fill="#CECEF9" /><path d="M310.185465 390.144l320.670648 47.926085 72.112676-32.335324-320.670648-47.911662-72.112676 32.320901z" fill="#CECEF9" /><path d="M630.856113 438.055662v89.160113l72.112676-32.320902v-89.160112l-72.112676 32.320901zM630.856113 527.230197l72.112676-32.335324-72.112676 32.335324zM510.601014 687.565521l-200.415549-29.941183 72.112676-32.335324 200.415549 29.955606-72.112676 32.320901z" fill="#CECEF9" /><path d="M310.185465 657.624338v-89.160113l72.112676-32.320901v89.14569l-72.112676 32.335324z" fill="#CECEF9" /><path d="M310.185465 568.464225l200.415549 29.955606 72.112676-32.335324-200.415549-29.941183-72.112676 32.320901z" fill="#CECEF9" /><path d="M510.601014 598.405408v89.160113l72.112676-32.320901V566.084507l-72.112676 32.320901zM510.601014 687.579944l72.112676-32.335324-72.112676 32.335324zM129.802817 118.005183C129.802817 84.516056 146.388732 57.834366 170.95031 46.25307l72.112676-32.320901C218.501408 25.499042 201.915493 52.195155 201.915493 85.669859L129.802817 118.005183z" fill="#CECEF9" /><path d="M170.95031 46.25307a67.324394 67.324394 0 0 1 39.02738-5.422873l72.112676-32.335324a67.324394 67.324394 0 0 0-39.02738 5.437296l-72.112676 32.320901zM811.238761 933.109183c0 33.474704-16.585915 60.170817-41.133071 71.752113l72.112676-32.335324c24.532732-11.566873 41.13307-38.262986 41.133071-71.752113l-72.112676 32.335324z" fill="#CECEF9" /><path d="M770.091268 1004.861296c-11.538028 5.437296-24.850028 7.542986-39.027381 5.422873l72.112676-32.335324a67.324394 67.324394 0 0 0 39.027381-5.422873l-72.112676 32.335324zM209.97769 932.416901C165.700507 925.796958 129.802817 880.52462 129.802817 831.271662l72.112676-32.320901c0 49.238535 35.89769 94.525296 80.174873 101.130816l-72.112676 32.335324z" fill="#CECEF9" /><path d="M129.802817 118.005183c0-49.238535 35.89769-83.79493 80.174873-77.174986l437.493183 65.36293L811.238761 312.824789v620.298817c0 49.238535-35.89769 83.79493-80.160451 77.174986l-521.10062-77.881691C165.700507 925.81138 129.802817 880.539042 129.802817 831.286085V118.005183z m484.452958 72.401127L209.97769 129.961465v713.280901l521.086197 77.867268V337.761352L614.255775 190.391887z m16.600338 336.823887l-320.670648-47.926084v-89.160113l320.670648 47.926085v89.160112z m-120.255099 160.335324l-200.415549-29.941183v-89.160113l200.415549 29.955606v89.14569z" fill="#4E5969" /></svg>