<?xml version="1.0" standalone="no"?><!DOCTYPE svg PUBLIC "-//W3C//DTD SVG 1.1//EN" "http://www.w3.org/Graphics/SVG/1.1/DTD/svg11.dtd"><svg class="icon" width="200px" height="200.00px" viewBox="0 0 1024 1024" version="1.1" xmlns="http://www.w3.org/2000/svg"><path d="M209.97769 129.99031v713.266479l72.112676-32.320902V97.640563l-72.112676 32.335324z" fill="#CECEF9" /><path d="M209.97769 843.256789l521.086197 77.867267 72.112676-32.320901-521.086197-77.88169-72.112676 32.335324z" fill="#CECEF9" /><path d="M731.07831 921.124056V453.040676l72.112676-32.335324v468.097803l-72.112676 32.320901zM731.07831 453.040676L570.728563 429.070423l72.112676-32.335324 160.335324 23.970253-72.112676 32.306479zM510.601014 353.22231V174.902085l72.112676-32.320902V320.901408l-72.112676 32.320902z" fill="#CECEF9" /><path d="M510.601014 174.902085L209.992113 130.004732l72.112676-32.335324 300.623324 44.926198-72.112676 32.335324zM209.97769 129.99031l72.112676-32.335324-72.112676 32.335324zM590.775887 249.942535v92.967662l72.112676-32.320901v-92.982085l-72.112676 32.320902zM590.775887 342.910197l83.607437 12.504338 72.112676-32.335324-83.607437-12.489915-72.112676 32.320901z" fill="#CECEF9" /><path d="M674.383324 355.414535l-83.607437-105.486422 72.112676-32.320902 83.607437 105.472-72.112676 32.335324z" fill="#CECEF9" /><path d="M590.775887 249.942535l72.112676-32.335324-72.112676 32.320902zM189.930366 37.83031l377.365634 56.392113 72.112676-32.335324L262.043042 5.494986l-72.112676 32.335324z" fill="#CECEF9" /><path d="M567.296 94.222423L811.238761 401.956056l72.112676-32.320901L639.408676 61.872676l-72.112676 32.335324zM811.238761 401.970479v553.421521l72.112676-32.320901V369.649577l-72.112676 32.320902zM751.125634 1013.284056L189.915944 929.417014l72.112676-32.320901 561.180845 83.852619-72.112676 32.335324zM129.802817 853.568901V95.707944l72.112676-32.320902v757.846535l-72.112676 32.335324z" fill="#CECEF9" /><path d="M129.802817 95.707944l72.112676-32.320902-72.112676 32.320902zM570.728563 429.070423c-33.200676-4.94693-60.127549-38.912-60.127549-75.848113l72.112676-32.320902c0 36.92169 26.926873 70.886761 60.141972 75.862536l-72.112676 32.306479z" fill="#CECEF9" /><path d="M129.802817 95.707944c0-25.095211 12.446648-45.128113 30.864225-53.796057l72.112676-32.335324C214.347718 18.25893 201.915493 38.277408 201.915493 63.387042L129.802817 95.707944z" fill="#CECEF9" /><path d="M160.667042 41.897465a50.493296 50.493296 0 0 1 29.263324-4.067155l72.112676-32.320902a50.493296 50.493296 0 0 0-29.277746 4.067155l-72.112676 32.320902zM811.238761 955.392c0 25.109634-12.446648 45.142535-30.864226 53.810479l72.112676-32.320902c18.417577-8.682366 30.864225-28.700845 30.864226-53.810478l-72.112676 32.320901z" fill="#CECEF9" /><path d="M780.388958 1009.202479a50.478873 50.478873 0 0 1-29.277747 4.081577l72.112676-32.335324a50.478873 50.478873 0 0 0 29.277747-4.067155l-72.112676 32.320902zM189.930366 929.417014C156.72969 924.455662 129.802817 890.505014 129.802817 853.554479l72.112676-32.306479c0 36.92169 26.926873 70.886761 60.127549 75.848113l-72.112676 32.320901z" fill="#CECEF9" /><path d="M209.97769 129.99031v713.266479l521.086197 77.867267V453.040676L570.742986 429.070423c-33.200676-4.961352-60.127549-38.940845-60.127549-75.862536V174.902085L209.992113 129.99031z m380.798197 119.937803v92.982084l83.607437 12.504338-83.607437-105.486422zM129.802817 95.707944c0-36.92169 26.926873-62.838986 60.127549-57.877634l377.365634 56.392113L811.238761 401.956056v553.421521c0 36.92169-26.912451 62.853408-60.12755 57.892057L189.944789 929.417014C156.72969 924.455662 129.802817 890.505014 129.802817 853.554479V95.722366z" fill="#4E5969" /></svg>