<?xml version="1.0" standalone="no"?><!DOCTYPE svg PUBLIC "-//W3C//DTD SVG 1.1//EN" "http://www.w3.org/Graphics/SVG/1.1/DTD/svg11.dtd"><svg class="icon" width="200px" height="157.42px" viewBox="0 0 1301 1024" version="1.1" xmlns="http://www.w3.org/2000/svg"><path d="M81.536 366.677333L0 267.093333l106.666667-47.829333 81.536 99.562667-106.666667 47.829333zM1182.421333 443.797333l-81.536 75.2 106.666667-47.829333 81.536-75.178667-106.666667 47.808zM591.210667 194.154667l106.666666-47.808-106.666666 47.808zM921.813333 694.186667l82.645334-73.706667 106.666666-47.829333-82.645333 73.706666-106.666667 47.808zM177.962667 496.96l82.624 98.389333 106.666666-47.808-82.624-98.389333-106.666666 47.808zM260.586667 595.349333l106.666666-47.808-106.666666 47.808zM761.514667 848.618667l85.12-70.186667 106.666666-47.786667-85.12 70.144-106.666666 47.829334zM335.786667 702.122667l85.12 95.573333 106.666666-47.786667-85.12-95.616-106.666666 47.829334zM420.906667 797.717333l106.666666-47.808-106.666666 47.808zM690.410667 923.050667l-99.2 97.557333 106.666666-47.808 99.2-97.557333-106.666666 47.808z" fill="#CECEF9" /><path d="M591.210667 1020.608l-99.2-127.210667 106.666666-47.808 99.2 127.210667-106.666666 47.808zM644.906667 881.792l106.666666-47.808-106.666666 47.808zM591.210667 194.154667c-112.426667-16.789333-218.666667-2.730667-312.832 36.437333l106.666666-47.808c94.186667-39.168 200.405333-53.248 312.832-36.437333l-106.666666 47.808z" fill="#CECEF9" /><path d="M278.4 230.613333c-74.026667 30.762667-140.586667 77.056-196.864 136.042667l106.666667-47.786667c56.298667-59.029333 122.858667-105.301333 196.842666-136.106666l-106.666666 47.829333zM0 267.093333c59.306667-62.144 128.490667-112.149333 205.077333-147.562666l106.666667-47.829334C235.157333 107.114667 165.973333 157.141333 106.666667 219.306667l-106.666667 47.829333z" fill="#CECEF9" /><path d="M205.077333 119.530667c114.88-53.12 246.4-73.386667 386.133334-52.522667l106.666666-47.808C558.144-1.706667 426.624 18.56 311.744 71.68l-106.666667 47.829333zM591.210667 67.008c232.853333 34.794667 442.944 177.088 591.210666 376.789333l106.666667-47.829333C1140.821333 196.288 930.730667 53.994667 697.877333 19.2l-106.666666 47.808z" fill="#CECEF9" /><path d="M1100.885333 518.997333C972.949333 346.666667 791.978667 224.170667 591.210667 194.133333l106.666666-47.808c200.746667 29.994667 381.738667 152.490667 509.653334 324.821334l-106.666667 47.829333zM260.586667 595.349333a373.866667 373.866667 0 0 1 114.197333-84.565333l106.666667-47.829333a373.866667 373.866667 0 0 0-114.197334 84.586666l-106.666666 47.808z" fill="#CECEF9" /><path d="M374.762667 510.784c64.213333-30.506667 137.962667-42.282667 216.448-30.549333l106.666666-47.808c-78.506667-11.733333-152.256 0.042667-216.448 30.528l-106.666666 47.829333z" fill="#CECEF9" /><path d="M591.210667 480.234667c130.816 19.541333 248.490667 100.437333 330.624 213.930666l106.666666-47.808c-82.133333-113.493333-199.808-194.389333-330.624-213.930666l-106.666666 47.808z" fill="#CECEF9" /><path d="M1004.458667 620.48c-102.485333-141.653333-249.749333-242.944-413.248-267.392l106.666666-47.808c163.498667 24.426667 310.762667 125.738667 413.226667 267.370667l-106.666667 47.829333zM591.210667 353.088c-91.562667-13.674667-178.048-1.728-254.4 30.933333l106.666666-47.829333c76.373333-32.64 162.837333-44.586667 254.4-30.933333l-106.666666 47.829333z" fill="#CECEF9" /><path d="M336.810667 384.021333c-59.989333 25.664-113.749333 64.106667-158.848 112.938667l106.666666-47.808c45.098667-48.853333 98.858667-87.296 158.848-112.938667l-106.666666 47.808zM420.906667 797.717333a187.605333 187.605333 0 0 1 64.810666-49.194666l106.666667-47.829334a187.605333 187.605333 0 0 0-64.810667 49.194667l-106.666666 47.829333z" fill="#CECEF9" /><path d="M485.738667 748.522667c31.445333-14.293333 67.328-19.690667 105.472-13.994667l106.666666-47.808c-38.144-5.696-74.026667-0.32-105.472 13.994667l-106.666666 47.786666z" fill="#CECEF9" /><path d="M591.210667 734.528c68.096 10.176 129.066667 53.546667 170.304 114.090667l106.666666-47.829334c-41.258667-60.522667-102.208-103.893333-170.304-114.069333l-106.666666 47.808z" fill="#CECEF9" /><path d="M846.634667 778.453333c-61.653333-90.496-153.258667-155.797333-255.424-171.072l106.666666-47.808c102.165333 15.253333 193.749333 80.576 255.424 171.050667l-106.666666 47.829333zM591.210667 607.381333c-53.12-7.936-103.402667-1.493333-148.096 16.661334l106.666666-47.808c44.693333-18.154667 94.954667-24.597333 148.096-16.661334l-106.666666 47.808z" fill="#CECEF9" /><path d="M443.136 624.042667c-41.258667 16.768-77.738667 43.498667-107.349333 78.08l106.666666-47.829334c29.610667-34.56 66.090667-61.312 107.349334-78.058666l-106.666667 47.808zM644.906667 881.792a174.656 174.656 0 0 1 45.504 41.258667l106.666666-47.808a174.634667 174.634667 0 0 0-45.504-41.258667l-106.666666 47.808zM492.010667 893.418667a115.413333 115.413333 0 0 1 33.536-23.061334l106.666666-47.829333a115.370667 115.370667 0 0 0-33.557333 23.061333l-106.666667 47.829334z" fill="#CECEF9" /><path d="M525.546667 870.357333a112.213333 112.213333 0 0 1 11.968-4.608l106.666666-47.808a113.130667 113.130667 0 0 0-11.968 4.586667l-106.666666 47.829333z" fill="#CECEF9" /><path d="M537.514667 865.749333a118.229333 118.229333 0 0 1 53.696-4.053333l106.666666-47.829333a118.250667 118.250667 0 0 0-53.696 4.053333l-106.666666 47.829333z" fill="#CECEF9" /><path d="M591.210667 861.674667c18.410667 2.773333 36.672 9.6 53.696 20.138666l106.666666-47.829333a142.293333 142.293333 0 0 0-53.696-20.117333l-106.666666 47.808z" fill="#CECEF9" /><path d="M591.210667 194.154667c-200.746667-29.994667-381.738667 38.4-509.674667 172.501333L0 267.093333C148.266667 111.722667 358.336 32.213333 591.210667 67.029333c232.853333 34.794667 442.944 177.088 591.210666 376.789334l-81.536 75.178666c-127.936-172.330667-308.906667-294.826667-509.674666-324.821333zM260.586667 595.349333c82.133333-88.96 199.808-134.656 330.624-115.114666 130.794667 19.541333 248.490667 100.437333 330.602666 213.930666l82.645334-73.706666c-102.506667-141.632-249.749333-242.944-413.248-267.370667-163.52-24.426667-310.762667 32.853333-413.248 143.872l82.624 98.389333z m160.32 202.368c41.237333-48.213333 102.208-73.365333 170.304-63.189333 68.096 10.176 129.066667 53.546667 170.304 114.090667l85.12-70.186667c-61.674667-90.453333-153.258667-155.776-255.424-171.050667-102.186667-15.274667-193.749333 22.677333-255.424 94.72l85.12 95.616z m224 84.074667a174.634667 174.634667 0 0 1 45.504 41.258667l-99.2 97.557333-99.2-127.210667a114.517333 114.517333 0 0 1 45.504-27.648 118.229333 118.229333 0 0 1 53.696-4.053333c18.410667 2.730667 36.672 9.578667 53.674666 20.096z" fill="#4E5969" /></svg>