<?xml version="1.0" standalone="no"?><!DOCTYPE svg PUBLIC "-//W3C//DTD SVG 1.1//EN" "http://www.w3.org/Graphics/SVG/1.1/DTD/svg11.dtd"><svg class="icon" width="200px" height="200.00px" viewBox="0 0 1024 1024" version="1.1" xmlns="http://www.w3.org/2000/svg"><path d="M164.830968 142.352516l82.580645-37.012645-82.580645 37.012645zM319.983484 251.920516l333.642322 220.093936 82.580646-37.012646-333.642323-220.110451-82.580645 37.029161zM657.143742 705.767226l-338.002581 136.340645 82.580645-37.012645 338.002581-136.340645-82.580645 37.012645zM274.795355 744.514065l337.853935-136.274581 82.580645-37.029161-337.853935 136.291096-82.580645 37.012646zM611.906065 558.129548L278.296774 338.035613l82.580645-37.012645 333.592775 220.093935-82.580646 37.012645zM8.258065 182.982194l82.580645-37.029162-82.580645 37.029162zM767.091613 539.664516l82.580645-37.029161-82.580645 37.029161zM164.830968 782.583742l82.580645-37.012645-82.580645 37.012645zM164.830968 142.352516a52.554323 52.554323 0 0 0-29.316129 3.699613l82.580645-37.012645a52.570839 52.570839 0 0 1 29.332645-3.699613l-82.580645 37.012645z" fill="#CECEF9" /><path d="M135.514839 146.052129c-18.432 8.192-30.885161 27.268129-30.885162 51.315613l82.580646-36.996129c0-24.064 12.453161-43.140129 30.885161-51.332129l-82.580645 37.012645z" fill="#CECEF9" /><path d="M104.613161 197.367742c0 35.377548 26.954323 68.046452 60.234323 73.034323l82.580645-37.029162c-33.28-4.954839-60.234323-37.656774-60.234323-73.00129l-82.580645 36.996129z" fill="#CECEF9" /><path d="M164.830968 270.402065a52.669935 52.669935 0 0 0 29.002322-3.550968l82.580645-37.029162c-8.604903 3.749161-18.498065 5.12-28.985806 3.550968l-82.580645 37.029162z" fill="#CECEF9" /><path d="M193.83329 266.851097a50.572387 50.572387 0 0 0 25.335742-24.675097l82.580645-37.012645a50.572387 50.572387 0 0 1-25.335742 24.65858l-82.580645 37.029162zM219.169032 242.176c6.094452-12.535742 7.531355-28.325161 3.930839-43.437419l82.580645-37.012646c3.600516 15.112258 2.147097 30.885161-3.930839 43.43742l-82.580645 37.012645zM223.099871 198.738581c-6.771613-28.490323-30.356645-52.224-58.252387-56.386065l82.580645-37.012645c27.895742 4.162065 51.480774 27.895742 58.252387 56.386064l-82.580645 37.012646zM8.258065 182.982194c0-58.846968 28.721548-106.264774 72.05987-129.387355l82.580646-37.012645C119.560258 39.704774 90.83871 87.106065 90.83871 145.953032L8.258065 182.99871z" fill="#CECEF9" /><path d="M80.317935 53.594839c24.377806-13.01471 53.396645-18.332903 84.529549-13.675355l82.580645-37.029161c-31.132903-4.641032-60.151742 0.660645-84.529548 13.691871l-82.580646 37.012645z" fill="#CECEF9" /><path d="M164.830968 39.919484c72.786581 10.867613 133.84671 72.720516 151.452903 146.762322l82.580645-37.029161C381.274839 75.643871 320.21471 13.774452 247.411613 2.890323l-82.580645 37.029161zM316.283871 186.681806c5.235613 21.867355 6.44129 44.098065 3.699613 65.23871l82.580645-37.029161a181.181935 181.181935 0 0 0-3.683097-65.23871l-82.580645 37.029161zM653.625806 472.030968a128.445935 128.445935 0 0 1 35.014194-24.163097l82.580645-37.012645a128.445935 128.445935 0 0 0-35.014193 24.14658l-82.580646 37.012646z" fill="#CECEF9" /><path d="M688.64 447.867871c23.056516-10.768516 49.845677-14.914065 78.451613-10.652903l82.580645-37.012645c-28.605935-4.277677-55.395097-0.132129-78.451613 10.652903l-82.580645 37.012645zM767.091613 437.214968c86.478452 12.932129 156.572903 97.940645 156.572903 189.869419l82.580645-37.029161c0-91.928774-70.094452-176.93729-156.572903-189.852903l-82.580645 37.012645zM923.681032 627.084387c0 58.830452-28.721548 106.248258-72.059871 129.370839l82.580645-37.012645c43.338323-23.122581 72.059871-70.540387 72.059871-129.387355l-82.580645 37.029161z" fill="#CECEF9" /><path d="M851.621161 756.455226c-24.394323 13.01471-53.396645 18.332903-84.529548 13.691871l82.580645-37.029162c31.132903 4.657548 60.151742-0.660645 84.529548-13.675354l-82.580645 37.012645zM767.091613 770.147097c-42.875871-6.408258-81.721806-30.554839-109.947871-64.379871l82.580645-37.012645c28.242581 33.825032 67.055484 57.971613 109.947871 64.363354l-82.580645 37.029162zM319.141161 842.107871c10.339097 70.490839-22.544516 135.812129-78.963613 161.313032l82.580646-37.012645c56.419097-25.500903 89.30271-90.83871 78.947096-161.313032l-82.580645 37.012645z" fill="#CECEF9" /><path d="M240.177548 1003.420903c-21.933419 9.909677-47.434323 13.824-75.330064 9.64542l82.580645-37.012646c27.895742 4.162065 53.396645 0.280774 75.330065-9.645419l-82.580646 37.012645zM164.830968 1013.066323C78.369032 1000.15071 8.258065 915.15871 8.258065 823.213419L90.83871 786.167742c0 91.94529 70.094452 176.93729 156.572903 189.869419l-82.580645 37.012645z" fill="#CECEF9" /><path d="M8.258065 823.213419c0-58.846968 28.721548-106.264774 72.05987-129.387354l82.580646-37.012646C119.560258 679.936 90.83871 727.33729 90.83871 786.167742l-82.580645 37.029161z" fill="#CECEF9" /><path d="M80.317935 693.842581c24.377806-13.01471 53.396645-18.332903 84.529549-13.708387l82.580645-36.996129c-31.132903-4.657548-60.151742 0.660645-84.529548 13.675354l-82.580646 37.012646z" fill="#CECEF9" /><path d="M164.830968 680.134194c42.892387 6.424774 81.721806 30.554839 109.964387 64.379871l82.580645-37.012646c-28.242581-33.825032-67.072-57.971613-109.947871-64.379871l-82.580645 37.029162zM612.64929 608.239484a186.268903 186.268903 0 0 1-2.147096-27.961807l82.580645-37.012645c0 9.397677 0.743226 18.762323 2.147096 27.945291l-82.580645 37.029161zM610.502194 580.277677c0-7.580903 0.495484-14.963613 1.403871-22.131612l82.580645-37.029162c-0.924903 7.184516-1.403871 14.567226-1.403871 22.131613l-82.580645 37.029161zM278.296774 338.035613a128.429419 128.429419 0 0 1-35.014193 24.146581l82.580645-37.012646a128.462452 128.462452 0 0 0 35.014193-24.14658l-82.580645 37.012645z" fill="#CECEF9" /><path d="M243.282581 362.19871c-23.04 10.768516-49.845677 14.914065-78.451613 10.636387l82.580645-37.012645c28.605935 4.261161 55.411613 0.115613 78.451613-10.652904l-82.580645 37.012646z" fill="#CECEF9" /><path d="M164.830968 372.835097C78.369032 359.919484 8.258065 274.910968 8.258065 182.99871l82.580645-37.029162c0 91.94529 70.094452 176.93729 156.572903 189.86942l-82.580645 37.012645zM767.091613 539.664516a52.653419 52.653419 0 0 0-29.002323 3.550968l82.580645-37.029161a52.653419 52.653419 0 0 1 29.002323-3.550968l-82.580645 37.029161z" fill="#CECEF9" /><path d="M738.105806 543.215484a50.572387 50.572387 0 0 0-25.335741 24.658581l82.580645-37.012646c5.450323-11.297032 14.369032-19.901935 25.319225-24.675096l-82.580645 37.029161z" fill="#CECEF9" /><path d="M712.770065 567.874065a60.795871 60.795871 0 0 0-5.912775 26.805677l82.580645-37.012645c0-10.02529 2.130581-19.043097 5.912775-26.805678l-82.580645 37.012646z" fill="#CECEF9" /><path d="M706.85729 594.679742c0 10.752 2.477419 21.107613 6.755097 30.50529l82.580645-37.012645a73.496774 73.496774 0 0 1-6.755097-30.50529l-82.580645 37.012645z" fill="#CECEF9" /><path d="M713.612387 625.185032c10.107871 22.131613 30.307097 39.060645 53.479226 42.512516l82.580645-37.012645c-23.172129-3.468387-43.371355-20.380903-53.479226-42.512516l-82.580645 37.012645z" fill="#CECEF9" /><path d="M767.091613 667.697548c10.652903 1.602065 20.645161 0.165161 29.316129-3.699613l82.580645-37.012645c-8.670968 3.848258-18.663226 5.285161-29.316129 3.699613l-82.580645 37.012645z" fill="#CECEF9" /><path d="M796.407742 663.997935c18.448516-8.175484 30.901677-27.268129 30.901677-51.315612l82.580646-37.012646c0 24.047484-12.453161 43.123613-30.885162 51.315613l-82.580645 37.012645zM827.309419 612.682323c0-35.361032-26.954323-68.046452-60.217806-73.017807l82.580645-37.029161c33.263484 4.971355 60.217806 37.656774 60.217807 73.034322l-82.580646 36.996129zM164.830968 782.583742a52.570839 52.570839 0 0 0-29.316129 3.699613l82.580645-37.012645a52.570839 52.570839 0 0 1 29.332645-3.699613l-82.580645 37.012645z" fill="#CECEF9" /><path d="M135.514839 786.283355c-18.432 8.192-30.885161 27.284645-30.885162 51.332129l82.580646-37.029161c0-24.047484 12.453161-43.123613 30.885161-51.315613l-82.580645 37.012645z" fill="#CECEF9" /><path d="M104.613161 837.615484c0 35.361032 26.954323 68.046452 60.234323 73.017806l82.580645-37.029161c-33.28-4.954839-60.234323-37.656774-60.234323-73.00129l-82.580645 36.996129z" fill="#CECEF9" /><path d="M164.830968 910.63329a49.647484 49.647484 0 0 0 24.245677-2.213161l82.580645-37.012645a49.647484 49.647484 0 0 1-24.229161 2.196645l-82.580645 37.029161z" fill="#CECEF9" /><path d="M189.076645 908.420129c29.316129-10.471226 45.155097-48.474839 29.233549-83.323871l82.580645-37.012645c15.938065 34.849032 0.082581 72.852645-29.233549 83.323871l-82.580645 37.012645z" fill="#CECEF9" /><path d="M218.32671 825.096258c-10.124387-22.131613-30.307097-39.044129-53.479226-42.512516l82.580645-37.012645c23.172129 3.468387 43.354839 20.380903 53.479226 42.512516l-82.580645 37.012645z" fill="#CECEF9" /><path d="M164.830968 142.352516c-33.263484-4.971355-60.217806 19.654194-60.217807 55.031742 0 35.344516 26.954323 68.046452 60.234323 73.00129 23.84929 3.584 44.560516-8.043355 54.321548-28.209548 6.094452-12.535742 7.531355-28.325161 3.930839-43.437419-6.771613-28.490323-30.356645-52.224-58.252387-56.386065zM8.258065 182.982194c0-91.94529 70.094452-155.994839 156.572903-143.06271 72.786581 10.867613 133.84671 72.720516 151.452903 146.762322 5.235613 21.883871 6.44129 44.098065 3.699613 65.23871l333.642322 220.093936c28.490323-27.581935 68.773161-41.455484 113.465807-34.799484 86.478452 12.932129 156.572903 97.940645 156.572903 189.869419 0 91.928774-70.094452 155.978323-156.572903 143.06271-42.875871-6.408258-81.721806-30.554839-109.947871-64.379871l-338.002581 136.340645c14.369032 97.907613-54.668387 185.856-154.293677 170.958452C78.352516 1000.15071 8.258065 915.15871 8.258065 823.213419c0-91.94529 70.094452-155.994839 156.572903-143.062709 42.892387 6.408258 81.721806 30.554839 109.964387 64.363355l337.853935-136.274581a186.268903 186.268903 0 0 1-2.147096-27.961807c0-7.580903 0.495484-14.963613 1.403871-22.131612L278.296774 338.019097c-28.506839 27.598452-68.789677 41.472-113.465806 34.799484C78.352516 359.919484 8.258065 274.910968 8.258065 182.99871z m758.833548 356.682322c-23.84929-3.567484-44.560516 8.059871-54.338065 28.209549a60.795871 60.795871 0 0 0-5.896258 26.805677c0 10.752 2.477419 21.107613 6.755097 30.50529 10.107871 22.131613 30.307097 39.060645 53.479226 42.529033 33.263484 4.954839 60.217806-19.654194 60.217806-55.031742 0-35.361032-26.954323-68.046452-60.217806-73.017807zM164.830968 782.583742c-33.28-4.954839-60.234323 19.654194-60.234323 55.031742 0 35.361032 26.954323 68.046452 60.234323 73.017806 43.652129 6.523871 73.381161-41.967484 53.479226-85.537032-10.124387-22.131613-30.307097-39.044129-53.479226-42.512516z" fill="#4E5969" /></svg>