<?xml version="1.0" standalone="no"?><!DOCTYPE svg PUBLIC "-//W3C//DTD SVG 1.1//EN" "http://www.w3.org/Graphics/SVG/1.1/DTD/svg11.dtd"><svg class="icon" width="200px" height="156.34px" viewBox="0 0 1310 1024" version="1.1" xmlns="http://www.w3.org/2000/svg"><path d="M1169.26464 595.6608l19.0464 36.20864 102.4-45.91616-19.0464-36.20864-102.4 45.91616zM1188.33152 631.86944l-19.06688 30.5152 102.4-45.91616 19.0464-30.5152-102.4 45.91616zM19.0464 490.496L0 454.28736l102.4-45.89568 19.0464 36.20864-102.4 45.89568zM0 454.28736l19.0464-30.5152 102.4-45.89568L102.4 408.3712l-102.4 45.89568zM19.0464 423.77216l102.4-45.89568-102.4 45.89568zM137.91232 474.89024l102.4-45.89568-102.4 45.89568zM594.16576 448.1024l102.4-45.8752-102.4 45.8752zM389.81632 512.53248l102.4-45.89568-102.4 45.89568z" fill="#CECEF9" /><path d="M19.0464 423.77216c96.8704-154.89024 204.24704-263.86432 322.80576-319.0784l102.4-45.91616c-118.5792 55.21408-225.95584 164.20864-322.78528 319.0784l-102.4 45.91616z" fill="#CECEF9" /><path d="M341.85216 104.69376c79.0528-36.82304 163.10272-49.72544 252.3136-36.39296l102.4-45.89568c-89.21088-13.33248-173.2608-0.43008-252.3136 36.37248l-102.4 45.91616z" fill="#CECEF9" /><path d="M594.16576 68.3008c223.0272 33.32096 413.696 220.9792 575.0784 527.36l102.4-45.91616c-161.3824-306.3808-352.0512-494.01856-575.0784-527.36l-102.4 45.91616zM1169.26464 662.36416c-96.84992 154.89024-204.22656 263.8848-322.80576 319.09888l102.4-45.89568c118.5792-55.21408 225.95584-164.20864 322.80576-319.09888l-102.4 45.89568z" fill="#CECEF9" /><path d="M846.45888 981.46304c-79.0528 36.80256-163.08224 49.70496-252.3136 36.39296l102.4-45.91616c89.23136 13.33248 173.2608 0.4096 252.3136-36.37248l-102.4 45.89568z" fill="#CECEF9" /><path d="M594.16576 1017.856C371.13856 984.51456 180.46976 796.8768 19.0464 490.496l102.4-45.89568c161.40288 306.3808 352.0512 494.01856 575.0784 527.36l-102.4 45.8752z" fill="#CECEF9" /><path d="M137.91232 474.89024c146.3296 264.51968 299.33568 392.9088 456.25344 416.3584l102.4-45.91616c-156.91776-23.4496-309.92384-151.83872-456.25344-416.3584l-102.4 45.91616z" fill="#CECEF9" /><path d="M594.16576 891.24864c62.7712 9.37984 124.90752 1.78176 186.24512-24.86272l102.4-45.8752c-61.3376 26.624-123.4944 34.2016-186.24512 24.82176l-102.4 45.91616z" fill="#CECEF9" /><path d="M780.41088 866.4064c91.99616-39.936 182.21056-122.6752 270.00832-255.16032l102.4-45.89568c-87.79776 132.46464-178.01216 215.20384-270.00832 255.13984l-102.4 45.91616z" fill="#CECEF9" /><path d="M1050.4192 611.24608C904.06912 346.74688 751.06304 218.35776 594.16576 194.90816l102.4-45.89568C853.46304 172.4416 1006.46912 300.8512 1152.8192 565.3504l-102.4 45.89568z" fill="#CECEF9" /><path d="M594.16576 194.90816c-62.7712-9.37984-124.90752-1.78176-186.24512 24.84224l102.4-45.89568c61.3376-26.624 123.4944-34.22208 186.24512-24.84224l-102.4 45.89568z" fill="#CECEF9" /><path d="M407.92064 219.7504c-91.99616 39.936-182.21056 122.6752-270.00832 255.13984l102.4-45.89568c87.79776-132.46464 178.01216-215.20384 270.00832-255.13984l-102.4 45.89568zM594.16576 448.1024a75.91936 75.91936 0 0 0-37.82656 3.64544l102.4-45.89568a75.8784 75.8784 0 0 1 37.82656-3.62496l-102.4 45.8752z" fill="#CECEF9" /><path d="M556.3392 451.74784c-29.42976 10.91584-49.7664 40.48896-49.7664 78.2336l102.4-45.89568c0-37.76512 20.33664-67.33824 49.7664-78.2336l-102.4 45.89568zM506.59328 529.98144c0 52.44928 39.19872 100.82304 87.57248 108.05248l102.4-45.91616c-48.37376-7.22944-87.57248-55.58272-87.57248-108.032l-102.4 45.89568z" fill="#CECEF9" /><path d="M594.16576 638.03392c13.53728 2.02752 26.35776 0.6144 37.80608-3.62496l102.4-45.91616a75.89888 75.89888 0 0 1-37.80608 3.62496l-102.4 45.91616z" fill="#CECEF9" /><path d="M631.97184 634.40896c29.45024-10.91584 49.7664-40.48896 49.7664-78.2336l102.4-45.91616c0 37.76512-20.31616 67.33824-49.7664 78.2336l-102.4 45.91616zM681.73824 556.15488c0-52.4288-39.19872-100.80256-87.57248-108.032l102.4-45.89568c48.37376 7.20896 87.57248 55.58272 87.57248 108.032l-102.4 45.89568zM389.81632 512.53248c0-83.21024 42.31168-149.38112 104.8576-177.90976l102.4-45.89568c-62.5664 28.52864-104.8576 94.69952-104.8576 177.90976l-102.4 45.89568z" fill="#CECEF9" /><path d="M494.67392 334.6432c29.45024-13.43488 63.36512-18.5344 99.49184-13.12768l102.4-45.89568c-36.12672-5.40672-70.0416-0.3072-99.49184 13.1072l-102.4 45.89568z" fill="#CECEF9" /><path d="M594.16576 321.51552c112.8448 16.87552 204.34944 129.7408 204.34944 252.1088l102.4-45.91616c0-122.368-91.48416-235.23328-204.34944-252.1088l-102.4 45.91616z" fill="#CECEF9" /><path d="M798.5152 573.60384c0 83.21024-42.31168 149.38112-104.8576 177.90976l102.4-45.89568c62.54592-28.52864 104.8576-94.69952 104.8576-177.90976l-102.4 45.89568z" fill="#CECEF9" /><path d="M693.6576 751.5136c-29.45024 13.43488-63.3856 18.51392-99.49184 13.1072l102.4-45.8752c36.10624 5.38624 70.0416 0.28672 99.47136-13.12768l-102.4 45.89568z" fill="#CECEF9" /><path d="M594.16576 764.64128c-112.8448-16.87552-204.34944-129.7408-204.34944-252.1088l102.4-45.89568c0 122.368 91.48416 235.23328 204.34944 252.1088l-102.4 45.8752z" fill="#CECEF9" /><path d="M19.0464 423.77216C180.49024 165.62176 371.15904 34.97984 594.18624 68.3008c223.0272 33.32096 413.696 220.9792 575.0784 527.36l19.08736 36.20864-19.06688 30.5152C1007.86176 920.49408 817.21344 1051.15648 594.16576 1017.856 371.13856 984.51456 180.46976 796.8768 19.0464 490.496L0 454.28736l19.0464-30.5152z m118.86592 51.11808c146.3296 264.51968 299.33568 392.9088 456.25344 416.3584 156.89728 23.4496 309.90336-59.22816 456.25344-280.00256-146.35008-264.4992-299.35616-392.88832-456.25344-416.33792C437.248 171.45856 284.24192 254.1568 137.91232 474.89024z m456.25344-26.76736c-48.37376-7.22944-87.57248 29.40928-87.57248 81.85856s39.19872 100.82304 87.57248 108.05248c48.37376 7.22944 87.57248-29.42976 87.57248-81.87904 0-52.4288-39.19872-100.80256-87.57248-108.032z m-204.34944 64.4096c0-122.34752 91.48416-207.872 204.34944-191.01696 112.8448 16.87552 204.34944 129.7408 204.34944 252.1088 0 122.34752-91.48416 207.872-204.34944 191.01696-112.8448-16.87552-204.34944-129.7408-204.34944-252.1088z" fill="#4E5969" /></svg>