<?xml version="1.0" standalone="no"?><!DOCTYPE svg PUBLIC "-//W3C//DTD SVG 1.1//EN" "http://www.w3.org/Graphics/SVG/1.1/DTD/svg11.dtd"><svg class="icon" width="200px" height="200.00px" viewBox="0 0 1024 1024" version="1.1" xmlns="http://www.w3.org/2000/svg"><path d="M322.024369 43.4176l292.123569 43.638154 78.769231-35.288616L400.7936 8.081723l-78.769231 35.320123zM662.969108 128.724677l28.561723 69.395692 78.769231-35.320123-28.561724-69.379938-78.76923 35.304369z" fill="#CECEF9" /><path d="M691.530831 198.104615l147.6608 22.055385 78.769231-35.288615-147.6608-22.071139-78.769231 35.304369zM904.664615 304.569108V951.217231l78.769231-35.320123V269.280492l-78.769231 35.30437zM839.191631 1016.044308l-742.1952-110.907077 78.769231-35.304369 742.1952 110.907076-78.769231 35.288616zM31.507692 820.743877V174.08L110.276923 138.791385v646.632369l-78.769231 35.320123zM96.996431 109.268677l147.645046 22.055385 78.769231-35.288616-147.645046-22.071138-78.769231 35.304369z" fill="#CECEF9" /><path d="M244.657231 131.339815l28.561723-60.841353 78.769231-35.320124-28.577477 60.841354-78.769231 35.320123zM273.218954 70.498462l78.769231-35.320124-78.769231 35.320124zM118.815508 212.015262v596.91323l78.76923-35.320123v-596.913231l-78.76923 35.320124z" fill="#CECEF9" /><path d="M118.815508 808.912738l698.541292 104.384985 78.769231-35.304369-698.525539-104.384985-78.76923 35.304369z" fill="#CECEF9" /><path d="M817.3568 913.297723v-596.913231l78.769231-35.288615V877.961846l-78.769231 35.320123z" fill="#CECEF9" /><path d="M817.3568 316.400246l-698.525538-104.384984 78.76923-35.30437 698.525539 104.369231-78.769231 35.320123zM118.815508 212.015262l78.76923-35.30437-78.76923 35.30437zM468.094031 438.303508l78.769231-35.30437-78.769231 35.30437zM271.627815 533.2992l78.769231-35.304369-78.769231 35.304369zM273.218954 70.482708c5.183015-11.027692 13.390769-19.156677 23.221169-23.63077l78.769231-35.320123c-9.846154 4.489846-18.038154 12.618831-23.221169 23.646523l-78.769231 35.30437z" fill="#CECEF9" /><path d="M296.455877 46.851938a45.166277 45.166277 0 0 1 25.584246-3.434338l78.769231-35.320123a45.166277 45.166277 0 0 0-25.584246 3.434338l-78.769231 35.320123zM614.147938 87.071508c20.669046 3.087754 39.573662 19.219692 48.82117 41.653169l78.76923-35.304369c-9.247508-22.449231-28.152123-38.581169-48.821169-41.668923l-78.769231 35.320123zM839.191631 220.175754c36.170831 5.403569 65.488738 43.197046 65.488738 84.393354l78.769231-35.30437c0-41.212062-29.317908-78.989785-65.488738-84.393353l-78.769231 35.304369zM904.680369 951.217231c0 28.010338-13.548308 50.412308-33.618707 60.179692l78.76923-35.320123c20.054646-9.767385 33.618708-32.137846 33.618708-60.179692l-78.769231 35.320123z" fill="#CECEF9" /><path d="M871.061662 1011.396923a53.893908 53.893908 0 0 1-31.870031 4.647385l78.769231-35.320123a53.893908 53.893908 0 0 0 31.87003-4.647385l-78.76923 35.304369zM96.996431 905.137231C60.809846 899.733662 31.507692 861.955938 31.507692 820.743877l78.769231-35.320123c0 41.212062 29.317908 79.005538 65.488739 84.409108l-78.769231 35.304369zM31.507692 174.095754c0-28.026092 13.548308-50.412308 33.602954-60.179692l78.769231-35.288616C123.840985 88.379077 110.276923 110.749538 110.276923 138.791385L31.507692 174.08z" fill="#CECEF9" /><path d="M65.110646 113.931815a53.909662 53.909662 0 0 1 31.885785-4.663138l78.769231-35.304369a53.909662 53.909662 0 0 0-31.885785 4.647384l-78.769231 35.320123zM468.094031 438.303508a90.5216 90.5216 0 0 0-47.135508 5.12l78.769231-35.320123a90.505846 90.505846 0 0 1 47.135508-5.12l-78.769231 35.320123z" fill="#CECEF9" /><path d="M420.958523 443.423508c-36.674954 14.556554-62.007138 53.468554-62.007138 102.919877l78.76923-35.30437c0-49.451323 25.332185-88.379077 62.007139-102.93563l-78.769231 35.320123z" fill="#CECEF9" /><path d="M358.951385 546.343385c0 68.686769 48.868431 131.654892 109.142646 140.666092l78.769231-35.304369c-60.274215-9.0112-109.142646-71.995077-109.142647-140.681846l-78.76923 35.320123z" fill="#CECEF9" /><path d="M468.094031 687.025231a90.490092 90.490092 0 0 0 47.119754-5.135754l78.76923-35.304369c-14.257231 5.671385-30.247385 7.640615-47.119753 5.12l-78.769231 35.304369z" fill="#CECEF9" /><path d="M515.213785 681.889477c36.690708-14.556554 62.022892-53.468554 62.022892-102.919877l78.769231-35.320123c0 49.467077-25.332185 88.379077-62.022893 102.935631l-78.76923 35.304369zM577.236677 578.953846c0-68.671015-48.868431-131.639138-109.142646-140.650338l78.769231-35.30437c60.274215 8.995446 109.142646 71.979323 109.142646 140.650339l-78.769231 35.320123zM271.627815 533.2992c0-84.062523 40.676431-151.236923 100.824616-180.507569l78.769231-35.304369c-60.148185 29.270646-100.824615 96.445046-100.824616 180.491815l-78.769231 35.320123z" fill="#CECEF9" /><path d="M372.452431 352.791631c28.309662-13.768862 60.920123-19.156677 95.625846-13.973662l78.769231-35.304369c-34.705723-5.198769-67.331938 0.189046-95.625846 13.973662l-78.769231 35.304369zM468.094031 338.817969c108.496738 16.226462 196.450462 129.575385 196.450461 253.195816l78.769231-35.30437c0-123.636185-87.953723-236.985108-196.450461-253.195815l-78.769231 35.304369zM664.560246 592.029538c0 84.046769-40.676431 151.205415-100.824615 180.491816l78.769231-35.320123c60.148185-29.270646 100.824615-96.429292 100.824615-180.491816l-78.769231 35.30437z" fill="#CECEF9" /><path d="M563.735631 772.521354c-28.309662 13.768862-60.920123 19.156677-95.6416 13.973661l78.769231-35.304369c34.721477 5.183015 67.331938-0.2048 95.6416-13.989415l-78.769231 35.320123zM468.094031 786.495015c-108.512492-16.226462-196.466215-129.575385-196.466216-253.195815l78.769231-35.304369c0 123.620431 87.953723 236.969354 196.450462 253.195815l-78.769231 35.304369z" fill="#CECEF9" /><path d="M273.218954 70.498462c9.247508-19.692308 28.136369-30.168615 48.821169-27.096616l292.107815 43.669662c20.669046 3.087754 39.573662 19.219692 48.82117 41.653169l28.561723 69.395692 147.6608 22.055385c36.170831 5.403569 65.488738 43.197046 65.488738 84.393354V951.217231c0 41.212062-29.317908 70.230646-65.488738 64.827077l-742.1952-110.907077C60.809846 899.733662 31.507692 861.955938 31.507692 820.743877V174.08c0-41.212062 29.317908-70.230646 65.488739-64.827077l147.645046 22.055385 28.577477-60.8256z m-154.387692 141.5168v596.91323l698.525538 104.369231v-596.913231l-698.525538-104.36923z m349.262769 226.288246c-60.274215-9.0112-109.142646 39.368862-109.142646 108.039877 0 68.686769 48.868431 131.654892 109.142646 140.681846 60.274215 8.979692 109.142646-39.384615 109.142646-108.071385 0-68.671015-48.868431-131.639138-109.142646-140.650338z m-196.466216 94.995692c0-123.620431 87.953723-210.691938 196.450462-194.481231 108.512492 16.226462 196.481969 129.575385 196.481969 253.195816 0 123.620431-87.969477 210.691938-196.466215 194.48123-108.512492-16.226462-196.466215-129.575385-196.466216-253.195815z" fill="#4E5969" /></svg>