<?xml version="1.0" standalone="no"?><!DOCTYPE svg PUBLIC "-//W3C//DTD SVG 1.1//EN" "http://www.w3.org/Graphics/SVG/1.1/DTD/svg11.dtd"><svg class="icon" width="200px" height="200.00px" viewBox="0 0 1024 1024" version="1.1" xmlns="http://www.w3.org/2000/svg"><path d="M83.821714 42.601651l765.756953 114.427936 81.269841-36.425143L165.091556 6.176508l-81.269842 36.425143zM917.146413 241.403937v544.719238l81.269841-36.425143V204.978794l-81.269841 36.425143zM849.578667 850.310095l-337.83873-50.484825 81.269841-36.425143 337.83873 50.484825-81.269841 36.425143zM511.739937 799.82527v99.035428l81.269841-36.408888v-99.051683l-81.269841 36.425143z" fill="#CECEF9" /><path d="M511.739937 898.860698l157.663492 23.568254 81.269841-36.441396-157.663492-23.552-81.269841 36.425142z" fill="#CECEF9" /><path d="M669.403429 922.428952v99.035429l81.269841-36.425143V886.00381l-81.269841 36.425142z" fill="#CECEF9" /><path d="M669.403429 1021.464381l-405.406477-60.57854 81.269842-36.425143 405.406476 60.57854-81.269841 36.425143z" fill="#CECEF9" /><path d="M263.996952 960.885841v-99.035428l81.269842-36.441397v99.051682l-81.269842 36.425143z" fill="#CECEF9" /><path d="M263.996952 861.850413l157.663492 23.568254 81.269842-36.441397-157.663492-23.568254-81.269842 36.441397z" fill="#CECEF9" /><path d="M421.64419 885.402413V786.366984l81.269842-36.425143v99.035429l-81.269842 36.425143zM421.64419 786.366984L83.821714 735.882159l81.269842-36.425143 337.822476 50.468571-81.269842 36.441397zM16.253968 651.50781V106.788571L97.52381 70.379683v544.719238l-81.269842 36.425142zM16.253968 106.788571L97.52381 70.379683 16.253968 106.788571zM106.33346 145.017905v495.193397l81.269842-36.425143V108.576508l-81.269842 36.441397z" fill="#CECEF9" /><path d="M106.33346 640.211302l720.717207 107.698793 81.269841-36.441397-720.700952-107.682539-81.269842 36.408889z" fill="#CECEF9" /><path d="M827.050667 747.910095V252.700444l81.269841-36.425142v495.193396l-81.269841 36.441397z" fill="#CECEF9" /><path d="M827.050667 252.700444L106.349714 145.017905l81.269842-36.441397 720.700952 107.698794-81.269841 36.425142zM106.33346 145.017905l81.269842-36.441397-81.269842 36.441397zM16.253968 106.788571c0-27.89181 13.978413-50.110984 34.669715-59.717079l81.269841-36.425143C111.518476 20.23619 97.52381 42.455365 97.52381 70.363429L16.253968 106.788571z" fill="#CECEF9" /><path d="M50.923683 47.071492a57.295238 57.295238 0 0 1 32.898031-4.469841l81.269842-36.425143a57.295238 57.295238 0 0 0-32.898032 4.453587l-81.269841 36.441397zM849.578667 157.029587c37.302857 5.575111 67.567746 43.349333 67.567746 84.37435l81.269841-36.425143c0-41.025016-30.264889-78.799238-67.567746-84.37435l-81.269841 36.425143zM917.146413 786.123175c0 27.89181-13.978413 50.110984-34.685969 59.717079l81.269842-36.425143c20.691302-9.606095 34.685968-31.82527 34.685968-59.717079l-81.269841 36.425143z" fill="#CECEF9" /><path d="M882.460444 845.856508a57.311492 57.311492 0 0 1-32.881777 4.453587l81.269841-36.425143c11.930413 1.787937 23.145651 0.048762 32.881778-4.469841l-81.269842 36.425143zM83.821714 735.882159C46.486349 730.307048 16.253968 692.532825 16.253968 651.50781l81.269842-36.425143c0 41.008762 30.248635 78.799238 67.567746 84.358095l-81.269842 36.441397z" fill="#CECEF9" /><path d="M16.253968 106.788571c0-41.025016 30.248635-69.762032 67.567746-64.18692l765.756953 114.427936c37.319111 5.575111 67.567746 43.349333 67.567746 84.37435v544.719238c0 41.025016-30.248635 69.762032-67.567746 64.203174l-337.83873-50.501079v99.051682l157.663492 23.552v99.035429l-405.406477-60.57854v-99.035428l157.663492 23.568254V786.366984L83.821714 735.882159C46.486349 730.307048 16.253968 692.532825 16.253968 651.524063V106.788571z m90.095746 38.229334v495.193397l720.700953 107.698793V252.700444L106.349714 145.017905z" fill="#4E5969" /></svg>