<?xml version="1.0" standalone="no"?><!DOCTYPE svg PUBLIC "-//W3C//DTD SVG 1.1//EN" "http://www.w3.org/Graphics/SVG/1.1/DTD/svg11.dtd"><svg class="icon" width="200px" height="200.00px" viewBox="0 0 1024 1024" version="1.1" xmlns="http://www.w3.org/2000/svg"><path d="M422.167273 549.85697V37.143273l77.575757-34.769455v512.729212l-77.575757 34.78497z" fill="#CECEF9" /><path d="M422.167273 37.127758l88.064 13.172363 77.575757-34.784969L499.74303 2.358303l-77.575757 34.769455z" fill="#CECEF9" /><path d="M510.231273 50.300121v512.775758l77.575757-34.78497V15.515152l-77.575757 34.784969z" fill="#CECEF9" /><path d="M510.231273 563.075879l124.648727-117.496243 77.575758-34.769454-124.648728 117.480727-77.575757 34.78497z" fill="#CECEF9" /><path d="M634.88 445.595152l62.308848 77.327515 77.575758-34.769455-62.308848-77.34303-77.575758 34.769454z" fill="#CECEF9" /><path d="M697.188848 522.938182L466.199273 740.677818l77.575757-34.769454 230.989576-217.755152-77.575758 34.78497z" fill="#CECEF9" /><path d="M466.199273 740.677818L235.411394 453.926788l77.575758-34.78497 230.787878 286.766546-77.575757 34.753939z" fill="#CECEF9" /><path d="M235.411394 453.926788l62.107151-58.755879 77.575758-34.769454-62.107151 58.755878-77.575758 34.769455z" fill="#CECEF9" /><path d="M297.518545 395.170909l124.633213 154.686061 77.575757-34.769455-124.633212-154.68606-77.575758 34.769454zM422.167273 549.85697l77.575757-34.769455-77.575757 34.78497zM157.897697 815.58497v-96.22497l77.575758-34.769455v96.22497l-77.575758 34.769455z" fill="#CECEF9" /><path d="M157.897697 719.36L69.818182 706.203152l77.575757-34.78497 88.079516 13.172363-77.575758 34.769455z" fill="#CECEF9" /><path d="M69.818182 706.203152V898.637576l77.575757-34.769455V671.418182l-77.575757 34.78497zM69.818182 898.653091l792.762182 118.473697 77.575757-34.78497L147.393939 863.883636 69.818182 898.637576z" fill="#CECEF9" /><path d="M862.580364 1017.111273V824.676848l77.575757-34.769454v192.449939l-77.575757 34.78497zM862.580364 824.661333l-88.095031-13.156848 77.575758-34.78497 88.09503 13.172364-77.575757 34.769454z" fill="#CECEF9" /><path d="M774.485333 811.504485v96.22497l77.575758-34.78497v-96.22497l-77.575758 34.78497z" fill="#CECEF9" /><path d="M774.485333 907.729455l-616.572121-92.12897 77.575758-34.78497 616.572121 92.12897-77.575758 34.78497zM157.897697 815.600485l77.575758-34.78497-77.575758 34.78497z" fill="#CECEF9" /><path d="M422.167273 549.85697V37.143273l88.064 13.172363v512.775758l124.648727-117.496242 62.308848 77.358545-230.989575 217.739636-230.787879-286.75103 62.107151-58.755879 124.633213 154.686061zM157.882182 815.616v-96.240485L69.818182 706.203152V898.637576l792.762182 118.473697V824.645818l-88.095031-13.156848v96.224969l-616.572121-92.128969z" fill="#4E5969" /></svg>