<?xml version="1.0" standalone="no"?><!DOCTYPE svg PUBLIC "-//W3C//DTD SVG 1.1//EN" "http://www.w3.org/Graphics/SVG/1.1/DTD/svg11.dtd"><svg class="icon" width="200px" height="200.00px" viewBox="0 0 1024 1024" version="1.1" xmlns="http://www.w3.org/2000/svg"><path d="M910.816 595.616v15.888l80-35.872v-15.872l-80 35.856zM482.112 1010.656L24 942.208l80-35.872 458.112 68.448-80 35.872z" fill="#CECEF9" /><path d="M24 942.208V463.104l80-35.872v479.104l-80 35.872zM24 463.104l80-35.872-80 35.872zM117.344 477.056v378.24l80-35.872v-378.24l-80 35.872z" fill="#CECEF9" /><path d="M117.344 855.28l364.768 54.512 80-35.872-364.768-54.496-80 35.856zM817.456 597.552v-15.888l80-35.856v15.888l-80 35.856zM467.408 151.12l80-35.856-80 35.856zM677.44 409.44v100.88l80-35.872v-100.864l-80 35.856z" fill="#CECEF9" /><path d="M677.44 510.32L257.376 447.52l80-35.856 420.064 62.768-80 35.872z" fill="#CECEF9" /><path d="M257.376 447.536v-100.864l80-35.856v100.864l-80 35.856z" fill="#CECEF9" /><path d="M257.376 346.672L677.44 409.44l80-35.84-420.064-62.784-80 35.856z" fill="#CECEF9" /><path d="M677.44 409.44l80-35.84-80 35.84zM467.408 705.872l-210.032-31.392 80-35.856 210.032 31.376-80 35.872z" fill="#CECEF9" /><path d="M257.376 674.48v-100.864l80-35.856v100.864l-80 35.856z" fill="#CECEF9" /><path d="M257.376 573.616l210.032 31.392 80-35.872-210.032-31.376-80 35.856z" fill="#CECEF9" /><path d="M467.408 605.008v100.864l80-35.872v-100.864l-80 35.872zM467.408 705.872l80-35.872-80 35.872zM24 463.104C24 283.184 115.792 140.128 251.552 78.512l80-35.856C195.792 104.256 104 247.312 104 427.232l-80 35.872z" fill="#CECEF9" /><path d="M251.552 78.512c63.872-28.992 137.488-39.968 215.84-28.256l80-35.856c-78.352-11.712-151.968-0.752-215.84 28.256l-80 35.856zM467.408 50.256C712.288 86.848 910.816 331.04 910.816 595.616l80-35.872C990.816 295.168 792.288 50.992 547.408 14.4l-80 35.856zM910.816 611.504c0 173.952-88.768 312.256-220 371.84l80-35.872c131.232-59.584 220-197.872 220-371.84l-80 35.872z" fill="#CECEF9" /><path d="M690.8 983.344c-61.76 28.032-132.928 38.624-208.688 27.312l80-35.872c75.76 11.328 146.928 0.72 208.688-27.312l-80 35.872zM467.408 151.12c-54.128-8.08-105.392-2.464-151.152 14.4l80-35.872c45.76-16.864 97.024-22.48 151.152-14.4l-80 35.872z" fill="#CECEF9" /><path d="M316.256 165.52c-117.664 43.36-198.912 161.12-198.912 311.52l80-35.84c0-150.4 81.248-268.16 198.912-311.552l-80 35.872zM482.112 909.792c51.84 7.744 100.96 2.368 144.8-13.792l80-35.856c-43.84 16.16-92.96 21.536-144.8 13.776l-80 35.872z" fill="#CECEF9" /><path d="M626.912 896c112.704-41.552 190.56-154.368 190.56-298.448l80-35.856c0 144.08-77.84 256.896-190.56 298.448l-80 35.856zM817.456 581.664c0-208.88-156.72-401.648-350.048-430.544l80-35.856C740.736 144.144 897.44 336.912 897.44 545.808l-80 35.856z" fill="#CECEF9" /><path d="M24 463.104C24 198.512 222.528 13.664 467.408 50.24 712.288 86.848 910.816 331.04 910.816 595.616v15.888c0 255.808-191.952 434.528-428.704 399.152L24 942.208V463.104zM467.408 151.12C274.08 122.24 117.344 268.16 117.344 477.04v378.24l364.768 54.512c185.2 27.68 335.36-112.128 335.36-312.24v-15.888c0-208.88-156.736-401.648-350.08-430.544zM677.44 409.456v100.848l-420.064-62.768v-100.864l420.064 62.784zM467.408 705.872l-210.032-31.392v-100.864l210.032 31.392v100.864z" fill="#4E5969" /></svg>