<?xml version="1.0" standalone="no"?><!DOCTYPE svg PUBLIC "-//W3C//DTD SVG 1.1//EN" "http://www.w3.org/Graphics/SVG/1.1/DTD/svg11.dtd"><svg class="icon" width="200px" height="200.00px" viewBox="0 0 1024 1024" version="1.1" xmlns="http://www.w3.org/2000/svg"><path d="M834.530319 440.58713l-81.222493 9.72058 74.202899-33.27258 81.222492-9.705739-74.202898 33.257739zM135.494493 440.230957v349.406608l74.202898-33.242898V406.958377l-74.202898 33.257739z" fill="#CECEF9" /><path d="M135.494493 789.652406l250.612869 37.442782 74.202899-33.257739-250.62771-37.457623-74.202899 33.27258z" fill="#CECEF9" /><path d="M386.107362 827.095188v93.184l74.202899-33.272579v-93.16916l-74.202899 33.257739z" fill="#CECEF9" /><path d="M386.107362 920.264348L51.942029 870.355478l74.202899-33.272579 334.165333 49.93855-74.202899 33.27258zM51.942029 870.340638V427.750029l74.202899-33.27258v442.590609l-74.202899 33.27258zM51.942029 427.750029l74.202899-33.27258-74.202899 33.27258zM469.644986 443.584928l-250.627711-37.457624 74.202899-33.257739 250.62771 37.442783-74.202898 33.27258z" fill="#CECEF9" /><path d="M219.017275 406.127304v-93.184l74.202899-33.242898v93.169159l-74.202899 33.257739z" fill="#CECEF9" /><path d="M219.017275 312.943304l250.627711 37.457624 74.202898-33.27258-250.62771-37.442783-74.202899 33.257739zM469.644986 350.400928v93.184l74.202898-33.27258V317.143188l-74.202898 33.27258zM469.644986 443.584928l74.202898-33.27258-74.202898 33.27258zM588.04313 597.333333L786.239072 847.990725l74.202899-33.257739-198.195942-250.687073-74.202899 33.27258zM588.04313 597.333333l74.202899-33.272579-74.202899 33.272579zM727.188406 905.067594L528.962783 654.380522l74.202898-33.257739 198.195942 250.672231-74.202898 33.27258zM727.188406 905.067594l74.202898-33.27258-74.202898 33.27258zM495.170783 545.732638l74.202898-33.257739-74.202898 33.257739zM344.33113 634.494145l-125.313855-18.713971 74.202899-33.27258 125.313855 18.728812-74.202899 33.257739z" fill="#CECEF9" /><path d="M219.017275 615.780174v-93.184l74.202899-33.257739v93.169159l-74.202899 33.27258z" fill="#CECEF9" /><path d="M219.017275 522.596174l125.313855 18.728812 74.202899-33.27258-125.313855-18.713971-74.202899 33.257739z" fill="#CECEF9" /><path d="M344.33113 541.324986v93.169159l74.202899-33.257739v-93.184l-74.202899 33.27258zM344.33113 634.494145l74.202899-33.257739-74.202899 33.257739zM51.942029 427.750029c0-166.214493 82.157449-298.74087 203.642435-356.262957l74.202898-33.257739C208.302377 95.721739 126.144928 228.277797 126.144928 394.462609l-74.202899 33.272579z" fill="#CECEF9" /><path d="M255.584464 71.487072c57.165913-27.069217 123.043246-37.516986 193.164985-27.039536l74.202899-33.242898c-70.121739-10.49229-135.999072-0.044522-193.164986 27.009855l-74.202898 33.272579z" fill="#CECEF9" /><path d="M448.749449 44.447536C635.814957 72.422029 792.546319 240.13542 834.530319 440.601971l74.202898-33.257739C866.749217 206.877681 710.017855 39.134609 522.967188 11.189797l-74.202898 33.257739z" fill="#CECEF9" /><path d="M753.307826 450.30771C720.153971 292.032928 596.324174 159.684638 448.76429 137.631536l74.202898-33.257739c147.559884 22.038261 271.389681 154.416232 304.528696 312.661333l-74.202898 33.27258zM448.749449 137.631536c-48.439652-7.242203-94.311884-1.825391-135.257043 13.950145l74.202898-33.257739c40.945159-15.790377 86.817391-21.192348 135.257044-13.950145l-74.202899 33.257739z" fill="#CECEF9" /><path d="M313.492406 151.581681c-105.293913 40.574145-178.012754 149.711768-178.012754 288.649276l74.202899-33.25774c0-138.937507 72.718841-248.07513 178.012753-288.649275l-74.202898 33.257739zM786.239072 848.005565c29.977971-57.344 21.578203-137.423768-25.243826-196.667362l74.202899-33.27258c46.822029 59.258435 55.236638 139.338203 25.228985 196.682203l-74.202898 33.257739z" fill="#CECEF9" /><path d="M760.995246 651.338203c-46.85171-59.213913-117.537391-79.174493-172.952116-54.01971l74.202899-33.242899c55.429565-25.184464 126.100406-5.223884 172.952116 54.00487l-74.202899 33.242898zM528.977623 654.380522c-29.977971 57.344-21.578203 137.423768 25.243826 196.667362l74.202899-33.257739c-46.822029-59.243594-55.236638-139.338203-25.243826-196.667362l-74.202899 33.257739z" fill="#CECEF9" /><path d="M554.221449 851.047884c46.85171 59.228754 117.537391 79.174493 172.952116 54.01971l74.202899-33.27258c-55.429565 25.169623-126.100406 5.223884-172.952116-54.01971l-74.202899 33.27258zM495.170783 545.732638a189.514203 189.514203 0 0 1 46.881391-33.331942l74.202898-33.27258a189.484522 189.484522 0 0 0-46.896231 33.346783l-74.202899 33.257739z" fill="#CECEF9" /><path d="M542.052174 512.400696c87.945275-44.017159 202.633275-13.430725 277.993739 81.890318l74.202899-33.272579c-75.360464-95.321043-190.048464-125.907478-277.99374-81.890319l-74.202898 33.27258z" fill="#CECEF9" /><path d="M820.045913 594.291014c89.726145 113.471072 89.726145 275.693449 0 362.362435l74.202899-33.272579c89.726145-86.668986 89.726145-248.876522 0-362.362435l-74.202899 33.272579z" fill="#CECEF9" /><path d="M820.045913 956.653449a189.529043 189.529043 0 0 1-46.896232 33.346783l74.202899-33.27258a189.454841 189.454841 0 0 0 46.896232-33.346782l-74.202899 33.272579z" fill="#CECEF9" /><path d="M773.164522 990.000232c-87.945275 44.017159-202.633275 13.430725-277.993739-81.890319l74.202898-33.27258c75.360464 95.321043 190.048464 125.907478 277.993739 81.890319l-74.202898 33.27258zM495.170783 908.095072c-89.726145-113.471072-89.726145-275.693449 0-362.362434l74.202898-33.257739c-89.726145 86.668986-89.726145 248.876522 0 362.362434l-74.202898 33.27258z" fill="#CECEF9" /><path d="M51.942029 427.750029C51.942029 183.325681 229.613449 11.709217 448.749449 44.462377 635.814957 72.407188 792.546319 240.12058 834.530319 440.58713l-81.222493 9.72058C720.153971 292.047768 596.324174 159.684638 448.76429 137.631536c-173.026319-25.85229-313.284638 109.627362-313.284638 302.599421V789.667246l250.62771 37.442783v93.184L51.942029 870.340638V427.750029z m417.702957 15.834899l-250.627711-37.457624v-93.184l250.627711 37.457624v93.184z m118.398144 153.748405L786.239072 847.990725c29.977971-57.329159 21.578203-137.423768-25.243826-196.667363-46.85171-59.213913-117.537391-79.174493-172.952116-54.01971z m139.130435 307.734261L528.977623 654.380522c-29.977971 57.344-21.578203 137.423768 25.243826 196.667362 46.85171 59.228754 117.537391 79.174493 172.952116 54.01971zM495.155942 545.732638c89.726145-86.668986 235.178667-64.942377 324.889971 48.528695 89.726145 113.485913 89.726145 275.70829 0 362.377276-89.711304 86.668986-235.163826 64.927536-324.87513-48.543537-89.726145-113.485913-89.726145-275.70829 0-362.377275z m-150.824812 88.746666l-125.313855-18.713971v-93.184l125.313855 18.728812v93.169159z" fill="#4E5969" /></svg>