<?xml version="1.0" standalone="no"?><!DOCTYPE svg PUBLIC "-//W3C//DTD SVG 1.1//EN" "http://www.w3.org/Graphics/SVG/1.1/DTD/svg11.dtd"><svg class="icon" width="200px" height="200.00px" viewBox="0 0 1024 1024" version="1.1" xmlns="http://www.w3.org/2000/svg"><path d="M514.288 44.112v123.616l80-35.872V8.256l-80 35.856zM724.992 852.352l-63.84-77.072 80-35.872 63.84 77.088-80 35.856zM514.288 265.232v116.64l80-35.872v-116.64l-80 35.872z" fill="#CECEF9" /><path d="M514.288 381.856L305.696 181.824l80-35.872 208.592 200.048-80 35.856z" fill="#CECEF9" /><path d="M305.696 181.824l208.592-137.712 80-35.856-208.592 137.696-80 35.872zM514.288 44.112l80-35.856-80 35.856zM424.88 822.864v-140.752l80-35.856v140.736l-80 35.872z" fill="#CECEF9" /><path d="M424.88 682.112l208.592 200.048 80-35.856L504.88 646.24l-80 35.856z" fill="#CECEF9" /><path d="M633.472 882.16l-208.592 137.696 80-35.856 208.592-137.696-80 35.856z" fill="#CECEF9" /><path d="M424.88 1019.872v-99.488l80-35.872V984l-80 35.872zM214.176 235.744l63.84 77.072 80-35.856-63.84-77.088-80 35.872zM278.016 312.832l80-35.872-80 35.872zM514.288 167.728c176.384 50.096 312.88 232.912 312.88 429.76l80-35.872c0-196.832-136.48-379.648-312.88-429.76l-80 35.872z" fill="#CECEF9" /><path d="M827.168 597.488c0 105.152-39.008 194.736-102.176 254.88l80-35.872c63.168-60.128 102.176-149.712 102.176-254.88l-80 35.872z" fill="#CECEF9" /><path d="M661.152 775.28c47.44-45.168 76.624-112.256 76.624-191.152l80-35.872c0 78.896-29.184 145.984-76.64 191.152l-80 35.872zM737.76 584.128c0-143.44-96.64-276.96-223.472-318.88l80-35.872C721.12 271.296 817.76 404.8 817.76 548.256l-80 35.872zM278.016 312.832c-47.44 45.168-76.624 112.24-76.624 191.152l80-35.872c0-78.88 29.184-145.984 76.64-191.152l-80 35.872z" fill="#CECEF9" /><path d="M201.392 503.968c0 143.456 96.656 276.96 223.504 318.896l80-35.856c-126.848-41.92-223.504-175.456-223.504-318.88l-80 35.84z" fill="#CECEF9" /><path d="M424.88 920.384C248.496 870.272 112 687.456 112 490.624l80-35.872c0 196.832 136.48 379.664 312.88 429.76l-80 35.872zM112 490.608c0-105.152 39.008-194.72 102.176-254.88l80-35.84C231.008 260 192 349.6 192 454.752l-80 35.84z" fill="#CECEF9" /><path d="M514.288 44.112v123.616c176.384 50.096 312.88 232.912 312.88 429.76 0 105.152-39.008 194.736-102.176 254.88l-63.84-77.088c47.44-45.168 76.624-112.256 76.624-191.152 0-143.44-96.64-276.96-223.488-318.88v116.608L305.696 181.824l208.592-137.712zM278.016 312.816c-47.44 45.184-76.624 112.272-76.624 191.152 0 143.456 96.64 276.96 223.488 318.896v-140.752l208.592 200.048-208.592 137.696v-99.472C248.496 870.272 112 687.456 112 490.624c0-105.168 39.008-194.752 102.176-254.88l63.84 77.072z" fill="#4E5969" /></svg>