<?xml version="1.0" standalone="no"?><!DOCTYPE svg PUBLIC "-//W3C//DTD SVG 1.1//EN" "http://www.w3.org/Graphics/SVG/1.1/DTD/svg11.dtd"><svg class="icon" width="200px" height="200.00px" viewBox="0 0 1024 1024" version="1.1" xmlns="http://www.w3.org/2000/svg"><path d="M347.059436 319.488l-102.368492-107.330954 78.769231-35.304369 102.352738 107.3152-78.769231 35.304369zM427.325282 141.375015v130.961723l78.769231-35.304369V106.054892l-78.769231 35.320123z" fill="#CECEF9" /><path d="M427.325282 272.336738l85.322831 12.760616 78.769231-35.320123-85.322831-12.760616-78.769231 35.320123z" fill="#CECEF9" /><path d="M512.648113 285.0816V154.119877l78.769231-35.304369v130.961723l-78.769231 35.304369zM689.469282 272.494277l-98.5088 85.307077 78.769231-35.304369 98.5088-85.307077-78.769231 35.304369z" fill="#CECEF9" /><path d="M590.960482 357.801354l56.7296 81.226831 78.769231-35.30437-56.713846-81.22683-78.769231 35.288615z" fill="#CECEF9" /><path d="M647.690082 439.028185l97.547816-84.472123 78.769231-35.30437-97.547816 84.472123-78.769231 35.30437zM803.448359 535.488985l-130.78843-19.53477 78.76923-35.320123L882.21759 500.184615l-78.769231 35.320123z" fill="#CECEF9" /><path d="M672.659929 515.938462v97.40603l78.76923-35.320123V480.649846l-78.76923 35.320123z" fill="#CECEF9" /><path d="M672.659929 613.344492l133.214523 19.897108 78.76923-35.304369-133.214523-19.912862-78.76923 35.320123zM708.815006 851.857723l59.864615 78.359631 78.769231-35.320123-59.864616-78.343877-78.76923 35.304369zM171.293775 840.940308l59.864615-60.463262 78.769231-35.304369-59.864615 60.447508-78.769231 35.320123zM147.867806 613.344492L304.145959 567.138462l78.769231-35.320124-156.278154 46.237539-78.76923 35.304369z" fill="#CECEF9" /><path d="M304.145959 567.122708l-31.019323-95.373785 78.769231-35.304369 31.035077 95.358031-78.769231 35.320123z" fill="#CECEF9" /><path d="M273.14239 471.748923l-140.193477 41.479877 78.769231-35.320123 140.177723-41.464123-78.769231 35.304369zM190.40319 279.221169l103.8336 108.859077 78.769231-35.288615-103.8336-108.890585-78.769231 35.320123z" fill="#CECEF9" /><path d="M294.23679 388.096l52.806892-68.623754 78.769231-35.288615-52.806892 68.592246-78.769231 35.320123z" fill="#CECEF9" /><path d="M347.059436 319.488l78.769231-35.320123-78.769231 35.304369zM427.325282 681.117538V406.244431l78.769231-35.304369v274.873107l-78.769231 35.304369z" fill="#CECEF9" /><path d="M427.325282 406.244431l85.322831 12.760615 78.769231-35.320123-85.322831-12.760615-78.769231 35.320123zM512.648113 419.005046v274.873108l78.769231-35.320123V383.684923l-78.769231 35.320123zM320.65599 828.557785l78.769231-35.320123-78.769231 35.320123zM405.978821 841.3184l78.769231-35.320123-78.769231 35.320123zM244.690944 212.157046a266.303015 266.303015 0 0 1 71.175877-47.765661l78.769231-35.30437a266.287262 266.287262 0 0 0-71.175877 47.765662l-78.769231 35.304369z" fill="#CECEF9" /><path d="M315.866821 164.391385c33.398154-15.1552 70.703262-23.394462 111.458461-23.01637l78.769231-35.320123c-40.7552-0.378092-78.076062 7.876923-111.458461 23.032123l-78.769231 35.30437zM512.648113 154.119877c69.899815 20.227938 129.654154 62.794831 176.805416 118.3744l78.76923-35.304369c-47.151262-55.579569-106.9056-98.146462-176.805415-118.3744l-78.769231 35.288615zM745.237898 354.556062A523.8784 523.8784 0 0 1 803.448359 535.488985l78.769231-35.30437a523.8784 523.8784 0 0 0-58.210461-180.932923l-78.769231 35.30437zM805.858698 633.2416c-6.915938 83.259077-37.809231 160.909785-97.043692 218.616123l78.76923-35.304369c59.234462-57.722092 90.127754-135.357046 97.043693-218.616123l-78.769231 35.304369z" fill="#CECEF9" /><path d="M768.679621 930.2016c88.583877-86.283815 126.692431-208.517908 123.888246-333.950031l78.769231-35.304369c2.804185 125.432123-35.288615 247.650462-123.888246 333.950031l-78.769231 35.304369z" fill="#CECEF9" /><path d="M892.567867 596.251569c-2.646646-118.1696-41.542892-239.868062-109.111138-339.085784l78.76923-35.30437c67.568246 99.217723 106.464492 220.900431 109.111139 339.085785l-78.769231 35.304369z" fill="#CECEF9" /><path d="M783.456729 257.181538C709.57119 148.653292 601.247744 67.032615 469.986698 47.419077l78.769231-35.320123c131.261046 19.613538 239.584492 101.249969 313.47003 209.762461l-78.76923 35.320123z" fill="#CECEF9" /><path d="M469.986698 47.419077c-70.656-10.555077-134.632369-1.165785-190.180431 23.221169l78.769231-35.320123C414.123559 10.933169 478.099929 1.543877 548.755929 12.098954l-78.769231 35.320123z" fill="#CECEF9" /><path d="M279.790513 70.640246c-51.263015 22.512246-95.342277 57.800862-130.835692 101.958892l78.769231-35.304369c35.493415-44.173785 79.572677-79.4624 130.851446-101.974646l-78.769231 35.320123zM148.954821 172.599138C66.29439 275.440246 29.587929 426.976492 55.408482 579.284677l78.769231-35.320123c-25.820554-152.292431 10.885908-303.828677 93.546339-406.669785l-78.769231 35.304369z" fill="#CECEF9" /><path d="M55.408482 579.268923a579.9936 579.9936 0 0 0 115.885293 261.671385l78.769231-35.30437a579.9936 579.9936 0 0 1-115.885293-261.671384l-78.769231 35.320123z" fill="#CECEF9" /><path d="M231.174144 780.477046a459.319138 459.319138 0 0 1-83.306338-167.132554l78.76923-35.304369a459.3664 459.3664 0 0 0 83.306339 167.148308l-78.769231 35.288615zM132.948913 513.2288c-3.2768-85.527631 17.344985-168.314092 57.454277-234.007631l78.769231-35.320123c-40.109292 65.693538-60.731077 148.495754-57.454277 234.007631l-78.769231 35.320123zM320.65599 828.557785c0-64.858585 31.728246-116.499692 78.454154-138.31877l78.769231-35.320123c-46.725908 21.834831-78.454154 73.475938-78.454154 138.31877l-78.769231 35.320123z" fill="#CECEF9" /><path d="M399.110144 690.223262a119.240862 119.240862 0 0 1 28.199385-9.105724l78.76923-35.304369a119.162092 119.162092 0 0 0-28.199384 9.105723l-78.769231 35.30437zM512.648113 693.878154c61.692062 30.168615 106.685046 102.100677 106.685046 179.310277l78.769231-35.304369c0-77.2096-44.992985-149.141662-106.685046-179.326031l-78.769231 35.320123z" fill="#CECEF9" /><path d="M619.333159 873.188431c0 64.007877-30.9248 115.160615-76.642461 137.452307l78.769231-35.304369c45.717662-22.307446 76.642462-73.460185 76.642461-137.468061l-78.769231 35.320123z" fill="#CECEF9" /><path d="M542.690698 1010.640738c-21.519754 10.492062-46.316308 14.603815-72.704 10.665354l78.769231-35.320123c26.387692 3.938462 51.2-0.157538 72.704-10.6496l-78.769231 35.304369zM469.986698 1021.306092c-82.471385-12.319508-149.346462-98.619077-149.346462-192.748307l78.769231-35.320123c0 94.129231 66.875077 180.4288 149.346462 192.748307l-78.769231 35.320123z" fill="#CECEF9" /><path d="M405.978821 841.302646c0-27.411692 13.264738-49.341046 32.846769-58.903631l78.769231-35.304369c-19.582031 9.546831-32.846769 31.476185-32.846769 58.903631l-78.769231 35.304369z" fill="#CECEF9" /><path d="M438.82559 782.399015a52.617846 52.617846 0 0 1 31.161108-4.568615l78.769231-35.304369a52.617846 52.617846 0 0 0-31.145354 4.568615l-78.769231 35.304369z" fill="#CECEF9" /><path d="M469.986698 777.8304c35.351631 5.277538 64.007877 42.267569 64.007877 82.597415l78.769231-35.288615c0-40.361354-28.672-77.351385-64.007877-82.613169l-78.769231 35.304369z" fill="#CECEF9" /><path d="M533.994575 860.443569c0 27.411692-13.248985 49.341046-32.846769 58.903631l78.76923-35.304369c19.597785-9.562585 32.846769-31.476185 32.84677-58.919385l-78.769231 35.320123z" fill="#CECEF9" /><path d="M501.132052 919.3472a52.617846 52.617846 0 0 1-31.145354 4.568615l78.769231-35.304369a52.617846 52.617846 0 0 0 31.161107-4.568615l-78.76923 35.288615z" fill="#CECEF9" /><path d="M469.986698 923.915815c-35.351631-5.277538-64.007877-42.267569-64.007877-82.597415l78.769231-35.320123c0 40.329846 28.672 77.319877 64.007877 82.613169l-78.769231 35.304369z" fill="#CECEF9" /><path d="M347.059436 319.488l-102.368492-107.330954c48.049231-44.662154 109.867323-71.4752 182.634338-70.782031v130.961723l85.338585 12.760616V154.104123c69.884062 20.227938 129.6384 62.794831 176.805415 118.3744l-98.5088 85.307077 56.713847 81.226831 97.563569-84.472123A523.8784 523.8784 0 0 1 803.448359 535.488985l-130.78843-19.53477v97.390277l133.198769 19.897108c-6.915938 83.259077-37.809231 160.909785-97.043692 218.616123l59.864615 78.343877c88.583877-86.283815 126.692431-208.517908 123.888246-333.934277-2.646646-118.185354-41.542892-239.883815-109.095385-339.085785C709.555436 148.653292 601.23199 67.032615 469.970944 47.419077 334.109775 27.096615 222.919129 80.596677 148.954821 172.599138 66.29439 275.440246 29.587929 426.976492 55.408482 579.284677a580.009354 580.009354 0 0 0 115.885293 261.671385l59.864615-60.463262a459.334892 459.334892 0 0 1-83.290584-167.148308L304.145959 567.138462l-31.019323-95.373785-140.177723 41.479877C129.656359 427.701169 150.293898 344.914708 190.40319 279.221169l103.8336 108.859077 52.806892-68.608z m-26.4192 509.069785c0-77.193846 44.992985-135.703631 106.685046-147.424493V406.244431l85.338585 12.760615v274.873108c61.676308 30.168615 106.653538 102.100677 106.653539 179.310277 0 94.129231-66.843569 160.437169-149.330708 148.117661-82.471385-12.319508-149.346462-98.619077-149.346462-192.748307z m85.338585 12.760615c0-40.3456 28.672-68.765538 64.007877-63.488 35.351631 5.277538 64.007877 42.267569 64.007877 82.613169 0 40.329846-28.672 68.749785-64.007877 63.472246-35.351631-5.277538-64.007877-42.267569-64.007877-82.597415z" fill="#4E5969" /></svg>