<?xml version="1.0" standalone="no"?><!DOCTYPE svg PUBLIC "-//W3C//DTD SVG 1.1//EN" "http://www.w3.org/Graphics/SVG/1.1/DTD/svg11.dtd"><svg class="icon" width="200px" height="200.00px" viewBox="0 0 1024 1024" version="1.1" xmlns="http://www.w3.org/2000/svg"><path d="M225.883178 62.211507L91.178082 42.082192 161.315068 10.646795l134.705096 20.129315-70.136986 31.435397z" fill="#CECEF9" /><path d="M91.178082 42.082192v144.524274l70.136986-31.435398V10.646795L91.178082 42.082192z" fill="#CECEF9" /><path d="M91.178082 186.606466l134.705096 20.129315 70.136986-31.435397L161.315068 155.171068l-70.136986 31.435398z" fill="#CECEF9" /><path d="M225.883178 206.735781V62.211507l70.136986-31.435397v144.524274l-70.136986 31.435397zM225.883178 62.211507l70.136986-31.435397-70.136986 31.435397zM225.883178 423.529205L91.178082 403.39989l70.136986-31.435397 134.705096 20.129315-70.136986 31.435397z" fill="#CECEF9" /><path d="M91.178082 403.39989v144.524274l70.136986-31.435397V371.964493l-70.136986 31.435397z" fill="#CECEF9" /><path d="M91.178082 547.924164l134.705096 20.129315 70.136986-31.435397L161.315068 516.488767 91.178082 547.910137z" fill="#CECEF9" /><path d="M225.883178 568.053479V423.529205l70.136986-31.435397v144.524274l-70.136986 31.435397zM225.883178 423.529205l70.136986-31.435397-70.136986 31.435397zM225.883178 784.846904L91.178082 764.717589l70.136986-31.435397 134.705096 20.129315-70.136986 31.435397z" fill="#CECEF9" /><path d="M91.178082 764.717589V909.25589l70.136986-31.435397V733.282192l-70.136986 31.435397z" fill="#CECEF9" /><path d="M91.178082 909.25589l134.705096 20.115288 70.136986-31.435397L161.315068 877.806466l-70.136986 31.435397z" fill="#CECEF9" /><path d="M225.883178 929.371178V784.846904l70.136986-31.449425v144.538302l-70.136986 31.435397zM225.883178 784.832877l70.136986-31.42137-70.136986 31.42137zM405.489973 89.045918l134.719123 20.129315 70.136986-31.435397-134.719123-20.129315-70.136986 31.435397z" fill="#CECEF9" /><path d="M540.195068 109.175233v144.524274l70.136987-31.435397V77.739836l-70.136987 31.435397z" fill="#CECEF9" /><path d="M540.195068 253.713534l-134.691068-20.129315 70.136986-31.449424 134.705096 20.129315-70.136986 31.449424zM405.489973 233.584219V89.045918l70.136986-31.435397V202.134795l-70.136986 31.449424z" fill="#CECEF9" /><path d="M405.489973 89.045918l70.136986-31.435397-70.136986 31.435397zM405.489973 450.363616l134.719123 20.129316 70.136986-31.435398-134.719123-20.129315-70.136986 31.435397z" fill="#CECEF9" /><path d="M540.195068 470.492932v144.524273l70.136987-31.435397V439.057534l-70.136987 31.435398z" fill="#CECEF9" /><path d="M540.195068 615.017205l-134.691068-20.129315 70.136986-31.435397 134.705096 20.129315-70.136986 31.435397z" fill="#CECEF9" /><path d="M405.489973 594.901918V450.363616l70.136986-31.435397v144.524274l-70.136986 31.449425zM405.489973 450.363616l70.136986-31.435397-70.136986 31.435397zM405.489973 811.681315l134.719123 20.129315 70.136986-31.435397-134.719123-20.129315-70.136986 31.435397z" fill="#CECEF9" /><path d="M540.195068 831.824658v144.524274l70.136987-31.449425V800.375233l-70.136987 31.435397z" fill="#CECEF9" /><path d="M540.195068 976.348932l-134.691068-20.129316 70.136986-31.449424 134.705096 20.129315-70.136986 31.449425zM405.489973 956.205589V811.681315l70.136986-31.435397v144.524274l-70.136986 31.435397zM405.489973 811.681315l70.136986-31.435397-70.136986 31.435397zM719.81589 136.023671l134.705096 20.129315 70.136987-31.449424-134.705096-20.129315-70.136987 31.449424z" fill="#CECEF9" /><path d="M854.520986 156.152986v144.524274l70.136987-31.449424V124.703562l-70.136987 31.449424z" fill="#CECEF9" /><path d="M854.520986 300.67726L719.81589 280.547945l70.136987-31.449424 134.705096 20.129315-70.136987 31.449424z" fill="#CECEF9" /><path d="M719.81589 280.547945V136.023671l70.136987-31.449424v144.524274l-70.136987 31.449424zM719.81589 136.023671l70.136987-31.449424-70.136987 31.449424zM719.81589 497.34137l134.705096 20.129315 70.136987-31.449425-134.705096-20.129315-70.136987 31.449425z" fill="#CECEF9" /><path d="M854.520986 517.470685v144.524274l70.136987-31.449425V486.02126l-70.136987 31.449425z" fill="#CECEF9" /><path d="M854.520986 661.994959l-134.705096-20.129315 70.136987-31.449425 134.705096 20.129315-70.136987 31.449425z" fill="#CECEF9" /><path d="M719.81589 641.865644V497.34137l70.136987-31.449425v144.524274l-70.136987 31.449425zM719.81589 497.34137l70.136987-31.449425-70.136987 31.449425zM719.81589 858.659068l134.705096 20.129316 70.136987-31.449425-134.705096-20.129315-70.136987 31.449424z" fill="#CECEF9" /><path d="M854.520986 878.788384V1023.29863l70.136987-31.435397V847.338959l-70.136987 31.449425z" fill="#CECEF9" /><path d="M854.520986 1023.29863l-134.705096-20.115288 70.136987-31.449424 134.705096 20.129315-70.136987 31.449425z" fill="#CECEF9" /><path d="M719.81589 1003.183342V858.659068l70.136987-31.449424v144.524274l-70.136987 31.449424zM719.81589 858.659068l70.136987-31.449424-70.136987 31.449424z" fill="#CECEF9" /><path d="M225.883178 62.211507L91.178082 42.082192v144.524274l134.705096 20.129315V62.211507z m0 361.317698L91.178082 403.39989v144.524274l134.705096 20.129315V423.529205z m0 361.317699L91.178082 764.717589v144.524274l134.705096 20.129315V784.846904zM405.489973 89.045918l134.719123 20.129315v144.524274l-134.719123-20.115288V89.03189z m0 361.317698l134.719123 20.129316v144.524273l-134.719123-20.115287V450.349589z m0 361.317699l134.719123 20.129315v144.538302l-134.719123-20.129316V811.681315zM719.81589 136.023671l134.705096 20.129315v144.524274L719.81589 280.547945V136.023671z m0 361.317699l134.705096 20.129315v144.524274l-134.705096-20.129315V497.34137z m0 361.317698l134.705096 20.129316V1023.29863l-134.705096-20.129315V858.659068z" fill="#4E5969" /></svg>