<?xml version="1.0" standalone="no"?><!DOCTYPE svg PUBLIC "-//W3C//DTD SVG 1.1//EN" "http://www.w3.org/Graphics/SVG/1.1/DTD/svg11.dtd"><svg class="icon" width="200px" height="200.00px" viewBox="0 0 1024 1024" version="1.1" xmlns="http://www.w3.org/2000/svg"><path d="M78.222222 74.723556v300.771555l71.111111-31.872V42.837333L78.222222 74.723556zM119.708444 427.975111l269.667556 40.291556 71.111111-31.872-269.667555-40.291556-71.111112 31.872zM430.876444 428.202667V127.416889l71.111112-31.872v300.771555l-71.111112 31.886223zM389.376 74.951111L119.708444 34.631111l71.111112-31.872 269.667555 40.291556-71.111111 31.872zM119.708444 34.645333l71.111112-31.872-71.111112 31.872zM161.194667 341.617778V133.404444l71.111111-31.886222v208.227556l-71.111111 31.872z" fill="#CECEF9" /><path d="M161.194667 133.404444l186.709333 27.875556 71.111111-31.857778-186.695111-27.904-71.111111 31.872z" fill="#CECEF9" /><path d="M347.889778 161.28v208.241778l71.111111-31.872V129.408l-71.111111 31.886222z" fill="#CECEF9" /><path d="M347.904 369.521778L161.194667 341.617778l71.111111-31.857778 186.709333 27.875556-71.111111 31.886222z" fill="#CECEF9" /><path d="M161.194667 341.617778l71.111111-31.857778-71.111111 31.857778zM513.848889 139.804444v300.8l71.111111-31.886222V107.932444l-71.111111 31.886223zM555.335111 493.070222l269.667556 40.291556 71.111111-31.872-269.667556-40.305778-71.111111 31.886222zM866.503111 493.297778v-300.8l71.111111-31.857778v300.771556l-71.111111 31.886222zM825.002667 140.032L555.335111 99.740444l71.111111-31.886222 269.667556 40.305778-71.111111 31.872zM555.335111 99.740444l71.111111-31.886222-71.111111 31.886222zM596.821333 406.712889V198.485333l71.111111-31.872v208.227556l-71.111111 31.872z" fill="#CECEF9" /><path d="M596.821333 198.485333l186.709334 27.904 71.111111-31.886222-186.709334-27.889778-71.111111 31.872z" fill="#CECEF9" /><path d="M783.516444 226.389333v208.227556l71.111112-31.872V194.503111l-71.111112 31.886222z" fill="#CECEF9" /><path d="M783.530667 434.631111l-186.709334-27.904 71.111111-31.886222 186.709334 27.904-71.111111 31.872zM596.821333 406.727111l71.111111-31.886222-71.111111 31.886222zM119.708444 520.533333l269.667556 40.277334 71.111111-31.857778-269.667555-40.305778-71.111112 31.872zM430.876444 613.290667v300.785777l71.111112-31.886222V581.418667l-71.111112 31.872zM389.376 954.140444L119.708444 913.848889l71.111112-31.872 269.667555 40.291555-71.111111 31.886223zM78.222222 861.383111V560.597333l71.111111-31.886222v300.8l-71.111111 31.857778zM78.222222 560.597333l71.111111-31.886222-71.111111 31.886222zM161.194667 619.264v208.241778l71.111111-31.886222V587.392l-71.111111 31.872zM161.194667 827.505778l186.709333 27.889778 71.111111-31.872-186.695111-27.904-71.111111 31.886222z" fill="#CECEF9" /><path d="M347.889778 855.395556V647.168l71.111111-31.872v208.213333l-71.111111 31.886223z" fill="#CECEF9" /><path d="M347.904 647.168L161.194667 619.264l71.111111-31.872 186.709333 27.904-71.111111 31.872zM161.194667 619.264l71.111111-31.872-71.111111 31.872zM513.848889 625.692444v300.785778l71.111111-31.886222V593.806222l-71.111111 31.886222zM555.335111 978.944l269.667556 40.305778 71.111111-31.886222-269.667556-40.291556-71.111111 31.872zM866.503111 979.171556V678.385778l71.111111-31.872v300.771555l-71.111111 31.886223zM825.002667 625.92l-269.667556-40.305778 71.111111-31.872 269.667556 40.291556-71.111111 31.886222zM555.335111 585.614222l71.111111-31.872-71.111111 31.872zM596.821333 892.586667V684.373333l71.111111-31.886222v208.227556l-71.111111 31.886222z" fill="#CECEF9" /><path d="M596.821333 684.373333l186.709334 27.875556 71.111111-31.857778-186.709334-27.904-71.111111 31.872z" fill="#CECEF9" /><path d="M783.516444 712.263111v208.227556l71.111112-31.872V680.391111l-71.111112 31.872z" fill="#CECEF9" /><path d="M783.530667 920.490667l-186.709334-27.889778 71.111111-31.886222 186.709334 27.904-71.111111 31.872zM596.821333 892.586667l71.111111-31.857778-71.111111 31.857778zM119.708444 34.645333a35.057778 35.057778 0 0 0-17.92 1.848889l71.111112-31.886222a35.057778 35.057778 0 0 1 17.92-1.848889l-71.111112 31.886222z" fill="#CECEF9" /><path d="M101.802667 36.494222C87.864889 41.870222 78.222222 56.32 78.222222 74.723556l71.111111-31.886223C149.333333 24.462222 158.961778 9.984 172.913778 4.608l-71.111111 31.886222zM78.222222 375.495111c0 25.557333 18.574222 49.066667 41.486222 52.48l71.111112-31.886222C167.921778 392.675556 149.333333 369.180444 149.333333 343.608889l-71.111111 31.886222zM389.376 468.266667c6.414222 0.967111 12.501333 0.241778 17.92-1.848889l71.111111-31.872a35.043556 35.043556 0 0 1-17.92 1.848889l-71.111111 31.872z" fill="#CECEF9" /><path d="M407.296 466.417778c13.937778-5.361778 23.580444-19.825778 23.580444-38.215111l71.111112-31.886223c0 18.403556-9.628444 32.853333-23.580445 38.229334l-71.111111 31.872zM430.876444 127.416889c0-25.557333-18.574222-49.052444-41.500444-52.48l71.111111-31.872c22.912 3.413333 41.500444 26.908444 41.500445 52.48l-71.111112 31.857778zM555.335111 99.740444a35.057778 35.057778 0 0 0-17.92 1.848889l71.111111-31.886222a35.057778 35.057778 0 0 1 17.92-1.848889l-71.111111 31.886222z" fill="#CECEF9" /><path d="M537.415111 101.589333c-13.937778 5.376-23.566222 19.825778-23.566222 38.229334l71.111111-31.886223c0-18.403556 9.628444-32.853333 23.566222-38.229333l-71.111111 31.886222zM513.848889 440.604444c0 25.543111 18.574222 49.038222 41.486222 52.465778l71.111111-31.872c-22.912-3.427556-41.486222-26.922667-41.486222-52.48l-71.111111 31.886222zM825.002667 533.361778c6.414222 0.967111 12.501333 0.241778 17.92-1.848889l71.111111-31.872a35.043556 35.043556 0 0 1-17.92 1.848889l-71.111111 31.872z" fill="#CECEF9" /><path d="M842.922667 531.512889c13.937778-5.361778 23.580444-19.825778 23.580444-38.215111l71.111111-31.886222c0 18.403556-9.628444 32.853333-23.580444 38.229333l-71.111111 31.872zM866.488889 192.512c0-25.557333-18.574222-49.052444-41.486222-52.48l71.111111-31.872c22.912 3.413333 41.486222 26.922667 41.486222 52.48l-71.111111 31.872zM78.222222 560.597333c0-17.379556 8.590222-31.232 21.290667-37.262222l71.111111-31.857778C157.923556 497.464889 149.333333 511.317333 149.333333 528.696889l-71.111111 31.886222z" fill="#CECEF9" /><path d="M99.512889 523.349333c5.973333-2.830222 12.871111-3.925333 20.195555-2.830222l71.111112-31.872c-7.324444-1.095111-14.222222 0-20.195556 2.830222l-71.111111 31.872zM389.376 560.824889c22.912 3.413333 41.500444 26.908444 41.500444 52.48l71.111112-31.886222c0-25.557333-18.574222-49.066667-41.500445-52.48l-71.111111 31.886222zM430.876444 914.062222c0 17.393778-8.590222 31.246222-21.290666 37.262222l71.111111-31.886222c12.700444-6.001778 21.290667-19.868444 21.290667-37.248l-71.111112 31.886222z" fill="#CECEF9" /><path d="M409.585778 951.324444c-5.973333 2.830222-12.871111 3.925333-20.195556 2.830223l71.111111-31.886223c7.324444 1.095111 14.222222 0 20.195556-2.830222l-71.111111 31.886222zM119.708444 913.848889C96.810667 910.435556 78.222222 886.940444 78.222222 861.368889l71.111111-31.857778c0 25.543111 18.574222 49.038222 41.486223 52.465778l-71.111112 31.872zM555.335111 585.614222a35.043556 35.043556 0 0 0-17.92 1.848889l71.111111-31.872a35.057778 35.057778 0 0 1 17.92-1.848889l-71.111111 31.872z" fill="#CECEF9" /><path d="M537.415111 587.463111c-13.937778 5.376-23.566222 19.825778-23.566222 38.229333l71.111111-31.886222c0-18.389333 9.628444-32.853333 23.566222-38.215111l-71.111111 31.872zM513.848889 926.478222c0 25.543111 18.574222 49.038222 41.486222 52.48l71.111111-31.886222c-22.912-3.427556-41.486222-26.922667-41.486222-52.48l-71.111111 31.886222zM825.002667 1019.235556c6.414222 0.967111 12.501333 0.256 17.92-1.848889l71.111111-31.857778a35.057778 35.057778 0 0 1-17.92 1.848889l-71.111111 31.857778z" fill="#CECEF9" /><path d="M842.922667 1017.400889c13.937778-5.376 23.580444-19.825778 23.580444-38.229333l71.111111-31.886223c0 18.403556-9.628444 32.853333-23.580444 38.229334l-71.111111 31.886222zM866.488889 678.4c0-25.571556-18.574222-49.066667-41.486222-52.48l71.111111-31.886222c22.912 3.413333 41.486222 26.922667 41.486222 52.48l-71.111111 31.872z" fill="#CECEF9" /><path d="M119.708444 34.645333C96.810667 31.232 78.222222 49.152 78.222222 74.723556v300.771555c0 25.557333 18.574222 49.066667 41.486222 52.48l269.681778 40.291556c22.897778 3.427556 41.486222-14.506667 41.486222-40.064V127.402667c0-25.543111-18.574222-49.038222-41.500444-52.465778L119.722667 34.645333zM161.194667 341.617778V133.404444l186.695111 27.875556v208.241778L161.194667 341.617778zM555.335111 99.740444c-22.912-3.413333-41.486222 14.506667-41.486222 40.078223v300.771555c0 25.557333 18.574222 49.066667 41.486222 52.48l269.681778 40.291556c22.897778 3.427556 41.486222-14.506667 41.486222-40.064v-300.8c0-25.543111-18.574222-49.038222-41.500444-52.465778l-269.653334-40.291556z m41.486222 306.986667V198.485333l186.695111 27.904v208.227556l-186.695111-27.889778zM78.222222 560.597333c0-25.557333 18.574222-43.505778 41.486222-40.078222l269.681778 40.305778c22.897778 3.413333 41.486222 26.908444 41.486222 52.48V914.062222c0 25.557333-18.574222 43.491556-41.500444 40.078222l-269.653333-40.305777C96.782222 910.435556 78.222222 886.940444 78.222222 861.368889V560.611556z m82.972445 58.666667v208.241778l186.695111 27.889778V647.168L161.194667 619.264z m394.140444-33.649778c-22.912-3.413333-41.486222 14.520889-41.486222 40.078222v300.785778c0 25.557333 18.574222 49.038222 41.486222 52.48l269.681778 40.291556c22.897778 3.413333 41.486222-14.520889 41.486222-40.078222V678.385778c0-25.557333-18.574222-49.052444-41.500444-52.48l-269.653334-40.291556z m41.486222 306.986667V684.359111l186.695111 27.904v208.227556l-186.695111-27.889778z" fill="#4E5969" /></svg>