<?xml version="1.0" standalone="no"?><!DOCTYPE svg PUBLIC "-//W3C//DTD SVG 1.1//EN" "http://www.w3.org/Graphics/SVG/1.1/DTD/svg11.dtd"><svg class="icon" width="200px" height="200.00px" viewBox="0 0 1024 1024" version="1.1" xmlns="http://www.w3.org/2000/svg"><path d="M129.802817 118.005183v713.266479l72.112676-32.320901V85.669859L129.802817 118.005183zM209.97769 932.416901l521.086197 77.867268 72.112676-32.335324-521.086197-77.867268-72.112676 32.335324zM811.238761 933.109183V312.810366l72.112676-32.320901v620.284394l-72.112676 32.335324z" fill="#CECEF9" /><path d="M811.238761 312.824789L647.470873 106.193127l72.112676-32.335324 163.767888 206.617239-72.112676 32.320902z" fill="#CECEF9" /><path d="M647.456451 106.207549L209.992113 40.815775l72.112676-32.335324 437.493183 65.377352-72.112676 32.335324z" fill="#CECEF9" /><path d="M209.97769 40.815775l72.112676-32.306479-72.112676 32.306479zM209.97769 129.99031L614.255775 190.377465l72.112676-32.320902-404.278085-60.416-72.112676 32.335324zM614.255775 190.391887l116.822535 147.369465 72.112676-32.320901-116.822535-147.369465-72.112676 32.320901z" fill="#CECEF9" /><path d="M731.07831 337.775775v583.348281l72.112676-32.320901V305.440451l-72.112676 32.320901z" fill="#CECEF9" /><path d="M731.07831 921.124056L209.97769 843.256789l72.112676-32.320902 521.086197 77.867268-72.112676 32.320901z" fill="#CECEF9" /><path d="M209.97769 843.256789V129.99031l72.112676-32.335324v713.280901l-72.112676 32.320902z" fill="#CECEF9" /><path d="M209.97769 129.99031l72.112676-32.335324-72.112676 32.335324zM584.184789 452.766648l-69.776226-23.364507 72.112676-32.306479 69.776226 23.364507-72.112676 32.306479z" fill="#CECEF9" /><path d="M514.408563 429.416563l15.287888 223.361803 72.112676-32.335324-15.287888-223.34738-72.112676 32.306479zM442.714141 544.508394l-11.177465-163.205408 72.112676-32.320901 11.177465 163.205408-72.112676 32.320901zM489.731606 330.766423l107.63538 36.027492 72.112676-32.320901-107.63538-36.041915-72.112676 32.335324z" fill="#CECEF9" /><path d="M597.366986 366.793915l-13.182197 85.987155 72.112676-32.335324 13.182197-85.972732-72.112676 32.320901z" fill="#CECEF9" /><path d="M584.184789 452.766648l72.112676-32.306479-72.112676 32.306479zM450.44462 657.552225l-0.403831-5.999774 72.112676-32.320902 0.403831 5.999775-72.112676 32.320901zM450.44462 657.552225l72.112676-32.320901-72.112676 32.320901zM209.97769 40.815775a67.915718 67.915718 0 0 0-34.614084 3.547943l72.112676-32.320901a67.915718 67.915718 0 0 1 34.614084-3.547944l-72.112676 32.335324z" fill="#CECEF9" /><path d="M175.349183 44.363718C148.407887 54.704676 129.802817 82.554592 129.802817 118.005183l72.112676-32.320901C201.915493 50.219268 220.520563 22.383775 247.461859 12.042817l-72.112676 32.320901zM129.802817 831.271662c0 49.252958 35.89769 94.525296 80.174873 101.145239l72.112676-32.335324C237.813183 893.476056 201.915493 848.189296 201.915493 798.950761l-72.112676 32.320901zM731.07831 1010.284169c12.388958 1.846085 24.128901 0.475944 34.614084-3.547944l72.112676-32.320901a67.915718 67.915718 0 0 1-34.614084 3.547944l-72.112676 32.320901z" fill="#CECEF9" /><path d="M765.692394 1006.736225c26.941296-10.340958 45.546366-38.176451 45.546367-73.627042l72.112676-32.335324c0 35.465014-18.60507 63.300507-45.546367 73.641465l-72.112676 32.320901zM529.696451 652.778366c0.634592 5.12 0.951887 10.283268 0.951887 15.504226l72.112676-32.335324c0-5.206535-0.317296-10.384225-0.951887-15.504226l-72.112676 32.335324z" fill="#CECEF9" /><path d="M530.648338 668.282592c0 41.854197-20.739606 75.213521-51.430761 89.679323l72.112677-32.320901c30.691155-14.465803 51.430761-47.839549 51.43076-89.693746l-72.112676 32.335324z" fill="#CECEF9" /><path d="M479.217577 757.961915c-14.422535 6.807437-31.066141 9.432338-48.777014 6.778592l72.112676-32.306479c17.710873 2.639324 34.340056 0.014423 48.777015-6.793014l-72.112677 32.320901z" fill="#CECEF9" /><path d="M430.440563 764.75493c-55.35369-8.264113-100.207775-64.872563-100.207774-126.427944l72.112676-32.320901c0 61.55538 44.854085 118.149408 100.207774 126.413521l-72.112676 32.335324z" fill="#CECEF9" /><path d="M330.218366 638.341408c0-41.86862 20.754028-75.227944 51.430761-89.708169l72.112676-32.306478c-30.676732 14.45138-51.430761 47.825127-51.430761 89.679324l-72.112676 32.320901z" fill="#CECEF9" /><path d="M381.649127 548.633239c14.436958-6.793014 31.080563-9.417915 48.791436-6.778591l72.112676-32.320902c-17.710873-2.653746-34.354479-0.028845-48.791436 6.778592l-72.112676 32.335324zM430.440563 541.854648c4.15369 0.620169 8.24969 1.514366 12.259155 2.668169l72.112676-32.335324a97.251155 97.251155 0 0 0-12.259155-2.653747l-72.112676 32.320902zM431.522254 381.302986c-1.586479-23.321239 9.562141-41.897465 26.191323-49.426028l72.112677-32.320902c-16.629183 7.528563-27.777803 26.104789-26.176902 49.426029l-72.112676 32.320901z" fill="#CECEF9" /><path d="M457.713577 331.876958c9.374648-4.240225 20.465577-4.975775 32.018029-1.110535l72.112676-32.335324c-11.552451-3.865239-22.64338-3.115268-32.018028 1.124957l-72.112677 32.320902zM450.040789 651.552451c-1.93262-10.35538-9.980394-19.095437-19.614648-20.53769l72.112676-32.335324c9.634254 1.442254 17.682028 10.196732 19.614648 20.552112l-72.112676 32.320902z" fill="#CECEF9" /><path d="M430.440563 631.014761a16.989746 16.989746 0 0 0-8.653521 0.879774l72.112676-32.320901c2.610479-1.009577 5.552676-1.355718 8.653521-0.894197l-72.112676 32.335324z" fill="#CECEF9" /><path d="M421.787042 631.894535c-6.735324 2.596056-11.393803 9.547718-11.393803 18.417578l72.112676-32.335324c0-8.855437 4.658479-15.821521 11.393803-18.403155l-72.112676 32.320901z" fill="#CECEF9" /><path d="M410.393239 650.312113c0 12.302423 8.970817 23.624113 20.047324 25.282704l72.112676-32.335324c-11.076507-1.644169-20.047324-12.980282-20.047324-25.282704l-72.112676 32.335324z" fill="#CECEF9" /><path d="M430.440563 675.594817c3.418141 0.504789 6.634366 0.043268 9.446761-1.225916l72.112676-32.320901c-2.812394 1.254761-6.02862 1.730704-9.446761 1.211493l-72.112676 32.335324z" fill="#CECEF9" /><path d="M439.887324 674.368901c5.999775-2.668169 10.153465-8.898704 10.557296-16.816676l72.112676-32.320901c-0.389408 7.903549-4.557521 14.134085-10.557296 16.816676l-72.112676 32.320901z" fill="#CECEF9" /><path d="M209.97769 40.815775C165.700507 34.224676 129.802817 68.78107 129.802817 118.019606v713.266479c0 49.252958 35.89769 94.525296 80.174873 101.145239l521.086197 77.867268c44.277183 6.619944 80.189296-27.936451 80.189296-77.174986V312.810366L647.442028 106.193127 209.992113 40.830197z m0 89.174535L614.255775 190.377465l116.822535 147.369465v583.362704L209.97769 843.256789V129.99031z m374.207099 322.776338l-69.776226-23.364507 15.287888 223.376225c0.634592 5.105577 0.951887 10.283268 0.951887 15.504226 0 61.540958-44.854085 104.736451-100.207775 96.472338-55.35369-8.278535-100.207775-64.872563-100.207774-126.427944s44.854085-104.736451 100.207774-96.472338c4.15369 0.620169 8.24969 1.514366 12.259155 2.668169l-11.163042-163.219831c-2.495099-36.445746 26.104789-61.295775 58.19493-50.536563l107.63538 36.027492-13.182197 85.987155z m-133.740169 204.785577l-0.403831-5.999774c-1.93262-10.35538-9.980394-19.095437-19.614648-20.53769-11.062085-1.658592-20.032901 6.980507-20.032902 19.297352 0 12.302423 8.970817 23.624113 20.047324 25.282704 10.672676 1.586479 19.427155-6.403606 20.004057-18.042592z" fill="#4E5969" /></svg>