<?xml version="1.0" standalone="no"?><!DOCTYPE svg PUBLIC "-//W3C//DTD SVG 1.1//EN" "http://www.w3.org/Graphics/SVG/1.1/DTD/svg11.dtd"><svg class="icon" width="200px" height="200.00px" viewBox="0 0 1024 1024" version="1.1" xmlns="http://www.w3.org/2000/svg"><path d="M343.411014 267.916986l74.202899-33.25774-74.202899 33.27258zM471.084522 45.56058l74.202898-33.242899-74.202898 33.242899zM66.782609 757.730319v72.422029l74.202898-33.242899v-72.436869l-74.202898 33.257739zM130.626783 912.13171l680.930318 101.747015 74.202899-33.257739L204.829681 878.85913l-74.202898 33.242899zM875.386435 950.984348V878.562319l74.202898-33.27258v72.43687l-74.202898 33.257739zM641.320812 602.156522l-340.47258-50.873508 74.202898-33.272579 340.47258 50.873507-74.202898 33.27258zM300.848232 551.283014l74.202898-33.272579-74.202898 33.272579zM300.848232 647.850667l340.47258 50.873507 74.202898-33.257739-340.47258-50.873507-74.202898 33.257739zM790.26087 865.843942v48.291246l74.202898-33.272579v-48.276406l-74.202898 33.257739z" fill="#CECEF9" /><path d="M790.26087 914.135188L151.908174 818.739942l74.202898-33.257739 638.382377 95.380406-74.202898 33.272579zM151.893333 818.739942v-48.291246l74.202899-33.257739v48.291246l-74.202899 33.242898z" fill="#CECEF9" /><path d="M151.893333 770.448696l74.202899-33.257739-74.202899 33.257739zM343.411014 267.916986c0-54.390725 26.431072-97.843942 65.52116-116.765682l74.202898-33.257739c-39.090087 18.921739-65.521159 62.360116-65.521159 116.765681l-74.202899 33.27258z" fill="#CECEF9" /><path d="M408.932174 151.151304c18.402319-8.904348 39.594667-12.377043 62.152348-9.008232l74.202898-33.257739c-22.557681-3.383652-43.76487 0.089043-62.152348 9.008232l-74.202898 33.257739z" fill="#CECEF9" /><path d="M471.084522 142.143072c70.522435 10.536812 127.673507 83.938319 127.673507 163.943885l74.202899-33.27258c0-79.990725-57.151072-153.392232-127.673508-163.929044l-74.202898 33.257739zM598.758029 306.086957c0 54.390725-26.416232 97.843942-65.521159 116.765681l74.202898-33.257739c39.090087-18.921739 65.521159-62.374957 65.52116-116.780522l-74.202899 33.27258z" fill="#CECEF9" /><path d="M533.23687 422.852638c-18.402319 8.904348-39.579826 12.377043-62.152348 9.008232l74.202898-33.25774c22.557681 3.368812 43.76487-0.103884 62.152348-9.008231l-74.202898 33.257739z" fill="#CECEF9" /><path d="M471.084522 431.86087c-70.507594-10.536812-127.673507-83.938319-127.673508-163.943884l74.202899-33.25774c0 79.990725 57.165913 153.392232 127.673507 163.929044l-74.202898 33.27258zM471.084522 45.56058c-32.901565-4.897391-64.066783-1.083362-91.878029 9.883826l74.202898-33.257739c27.811246-10.982029 58.976464-14.796058 91.878029-9.883826l-74.202898 33.272579z" fill="#CECEF9" /><path d="M379.206493 55.444406c-71.531594 28.226783-120.906203 103.765333-120.906203 199.754203l74.202898-33.242899c0-96.018551 49.374609-171.557101 120.906203-199.769043l-74.202898 33.257739z" fill="#CECEF9" /><path d="M258.30029 255.213449c0 133.327768 95.276522 255.658667 212.784232 273.215073l74.202898-33.257739c-117.522551-17.556406-212.799072-139.887304-212.799072-273.215073l-74.202899 33.242899zM471.084522 528.428522c32.916406 4.927072 64.066783 1.098203 91.878029-9.868986l74.202898-33.272579c-27.811246 10.982029-58.961623 14.796058-91.863188 9.883826l-74.202899 33.257739z" fill="#CECEF9" /><path d="M562.962551 518.559536c71.531594-28.211942 120.921043-103.750493 120.921043-199.754203l74.202899-33.272579c0 96.018551-49.389449 171.542261-120.921044 199.754203l-74.202898 33.272579z" fill="#CECEF9" /><path d="M683.883594 318.805333c0-133.342609-95.276522-255.673507-212.799072-273.229913l74.202898-33.272579c117.537391 17.571246 212.799072 139.902145 212.799073 273.229913l-74.202899 33.272579zM300.848232 551.283014c-44.091362-6.589217-86.579942-1.958957-123.161971 14.32116l74.202898-33.242899c36.582029-16.309797 79.070609-20.925217 123.176812-14.35084l-74.202899 33.272579z" fill="#CECEF9" /><path d="M177.701101 565.604174c-14.246957 6.336928-27.573797 14.439884-39.772753 24.338551l74.202898-33.27258a177.701101 177.701101 0 0 1 39.772754-24.32371l-74.202899 33.257739zM137.943188 589.942725C93.718261 625.797565 66.782609 683.557101 66.782609 757.730319l74.202898-33.257739c0-74.188058 26.935652-131.932754 71.16058-167.802435l-74.202899 33.27258zM66.782609 830.167188c0 39.995362 28.582957 76.696116 63.844174 81.964522l74.202898-33.27258C169.568464 873.605565 140.985507 836.919652 140.985507 796.909449L66.782609 830.182029zM811.557101 1013.878725a53.129275 53.129275 0 0 0 27.558957-2.968116l74.202899-33.242899a53.129275 53.129275 0 0 1-27.558957 2.953276l-74.202899 33.257739z" fill="#CECEF9" /><path d="M839.116058 1010.925449c21.459478-8.45913 36.270377-31.135536 36.270377-59.926261l74.202898-33.272579c0 28.790725-14.810899 51.46713-36.270376 59.926261l-74.202899 33.272579zM875.386435 878.562319c0-74.173217-26.920812-139.976348-71.145739-189.068986l74.202898-33.242898c44.224928 49.062957 71.145739 114.866087 71.145739 189.054145l-74.202898 33.257739z" fill="#CECEF9" /><path d="M804.240696 689.493333a273.556406 273.556406 0 0 0-162.919884-87.336811l74.202898-33.27258a273.541565 273.541565 0 0 1 162.919884 87.351652l-74.202898 33.27258zM151.893333 770.448696c0-45.81287 15.953623-78.239536 41.034203-98.585971l74.202899-33.257739c-25.08058 20.331594-41.034203 52.758261-41.034203 98.585971l-74.202899 33.257739zM192.927536 671.862725c6.188522-5.016116 13.05971-9.394087 20.539363-13.059711l74.202898-33.242898a107.564522 107.564522 0 0 0-20.539362 13.04487l-74.202899 33.257739z" fill="#CECEF9" /><path d="M213.466899 658.817855c23.685565-11.590493 53.544812-16.027826 87.381333-10.967188l74.202898-33.257739c-33.836522-5.045797-63.695768-0.623304-87.381333 10.967188l-74.202898 33.242898zM641.320812 698.724174c44.521739 6.66342 82.157449 27.677681 107.920695 56.275478l74.202899-33.27258c-25.763246-28.597797-63.398957-49.612058-107.920696-56.260637l-74.202898 33.257739z" fill="#CECEF9" /><path d="M749.241507 754.984812c25.08058 27.855768 41.034203 65.03142 41.034203 110.85913l74.202899-33.27258c0-45.81287-15.938783-83.003362-41.034203-110.84429l-74.202899 33.27258z" fill="#CECEF9" /><path d="M343.411014 267.916986c0-79.990725 57.165913-136.310725 127.673508-125.773914 70.522435 10.536812 127.673507 83.938319 127.673507 163.943885 0 79.990725-57.151072 136.310725-127.673507 125.773913-70.507594-10.536812-127.673507-83.938319-127.673508-163.943884z m127.673508-222.341566c-117.522551-17.571246-212.784232 76.28058-212.784232 209.638029 0 133.327768 95.276522 255.658667 212.784232 273.215073 117.522551 17.571246 212.799072-76.28058 212.799072-209.623189S588.607072 63.131826 471.084522 45.56058z m-170.22145 505.707594c-61.261913-9.156638-119.377623 3.33913-162.919884 38.659711C93.718261 625.797565 66.782609 683.557101 66.782609 757.730319v72.422029c0 40.010203 28.582957 76.710957 63.844174 81.979362l680.930318 101.747015c35.246377 5.268406 63.829333-22.884174 63.829334-62.879537V878.562319c0-74.202899-26.920812-139.991188-71.145739-189.068986a273.541565 273.541565 0 0 0-162.919884-87.351652l-340.47258-50.873507zM151.878493 770.448696c0-45.81287 15.953623-78.239536 41.034203-98.585971 25.763246-20.895536 63.413797-30.660638 107.920695-24.012058l340.47258 50.873507c44.521739 6.66342 82.157449 27.677681 107.920696 56.275478 25.08058 27.840928 41.034203 65.01658 41.034203 110.84429v48.291246L151.893333 818.739942v-48.291246z" fill="#4E5969" /></svg>