<?xml version="1.0" standalone="no"?><!DOCTYPE svg PUBLIC "-//W3C//DTD SVG 1.1//EN" "http://www.w3.org/Graphics/SVG/1.1/DTD/svg11.dtd"><svg class="icon" width="200px" height="200.00px" viewBox="0 0 1024 1024" version="1.1" xmlns="http://www.w3.org/2000/svg"><path d="M214.214194 261.714581l82.580645-37.012646-82.580645 37.012646zM328.654452 47.880258l82.580645-37.029161-82.580645 37.029161zM649.050839 429.336774l82.580645-37.012645-82.580645 37.012645zM694.833548 282.211097l82.580646-37.012645-82.580646 37.012645zM191.339355 540.572903l274.630193 41.026065 82.580646-37.012645-274.630194-41.042581-82.580645 37.029161zM649.050839 814.245161v205.295484l82.580645-37.029161v-205.295484l-82.580645 37.029161z" fill="#CECEF9" /><path d="M649.050839 1019.540645L8.258065 923.763613l82.580645-37.029161 640.792774 95.760516-82.580645 37.012645z" fill="#CECEF9" /><path d="M8.258065 923.780129v-205.295484l82.580645-37.012645v205.295484l-82.580645 36.996129zM8.258065 718.484645l82.580645-37.012645-82.580645 37.012645zM99.790452 732.16v102.647742l82.580645-37.012645v-102.647742l-82.580645 37.029161zM99.790452 834.807742l457.711483 68.39329 82.580646-37.012645-457.711484-68.39329-82.580645 37.012645z" fill="#CECEF9" /><path d="M557.501935 903.201032v-102.631226l82.580646-37.029161v102.647742l-82.580646 37.012645zM465.969548 684.24671l-274.630193-41.042581 82.580645-37.012645 274.630194 41.026064-82.580646 37.029162zM191.339355 643.204129l82.580645-37.012645-82.580645 37.012645zM786.365935 680.794839l-91.548903-13.675355 82.580645-37.012645 91.548904 13.675355-82.580646 37.012645z" fill="#CECEF9" /><path d="M694.833548 667.119484v102.647742l82.580646-37.029161v-102.631226l-82.580646 37.012645z" fill="#CECEF9" /><path d="M694.833548 769.767226l91.532387 13.675355 82.580646-37.029162-91.548904-13.675354-82.580645 37.029161zM832.132129 841.595871v51.332129l82.580645-37.029161v-51.315613l-82.580645 37.012645z" fill="#CECEF9" /><path d="M832.132129 892.928L694.833548 872.381935l82.580646-37.012645 137.315096 20.513033-82.580645 37.029161z" fill="#CECEF9" /><path d="M694.833548 872.398452v102.647742l82.580646-37.029162V835.385806l-82.580646 37.012646z" fill="#CECEF9" /><path d="M694.833548 975.046194l228.847484 34.188387 82.580645-37.012646-228.864-34.188387-82.580645 36.996129z" fill="#CECEF9" /><path d="M923.681032 1009.251097v-153.963355l82.580645-37.029161v153.963354l-82.580645 37.029162zM923.681032 855.287742l82.580645-37.029161-82.580645 37.029161zM214.214194 261.714581c0-48.177548 23.700645-86.627097 58.731354-103.324904l82.580646-37.012645c-35.03071 16.68129-58.714839 55.130839-58.714839 103.324903l-82.580645 37.012646z" fill="#CECEF9" /><path d="M272.945548 158.389677c16.483097-7.845161 35.493161-10.900645 55.708904-7.878193l82.580645-37.012645c-20.215742-3.022452-39.225806 0.016516-55.708903 7.878193l-82.580646 37.012645z" fill="#CECEF9" /><path d="M328.654452 150.511484c63.19071 9.447226 114.423742 74.553806 114.423742 145.408l82.580645-37.029161c0-70.854194-51.233032-135.944258-114.423742-145.391484l-82.580645 37.012645zM443.078194 295.919484c0 48.177548-23.684129 86.627097-58.714839 103.324903l82.580645-37.012645c35.03071-16.714323 58.714839-55.163871 58.714839-103.324903l-82.580645 37.012645z" fill="#CECEF9" /><path d="M384.363355 399.244387c-16.483097 7.861677-35.493161 10.900645-55.708903 7.878194l82.580645-37.012646c20.215742 3.022452 39.225806-0.033032 55.708903-7.894709l-82.580645 37.029161z" fill="#CECEF9" /><path d="M328.654452 407.122581c-63.19071-9.447226-114.423742-74.53729-114.423742-145.408l82.580645-37.012646c0 70.854194 51.233032 135.960774 114.423742 145.391484l-82.580645 37.029162zM328.654452 47.880258c-31.843097-4.756645-62.018065-1.156129-88.939355 9.282065l82.580645-37.012646C349.217032 9.694968 379.392 6.110968 411.251613 10.851097l-82.580645 37.029161z" fill="#CECEF9" /><path d="M239.715097 57.162323C170.496 84.034065 122.681806 156.209548 122.681806 248.039226l82.580646-37.012645c0-91.829677 47.814194-164.005161 117.03329-190.876904l-82.580645 37.012646zM122.681806 248.039226c0 127.554065 92.226065 244.719484 205.972646 261.71458l82.580645-37.012645c-113.746581-17.011613-205.956129-134.177032-205.956129-261.71458l-82.580645 37.012645z" fill="#CECEF9" /><path d="M328.654452 509.753806c31.843097 4.773161 62.018065 1.156129 88.939354-9.282064l82.580646-37.012645c-26.92129 10.438194-57.096258 14.03871-88.939355 9.282064l-82.580645 37.012645z" fill="#CECEF9" /><path d="M417.593806 500.471742c69.219097-26.871742 117.03329-99.047226 117.033291-190.876903l82.580645-37.012645c0 91.829677-47.814194 164.005161-117.03329 190.876903l-82.580646 37.012645z" fill="#CECEF9" /><path d="M534.627097 309.594839c0-127.554065-92.226065-244.719484-205.972645-261.714581l82.580645-37.029161c113.746581 17.011613 205.956129 134.177032 205.956129 261.731097l-82.580645 37.012645zM649.050839 429.336774c0-19.274323 9.480258-34.650839 23.485935-41.323355l82.580645-37.029161c-14.005677 6.689032-23.485935 22.065548-23.485935 41.339871l-82.580645 37.012645z" fill="#CECEF9" /><path d="M672.536774 388.013419c6.606452-3.138065 14.203871-4.360258 22.296774-3.15458l82.580646-37.029162c-8.092903-1.205677-15.690323 0-22.296775 3.154581l-82.580645 37.029161zM694.833548 384.858839c25.269677 3.765677 45.749677 29.811613 45.749678 58.15329l82.580645-37.012645c0-28.341677-20.48-54.387613-45.749677-58.169807l-82.580646 37.029162zM740.583226 443.012129c0 19.274323-9.463742 34.650839-23.485936 41.339871l82.580645-37.029161c14.022194-6.672516 23.502452-22.049032 23.502452-41.323355l-82.580645 37.012645z" fill="#CECEF9" /><path d="M717.113806 484.352c-6.606452 3.138065-14.203871 4.360258-22.296774 3.138065l82.580645-36.99613c8.092903 1.189161 15.690323-0.033032 22.296775-3.171096l-82.580646 37.029161z" fill="#CECEF9" /><path d="M694.833548 487.506581c-25.286194-3.79871-45.78271-29.828129-45.782709-58.169807l82.580645-37.012645c0 28.341677 20.48 54.371097 45.766193 58.15329l-82.580645 37.029162zM694.833548 282.211097c-21.239742-3.171097-41.356387-0.776258-59.292903 6.193548l82.580645-37.012645c17.936516-6.969806 38.053161-9.364645 59.292904-6.193548l-82.580646 37.012645z" fill="#CECEF9" /><path d="M635.540645 288.404645c-46.162581 17.92-78.03871 66.031484-78.03871 127.256774l82.580646-37.029161c0-61.22529 31.876129-109.336774 78.022193-127.240258l-82.580645 37.012645zM557.501935 415.661419c0 85.025032 61.489548 163.146323 137.315097 174.476387l82.580645-37.012645c-75.825548-11.346581-137.315097-89.451355-137.315096-174.492903l-82.580646 37.029161zM694.833548 590.137806c21.223226 3.171097 41.323355 0.776258 59.292904-6.193548l82.580645-37.012645c-17.953032 6.969806-38.069677 9.364645-59.292903 6.193548l-82.580646 37.012645z" fill="#CECEF9" /><path d="M754.126452 583.944258c46.146065-17.92 78.005677-66.031484 78.005677-127.256774l82.580645-37.012645c0 61.22529-31.876129 109.336774-78.022193 127.256774l-82.580646 37.012645zM832.132129 456.687484c0-85.025032-61.473032-163.146323-137.315097-174.476387l82.580645-37.012645c75.842065 11.330065 137.315097 89.451355 137.315097 174.476387l-82.580645 37.012645zM8.258065 718.484645c0-77.09729 37.904516-138.586839 93.960258-165.326451l82.580645-36.996129C128.743226 542.852129 90.83871 604.37471 90.83871 681.455484l-82.580645 37.012645z" fill="#CECEF9" /><path d="M102.201806 553.17471c26.392774-12.568774 56.782452-17.441032 89.137549-12.618323l82.580645-37.012645c-32.371613-4.839226-62.76129 0.033032-89.137548 12.601806l-82.580646 37.029162zM465.969548 581.598968c101.111742 15.112258 183.08129 119.262968 183.081291 232.646193l82.580645-37.029161c0-113.36671-81.969548-217.517419-183.08129-232.629677l-82.580646 37.012645zM191.339355 643.204129a76.981677 76.981677 0 0 0-39.523097 4.129032l82.580645-37.012645a76.998194 76.998194 0 0 1 39.523097-4.129032l-82.580645 37.012645z" fill="#CECEF9" /><path d="M151.816258 647.333161c-30.769548 11.941161-52.025806 44.015484-52.025806 84.826839l82.580645-36.996129c0-40.827871 21.256258-72.902194 52.025806-84.843355l-82.580645 37.012645zM557.501935 800.55329c0-56.683355-40.976516-108.75871-91.532387-116.30658l82.580646-37.029162c50.555871 7.564387 91.532387 59.623226 91.532387 116.323097l-82.580646 37.029161zM923.681032 855.287742c0-85.041548-61.489548-163.162839-137.315097-174.492903l82.580646-37.012645c75.825548 11.330065 137.315097 89.451355 137.315096 174.476387l-82.580645 37.029161z" fill="#CECEF9" /><path d="M786.365935 783.442581c25.269677 3.765677 45.766194 29.811613 45.766194 58.15329l82.580645-37.012645c0-28.341677-20.48-54.387613-45.766193-58.169807l-82.580646 37.029162z" fill="#CECEF9" /><path d="M214.214194 261.714581c0-70.854194 51.249548-120.633806 114.440258-111.203097 63.19071 9.447226 114.423742 74.553806 114.423742 145.408s-51.233032 120.650323-114.423742 111.203097c-63.19071-9.447226-114.423742-74.53729-114.423742-145.408zM328.670968 47.896774c-113.746581-17.011613-205.956129 72.621419-205.956129 200.175484 0 127.537548 92.209548 244.702968 205.956129 261.698065 113.746581 17.011613 205.956129-72.604903 205.956129-200.158968 0-127.537548-92.209548-244.719484-205.956129-261.714581z m320.396387 381.456516c0-28.341677 20.48-48.260129 45.766193-44.477935 25.269677 3.782194 45.766194 29.811613 45.766194 58.15329s-20.48 48.260129-45.749677 44.494452c-25.286194-3.79871-45.78271-29.828129-45.78271-58.169807z m45.766193-147.125677c-75.825548-11.330065-137.315097 48.408774-137.315096 133.450322 0 85.025032 61.489548 163.146323 137.315096 174.476388 75.842065 11.330065 137.315097-48.408774 137.315097-133.450323 0-85.025032-61.473032-163.146323-137.315097-174.476387zM8.258065 718.484645c0-113.36671 81.969548-193.024 183.08129-177.928258l274.630193 41.042581c101.111742 15.112258 183.08129 119.262968 183.081291 232.646193v205.295484L8.258065 923.763613v-205.295484z m183.08129-75.280516c-50.555871-7.547871-91.532387 32.272516-91.532387 88.972387v102.631226l457.694967 68.39329v-102.631226c0-56.699871-40.976516-108.775226-91.532387-116.323096l-274.630193-41.042581z m732.325161 212.067097c0-85.025032-61.473032-163.146323-137.298581-174.476387l-91.548903-13.675355v102.647742l91.548903 13.675355c25.269677 3.782194 45.766194 29.811613 45.766194 58.15329v51.332129L694.833548 872.381935v102.647742l228.864 34.188388v-153.946839z" fill="#4E5969" /></svg>