<?xml version="1.0" standalone="no"?><!DOCTYPE svg PUBLIC "-//W3C//DTD SVG 1.1//EN" "http://www.w3.org/Graphics/SVG/1.1/DTD/svg11.dtd"><svg class="icon" width="200px" height="200.00px" viewBox="0 0 1024 1024" version="1.1" xmlns="http://www.w3.org/2000/svg"><path d="M38.787879 103.222303v721.92l77.575757-34.753939V68.437333L38.787879 103.222303zM103.284364 906.984727l730.949818 109.226667 77.575757-34.78497-730.949818-109.226666-77.575757 34.784969zM898.715152 953.654303v-721.92l77.575757-34.78497v721.92l-77.575757 34.78497zM834.234182 149.891879L103.284364 40.665212l77.575757-34.769454 730.949818 109.226666-77.575757 34.769455zM103.284364 40.665212l77.575757-34.769454-77.575757 34.769454zM124.772848 813.924848V140.148364l77.575758-34.769455v673.792l-77.575758 34.78497z" fill="#CECEF9" /><path d="M124.772848 140.132848l687.957334 102.803394 77.575757-34.784969-687.941818-102.787879-77.575757 34.769454z" fill="#CECEF9" /><path d="M812.730182 242.936242v673.792l77.575757-34.753939v-673.82303l-77.575757 34.784969z" fill="#CECEF9" /><path d="M812.730182 916.743758L124.788364 813.924848l77.575757-34.784969 687.941818 102.803394-77.575757 34.784969zM124.772848 813.924848l77.575758-34.753939-77.575758 34.753939zM213.752242 282.313697l255.007031 235.721697 77.575757-34.78497-255.00703-235.721697-77.575758 34.78497z" fill="#CECEF9" /><path d="M468.759273 518.035394l255.00703-159.511273 77.575758-34.784969-255.007031 159.511272-77.575757 34.78497z" fill="#CECEF9" /><path d="M723.766303 358.524121l48.950303 86.450424 77.575758-34.769454-48.950303-86.465939-77.575758 34.784969z" fill="#CECEF9" /><path d="M772.701091 444.974545L505.483636 612.134788l77.575758-34.769455 267.23297-167.160242-77.575758 34.769454zM432.050424 601.165576L164.801939 354.133333l77.575758-34.769454 267.248485 247.032242-77.575758 34.769455z" fill="#CECEF9" /><path d="M164.801939 354.133333l48.950303-71.835151 77.575758-34.75394-48.950303 71.819637-77.575758 34.769454z" fill="#CECEF9" /><path d="M213.752242 282.313697l77.575758-34.78497-77.575758 34.78497zM103.284364 40.665212a54.318545 54.318545 0 0 0-27.849697 2.901333l77.575757-34.784969A54.318545 54.318545 0 0 1 180.860121 5.895758l-77.575757 34.769454z" fill="#CECEF9" /><path d="M75.434667 43.566545C53.76 51.944727 38.787879 74.519273 38.787879 103.222303l77.575757-34.769455c0-28.70303 14.972121-51.277576 36.646788-59.671272l-77.575757 34.784969zM38.787879 825.157818c0 39.873939 28.873697 76.489697 64.496485 81.826909l77.575757-34.784969C145.221818 866.878061 116.363636 830.246788 116.363636 790.372848l-77.575757 34.78497zM834.234182 1016.211394a54.30303 54.30303 0 0 0 27.849697-2.901333l77.575757-34.769455a54.30303 54.30303 0 0 1-27.849697 2.885818l-77.575757 34.78497z" fill="#CECEF9" /><path d="M862.083879 1013.310061c21.674667-8.393697 36.646788-30.952727 36.646788-59.655758l77.575757-34.78497c0 28.70303-14.972121 51.277576-36.646788 59.671273l-77.575757 34.769455zM898.730667 231.718788c0-39.873939-28.873697-76.489697-64.496485-81.826909l77.575757-34.769455c35.622788 5.321697 64.496485 41.95297 64.496485 81.826909l-77.575757 34.769455zM505.468121 612.134788a52.130909 52.130909 0 0 1-5.430303 2.978909l77.575758-34.78497c1.861818-0.868848 3.661576-1.861818 5.430303-2.963394l-77.575758 34.769455z" fill="#CECEF9" /><path d="M500.037818 615.098182c-21.286788 10.053818-47.678061 4.856242-67.987394-13.932606l77.575758-34.769455c20.324848 18.773333 46.700606 23.970909 67.987394 13.932606l-77.575758 34.769455z" fill="#CECEF9" /><path d="M103.284364 40.665212C67.646061 35.343515 38.787879 63.348364 38.787879 103.222303v721.92c0 39.873939 28.873697 76.520727 64.496485 81.842424l730.949818 109.226667c35.622788 5.321697 64.496485-22.683152 64.496485-62.557091v-721.92c0-39.873939-28.873697-76.520727-64.496485-81.842424L103.284364 40.665212z m21.504 773.275152V140.132848l687.941818 102.803394v673.807516L124.788364 813.924848z m88.963878-531.626667l255.007031 235.721697 255.00703-159.511273 48.950303 86.450424-267.248485 167.160243c-22.093576 13.808485-51.339636 9.448727-73.417697-10.969212L164.801939 354.133333l48.950303-71.835151z" fill="#4E5969" /></svg>