<?xml version="1.0" standalone="no"?><!DOCTYPE svg PUBLIC "-//W3C//DTD SVG 1.1//EN" "http://www.w3.org/Graphics/SVG/1.1/DTD/svg11.dtd"><svg class="icon" width="200px" height="183.68px" viewBox="0 0 1115 1024" version="1.1" xmlns="http://www.w3.org/2000/svg"><path d="M217.179429 402.304l-0.146286 34.285714 91.428571-40.996571 0.146286-34.267429-91.428571 40.978286z" fill="#CECEF9" /><path d="M217.033143 436.571429l-26.624 11.282285 91.428571-40.978285 26.624-11.282286-91.428571 40.978286zM265.435429 828.525714l458.496 68.498286 91.428571-40.996571-458.496-68.498286-91.428571 40.978286zM736.073143 453.961143l-35.072-7.753143 91.428571-40.978286 35.072 7.734857-91.428571 40.996572z" fill="#CECEF9" /><path d="M701.001143 446.208l-8.704-40.576 91.428571-40.978286 8.704 40.576-91.428571 40.978286zM458.496 161.554286l91.428571-40.978286-91.428571 40.96zM723.931429 1008.347429l-458.496-68.516572 91.428571-40.978286 458.496 68.516572-91.428571 40.96zM122.002286 354.614857l91.428571-40.978286-91.428571 40.978286z" fill="#CECEF9" /><path d="M458.477714 161.554286c-37.193143-5.558857-72.411429-1.115429-103.862857 11.52l91.428572-40.996572c31.451429-12.617143 66.669714-17.060571 103.862857-11.52l-91.428572 40.996572z" fill="#CECEF9" /><path d="M354.596571 173.074286C273.682286 205.568 217.691429 292.205714 217.179429 402.285714l91.428571-40.978285c0.493714-110.08 56.502857-196.754286 137.417143-229.248l-91.428572 40.996571zM190.390857 447.872c-55.734857 23.606857-93.860571 84.150857-93.860571 160.566857l91.428571-40.978286c0-76.434286 38.125714-136.96 93.860572-160.585142l-91.428572 40.996571z" fill="#CECEF9" /><path d="M96.530286 608.438857c0 107.593143 75.629714 206.134857 168.905143 220.068572l91.428571-40.978286c-93.275429-13.952-168.905143-112.475429-168.905143-220.068572l-91.428571 40.978286zM723.931429 897.024c29.842286 4.461714 58.112 0.859429 83.346285-9.325714l91.428572-40.978286c-25.234286 10.185143-53.504 13.769143-83.346286 9.325714l-91.428571 40.96z" fill="#CECEF9" /><path d="M807.277714 887.698286c64.896-26.185143 109.714286-95.945143 109.714286-184.502857l91.428571-40.96c0 88.521143-44.818286 158.299429-109.714285 184.484571l-91.428572 40.978286z" fill="#CECEF9" /><path d="M916.973714 703.213714c0-118.272-79.963429-226.980571-180.900571-249.270857l91.428571-40.978286c100.937143 22.290286 180.900571 130.998857 180.900572 249.252572l-91.428572 40.996571zM692.297143 405.632c-26.642286-124.251429-121.289143-227.273143-233.801143-244.077714l91.428571-40.978286c112.512 16.804571 207.158857 119.808 233.801143 244.077714l-91.428571 40.978286zM122.002286 354.614857c10.422857-133.632 80.713143-238.445714 180.077714-283.574857l91.428571-40.996571c-99.364571 45.129143-169.654857 149.942857-180.077714 283.593142l-91.428571 40.978286z" fill="#CECEF9" /><path d="M302.08 71.04c46.774857-21.248 99.968-29.257143 156.416-20.809143l91.428571-40.996571C493.476571 0.804571 440.283429 8.813714 393.508571 30.043429l-91.428571 40.996571zM458.496 50.230857c145.865143 21.796571 270.043429 146.925714 317.366857 303.268572l91.428572-40.978286C819.968 156.16 695.789714 31.030857 549.924571 9.234286l-91.428571 40.996571z" fill="#CECEF9" /><path d="M775.862857 353.499429c135.149714 48.438857 237.622857 200.118857 237.622857 364.123428l91.428572-40.978286c0-164.022857-102.473143-315.684571-237.622857-364.123428l-91.428572 40.978286zM1013.485714 717.641143c0 125.421714-59.940571 225.737143-148.589714 269.586286l91.428571-40.978286c88.649143-43.849143 148.589714-144.164571 148.589715-269.604572l-91.428572 40.996572z" fill="#CECEF9" /><path d="M864.914286 987.245714c-41.728 20.626286-89.801143 28.745143-140.982857 21.101715l91.428571-40.978286c51.163429 7.643429 99.254857-0.493714 140.982857-21.12l-91.428571 40.978286zM265.435429 939.830857C118.857143 917.942857 0 763.099429 0 594.011429l91.428571-40.978286c0 169.088 118.857143 323.913143 265.435429 345.819428l-91.428571 40.978286z" fill="#CECEF9" /><path d="M0 594.011429c0-108.196571 48.676571-195.931429 122.002286-239.396572l91.428571-40.978286C140.105143 357.083429 91.428571 444.818286 91.428571 553.033143l-91.428571 40.978286z" fill="#CECEF9" /><path d="M458.477714 161.554286C325.668571 141.696 217.874286 249.398857 217.179429 402.285714l-0.164572 34.285715-26.624 11.282285c-55.734857 23.606857-93.860571 84.150857-93.860571 160.566857 0 107.593143 75.611429 206.134857 168.905143 220.068572l458.496 68.516571c106.605714 15.908571 193.042286-70.838857 193.042285-193.828571 0-118.253714-79.963429-226.962286-180.900571-249.234286l-35.072-7.753143-8.704-40.576c-26.660571-124.251429-121.289143-227.273143-233.819429-244.077714zM122.002286 354.614857C137.325714 158.098286 282.130286 23.862857 458.477714 50.230857c145.883429 21.796571 270.061714 146.925714 317.385143 303.268572 135.149714 48.457143 237.641143 200.118857 237.641143 364.123428 0 184.466286-129.645714 314.624-289.572571 290.724572l-458.496-68.516572C118.857143 917.942857 0 763.099429 0 594.011429c0-108.196571 48.676571-195.931429 122.002286-239.396572z" fill="#4E5969" /></svg>