<?xml version="1.0" standalone="no"?><!DOCTYPE svg PUBLIC "-//W3C//DTD SVG 1.1//EN" "http://www.w3.org/Graphics/SVG/1.1/DTD/svg11.dtd"><svg class="icon" width="200px" height="200.00px" viewBox="0 0 1024 1024" version="1.1" xmlns="http://www.w3.org/2000/svg"><path d="M275.48703 406.776242v0.046546l77.575758-34.78497v-0.046545l-77.575758 34.784969z" fill="#CECEF9" /><path d="M275.48703 406.807273l0.077576 45.924848 77.575758-34.784969-0.077576-45.909334-77.575758 34.78497z" fill="#CECEF9" /><path d="M275.564606 452.732121l-39.796364-1.05503 77.575758-34.769455 39.796364 1.039516-77.575758 34.784969zM253.176242 801.326545l290.024728 43.349334 77.575757-34.78497-290.040242-43.333818-77.575758 34.769454z" fill="#CECEF9" /><path d="M543.20097 844.675879v99.452121l77.575757-34.769455V809.890909l-77.575757 34.753939z" fill="#CECEF9" /><path d="M543.185455 944.128L253.191758 900.809697l77.575757-34.78497 290.024727 43.349334-77.575757 34.769454zM922.468848 503.497697l-89.243151-13.34303 77.575758-34.75394 89.243151 13.327515-77.575758 34.769455zM275.48703 406.776242l77.575758-34.784969-77.575758 34.784969zM700.928 826.290424V569.856l77.575758-34.78497v256.434425l-77.575758 34.784969z" fill="#CECEF9" /><path d="M700.928 569.856l89.243152 13.34303 77.575757-34.784969-89.243151-13.343031-77.575758 34.78497zM790.186667 583.19903v256.465455l77.575757-34.769455V548.414061l-77.575757 34.784969z" fill="#CECEF9" /><path d="M790.186667 839.68l81.609697-78.770424 77.575757-34.769455-81.609697 78.754909-77.575757 34.769455z" fill="#CECEF9" /><path d="M871.796364 760.909576l63.084606 79.747879 77.575757-34.75394-63.100121-79.763394-77.575758 34.769455z" fill="#CECEF9" /><path d="M934.88097 840.67297L745.580606 1023.363879l77.575758-34.769455 189.284848-182.706424-77.575757 34.78497z" fill="#CECEF9" /><path d="M745.580606 1023.379394L556.280242 784.073697l77.575758-34.769455 189.284848 239.274667-77.575757 34.769455z" fill="#CECEF9" /><path d="M556.280242 784.089212l63.084606-60.89697 77.575758-34.769454-63.084606 60.89697-77.575758 34.769454z" fill="#CECEF9" /><path d="M619.364848 723.192242l81.563152 103.098182 77.575758-34.784969-81.563152-103.082667-77.575758 34.769454zM700.928 826.290424l77.575758-34.784969-77.575758 34.784969zM235.768242 451.677091a128.977455 128.977455 0 0 0-52.596363 9.495273l77.575757-34.78497a128.930909 128.930909 0 0 1 52.596364-9.479758l-77.575758 34.769455z" fill="#CECEF9" /><path d="M183.171879 461.172364c-51.091394 20.96097-86.171152 74.705455-86.171152 142.770424l77.575758-34.78497c0-68.06497 35.064242-121.793939 86.171151-142.770424l-77.575757 34.78497zM97.000727 603.942788c0 96.116364 69.911273 184.506182 156.175515 197.383757l77.575758-34.769454c-86.264242-12.877576-156.175515-101.267394-156.175515-197.399273l-77.575758 34.78497z" fill="#CECEF9" /><path d="M253.176242 900.794182C117.635879 880.531394 7.757576 741.655273 7.757576 590.599758l77.575757-34.769455c0 151.055515 109.878303 289.931636 245.403152 310.178909l-77.575758 34.78497z" fill="#CECEF9" /><path d="M7.757576 590.599758c0-100.755394 48.872727-181.465212 121.638788-218.04994l77.575757-34.769454C134.206061 374.365091 85.333333 455.059394 85.333333 555.830303l-77.575757 34.769455z" fill="#CECEF9" /><path d="M129.396364 372.549818a198.749091 198.749091 0 0 1 58.662788-18.773333l77.575757-34.78497c-20.790303 3.258182-40.47903 9.634909-58.662788 18.773333l-77.575757 34.78497z" fill="#CECEF9" /><path d="M188.059152 353.76097c11.915636-127.658667 80.989091-227.669333 178.858666-275.704243l77.575758-34.784969c-97.869576 48.050424-166.94303 148.061091-178.843152 275.704242l-77.575757 34.78497z" fill="#CECEF9" /><path d="M366.933333 78.041212c55.047758-26.996364 119.202909-37.593212 187.423031-27.399757l77.575757-34.769455c-68.220121-10.193455-132.375273 0.387879-187.42303 27.399758l-77.575758 34.784969z" fill="#CECEF9" /><path d="M554.356364 50.641455c201.821091 30.161455 368.112485 231.501576 368.112484 452.856242l77.575758-34.769455c0-221.354667-166.291394-422.694788-368.112485-452.856242l-77.575757 34.769455z" fill="#CECEF9" /><path d="M833.225697 490.170182c0-163.172848-123.376485-316.819394-278.869333-340.061091l77.575757-34.769455c155.508364 23.226182 278.869333 176.872727 278.869334 340.045576l-77.575758 34.78497zM554.356364 150.109091c-43.535515-6.516364-84.557576-2.032485-121.064728 11.357091l77.575758-34.78497c36.507152-13.389576 77.529212-17.842424 121.064727-11.341576l-77.575757 34.769455z" fill="#CECEF9" /><path d="M433.291636 161.466182c-93.851152 34.443636-157.789091 127.844848-157.804606 245.294545l77.575758-34.753939c0-117.465212 63.953455-210.881939 157.804606-245.325576l-77.575758 34.78497z" fill="#CECEF9" /><path d="M275.48703 406.776242v0.046546l0.077576 45.909333-39.796364-1.05503c-78.041212-2.048-138.767515 62.696727-138.767515 152.265697 0 96.116364 69.911273 184.506182 156.175515 197.383757l290.024728 43.349334v99.452121L253.160727 900.809697C117.651394 880.546909 7.757576 741.655273 7.757576 590.599758c0-125.952 76.334545-220.563394 180.301576-236.838788C206.677333 154.298182 364.869818 22.341818 554.356364 50.641455c201.821091 30.161455 368.112485 231.501576 368.112484 452.856242l-89.243151-13.34303c0-163.157333-123.376485-316.819394-278.869333-340.045576-155.508364-23.241697-278.853818 93.525333-278.869334 256.667151z m425.44097 419.514182V569.856l89.243152 13.34303v256.465455l81.609696-78.754909 63.100122 79.747879L745.580606 1023.379394 556.280242 784.089212l63.084606-60.89697 81.563152 103.098182z" fill="#4E5969" /></svg>