<?xml version="1.0" standalone="no"?><!DOCTYPE svg PUBLIC "-//W3C//DTD SVG 1.1//EN" "http://www.w3.org/Graphics/SVG/1.1/DTD/svg11.dtd"><svg class="icon" width="200px" height="200.00px" viewBox="0 0 1024 1024" version="1.1" xmlns="http://www.w3.org/2000/svg"><path d="M355.5328 48.411569L111.474215 279.835569l78.769231-35.304369L434.302031 13.1072l-78.769231 35.304369zM111.474215 279.835569l61.014647 76.091077 78.76923-35.304369-61.014646-76.091077-78.769231 35.304369z" fill="#CECEF9" /><path d="M172.504615 355.926646L416.531692 124.502646l78.769231-35.288615-244.058585 231.424-78.76923 35.288615z" fill="#CECEF9" /><path d="M416.547446 124.502646l-61.014646-76.091077 78.769231-35.304369 61.014646 76.091077-78.769231 35.304369zM355.5328 48.411569l78.769231-35.304369-78.769231 35.304369zM508.061538 104.700062L50.475323 538.624l78.769231-35.320123L586.846523 69.395692l-78.769231 35.30437zM50.459569 639.070523l274.573785 342.409846 78.769231-35.304369L129.2288 603.766154l-78.769231 35.304369zM416.547446 995.170462L874.180923 561.230769l78.769231-35.320123-457.617723 433.923939-78.769231 35.304369zM874.180923 460.8L599.591385 118.358646l78.76923-35.304369 274.589539 342.409846-78.769231 35.304369z" fill="#CECEF9" /><path d="M599.591385 118.3744l78.76923-35.304369-78.76923 35.304369zM126.723938 600.253046l427.118277-404.999877 78.769231-35.304369L205.493169 564.932923l-78.769231 35.320123z" fill="#CECEF9" /><path d="M553.842215 195.253169l244.058585 304.364308 78.769231-35.304369-244.058585-304.364308-78.769231 35.304369z" fill="#CECEF9" /><path d="M797.9008 499.617477L370.798277 904.585846l78.769231-35.304369 427.086769-404.999877-78.769231 35.320123z" fill="#CECEF9" /><path d="M370.798277 904.617354L126.723938 600.253046l78.769231-35.320123 244.074339 304.364308-78.769231 35.320123z" fill="#CECEF9" /><path d="M126.723938 600.253046l78.769231-35.320123-78.769231 35.320123zM843.665723 657.140185L599.591385 888.564185l78.76923-35.30437 244.058585-231.424-78.769231 35.30437zM599.591385 888.564185l61.0304 76.091077 78.76923-35.30437-61.014646-76.091077-78.769231 35.30437z" fill="#CECEF9" /><path d="M660.621785 964.655262l244.058584-231.424 78.769231-35.30437-244.058585 231.424-78.76923 35.30437z" fill="#CECEF9" /><path d="M904.680369 733.231262l-61.014646-76.091077 78.769231-35.30437 61.014646 76.091077-78.769231 35.30437zM843.665723 657.140185l78.769231-35.30437-78.769231 35.30437zM370.798277 636.707446l78.769231-35.304369-78.769231 35.320123zM340.283077 699.124185l78.769231-35.30437-78.769231 35.30437zM599.591385 118.3744c-20.212185-25.206154-50.475323-34.185846-74.720493-24.481477l78.769231-35.304369c24.245169-9.704369 54.508308-0.740431 74.736246 24.481477l-78.769231 35.304369z" fill="#CECEF9" /><path d="M524.870892 93.892923a52.885662 52.885662 0 0 0-16.7936 10.807139l78.769231-35.320124c5.041231-4.789169 10.744123-8.381046 16.7936-10.791384l-78.769231 35.288615zM50.459569 538.624c-25.269169 23.945846-25.269169 68.938831 0 100.462277l78.769231-35.320123c-25.269169-31.507692-25.269169-76.500677 0-100.462277l-78.769231 35.320123zM325.033354 981.480369c20.212185 25.221908 50.491077 34.185846 74.720492 24.481477l78.769231-35.288615c-24.229415 9.672862-54.508308 0.724677-74.720492-24.497231l-78.769231 35.304369z" fill="#CECEF9" /><path d="M399.753846 1005.961846a52.854154 52.854154 0 0 0 16.7936-10.807138l78.769231-35.30437c-5.041231 4.789169-10.728369 8.381046-16.7936 10.807139l-78.769231 35.304369zM874.180923 561.246523c25.253415-23.9616 25.253415-68.938831 0-100.462277l78.769231-35.304369c25.253415 31.507692 25.253415 76.484923 0 100.446523l-78.769231 35.320123zM370.798277 636.707446c-20.227938-25.206154-50.491077-34.170092-74.720492-24.481477l78.76923-35.304369c24.229415-9.688615 54.508308-0.740431 74.720493 24.481477l-78.769231 35.304369z" fill="#CECEF9" /><path d="M296.062031 612.225969a52.885662 52.885662 0 0 0-16.7936 10.807139l78.769231-35.30437c5.041231-4.789169 10.744123-8.381046 16.7936-10.807138l-78.769231 35.304369z" fill="#CECEF9" /><path d="M279.268431 623.033108c-3.150769 2.993231-5.923446 6.317292-8.286523 9.909169l78.76923-35.304369c2.363077-3.591877 5.12-6.915938 8.286524-9.924923l-78.769231 35.320123z" fill="#CECEF9" /><path d="M270.966154 632.942277c-11.862646 17.975138-13.816123 42.519631-5.828923 65.1264l78.769231-35.304369c-7.9872-22.606769-6.033723-47.151262 5.828923-65.142154l-78.769231 35.320123z" fill="#CECEF9" /><path d="M265.137231 698.084431c3.150769 8.948185 7.861169 17.597046 14.1312 25.410954l78.769231-35.30437a86.866708 86.866708 0 0 1-14.146954-25.426707l-78.769231 35.320123z" fill="#CECEF9" /><path d="M279.268431 723.495385c20.227938 25.206154 50.491077 34.185846 74.720492 24.481477l78.769231-35.30437c-24.229415 9.688615-54.508308 0.724677-74.720492-24.481477l-78.769231 35.30437z" fill="#CECEF9" /><path d="M353.988923 747.992615a52.869908 52.869908 0 0 0 16.7936-10.822892l78.769231-35.304369c-5.041231 4.789169-10.728369 8.381046-16.7936 10.807138l-78.769231 35.30437zM370.798277 737.185477l78.769231-35.320123-78.769231 35.320123z" fill="#CECEF9" /><path d="M370.798277 737.169723c18.589538-17.628554 23.504738-46.631385 14.729846-73.286892l78.769231-35.320123c8.774892 26.655508 3.859692 55.674092-14.729846 73.302646l-78.769231 35.304369z" fill="#CECEF9" /><path d="M385.528123 663.867077a86.819446 86.819446 0 0 0-14.729846-27.159631l78.769231-35.304369c6.679631 8.333785 11.579077 17.597046 14.729846 27.159631l-78.769231 35.320123zM340.283077 699.124185c-1.339077 1.276062-2.835692 2.300062-4.411077 3.072l78.769231-35.30437c1.575385-0.787692 3.072-1.795938 4.411077-3.072l-78.769231 35.30437z" fill="#CECEF9" /><path d="M335.872 702.196185c-8.255015 4.048738-19.014892 1.197292-26.088369-7.624862l78.769231-35.320123c7.073477 8.822154 17.833354 11.689354 26.104123 7.640615l-78.769231 35.30437z" fill="#CECEF9" /><path d="M309.783631 694.571323a28.955569 28.955569 0 0 1-5.12-9.672861l78.769231-35.320124c1.039754 3.418585 2.741169 6.726892 5.12 9.672862l-78.769231 35.320123z" fill="#CECEF9" /><path d="M304.679385 684.898462c-2.6624-8.711877-0.945231-18.069662 5.104246-23.819816l78.769231-35.304369c-6.065231 5.7344-7.766646 15.107938-5.12 23.804061l-78.769231 35.320124z" fill="#CECEF9" /><path d="M309.783631 661.078646c1.339077-1.260308 2.835692-2.284308 4.411077-3.056246l78.76923-35.320123c-1.575385 0.771938-3.072 1.795938-4.411076 3.072l-78.769231 35.304369z" fill="#CECEF9" /><path d="M314.178954 658.006646c8.255015-4.048738 19.030646-1.181538 26.104123 7.640616l78.769231-35.320124c-7.089231-8.822154-17.849108-11.6736-26.104123-7.624861l-78.769231 35.304369z" fill="#CECEF9" /><path d="M340.283077 665.647262c2.111015 2.615138 3.6864 5.513846 4.726154 8.538584l78.769231-35.320123a28.924062 28.924062 0 0 0-4.726154-8.538585l-78.769231 35.320124z" fill="#CECEF9" /><path d="M345.009231 674.185846c3.166523 9.026954 1.591138 18.951877-4.726154 24.938339l78.769231-35.30437c6.317292-5.986462 7.892677-15.911385 4.726154-24.954092l-78.769231 35.320123z" fill="#CECEF9" /><path d="M355.5328 48.411569L111.474215 279.835569l61.014647 76.091077 244.058584-231.424-61.014646-76.091077zM599.591385 118.3744c-25.269169-31.507692-66.244923-37.651692-91.529847-13.674338L50.475323 538.624c-25.269169 23.945846-25.269169 68.938831 0 100.462277L325.033354 981.464615c25.269169 31.523446 66.244923 37.651692 91.529846 13.674339l457.601969-433.908185c25.269169-23.9616 25.269169-68.938831 0-100.462277L599.607138 118.3744zM126.723938 600.253046l427.118277-404.999877 244.058585 304.364308-427.102523 404.984123-244.074339-304.364308z m716.941785 56.887139L599.591385 888.564185l61.014646 76.091077 244.058584-231.424-61.014646-76.091077z m-472.867446-20.432739c-25.284923-31.507692-66.260677-37.635938-91.529846-13.674338-3.150769 2.993231-5.923446 6.317292-8.286523 9.924923-11.894154 17.959385-13.831877 42.503877-5.860431 65.1264 3.150769 8.948185 7.876923 17.597046 14.146954 25.410954 25.269169 31.507692 66.244923 37.651692 91.529846 13.674338 18.589538-17.628554 23.504738-46.631385 14.729846-73.286892a86.850954 86.850954 0 0 0-14.729846-27.159631zM340.283077 699.139938c-8.428308 7.9872-22.086892 5.954954-30.499446-4.552861a28.955569 28.955569 0 0 1-5.12-9.672862c-2.646646-8.711877-0.945231-18.069662 5.12-23.819815 8.412554-7.9872 22.071138-5.9392 30.499446 4.568615 2.111015 2.615138 3.6864 5.5296 4.726154 8.538585 3.166523 9.026954 1.591138 18.951877-4.726154 24.938338z" fill="#4E5969" /></svg>