<?xml version="1.0" standalone="no"?><!DOCTYPE svg PUBLIC "-//W3C//DTD SVG 1.1//EN" "http://www.w3.org/Graphics/SVG/1.1/DTD/svg11.dtd"><svg class="icon" width="200px" height="200.00px" viewBox="0 0 1024 1024" version="1.1" xmlns="http://www.w3.org/2000/svg"><path d="M469.690182 143.623758l77.575757-34.769455-77.575757 34.769455zM46.545455 464.058182l77.575757-34.78497-77.575757 34.78497zM546.816 451.801212l-105.022061 39.842909 77.575758-34.769454 105.022061-39.858425-77.575758 34.78497z" fill="#CECEF9" /><path d="M441.793939 491.644121l-49.012363 111.709091 77.575757-34.78497 49.027879-111.70909-77.575757 34.784969z" fill="#CECEF9" /><path d="M392.781576 603.337697l105.02206-39.842909 77.575758-34.78497-105.022061 39.858424-77.575757 34.769455z" fill="#CECEF9" /><path d="M497.803636 563.494788l49.012364-111.709091 77.575758-34.753939-49.012364 111.67806-77.575758 34.78497zM546.800485 451.801212l77.575757-34.78497-77.575757 34.78497zM667.772121 402.866424L561.493333 645.182061l77.575758-34.769455 106.309818-242.300121-77.575757 34.769454z" fill="#CECEF9" /><path d="M561.477818 645.166545l-227.80897 86.450425 77.575758-34.78497 227.80897-86.434909-77.575758 34.769454zM271.809939 652.25697l106.309819-242.284606 77.575757-34.78497L349.385697 617.50303l-77.575758 34.769455z" fill="#CECEF9" /><path d="M378.104242 409.972364l227.80897-86.450425 77.575758-34.769454-227.793455 86.434909-77.575757 34.78497zM605.928727 323.521939l77.575758-34.769454-77.575758 34.769454zM469.690182 143.623758c-52.348121-7.819636-101.934545-1.753212-146.152727 15.670303l77.575757-34.769455c44.218182-17.43903 93.804606-23.489939 146.152727-15.670303l-77.575757 34.769455z" fill="#CECEF9" /><path d="M323.521939 159.294061c-113.788121 44.838788-192.341333 164.848485-192.341333 317.408969l77.575758-34.784969c0-152.54497 78.553212-272.570182 192.341333-317.393455l-77.575758 34.769455zM131.180606 476.70303c0 211.890424 151.552 406.295273 338.509576 434.238061l77.575757-34.78497c-186.957576-27.927273-338.509576-222.332121-338.509575-434.23806l-77.575758 34.784969z" fill="#CECEF9" /><path d="M469.690182 910.941091c52.348121 7.819636 101.91903 1.753212 146.152727-15.670303l77.575758-34.78497c-44.233697 17.43903-93.804606 23.489939-146.152728 15.670303l-77.575757 34.78497z" fill="#CECEF9" /><path d="M615.858424 895.270788c113.772606-44.838788 192.341333-164.848485 192.341334-317.40897l77.575757-34.769454c0 152.560485-78.568727 272.570182-192.341333 317.408969l-77.575758 34.75394zM808.199758 577.861818c0-211.874909-151.552-406.295273-338.509576-434.23806l77.575757-34.769455c186.957576 27.927273 338.509576 222.347636 338.509576 434.238061l-77.575757 34.769454zM46.545455 464.058182C46.545455 283.927273 134.144 140.101818 263.695515 77.498182l77.575758-34.769455C211.719758 105.347879 124.121212 249.173333 124.121212 429.273212L46.545455 464.058182z" fill="#CECEF9" /><path d="M263.695515 77.498182c60.95903-29.478788 131.211636-40.96 205.994667-29.789091l77.575757-34.769455c-74.78303-11.170909-145.035636 0.310303-205.994666 29.789091l-77.575758 34.769455zM469.690182 47.709091C703.379394 82.633697 892.834909 325.66303 892.834909 590.506667l77.575758-34.769455c0-264.843636-189.44-507.87297-423.144728-542.797576l-77.575757 34.769455z" fill="#CECEF9" /><path d="M892.834909 590.506667c0 180.115394-87.598545 323.940848-217.150061 386.56l77.575758-34.769455c129.551515-62.634667 217.150061-206.460121 217.150061-386.56l-77.575758 34.769455z" fill="#CECEF9" /><path d="M675.684848 977.066667c-60.974545 29.478788-131.211636 40.96-205.994666 29.789091l77.575757-34.78497c74.78303 11.170909 145.035636-0.310303 205.994667-29.789091l-77.575758 34.78497z" fill="#CECEF9" /><path d="M469.690182 1006.855758C235.985455 971.931152 46.545455 728.901818 46.545455 464.058182l77.575757-34.78497C124.121212 694.147879 313.561212 937.146182 547.265939 972.070788l-77.575757 34.78497zM605.928727 323.521939c39.39297-14.941091 80.244364 37.453576 61.858909 79.36l77.575758-34.784969c18.385455-41.890909-22.465939-94.301091-61.858909-79.344485l-77.575758 34.769454z" fill="#CECEF9" /><path d="M333.668848 731.61697c-39.39297 14.941091-80.244364-37.453576-61.858909-79.36l77.575758-34.769455c-18.385455 41.890909 22.465939 94.301091 61.858909 79.36l-77.575758 34.769455z" fill="#CECEF9" /><path d="M469.690182 143.623758c-186.957576-27.927273-338.509576 121.173333-338.509576 333.079272 0 211.874909 151.552 406.295273 338.509576 434.238061 186.957576 27.927273 338.509576-121.188848 338.509576-333.079273S656.647758 171.566545 469.690182 143.623758zM46.545455 464.058182C46.545455 199.183515 235.985455 12.784485 469.690182 47.709091 703.379394 82.633697 892.834909 325.66303 892.834909 590.506667c0 264.859152-189.44 451.258182-423.144727 416.333575C235.985455 971.931152 46.545455 728.901818 46.545455 464.058182z m500.25503-12.25697l-105.006546 39.842909-49.012363 111.693576 105.02206-39.858424 48.996849-111.693576z m59.112727-128.279273c39.408485-14.956606 80.244364 37.453576 61.874424 79.344485l-106.309818 242.300121-227.80897 86.450425c-39.39297 14.941091-80.244364-37.469091-61.858909-79.36l106.309819-242.300122 227.808969-86.434909z" fill="#4E5969" /></svg>