<?xml version="1.0" standalone="no"?><!DOCTYPE svg PUBLIC "-//W3C//DTD SVG 1.1//EN" "http://www.w3.org/Graphics/SVG/1.1/DTD/svg11.dtd"><svg class="icon" width="200px" height="183.84px" viewBox="0 0 1114 1024" version="1.1" xmlns="http://www.w3.org/2000/svg"><path d="M84.901647 414.569412L0 401.904941l75.294118-33.746823 84.901647 12.679529-75.294118 33.746824z" fill="#CECEF9" /><path d="M0 401.889882l125.997176 158.704942 75.294118-33.746824L75.294118 368.128l-75.294118 33.761882z" fill="#CECEF9" /><path d="M125.997176 560.594824l125.997177-121.042824 75.294118-33.761882-125.997177 121.057882-75.294118 33.731765z" fill="#CECEF9" /><path d="M252.009412 439.552l-80.097883-11.971765 75.294118-33.746823 80.097882 11.956706-75.294117 33.761882zM820.133647 391.137882l76.197647-34.017882 75.294118-33.746824-76.197647 34.017883-75.294118 33.746823zM84.901647 414.569412l75.294118-33.731765-75.294118 33.731765zM463.555765 303.149176l103.152941 15.420236 75.294118-33.746824-103.152942-15.420235-75.294117 33.746823z" fill="#CECEF9" /><path d="M566.708706 318.569412l140.242823 436.103529 75.294118-33.731765-140.242823-436.118588-75.294118 33.746824z" fill="#CECEF9" /><path d="M706.951529 754.688l-80.971294 21.594353 75.294118-33.746824 80.971294-21.609411-75.294118 33.761882z" fill="#CECEF9" /><path d="M625.980235 776.282353l-46.230588-143.751529 75.294118-33.761883 46.230588 143.766588-75.294118 33.746824z" fill="#CECEF9" /><path d="M579.749647 632.530824l-129.234823-19.320471 75.294117-33.746824 129.234824 19.305412-75.294118 33.761883z" fill="#CECEF9" /><path d="M450.514824 613.210353l-46.230589 129.957647 75.294118-33.761882 46.230588-129.957647-75.294117 33.761882z" fill="#CECEF9" /><path d="M404.284235 743.152941l-80.971294-45.778823 75.294118-33.761883 80.971294 45.778824-75.294118 33.761882zM323.312941 697.374118l140.242824-394.224942 75.294117-33.746823-140.242823 394.209882-75.294118 33.746824zM463.555765 303.149176l75.294117-33.746823-75.294117 33.746823zM482.936471 522.059294l64.391529 9.622588 75.294118-33.761882-64.39153-9.622588-75.294117 33.761882z" fill="#CECEF9" /><path d="M547.328 531.681882l-32.195765-100.126117 75.294118-33.746824 32.195765 100.111059-75.294118 33.761882z" fill="#CECEF9" /><path d="M515.132235 431.555765l-32.195764 90.503529 75.294117-33.761882 32.195765-90.488471-75.294118 33.746824zM482.936471 522.059294l75.294117-33.761882-75.294117 33.761882zM904.267294 493.146353l125.997177 158.689882 75.294117-33.731764-125.997176-158.72-75.294118 33.761882z" fill="#CECEF9" /><path d="M1030.264471 651.836235l-84.901647-12.679529 75.294117-33.746824 84.901647 12.67953-75.294117 33.746823zM133.933176 696.621176l76.197648-34.032941 75.294117-33.746823-76.197647 34.032941-75.294118 33.731765zM858.352941 626.145882l-80.097882-11.956706 75.294117-33.761882L933.647059 592.414118l-75.294118 33.761882z" fill="#CECEF9" /><path d="M778.255059 614.189176l126.012235-121.042823 75.294118-33.761882-126.012236 121.042823-75.294117 33.761882zM904.267294 493.146353l75.294118-33.761882-75.294118 33.761882zM171.911529 427.580235c13.613176-119.205647 78.140235-213.232941 169.065412-258.590117l75.294118-33.761883c-90.925176 45.357176-155.452235 139.399529-169.065412 258.605177l-75.294118 33.746823z" fill="#CECEF9" /><path d="M340.976941 168.990118c51.154824-25.509647 110.652235-35.614118 174.155294-26.127059l75.294118-33.761883c-63.503059-9.487059-123.000471 0.617412-174.155294 26.127059l-75.294118 33.761883z" fill="#CECEF9" /><path d="M515.132235 142.863059c131.900235 19.712 246.618353 118.784 305.001412 248.274823l75.294118-33.731764c-58.383059-129.505882-173.101176-228.592941-305.001412-248.304942l-75.294118 33.761883z" fill="#CECEF9" /><path d="M896.331294 357.12C823.491765 195.553882 680.131765 71.529412 515.132235 46.863059l75.294118-33.761883c164.999529 24.666353 308.359529 148.705882 381.199059 310.272l-75.294118 33.746824z" fill="#CECEF9" /><path d="M515.132235 46.863059c-71.740235-10.721882-139.399529-1.430588-198.957176 23.988706l75.294117-33.746824C451.011765 11.670588 518.686118 2.379294 590.426353 13.101176l-75.294118 33.761883z" fill="#CECEF9" /><path d="M316.175059 70.851765C189.590588 124.897882 99.644235 251.828706 84.901647 414.569412l75.294118-33.731765c14.757647-162.755765 104.704-289.701647 231.273411-343.732706l-75.294117 33.746824zM945.362824 639.156706c-13.884235 153.178353-94.388706 274.627765-209.317648 333.43247l75.294118-33.746823c114.928941-58.819765 195.433412-180.254118 209.317647-333.432471l-75.294117 33.746824z" fill="#CECEF9" /><path d="M736.045176 972.589176c-64.662588 33.084235-140.197647 46.351059-220.912941 34.288942l75.294118-33.761883c80.715294 12.062118 156.265412-1.204706 220.912941-34.273882l-75.294118 33.746823z" fill="#CECEF9" /><path d="M515.132235 1006.878118C350.132706 982.211765 206.772706 858.172235 133.933176 696.621176l75.294118-33.761882c72.839529 161.566118 216.199529 285.605647 381.199059 310.256941l-75.294118 33.761883z" fill="#CECEF9" /><path d="M210.130824 662.588235c58.383059 129.505882 173.101176 228.577882 305.001411 248.289883l75.294118-33.761883c-131.900235-19.712-246.618353-118.784-305.001412-248.274823l-75.294117 33.746823z" fill="#CECEF9" /><path d="M515.132235 910.878118c56.440471 8.432941 109.733647 1.385412 156.792471-18.206118l75.294118-33.746824c-47.058824 19.576471-100.352 26.624-156.792471 18.191059l-75.294118 33.761883z" fill="#CECEF9" /><path d="M671.924706 892.687059c100.020706-41.637647 171.971765-139.881412 186.428235-266.541177l75.294118-33.731764c-14.456471 126.644706-86.407529 224.888471-186.428235 266.511058l-75.294118 33.746824z" fill="#CECEF9" /><path d="M84.901647 414.569412L0 401.904941l125.997176 158.704941 125.997177-121.042823-80.082824-11.971765C193.204706 241.332706 338.748235 116.510118 515.132235 142.863059c131.900235 19.712 246.618353 118.784 305.001412 248.274823l76.197647-34.017882C823.491765 195.568941 680.131765 71.529412 515.132235 46.863059 290.936471 13.357176 106.586353 175.239529 84.901647 414.569412z m378.654118-111.420236l103.152941 15.420236 140.242823 436.103529-80.971294 21.609412-46.230588-143.751529-129.234823-19.320471-46.230589 129.957647-80.971294-45.808941 140.242824-394.194824z m19.380706 218.910118l64.391529 9.622588-32.195765-100.126117-32.195764 90.503529z m421.330823-28.912941l125.997177 158.704941-84.901647-12.694588c-21.684706 239.329882-206.034824 401.227294-430.230589 367.721412-164.999529-24.666353-308.359529-148.705882-381.199059-310.256942l76.197648-34.032941c58.383059 129.505882 173.101176 228.577882 305.001411 248.289883C691.516235 937.231059 837.074824 812.408471 858.352941 626.145882l-80.097882-11.971764 126.012235-121.042824z" fill="#4E5969" /></svg>