<?xml version="1.0" standalone="no"?><!DOCTYPE svg PUBLIC "-//W3C//DTD SVG 1.1//EN" "http://www.w3.org/Graphics/SVG/1.1/DTD/svg11.dtd"><svg class="icon" width="200px" height="200.00px" viewBox="0 0 1024 1024" version="1.1" xmlns="http://www.w3.org/2000/svg"><path d="M405.696928 256.51942v94.96487l74.202898-33.27258v-94.964869l-74.202898 33.272579zM405.696928 351.48429l129.869913 19.396638 74.202898-33.25774-129.869913-19.411478-74.202898 33.27258z" fill="#CECEF9" /><path d="M535.566841 370.880928v-94.950029l74.202898-33.27258v94.964869l-74.202898 33.25774zM708.741565 491.727768l-86.579942-12.940985 74.202899-33.27258 86.579942 12.940985-74.202899 33.27258z" fill="#CECEF9" /><path d="M622.161623 478.786783v142.439884l74.202899-33.257739V445.514203l-74.202899 33.27258z" fill="#CECEF9" /><path d="M622.161623 621.226667l86.579942 12.940985 74.202899-33.257739-86.579942-12.940985-74.202899 33.257739zM535.566841 798.21542v-94.964869l74.202898-33.257739v94.964869l-74.202898 33.257739z" fill="#CECEF9" /><path d="M535.566841 703.250551l-129.869913-19.396638 74.202898-33.27258 129.869913 19.411479-74.202898 33.257739z" fill="#CECEF9" /><path d="M405.696928 683.853913v94.950029l74.202898-33.257739v-94.96487l-74.202898 33.27258zM232.522203 563.007072l86.594783 12.940986 74.202898-33.257739-86.579942-12.940986-74.202899 33.257739z" fill="#CECEF9" /><path d="M319.116986 575.948058V433.493333l74.202898-33.272579v142.454724l-74.202898 33.242899z" fill="#CECEF9" /><path d="M319.116986 433.493333l-86.594783-12.926145 74.202898-33.272579 86.594783 12.940985-74.202898 33.27258zM59.362319 204.770319l74.202898-33.27258-74.202898 33.27258zM319.116986 338.543304v-94.964869l74.202898-33.257739v94.950029l-74.202898 33.272579z" fill="#CECEF9" /><path d="M232.522203 325.602319l86.594783 12.940985 74.202898-33.272579-86.579942-12.940986-74.202899 33.27258zM319.116986 338.543304l74.202898-33.272579-74.202898 33.272579zM405.696928 446.434319v142.454724l74.202898-33.272579v-142.439884l-74.202898 33.257739z" fill="#CECEF9" /><path d="M405.696928 588.874203l129.869913 19.411478 74.202898-33.257739-129.869913-19.411478-74.202898 33.272579z" fill="#CECEF9" /><path d="M535.566841 608.285681V465.845797l74.202898-33.257739v142.439884l-74.202898 33.257739zM535.566841 465.845797l-129.869913-19.411478 74.202898-33.242899 129.869913 19.396638-74.202898 33.257739zM405.696928 446.434319l74.202898-33.242899-74.202898 33.242899zM319.116986 670.912928l-86.594783-12.940986 74.202898-33.27258 86.594783 12.940986-74.202898 33.27258z" fill="#CECEF9" /><path d="M319.116986 765.877797v-94.97971l74.202898-33.242899v94.950029l-74.202898 33.27258zM319.116986 670.912928l74.202898-33.27258-74.202898 33.27258zM622.161623 716.191536v94.96487l74.202899-33.27258v-94.950029l-74.202899 33.257739z" fill="#CECEF9" /><path d="M708.741565 729.117681l-86.579942-12.926145 74.202899-33.257739 86.579942 12.926145-74.202899 33.27258zM622.161623 716.191536l74.202899-33.257739-74.202899 33.257739zM622.161623 383.821913l86.579942 12.940986 74.202899-33.25774-86.579942-12.940985-74.202899 33.257739z" fill="#CECEF9" /><path d="M622.161623 288.857043v94.979711l74.202899-33.27258v-94.97971l-74.202899 33.272579zM622.161623 383.821913l74.202899-33.257739-74.202899 33.257739zM59.362319 204.770319C59.362319 133.416812 95.217159 76.651594 148.22771 52.090435l74.202899-33.257739C169.420058 43.393855 133.565217 100.173913 133.565217 171.497739l-74.202898 33.27258z" fill="#CECEF9" /><path d="M148.22771 52.105275c24.932174-11.545971 53.693217-15.968464 84.294493-11.382724l74.202898-33.27258c-30.601275-4.570899-59.362319-0.148406-84.294492 11.397565l-74.202899 33.257739zM232.522203 40.722551c95.647536 14.291478 173.174725 110.903652 173.174725 215.782029l74.202898-33.242899c0-104.893217-77.527188-201.520232-173.159884-215.81171l-74.202899 33.27258zM535.566841 275.930899c0-71.338667 35.854841-128.118725 88.865391-152.665044l74.202898-33.27258c-53.010551 24.546319-88.865391 81.326377-88.865391 152.665044l-74.202898 33.27258z" fill="#CECEF9" /><path d="M624.447072 123.265855c24.932174-11.545971 53.693217-15.968464 84.294493-11.397565l74.202899-33.257739c-30.601275-4.570899-59.362319-0.148406-84.294493 11.382724l-74.202899 33.27258zM708.741565 111.88313c95.632696 14.291478 173.159884 110.903652 173.159884 215.782029l74.202899-33.242898c0-104.893217-77.527188-201.520232-173.159884-215.81171l-74.202899 33.272579z" fill="#CECEF9" /><path d="M881.901449 327.68c0 71.323826-35.84 128.118725-88.85055 152.650203l74.202898-33.257739c53.010551-24.546319 88.850551-81.326377 88.850551-152.665044l-74.202899 33.27258z" fill="#CECEF9" /><path d="M793.036058 480.330203c-24.932174 11.560812-53.693217 15.968464-84.294493 11.397565l74.202899-33.27258c30.601275 4.585739 59.362319 0.163246 84.294493-11.382724l-74.202899 33.257739zM708.741565 634.167652c95.632696 14.291478 173.159884 110.918493 173.159884 215.79687l74.202899-33.257739c0-104.893217-77.527188-201.505391-173.159884-215.79687l-74.202899 33.257739zM881.901449 849.964522c0 71.338667-35.84 128.118725-88.85055 152.665043l74.202898-33.257739c53.010551-24.546319 88.850551-81.326377 88.850551-152.665043l-74.202899 33.257739z" fill="#CECEF9" /><path d="M793.036058 1002.629565c-24.932174 11.545971-53.693217 15.968464-84.294493 11.382725l74.202899-33.257739c30.601275 4.570899 59.362319 0.148406 84.294493-11.382725l-74.202899 33.257739zM708.741565 1014.01229c-95.632696-14.291478-173.174725-110.903652-173.174724-215.782029l74.202898-33.27258c0 104.893217 77.542029 201.505391 173.174725 215.79687l-74.202899 33.257739zM405.696928 778.803942c0 71.338667-35.84 128.118725-88.865392 152.665044l74.202899-33.25774c53.025391-24.546319 88.865391-81.326377 88.865391-152.665043l-74.202898 33.257739z" fill="#CECEF9" /><path d="M316.831536 931.468986c-24.947014 11.560812-53.693217 15.968464-84.294493 11.382724l74.202899-33.242898c30.601275 4.556058 59.347478 0.148406 84.294493-11.397566l-74.202899 33.25774z" fill="#CECEF9" /><path d="M232.537043 942.85171C136.889507 928.575072 59.362319 831.962899 59.362319 727.069681l74.202898-33.27258c0 104.893217 77.527188 201.505391 173.174725 215.79687l-74.202899 33.27258zM59.362319 727.054841c0-71.323826 35.854841-128.118725 88.865391-152.650203l74.202899-33.27258C169.420058 565.678377 133.565217 622.458435 133.565217 693.797101L59.362319 727.04z" fill="#CECEF9" /><path d="M148.22771 574.404638c24.932174-11.560812 53.693217-15.968464 84.294493-11.397566l74.202898-33.257739c-30.601275-4.570899-59.362319-0.163246-84.294492 11.382725l-74.202899 33.27258zM232.537043 420.567188C136.889507 406.27571 59.362319 309.663536 59.362319 204.770319l74.202898-33.27258c0 104.893217 77.527188 201.520232 173.174725 215.79687l-74.202899 33.272579zM319.116986 243.578435c0-52.446609-38.763594-100.767536-86.594783-107.891015l74.202898-33.272579c47.831188 7.138319 86.594783 55.444406 86.594783 107.891014l-74.202898 33.27258zM232.537043 135.67258a74.262261 74.262261 0 0 0-37.39826 3.710145l74.202898-33.27258a74.262261 74.262261 0 0 1 37.398261-3.710145l-74.202899 33.27258z" fill="#CECEF9" /><path d="M195.153623 139.382725c-29.102377 10.952348-49.211362 40.559304-49.211362 78.313739l74.202898-33.257739c0-37.754435 20.108986-67.376232 49.211363-78.32858l-74.202899 33.27258z" fill="#CECEF9" /><path d="M145.942261 217.711304c0 52.431768 38.778435 100.752696 86.594782 107.891015l74.202899-33.257739c-47.816348-7.153159-86.594783-55.459246-86.594783-107.905855l-74.202898 33.257739zM232.537043 657.971942a74.262261 74.262261 0 0 0-37.39826 3.710145l74.202898-33.27258a74.262261 74.262261 0 0 1 37.398261-3.710145l-74.202899 33.27258z" fill="#CECEF9" /><path d="M195.153623 661.667246c-29.102377 10.952348-49.211362 40.574145-49.211362 78.32858l74.202898-33.257739c0-37.769275 20.108986-67.376232 49.211363-78.32858l-74.202899 33.257739z" fill="#CECEF9" /><path d="M145.942261 739.995826c0 52.446609 38.778435 100.767536 86.594782 107.891015l74.202899-33.242899c-47.816348-7.153159-86.594783-55.459246-86.594783-107.905855l-74.202898 33.257739z" fill="#CECEF9" /><path d="M232.522203 847.901681a74.262261 74.262261 0 0 0 37.398261-3.710145l74.202898-33.242898a74.262261 74.262261 0 0 1-37.398261 3.680463l-74.202898 33.27258z" fill="#CECEF9" /><path d="M269.920464 844.206377c29.102377-10.967188 49.196522-40.574145 49.196522-78.32858l74.202898-33.27258c0 37.769275-20.094145 67.376232-49.196522 78.32858l-74.202898 33.27258zM622.161623 811.156406c0 52.446609 38.763594 100.767536 86.579942 107.891014l74.202899-33.242898c-47.816348-7.153159-86.579942-55.474087-86.579942-107.920696l-74.202899 33.27258z" fill="#CECEF9" /><path d="M708.741565 919.062261a74.262261 74.262261 0 0 0 37.383421-3.710145l74.202898-33.257739a74.277101 74.277101 0 0 1-37.398261 3.710145l-74.202898 33.242898z" fill="#CECEF9" /><path d="M746.124986 915.366957c29.102377-10.967188 49.211362-40.574145 49.211362-78.32858l74.202898-33.27258c0 37.769275-20.108986 67.376232-49.211362 78.32858l-74.202898 33.257739zM795.321507 837.023536c0-52.446609-38.763594-100.752696-86.579942-107.891014l74.202899-33.27258c47.816348 7.153159 86.579942 55.459246 86.579942 107.905855l-74.202899 33.27258zM708.741565 396.762899a74.262261 74.262261 0 0 0 37.383421-3.710145l74.202898-33.242899a74.277101 74.277101 0 0 1-37.398261 3.695304l-74.202898 33.25774z" fill="#CECEF9" /><path d="M746.124986 393.067594c29.102377-10.952348 49.211362-40.559304 49.211362-78.32858l74.202898-33.257739c0 37.754435-20.108986 67.376232-49.211362 78.313739l-74.202898 33.27258zM795.321507 314.739014c0-52.446609-38.763594-100.767536-86.579942-107.891014l74.202899-33.27258c47.816348 7.138319 86.579942 55.444406 86.579942 107.891015l-74.202899 33.272579zM708.741565 206.833159a74.262261 74.262261 0 0 0-37.398261 3.710145l74.202899-33.272579a74.277101 74.277101 0 0 1 37.398261-3.710145l-74.202899 33.272579z" fill="#CECEF9" /><path d="M671.358145 210.543304c-29.102377 10.952348-49.196522 40.559304-49.196522 78.313739l74.202899-33.257739c0-37.754435 20.094145-67.376232 49.196521-78.328579l-74.202898 33.272579z" fill="#CECEF9" /><path d="M59.362319 204.770319C59.362319 99.877101 136.889507 26.416232 232.537043 40.722551c95.632696 14.291478 173.159884 110.903652 173.159885 215.782029v94.97971l129.884753 19.396638v-94.950029c0-104.893217 77.527188-178.339246 173.159884-164.047769 95.632696 14.276638 173.174725 110.903652 173.174725 215.782029 0 104.908058-77.542029 178.354087-173.174725 164.062609l-86.579942-12.940985v142.439884l86.579942 12.940985c95.632696 14.291478 173.174725 110.903652 173.174725 215.79687 0 104.893217-77.542029 178.339246-173.174725 164.047768-95.632696-14.276638-173.159884-110.903652-173.159884-215.782029v-94.97971l-129.884753-19.396638v94.950029c0 104.893217-77.527188 178.354087-173.159885 164.047768C136.889507 928.575072 59.362319 831.962899 59.362319 727.069681c0-104.908058 77.527188-178.354087 173.174724-164.062609l86.579943 12.940986v-142.439884l-86.579943-12.940986C136.889507 406.27571 59.362319 309.663536 59.362319 204.770319z m259.754667 133.772985v-94.964869c0-52.446609-38.763594-100.767536-86.579943-107.891015-47.831188-7.153159-86.594783 29.562435-86.594782 82.009044s38.763594 100.767536 86.594782 107.905855l86.579943 12.940985z m86.579942 107.891015v142.454724l129.884753 19.411479V465.845797l-129.884753-19.411478z m-86.579942 224.478609l-86.579943-12.940986c-47.831188-7.138319-86.594783 29.577275-86.594782 82.023884s38.763594 100.767536 86.594782 107.891015c47.816348 7.153159 86.579942-29.562435 86.579943-82.009044v-94.97971z m303.044637 45.278608v94.96487c0 52.446609 38.763594 100.767536 86.579942 107.891014 47.816348 7.153159 86.579942-29.562435 86.579942-82.009043s-38.763594-100.767536-86.579942-107.905855l-86.579942-12.940986z m0-332.369623l86.579942 12.940986c47.816348 7.153159 86.579942-29.577275 86.579942-82.023885s-38.763594-100.767536-86.579942-107.891014c-47.816348-7.153159-86.579942 29.562435-86.579942 82.009043v94.979711z" fill="#4E5969" /></svg>