<?xml version="1.0" standalone="no"?><!DOCTYPE svg PUBLIC "-//W3C//DTD SVG 1.1//EN" "http://www.w3.org/Graphics/SVG/1.1/DTD/svg11.dtd"><svg class="icon" width="200px" height="200.00px" viewBox="0 0 1024 1024" version="1.1" xmlns="http://www.w3.org/2000/svg"><path d="M850.381521 140.836056L554.546479 96.630986l72.112676-32.335324 295.82062 44.20507-72.112676 32.335324z" fill="#CECEF9" /><path d="M554.546479 96.630986v92.376338l72.112676-32.320901V64.295662l-72.112676 32.335324z" fill="#CECEF9" /><path d="M554.546479 189.007324l161.128563 24.085634 72.112676-32.335324-161.128563-24.085634-72.112676 32.335324z" fill="#CECEF9" /><path d="M715.675042 213.092958L385.13938 550.883155l72.112676-32.320901 330.535662-337.80462-72.112676 32.335324z" fill="#CECEF9" /><path d="M385.13938 550.883155l55.815212 73.655887 72.112676-32.320901-55.815212-73.655887-72.112676 32.320901z" fill="#CECEF9" /><path d="M440.954592 624.539042L771.490254 286.72l72.112676-32.320901-330.535662 337.819042-72.112676 32.320901z" fill="#CECEF9" /><path d="M771.490254 286.72v188.762141l72.112676-32.320902V254.399099l-72.112676 32.320901zM771.490254 475.482141l78.891267 11.797634 72.112676-32.335324-78.891267-11.783212-72.112676 32.320902z" fill="#CECEF9" /><path d="M850.381521 487.279775V140.836056l72.112676-32.335324v346.443719l-72.112676 32.335324zM850.381521 140.836056l72.112676-32.335324-72.112676 32.335324zM436.224 171.339718L179.849014 133.00462l72.112676-32.320902 256.374986 38.306254-72.112676 32.320901z" fill="#CECEF9" /><path d="M179.849014 133.019042v692.887437l72.112676-32.320902V100.698141l-72.112676 32.320901z" fill="#CECEF9" /><path d="M179.849014 825.906479l591.64124 88.410141 72.112676-32.320902-591.64124-88.410141-72.112676 32.320902z" fill="#CECEF9" /><path d="M771.490254 914.31662V614.068282l72.112676-32.335324v300.26276l-72.112676 32.320902z" fill="#CECEF9" /><path d="M771.490254 614.068282l78.891267 11.783211 72.112676-32.320901-78.891267-11.797634-72.112676 32.335324z" fill="#CECEF9" /><path d="M850.381521 625.851493v323.353239l72.112676-32.335324v-323.353239l-72.112676 32.335324zM791.220282 1009.649577L160.104563 915.34062l72.112676-32.320902 631.086874 94.308958-72.112676 32.320901zM100.957746 837.228169V98.116507l72.112677-32.320901v739.082817l-72.112677 32.320901zM160.118986 37.686085l276.105014 41.24845 72.112676-32.306479L232.231662 5.350761l-72.112676 32.320901z" fill="#CECEF9" /><path d="M436.224 78.948958v92.376338l72.112676-32.320902V46.613634l-72.112676 32.335324z" fill="#CECEF9" /><path d="M436.224 171.339718l72.112676-32.335324-72.112676 32.320902zM850.381521 949.204732c0 26.018254-12.23031 46.873239-30.345014 56.002705l72.112676-32.320902c18.114704-9.143887 30.345014-29.998873 30.345014-56.017127l-72.112676 32.335324z" fill="#CECEF9" /><path d="M820.036507 1005.207437a47.666479 47.666479 0 0 1-28.830648 4.44214l72.112676-32.320901a47.666479 47.666479 0 0 0 28.845071-4.442141l-72.112676 32.320902zM160.118986 915.34062C127.379831 910.45138 100.957746 875.491155 100.957746 837.228169l72.112677-32.320901c0 38.262986 26.422085 73.237634 59.161239 78.126873l-72.112676 32.320901zM100.957746 98.13093C100.957746 72.112676 113.173634 51.25769 131.288338 42.128225l72.112676-32.320901C185.28631 18.936789 173.070423 39.777352 173.070423 65.810028L100.957746 98.13093z" fill="#CECEF9" /><path d="M131.288338 42.128225a47.652056 47.652056 0 0 1 28.84507-4.44214l72.112677-32.320902a47.652056 47.652056 0 0 0-28.845071 4.442141l-72.112676 32.320901z" fill="#CECEF9" /><path d="M850.381521 140.836056L554.546479 96.630986v92.376338l161.128563 24.085634-330.535662 337.790197 55.815212 73.655887L771.490254 286.72v188.762141l78.891267 11.797634V140.836056z m-414.157521 30.48924L179.849014 133.019042v692.887437l591.64124 88.410141V614.068282l78.891267 11.783211v323.353239c0 38.262986-26.436507 65.334085-59.175662 60.444845L160.118986 915.34062C127.379831 910.45138 100.957746 875.491155 100.957746 837.228169V98.13093c0-38.262986 26.422085-65.334085 59.16124-60.430423l276.105014 41.248451v92.376338z" fill="#4E5969" /></svg>