<?xml version="1.0" standalone="no"?><!DOCTYPE svg PUBLIC "-//W3C//DTD SVG 1.1//EN" "http://www.w3.org/Graphics/SVG/1.1/DTD/svg11.dtd"><svg class="icon" width="200px" height="200.00px" viewBox="0 0 1024 1024" version="1.1" xmlns="http://www.w3.org/2000/svg"><path d="M642.912 39.696l240.496 291.52 80-35.856L722.912 3.84l-80 35.856z" fill="#CECEF9" /><path d="M883.408 331.216L642.912 550.88l80-35.872L963.408 295.36l-80 35.856z" fill="#CECEF9" /><path d="M642.912 550.848L577.6 471.712l80-35.872 65.312 79.168-80 35.872zM577.6 471.68l122.96-112.304 80-35.856-122.96 112.32-80 35.84zM173.504 624.864L82.08 597.072l80-35.856 91.424 27.792-80 35.856zM711.2 261.28L577.6 99.36l80-35.872 133.6 161.92-80 35.872z" fill="#CECEF9" /><path d="M577.6 99.36l65.312-59.664 80-35.856L657.6 63.488l-80 35.856zM642.912 39.696l80-35.856-80 35.856zM148.384 810.384v-98.176l80-35.856v98.16l-80 35.872z" fill="#CECEF9" /><path d="M148.384 712.208L56 698.416l80-35.872 92.384 13.808-80 35.856z" fill="#CECEF9" /><path d="M56 698.4v196.352l80-35.872V662.56l-80 35.84z" fill="#CECEF9" /><path d="M56 894.752l831.392 124.224 80-35.856L136 858.88l-80 35.872z" fill="#CECEF9" /><path d="M887.392 1018.976v-196.32l80-35.872v196.32l-80 35.872zM887.392 822.64l-92.384-13.792 80-35.872 92.384 13.808-80 35.856z" fill="#CECEF9" /><path d="M795.008 808.848v98.16l80-35.872v-98.16l-80 35.872z" fill="#CECEF9" /><path d="M795.008 907.008l-646.64-96.64 80-35.84 646.64 96.608-80 35.872z" fill="#CECEF9" /><path d="M148.384 810.384l80-35.872-80 35.872zM700.56 359.376c-129.264-5.056-244.416 15.04-334.064 53.776l80-35.856c89.648-38.736 204.8-58.832 334.064-53.776l-80 35.856z" fill="#CECEF9" /><path d="M366.496 413.152c-114.752 49.536-181.024 126.08-192.992 211.712l80-35.856c11.968-85.632 78.24-162.192 192.992-211.712l-80 35.856zM82.08 597.072c17.824-127.552 112.224-221.472 240.08-276.688l80-35.856c-127.84 55.2-222.256 149.12-240.08 276.688l-80 35.856z" fill="#CECEF9" /><path d="M322.16 320.384c106.576-45.984 241.104-67.536 389.04-59.104l80-35.856c-147.936-8.432-282.464 13.12-389.04 59.104l-80 35.856z" fill="#CECEF9" /><path d="M642.912 39.696l240.496 291.52L642.912 550.88 577.6 471.68l122.96-112.32c-129.264-5.056-244.416 15.04-334.064 53.776-114.752 49.536-181.024 126.08-192.992 211.712L82.08 597.072c17.824-127.552 112.224-221.472 240.08-276.688 106.576-45.984 241.104-67.536 389.04-59.104L577.6 99.36l65.312-59.664zM148.368 810.4v-98.176L56 698.416v196.32l831.392 124.24v-196.32l-92.384-13.808v98.16l-646.64-96.64z" fill="#4E5969" /></svg>