<?xml version="1.0" standalone="no"?><!DOCTYPE svg PUBLIC "-//W3C//DTD SVG 1.1//EN" "http://www.w3.org/Graphics/SVG/1.1/DTD/svg11.dtd"><svg class="icon" width="200px" height="193.57px" viewBox="0 0 1058 1024" version="1.1" xmlns="http://www.w3.org/2000/svg"><path d="M452.208814 110.782915v178.384271l86.779661-38.894644V71.888271l-86.779661 38.894644zM452.208814 761.960136v200.044474l86.779661-38.912V723.065492l-86.779661 38.894644zM359.962034 989.548475L19.681627 528.141017l86.779661-38.912L446.741695 950.653831l-86.779661 38.894644zM19.664271 415.379525L359.962034 55.660475l86.779661-38.912L106.443932 376.484881l-86.779661 38.894644zM359.962034 55.660475l86.779661-38.912-86.779661 38.912zM355.119729 221.322847L106.062102 484.664407l86.779661-38.894644 249.057627-263.358916-86.779661 38.912zM106.079458 484.664407l249.057627 337.781152 86.779661-38.894644-249.057627-337.781152-86.779661 38.894644z" fill="#CECEF9" /><path d="M355.119729 822.445559v-164.881356l86.779661-38.877288v164.864l-86.779661 38.894644z" fill="#CECEF9" /><path d="M355.119729 657.581559l38.113627-3.870373 86.779661-38.894644-38.113627 3.853017-86.779661 38.912zM408.766915 395.107797l-53.62983-1.66617 86.779661-38.912 53.62983 1.66617-86.779661 38.912zM355.119729 393.441627V221.288136l86.779661-38.894644v172.118779l-86.779661 38.912z" fill="#CECEF9" /><path d="M355.119729 221.322847l86.779661-38.912-86.779661 38.912zM359.962034 55.660475c3.991864-4.200136 8.330847-7.393627 12.878102-9.667255l86.779661-38.894644c-4.56461 2.256271-8.903593 5.449763-12.860746 9.649899l-86.779661 38.912z" fill="#CECEF9" /><path d="M372.840136 45.99322c33.496949-16.609627 79.368678 16.557559 79.368678 64.789695l86.779661-38.894644c0-48.232136-45.854373-81.399322-79.368678-64.789695l-86.779661 38.894644zM452.208814 289.167186c281.582644 42.07078 509.743729 334.448814 509.743728 653.01695l86.779661-38.894644c0-318.585492-228.161085-610.946169-509.743728-653.01695l-86.779661 38.894644zM961.969898 942.184136c0 4.529898 0 9.094508-0.242983 13.572339l86.779661-38.912c0.242983-4.460475 0.242983-9.025085 0.242983-13.554983l-86.779661 38.894644z" fill="#CECEF9" /><path d="M961.726915 955.756475c-0.433898 21.156881-10.535051 36.100339-24.333017 42.938576l86.779661-38.894644c13.797966-6.855593 23.899119-21.799051 24.333017-42.955932l-86.779661 38.912z" fill="#CECEF9" /><path d="M937.393898 998.695051c-17.546847 8.730034-41.081492 4.391051-58.211796-16.835254l86.779661-38.912c17.130305 21.226305 40.664949 25.582644 58.211796 16.85261l-86.779661 38.894644z" fill="#CECEF9" /><path d="M879.182102 981.842441C787.438644 867.848678 662.666847 787.612203 525.034305 767.028068l86.779661-38.912c137.632542 20.56678 262.404339 100.837966 354.147797 214.831729l-86.779661 38.894644zM525.034305 767.028068a454.360949 454.360949 0 0 0-72.825491-5.067932l86.779661-38.894644a454.551864 454.551864 0 0 1 72.825491 5.050576l-86.779661 38.912zM452.208814 962.00461c0 24.10739-11.454915 41.029424-27.109967 48.59661l86.779661-38.912c15.655051-7.567186 27.127322-24.471864 27.127323-48.59661l-86.779662 38.912z" fill="#CECEF9" /><path d="M425.098847 1010.60122c-19.92461 9.615186-46.63539 4.096-65.119457-21.052745l86.779661-38.894644c18.484068 25.148746 45.194847 30.667932 65.119457 21.035389l-86.779661 38.912zM19.664271 528.123661c-26.207458-35.614373-26.207458-84.957288 0-112.744136l86.779661-38.894644c-26.207458 27.769492-26.207458 77.112407 0 112.72678l-86.779661 38.912zM393.233356 653.711186a529.477424 529.477424 0 0 1 131.800949 3.436475l86.779661-38.894644a529.564203 529.564203 0 0 0-131.800949-3.436475l-86.779661 38.894644z" fill="#CECEF9" /><path d="M525.034305 657.147661c120.884068 18.050169 233.524068 74.908203 328.183322 158.008407l86.779661-38.894644c-94.659254-83.100203-207.299254-139.958237-328.183322-158.008407l-86.779661 38.894644z" fill="#CECEF9" /><path d="M853.217627 815.156068C809.289763 604.16 646.404339 428.066712 452.208814 399.047593l86.779661-38.912C733.201356 389.154712 896.08678 565.282712 939.997288 776.261424l-86.779661 38.894644z" fill="#CECEF9" /><path d="M452.208814 399.047593a374.193898 374.193898 0 0 0-43.441899-3.939796l86.779661-38.912c14.318644 0.46861 28.637288 1.735593 43.441899 3.939796l-86.779661 38.912z" fill="#CECEF9" /><path d="M359.962034 55.660475c33.028339-35.041627 92.264136 0.329763 92.264135 55.12244v178.384271c281.565288 42.07078 509.743729 334.448814 509.743729 653.01695 0 4.547254 0 9.094508-0.242983 13.572339-0.971932 48.075932-51.946305 64.008678-82.544813 26.085966-91.743458-113.993763-216.515254-194.247593-354.147797-214.814373a454.551864 454.551864 0 0 0-72.825491-5.067932v200.044474c0 54.792678-59.218441 72.443661-92.229424 27.543865L19.664271 528.141017c-26.207458-35.614373-26.207458-84.957288 0-112.744136L359.962034 55.660475z m-4.842305 165.662372L106.062102 484.664407l249.057627 337.781152v-164.881356l38.113627-3.853017a529.49478 529.49478 0 0 1 131.800949 3.436475c120.884068 18.050169 233.524068 74.908203 328.183322 158.008407-43.927864-210.996068-206.813288-387.089356-400.991458-416.108475-14.821966-2.221559-29.14061-3.471186-43.459254-3.939796l-53.62983-1.66617V221.288136z" fill="#4E5969" /></svg>