<svg xmlns="http://www.w3.org/2000/svg" viewBox="0 0 1024 1024" version="1.1"><path d="M748.8 847.8h-97.7c-37.9 0-68.7-30.8-68.7-68.7v-61.2H427.6v61.2c0 37.9-30.8 68.7-68.7 68.7h-97.7c-37.9 0-68.7-30.8-68.7-68.7v-61.2h-0.9V301.4c0-69 56.1-125.2 125.2-125.2h375.5c69 0 125.2 56.1 125.2 125.2v477.7c0 37.9-30.8 68.7-68.7 68.7z m-94.4-72h91.1V301.4c0-29.3-23.9-53.2-53.2-53.2H316.8c-29.3 0-53.2 23.9-53.2 53.2v344.5h0.9v130h91.1V645.9h298.8v130z" fill="#474747" p-id="4803"></path><path d="M240.1 645.8h529.5v72H240.1zM240.1 372.8h529.5v72H240.1zM114.1 457.9c-19.9 0-36-16.1-36-36V333.5c0-19.9 16.1-36 36-36s36 16.1 36 36v88.4c0 19.9-16.1 36-36 36zM909.9 457.9c-19.9 0-36-16.1-36-36V333.5c0-19.9 16.1-36 36-36s36 16.1 36 36v88.4c0 19.9-16.1 36-36 36z" fill="#474747" p-id="4804"></path><path d="M388.9 545m-36 0a36 36 0 1 0 72 0 36 36 0 1 0-72 0Z" fill="#4F95FC" p-id="4805"></path><path d="M635.1 546m-36 0a36 36 0 1 0 72 0 36 36 0 1 0-72 0Z" fill="#4F95FC" p-id="4806"></path></svg>