<svg xmlns="http://www.w3.org/2000/svg" viewBox="0 0 1024 1024" version="1.1"><path d="M541.9 386l-66-17.1-0.3-27.5c-0-1.6-0.4-40.6 9.8-84.2 15-63.8 45.6-107 88.7-125.1 49.7-20.9 88.4-9.1 112.1 4.4 34.5 19.6 58.5 56.1 61.8 80.1l0.1 0.5c1.7 12.1 6.8 48.8-21.9 86.8-14.6 19.4-35.8 35.8-63.1 49-30 14.4-68.3 25.3-113.8 32.2l-7.3 1.1z m85.4-193.2c-7.9 0-16.3 1.9-25.4 5.7-35.1 14.8-48.7 73.5-52.9 113.5 80.4-13.9 109.4-38.1 119.6-51.6 10.2-13.5 9.1-25.5 8.2-32.5-2.3-6-12.9-22.9-30.2-30.9-6.1-2.8-12.5-4.2-19.3-4.2z m49.8 35.8z m-0.4-2.2z" fill="#4F95FC" p-id="5155"></path><path d="M482.1 386l-7.3-1.1c-45.5-7-83.8-17.8-113.8-32.2-27.3-13.1-48.5-29.6-63.1-49-28.6-38-23.5-74.7-21.9-86.8l0.1-0.5c3.3-23.9 27.3-60.4 61.8-80.1 23.7-13.5 62.4-25.2 112.1-4.4 43.1 18.1 73.8 61.4 88.7 125.1 10.2 43.6 9.9 82.5 9.8 84.2l-0.3 27.5-66 17.1zM347.2 227.9c-0.9 7-2 19 8.2 32.5 10.2 13.5 39.2 37.7 119.6 51.6-4.2-40-17.7-98.8-52.9-113.5-16.9-7.1-31.5-7.6-44.7-1.5-17.3 8-27.9 24.9-30.2 30.9z m-0.2 0.7z m0.4-2.2z" fill="#4F95FC" p-id="5156"></path><path d="M827 573.4H197c-37.4 0-67.8-30.4-67.8-67.8V381.1c0-37.4 30.4-67.8 67.8-67.8h630.1c37.4 0 67.8 30.4 67.8 67.8v124.5c0 37.4-30.4 67.8-67.8 67.8z m-625.9-72h621.7V385.3h-621.7v116.2z" fill="#474747" p-id="5157"></path><path d="M763.4 863.3H260.6c-40.1 0-72.6-32.6-72.6-72.6V490.8h648.2v299.8c0 40.1-32.6 72.6-72.6 72.6zM259.9 562.8v227.8c0 0.4 0.3 0.6 0.6 0.6h502.9c0.4 0 0.6-0.3 0.6-0.6V562.8H259.9z" fill="#474747" p-id="5158"></path><path d="M476 372.6h72v430.8h-72z" fill="#474747" p-id="5159"></path></svg>