<svg xmlns="http://www.w3.org/2000/svg" viewBox="0 0 1024 1024" version="1.1"><path d="M715.1 409.9H321.9c-27.9 0-50.6-22.6-50.6-50.3V135.1h73.1v201.8h348.2V135.1h73.1v224.5c0 27.8-22.7 50.3-50.6 50.3z" fill="#4F95FC" p-id="3481"></path><path d="M609.9 310.7c-20.2 0-36.6-16.4-36.6-36.6v-51.9c0-20.2 16.4-36.6 36.6-36.6s36.6 16.4 36.6 36.6v51.9c0 20.2-16.4 36.6-36.6 36.6z" fill="#4F95FC" p-id="3482"></path><path d="M833.3 942.9H190.7c-60.4 0-109.6-49.2-109.6-109.6V190.7c0-60.4 49.2-109.6 109.6-109.6h642.6c60.4 0 109.6 49.2 109.6 109.6v642.6c0 60.4-49.2 109.6-109.6 109.6zM190.7 154.2c-20.1 0-36.5 16.4-36.5 36.5v642.6c0 20.1 16.4 36.5 36.5 36.5h642.6c20.1 0 36.5-16.4 36.5-36.5V190.7c0-20.1-16.4-36.5-36.5-36.5H190.7z" fill="#474747" p-id="3483"></path></svg>