<svg xmlns="http://www.w3.org/2000/svg" viewBox="0 0 1024 1024" version="1.1"><path d="M707 902.1H315.6c-54.3 0-98.4-44.1-98.4-98.4V408c0-110.3 89.7-200 200-200h188.3c110.3 0 200 89.7 200 200v395.7c0 54.3-44.1 98.4-98.4 98.4zM417.2 280.1c-70.6 0-128 57.4-128 128v395.7c0 14.6 11.8 26.4 26.4 26.4h391.5c14.6 0 26.4-11.8 26.4-26.4V408c0-70.6-57.4-128-128-128H417.2z" fill="#474747" p-id="4958"></path><path d="M641.5 252.8h-72c0-32.5-26.4-58.9-58.9-58.9s-58.9 26.4-58.9 58.9h-72c0-72.2 58.7-130.9 130.9-130.9s130.9 58.7 130.9 130.9zM254.6 805.7h-64.3c-37.6 0-68.2-31.6-68.2-70.5V589.6c0-38.9 30.6-70.5 68.2-70.5h64.3v72h-60.5v142.6h60.5v72zM833.8 805.7h-64.3v-72h60.5v-142.6h-60.5v-72h64.3c37.6 0 68.2 31.6 68.2 70.5v145.6c0 38.9-30.6 70.5-68.2 70.5z" fill="#474747" p-id="4959"></path><path d="M667.4 582.1h-34.4c-1.9-0.4-3.9-0.6-5.9-0.6-2 0-4 0.2-5.9 0.6H357.2c-16.6 0-30 13.4-30 30s13.4 30 30 30h239.9v12.3c0 16.6 13.4 30 30 30s30-13.4 30-30v-12.3h10.3c16.6 0 30-13.4 30-30s-13.4-30-30-30z" fill="#4F95FC" p-id="4960"></path></svg>