<svg xmlns="http://www.w3.org/2000/svg" viewBox="0 0 1024 1024" version="1.1"><path d="M794 907.2H246.6c-29.5 0-62.8-19.4-89.1-51.9-27-33.5-41.9-74.5-41.9-115.6h73.1c0 32.1 15.5 56.6 24.7 68.4 14.9 19 29.6 25.7 33.3 26h547.2c15.6 0 24.8-1.3 30-2.5V675.2h73.1v165.4c0 22.7-11.8 42.1-32.5 53.3-16.6 9-39 13.2-70.6 13.2z m-547.2-73.1z" fill="#474747" p-id="3508"></path><path d="M390.6 877.8l-24.5-68.8L833.5 642.6l-62.7-178.2-299.2 105.2-24.2-68.9 305.3-107.4c16.8-5.9 34.8-4.9 50.9 2.8s28.1 21.2 34 37.9l67 190.5c5.9 16.8 4.9 34.8-2.8 50.9-7.7 16-21.1 28.1-37.8 34L390.6 877.8z" fill="#474747" p-id="3509"></path><path d="M283.3 906.2c-6.4 0-12.9-0.4-19.5-1.1-91.7-10.7-157.7-94-147-185.7l63.3-543.7c4.2-36.5 37.3-62.6 73.8-58.4l200.6 23.3c36.5 4.2 62.6 37.3 58.4 73.8l-63.3 543.7c-9.9 85.2-82.5 148.2-166.3 148.2z m-31.4-715.6L189.3 727.8c-6 51.7 31.2 98.7 82.9 104.7 51.7 6 98.7-31.2 104.7-82.9l62.5-537.2-187.6-21.8z m188.4 15.4z" fill="#474747" p-id="3510"></path><path d="M330.1 665.2l-7.9 72c-2.2 20.1-20.2 34.5-40.3 32.3-20.1-2.2-34.5-20.2-32.3-40.3l7.9-72c2.2-20.1 20.2-34.5 40.3-32.3 20.1 2.2 34.5 20.2 32.3 40.3z" fill="#4F95FC" p-id="3511"></path></svg>