<svg xmlns="http://www.w3.org/2000/svg" viewBox="0 0 1024 1024" version="1.1"><path d="M851 978H173C113.5 978 65.1 929.6 65.1 870.1V153.9c0-59.5 48.4-107.9 107.9-107.9h677.9c59.5 0 107.9 48.4 107.9 107.9v716.1c0 59.5-48.4 107.9-107.9 107.9zM173 119.1c-19.2 0-34.9 15.6-34.9 34.9v716.1c0 19.2 15.6 34.9 34.9 34.9h677.9c19.2 0 34.9-15.6 34.9-34.9V153.9c0-19.2-15.6-34.9-34.9-34.9H173z" fill="#474747" p-id="3640"></path><path d="M576.7 82.1h73.1v859.8h-73.1z" fill="#474747" p-id="3641"></path><path d="M82.5 338.6h549v73.1H82.5z" fill="#474747" p-id="3642"></path><path d="M474.2 717.8V597.4c0-15.1 12.3-27.4 27.4-27.4 15.1 0 27.4 12.3 27.4 27.4v120.3c0 15.1-12.3 27.4-27.4 27.4-15.1 0-27.4-12.3-27.4-27.4zM474.2 269.3v-58.2c0-15.1 12.3-27.4 27.4-27.4 15.1 0 27.4 12.3 27.4 27.4v58.2c0 15.1-12.3 27.4-27.4 27.4-15.1 0-27.4-12.3-27.4-27.4zM697.5 579.7V444.3c0-15.1 12.3-27.4 27.4-27.4 15.1 0 27.4 12.3 27.4 27.4v135.3c0 15.1-12.3 27.4-27.4 27.4-15.1 0-27.4-12.3-27.4-27.4z" fill="#4F95FC" p-id="3643"></path></svg>