<svg xmlns="http://www.w3.org/2000/svg" viewBox="0 0 1024 1024" version="1.1"><path d="M742.4 985.1h-460.7c-60.4 0-109.6-49.2-109.6-109.6V148.5c0-60.4 49.2-109.6 109.6-109.6h460.7c60.4 0 109.6 49.2 109.6 109.6v727c0 60.4-49.2 109.6-109.6 109.6z m-460.7-873.1c-20.1 0-36.5 16.4-36.5 36.5v727c0 20.1 16.4 36.5 36.5 36.5h460.7c20.1 0 36.5-16.4 36.5-36.5v-727c0-20.1-16.4-36.5-36.5-36.5H281.6z" fill="#474747" p-id="3442"></path><path d="M183.6 477h640.3v73.1H183.6z" fill="#474747" p-id="3443"></path><path d="M341 405c-15.1 0-27.4-12.3-27.4-27.4V214.7c0-15.1 12.3-27.4 27.4-27.4 15.1 0 27.4 12.3 27.4 27.4v162.9c0 15.1-12.3 27.4-27.4 27.4zM341 854.5c-15.1 0-27.4-12.3-27.4-27.4V664.2c0-15.1 12.3-27.4 27.4-27.4 15.1 0 27.4 12.3 27.4 27.4v162.9c0 15.1-12.3 27.4-27.4 27.4z" fill="#4F95FC" p-id="3444"></path></svg>