<svg xmlns="http://www.w3.org/2000/svg" viewBox="0 0 1024 1024" version="1.1"><path d="M450.7 540.2l60.8-38.6 121.5 191-60.8 38.6z" fill="#4F95FC" p-id="5170"></path><path d="M508.4 956.8L276.7 541h-17.2c-50.6 0-91.8-41.2-91.8-91.8 0-39.7 25.3-73.5 60.6-86.3-0.2-3.8-0.2-7.7-0.2-11.5 0-75.9 29.6-147.3 83.2-201S436.4 67.2 512.3 67.2s147.3 29.6 201 83.2 83.2 125 83.2 201c0 3.9-0.1 7.8-0.2 11.7 35 12.9 60.1 46.6 60.1 86.1 0 50.6-41.2 91.8-91.8 91.8h-24.4L508.4 956.8zM259.4 429.5c-10.9 0-19.8 8.9-19.8 19.8s8.9 19.8 19.8 19.8h59.5l189.4 339.9 189.4-339.9h66.7c10.9 0 19.8-8.9 19.8-19.8s-8.9-19.8-19.8-19.8c-12.3 0-24-5.3-32.1-14.6a42.6 42.6 0 0 1-10.1-33.9c1.4-9.8 2.1-19.7 2.1-29.6 0-117-95.2-212.2-212.2-212.2s-212.2 95.2-212.2 212.2c0 9.9 0.7 19.8 2.1 29.6a42.6 42.6 0 0 1-10.1 33.9 42.5 42.5 0 0 1-32.1 14.6h-0.5z" fill="#474747" p-id="5171"></path><path d="M297.8 469h421.2v72H297.8z" fill="#474747" p-id="5172"></path></svg>