<svg xmlns="http://www.w3.org/2000/svg" viewBox="0 0 1024 1024" version="1.1"><path d="M650.1 750.9c-14.5 4.2-29.7-4.2-33.9-18.7l-36.1-124.7c-4.2-14.5 4.2-29.7 18.7-33.9 14.5-4.2 29.7 4.2 33.9 18.7l36.1 124.7c4.2 14.5-4.2 29.7-18.7 33.9zM371.8 750.9c14.5 4.2 29.7-4.2 33.9-18.7l36.1-124.7c4.2-14.5-4.2-29.7-18.7-33.9-14.5-4.2-29.7 4.2-33.9 18.7l-36.1 124.7c-4.2 14.5 4.2 29.7 18.7 33.9zM134.4 605.6c12.5 8.5 29.5 5.3 38.1-7.2l55.7-81.6c8.5-12.5 5.3-29.5-7.2-38.1-12.5-8.5-29.5-5.3-38.1 7.2l-55.7 81.6c-8.5 12.5-5.3 29.5 7.2 38.1zM887.5 605.6c-12.5 8.5-29.5 5.3-38.1-7.2l-55.7-81.6c-8.5-12.5-5.3-29.5 7.2-38.1 12.5-8.5 29.5-5.3 38.1 7.2l55.7 81.6c8.5 12.5 5.3 29.5-7.2 38.1z" fill="#4F95FC" p-id="3948"></path><path d="M968.7 348.5c0-20.2-16.4-36.5-36.5-36.5-15.9 0-29.4 10.1-34.4 24.2l-0.3-0.1 0.1-0.1c-0.3 0.5-25.5 53.7-85.6 105.8-79.9 69.3-180.9 104.4-300.3 104.4s-220.5-35.1-300.3-104.4c-52.7-45.7-78.6-92.2-84.3-103.3-4.4-15.3-18.4-26.5-35.1-26.5-20.2 0-36.5 16.4-36.5 36.5 0 6.4 1.7 12.5 4.6 17.7l-0.6 0.3c1.2 2.6 30.5 65.6 101.2 127.9 41.2 36.3 88.3 65.3 139.9 86 64 25.7 135.1 38.8 211.3 38.8s147.2-13.1 211.3-38.8c51.6-20.8 98.7-49.7 139.9-86 67.7-59.7 97.4-120 100.8-127.3a36.4 36.4 0 0 0 5.1-18.6z" fill="#474747" p-id="3949"></path></svg>