<svg xmlns="http://www.w3.org/2000/svg" viewBox="0 0 1024 1024" version="1.1"><path d="M350.2 536.5c-45.1 0-87.1-18-118.2-50.6-31.1-32.6-47-75.5-44.8-120.5l9.1-186.3c1-19.9 17.8-35.2 37.7-34.2 19.9 1 35.2 17.9 34.2 37.7l-9.1 186.3c-1.2 25.2 7.7 49.1 25.1 67.3s40.8 28.3 66 28.3 48.7-10.1 66-28.3c17.4-18.3 26.3-42.2 25.1-67.3l-9.1-186.3c-1-19.9 14.3-36.7 34.2-37.7 19.9-1 36.7 14.3 37.7 34.2l9.1 186.3c2.2 45-13.7 87.8-44.8 120.5-31.1 32.7-73.1 50.6-118.2 50.6z" fill="#474747" p-id="5115"></path><path d="M314.2 150.6m36 0l0 0q36 0 36 36l0 178.1q0 36-36 36l0 0q-36 0-36-36l0-178.1q0-36 36-36Z" fill="#4F95FC" p-id="5116"></path><path d="M314.2 489.4m36 0l0 0q36 0 36 36l0 315.8q0 36-36 36l0 0q-36 0-36-36l0-315.8q0-36 36-36Z" fill="#474747" p-id="5117"></path><path d="M810.1 154.4c-16.4-7.3-35.6-4.2-48.9 7.8-57.9 52.2-103.5 114.6-135.6 185.3-33.3 73.2-50.1 151.4-50.1 232.4 0 21 1.2 42.3 3.5 63.1 2.5 21.9 20.9 38.4 43 38.4h143v161.8c0 19.9 16.1 36 36 36s36-16.1 36-36V195.8c0-17.9-10.6-34.2-26.9-41.5zM647.5 579.8c0-117.2 42.2-230.2 117.5-318.5v348H648.4a494.6 494.6 0 0 1-0.9-29.6z" fill="#474747" p-id="5118"></path></svg>