<svg xmlns="http://www.w3.org/2000/svg" viewBox="0 0 1024 1024" version="1.1"><path d="M512 569.8c-6.9 0-13.8-1.7-20-5.2L126.8 359.2c-12.6-7.1-20.6-20.5-20.8-35-0.2-14.5 7.5-28.1 19.9-35.5L491.2 71.8a40.7 40.7 0 0 1 41.6 0l365.2 216.8c12.5 7.4 20.1 21 19.9 35.5-0.2 14.5-8.1 27.9-20.8 35l-365.2 205.4c-6.2 3.5-13.1 5.2-20 5.2z m15.8-68.9z m-316.5-178L512 492 812.6 322.9 512 144.4 211.4 322.9z" fill="#4F95FC" p-id="3627"></path><path d="M919.1 491c-10.1-17.5-32.4-23.5-49.9-13.4L511.1 684.4 154.8 478.7c-17.5-10.1-39.8-4.1-49.9 13.4-10.1 17.5-4.1 39.8 13.4 49.9l375.5 216.8c14.3 8.3 31.8 5.7 43.3-5l368.7-212.9c17.5-10.1 23.5-32.4 13.4-49.9z" fill="#474747" p-id="3628"></path><path d="M919.1 685.3c-10.1-17.5-32.4-23.5-49.9-13.4L511.1 878.6 154.8 673c-17.5-10.1-39.8-4.1-49.9 13.4-10.1 17.5-4.1 39.8 13.4 49.9l375.5 216.8c14.3 8.3 31.8 5.7 43.3-5l368.7-212.9c17.5-10.1 23.5-32.4 13.4-49.9z" fill="#474747" p-id="3629"></path></svg>