<svg xmlns="http://www.w3.org/2000/svg" viewBox="0 0 1024 1024" version="1.1"><path d="M512 948.7c-58.9 0-116.1-11.6-170-34.3-52-22-98.7-53.5-138.8-93.6-40.1-40.1-71.6-86.8-93.6-138.8-22.8-53.9-34.3-111.1-34.3-170s11.6-116.1 34.3-170c22-52 53.5-98.7 93.6-138.8 40.1-40.1 86.8-71.6 138.8-93.6 53.9-22.8 111.1-34.3 170-34.3s116.1 11.6 170 34.3c52 22 98.7 53.5 138.8 93.6 40.1 40.1 71.6 86.8 93.6 138.8 22.8 53.9 34.3 111.1 34.3 170s-11.6 116.1-34.3 170c-22 52-53.5 98.7-93.6 138.8-40.1 40.1-86.8 71.6-138.8 93.6-53.9 22.8-111.1 34.3-170 34.3z m0-800.4c-200.5 0-363.6 163.1-363.6 363.6S311.5 875.6 512 875.6 875.6 712.5 875.6 512 712.5 148.3 512 148.3z" fill="#474747" p-id="3654"></path><path d="M512 649.7c-75.9 0-137.7-61.8-137.7-137.7S436.1 374.3 512 374.3 649.7 436.1 649.7 512 587.9 649.7 512 649.7z m0-202.3c-35.6 0-64.6 29-64.6 64.6s29 64.6 64.6 64.6 64.6-29 64.6-64.6-29-64.6-64.6-64.6z" fill="#4F95FC" p-id="3655"></path><path d="M518.3 211.3c-1.2 0-2.4 0.1-3.6 0.2v-0.8c-82 0-159 31.9-217 89.9-58 58-89.9 135-89.9 217h0.4c-0.1 0.8-0.1 1.6-0.1 2.5 0 20.2 16.4 36.5 36.5 36.5s36.5-16.4 36.5-36.5c0-1.5-0.1-2.9-0.3-4.3 1-127 103.8-230.2 230.7-231.8 2.1 0.4 4.3 0.6 6.6 0.6 20.2 0 36.5-16.4 36.5-36.5s-16.4-36.5-36.5-36.5zM505.7 812.7c1.2 0 2.4-0.1 3.6-0.2v0.8c82 0 159-31.9 217-89.9 58-58 89.9-135 89.9-217h-0.4c0.1-0.8 0.1-1.6 0.1-2.5 0-20.2-16.4-36.5-36.5-36.5s-36.5 16.4-36.5 36.5c0 1.5 0.1 2.9 0.3 4.3-1 127-103.8 230.2-230.7 231.8-2.1-0.4-4.3-0.6-6.6-0.6-20.2 0-36.5 16.4-36.5 36.5 0 20.2 16.4 36.5 36.5 36.5z" fill="#474747" p-id="3656"></path></svg>