<svg xmlns="http://www.w3.org/2000/svg" viewBox="0 0 1024 1024" version="1.1"><path d="M79.7 187.9m36 0l0 0q36 0 36 36l0 576.2q0 36-36 36l0 0q-36 0-36-36l0-576.2q0-36 36-36Z" fill="#474747" p-id="4817"></path><path d="M391.6 332.7h72v329.2h-72z" fill="#4F95FC" p-id="4818"></path><path d="M944.3 693.1H84.6V288.9h685.4c96.1 0 174.3 78.2 174.3 174.3v230z m-787.7-72H872.3V463.2c0-56.4-45.9-102.3-102.3-102.3H156.6v260.2z" fill="#474747" p-id="4819"></path><path d="M908.3 833c-19.9 0-36-16.1-36-36V602.2c0-19.9 16.1-36 36-36s36 16.1 36 36v194.8c0 19.9-16.1 36-36 36z" fill="#474747" p-id="4820"></path></svg>