<svg xmlns="http://www.w3.org/2000/svg" viewBox="0 0 1024 1024" version="1.1"><path d="M829.4 932.4H194.6c-50.4 0-91.3-41-91.3-91.3V260.9c0-50.4 41-91.3 91.3-91.3h32.5c20.2 0 36.5 16.4 36.5 36.5s-16.4 36.5-36.5 36.5h-32.5c-10.1 0-18.3 8.2-18.3 18.3v580.2c0 10.1 8.2 18.3 18.3 18.3h634.7c10.1 0 18.3-8.2 18.3-18.3V260.9c0-10.1-8.2-18.3-18.3-18.3h-39.8c-20.2 0-36.5-16.4-36.5-36.5s16.4-36.5 36.5-36.5h39.8c50.4 0 91.3 41 91.3 91.3v580.2c0 50.4-41 91.3-91.3 91.3z" fill="#474747" p-id="3537"></path><path d="M597.5 242.6H419.2c-20.2 0-36.5-16.4-36.5-36.5s16.4-36.5 36.5-36.5h178.3c20.2 0 36.5 16.4 36.5 36.5s-16.4 36.5-36.5 36.5zM150 394.4h716v73.1H150z" fill="#474747" p-id="3538"></path><path d="M292 259V128.2c0-20.2 16.4-36.5 36.5-36.5 20.2 0 36.5 16.4 36.5 36.5v130.9c0 20.2-16.4 36.5-36.5 36.5-20.2 0-36.5-16.4-36.5-36.5zM651 259V128.2c0-20.2 16.4-36.5 36.5-36.5 20.2 0 36.5 16.4 36.5 36.5v130.9c0 20.2-16.4 36.5-36.5 36.5s-36.5-16.4-36.5-36.5zM458.1 785.6L355.6 683.2c-14.3-14.3-14.3-37.4 0-51.7 14.3-14.3 37.4-14.3 51.7 0l102.5 102.5c14.3 14.3 14.3 37.4 0 51.7-14.3 14.3-37.4 14.3-51.7 0z" fill="#4F95FC" p-id="3539"></path><path d="M459.3 732.9l188.6-188.6c14.3-14.3 37.4-14.3 51.7 0 14.3 14.3 14.3 37.4 0 51.7L511 784.5c-14.3 14.3-37.4 14.3-51.7 0-14.3-14.3-14.3-37.4 0-51.7z" fill="#4F95FC" p-id="3540"></path></svg>