<svg xmlns="http://www.w3.org/2000/svg" viewBox="0 0 1024 1024" version="1.1"><path d="M753.8 689H295l-23.6-0.1c-2 0.1-3.8 0.1-5.5 0.1-91.2 0-165.3-74.2-165.3-165.3 0-69.2 42.8-130.6 107.1-154.8 0-0.6 0.1-1.3 0.1-1.9 2-29.1 14.7-56.3 35.7-76.7 21-20.4 48.6-32.3 77.7-33.4 18.5-0.7 36.7 2.9 53.3 10.4 17-31.7 41.3-59 71.3-79.8 38.5-26.8 83.8-40.9 130.8-40.9 119 0 217.1 91 228.4 207.1 69.8 22.7 118.4 88.2 118.4 163.4 0 45.4-14.8 87.6-41.7 118.8-28.8 33.5-69.7 52.3-115.3 53h-0.5l-12.2 0z m-458.6-73.1h458.5l11.8-0c58.3-1.1 84.8-51.9 84.8-98.8s-34-88.6-80.9-97.2c-21.1-3.9-36.4-22.3-36.4-43.8 0-86.3-70.2-156.4-156.4-156.4-64.9 0-122 39-145.7 99.4-5.7 14.5-18.1 25.6-33.2 29.7-15.1 4.1-31.5 0.7-43.8-9.1-6-4.8-16-10.3-30-9.8-22.8 0.9-41.8 19.4-43.4 42.1-0.1 1.1-0.1 2.2-0.1 3.3 0.1 27.6-17.5 52-43.7 60.7-37.8 12.5-63.2 47.7-63.2 87.6 0 50.9 41.4 92.3 92.3 92.3 1 0 2.2-0 3.5-0.1l0.8-0 25 0.1zM806.1 376.1z" fill="#474747" p-id="3888"></path><path d="M713.1 730.5c10.1 0 18.3 8.2 18.3 18.3v110.3c0 10.1-8.2 18.3-18.3 18.3s-18.3-8.2-18.3-18.3V748.8c0-10.1 8.2-18.3 18.3-18.3z" fill="#4F95FC" p-id="3889"></path><path d="M648.7 767c5-8.7 16.2-11.7 24.9-6.7l95.5 55.1c8.7 5 11.7 16.2 6.7 24.9-5 8.7-16.2 11.7-24.9 6.7l-95.5-55.1c-8.7-5-11.7-16.2-6.7-24.9z" fill="#4F95FC" p-id="3890"></path><path d="M648.1 841.1c-5-8.7-2-19.9 6.7-24.9l95.5-55.1c8.7-5 19.9-2 24.9 6.7 5 8.7 2 19.9-6.7 24.9l-95.5 55.1c-8.7 5-19.9 2-24.9-6.7z" fill="#4F95FC" p-id="3891"></path><path d="M313.2 730.5c10.1 0 18.3 8.2 18.3 18.3v110.3c0 10.1-8.2 18.3-18.3 18.3s-18.3-8.2-18.3-18.3V748.8c0-10.1 8.2-18.3 18.3-18.3z" fill="#4F95FC" p-id="3892"></path><path d="M248.8 767c5-8.7 16.2-11.7 24.9-6.7l95.5 55.1c8.7 5 11.7 16.2 6.7 24.9-5 8.7-16.2 11.7-24.9 6.7l-95.5-55.1c-8.7-5-11.7-16.2-6.7-24.9z" fill="#4F95FC" p-id="3893"></path><path d="M248.2 841.1c-5-8.7-2-19.9 6.7-24.9l95.5-55.1c8.7-5 19.9-2 24.9 6.7 5 8.7 2 19.9-6.7 24.9l-95.5 55.1c-8.7 5-19.9 2-24.9-6.7z" fill="#4F95FC" p-id="3894"></path><path d="M505.8 730.5c10.1 0 18.3 8.2 18.3 18.3v110.3c0 10.1-8.2 18.3-18.3 18.3s-18.3-8.2-18.3-18.3V748.8c0-10.1 8.2-18.3 18.3-18.3z" fill="#4F95FC" p-id="3895"></path><path d="M441.4 767c5-8.7 16.2-11.7 24.9-6.7l95.5 55.1c8.7 5 11.7 16.2 6.7 24.9-5 8.7-16.2 11.7-24.9 6.7l-95.5-55.1c-8.7-5-11.7-16.2-6.7-24.9z" fill="#4F95FC" p-id="3896"></path><path d="M440.8 841.1c-5-8.7-2-19.9 6.7-24.9l95.5-55.1c8.7-5 19.9-2 24.9 6.7 5 8.7 2 19.9-6.7 24.9l-95.5 55.1c-8.7 5-19.9 2-24.9-6.7z" fill="#4F95FC" p-id="3897"></path></svg>