<svg xmlns="http://www.w3.org/2000/svg" viewBox="0 0 1024 1024" version="1.1"><path d="M903.2 214.2c-0-19.9-16.1-36-36-36h-0.1c-11.1 0-21 5.1-27.6 13a35.9 35.9 0 0 0-8.6 4.3c-60.5 41.5-198.8 33.7-325.5-51.4-74.4-50-161.3-63.5-251.4-39.2-53.8 14.5-93.6 38.6-108 48-12.1 5.8-20.5 18.2-20.5 32.5v689.4c0 19.9 16.1 36 36 36s36-16.1 36-36V686.8c40.2-23.3 155.9-77 267.8-1.8 75.8 51 155.1 81 229.1 87 8.8 0.7 17.6 1.1 26.1 1.1 63.7 0 118.5-19.6 156.2-56.4 17.2-16.8 27.1-40.3 27-64.5l-0.6-437.9z m-76.7 450.9c-27.6 27-72.5 39.5-126.2 35.1-61.8-5-129.1-30.9-194.8-75-74.4-50-161.3-63.5-251.4-39.2-21.3 5.7-40.3 12.9-56.5 20.2V205.7c40.2-23.3 155.9-77 267.8-1.8 69.3 46.5 145.7 76 221.1 85.2 16 2 31.7 2.9 46.8 2.9 36.2 0 69.5-5.5 98.1-16.3l0.5 376.5c0 4.9-1.9 9.6-5.3 12.9z" fill="#474747" p-id="4752"></path><path d="M701.6 405.1c-66.5 0-148.3-25.6-216.4-70.5-37.8-24.9-82.6-35.6-133.3-31.6-39.3 3.1-67.4 14.2-67.7 14.3-15.3 6.3-32.8-1.1-39.1-16.5-6.3-15.3 1.1-32.9 16.5-39.1 5.6-2.3 138.6-55.1 256.6 22.8 84.4 55.7 181.8 71.2 227.3 54 15.5-5.9 32.8 1.9 38.7 17.4 5.9 15.5-1.9 32.8-17.4 38.7-18.8 7.1-41 10.5-65.3 10.5z" fill="#4F95FC" p-id="4753"></path></svg>