<svg xmlns="http://www.w3.org/2000/svg" viewBox="0 0 1024 1024" version="1.1"><path d="M850 982.6H174c-48.8 0-88.4-39.7-88.4-88.4V129.8c0-48.8 39.7-88.4 88.4-88.4h676c48.8 0 88.4 39.7 88.4 88.4v764.4c0 48.8-39.7 88.4-88.4 88.4z m-676-868.1c-8.5 0-15.3 6.9-15.3 15.3v764.4c0 8.5 6.9 15.3 15.3 15.3h676c8.5 0 15.3-6.9 15.3-15.3V129.8c0-8.5-6.9-15.3-15.3-15.3H174z" fill="#474747" p-id="3908"></path><path d="M475.5 44.4h73.1v921.6h-73.1z" fill="#474747" p-id="3909"></path><path d="M431.7 464.9l-92.1-92.1c-0.9-1.2-1.8-2.4-2.9-3.4-5.4-5.4-12.6-8.1-19.6-8-7.1-0.1-14.2 2.6-19.6 8-1.1 1.1-2 2.2-2.9 3.4l-92.1 92.1c-10.7 10.7-10.7 28.1 0 38.8s28.1 10.7 38.8 0l48.5-48.5v181.3c0 15.1 12.3 27.4 27.4 27.4 15.1 0 27.4-12.3 27.4-27.4v-181.3l48.5 48.5c10.7 10.7 28.1 10.7 38.8 0s10.7-28.1 0-38.8zM598.5 560.4l92.1 92.1c0.9 1.2 1.8 2.4 2.9 3.4 5.4 5.4 12.6 8.1 19.6 8 7.1 0.1 14.2-2.6 19.6-8 1.1-1.1 2-2.2 2.9-3.4l92.1-92.1c10.7-10.7 10.7-28.1 0-38.8s-28.1-10.7-38.8 0l-48.5 48.5V388.8c0-15.1-12.3-27.4-27.4-27.4-15.1 0-27.4 12.3-27.4 27.4v181.3l-48.5-48.5c-10.7-10.7-28.1-10.7-38.8 0s-10.7 28.1 0 38.8z" fill="#4F95FC" p-id="3910"></path></svg>