<svg xmlns="http://www.w3.org/2000/svg" viewBox="0 0 1024 1024" version="1.1"><path d="M627.9 369.2h73.1V871.2h-73.1z" fill="#474747" p-id="3586"></path><path d="M849.2 911H174.8c-41.8 0-75.8-34-75.8-75.8V396.4c0-41.8 34-75.8 75.8-75.8h674.5c41.8 0 75.8 34 75.8 75.8v438.7c0 41.8-34 75.8-75.8 75.8zM174.8 393.7c-1.5 0-2.8 1.2-2.8 2.8v438.7c0 1.5 1.2 2.8 2.8 2.8h674.5c1.5 0 2.8-1.2 2.8-2.8V396.4c0-1.5-1.2-2.8-2.8-2.8H174.8z" fill="#474747" p-id="3587"></path><path d="M507.4 374.3L307.6 174.5c-13.2-13.2-13.2-34.5 0-47.6l4-4c13.2-13.2 34.5-13.2 47.6 0l199.8 199.8c13.2 13.2 13.2 34.5 0 47.6l-4 4c-13.2 13.2-34.5 13.2-47.6 0z" fill="#474747" p-id="3588"></path><path d="M489.7 328.3l132.2-132.2c11.8-11.8 31-11.8 42.8 0l8.9 8.9c11.8 11.8 11.8 31 0 42.8l-132.2 132.2c-11.8 11.8-31 11.8-42.8 0l-8.9-8.9c-11.8-11.8-11.8-31 0-42.8z" fill="#474747" p-id="3589"></path><path d="M780.5 543.2m-36.5 0a36.5 36.5 0 1 0 73.1 0 36.5 36.5 0 1 0-73.1 0Z" fill="#4F95FC" p-id="3590"></path><path d="M780.5 697.1m-36.5 0a36.5 36.5 0 1 0 73.1 0 36.5 36.5 0 1 0-73.1 0Z" fill="#4F95FC" p-id="3591"></path></svg>