<svg xmlns="http://www.w3.org/2000/svg" viewBox="0 0 1024 1024" version="1.1"><path d="M644.5 557.6c0-15.1-12.3-27.4-27.4-27.4H473.1l113.3-113.3c10.7-10.7 10.7-28.1 0-38.8s-28.1-10.7-38.8 0L388.3 537.6a28 28 0 0 0-4.2 5c-0.1 0.1-0.1 0.2-0.2 0.3-0.4 0.6-0.8 1.3-1.1 1.9-0.1 0.2-0.2 0.4-0.3 0.7-0.3 0.5-0.5 1.1-0.8 1.6-0.1 0.3-0.3 0.7-0.4 1-0.1 0.3-0.2 0.6-0.3 0.9-3.2 9.6-1.1 20.6 6.5 28.2 5.8 5.8 13.6 8.4 21.2 7.9h141.6L424.5 710.8c-10.7 10.7-10.7 28.1 0 38.8s28.1 10.7 38.8 0l169.6-169.6c7-5 11.5-13.1 11.5-22.3z" fill="#4F95FC" p-id="3986"></path><path d="M792.5 107.5h-84.7v-3.7c0-31.9-25.9-57.8-57.8-57.8h-270.7c-31.9 0-57.8 25.9-57.8 57.8v3.7h-90.1c-60.4 0-109.6 49.2-109.6 109.6V868.4c0 60.4 49.2 109.6 109.6 109.6h561.1c60.4 0 109.6-49.2 109.6-109.6V217.1c0-60.4-49.2-109.6-109.6-109.6z m-397.9 11.6h240.2v62.6H394.6v-62.6zM829.1 868.4c0 20.1-16.4 36.5-36.5 36.5h-561.1c-20.1 0-36.5-16.4-36.5-36.5V217.1c0-20.1 16.4-36.5 36.5-36.5h90.1v16.4c0 31.9 25.9 57.8 57.8 57.8h270.7c31.9 0 57.8-25.9 57.8-57.8v-16.4h84.7c20.1 0 36.5 16.4 36.5 36.5V868.4z" fill="#474747" p-id="3987"></path></svg>