<svg xmlns="http://www.w3.org/2000/svg" viewBox="0 0 1024 1024" version="1.1"><path d="M512 754.9c-24.1 0-46.2-12.1-59.2-32.3L345.4 555.4c-10.1-15.7-20.8-31.6-31.1-46.9l-6.7-10c-27.2-40.6-41.6-88-41.6-137 0-65.8 25.6-127.7 72.2-174.2 46.5-46.4 108.2-71.9 173.8-71.9h0.5c65 0.1 126.5 26 173.3 72.9 46.8 46.9 72.5 108.5 72.4 173.5-0.1 48.9-14.5 96.2-41.7 136.7l-6.4 9.6c-10.3 15.4-21 31.2-31.1 46.9L571.2 722.5c-13 20.2-35.1 32.3-59.2 32.3z m0-566.4c-46.2 0-89.6 17.9-122.2 50.6-32.8 32.7-50.8 76.2-50.8 122.5 0 34.5 10.1 67.8 29.2 96.3l6.7 9.9c10.5 15.7 21.4 31.9 31.9 48.2l105.2 163.6 105.4-164.1c10.5-16.3 21.4-32.5 31.9-48.2l6.4-9.5c19.1-28.4 29.2-61.6 29.3-96.1 0.1-93.8-79-173.1-172.7-173.3h-0.3z" fill="#474747" p-id="3707"></path><path d="M512 467.1c-54.6 0-99.1-44.5-99.1-99.1S457.4 268.9 512 268.9s99.1 44.5 99.1 99.1-44.5 99.1-99.1 99.1z m0-125.2c-14.4 0-26 11.7-26 26s11.7 26 26 26 26-11.7 26-26-11.7-26-26-26zM512 908.6c-99.5 0-193.5-15.3-264.9-43.2-36.9-14.4-66.5-31.7-87.7-51.3-32.8-30.3-39.7-60.7-39.7-80.9 0-19.1 6.2-47.9 35.7-77 19.2-18.9 45.9-35.8 79.4-50.1 18.6-7.9 40 0.7 48 19.2s-0.7 40-19.2 48c-52.2 22.3-70.7 46.3-70.7 59.9 0 15 21.2 40.8 81 64.1 63.1 24.6 147.7 38.2 238.3 38.2s175.2-13.6 238.3-38.2c59.8-23.3 81-49.1 81-64.1 0-13.6-18.2-37.3-69.6-59.5-18.5-8-27.1-29.5-19-48 8-18.5 29.5-27.1 48-19 33.1 14.3 59.5 31.1 78.5 49.9 29.1 29 35.2 57.6 35.2 76.6 0 20.2-6.9 50.6-39.7 80.9-21.3 19.6-50.8 36.9-87.7 51.3-71.3 27.8-165.4 43.2-264.9 43.2z" fill="#4F95FC" p-id="3708"></path></svg>