<svg xmlns="http://www.w3.org/2000/svg" viewBox="0 0 1024 1024" version="1.1"><path d="M760.1 810.5H263.9c-57.5 0-104.3-46.8-104.3-104.3V210c0-57.5 46.8-104.3 104.3-104.3H760.1c57.5 0 104.3 46.8 104.3 104.3v496.2c0 57.5-46.8 104.3-104.3 104.3zM263.9 178.7c-17.2 0-31.3 14-31.3 31.3v496.2c0 17.2 14 31.3 31.3 31.3H760.1c17.2 0 31.3-14 31.3-31.3V210c0-17.2-14-31.3-31.3-31.3H263.9z" fill="#474747" p-id="3848"></path><path d="M612.9 154.5h-73.1V95.5h-55.7v59h-73.1V86.1c0-35.7 24.6-63.7 55.9-63.7h89.9c31.4 0 55.9 28 55.9 63.7v68.4z" fill="#474747" p-id="3849"></path><path d="M680.6 533.3H343.4c-40.2 0-73-32.7-73-73V318.1c0-40.2 32.7-73 73-73h337.3c40.2 0 73 32.7 73 73v142.2c0 40.2-32.7 73-73 73zM343.4 299.9c-10 0-18.2 8.2-18.2 18.2v142.2c0 10 8.2 18.2 18.2 18.2h337.3c10 0 18.2-8.2 18.2-18.2V318.1c0-10-8.2-18.2-18.2-18.2H343.4z" fill="#4F95FC" p-id="3850"></path><path d="M347.5 624.5m-41.6 0a41.6 41.6 0 1 0 83.3 0 41.6 41.6 0 1 0-83.3 0Z" fill="#4F95FC" p-id="3851"></path><path d="M676.5 624.5m-41.6 0a41.6 41.6 0 1 0 83.3 0 41.6 41.6 0 1 0-83.3 0Z" fill="#4F95FC" p-id="3852"></path><path d="M370 818.9L242.4 988.3c-11.1 14.7-32 17.6-46.7 6.6-14.7-11.1-17.6-32-6.6-46.7L316.8 778.8c11.1-14.7 32-17.6 46.7-6.6 14.7 11.1 17.6 32 6.6 46.7zM654 818.9l127.7 169.4c11.1 14.7 32 17.6 46.7 6.6 14.7-11.1 17.6-32 6.6-46.7L707.2 778.8c-11.1-14.7-32-17.6-46.7-6.6-14.7 11.1-17.6 32-6.6 46.7zM638.3 881.9H395.2c-18.4 0-33.3 14.9-33.3 33.3s14.9 33.3 33.3 33.3h243c18.4 0 33.3-14.9 33.3-33.3s-14.9-33.3-33.3-33.3z" fill="#474747" p-id="3853"></path></svg>