<svg xmlns="http://www.w3.org/2000/svg" viewBox="0 0 1024 1024" version="1.1"><path d="M310.9 583c-57.3-37.6-91.4-100.9-91.4-169.3 0-111.6 90.8-202.4 202.4-202.4s202.4 90.8 202.4 202.4h-73.1c0-71.3-58-129.4-129.4-129.4S292.5 342.4 292.5 413.7c0 43.7 21.9 84.2 58.5 108.2L310.9 583zM498.4 202.6c-13.8-6.3-19.8-22.6-13.5-36.3l26-56.9c6.3-13.8 22.6-19.8 36.3-13.5 13.8 6.3 19.8 22.6 13.5 36.3l-26 56.9c-6.3 13.8-22.6 19.8-36.3 13.5zM327.8 203.1c-14.2 5.3-30-1.9-35.2-16.1l-21.8-58.6c-5.3-14.2 1.9-30 16.1-35.2 14.2-5.3 30 1.9 35.2 16.1l21.8 58.6c5.3 14.2-1.9 30-16.1 35.2zM207.5 324c-6.3 13.8-22.6 19.8-36.3 13.5l-56.9-26c-13.8-6.3-19.8-22.6-13.5-36.3 6.3-13.8 22.6-19.8 36.3-13.5l56.9 26c13.8 6.3 19.8 22.6 13.5 36.3zM208 494.6c5.3 14.2-1.9 30-16.1 35.2l-58.6 21.8c-14.2 5.3-30-1.9-35.2-16.1-5.3-14.2 1.9-30 16.1-35.2l58.6-21.8c14.2-5.3 30 1.9 35.2 16.1zM619.3 322.9c-5.3-14.2 1.9-30 16.1-35.2l58.6-21.8c14.2-5.3 30 1.9 35.2 16.1 5.3 14.2-1.9 30-16.1 35.2l-58.6 21.8c-14.2 5.3-30-1.9-35.2-16.1z" fill="#4F95FC" p-id="3796"></path><path d="M758.1 932.6H299.3l-23.6-0.1c-2 0.1-3.8 0.1-5.5 0.1-91.2 0-165.3-74.2-165.3-165.3 0-69.2 42.8-130.6 107.1-154.8 0-0.6 0.1-1.3 0.1-1.9 2-29.1 14.7-56.3 35.7-76.7 21-20.4 48.6-32.3 77.7-33.4 18.5-0.7 36.7 2.9 53.3 10.4 17-31.7 41.3-59 71.3-79.8 38.5-26.8 83.8-40.9 130.8-40.9 119 0 217.1 91 228.4 207.1 69.8 22.7 118.4 88.2 118.4 163.4 0 45.4-14.8 87.6-41.7 118.8-28.8 33.5-69.7 52.3-115.3 53h-0.5l-12.2 0zM299.5 859.6h458.5l11.8-0c58.3-1.1 84.8-51.9 84.8-98.8s-34-88.6-80.9-97.2c-21.1-3.9-36.4-22.3-36.4-43.8 0-86.3-70.2-156.4-156.4-156.4-64.9 0-122 39-145.7 99.4-5.7 14.5-18.1 25.6-33.2 29.7-15.1 4.1-31.5 0.7-43.8-9.1-6-4.8-16-10.3-30-9.8-22.8 0.9-41.8 19.4-43.4 42.1-0.1 1.1-0.1 2.2-0.1 3.3 0.1 27.6-17.5 52-43.7 60.7-37.8 12.5-63.2 47.7-63.2 87.6 0 50.9 41.4 92.3 92.3 92.3 1 0 2.2-0 3.5-0.1l0.8-0 25 0.1z m510.9-239.9z" fill="#474747" p-id="3797"></path></svg>