<svg xmlns="http://www.w3.org/2000/svg" viewBox="0 0 1024 1024" version="1.1"><path d="M908.3 654.1h-72v-97.6c0-182.5-145.5-331-324.3-331s-324.3 148.5-324.3 331v97.6h-72v-97.6c0-54.3 10.4-107 31.1-156.7 19.9-48 48.4-91.1 84.8-128.1 36.4-37 78.8-66.2 126-86.5 48.9-21.1 100.9-31.8 154.5-31.8s105.5 10.7 154.5 31.8c47.2 20.3 89.6 49.4 126 86.5 36.3 37 64.8 80.1 84.8 128.1 20.6 49.6 31.1 102.3 31.1 156.7v97.6z" fill="#474747" p-id="4710"></path><path d="M250.4 870.5h-56.3c-43.2 0-78.4-35.2-78.4-78.4V620.2c0-42.6 34.7-77.3 77.3-77.3h57.4c43.2 0 78.4 35.2 78.4 78.4v170.9c0 43.2-35.2 78.4-78.4 78.4z m-57.4-255.7c-2.9 0-5.3 2.4-5.3 5.3v172a6.4 6.4 0 0 0 6.4 6.4h56.3a6.4 6.4 0 0 0 6.4-6.4V621.3a6.4 6.4 0 0 0-6.4-6.4h-57.4zM829.8 870.5h-56.3c-43.2 0-78.4-35.2-78.4-78.4V620.2c0-42.6 34.7-77.3 77.3-77.3h57.4c43.2 0 78.4 35.2 78.4 78.4v170.9c0 43.2-35.2 78.4-78.4 78.4z m-57.4-255.7c-2.9 0-5.3 2.4-5.3 5.3v172a6.4 6.4 0 0 0 6.4 6.4h56.3a6.4 6.4 0 0 0 6.4-6.4V621.3a6.4 6.4 0 0 0-6.4-6.4h-57.4z" fill="#4F95FC" p-id="4711"></path></svg>