<svg xmlns="http://www.w3.org/2000/svg" viewBox="0 0 1024 1024" version="1.1"><path d="M628.2 395.2h-72V237.9c0-24.1-19.6-73.8-43.8-73.8s-43.8 49.6-43.8 73.8v156.8h-72V237.9c0-63.8 51.9-145.8 115.8-145.8s115.8 81.9 115.8 145.8v157.2zM370.9 931.8c-8.2 0-16.2-2.5-23-7.3-10.4-7.4-16.6-19.5-16.6-32.2l0-117.5c0-10.7 4.1-20.8 11.5-28.5l53.9-55.9v-84.1h72v113.2l-65.3 67.8v59.5l95.6-33c8.6-3 18.1-3 26.8 0l95 32.9v-59.4l-64.6-67V606.5h72v84.7l53.1 55c7.4 7.7 11.5 17.8 11.5 28.5l0 117.4c0 12.8-6.2 24.9-16.6 32.3-10.4 7.4-23.8 9.3-35.9 5.2l-127.9-44.3-128.5 44.3a39.4 39.4 0 0 1-12.9 2.2z" fill="#474747" p-id="5142"></path><path d="M156.5 716.7c-10.3 0-20.3-3.4-28.6-9.8-11.5-8.9-18.1-22.4-18.1-37V550.6c0-17.7 9.8-33.7 25.7-41.8l280.9-142.2 32.5 64.2-267.1 135.2v71.3l241.9-61.9 17.9 69.8-273.3 70c-3.9 1-7.8 1.5-11.7 1.5zM867.5 716.7c-3.9 0-7.8-0.5-11.7-1.5l-272.5-69.8 17.9-69.8 241.1 61.7v-71.3L575.9 431.3l32.5-64.2 280.1 141.8c15.8 8 25.7 24 25.7 41.8v119.3c0 14.6-6.6 28.1-18.1 37-8.3 6.5-18.4 9.8-28.6 9.8z" fill="#4F95FC" p-id="5143"></path><path d="M397.3 319.9h70.8v348.6h-70.8zM556.8 319.9h70.8v348.6h-70.8z" fill="#474747" p-id="5144"></path></svg>