<svg xmlns="http://www.w3.org/2000/svg" viewBox="0 0 1024 1024" version="1.1"><path d="M549 230.1m0 36l0 54.8q0 36-36 36l0 0q-36 0-36-36l0-54.8q0-36 36-36l0 0q36 0 36 36Z" fill="#4F95FC" p-id="4899"></path><path d="M549 421.4m0 36l0 54.8q0 36-36 36l0 0q-36 0-36-36l0-54.8q0-36 36-36l0 0q36 0 36 36Z" fill="#4F95FC" p-id="4900"></path><path d="M549 621m0 36l0 54.8q0 36-36 36l0 0q-36 0-36-36l0-54.8q0-36 36-36l0 0q36 0 36 36Z" fill="#4F95FC" p-id="4901"></path><path d="M90.6 218.7m36 0l770.8 0q36 0 36 36l0 0q0 36-36 36l-770.8 0q-36 0-36-36l0 0q0-36 36-36Z" fill="#474747" p-id="4902"></path><path d="M650.2 225.6m18 31.2l256.7 444.6q18 31.2-13.2 49.2l0 0q-31.2 18-49.2-13.2l-256.7-444.6q-18-31.2 13.2-49.2l0 0q31.2-18 49.2 13.2Z" fill="#474747" p-id="4903"></path><path d="M439.9 261.6m-18 31.2l-256.7 444.6q-18 31.2-49.2 13.2l0 0q-31.2-18-13.2-49.2l256.7-444.6q18-31.2 49.2-13.2l0 0q31.2 18 13.2 49.2Z" fill="#474747" p-id="4904"></path></svg>