<svg xmlns="http://www.w3.org/2000/svg" viewBox="0 0 1024 1024" version="1.1"><path d="M262.7 546.3l254.1-236.4 49.8 53.5-254.1 236.4zM351.1 713.7l18.6-70.6 335.6 88.6-18.6 70.6z" fill="#474747" p-id="3783"></path><path d="M781.2 888.3c-77.9 0-141.3-63.4-141.3-141.3S703.3 605.7 781.2 605.7s141.3 63.4 141.3 141.3-63.4 141.3-141.3 141.3z m0-209.6c-37.6 0-68.2 30.6-68.2 68.2s30.6 68.2 68.2 68.2 68.2-30.6 68.2-68.2-30.6-68.2-68.2-68.2zM589.1 418.3c-77.9 0-141.3-63.4-141.3-141.3s63.4-141.3 141.3-141.3 141.3 63.4 141.3 141.3-63.4 141.3-141.3 141.3z m0-209.6c-37.6 0-68.2 30.6-68.2 68.2s30.6 68.2 68.2 68.2 68.2-30.6 68.2-68.2-30.6-68.2-68.2-68.2z" fill="#474747" p-id="3784"></path><path d="M242.8 785c-77.9 0-141.3-63.4-141.3-141.3s63.4-141.3 141.3-141.3S384.1 565.8 384.1 643.7 320.7 785 242.8 785z m0-209.6c-37.6 0-68.2 30.6-68.2 68.2s30.6 68.2 68.2 68.2 68.2-30.6 68.2-68.2c0-37.6-30.6-68.2-68.2-68.2z" fill="#4F95FC" p-id="3785"></path></svg>