<svg xmlns="http://www.w3.org/2000/svg" viewBox="0 0 1024 1024" version="1.1"><path d="M428.8 488.8H162.6c-33.5 0-60.7-27.3-60.7-60.7V161.8c0-33.5 27.3-60.7 60.7-60.7H428.8c33.5 0 60.7 27.3 60.7 60.7v266.2c0 33.5-27.3 60.7-60.7 60.7z m-253.9-73.1h241.6V174.2H174.9v241.6zM861.4 488.8H595.2c-33.5 0-60.7-27.3-60.7-60.7V161.8c0-33.5 27.3-60.7 60.7-60.7h266.2c33.5 0 60.7 27.3 60.7 60.7v266.2c0 33.5-27.2 60.7-60.7 60.7z m-253.9-73.1H849.1V174.2H607.5v241.6zM428.8 922.9H162.6c-33.5 0-60.7-27.3-60.7-60.7V596c0-33.5 27.3-60.7 60.7-60.7H428.8c33.5 0 60.7 27.3 60.7 60.7v266.2c0 33.5-27.3 60.7-60.7 60.7z m-253.9-73.1h241.6V608.3H174.9v241.6z" fill="#474747" p-id="3733"></path><path d="M861.4 922.9H595.2c-33.5 0-60.7-27.3-60.7-60.7V596c0-33.5 27.3-60.7 60.7-60.7h266.2c33.5 0 60.7 27.3 60.7 60.7v266.2c0 33.5-27.2 60.7-60.7 60.7z m-253.9-73.1H849.1V608.3H607.5v241.6z" fill="#4F95FC" p-id="3734"></path></svg>