<svg xmlns="http://www.w3.org/2000/svg" viewBox="0 0 1024 1024" version="1.1"><path d="M835 842.6H189c-19.9 0-39-8.5-52.3-23.4-13.3-14.8-19.7-34.7-17.5-54.6l43.5-393.1c3.9-35.6 33.9-62.5 69.8-62.5h559c35.8 0 65.8 26.9 69.8 62.5l43.5 393.1a70.3 70.3 0 0 1-17.5 54.6 70.3 70.3 0 0 1-52.3 23.4z m-644-72h642l-43.1-389.5H234.1L191 770.6z" fill="#474747" p-id="4870"></path><path d="M651.8 494.3c-19.9 0-36-16.1-36-36V317.2c0-57.3-46.6-103.8-103.8-103.8s-103.8 46.6-103.8 103.8v141.1c0 19.9-16.1 36-36 36s-36-16.1-36-36V317.2c0-97 78.9-175.8 175.8-175.8s175.8 78.9 175.8 175.8v141.1c0 19.9-16.1 36-36 36z" fill="#4F95FC" p-id="4871"></path></svg>