<svg xmlns="http://www.w3.org/2000/svg" viewBox="0 0 1024 1024" version="1.1"><path d="M773.8 749.6H250.2c-40.5 0-73.5-33-73.5-73.5V582.6c0-40.5 33-73.5 73.5-73.5h523.7c40.5 0 73.5 33 73.5 73.5v93.5c0 40.5-33 73.5-73.5 73.5z m-523.7-168.5c-0.8 0-1.5 0.7-1.5 1.5v93.5c0 0.8 0.7 1.5 1.5 1.5h523.7c0.8 0 1.5-0.7 1.5-1.5v-93.5c0-0.8-0.7-1.5-1.5-1.5H250.2z" fill="#474747" p-id="4971"></path><path d="M165.9 811m36 0l620.1 0q36 0 36 36l0 0q0 36-36 36l-620.1 0q-36 0-36-36l0 0q0-36 36-36Z" fill="#4F95FC" p-id="4972"></path><path d="M591.2 581.1H432.8l-55.5-335.1c-5.2-31.2 3.6-62.9 24.1-87s50.3-38 81.9-38h57.4c31.6 0 61.5 13.8 81.9 37.9 20.4 24.1 29.2 55.8 24.1 87l-55.5 335.1z m-97.4-72h36.3l45.5-274.9c1.7-10.4-1.1-20.6-7.9-28.7s-16.4-12.5-27-12.5h-57.4c-10.6 0-20.2 4.4-27 12.5s-9.7 18.3-7.9 28.7l45.5 274.9z" fill="#474747" p-id="4973"></path></svg>