<svg xmlns="http://www.w3.org/2000/svg" viewBox="0 0 1024 1024" version="1.1"><path d="M354.3 992.4c-20.2 0-36.5-16.4-36.5-36.5v-64.5c0-20.2 16.4-36.5 36.5-36.5 20.2 0 36.5 16.4 36.5 36.5v64.5c0 20.2-16.4 36.5-36.5 36.5zM669.7 992.4c-20.2 0-36.5-16.4-36.5-36.5v-64.5c0-20.2 16.4-36.5 36.5-36.5 20.2 0 36.5 16.4 36.5 36.5v64.5c0 20.2-16.4 36.5-36.5 36.5z" fill="#474747" p-id="4523"></path><path d="M753.9 893.6H270.1c-46.2 0-83.8-37.6-83.8-83.8v-542.8c0-46.2 37.6-83.8 83.8-83.8h483.9c46.2 0 83.8 37.6 83.8 83.8v542.8c0 46.2-37.6 83.8-83.8 83.8zM270.1 256.2c-5.9 0-10.8 4.8-10.8 10.8v542.8c0 5.9 4.8 10.8 10.8 10.8h483.9c5.9 0 10.8-4.8 10.8-10.8v-542.8c0-5.9-4.8-10.8-10.8-10.8H270.1z" fill="#474747" p-id="4524"></path><path d="M672.9 245.9h-73.1V104.7H424.1v141.3h-73.1V98.7c0-37 30.1-67.1 67.1-67.1h187.7c37 0 67.1 30.1 67.1 67.1v147.2z" fill="#474747" p-id="4525"></path><path d="M420.8 743.5c-20.2 0-36.5-16.4-36.5-36.5V376.3c0-20.2 16.4-36.5 36.5-36.5 20.2 0 36.5 16.4 36.5 36.5v330.8c0 20.2-16.4 36.5-36.5 36.5zM609.6 743.5c-20.2 0-36.5-16.4-36.5-36.5V376.3c0-20.2 16.4-36.5 36.5-36.5 20.2 0 36.5 16.4 36.5 36.5v330.8c0 20.2-16.4 36.5-36.5 36.5z" fill="#4F95FC" p-id="4526"></path></svg>