<svg xmlns="http://www.w3.org/2000/svg" viewBox="0 0 1024 1024" version="1.1"><path d="M744.3 959.6H279.7c-49.2 0-89.3-40-89.3-89.3V153.7c0-49.2 40-89.3 89.3-89.3h464.6c49.2 0 89.3 40 89.3 89.3v716.6c0 49.2-40 89.3-89.3 89.3z m-464.6-823c-9.4 0-17.1 7.7-17.1 17.1v716.6c0 9.4 7.7 17.1 17.1 17.1h464.6c9.4 0 17.1-7.7 17.1-17.1V153.7c0-9.4-7.7-17.1-17.1-17.1H279.7z" fill="#474747" p-id="4214"></path><path d="M512 455.4c-71.9 0-130.3-58.5-130.3-130.3S440.1 194.8 512 194.8s130.3 58.5 130.3 130.3S583.9 455.4 512 455.4z m0-188.5c-32.1 0-58.2 26.1-58.2 58.2s26.1 58.2 58.2 58.2 58.2-26.1 58.2-58.2-26.1-58.2-58.2-58.2zM512 790.7c-71.9 0-130.3-58.5-130.3-130.3S440.1 530.1 512 530.1s130.3 58.5 130.3 130.3S583.9 790.7 512 790.7z m0-188.5c-32.1 0-58.2 26.1-58.2 58.2s26.1 58.2 58.2 58.2 58.2-26.1 58.2-58.2-26.1-58.2-58.2-58.2z" fill="#4F95FC" p-id="4215"></path><path d="M191.6 314.5h-70.1c-19.9 0-36.1-16.1-36.1-36.1 0-19.9 16.1-36.1 36.1-36.1h70.1c19.9 0 36.1 16.1 36.1 36.1 0 19.9-16.1 36.1-36.1 36.1zM191.6 664.9h-70.1c-19.9 0-36.1-16.1-36.1-36.1 0-19.9 16.1-36.1 36.1-36.1h70.1c19.9 0 36.1 16.1 36.1 36.1 0 19.9-16.1 36.1-36.1 36.1zM902.5 314.5h-70.1c-19.9 0-36.1-16.1-36.1-36.1 0-19.9 16.1-36.1 36.1-36.1h70.1c19.9 0 36.1 16.1 36.1 36.1 0 19.9-16.1 36.1-36.1 36.1zM902.5 664.9h-70.1c-19.9 0-36.1-16.1-36.1-36.1 0-19.9 16.1-36.1 36.1-36.1h70.1c19.9 0 36.1 16.1 36.1 36.1 0 19.9-16.1 36.1-36.1 36.1z" fill="#474747" p-id="4216"></path></svg>