<svg xmlns="http://www.w3.org/2000/svg" viewBox="0 0 1024 1024" version="1.1"><path d="M794.3 794H229.7c-45 0-81.6-36.6-81.6-81.6V162.3c0-45 36.6-81.6 81.6-81.6h564.6c45 0 81.6 36.6 81.6 81.6v550.1c0 45-36.6 81.6-81.6 81.6zM229.7 153.7c-4.7 0-8.6 3.9-8.6 8.6v550.1c0 4.7 3.9 8.6 8.6 8.6h564.6c4.7 0 8.6-3.9 8.6-8.6V162.3c0-4.7-3.9-8.6-8.6-8.6H229.7z" fill="#474747" p-id="4293"></path><path d="M366.8 336.2m-45.7 0a45.7 45.7 0 1 0 91.3 0 45.7 45.7 0 1 0-91.3 0Z" fill="#4F95FC" p-id="4294"></path><path d="M657.2 336.2m-45.7 0a45.7 45.7 0 1 0 91.3 0 45.7 45.7 0 1 0-91.3 0Z" fill="#4F95FC" p-id="4295"></path><path d="M628.3 583.9H395.7c-20.2 0-36.5-16.4-36.5-36.5 0-20.2 16.4-36.5 36.5-36.5h232.5c20.2 0 36.5 16.4 36.5 36.5 0 20.2-16.4 36.5-36.5 36.5z" fill="#4F95FC" p-id="4296"></path><path d="M837.5 943.3h-650.9c-20.2 0-36.5-16.4-36.5-36.5 0-20.2 16.4-36.5 36.5-36.5h650.9c20.2 0 36.5 16.4 36.5 36.5 0 20.2-16.4 36.5-36.5 36.5z" fill="#474747" p-id="4297"></path></svg>