<svg xmlns="http://www.w3.org/2000/svg" viewBox="0 0 1024 1024" version="1.1"><path d="M98 768.2m36 0l572.4 0q36 0 36 36l0 0q0 36-36 36l-572.4 0q-36 0-36-36l0 0q0-36 36-36Z" fill="#474747" p-id="4738"></path><path d="M330.6 403.5m36 0l112.9 0q36 0 36 36l0 0q0 36-36 36l-112.9 0q-36 0-36-36l0 0q0-36 36-36Z" fill="#4F95FC" p-id="4739"></path><path d="M653.9 840.2H192.3V248.7c0-53.5 43.5-97 97-97h267.7c53.5 0 97 43.5 97 97v591.5z m-389.6-72h317.6V248.7c0-13.8-11.2-24.9-24.9-24.9H289.2c-13.8 0-24.9 11.2-24.9 24.9v519.5z" fill="#474747" p-id="4740"></path><path d="M819.2 729.1c-54.5 0-98.7-44.3-98.7-98.7V476.8H621.7c-19.9 0-36-16.1-36-36s16.1-36 36-36h114.3c31.2 0 56.5 25.4 56.5 56.5v169.1c0 14.7 12 26.7 26.7 26.7s26.7-12 26.7-26.7V350.4l-67.8-76.4c-13.2-14.9-11.8-37.6 3-50.8 14.9-13.2 37.6-11.8 50.8 3l71.7 80.8a56.3 56.3 0 0 1 14.2 37.4v285.9c0 54.4-44.3 98.7-98.7 98.7z m-83.2-252.3z" fill="#474747" p-id="4741"></path></svg>