<svg xmlns="http://www.w3.org/2000/svg" viewBox="0 0 1024 1024" version="1.1"><path d="M681.6 947.2h-73.1V805H415.5V947.2h-73.1V786.1c0-29.9 24.3-54.2 54.2-54.2h230.8c29.9 0 54.2 24.3 54.2 54.2V947.2z" fill="#4F95FC" p-id="4168"></path><path d="M783.9 981.9H240.1c-61.8 0-112-50.3-112-112V154.2c0-61.8 50.3-112 112-112h543.8c61.8 0 112 50.3 112 112v715.6c0 61.8-50.3 112-112 112zM240.1 115.2c-21.5 0-39 17.5-39 39v715.6c0 21.5 17.5 39 39 39h543.8c21.5 0 39-17.5 39-39V154.2c0-21.5-17.5-39-39-39H240.1z" fill="#474747" p-id="4169"></path><path d="M341.3 254.8m-36.5 0a36.5 36.5 0 1 0 73.1 0 36.5 36.5 0 1 0-73.1 0Z" fill="#4F95FC" p-id="4170"></path><path d="M512.1 254.8m-5.9 36.1a36.5 36.5 0 1 0 11.7-72.1 36.5 36.5 0 1 0-11.7 72.1Z" fill="#4F95FC" p-id="4171"></path><path d="M682.5 254.8m-36.5 0a36.5 36.5 0 1 0 73.1 0 36.5 36.5 0 1 0-73.1 0Z" fill="#4F95FC" p-id="4172"></path><path d="M341.5 425.3m-36.5 0a36.5 36.5 0 1 0 73.1 0 36.5 36.5 0 1 0-73.1 0Z" fill="#4F95FC" p-id="4173"></path><path d="M512.3 425.3m-36.5 0a36.5 36.5 0 1 0 73.1 0 36.5 36.5 0 1 0-73.1 0Z" fill="#4F95FC" p-id="4174"></path><path d="M682.5 425.3m-36.5 0a36.5 36.5 0 1 0 73.1 0 36.5 36.5 0 1 0-73.1 0Z" fill="#4F95FC" p-id="4175"></path><path d="M341.5 595.7m-36.5 0a36.5 36.5 0 1 0 73.1 0 36.5 36.5 0 1 0-73.1 0Z" fill="#4F95FC" p-id="4176"></path><path d="M512.3 595.7m-36.5 0a36.5 36.5 0 1 0 73.1 0 36.5 36.5 0 1 0-73.1 0Z" fill="#4F95FC" p-id="4177"></path><path d="M682.7 595.7m-36.5 0a36.5 36.5 0 1 0 73.1 0 36.5 36.5 0 1 0-73.1 0Z" fill="#4F95FC" p-id="4178"></path></svg>