<svg xmlns="http://www.w3.org/2000/svg" viewBox="0 0 1024 1024" version="1.1"><path d="M327.3 533.6c-20.2 0-36.5-16.4-36.5-36.5V282.6c0-20.2 16.4-36.5 36.5-36.5 20.2 0 36.5 16.4 36.5 36.5v214.5c0 20.2-16.4 36.5-36.5 36.5zM646.7 548.5c0-20.2 16.4-36.5 36.5-36.5h128c20.2 0 36.5 16.4 36.5 36.5 0 20.2-16.4 36.5-36.5 36.5H683.2c-20.2 0-36.5-16.4-36.5-36.5zM646.7 724.6c0-20.2 16.4-36.5 36.5-36.5h128c20.2 0 36.5 16.4 36.5 36.5 0 20.2-16.4 36.5-36.5 36.5H683.2c-20.2 0-36.5-16.4-36.5-36.5zM442.4 954h-73.1V749.6c0-0.5-0.4-0.9-0.9-0.9h-86.6c-0.5 0-0.9 0.4-0.9 0.9v204.5h-73.1V749.6c0-40.8 33.2-74 74-74h86.6c40.8 0 74 33.2 74 74v204.5z" fill="#4F95FC" p-id="3745"></path><path d="M492.9 979.3H161.8c-60.4 0-109.6-49.2-109.6-109.6V154.3c0-60.4 49.2-109.6 109.6-109.6h331.2c60.4 0 109.6 49.2 109.6 109.6v715.4c0 60.4-49.2 109.6-109.6 109.6zM161.8 117.8c-20.1 0-36.5 16.4-36.5 36.5v715.4c0 20.1 16.4 36.5 36.5 36.5h331.2c20.1 0 36.5-16.4 36.5-36.5V154.3c0-20.1-16.4-36.5-36.5-36.5H161.8z" fill="#474747" p-id="3746"></path><path d="M874 979.3H458.5v-73.1h415.5c13.7 0 24.8-11.1 24.8-24.8v-485c0-13.7-11.1-24.8-24.8-24.8H580.3v-73.1h293.7c54 0 97.9 43.9 97.9 97.9v485c0 54-43.9 97.9-97.9 97.9z" fill="#474747" p-id="3747"></path></svg>