<svg xmlns="http://www.w3.org/2000/svg" viewBox="0 0 1024 1024" version="1.1"><path d="M459.6 950.2h-270.2c-37.9 0-68.8-30.9-68.8-68.8V448.3c0-31.5 21.3-58.9 51.8-66.7l270.2-68.8c20.7-5.3 42.3-0.8 59.2 12.3 16.9 13.1 26.6 32.9 26.6 54.3v501.9c0 37.9-30.9 68.8-68.8 68.8z m-265.9-73.1H455.3V385l-261.6 66.6v425.5z" fill="#474747" p-id="3693"></path><path d="M822.7 950.2H524.1c-37.9 0-68.8-30.9-68.8-68.8v-744.9c0-21.6 9.8-41.5 26.9-54.6 17.1-13.1 38.9-17.4 59.7-11.9l298.6 80.1c30 8.1 51 35.4 51 66.4v664.8c0 37.9-30.9 68.8-68.8 68.8z m-294.3-73.1h290V219.9l-290-77.8v735z" fill="#474747" p-id="3694"></path><path d="M943.2 956.3H80.8c-20.2 0-36.5-16.4-36.5-36.5 0-20.2 16.4-36.5 36.5-36.5h862.3c20.2 0 36.5 16.4 36.5 36.5 0 20.2-16.4 36.5-36.5 36.5z" fill="#474747" p-id="3695"></path><path d="M268 539.1c0-20.2 16.4-36.5 36.5-36.5h63.9c20.2 0 36.5 16.4 36.5 36.5 0 20.2-16.4 36.5-36.5 36.5h-63.9c-20.2 0-36.5-16.4-36.5-36.5zM268 723.6c0-20.2 16.4-36.5 36.5-36.5h63.9c20.2 0 36.5 16.4 36.5 36.5 0 20.2-16.4 36.5-36.5 36.5h-63.9c-20.2 0-36.5-16.4-36.5-36.5zM616.1 539.1c0-20.2 16.4-36.5 36.5-36.5h63.9c20.2 0 36.5 16.4 36.5 36.5 0 20.2-16.4 36.5-36.5 36.5h-63.9c-20.2 0-36.5-16.4-36.5-36.5zM616.1 355.8c0-20.2 16.4-36.5 36.5-36.5h63.9c20.2 0 36.5 16.4 36.5 36.5 0 20.2-16.4 36.5-36.5 36.5h-63.9c-20.2 0-36.5-16.4-36.5-36.5zM616.1 723.6c0-20.2 16.4-36.5 36.5-36.5h63.9c20.2 0 36.5 16.4 36.5 36.5 0 20.2-16.4 36.5-36.5 36.5h-63.9c-20.2 0-36.5-16.4-36.5-36.5z" fill="#4F95FC" p-id="3696"></path></svg>