<svg xmlns="http://www.w3.org/2000/svg" viewBox="0 0 1024 1024" version="1.1"><path d="M364.6 979.9H136.8c-50.4 0-91.3-41-91.3-91.3V558.2c0-50.4 41-91.3 91.3-91.3h138.8v73.1H136.8c-10.1 0-18.3 8.2-18.3 18.3v330.4c0 10.1 8.2 18.3 18.3 18.3h227.8v73.1zM881.1 979.9H603.3v-73.1h277.9c13.4 0 24.4-10.9 24.4-24.4v-452.8c0-13.4-10.9-24.4-24.4-24.4H756.8v-73.1h124.3c53.7 0 97.4 43.7 97.4 97.4v452.8c0 53.7-43.7 97.4-97.4 97.4z" fill="#474747" p-id="4375"></path><path d="M699.4 979.9H333.3c-60.4 0-109.6-49.2-109.6-109.6V153.7c0-60.4 49.2-109.6 109.6-109.6h366.1c60.4 0 109.6 49.2 109.6 109.6v716.6c0 60.4-49.2 109.6-109.6 109.6zM333.3 117.2c-20.1 0-36.5 16.4-36.5 36.5v716.6c0 20.1 16.4 36.5 36.5 36.5h366.1c20.1 0 36.5-16.4 36.5-36.5V153.7c0-20.1-16.4-36.5-36.5-36.5h-366.1z" fill="#474747" p-id="4376"></path><path d="M605.3 292H423.4c-20.2 0-36.5-16.4-36.5-36.5 0-20.2 16.4-36.5 36.5-36.5h181.9c20.2 0 36.5 16.4 36.5 36.5s-16.4 36.5-36.5 36.5zM605.3 461.9H423.4c-20.2 0-36.5-16.4-36.5-36.5 0-20.2 16.4-36.5 36.5-36.5h181.9c20.2 0 36.5 16.4 36.5 36.5 0 20.2-16.4 36.5-36.5 36.5zM605.3 631.9H423.4c-20.2 0-36.5-16.4-36.5-36.5 0-20.2 16.4-36.5 36.5-36.5h181.9c20.2 0 36.5 16.4 36.5 36.5 0 20.2-16.4 36.5-36.5 36.5zM605.3 801.9H423.4c-20.2 0-36.5-16.4-36.5-36.5 0-20.2 16.4-36.5 36.5-36.5h181.9c20.2 0 36.5 16.4 36.5 36.5 0 20.2-16.4 36.5-36.5 36.5z" fill="#4F95FC" p-id="4377"></path></svg>