<svg xmlns="http://www.w3.org/2000/svg" viewBox="0 0 1024 1024" version="1.1"><path d="M655.7 758.1H405.8v-73.1h246.7" fill="#474747" p-id="3821"></path><path d="M833.6 685h62.1c7.4 0 13.4-6 13.4-13.4V455.5c0-1.6-0.6-3.2-1.6-4.4L728.8 246.7a6.7 6.7 0 0 0-5-2.3H131.7c-9.3 0-16.9 7.6-16.9 16.9v402.6c0 11.7 9.5 21.2 21.2 21.2h80.8v73.1H136.1c-52 0-94.3-42.3-94.3-94.3V261.3c0-49.6 40.3-89.9 89.9-89.9h592c23 0 44.9 9.9 60 27.3l178.7 204.4a79.7 79.7 0 0 1 19.7 52.5v216.2c0 47.7-38.8 86.5-86.5 86.5h-58.8" fill="#474747" p-id="3822"></path><path d="M85.6 408h842.6v73.1H85.6z" fill="#474747" p-id="3823"></path><path d="M321.9 204.4H395v245.7h-73.1zM605.7 204.4h73.1v245.7h-73.1z" fill="#474747" p-id="3824"></path><path d="M298.1 852.7c-70.7 0-128.2-57.5-128.2-128.2s57.5-128.2 128.2-128.2S426.3 653.8 426.3 724.5s-57.5 128.2-128.2 128.2z m0-183.3c-30.4 0-55.1 24.7-55.1 55.1s24.7 55.1 55.1 55.1 55.1-24.7 55.1-55.1-24.7-55.1-55.1-55.1zM737.5 852.7c-70.7 0-128.2-57.5-128.2-128.2s57.5-128.2 128.2-128.2 128.2 57.5 128.2 128.2-57.5 128.2-128.2 128.2z m0-183.3c-30.4 0-55.1 24.7-55.1 55.1s24.7 55.1 55.1 55.1 55.1-24.7 55.1-55.1-24.7-55.1-55.1-55.1z" fill="#4F95FC" p-id="3825"></path></svg>