<svg xmlns="http://www.w3.org/2000/svg" viewBox="0 0 1024 1024" version="1.1"><path d="M155.5 633.7c-6.3 0-12.8-1.7-18.6-5.2-17-10.3-22.5-32.4-12.2-49.4L376.5 162.1l20.2-0.2c12.6-0.1 24.1 6.2 30.9 16.9l0.1 0.1 187.3 299.9L692.8 376l10.9-14.4 18.1 0.2c11.3 0.1 22 5.6 28.7 14.7l146.9 199.9c11.8 16 8.3 38.5-7.7 50.3-16 11.8-38.5 8.3-50.3-7.7l-118.4-161.1-80.1 105.8-11.4 15.2-19.1-0.8a36 36 0 0 1-29-16.9L397.5 266.5 186.4 616.3c-6.8 11.2-18.7 17.4-30.9 17.4z" fill="#474747" p-id="4943"></path><path d="M821.1 553.8c-5.2 0-10.5-1.1-15.6-3.6-17.9-8.6-25.5-30.1-16.9-48 12.3-25.7 18.6-53.3 18.6-82.1 0-104.7-85.2-189.9-189.9-189.9-51.4 0-99.5 20.2-135.5 56.9-13.9 14.2-36.7 14.4-50.9 0.5s-14.4-36.7-0.5-50.9c24.1-24.6 52.3-43.9 83.8-57.4 32.6-14 67.3-21.1 103.1-21.1 70 0 135.7 27.2 185.2 76.7 49.5 49.5 76.7 115.2 76.7 185.2 0 39.7-8.7 77.8-25.7 113.3-6.2 12.9-19.1 20.4-32.5 20.4z" fill="#474747" p-id="4944"></path><path d="M210.8 655.5m36 0l478.3 0q36 0 36 36l0 0q0 36-36 36l-478.3 0q-36 0-36-36l0 0q0-36 36-36Z" fill="#4F95FC" p-id="4945"></path><path d="M391.6 773.8m36 0l57.1 0q36 0 36 36l0 0q0 36-36 36l-57.1 0q-36 0-36-36l0 0q0-36 36-36Z" fill="#4F95FC" p-id="4946"></path><path d="M585.3 773.8m36 0l220.8 0q36 0 36 36l0 0q0 36-36 36l-220.8 0q-36 0-36-36l0 0q0-36 36-36Z" fill="#4F95FC" p-id="4947"></path></svg>