<svg xmlns="http://www.w3.org/2000/svg" viewBox="0 0 1024 1024" version="1.1"><path d="M512 960.1c-22.1 0-42.9-8.6-58.6-24.3L88.2 570.5c-32.3-32.3-32.3-84.8 0-117.2L453.4 88.2c32.3-32.3 84.8-32.3 117.2 0l365.3 365.3c32.3 32.3 32.3 84.8 0 117.2L570.6 935.8c-15.7 15.7-36.5 24.3-58.6 24.3z m0-823.1c-2.5 0-5 0.9-6.9 2.9L139.8 505.1c-3.8 3.8-3.8 10 0 13.8l365.3 365.3c2.4 2.4 5.1 2.9 6.9 2.9s4.5-0.5 6.9-2.9l365.3-365.3c3.8-3.8 3.8-10 0-13.8L518.9 139.8a9.8 9.8 0 0 0-6.9-2.9z" fill="#474747" p-id="3758"></path><path d="M512.4 561.5c-20.2 0-36.5-16.4-36.5-36.5V312.8c0-20.2 16.4-36.5 36.5-36.5 20.2 0 36.5 16.4 36.5 36.5v212.2c0 20.2-16.4 36.5-36.5 36.5z" fill="#4F95FC" p-id="3759"></path><path d="M512.4 684.3m-45.7 0a45.7 45.7 0 1 0 91.3 0 45.7 45.7 0 1 0-91.3 0Z" fill="#4F95FC" p-id="3760"></path></svg>