<svg xmlns="http://www.w3.org/2000/svg" viewBox="0 0 1024 1024" version="1.1"><path d="M768.2 458.1l68.6-68.6c56-56 57.1-147.3 1.3-203.4-55.9-56.2-147-56.3-203-0.3l-67.9 67.9c-7.2 7.2-18.1 9-27.4 4.6-41.7-19.5-93-12.1-127.4 22.4l-21.6 21.6c-25.4 25.4-25.4 66.7 0 92.1l234.1 234.1c25.4 25.4 66.7 25.4 92.1 0l21.6-21.6c33-33 41.2-81.7 24.5-122.5-3.7-9-1.8-19.4 5.1-26.3z m19.1-220.9c27.5 28.1 26.6 73.3-1.1 101.1l-78.1 78.1c-0.2 0.2-0.6 0.2-0.8 0L607.2 316.2a0.6 0.6 0 0 1 0-0.8l78.7-78.7c28-28 73.6-27.8 101.4 0.5zM670.9 572.7L446.5 348.3l16.8-16.8c15.8-15.8 41.6-15.8 57.5 0l166.9 166.9c15.8 15.8 15.8 41.6 0 57.5l-16.8 16.8z" fill="#474747" p-id="4777"></path><path d="M247.1 571.7H585.1v75H247.1z" fill="#4F95FC" p-id="4778"></path><path d="M156 868.7c-10.6-10.6-14.2-26.5-9.3-40.6l18.4-52.5a93.4 93.4 0 0 0 5.2-28l2.8-89.1c0.6-18.6 8.1-36.1 21.3-49.2l256.5-256.5 219.9 219.9-256.6 256.6c-13.1 13.1-30.4 20.6-48.8 21.3l-88.3 3.2c-9.7 0.3-19.2 2.2-28.3 5.5l-51.9 18.7c-14.1 5.1-30.1 1.5-40.8-9l-0.1-0.1z m294.9-414.1L245.3 660.1c-0.1 0.1-0.2 0.3-0.2 0.5l-2.8 89.1a164.8 164.8 0 0 1-5.6 37.7c12.3-3.4 24.9-5.3 37.7-5.8l88.3-3.2c0.2 0 0.4-0.1 0.5-0.2l205.7-205.7L450.9 454.6z" fill="#474747" p-id="4779"></path></svg>