<svg xmlns="http://www.w3.org/2000/svg" viewBox="0 0 1024 1024" version="1.1"><path d="M156.7 712.4m19.9 0l670.8 0q19.9 0 19.9 19.9l0 100q0 19.9-19.9 19.9l-670.8 0q-19.9 0-19.9-19.9l0-100q0-19.9 19.9-19.9Z" fill="#FFFFFF" p-id="4882"></path><path d="M847.4 888.1H176.6c-30.8 0-55.9-25.1-55.9-55.9v-100c0-30.8 25.1-55.9 55.9-55.9h670.8c30.8 0 55.9 25.1 55.9 55.9v100c0 30.8-25.1 55.9-55.9 55.9z m-654.6-72h638.5V748.4H192.7v67.7z" fill="#474747" p-id="4883"></path><path d="M840.8 730.9h-72V611.9c0-141.6-115.2-256.8-256.8-256.8S255.2 470.3 255.2 611.9v119h-72V611.9c0-44.4 8.7-87.4 25.9-128 16.6-39.2 40.3-74.3 70.5-104.5s65.3-53.9 104.5-70.5c40.6-17.1 83.6-25.9 128-25.9s87.4 8.7 128 25.9c39.2 16.6 74.3 40.3 104.5 70.5 30.2 30.2 53.9 65.3 70.5 104.5 17.1 40.6 25.9 83.6 25.9 128v119z" fill="#474747" p-id="4884"></path><path d="M159 225.5m26.6-24.2l0 0q26.6-24.2 50.9 2.4l47.6 52.3q24.2 26.6-2.4 50.9l0 0q-26.6 24.2-50.9-2.4l-47.6-52.3q-24.2-26.6 2.4-50.9Z" fill="#474747" p-id="4885"></path><path d="M769 331.1m-26.6-24.2l0 0q-26.6-24.2-2.4-50.9l47.6-52.3q24.2-26.6 50.9-2.4l0 0q26.6 24.2 2.4 50.9l-47.6 52.3q-24.2 26.6-50.9 2.4Z" fill="#474747" p-id="4886"></path><path d="M475.1 115.9m36 0l0 0q36 0 36 36l0 70.7q0 36-36 36l0 0q-36 0-36-36l0-70.7q0-36 36-36Z" fill="#474747" p-id="4887"></path><path d="M659.8 612.1c-14.5 0-27.2-10.5-29.6-25.3-9.7-60.3-93.5-94.9-94.3-95.2-15.4-6.2-22.8-23.6-16.7-39 6.2-15.4 23.6-22.9 39-16.7 4.7 1.9 116.1 47.4 131.2 141.4 2.6 16.4-8.5 31.8-24.9 34.4-1.6 0.3-3.2 0.4-4.8 0.4z" fill="#4F95FC" p-id="4888"></path></svg>