<svg xmlns="http://www.w3.org/2000/svg" viewBox="0 0 1024 1024" version="1.1"><path d="M79 785.9m36 0l794 0q36 0 36 36l0 0q0 36-36 36l-794 0q-36 0-36-36l0 0q0-36 36-36Z" fill="#474747" p-id="5047"></path><path d="M656.6 857.9H168.5v-483.2c0-34 19.8-65.4 50.4-80.1l335.6-161.3c22.2-10.7 47.9-9.2 68.8 3.9 20.9 13.1 33.3 35.6 33.3 60.3v660.5z m-416.1-72h344.1V198.6L250.1 359.4c-5.8 2.8-9.6 8.8-9.6 15.2v411.2z" fill="#474747" p-id="5048"></path><path d="M856.7 857.9H584.6V340.2h199.7c39.9 0 72.4 32.5 72.4 72.4v445.3z m-200.1-72h128.1V412.6c0-0.2-0.2-0.4-0.4-0.4H656.6v373.7z" fill="#474747" p-id="5049"></path><path d="M312.2 396.8m36 0l0 0q36 0 36 36l0 61.5q0 36-36 36l0 0q-36 0-36-36l0-61.5q0-36 36-36Z" fill="#4F95FC" p-id="5050"></path><path d="M312.2 577.4m36 0l0 0q36 0 36 36l0 61.5q0 36-36 36l0 0q-36 0-36-36l0-61.5q0-36 36-36Z" fill="#4F95FC" p-id="5051"></path><path d="M448.2 396.8m36 0l0 0q36 0 36 36l0 61.5q0 36-36 36l0 0q-36 0-36-36l0-61.5q0-36 36-36Z" fill="#4F95FC" p-id="5052"></path><path d="M448.2 577.4m36 0l0 0q36 0 36 36l0 61.5q0 36-36 36l0 0q-36 0-36-36l0-61.5q0-36 36-36Z" fill="#4F95FC" p-id="5053"></path></svg>