<svg xmlns="http://www.w3.org/2000/svg" viewBox="0 0 1024 1024" version="1.1"><path d="M745.2 490.7H278.8c-123 0-223.1-100.1-223.1-223.1S155.8 44.5 278.8 44.5h466.4c123 0 223.1 100.1 223.1 223.1S868.2 490.7 745.2 490.7z m-466.4-373.1c-82.7 0-150 67.3-150 150s67.3 150 150 150h466.4c82.7 0 150-67.3 150-150s-67.3-150-150-150H278.8z" fill="#474747" p-id="4049"></path><path d="M278.4 351.8c-48.9 0-88.6-39.8-88.6-88.6s39.8-88.6 88.6-88.6 88.6 39.8 88.6 88.6-39.8 88.6-88.6 88.6z m0-122.4c-18.6 0-33.8 15.2-33.8 33.8S259.7 297 278.4 297s33.8-15.2 33.8-33.8-15.2-33.8-33.8-33.8z" fill="#4F95FC" p-id="4050"></path><path d="M745.2 979.5H278.8c-123 0-223.1-100.1-223.1-223.1s100.1-223.1 223.1-223.1h466.4c123 0 223.1 100.1 223.1 223.1S868.2 979.5 745.2 979.5z m-466.4-373.1c-82.7 0-150 67.3-150 150s67.3 150 150 150h466.4c82.7 0 150-67.3 150-150s-67.3-150-150-150H278.8z" fill="#474747" p-id="4051"></path><path d="M745.6 849.4c-48.9 0-88.6-39.8-88.6-88.6s39.8-88.6 88.6-88.6 88.6 39.8 88.6 88.6-39.8 88.6-88.6 88.6z m0-122.4c-18.6 0-33.8 15.2-33.8 33.8s15.2 33.8 33.8 33.8 33.8-15.2 33.8-33.8-15.2-33.8-33.8-33.8z" fill="#4F95FC" p-id="4052"></path></svg>