<svg xmlns="http://www.w3.org/2000/svg" viewBox="0 0 1024 1024" version="1.1"><path d="M509.1 850.4c-98 0-192.3-30.1-272.8-87C157.9 708 97.8 631 62.2 540.7a56.8 56.8 0 0 1-0.8-39.5c16.5-47.2 40-91.5 69.6-131.6 29.4-39.7 64.2-74.6 103.7-103.6 82.1-60.4 179-92.4 280.3-92.4s192.3 30.1 272.8 87c78.3 55.4 138.5 132.4 174.1 222.8a56.7 56.7 0 0 1 0.8 39.5c-16.5 47.2-40 91.5-69.6 131.6-29.4 39.7-64.2 74.6-103.7 103.6-82.1 60.4-179 92.4-280.3 92.4zM132.4 519.6c64.3 156.8 211.4 257.8 376.6 257.8s322.6-109.4 382.5-272.9C827.3 347.6 680.1 246.7 514.9 246.7c-169.6 0-322.6 109.4-382.5 272.9z" fill="#474747" p-id="4101"></path><path d="M512 684.5c-95.1 0-172.5-77.4-172.5-172.5S416.9 339.5 512 339.5s172.5 77.4 172.5 172.5S607.1 684.5 512 684.5z m0-272c-54.8 0-99.5 44.6-99.5 99.5s44.6 99.5 99.5 99.5 99.5-44.6 99.5-99.5-44.6-99.5-99.5-99.5z" fill="#4F95FC" p-id="4102"></path></svg>