<svg xmlns="http://www.w3.org/2000/svg" viewBox="0 0 1024 1024" version="1.1"><path d="M900.5 679.6H123.5c-43.4 0-78.7-35.3-78.7-78.7V248.1c0-43.4 35.3-78.7 78.7-78.7h777.1c43.4 0 78.7 35.3 78.7 78.7v352.8c0 43.4-35.3 78.7-78.7 78.7zM123.5 242.4c-3.1 0-5.7 2.5-5.7 5.7v352.8c0 3.1 2.5 5.7 5.7 5.7h777.1c3.1 0 5.7-2.5 5.7-5.7V248.1c0-3.1-2.5-5.7-5.7-5.7H123.5z" fill="#474747" p-id="3934"></path><path d="M71.7 489.6h878.6v73.1H71.7z" fill="#474747" p-id="3935"></path><path d="M843.2 347.9H726.5c-15.1 0-27.4-12.3-27.4-27.4 0-15.1 12.3-27.4 27.4-27.4h116.7c15.1 0 27.4 12.3 27.4 27.4 0 15.1-12.3 27.4-27.4 27.4z" fill="#4F95FC" p-id="3936"></path><path d="M129.7 827.3v-81.6c0-15.1 12.3-27.4 27.4-27.4 15.1 0 27.4 12.3 27.4 27.4v81.6c0 15.1-12.3 27.4-27.4 27.4-15.1 0-27.4-12.3-27.4-27.4zM308.1 827.3v-81.6c0-15.1 12.3-27.4 27.4-27.4 15.1 0 27.4 12.3 27.4 27.4v81.6c0 15.1-12.3 27.4-27.4 27.4-15.1 0-27.4-12.3-27.4-27.4zM486.5 827.3v-81.6c0-15.1 12.3-27.4 27.4-27.4 15.1 0 27.4 12.3 27.4 27.4v81.6c0 15.1-12.3 27.4-27.4 27.4-15.1 0-27.4-12.3-27.4-27.4zM664.8 827.3v-81.6c0-15.1 12.3-27.4 27.4-27.4 15.1 0 27.4 12.3 27.4 27.4v81.6c0 15.1-12.3 27.4-27.4 27.4-15.1 0-27.4-12.3-27.4-27.4zM843.2 827.3v-81.6c0-15.1 12.3-27.4 27.4-27.4 15.1 0 27.4 12.3 27.4 27.4v81.6c0 15.1-12.3 27.4-27.4 27.4-15.1 0-27.4-12.3-27.4-27.4z" fill="#474747" p-id="3937"></path></svg>