<svg xmlns="http://www.w3.org/2000/svg" viewBox="0 0 1024 1024" version="1.1"><path d="M516.8 245.7l261.6 261.6-50.9 50.9-261.6-261.6z" fill="#4F95FC" p-id="4790"></path><path d="M451.6 573.8c-47.3-47.3-73.3-110.2-73.3-177.1 0-66.9 26-129.8 73.3-177.1 47.3-47.3 110.2-73.3 177.1-73.3 66.9 0 129.8 26 177.1 73.3 47.3 47.3 73.3 110.2 73.3 177.1 0 66.9-26 129.8-73.3 177.1-47.3 47.3-110.2 73.3-177.1 73.3s-129.8-26-177.1-73.3zM754.8 270.6c-69.5-69.5-182.7-69.5-252.3 0-69.5 69.5-69.5 182.7 0 252.3 69.5 69.5 182.7 69.5 252.3 0 69.5-69.5 69.5-182.7 0-252.3z" fill="#474747" p-id="4791"></path><path d="M204 860.2l-41.6-41.6c-20.9-20.9-23.3-54.6-5.5-78.2l241.1-320.6 57.5 43.3-234.7 312.2 26.6 26.6L559.6 567.1l43.3 57.5-320.6 241.1c-23.7 17.8-57.3 15.4-78.2-5.5z" fill="#474747" p-id="4792"></path></svg>