<svg xmlns="http://www.w3.org/2000/svg" viewBox="0 0 1024 1024" version="1.1"><path d="M348.4 242.9c-79.5 0-135.1-3.5-138.3-3.8-19.8-1.3-34.9-18.4-33.6-38.3 1.3-19.8 18.4-34.9 38.3-33.6 4.2 0.3 402.2 25 581.2-60.6 17.9-8.6 39.4-1 48 16.9s1 39.4-16.9 48c-83.2 39.8-212.7 63.2-384.9 69.6-33.5 1.2-65.2 1.7-93.8 1.7z" fill="#474747" p-id="5224"></path><path d="M470.6 353.8l75.3-162.1 65.3 30.3L535.9 384.1z" fill="#474747" p-id="5225"></path><path d="M641.7 900.9H382.1c-21.4 0-41.4-11.5-52.1-30.1L200.2 646c-10.7-18.6-10.7-41.6 0-60.1L330 361c10.7-18.6 30.7-30.1 52.1-30.1h259.6c21.4 0 41.4 11.5 52.1 30.1l129.8 224.8c10.7 18.6 10.7 41.6 0 60.1L693.8 870.8c-10.7 18.6-30.7 30.1-52.1 30.1z m-252.8-72h245.9L757.8 615.9 634.8 402.9H388.9L265.9 615.9l123 213z" fill="#474747" p-id="5226"></path><path d="M774.5 579.9v72H224.4v-72z" fill="#474747" p-id="5227"></path><path d="M639.3 687.5m0 30l0 0q0 30-30 30l-90.9 0q-30 0-30-30l0 0q0-30 30-30l90.9 0q30 0 30 30Z" fill="#4F95FC" p-id="5228"></path></svg>