<svg xmlns="http://www.w3.org/2000/svg" viewBox="0 0 1024 1024" version="1.1"><path d="M512.1 310.5c-90.4 0-164-73.6-164-164v-43.8c0-19.9 16.1-36 36-36s36 16.1 36 36v43.8c0 50.7 41.3 92 92 92s92-41.3 92-92v-43.8c0-19.9 16.1-36 36-36s36 16.1 36 36v43.8c0 90.4-73.6 164-164 164z" fill="#474747" p-id="5196"></path><path d="M597.6 525.6H428.4a77.6 77.6 0 0 1-64.1-33.8l-78-113.8c-8.9-13-13.6-28.2-13.6-43.9s4.7-30.9 13.6-43.9l78.2-114.1c11.2-16.4 33.6-20.6 50-9.3 16.4 11.2 20.6 33.6 9.3 50l-78.2 114.1c-1.3 1.9-1.3 4.5 0 6.4l78 113.8a5.7 5.7 0 0 0 4.7 2.5h169.3c1.9 0 3.6-0.9 4.7-2.5l78-113.8c1.3-1.9 1.3-4.5 0-6.4l-74-108c-11.2-16.4-7.1-38.8 9.3-50 16.4-11.2 38.8-7.1 50 9.3l74 108c8.9 13 13.6 28.2 13.6 43.9s-4.7 30.9-13.6 43.9L661.7 491.8a77.6 77.6 0 0 1-64.1 33.8z" fill="#474747" p-id="5197"></path><path d="M788.4 948H223.3c-19.3 0-37-9.6-47.5-25.8-10.3-16-11.7-35.8-3.9-53.1l173.9-382.7c9.1-20 29.2-32.9 51.3-32.9H614.4c22.1 0 42.2 12.9 51.3 32.9l173.9 382.6c7.8 17.3 6.4 37.1-3.9 53.1-10.4 16.1-28.1 25.8-47.5 25.8z m-14.2-49.1zM247.9 876h515.8L604.4 525.6H407.3L247.9 876z" fill="#474747" p-id="5198"></path><path d="M569.7 629.8m21.9-9.8l0 0q21.9-9.8 31.7 12.1l56.1 124.9q9.8 21.9-12.1 31.7l0 0q-21.9 9.8-31.7-12.1l-56.1-124.9q-9.8-21.9 12.1-31.7Z" fill="#4F95FC" p-id="5199"></path></svg>