<svg xmlns="http://www.w3.org/2000/svg" viewBox="0 0 1024 1024" version="1.1"><path d="M478.7 703.4m24 0l0 0q24 0 24 24l0 30.7q0 24-24 24l0 0q-24 0-24-24l0-30.7q0-24 24-24Z" fill="#4F95FC" p-id="4984"></path><path d="M478.7 810.4m24 0l0 0q24 0 24 24l0 30.7q0 24-24 24l0 0q-24 0-24-24l0-30.7q0-24 24-24Z" fill="#4F95FC" p-id="4985"></path><path d="M622.6 703.4m24 0l0 0q24 0 24 24l0 30.7q0 24-24 24l0 0q-24 0-24-24l0-30.7q0-24 24-24Z" fill="#4F95FC" p-id="4986"></path><path d="M622.6 810.4m24 0l0 0q24 0 24 24l0 30.7q0 24-24 24l0 0q-24 0-24-24l0-30.7q0-24 24-24Z" fill="#4F95FC" p-id="4987"></path><path d="M766.4 703.4m24 0l0 0q24 0 24 24l0 30.7q0 24-24 24l0 0q-24 0-24-24l0-30.7q0-24 24-24Z" fill="#4F95FC" p-id="4988"></path><path d="M695.5 757.6m24 0l0 0q24 0 24 24l0 30.7q0 24-24 24l0 0q-24 0-24-24l0-30.7q0-24 24-24Z" fill="#4F95FC" p-id="4989"></path><path d="M554.8 757.6m24 0l0 0q24 0 24 24l0 30.7q0 24-24 24l0 0q-24 0-24-24l0-30.7q0-24 24-24Z" fill="#4F95FC" p-id="4990"></path><path d="M766.4 810.4m24 0l0 0q24 0 24 24l0 30.7q0 24-24 24l0 0q-24 0-24-24l0-30.7q0-24 24-24Z" fill="#4F95FC" p-id="4991"></path><path d="M728.4 409.4h-72v-70.5h-37.1v70.5h-72v-93.4c0-27.1 22-49.1 49.1-49.1h82.8c27.1 0 49.1 22 49.1 49.1v93.4z" fill="#474747" p-id="4992"></path><path d="M856.7 670.7H415c-16.9 0-33.2-7.2-44.5-19.8-11.3-12.6-16.8-29.6-15-46.5 7.4-68.8 39.8-132.3 91.3-178.9 51.9-46.9 119.1-72.8 189.1-72.8s137.2 25.9 189.1 72.8c51.5 46.6 84 110.1 91.3 178.9a60 60 0 0 1-15 46.5 59.9 59.9 0 0 1-44.5 19.8z m-427.8-72H842.8c-17.2-100.1-103.9-174-206.9-174s-189.8 73.9-206.9 174zM637.9 338.9c-19.9 0-36-16.1-36-36v-96H143.4c-19.9 0-36-16.1-36-36s16.1-36 36-36h464.7c36.3 0 65.8 29.5 65.8 65.8v102.2c0 19.9-16.1 36-36 36z m-29.8-132z" fill="#474747" p-id="4993"></path></svg>