<svg xmlns="http://www.w3.org/2000/svg" viewBox="0 0 1024 1024" version="1.1"><path d="M640.5 355.8H289a40 40 0 0 1-24.7-8.6l-97-76.5c-9.2-7.3-14.5-18.1-14.5-29.8s5.3-22.6 14.5-29.8l97-76.5a40 40 0 0 1 24.7-8.6h351.6c22 0 39.8 17.9 39.8 39.8v150.1c0 22-17.9 39.8-39.8 39.8z m-340.4-72h308.2v-85.7H300.1l-54.4 42.9 54.4 42.9zM735 624.2H383.5c-22 0-39.8-17.9-39.8-39.8V434.3c0-22 17.9-39.8 39.8-39.8h351.6c8.9 0 17.7 3 24.6 8.6l97 76.5c9.2 7.3 14.5 18.1 14.5 29.8s-5.3 22.6-14.5 29.8l-97 76.5c-7 5.5-15.8 8.6-24.7 8.6z m-319.4-72h308.2l54.4-42.9-54.4-42.9H415.7v85.7z" fill="#474747" p-id="5018"></path><path d="M545.1 162.1V82.1c0-19.9-16.1-36-36-36s-36 16.1-36 36v80h72zM473.1 319.8h72v110.6h-72zM473.1 588.2v310.4c0 19.9 16.1 36 36 36s36-16.1 36-36V588.2h-72z" fill="#474747" p-id="5019"></path><path d="M685.1 905.9m0 36l0 0q0 36-36 36l-280.1 0q-36 0-36-36l0 0q0-36 36-36l280.1 0q36 0 36 36Z" fill="#4F95FC" p-id="5020"></path></svg>