<svg xmlns="http://www.w3.org/2000/svg" viewBox="0 0 1024 1024" version="1.1"><path d="M694.3 840.5H141.1c-53.3 0-96.7-43.4-96.7-96.7v-463.5c0-53.3 43.4-96.7 96.7-96.7h553.2c53.3 0 96.7 43.4 96.7 96.7v463.5c0 53.3-43.4 96.7-96.7 96.7zM141.1 248c-17.8 0-32.3 14.5-32.3 32.3v463.5c0 17.8 14.5 32.3 32.3 32.3h553.2c17.8 0 32.3-14.5 32.3-32.3V280.3c0-17.8-14.5-32.3-32.3-32.3H141.1z" fill="#474747" p-id="3921"></path><path d="M905.8 743.4c-12.7 0-25.4-3.3-36.9-10l-136.3-78.7 32.3-55.9 136.3 78.7c4.1 2.4 7.6 1 9.4 0 1.8-1 4.7-3.4 4.7-8.1V354.6c0-4.7-2.9-7.1-4.7-8.1-1.8-1-5.3-2.4-9.4 0l-136.3 78.7-32.3-55.9 136.3-78.7c23.1-13.3 50.8-13.4 73.9 0 23.1 13.3 36.9 37.3 36.9 64v314.8c0 26.7-13.8 50.6-36.9 64-11.6 6.7-24.3 10-36.9 10z" fill="#474747" p-id="3922"></path><path d="M361.4 645.7c-11.8 0-23.6-3.1-34.3-9.3-21.5-12.4-34.3-34.6-34.3-59.4V447c0-24.8 12.8-47 34.3-59.4 21.5-12.4 47.1-12.4 68.6 0l112.6 65c21.5 12.4 34.3 34.6 34.3 59.4s-12.8 47-34.3 59.4l-112.6 65c-10.7 6.2-22.5 9.3-34.3 9.3z m0-202.9c-0.6 0-1.3 0.1-2.1 0.6-2.1 1.2-2.1 2.9-2.1 3.6v130c0 0.7 0 2.4 2.1 3.6 2.1 1.2 3.6 0.3 4.1 0l112.6-65c0.6-0.3 2.1-1.2 2.1-3.6s-1.5-3.3-2.1-3.6l-112.6-65c-0.3-0.2-1.1-0.6-2-0.6z" fill="#4F95FC" p-id="3923"></path></svg>