<svg xmlns="http://www.w3.org/2000/svg" viewBox="0 0 1024 1024" version="1.1"><path d="M476 113.4m36 0l0 0q36 0 36 36l0 62.3q0 36-36 36l0 0q-36 0-36-36l0-62.3q0-36 36-36Z" fill="#474747" p-id="4915"></path><path d="M803.4 464.1h-72V271.8a2.7 2.7 0 0 0-0.3-0H292.9c-0.1 0-0.2 0-0.3 0v192.3h-72V270.3c0-38.9 32.4-70.6 72.3-70.6h438.3c39.9 0 72.3 31.7 72.3 70.6v193.7z" fill="#474747" p-id="4916"></path><path d="M516.8 910.6h-9.6l-55.8-13.8c-62.9-15.3-122.2-45.3-171.7-87-49.5-41.6-89.3-95-115.1-154.4-6.1-14-9.2-28.9-9.3-44.2l-0.3-113.7c-0.1-22.4 14.2-41.9 35.5-48.6l303.6-96c5.8-1.9 12-2.3 17.9-1.6a41.5 41.5 0 0 1 17.9 1.6l303.6 96c21.3 6.7 35.6 26.3 35.5 48.6l-0.3 113.7c-0 15.3-3.2 30.2-9.3 44.2-25.8 59.4-65.6 112.7-115.1 154.4-49.5 41.6-108.9 71.7-171.7 86.9l-55.8 13.8zM227 512.9l0.3 98.2c0 5.5 1.1 10.8 3.3 15.8 43.3 99.7 132.2 174.5 237.9 200.1l0.1 0 43.4 10.7 43.6-10.8c105.6-25.6 194.5-100.4 237.9-200.1 2.2-5 3.3-10.3 3.3-15.8l0.3-98.2-248.8-78.7 0.3 231.1c0 19.9-16.1 36-36 36h-1.2c-19.9-0-36-16.2-36-36l0.3-231.1-248.8 78.7z" fill="#474747" p-id="4917"></path><path d="M317.3 290.8m24 0l80 0q24 0 24 24l0 0q0 24-24 24l-80 0q-24 0-24-24l0 0q0-24 24-24Z" fill="#4F95FC" p-id="4918"></path><path d="M543.2 290.8m24 0l30.1 0q24 0 24 24l0 0q0 24-24 24l-30.1 0q-24 0-24-24l0 0q0-24 24-24Z" fill="#4F95FC" p-id="4919"></path><path d="M633.1 290.8m24 0l30.1 0q24 0 24 24l0 0q0 24-24 24l-30.1 0q-24 0-24-24l0 0q0-24 24-24Z" fill="#4F95FC" p-id="4920"></path></svg>