<svg xmlns="http://www.w3.org/2000/svg" viewBox="0 0 1024 1024" version="1.1"><path d="M795.9 397h-73.1V152.7H299.7v244.3h-73.1V150.2c0-38.9 32-70.6 71.5-70.6h426.4c39.4 0 71.5 31.7 71.5 70.6v246.8z" fill="#474747" p-id="3719"></path><path d="M512 807.7c-99.4 0-194.2-37.2-267.1-104.7-72.5-67.1-116.7-158.1-124.7-256.2-1.4-17.6 4.6-35.2 16.6-48.2 12-13 29.1-20.5 46.8-20.5h656.8c17.7 0 34.8 7.5 46.8 20.5 12 13 18.1 30.6 16.6 48.2-8 98.1-52.2 189.1-124.7 256.2-72.8 67.5-167.7 104.7-267.1 104.7zM194.1 451.1C212.3 610.9 350 734.6 512 734.6s299.7-123.7 317.9-283.5H194.1z" fill="#474747" p-id="3720"></path><path d="M656.2 944.4H372.2c-19.4 0-37.3-8.7-49.3-23.9-12-15.2-16.4-34.7-11.9-53.5l25-105.8c6.7-28.5 31.9-48.5 61.2-48.5v73.1c4.7 0 8.8-3.2 9.9-7.8l-22 93.4h258.4l-22-93.4c1.1 4.6 5.1 7.8 9.9 7.8v-73.1c29.3 0 54.5 19.9 61.2 48.5l25 105.8c4.4 18.8 0.1 38.3-11.9 53.5-12 15.2-30 23.9-49.3 23.9z" fill="#474747" p-id="3721"></path><path d="M504.6 297.5H401.6c-20.2 0-36.5-16.4-36.5-36.5 0-20.2 16.4-36.5 36.5-36.5h103c20.2 0 36.5 16.4 36.5 36.5s-16.4 36.5-36.5 36.5z" fill="#4F95FC" p-id="3722"></path></svg>