<svg xmlns="http://www.w3.org/2000/svg" viewBox="0 0 1024 1024" version="1.1"><path d="M385.9 558.2l-70.8-13.1c0.6-3.1 14.6-77.8 42.1-161.9 16.4-50.1 34.2-93.2 53.1-128 25.6-47.4 52.6-79.6 82.7-98.3l38.1 61.1c-35.6 22.2-72.9 88.5-105.2 186.9-26.1 79.6-39.8 152.6-40 153.4z" fill="#4F95FC" p-id="5088"></path><path d="M628.2 558.2l70.8-13.1c-0.6-3.1-14.6-77.8-42.1-161.9-16.4-50.1-34.2-93.2-53.1-128-25.6-47.4-52.6-79.6-82.7-98.3l-38.1 61.1c35.6 22.2 72.9 88.5 105.2 186.9 26.1 79.6 39.8 152.6 40 153.4z" fill="#4F95FC" p-id="5089"></path><path d="M173.2 872.6c-11.3 0-22.5-3-32.6-9.1-19.5-11.6-31.1-32.1-31.1-54.8V553.9c0-54.3 10.7-107.1 31.6-156.7 20.3-47.9 49.3-91 86.3-128s80-66 128-86.3c49.6-21 102.4-31.6 156.7-31.6s107.1 10.7 156.7 31.6c47.9 20.3 91 49.3 128 86.3s66 80 86.3 128c21 49.6 31.6 102.4 31.6 156.7v254.8c0 22.7-11.6 43.2-31.1 54.8-19.5 11.6-43.1 12.1-63.1 1.3-83.5-45.3-178.1-69.2-273.7-69.2h-69.1c-95.6 0-190.3 23.9-273.7 69.2-9.6 5.2-20.1 7.8-30.5 7.8zM477.4 723.6h69.1c54.7 0 109 6.8 161.5 20.3 46.6 12 91.8 29.2 134.6 51.2V553.9c0-182.3-148.3-330.6-330.6-330.6s-330.6 148.3-330.6 330.6v241.2c42.8-22.1 88-39.3 134.6-51.2 52.5-13.5 106.8-20.3 161.5-20.3z" fill="#474747" p-id="5090"></path><path d="M165 679.8l-39.2-60.4c104.7-67.9 226.3-103.8 351.6-103.8h69.1c125.3 0 246.9 35.9 351.6 103.8l-39.2 60.4c-93-60.3-201.1-92.2-312.4-92.2h-69.1c-111.4 0-219.4 31.9-312.4 92.2z" fill="#474747" p-id="5091"></path></svg>