<svg xmlns="http://www.w3.org/2000/svg" viewBox="0 0 1024 1024" version="1.1"><path d="M244 764l-57.3-43.5 32.3-42.5 1.5-129.3c0.2-13.6 4.4-26.6 12.3-37.6l91.3-127c19.4-26.9 55.9-35.2 85-19.3l83.3 45.8 114.2-19.2 71.9-73.4 23.2-126.7 70.8 13-23.6 128.6a65.4 65.4 0 0 1-17.7 34.1l-74.7 76.2c-9.8 10-22.3 16.5-36 18.8l-118.3 19.9c-14.5 2.4-29.6-0.1-42.5-7.2l-80.4-44.1-86.8 120.8-1.5 129.4c-0.2 14-4.9 27.8-13.4 39L244 764.1zM712.1 861.3l-86.8-60-36.2-8.4c-38.7-9-63.8-46.7-57.2-85.8l11.8-69.6c4.3-25.5 21.1-46.8 45-56.8l82.5-34.7a74.9 74.9 0 0 1 29.2-5.9h51c20.4 0 40.3 8.5 54.4 23.2l73.7 77.1-52 49.8-73.7-77.1a3.3 3.3 0 0 0-2.4-1h-51c-0.4 0-0.9 0.1-1.3 0.3l-82.5 34.7a3.3 3.3 0 0 0-1.9 2.5l-11.8 69.6c-0.3 1.7 0.8 3.3 2.5 3.7l49.6 11.5 98.1 67.8-41 59.2z" fill="#4F95FC" p-id="5064"></path><path d="M510.8 937.3c-57.2 0-112.8-11.2-165.1-33.3-50.5-21.4-95.8-51.9-134.8-90.9-38.9-38.9-69.5-84.3-90.9-134.8C97.9 626 86.7 570.5 86.7 513.2s11.2-112.8 33.3-165.1c21.4-50.5 51.9-95.8 90.9-134.8s84.3-69.5 134.8-90.9c52.3-22.1 107.8-33.3 165.1-33.3s112.8 11.2 165.1 33.3c50.5 21.4 95.8 51.9 134.8 90.9 38.9 38.9 69.5 84.3 90.9 134.8 22.1 52.3 33.3 107.8 33.3 165.1S923.6 626 901.5 678.3c-21.4 50.5-51.9 95.8-90.9 134.8s-84.3 69.5-134.8 90.9c-52.3 22.1-107.8 33.3-165.1 33.3z m0-776.2c-194.1 0-352.1 157.9-352.1 352.1S316.6 865.3 510.8 865.3s352.1-157.9 352.1-352.1-157.9-352.1-352.1-352.1z" fill="#474747" p-id="5065"></path></svg>