<svg xmlns="http://www.w3.org/2000/svg" viewBox="0 0 1024 1024" version="1.1"><path d="M512 1013.3c-56.1 0-110.5-11-161.7-32.7-49.5-20.9-93.9-50.9-132-89-38.1-38.1-68.1-82.5-89-132-21.7-51.2-32.7-105.6-32.7-161.7s11-110.5 32.7-161.7c20.9-49.5 50.9-93.9 89-132 38.1-38.1 82.5-68.1 132-89 51.2-21.7 105.6-32.7 161.7-32.7s110.5 11 161.7 32.7c49.5 20.9 93.9 50.9 132 89 38.1 38.1 68.1 82.5 89 132 21.7 51.2 32.7 105.6 32.7 161.7s-11 110.5-32.7 161.7c-20.9 49.5-50.9 93.9-89 132-38.1 38.1-82.5 68.1-132 89-51.2 21.7-105.6 32.7-161.7 32.7z m0-757.7c-188.8 0-342.3 153.6-342.3 342.3S323.2 940.2 512 940.2 854.3 786.7 854.3 597.9 700.8 255.6 512 255.6z" fill="#474747" p-id="4322"></path><path d="M512 659.3c-20.2 0-36.6-16.4-36.6-36.6V418.1c0-20.2 16.4-36.6 36.6-36.6s36.6 16.4 36.6 36.6v204.7c0 20.2-16.4 36.6-36.6 36.6z" fill="#4F95FC" p-id="4323"></path><path d="M316.9 47.3c0 20.2 16.4 36.6 36.6 36.6h319.5c20.2 0 36.6-16.4 36.6-36.6s-16.4-36.6-36.6-36.6H353.5c-20.2 0-36.6 16.4-36.6 36.6zM755.7 312c-14.3-14.3-14.3-37.4 0-51.7l70.3-70.3c14.3-14.3 37.4-14.3 51.7 0 14.3 14.3 14.3 37.4 0 51.7l-70.3 70.3c-14.3 14.3-37.4 14.3-51.7 0z" fill="#474747" p-id="4324"></path></svg>