<svg xmlns="http://www.w3.org/2000/svg" viewBox="0 0 1024 1024" version="1.1"><path d="M723.3 796.2H296.4V515.3c0-30.3 24.7-55 55-55h316.9c30.3 0 55 24.7 55 55v280.9z m-354.9-72h282.9V532.3H368.4v191.9z" fill="#4F95FC" p-id="5102"></path><path d="M344.5 591.6h335.2v72h-335.2z" fill="#4F95FC" p-id="5103"></path><path d="M920.3 278c19.4-4.1 31.9-23.3 27.7-42.7-4.1-19.4-23.3-31.9-42.7-27.7L103.7 378.2c-19.4 4.1-31.9 23.3-27.7 42.7 4.1 19.4 23.3 31.9 42.7 27.7l19.4-4.1v280.8h-23.9c-19.9 0-36 16.1-36 36s16.1 36 36 36h788.4c19.9 0 36-16.1 36-36s-16.1-36-36-36h-20.3V286.1l38.1-8.1z m-110.1 447.3h-600.2V429.2l600.2-127.8v423.9z" fill="#474747" p-id="5104"></path></svg>