<svg xmlns="http://www.w3.org/2000/svg" viewBox="0 0 1024 1024" version="1.1"><path d="M949.9 182.9H74.1c-20.2 0-36.5-16.4-36.5-36.5 0-20.2 16.4-36.5 36.5-36.5h875.7c20.2 0 36.5 16.4 36.5 36.5 0 20.2-16.4 36.5-36.5 36.5zM486.8 859.4V658.2c0-10.1 8.2-18.3 18.3-18.3s18.3 8.2 18.3 18.3v201.2c0 10.1-8.2 18.3-18.3 18.3s-18.3-8.2-18.3-18.3z" fill="#474747" p-id="4335"></path><path d="M807.5 708h-604.9c-50.8 0-92.1-41.3-92.1-92.1V109.8H899.6v506.1c0 50.8-41.3 92.1-92.1 92.1z m-623.9-525.1v433.1c0 10.5 8.5 19 19 19h604.9c10.5 0 19-8.5 19-19V182.9h-642.9z" fill="#474747" p-id="4336"></path><path d="M505.1 877.6m-36.5 0a36.5 36.5 0 1 0 73.1 0 36.5 36.5 0 1 0-73.1 0Z" fill="#474747" p-id="4337"></path><path d="M461.4 539.8c-10 0-20-2.6-29.2-7.9-18.3-10.6-29.2-29.4-29.2-50.5V343.9c0-21.1 10.9-40 29.2-50.5 18.3-10.6 40.1-10.6 58.4 0l119 68.7c18.3 10.6 29.2 29.4 29.2 50.5s-10.9 40-29.2 50.5l-119 68.7c-9.1 5.3-19.2 7.9-29.2 7.9z m6.8-184.2v114l98.7-57-98.7-57z m108.9 62.9z" fill="#4F95FC" p-id="4338"></path></svg>