<svg xmlns="http://www.w3.org/2000/svg" viewBox="0 0 1024 1024" version="1.1"><path d="M754.8 915.3H269.2c-43.8 0-79.4-35.6-79.4-79.4V536.9c0-63.7 51.8-115.5 115.5-115.5h413.4c63.7 0 115.5 51.8 115.5 115.5v299c0 43.8-35.6 79.4-79.4 79.4zM305.3 493.4c-24 0-43.5 19.5-43.5 43.5v299c0 4.1 3.3 7.4 7.4 7.4h485.6c4.1 0 7.4-3.3 7.4-7.4V536.9c0-24-19.5-43.5-43.5-43.5H305.3z" fill="#474747" p-id="5210"></path><path d="M476 164.3h72v130.1h-72z" fill="#4F95FC" p-id="5211"></path><path d="M714 240.5c-12.5 0-24.7-6.5-31.3-18.2l-5.5-9.6c-11.2-19.8-32.3-32-55-32H414c-19.9 0-36-16.1-36-36s16.1-36 36-36h208.1c48.5 0 93.6 26.2 117.6 68.4l5.5 9.6c9.8 17.3 3.8 39.3-13.5 49.1a35.9 35.9 0 0 1-17.8 4.7z" fill="#4F95FC" p-id="5212"></path><path d="M715.9 490.2H303.3V375.8c0-55.2 44.9-100.2 100.2-100.2h212.3c55.2 0 100.2 44.9 100.2 100.2v114.3z m-340.6-72H643.9v-42.4c0-15.5-12.6-28.2-28.2-28.2H403.5c-15.5 0-28.2 12.6-28.2 28.2v42.4z" fill="#474747" p-id="5213"></path></svg>