<svg xmlns="http://www.w3.org/2000/svg" viewBox="0 0 1024 1024" version="1.1"><path d="M243 850.8c-80.1 0-145.3-65.2-145.3-145.3s65.2-145.3 145.3-145.3 145.3 65.2 145.3 145.3-65.2 145.3-145.3 145.3z m0-218.7c-40.4 0-73.3 32.9-73.3 73.3s32.9 73.3 73.3 73.3 73.3-32.9 73.3-73.3-32.9-73.3-73.3-73.3zM781 850.8c-80.1 0-145.3-65.2-145.3-145.3s65.2-145.3 145.3-145.3 145.3 65.2 145.3 145.3-65.2 145.3-145.3 145.3z m0-218.7c-40.4 0-73.3 32.9-73.3 73.3s32.9 73.3 73.3 73.3 73.3-32.9 73.3-73.3-32.9-73.3-73.3-73.3z" fill="#4F95FC" p-id="4858"></path><path d="M648.4 369.2c-59.5 0-108-48.4-108-108s48.4-108 108-108 108 48.4 108 108-48.4 108-108 108z m0-143.9c-19.8 0-36 16.1-36 36s16.1 36 36 36 36-16.1 36-36-16.1-36-36-36zM511.6 839.7c-19.9 0-36-16.1-36-36V642.9l-121.9-121.9c-20.8-20.8-20.8-54.7 0-75.5l89.6-89.6c9.7-9.7 22.7-15.1 36.4-15.1s26.7 5.4 36.4 15.1l87.8 87.8h133.4c19.9 0 36 16.1 36 36s-16.1 36-36 36H598.2c-15.5 0-30-6-41-17l-77.5-77.5-62 62 111.4 111.4c11.9 11.9 18.4 27.7 18.4 44.5v164.5c0 19.9-16.1 36-36 36z" fill="#474747" p-id="4859"></path></svg>