<svg xmlns="http://www.w3.org/2000/svg" viewBox="0 0 1024 1024" version="1.1"><path d="M907.1 760.6H739.2c-84 0-152.4-68.4-152.4-152.4v-4c0-84 68.4-152.4 152.4-152.4h167.9v73.1H739.2c-43.8 0-79.3 35.6-79.3 79.3v4c0 43.8 35.6 79.3 79.3 79.3h167.9v73.1z" fill="#4F95FC" p-id="4076"></path><path d="M750.8 606.2m-36.5 0a36.5 36.5 0 1 0 73.1 0 36.5 36.5 0 1 0-73.1 0Z" fill="#4F95FC" p-id="4077"></path><path d="M856.6 268.4h-27.9l-72.8-139.3c-23.3-44.6-78.6-62-123.2-38.7L292.1 268.4H167.3c-50.4 0-91.3 41-91.3 91.3v492.9c0 50.4 41 91.3 91.3 91.3h689.3c50.4 0 91.3-41 91.3-91.3V359.7c0-50.4-41-91.3-91.3-91.3zM666.6 155.2c8.9-4.7 20-1.2 24.6 7.7l55.1 105.5H449.9l216.7-113.2z m208.4 697.4c0 10.1-8.2 18.3-18.3 18.3h-689.3c-10.1 0-18.3-8.2-18.3-18.3V359.7c0-10.1 8.2-18.3 18.3-18.3h689.3c10.1 0 18.3 8.2 18.3 18.3v492.9z" fill="#474747" p-id="4078"></path></svg>