<svg xmlns="http://www.w3.org/2000/svg" viewBox="0 0 1024 1024" version="1.1"><path d="M578 699.4h-0.2c-29.6 0-55.5-21.1-61.7-50.2-8.6-40.5-44.9-69.9-86.4-69.9s-77.8 29.4-86.4 69.9c-6.2 29.1-32.1 50.2-61.7 50.2h-0.2c-109.5 0-198.5-89.1-198.5-198.5s89.1-198.5 198.5-198.5h296.5c109.5 0 198.5 89.1 198.5 198.5s-89.1 198.5-198.5 198.5z m-148.2-192.1c37 0 73 12.9 101.6 36.3 26.2 21.5 45.1 51 53.6 83.6 66.6-3.6 119.6-58.9 119.6-126.3s-56.8-126.5-126.5-126.5H281.5c-69.8 0-126.5 56.8-126.5 126.5s53.1 122.8 119.6 126.3c8.5-32.6 27.3-62.1 53.6-83.6 28.5-23.4 64.6-36.3 101.6-36.3z" fill="#474747" p-id="5031"></path><path d="M729.1 534.9v-72h153v72zM576.1 698.9v-72h280.3v72z" fill="#474747" p-id="5032"></path><path d="M744.1 827.3H492.6c-19.9 0-36-16.1-36-36s16.1-36 36-36h251.6c45 0 81.7-36.6 81.7-81.7v-545.6c0-19.9 16.1-36 36-36s36 16.1 36 36v545.6c0 84.8-69 153.7-153.7 153.7z" fill="#474747" p-id="5033"></path><path d="M420.9 886.1c-52.3 0-94.8-42.5-94.8-94.9s42.5-94.8 94.8-94.8 94.9 42.5 94.9 94.8-42.5 94.9-94.9 94.9z m0-117.7c-12.6 0-22.9 10.3-22.9 22.9s10.3 22.9 22.9 22.9 22.9-10.3 22.9-22.9-10.3-22.9-22.9-22.9z" fill="#4F95FC" p-id="5034"></path><path d="M427.7 682.5c-64.2 0-116.4-54.6-116.4-121.8h72c0 27.4 19.9 49.8 44.4 49.8s44.4-22.3 44.4-49.8h72c0 67.1-52.2 121.8-116.4 121.8zM212.9 523.6s-19.8-73.4 74.6-101" fill="#474747" p-id="5035"></path><path d="M212.9 553.6c-13.2 0-25.3-8.8-28.9-22.2-0.7-2.7-7-27.7 2.2-57 8.4-26.9 31.4-62.7 92.9-80.7 15.9-4.7 32.6 4.5 37.2 20.4s-4.5 32.6-20.4 37.2c-29 8.5-46.6 22.3-52.5 41.1-3.9 12.4-1.6 23.3-1.6 23.4 4.3 16-5.2 32.5-21.1 36.8-2.6 0.7-5.3 1-7.8 1z" fill="#4F95FC" p-id="5036"></path></svg>