<svg xmlns="http://www.w3.org/2000/svg" viewBox="0 0 1024 1024" version="1.1"><path d="M886.2 670.4H543.2c-50.6 0-91.8-41.2-91.8-91.8V453.4c0-50.6 41.2-91.8 91.8-91.8h343v73.1H543.2c-10.3 0-18.7 8.4-18.7 18.7v125.3c0 10.3 8.4 18.7 18.7 18.7h343v73.1z" fill="#4F95FC" p-id="4012"></path><path d="M833.3 942.9H190.7c-60.4 0-109.6-49.2-109.6-109.6V190.7c0-60.4 49.2-109.6 109.6-109.6h642.6c60.4 0 109.6 49.2 109.6 109.6v642.6c0 60.4-49.2 109.6-109.6 109.6zM190.7 154.2c-20.1 0-36.5 16.4-36.5 36.5v642.6c0 20.1 16.4 36.5 36.5 36.5h642.6c20.1 0 36.5-16.4 36.5-36.5V190.7c0-20.1-16.4-36.5-36.5-36.5H190.7z" fill="#474747" p-id="4013"></path><path d="M629.3 518.7m-36.5 0a36.5 36.5 0 1 0 73.1 0 36.5 36.5 0 1 0-73.1 0Z" fill="#4F95FC" p-id="4014"></path></svg>