<svg xmlns="http://www.w3.org/2000/svg" viewBox="0 0 1024 1024" version="1.1"><path d="M512 753.7c-133.3 0-241.7-108.4-241.7-241.7S378.7 270.3 512 270.3 753.7 378.7 753.7 512 645.3 753.7 512 753.7z m0-410.4c-93 0-168.7 75.7-168.7 168.7S419 680.6 512 680.6s168.7-75.7 168.7-168.7S605 343.3 512 343.3z" fill="#474747" p-id="3836"></path><path d="M512.4 959.3c-20.2 0-36.5-16.4-36.5-36.5v-62.6c0-20.2 16.4-36.5 36.5-36.5 20.2 0 36.5 16.4 36.5 36.5v62.6c0 20.2-16.4 36.5-36.5 36.5zM828.6 828c-14.3 14.3-37.4 14.3-51.7 0l-44.3-44.3c-14.3-14.3-14.3-37.4 0-51.7 14.3-14.3 37.4-14.3 51.7 0l44.3 44.3c14.3 14.3 14.3 37.4 0 51.7zM959.3 511.6c0 20.2-16.4 36.5-36.5 36.5h-62.6c-20.2 0-36.5-16.4-36.5-36.5 0-20.2 16.4-36.5 36.5-36.5h62.6c20.2 0 36.5 16.4 36.5 36.5zM828 195.4c14.3 14.3 14.3 37.4 0 51.7l-44.3 44.3c-14.3 14.3-37.4 14.3-51.7 0-14.3-14.3-14.3-37.4 0-51.7l44.3-44.3c14.3-14.3 37.4-14.3 51.7 0zM511.6 64.7c20.2 0 36.5 16.4 36.5 36.5v62.6c0 20.2-16.4 36.5-36.5 36.5-20.2 0-36.5-16.4-36.5-36.5V101.2c0-20.2 16.4-36.5 36.5-36.5zM195.4 196c14.3-14.3 37.4-14.3 51.7 0l44.3 44.3c14.3 14.3 14.3 37.4 0 51.7-14.3 14.3-37.4 14.3-51.7 0l-44.3-44.3c-14.3-14.3-14.3-37.4 0-51.7zM64.7 512.4c0-20.2 16.4-36.5 36.5-36.5h62.6c20.2 0 36.5 16.4 36.5 36.5 0 20.2-16.4 36.5-36.5 36.5H101.2c-20.2 0-36.5-16.4-36.5-36.5zM196 828.6c-14.3-14.3-14.3-37.4 0-51.7l44.3-44.3c14.3-14.3 37.4-14.3 51.7 0 14.3 14.3 14.3 37.4 0 51.7l-44.3 44.3c-14.3 14.3-37.4 14.3-51.7 0z" fill="#4F95FC" p-id="3837"></path></svg>