<svg xmlns="http://www.w3.org/2000/svg" viewBox="0 0 1024 1024" version="1.1"><path d="M336.4 372.4c-15.1 0.1-27.3 12.4-27.3 27.5l0.3 61.2c0.1 15.1 12.4 27.3 27.5 27.3 15.1-0.1 27.3-12.4 27.3-27.5l-0.3-61.2c-0.1-15.1-12.4-27.3-27.5-27.3zM336.6 548.4c-15.1 0-27.4 12.3-27.4 27.4V637c0 15.1 12.3 27.4 27.4 27.4 15.1 0 27.4-12.3 27.4-27.4v-61.2c0-15.1-12.3-27.4-27.4-27.4zM336.6 724.5c-15.1 0-27.4 12.3-27.4 27.4v61.2c0 15.1 12.3 27.4 27.4 27.4 15.1 0 27.4-12.3 27.4-27.4v-61.2c0-15.1-12.3-27.4-27.4-27.4z" fill="#4F95FC" p-id="4189"></path><path d="M924.3 521.5c22.2-0.8 39.7-18.8 39.7-41V359.2c0-48.1-40.1-87.3-89.3-87.3h-37.7l-65.3-132.2c-25-50.4-86.4-71-136.7-46L280.5 269.7l1.6 2.2H149.3c-49.3 0-89.3 39.1-89.3 87.3v118.3c0 11.2 4.7 22 12.8 29.7 7.7 7.3 17.8 11.3 28.5 11.3h0c49.5 0 89.8 38.1 89.8 85s-40.1 84.8-89.4 85h-0.5c-10.6 0-20.7 4-28.4 11.3-8.1 7.7-12.8 18.5-12.8 29.7v124.1c0 48.1 40.1 87.3 89.3 87.3h725.4c49.3 0 89.3-39.1 89.3-87.3V732.3c0-22.2-17.4-40.1-39.6-41-48.4-1.8-86.3-39.1-86.3-84.9s37.9-83.1 86.3-84.9zM667.5 159.2c6.9-3.4 14.8-4 22.1-1.5 7.3 2.5 13.3 7.6 16.7 14.6l49.5 99.7H440.3l227.1-112.8z m143.7 557.5c22 21.9 49.6 37 79.8 43.7v93.3c0 7.8-7.3 14.2-16.3 14.2H149.3c-9 0-16.3-6.4-16.3-14.2v-95.1c74.7-14.4 131.1-78.4 131.1-155s-56.4-140.6-131.1-155v-89.3c0-7.8 7.3-14.2 16.3-14.2h725.4c9 0 16.3 6.4 16.3 14.2v93.3c-30.1 6.8-57.8 21.8-79.8 43.7-29.8 29.7-46.1 68.8-46.1 110.2s16.4 80.5 46.1 110.2z" fill="#474747" p-id="4190"></path></svg>