<svg xmlns="http://www.w3.org/2000/svg" viewBox="0 0 1024 1024" version="1.1"><path d="M512 971.1c-10.1 0-20.3-1.7-29.9-5.2-51.8-18.7-101.9-48.6-148.9-88.8-127.9-109.5-201.3-268.1-201.3-435.2V240.6c0-28.5 18.2-54.5 45.2-64.8L490.1 56.9a61.5 61.5 0 0 1 43.7 0L846.8 175.8c27.1 10.3 45.2 36.3 45.2 64.8v201.3c0 167.1-73.3 325.7-201.3 435.2-47 40.3-97.1 70.1-148.9 88.8a88.1 88.1 0 0 1-29.9 5.2zM205 243.4v198.5c0 145.7 64 284.1 175.7 379.7 40.3 34.5 82.7 59.9 126.2 75.6 3.3 1.2 6.9 1.2 10.2 0 43.5-15.7 85.9-41.1 126.2-75.6 111.7-95.6 175.7-234 175.7-379.7V243.4L512 126.8 205 243.4z m311.1-118.2z" fill="#474747" p-id="4388"></path><path d="M464.3 628.5l-97.4-97.4c-14.3-14.3-14.3-37.4 0-51.7 14.3-14.3 37.4-14.3 51.7 0l97.4 97.4c14.3 14.3 14.3 37.4 0 51.7-14.3 14.3-37.4 14.3-51.7 0z" fill="#4F95FC" p-id="4389"></path><path d="M463.9 576.8l178.3-178.3c14.3-14.3 37.4-14.3 51.7 0 14.3 14.3 14.3 37.4 0 51.7L515.6 628.5c-14.3 14.3-37.4 14.3-51.7 0-14.3-14.3-14.3-37.4 0-51.7z" fill="#4F95FC" p-id="4390"></path></svg>