<svg xmlns="http://www.w3.org/2000/svg" viewBox="0 0 1024 1024" version="1.1"><path d="M259.9 512c0-19.7 16-35.6 35.6-35.6h433c19.7 0 35.6 16 35.6 35.6 0 19.7-16 35.6-35.6 35.6h-433c-19.7 0-35.6-16-35.6-35.6z" fill="#4F95FC" p-id="4113"></path><path d="M888.1 171.5v202.1c0 19.7 16 35.6 35.6 35.6 19.7 0 35.6-16 35.6-35.6V171.5c0-59.1-47.9-106.9-106.9-106.9H650.4c-19.7 0-35.6 16-35.6 35.6 0 19.7 16 35.6 35.6 35.6H852.5c19.7 0 35.6 16 35.6 35.6zM888.1 650.4V852.5c0 19.7-16 35.6-35.6 35.6H650.4c-19.7 0-35.6 16-35.6 35.6 0 19.7 16 35.6 35.6 35.6h202.1c59.1 0 106.9-47.9 106.9-106.9V650.4c0-19.7-16-35.6-35.6-35.6-19.7 0-35.6 16-35.6 35.6z" fill="#474747" p-id="4114"></path><path d="M135.9 373.6V171.5c0-19.7 16-35.6 35.6-35.6h202.1c19.7 0 35.6-16 35.6-35.6 0-19.7-16-35.6-35.6-35.6H171.5c-59.1 0-106.9 47.9-106.9 106.9v202.1c0 19.7 16 35.6 35.6 35.6 19.7 0 35.6-16 35.6-35.6zM135.9 852.5V650.4c0-19.7-16-35.6-35.6-35.6-19.7 0-35.6 16-35.6 35.6V852.5c0 59.1 47.9 106.9 106.9 106.9h202.1c19.7 0 35.6-16 35.6-35.6 0-19.7-16-35.6-35.6-35.6H171.5c-19.7 0-35.6-16-35.6-35.6z" fill="#474747" p-id="4115"></path></svg>