<svg xmlns="http://www.w3.org/2000/svg" viewBox="0 0 1024 1024" version="1.1"><path d="M512 945.4c-58.5 0-115.3-11.5-168.7-34.1-51.6-21.8-98-53.1-137.8-92.9-39.8-39.8-71-86.1-92.9-137.8C90.1 627.3 78.6 570.5 78.6 512s11.5-115.3 34.1-168.7c21.8-51.6 53.1-98 92.9-137.8 39.8-39.8 86.1-71 137.8-92.9C396.8 90.1 453.5 78.6 512 78.6s115.3 11.5 168.7 34.1c51.6 21.8 98 53.1 137.8 92.9 39.8 39.8 71 86.1 92.9 137.8C933.9 396.8 945.4 453.5 945.4 512s-11.5 115.3-34.1 168.7c-21.8 51.6-53.1 98-92.9 137.8-39.8 39.8-86.1 71-137.8 92.9C627.3 933.9 570.5 945.4 512 945.4z m0-793.7c-198.7 0-360.3 161.7-360.3 360.3S313.3 872.3 512 872.3 872.3 710.7 872.3 512 710.7 151.7 512 151.7z" fill="#474747" p-id="4308"></path><path d="M512 263m-7.3 45.1a45.7 45.7 0 1 0 14.6-90.1 45.7 45.7 0 1 0-14.6 90.1Z" fill="#4F95FC" p-id="4309"></path><path d="M512 690.1c-75.4 0-136.8-61.4-136.8-136.8S436.6 416.5 512 416.5s136.8 61.4 136.8 136.8c0 75.4-61.4 136.8-136.8 136.8z m0-200.5c-35.1 0-63.7 28.6-63.7 63.7s28.6 63.7 63.7 63.7 63.7-28.6 63.7-63.7-28.6-63.7-63.7-63.7z" fill="#4F95FC" p-id="4310"></path><path d="M780.4 467.8c-35.6 0-66.4 24.2-74.8 58.8l-0.5 2.1C680.5 629.6 640.2 723 512 723.2c-128.2-0.2-168.5-93.6-193-194.5l-0.5-2.1c-8.4-34.6-39.2-58.8-74.8-58.8H129.8v73.1h113.8c1.8 0 3.4 1.2 3.8 3l0.5 2.1c8.8 36.3 23.6 96.9 60.9 149.6 21.6 30.5 48.2 54.5 78.9 71.2 35.7 19.4 77.3 29.3 123.8 29.5 0.2 0 0.3 0 0.5 0h0.5c46.5-0.1 88.1-10.1 123.8-29.5 30.8-16.8 57.3-40.7 78.9-71.2 37.3-52.7 52.1-113.3 60.9-149.6l0.5-2.1c0.4-1.8 2-3 3.8-3h113.8V467.8H780.4z" fill="#474747" p-id="4311"></path></svg>