<svg xmlns="http://www.w3.org/2000/svg" viewBox="0 0 1024 1024" version="1.1"><path d="M865.2 952.2H158.8c-32.5 0-63.9-14.2-86-39-23.8-26.6-35.1-62.6-31.1-98.8l70.3-633.3c6.9-62.3 57.3-109.3 117.2-109.3h565.8c59.9 0 110.3 47 117.2 109.3l70.3 633.3c4 36.2-7.3 72.3-31.1 98.8-22.2 24.8-53.6 39-86 39zM229.1 144.8c-22.6 0-41.8 19-44.6 44.3L114.2 822.4c-1.7 15.6 3 30.9 12.9 42.1 8.5 9.5 19.7 14.7 31.6 14.7h706.5c11.9 0 23.1-5.2 31.6-14.7 10-11.1 14.7-26.5 13-42.1l-70.3-633.3c-2.8-25.3-22-44.3-44.6-44.3H229.1z" fill="#474747" p-id="4563"></path><path d="M277.4 279.7m-45.7 0a45.7 45.7 0 1 0 91.3 0 45.7 45.7 0 1 0-91.3 0Z" fill="#4F95FC" p-id="4564"></path><path d="M746.6 279.7m-45.7 0a45.7 45.7 0 1 0 91.3 0 45.7 45.7 0 1 0-91.3 0Z" fill="#4F95FC" p-id="4565"></path><path d="M511.1 534.1c-68.4 0-132.7-27.4-180.9-77.3-48-49.6-74.5-115.5-74.5-185.6h54.8c0 114.7 90 208.1 200.7 208.1S711.8 386 711.8 271.3h54.8c0 70-26.5 135.9-74.5 185.6-48.3 49.9-112.5 77.3-180.9 77.3z" fill="#4F95FC" p-id="4566"></path></svg>