<svg xmlns="http://www.w3.org/2000/svg" viewBox="0 0 1024 1024" version="1.1"><path d="M861.8 343H162.2c-20.2 0-36.5-16.4-36.5-36.5 0-20.2 16.4-36.5 36.5-36.5h699.6c20.2 0 36.5 16.4 36.5 36.5 0 20.2-16.4 36.5-36.5 36.5zM660.6 210.6H363.4c-20.2 0-36.5-16.4-36.5-36.5 0-20.2 16.4-36.5 36.5-36.5h297.3c20.2 0 36.5 16.4 36.5 36.5 0 20.2-16.4 36.5-36.5 36.5z" fill="#474747" p-id="3808"></path><path d="M368.7 677.8V464.5c0-15.1 12.3-27.4 27.4-27.4 15.1 0 27.4 12.3 27.4 27.4v213.3c0 15.1-12.3 27.4-27.4 27.4-15.1 0-27.4-12.3-27.4-27.4zM484.6 680.7V467.4c0-15.1 12.3-27.4 27.4-27.4 15.1 0 27.4 12.3 27.4 27.4v213.3c0 15.1-12.3 27.4-27.4 27.4-15.1 0-27.4-12.3-27.4-27.4zM600.5 680.7V467.4c0-15.1 12.3-27.4 27.4-27.4 15.1 0 27.4 12.3 27.4 27.4v213.3c0 15.1-12.3 27.4-27.4 27.4-15.1 0-27.4-12.3-27.4-27.4z" fill="#4F95FC" p-id="3809"></path><path d="M731.3 886.5H292.7c-40 0-72.6-33-72.6-73.6V320.9h73.1v492c0 0.3 0.1 0.5 0.1 0.6h437.5c0.1-0.1 0.1-0.3 0.1-0.6V320.9h73.1v492c0 40.6-32.6 73.6-72.6 73.6z" fill="#474747" p-id="3810"></path></svg>