<svg xmlns="http://www.w3.org/2000/svg" viewBox="0 0 1024 1024" version="1.1"><path d="M620 951.1c-18.3 0-36.2-8.2-48-23.5-15.4-19.9-38.7-31.4-63.8-31.4s-47.1 10.8-62.5 29.7c-18.9 23.1-51.3 29-77.1 14.2l-161.8-93.4c-26.1-15.1-37-46.4-26-74.5 9-23 7.2-48.5-5.2-69.8-12-20.8-32.5-35.1-56.3-39.2-29.1-5-50.3-30.1-50.3-59.6V416.4c0-29.9 21.5-55 51-59.7 24.2-3.8 45-18.2 57.2-39.3 12.1-21 14.2-46.1 5.6-68.8-10.5-27.9 0.6-58.9 26.3-73.7l161.8-93.4c26.1-15.1 58.6-8.9 77.5 14.7 15.4 19.3 38.4 30.3 63 30.3s47.8-11.1 63.2-30.5c18.8-23.7 51.4-29.9 77.6-14.8l161.3 93.1c26 15 37.1 47.4 25.7 75.3-9.5 23.3-7.8 49.1 4.8 70.9 12.5 21.6 33.9 36 58.7 39.5 29.7 4.2 52.1 29.9 52.1 59.9v185.9c0 30.3-22.7 56.1-52.8 60-25.2 3.2-47 17.7-59.6 39.7-12.4 21.4-14.3 47-5.1 70.1 11 27.7-0.2 59.8-25.9 74.7L650.1 943.1c-9.4 5.4-19.8 8-30.1 8zM508.2 823.2c42.5 0 82.1 17.1 111 47.4a6.7 6.7 0 0 0 8.2 1.2l133.6-77.2a6.7 6.7 0 0 0 3.1-7.7c-11.2-39.7-6-82 14.9-118.3 21.4-37.1 56.4-63 97.5-72.7a6.7 6.7 0 0 0 5.2-6.5V435.7c0-3.1-2.1-5.8-5.1-6.5-40.4-10-74.8-35.7-95.9-72.3-21.2-36.7-26.2-79.5-14.5-119.7 0.9-3-0.4-6.2-3.1-7.7l-133.7-77.2a6.7 6.7 0 0 0-8.2 1.1c-28.8 29.4-68 46.1-109.7 46.1s-80.7-16.5-109.4-45.8a6.7 6.7 0 0 0-8.2-1.1l-134.7 77.8a6.7 6.7 0 0 0-3.1 7.5c10.3 39.1 5 80.6-15.5 116-20.6 35.7-54.1 61.2-93.5 71.6-3 0.8-5 3.5-5 6.5v156c0 3 2 5.7 4.9 6.5 38.6 10.7 71.5 36.1 91.8 71.2 20.8 36.1 26.1 78.3 15 117.9-0.8 3 0.5 6.1 3.1 7.6l134.6 77.7a6.79 6.79 0 0 0 8.1-1.1c28.7-28.6 67.4-44.7 108.4-44.7z" fill="#474747" p-id="3876"></path><path d="M510.6 693c-100.4 0-182.1-81.7-182.1-182.1S410.2 328.9 510.6 328.9s182.1 81.7 182.1 182.1S611 693 510.6 693z m0-291c-60.1 0-109 48.9-109 109s48.9 109 109 109 109-48.9 109-109c0-60.1-48.9-109-109-109z" fill="#4F95FC" p-id="3877"></path></svg>