<svg xmlns="http://www.w3.org/2000/svg" viewBox="0 0 1024 1024" version="1.1"><path d="M673.6 826.4H182.5c-50.8 0-92.2-41.4-92.2-92.2v-444.5c0-50.8 41.4-92.2 92.2-92.2h491.1c50.8 0 92.2 41.4 92.2 92.2v444.5c0 50.8-41.4 92.2-92.2 92.2zM182.5 269.6c-11.1 0-20.2 9.1-20.2 20.2v444.5c0 11.1 9.1 20.2 20.2 20.2h491.1c11.1 0 20.2-9.1 20.2-20.2V289.8c0-11.1-9.1-20.2-20.2-20.2H182.5z" fill="#474747" p-id="5004"></path><path d="M886.8 721.6c-11.7 0-23.3-4.4-32.1-12.8l-134.8-127 49.4-52.4 92.4 87.1V407.4l-98 92.3-49.4-52.4 140.3-132.2c13.6-12.8 33.5-16.4 50.7-8.9s28.3 24.3 28.3 43v325.5c0 18.7-11.1 35.6-28.3 43a46.8 46.8 0 0 1-18.6 3.9z" fill="#474747" p-id="5005"></path><path d="M215 358.9m30 0l116.3 0q30 0 30 30l0 0q0 30-30 30l-116.3 0q-30 0-30-30l0 0q0-30 30-30Z" fill="#4F95FC" p-id="5006"></path><path d="M455.9 358.9m30 0l0 0q30 0 30 30l0 0q0 30-30 30l0 0q-30 0-30-30l0 0q0-30 30-30Z" fill="#4F95FC" p-id="5007"></path></svg>