<svg xmlns="http://www.w3.org/2000/svg" viewBox="0 0 1024 1024" version="1.1"><path d="M512 846.1c-104.1 0-208.2-5.9-311.5-17.7-61.7-7.6-122.3-62.3-135.4-122-26.9-129.2-26.9-259.8-0.1-388.6 13.2-60 73.8-114.7 135.2-122.3 207-23.6 416.6-23.6 623.4-0 61.7 7.6 122.3 62.3 135.4 122 26.9 129.2 26.9 259.8 0.1 388.6-13.2 60-73.8 114.7-135.2 122.3l-0.3 0c-103.4 11.8-207.4 17.7-311.5 17.7z m0.1-602.9c-101.6 0-203.3 5.8-304.2 17.3-33.3 4.1-71.8 38.6-79 71-24.9 119.6-24.9 241.3 0.1 361.3 7 32 45.5 66.5 79.2 70.7 201.5 23 406 23 607.8-0 33.6-4.2 72-38.7 79.1-71 24.9-119.6 24.9-241.3-0.1-361.3-7-32-45.5-66.5-79.2-70.7C715.1 249 613.6 243.3 512.1 243.3z" fill="#474747" p-id="4025"></path><path d="M469.1 620.6c-10.2 0-20.3-2.7-29.5-8-18.5-10.7-29.5-29.8-29.5-51.1V462.5c0-21.4 11-40.5 29.5-51.1 18.5-10.7 40.6-10.7 59.1 0l85.7 49.5c18.5 10.7 29.5 29.8 29.5 51.1s-11 40.5-29.5 51.1l-85.7 49.5c-9.2 5.3-19.4 8-29.5 8z m6.3-147.2v77l66.7-38.5-66.7-38.5z" fill="#4F95FC" p-id="4026"></path></svg>