<svg xmlns="http://www.w3.org/2000/svg" viewBox="0 0 1024 1024" version="1.1"><path d="M512 970.7c-56.1 0-110.5-11-161.7-32.7-49.5-20.9-93.9-50.9-132-89-38.1-38.1-68.1-82.5-89-132-21.7-51.2-32.7-105.6-32.7-161.7s11-110.5 32.7-161.7c20.9-49.5 50.9-93.9 89-132 38.1-38.1 82.5-68.1 132-89 51.2-21.7 105.6-32.7 161.7-32.7s110.5 11 161.7 32.7c49.5 20.9 93.9 50.9 132 89 38.1 38.1 68.1 82.5 89 132 21.7 51.2 32.7 105.6 32.7 161.7s-11 110.5-32.7 161.7c-20.9 49.5-50.9 93.9-89 132-38.1 38.1-82.5 68.1-132 89-51.2 21.7-105.6 32.7-161.7 32.7z m0-757.7c-188.8 0-342.3 153.6-342.3 342.3S323.2 897.6 512 897.6s342.3-153.6 342.3-342.3S700.8 213 512 213z" fill="#474747" p-id="4140"></path><path d="M504.7 624c-20.2 0-36.6-16.4-36.6-36.6V382.8c0-20.2 16.4-36.6 36.6-36.6s36.6 16.4 36.6 36.6v204.7c0 20.2-16.4 36.6-36.6 36.6z" fill="#4F95FC" p-id="4141"></path><path d="M616.6 699.3c-14.3 14.3-37.4 14.3-51.7 0l-86.1-86.1c-14.3-14.3-14.3-37.4 0-51.7 14.3-14.3 37.4-14.3 51.7 0l86.1 86.1c14.3 14.3 14.3 37.4 0 51.7z" fill="#4F95FC" p-id="4142"></path><path d="M911.3 961c-14.3 14.3-37.4 14.3-51.7 0l-86.1-86.1c-14.3-14.3-14.3-37.4 0-51.7 14.3-14.3 37.4-14.3 51.7 0l86.1 86.1c14.3 14.3 14.3 37.4 0 51.7zM112.7 961c14.3 14.3 37.4 14.3 51.7 0l86.1-86.1c14.3-14.3 14.3-37.4 0-51.7-14.3-14.3-37.4-14.3-51.7 0l-86.1 86.1c-14.3 14.3-14.3 37.4 0 51.7z" fill="#474747" p-id="4143"></path><path d="M16.1 252.6c14.3 14.3 37.4 14.3 51.7 0l137.9-137.9c14.3-14.3 14.3-37.4 0-51.7-14.3-14.3-37.4-14.3-51.7 0L16.1 200.9c-14.3 14.3-14.3 37.4 0 51.7zM1007.9 252.6c-14.3 14.3-37.4 14.3-51.7 0L818.3 114.7c-14.3-14.3-14.3-37.4 0-51.7 14.3-14.3 37.4-14.3 51.7 0l137.9 137.9c14.3 14.3 14.3 37.4 0 51.7z" fill="#474747" p-id="4144"></path></svg>