<svg xmlns="http://www.w3.org/2000/svg" viewBox="0 0 1024 1024" version="1.1"><path d="M668.6 914.9h-73.1V653.1H428.5v261.8h-73.1V634.1c0-29.8 24.2-54 54-54h205.2c29.8 0 54 24.2 54 54v280.9z" fill="#4F95FC" p-id="4063"></path><path d="M811.5 944.6H212.5c-38.8 0-70.3-31.7-70.3-70.7V398.8h73.1v472.8h593.4V398.8h73.1v475.1c0 39-31.5 70.7-70.3 70.7z" fill="#474747" p-id="4064"></path><path d="M966.5 444L537.7 89.8c-7-6.9-16.3-10.5-25.7-10.4-9.3-0-18.6 3.5-25.7 10.4L57.5 444c-15.6 12.8-17.8 35.9-4.9 51.4 12.8 15.6 35.9 17.8 51.4 4.9L512 163.4l407.9 337c15.6 12.8 38.6 10.7 51.4-4.9 12.8-15.6 10.7-38.6-4.9-51.4z" fill="#474747" p-id="4065"></path></svg>