<svg xmlns="http://www.w3.org/2000/svg" viewBox="0 0 1024 1024" version="1.1"><path d="M689.9 174.8h-73.1V100H407.2v74.9h-73.1V92.3c0-36.1 29.4-65.4 65.4-65.4h224.9c36.1 0 65.4 29.4 65.4 65.4v82.5zM610.6 997.1H413.4c-43.7 0-79.3-35.6-79.3-79.3V659.6h73.1v258.2c0 3.4 2.8 6.2 6.2 6.2h197.2c3.4 0 6.2-2.8 6.2-6.2V659.6h73.1v258.2c0 43.7-35.6 79.3-79.3 79.3z" fill="#474747" p-id="4414"></path><path d="M681.2 689.9H342.8c-50.8 0-92.1-41.3-92.1-92.1V259.3c0-50.8 41.3-92.1 92.1-92.1h338.5c50.8 0 92.1 41.3 92.1 92.1v338.5c0 50.8-41.3 92.1-92.1 92.1zM342.8 240.3c-10.5 0-19 8.5-19 19v338.5c0 10.5 8.5 19 19 19h338.5c10.5 0 19-8.5 19-19V259.3c0-10.5-8.5-19-19-19H342.8z" fill="#474747" p-id="4415"></path><path d="M512 446.1c-15.1 0-27.4-12.3-27.4-27.4v-82.1c0-15.1 12.3-27.4 27.4-27.4 15.1 0 27.4 12.3 27.4 27.4v82.1c0 15.1-12.3 27.4-27.4 27.4z" fill="#4F95FC" p-id="4416"></path><path d="M602 542.5c-12.2 9-29.3 6.3-38.3-5.8l-73.8-100.5c-9-12.2-6.3-29.3 5.8-38.3 12.2-9 29.3-6.3 38.3 5.8l73.8 100.5c9 12.2 6.3 29.3-5.8 38.3z" fill="#4F95FC" p-id="4417"></path></svg>