<svg xmlns="http://www.w3.org/2000/svg" viewBox="0 0 1024 1024" version="1.1"><path d="M465.8 755.5c-81.5 0-158.1-31.7-215.7-89.3-57.6-57.6-89.3-134.2-89.3-215.7s31.7-158.1 89.3-215.7c57.6-57.6 134.2-89.3 215.7-89.3s158.1 31.7 215.7 89.3c57.6 57.6 89.3 134.2 89.3 215.7S739.1 608.6 681.5 666.2c-57.6 57.6-134.2 89.3-215.7 89.3z m0-537c-127.9 0-231.9 104-231.9 231.9s104 231.9 231.9 231.9 231.9-104 231.9-231.9-104-231.9-231.9-231.9z" fill="#474747" p-id="4155"></path><path d="M314.5 487.1c-20.2 0-36.5-16.4-36.5-36.5 0-103.6 84.3-187.9 187.9-187.9 20.2 0 36.5 16.4 36.5 36.5s-16.4 36.5-36.5 36.5c-63.3 0-114.8 51.5-114.8 114.8 0 20.2-16.4 36.5-36.5 36.5z" fill="#4F95FC" p-id="4156"></path><path d="M799.1 865.9L644.2 687.9c-13.2-15.2-11.6-38.3 3.6-51.5 15.2-13.2 38.3-11.6 51.5 3.6l154.9 178.1c13.2 15.2 11.6 38.3-3.6 51.5-15.2 13.2-38.3 11.6-51.5-3.6z" fill="#474747" p-id="4157"></path></svg>