<svg xmlns="http://www.w3.org/2000/svg" viewBox="0 0 1024 1024" version="1.1"><path d="M759.7 988.4H264.3c-61.1 0-110.8-49.7-110.8-110.8V489.1c0-61.1 49.7-110.8 110.8-110.8H759.7c61.1 0 110.8 49.7 110.8 110.8v388.4c0 61.1-49.7 110.8-110.8 110.8zM264.3 451.4c-20.8 0-37.7 16.9-37.7 37.7v388.4c0 20.8 16.9 37.7 37.7 37.7H759.7c20.8 0 37.7-16.9 37.7-37.7V489.1c0-20.8-16.9-37.7-37.7-37.7H264.3z" fill="#474747" p-id="4537"></path><path d="M607.4 644.3c0-51.1-42.9-92.3-94.6-89.5-45.4 2.5-82.1 39.1-84.6 84.5-1.9 34.9 16.3 65.9 44.1 82.2 10.6 6.3 17 17.9 17 30.2v68.2c0 14.9 11.6 27.5 26.4 28 15.6 0.6 28.4-11.9 28.4-27.4v-67.6c0-12.9 7.1-24.5 18.2-30.9 26.9-15.5 45.1-44.5 45.1-77.8z m-89.7 34.9c-19.2 0-34.9-15.6-34.9-34.9s15.6-34.9 34.9-34.9 34.9 15.6 34.9 34.9-15.6 34.9-34.9 34.9z" fill="#4F95FC" p-id="4538"></path><path d="M751.2 419.4h-73.1V272.6c0-90.4-73.5-163.9-163.9-163.9s-163.9 73.5-163.9 163.9v145.5h-73.1V272.6c0-130.7 106.3-237 237-237s237 106.3 237 237v146.8z" fill="#474747" p-id="4539"></path></svg>