<svg xmlns="http://www.w3.org/2000/svg" viewBox="0 0 1024 1024" version="1.1"><path d="M699.4 880.5H324.2c-40.9 0-74.3-33.3-74.3-74.3V184.3c0-22.5 18.3-40.8 40.8-40.8H395.7c26.3 0 50.8 14 64 36.6 10.8 18.5 30.8 30 52.1 30s41.4-11.5 52.1-30c13.2-22.6 37.7-36.6 64-36.6h105c22.5 0 40.8 18.3 40.8 40.8v622c0 40.9-33.3 74.3-74.3 74.3zM322 215.5v590.8c0 1.2 1 2.3 2.3 2.3h375.2c1.2 0 2.3-1 2.3-2.3V215.5h-73.7c-0.8 0-1.5 0.3-1.8 0.8-23.6 40.6-67.5 65.8-114.3 65.8s-90.7-25.2-114.3-65.8c-0.3-0.5-1-0.8-1.8-0.8h-73.7z" fill="#474747" p-id="4831"></path><path d="M200.1 517.9c-19 0-37.1-10.7-46-28.3L79.6 341.8c-11.2-22.3-4.9-49.3 15.1-64.3l162.1-121.2c12.4-9.3 28.8-10.8 42.7-3.8 13.9 7 22.5 20.9 22.5 36.5v297.9l-108.6 29.2c-4.4 1.2-8.8 1.8-13.3 1.8z m-48.5-193.1l59.2 117.4 39.1-10.5V251.3l-98.3 73.5zM823.9 517.9c-4.4 0-8.8-0.6-13.3-1.8l-108.6-29.2V189c0-15.5 8.6-29.5 22.5-36.5 13.9-7 30.2-5.5 42.7 3.8l162.1 121.2c20 15 26.4 42 15.1 64.3l-74.5 147.8c-8.9 17.6-27 28.3-46 28.3z m-49.9-86.2l39.1 10.5 59.2-117.4-98.3-73.5v180.4z" fill="#474747" p-id="4832"></path><path d="M548.9 359h114.1v121c0 13.4-10.8 24.2-24.2 24.2h-65.7c-13.4 0-24.2-10.8-24.2-24.2V359z" fill="#4F95FC" p-id="4833"></path></svg>