<svg xmlns="http://www.w3.org/2000/svg" viewBox="0 0 1024 1024" version="1.1"><path d="M117.2 185m34 0l415.6 0q34 0 34 34l0-0q0 34-34 34l-415.6 0q-34 0-34-34l0 0q0-34 34-34Z" fill="#474747" p-id="4266"></path><path d="M117.2 479.4m34 0l125.1 0q34 0 34 34l0-0q0 34-34 34l-125.1 0q-34 0-34-34l0 0q0-34 34-34Z" fill="#4F95FC" p-id="4267"></path><path d="M378.9 479.4m34 0l458.7 0q34 0 34 34l0-0q0 34-34 34l-458.7 0q-34 0-34-34l0 0q0-34 34-34Z" fill="#4F95FC" p-id="4268"></path><path d="M841.1 396.4H148.3c-18.8 0-34-15.2-34-34s15.2-34 34-34h692.7c12.7 0 24.1-7.3 29-18.7 3.6-8.2 5.3-18.4 5.1-30.1-0.4-22.8-15.2-29.8-21.5-31.7-10.7-3.3-25.6-1.6-35.6 12.7-10.7 15.4-31.9 19.2-47.3 8.5s-19.2-31.9-8.5-47.3c12.8-18.4 30.6-31.7 51.4-38.4 19.5-6.3 40.1-6.5 59.8-0.5 19.6 6 36.5 17.6 48.8 33.7 13.2 17.2 20.4 38.6 20.7 61.9 0.3 21.5-3.2 41-10.6 58.2-15.7 36.3-51.5 59.7-91.4 59.7zM648.8 620.7H151.2c-18.8 0-34 15.2-34 34s15.2 34 34 34h497.6c12.7 0 24.1 7.3 29 18.7 3.6 8.2 5.3 18.4 5.1 30.1-0.4 22.8-15.1 29.8-21.5 31.7-10.7 3.3-25.6 1.6-35.6-12.7-10.7-15.4-31.9-19.2-47.3-8.5s-19.2 31.9-8.5 47.3c12.8 18.4 30.6 31.7 51.4 38.4 19.5 6.3 40.1 6.5 59.8 0.5 19.6-6 36.5-17.6 48.8-33.7 13.2-17.2 20.4-38.6 20.7-61.9 0.3-21.5-3.2-41-10.6-58.2-15.7-36.3-51.5-59.7-91.3-59.7z" fill="#474747" p-id="4269"></path></svg>