<svg xmlns="http://www.w3.org/2000/svg" viewBox="0 0 1024 1024" version="1.1"><path d="M792 978.5H232c-60.8 0-110.2-49.4-110.2-110.2V155.6c0-60.8 49.4-110.2 110.2-110.2h409.5c39 0 76.1 16.8 101.9 46l124.8 141.7a135.7 135.7 0 0 1 33.9 89.8v545.4c0 60.8-49.4 110.2-110.2 110.2zM232 118.5c-20.5 0-37.1 16.6-37.1 37.1v712.7c0 20.5 16.6 37.1 37.1 37.1h559.9c20.5 0 37.1-16.6 37.1-37.1V322.9c0-15.3-5.6-30-15.7-41.5L688.6 139.8a62.8 62.8 0 0 0-47.1-21.3H232z" fill="#474747" p-id="3998"></path><path d="M867.5 360.6H717c-60.8 0-110.2-49.4-110.2-110.2V79.5h73.1v170.8c0 20.5 16.6 37.1 37.1 37.1h150.4v73.1z" fill="#474747" p-id="3999"></path><path d="M475.5 735.7V486.9c0-19.7 16-35.7 35.7-35.7h1.6c19.7 0 35.7 16 35.7 35.7v248.7c0 19.7-16 35.7-35.7 35.7h-1.6c-19.7 0-35.7-16-35.7-35.7z" fill="#4F95FC" p-id="4000"></path><path d="M387.6 574.8h248.7c19.7 0 35.7 16 35.7 35.7v1.6c0 19.7-16 35.7-35.7 35.7H387.6c-19.7 0-35.7-16-35.7-35.7v-1.6c0-19.7 16-35.7 35.7-35.7z" fill="#4F95FC" p-id="4001"></path></svg>