<svg xmlns="http://www.w3.org/2000/svg" viewBox="0 0 1024 1024" version="1.1"><path d="M893.1 819.1H130.9c-50.7 0-92-41.3-92-92V309.7c0-50.7 41.3-92 92-92h400.2v73.1H130.9c-10.4 0-18.9 8.5-18.9 18.9v417.5c0 10.4 8.5 18.9 18.9 18.9h762.3c10.4 0 18.9-8.5 18.9-18.9V309.7c0-9.1-5.2-18.9-16.5-18.9v-73.1c50.2 0 89.5 40.4 89.5 92v417.5c0 50.7-41.3 92-92 92z" fill="#474747" p-id="4590"></path><path d="M127.9 901c-20.2 0-36.5-16.4-36.5-36.5V796.1c0-20.2 16.4-36.5 36.5-36.5 20.2 0 36.5 16.4 36.5 36.5v68.3c0 20.2-16.4 36.5-36.5 36.5zM896.1 901c-20.2 0-36.5-16.4-36.5-36.5V796.1c0-20.2 16.4-36.5 36.5-36.5 20.2 0 36.5 16.4 36.5 36.5v68.3c0 20.2-16.4 36.5-36.5 36.5z" fill="#474747" p-id="4591"></path><path d="M254.8 597.5m-45.7 0a45.7 45.7 0 1 0 91.3 0 45.7 45.7 0 1 0-91.3 0Z" fill="#4F95FC" p-id="4592"></path><path d="M385.8 597.5m-45.7 0a45.7 45.7 0 1 0 91.3 0 45.7 45.7 0 1 0-91.3 0Z" fill="#4F95FC" p-id="4593"></path><path d="M732.1 621.1c-137.3 0-249-111.7-249-249s111.7-249 249-249S981.1 234.8 981.1 372.1 869.4 621.1 732.1 621.1z m0-425c-97 0-175.9 78.9-175.9 175.9s78.9 175.9 175.9 175.9 175.9-78.9 175.9-175.9-78.9-175.9-175.9-175.9z" fill="#474747" p-id="4594"></path></svg>