<svg xmlns="http://www.w3.org/2000/svg" viewBox="0 0 1024 1024" version="1.1"><path d="M146.3 547.4v-73.1c180.9 0 328-147.1 328-328h73.1c0 54.1-10.6 106.7-31.5 156.1-20.2 47.8-49.1 90.7-85.9 127.5-36.8 36.8-79.7 65.7-127.5 85.9C253 536.8 200.5 547.4 146.3 547.4zM554.2 880.3h-73.1c0-54.1 10.6-106.7 31.5-156.1 20.2-47.8 49.1-90.7 85.9-127.5 36.8-36.8 79.7-65.7 127.5-85.9 49.5-20.9 102-31.5 156.1-31.5v73.1c-180.9 0-328 147.1-328 328z" fill="#4F95FC" p-id="4089"></path><path d="M512 926.2c-55.9 0-110.1-11-161.2-32.6-49.3-20.9-93.6-50.7-131.6-88.7-38-38-67.9-82.3-88.7-131.6-21.6-51.1-32.6-105.3-32.6-161.2s11-110.1 32.6-161.2c20.9-49.3 50.7-93.6 88.7-131.6 38-38 82.3-67.9 131.6-88.7C401.9 108.8 456.1 97.9 512 97.9s110.1 11 161.2 32.6c49.3 20.9 93.6 50.7 131.6 88.7 38 38 67.9 82.3 88.7 131.6 21.6 51.1 32.6 105.3 32.6 161.2s-11 110.1-32.6 161.2c-20.9 49.3-50.7 93.6-88.7 131.6-38 38-82.3 67.9-131.6 88.7-51.1 21.6-105.3 32.6-161.2 32.6z m0-755.3c-188.1 0-341.1 153-341.1 341.1S323.9 853.1 512 853.1 853.1 700.1 853.1 512 700.1 170.9 512 170.9z" fill="#474747" p-id="4090"></path></svg>