<svg xmlns="http://www.w3.org/2000/svg" viewBox="0 0 1024 1024" version="1.1"><path d="M872.3 936.2H151.7c-40.5 0-76.9-21-97.1-56.1-20.3-35.1-20.3-77 0-112.2l360.3-624.1C435.1 108.8 471.4 87.8 512 87.8s76.9 21 97.1 56.1l360.3 624.1c20.3 35.1 20.3 77 0 112.2-20.3 35.1-56.6 56.1-97.1 56.1zM478.1 180.4L117.8 804.5c-10.2 17.6-3.4 33.2 0 39.1 3.4 5.9 13.5 19.6 33.9 19.6h720.6c20.4 0 30.5-13.7 33.9-19.6 3.4-5.9 10.2-21.4 0-39.1L545.9 180.4c-10.2-17.6-27.1-19.6-33.9-19.6s-23.7 1.9-33.9 19.6z" fill="#474747" p-id="4037"></path><path d="M512 638.7c-20.2 0-36.5-16.4-36.5-36.5V374.6c0-20.2 16.4-36.5 36.5-36.5 20.2 0 36.5 16.4 36.5 36.5v227.6c0 20.2-16.4 36.5-36.5 36.5zM512 783.4c-20.2 0-36.5-16.4-36.5-36.5v-18.7c0-20.2 16.4-36.5 36.5-36.5 20.2 0 36.5 16.4 36.5 36.5v18.7c0 20.2-16.4 36.5-36.5 36.5z" fill="#4F95FC" p-id="4038"></path></svg>