<svg xmlns="http://www.w3.org/2000/svg" viewBox="0 0 1024 1024" version="1.1"><path d="M407.9 964.5l-51.7-51.7 277.1-277.1c14.9-14.9 34.7-23.1 55.8-23.1s40.9 8.2 55.8 23.1l143.3 143.3-51.7 51.7L693.2 687.4c-1.4-1.4-3-1.7-4.1-1.7s-2.7 0.3-4.1 1.7L407.9 964.5z" fill="#4F95FC" p-id="4441"></path><path d="M792 978.5H232c-60.8 0-110.2-49.4-110.2-110.2V155.6c0-60.8 49.4-110.2 110.2-110.2h409.5c39 0 76.1 16.8 101.9 46l124.8 141.7a135.7 135.7 0 0 1 33.9 89.8v545.4c0 60.8-49.4 110.2-110.2 110.2zM232 118.5c-20.5 0-37.1 16.6-37.1 37.1v712.7c0 20.5 16.6 37.1 37.1 37.1h559.9c20.5 0 37.1-16.6 37.1-37.1V322.9c0-15.3-5.6-30-15.7-41.5L688.6 139.8a62.8 62.8 0 0 0-47.1-21.3H232z" fill="#474747" p-id="4442"></path><path d="M867.5 360.6H717c-60.8 0-110.2-49.4-110.2-110.2V79.5h73.1v170.8c0 20.5 16.6 37.1 37.1 37.1h150.4v73.1z" fill="#474747" p-id="4443"></path><path d="M405.4 652.3c-61.6 0-111.6-50.1-111.6-111.6s50.1-111.6 111.6-111.6 111.6 50.1 111.6 111.6-50.1 111.6-111.6 111.6z m0-150.2c-21.3 0-38.6 17.3-38.6 38.6s17.3 38.6 38.6 38.6 38.6-17.3 38.6-38.6-17.3-38.6-38.6-38.6z" fill="#4F95FC" p-id="4444"></path></svg>