<svg xmlns="http://www.w3.org/2000/svg" viewBox="0 0 1024 1024" version="1.1"><path d="M792 978.5H232c-60.8 0-110.2-49.4-110.2-110.2V155.6c0-60.8 49.4-110.2 110.2-110.2h409.5c39 0 76.1 16.8 101.9 46l124.8 141.7a135.7 135.7 0 0 1 33.9 89.8v545.4c0 60.8-49.4 110.2-110.2 110.2zM232 118.5c-20.5 0-37.1 16.6-37.1 37.1v712.7c0 20.5 16.6 37.1 37.1 37.1h559.9c20.5 0 37.1-16.6 37.1-37.1V322.9c0-15.3-5.6-30-15.7-41.5L688.6 139.8a62.8 62.8 0 0 0-47.1-21.3H232z" fill="#474747" p-id="4550"></path><path d="M867.5 360.6H717c-60.8 0-110.2-49.4-110.2-110.2V79.5h73.1v170.8c0 20.5 16.6 37.1 37.1 37.1h150.4v73.1z" fill="#474747" p-id="4551"></path><path d="M672 397.8c-4.6-19.6-24.2-31.9-43.9-27.3l-104.2 24.3c-19 4.4-31.1 23-27.6 42v160h-36c-60.2 0-109.1 48.9-109.1 109.1s48.9 109.1 109.1 109.1c51.7 0 96.7-36.8 106.9-87.4 1.2-5.7 1.8-11.6 2.1-17.5 0.1-0.9 0.1-1.7 0.1-2.6V459.3l75.4-17.6c19.6-4.6 31.9-24.2 27.3-43.9zM495.5 713.3c-3.4 16.7-18.2 28.8-35.3 28.8-19.9 0-36-16.2-36-36s16.2-36 36-36h36v36c0 2.4-0.2 4.9-0.7 7.2z" fill="#4F95FC" p-id="4552"></path></svg>