<svg xmlns="http://www.w3.org/2000/svg" viewBox="0 0 1024 1024" version="1.1"><path d="M792 978.5H232c-60.8 0-110.2-49.4-110.2-110.2V155.6c0-60.8 49.4-110.2 110.2-110.2h409.5c39 0 76.1 16.8 101.9 46l124.8 141.7a135.7 135.7 0 0 1 33.9 89.8v545.4c0 60.8-49.4 110.2-110.2 110.2zM232 118.5c-20.5 0-37.1 16.6-37.1 37.1v712.7c0 20.5 16.6 37.1 37.1 37.1h559.9c20.5 0 37.1-16.6 37.1-37.1V322.9c0-15.3-5.6-30-15.7-41.5L688.6 139.8a62.8 62.8 0 0 0-47.1-21.3H232z" fill="#474747" p-id="4631"></path><path d="M867.5 360.6H717c-60.8 0-110.2-49.4-110.2-110.2V79.5h73.1v170.8c0 20.5 16.6 37.1 37.1 37.1h150.4v73.1z" fill="#474747" p-id="4632"></path><path d="M339.3 682.6v62.2H298.6V564.2h63.7c45.5 0 68.3 19.2 68.3 57.6 0 18.1-6.5 32.8-19.6 44-13.1 11.2-30.5 16.8-52.3 16.8h-19.4z m0-87.2v56.3h16c21.7 0 32.5-9.5 32.5-28.5s-10.8-27.8-32.5-27.8h-16zM448.8 737.9V697.6c7.3 6.1 15.2 10.7 23.8 13.8 8.6 3.1 17.2 4.6 25.9 4.6 5.1 0 9.6-0.5 13.4-1.4 3.8-0.9 7-2.2 9.6-3.8 2.6-1.6 4.5-3.6 5.7-5.8 1.3-2.2 1.9-4.6 1.9-7.2 0-3.5-1-6.7-3-9.4-2-2.8-4.8-5.3-8.3-7.7-3.5-2.4-7.6-4.6-12.4-6.8-4.8-2.2-9.9-4.4-15.5-6.7-14.1-5.9-24.6-13.1-31.6-21.5-6.9-8.5-10.4-18.7-10.4-30.7 0-9.4 1.9-17.5 5.7-24.3 3.8-6.8 8.9-12.3 15.4-16.7 6.5-4.4 14.1-7.6 22.6-9.6 8.6-2.1 17.6-3.1 27.2-3.1s17.7 0.6 25 1.7c7.3 1.1 14 2.9 20.1 5.2v37.7c-3-2.1-6.3-4-9.9-5.5a79.1 79.1 0 0 0-11-4 83.6 83.6 0 0 0-11.3-2.3c-3.7-0.5-7.3-0.8-10.6-0.8-4.6 0-8.8 0.4-12.6 1.3-3.8 0.9-7 2.1-9.6 3.7-2.6 1.6-4.6 3.5-6 5.7-1.4 2.2-2.1 4.7-2.1 7.5 0 3 0.8 5.7 2.4 8.1 1.6 2.4 3.9 4.7 6.8 6.8 2.9 2.1 6.5 4.2 10.7 6.3 4.2 2.1 8.9 4.2 14.2 6.4 7.2 3 13.7 6.2 19.5 9.6 5.8 3.4 10.7 7.2 14.8 11.5a45.1 45.1 0 0 1 9.4 14.7c2.2 5.5 3.3 11.9 3.3 19.2 0 10.1-1.9 18.5-5.7 25.4-3.8 6.8-9 12.4-15.6 16.6-6.5 4.2-14.2 7.3-22.9 9.1-8.7 1.9-17.9 2.8-27.5 2.8s-19.3-0.8-28.3-2.5c-8.9-1.7-16.7-4.2-23.2-7.6zM601.7 744.8V564.2h64c64.2 0 96.3 29.4 96.3 88.1 0 28.1-8.8 50.6-26.3 67.4-17.5 16.8-40.8 25.2-70 25.2h-64z m40.7-147.5v114.5h20.2c17.6 0 31.5-5.3 41.5-15.9 10-10.6 15.1-25 15.1-43.2 0-17.2-5-30.8-14.9-40.6-9.9-9.9-23.9-14.8-41.9-14.8h-19.9z" fill="#4F95FC" p-id="4633"></path></svg>