<svg xmlns="http://www.w3.org/2000/svg" viewBox="0 0 1024 1024" version="1.1"><path d="M792 978.5H232c-60.8 0-110.2-49.4-110.2-110.2V155.6c0-60.8 49.4-110.2 110.2-110.2h409.5c39 0 76.1 16.8 101.9 46l124.8 141.7a135.7 135.7 0 0 1 33.9 89.8v545.4c0 60.8-49.4 110.2-110.2 110.2zM232 118.5c-20.5 0-37.1 16.6-37.1 37.1v712.7c0 20.5 16.6 37.1 37.1 37.1h559.9c20.5 0 37.1-16.6 37.1-37.1V322.9c0-15.3-5.6-30-15.7-41.5L688.6 139.8a62.8 62.8 0 0 0-47.1-21.3H232z" fill="#474747" p-id="4227"></path><path d="M867.5 360.6H717c-60.8 0-110.2-49.4-110.2-110.2V79.5h73.1v170.8c0 20.5 16.6 37.1 37.1 37.1h150.4v73.1z" fill="#474747" p-id="4228"></path><path d="M307.9 725v-34.8c6.3 5.3 13.2 9.3 20.6 11.9 7.4 2.6 14.9 4 22.4 4 4.4 0 8.3-0.4 11.6-1.2 3.3-0.8 6.1-1.9 8.3-3.3 2.2-1.4 3.9-3.1 5-5 1.1-1.9 1.6-4 1.6-6.3 0-3-0.9-5.8-2.6-8.2-1.7-2.4-4.1-4.6-7.1-6.6-3-2-6.6-4-10.7-5.9-4.1-1.9-8.6-3.8-13.4-5.8-12.2-5.1-21.3-11.3-27.3-18.6-6-7.3-9-16.2-9-26.6 0-8.1 1.6-15.1 4.9-20.9 3.3-5.8 7.7-10.6 13.3-14.4 5.6-3.8 12.1-6.5 19.5-8.3 7.4-1.8 15.2-2.7 23.5-2.7s15.3 0.5 21.6 1.5c6.3 1 12.1 2.5 17.4 4.5v32.5a52.9 52.9 0 0 0-8.5-4.8 67.9 67.9 0 0 0-9.5-3.4 71.1 71.1 0 0 0-9.7-2c-3.2-0.4-6.3-0.7-9.2-0.7-4 0-7.6 0.4-10.9 1.1-3.3 0.8-6 1.8-8.3 3.2s-4 3-5.2 5c-1.2 1.9-1.9 4.1-1.9 6.5 0 2.6 0.7 5 2.1 7 1.4 2.1 3.3 4 5.9 5.9 2.5 1.9 5.6 3.7 9.3 5.4 3.6 1.8 7.7 3.6 12.3 5.5 6.2 2.6 11.8 5.4 16.8 8.3 5 2.9 9.2 6.3 12.8 10 3.5 3.7 6.3 7.9 8.2 12.7 1.9 4.8 2.8 10.3 2.8 16.6 0 8.7-1.6 16-5 21.9-3.3 5.9-7.8 10.7-13.4 14.4-5.7 3.7-12.2 6.3-19.8 7.9-7.5 1.6-15.4 2.4-23.8 2.4s-16.7-0.7-24.4-2.2c-7.7-1.5-14.4-3.6-20.1-6.5zM569.9 574.9l-53.8 156h-39.8l-53.1-156h37.9l32.5 108.6c1.7 5.9 2.8 11.1 3.2 15.6h0.7c0.5-4.9 1.6-10.2 3.4-16l32.3-108.2h36.8zM716.7 720.5c-15.2 8.8-34.2 13.2-56.8 13.2-25.1 0-44.9-7-59.4-20.8-14.5-13.9-21.7-33-21.7-57.4s7.9-44.5 23.7-60c15.8-15.4 36.9-23.2 63.1-23.2 16.5 0 31.1 2.3 43.7 6.9v33c-12-7-26.8-10.4-44.2-10.4-14.6 0-26.5 4.7-35.6 14.2-9.2 9.5-13.8 22.1-13.8 37.9s4.1 28.4 12.3 37.2c8.2 8.8 19.4 13.2 33.4 13.2 8.4 0 15.1-1.2 20-3.6v-30.5h-31.2v-28.1h66.4v78.5z" fill="#4F95FC" p-id="4229"></path></svg>