<svg xmlns="http://www.w3.org/2000/svg" viewBox="0 0 1024 1024" version="1.1"><path d="M792 978.5H232c-60.8 0-110.2-49.4-110.2-110.2V155.6c0-60.8 49.4-110.2 110.2-110.2h409.5c39 0 76.1 16.8 101.9 46l124.8 141.7a135.7 135.7 0 0 1 33.9 89.8v545.4c0 60.8-49.4 110.2-110.2 110.2zM232 118.5c-20.5 0-37.1 16.6-37.1 37.1v712.7c0 20.5 16.6 37.1 37.1 37.1h559.9c20.5 0 37.1-16.6 37.1-37.1V322.9c0-15.3-5.6-30-15.7-41.5L688.6 139.8a62.8 62.8 0 0 0-47.1-21.3H232z" fill="#474747" p-id="4201"></path><path d="M867.5 360.6H717c-60.8 0-110.2-49.4-110.2-110.2V79.5h73.1v170.8c0 20.5 16.6 37.1 37.1 37.1h150.4v73.1z" fill="#474747" p-id="4202"></path><path d="M331.3 677.2v53.8h-35.1V575h55.1c39.3 0 59 16.6 59 49.7 0 15.7-5.6 28.4-16.9 38-11.3 9.7-26.4 14.5-45.2 14.5h-16.8z m0-75.3v48.6h13.8c18.7 0 28.1-8.2 28.1-24.6s-9.4-24.1-28.1-24.1h-13.8zM573.4 731H537.9l-64.3-98c-3.8-5.7-6.4-10.1-7.8-12.9h-0.4c0.6 5.5 0.9 13.9 0.9 25.2v85.7H433V574.9h37.9l61.9 95c2.8 4.3 5.4 8.5 7.8 12.7h0.4c-0.6-3.6-0.9-10.8-0.9-21.4v-86.3h33.2v156zM737.1 720.5c-15.2 8.8-34.2 13.2-56.8 13.2-25.1 0-44.9-7-59.4-20.8-14.5-13.9-21.7-33-21.7-57.4s7.9-44.5 23.7-60c15.8-15.4 36.9-23.2 63.1-23.2 16.5 0 31.1 2.3 43.7 6.9v33c-12-7-26.8-10.4-44.2-10.4-14.6 0-26.5 4.7-35.6 14.2-9.2 9.5-13.8 22.1-13.8 37.9s4.1 28.4 12.3 37.2c8.2 8.8 19.4 13.2 33.4 13.2 8.4 0 15.1-1.2 20-3.6v-30.5h-31.2v-28.1h66.4v78.5z" fill="#4F95FC" p-id="4203"></path></svg>