<svg xmlns="http://www.w3.org/2000/svg" viewBox="0 0 1024 1024" version="1.1"><path d="M792 978.5H232c-60.8 0-110.2-49.4-110.2-110.2V155.6c0-60.8 49.4-110.2 110.2-110.2h409.5c39 0 76.1 16.8 101.9 46l124.8 141.7a135.7 135.7 0 0 1 33.9 89.8v545.4c0 60.8-49.4 110.2-110.2 110.2zM232 118.5c-20.5 0-37.1 16.6-37.1 37.1v712.7c0 20.5 16.6 37.1 37.1 37.1h559.9c20.5 0 37.1-16.6 37.1-37.1V322.9c0-15.3-5.6-30-15.7-41.5L688.6 139.8a62.8 62.8 0 0 0-47.1-21.3H232z" fill="#474747" p-id="4482"></path><path d="M867.5 360.6H717c-60.8 0-110.2-49.4-110.2-110.2V79.5h73.1v170.8c0 20.5 16.6 37.1 37.1 37.1h150.4v73.1z" fill="#474747" p-id="4483"></path><path d="M312.1 736.2l172.8-172.8c14.3-14.3 37.4-14.3 51.7 0 14.3 14.3 14.3 37.4 0 51.7l-172.8 172.8c-14.3 14.3-37.4 14.3-51.7 0-14.3-14.3-14.3-37.4 0-51.7z" fill="#4F95FC" p-id="4484"></path><path d="M690.4 803.1H333.6c-19.8 0-35.8-16-35.8-35.8v-1.5c0-19.8 16-35.8 35.8-35.8h356.9c19.8 0 35.8 16 35.8 35.8v1.5c0 19.8-16 35.8-35.8 35.8z" fill="#4F95FC" p-id="4485"></path><path d="M297.8 767.4V410.5c0-19.8 16-35.8 35.8-35.8h1.5c19.8 0 35.8 16 35.8 35.8v356.9c0 19.8-16 35.8-35.8 35.8h-1.5c-19.8 0-35.8-16-35.8-35.8z" fill="#4F95FC" p-id="4486"></path></svg>