<svg xmlns="http://www.w3.org/2000/svg" viewBox="0 0 1024 1024" version="1.1"><path d="M792 978.5H232c-60.8 0-110.2-49.4-110.2-110.2V155.6c0-60.8 49.4-110.2 110.2-110.2h409.5c39 0 76.1 16.8 101.9 46l124.8 141.7a135.7 135.7 0 0 1 33.9 89.8v545.4c0 60.8-49.4 110.2-110.2 110.2zM232 118.5c-20.5 0-37.1 16.6-37.1 37.1v712.7c0 20.5 16.6 37.1 37.1 37.1h559.9c20.5 0 37.1-16.6 37.1-37.1V322.9c0-15.3-5.6-30-15.7-41.5L688.6 139.8a62.8 62.8 0 0 0-47.1-21.3H232z" fill="#474747" p-id="4126"></path><path d="M867.5 360.6H717c-60.8 0-110.2-49.4-110.2-110.2V79.5h73.1v170.8c0 20.5 16.6 37.1 37.1 37.1h150.4v73.1z" fill="#474747" p-id="4127"></path><path d="M398.2 673.4l175.9-175.9c13.9-13.9 36.6-13.9 50.5 0l1.1 1.1c13.9 13.9 13.9 36.6 0 50.5L449.9 725.1c-13.9 13.9-36.6 13.9-50.5 0l-1.1-1.1c-13.9-13.9-13.9-36.6 0-50.5z" fill="#4F95FC" p-id="4128"></path><path d="M449.9 497.5l175.9 175.9c13.9 13.9 13.9 36.6 0 50.5l-1.1 1.1c-13.9 13.9-36.6 13.9-50.5 0L398.2 549.2c-13.9-13.9-13.9-36.6 0-50.5l1.1-1.1c13.9-13.9 36.6-13.9 50.5 0z" fill="#4F95FC" p-id="4129"></path></svg>