<svg xmlns="http://www.w3.org/2000/svg" viewBox="0 0 1024 1024" version="1.1"><path d="M792 978.5H232c-60.8 0-110.2-49.4-110.2-110.2V155.6c0-60.8 49.4-110.2 110.2-110.2h409.5c39 0 76.1 16.8 101.9 46l124.8 141.7a135.7 135.7 0 0 1 33.9 89.8v545.4c0 60.8-49.4 110.2-110.2 110.2zM232 118.5c-20.5 0-37.1 16.6-37.1 37.1v712.7c0 20.5 16.6 37.1 37.1 37.1h559.9c20.5 0 37.1-16.6 37.1-37.1V322.9c0-15.3-5.6-30-15.7-41.5L688.6 139.8a62.8 62.8 0 0 0-47.1-21.3H232z" fill="#474747" p-id="4510"></path><path d="M867.5 360.6H717c-60.8 0-110.2-49.4-110.2-110.2V79.5h73.1v170.8c0 20.5 16.6 37.1 37.1 37.1h150.4v73.1z" fill="#474747" p-id="4511"></path><path d="M563.8 750.6h-46l-13.3-41.7h-66.7l-13.2 41.7h-45.7l68.2-187.4h50.1l66.7 187.4z m-69-74.1l-20.1-63c-1.5-4.7-2.5-10.3-3.1-16.9h-1.1a71.3 71.3 0 0 1-3.3 16.3l-20.4 63.5h48zM645.1 563.2v32.7h-15.7v122.1h15.7v32.7h-73.6v-32.7h15.7V595.9h-15.7v-32.7h73.6z" fill="#4F95FC" p-id="4512"></path></svg>