<svg xmlns="http://www.w3.org/2000/svg" viewBox="0 0 1024 1024" version="1.1"><path d="M792 978.5H232c-60.8 0-110.2-49.4-110.2-110.2V155.6c0-60.8 49.4-110.2 110.2-110.2h409.5c39 0 76.1 16.8 101.9 46l124.8 141.7a135.7 135.7 0 0 1 33.9 89.8v545.4c0 60.8-49.4 110.2-110.2 110.2zM232 118.5c-20.5 0-37.1 16.6-37.1 37.1v712.7c0 20.5 16.6 37.1 37.1 37.1h559.9c20.5 0 37.1-16.6 37.1-37.1V322.9c0-15.3-5.6-30-15.7-41.5L688.6 139.8a62.8 62.8 0 0 0-47.1-21.3H232z" fill="#474747" p-id="4240"></path><path d="M867.5 360.6H717c-60.8 0-110.2-49.4-110.2-110.2V79.5h73.1v170.8c0 20.5 16.6 37.1 37.1 37.1h150.4v73.1z" fill="#474747" p-id="4241"></path><path d="M461.1 765.8c-11.3 0-22.5-3-32.7-8.9-20.5-11.8-32.7-33-32.7-56.7V546c0-23.7 12.2-44.9 32.7-56.7 20.5-11.8 45-11.8 65.5 0l133.6 77.1c20.5 11.8 32.7 33 32.7 56.7s-12.2 44.9-32.7 56.7l-133.6 77.1c-10.3 5.9-21.5 8.9-32.7 8.9z m7.6-206.7v127.9l110.8-64-110.8-64z m122.2 70.5z" fill="#4F95FC" p-id="4242"></path></svg>