<svg xmlns="http://www.w3.org/2000/svg" viewBox="0 0 1024 1024" version="1.1"><path d="M792 978.5H232c-60.8 0-110.2-49.4-110.2-110.2V155.6c0-60.8 49.4-110.2 110.2-110.2h409.5c39 0 76.1 16.8 101.9 46l124.8 141.7a135.7 135.7 0 0 1 33.9 89.8v545.4c0 60.8-49.4 110.2-110.2 110.2zM232 118.5c-20.5 0-37.1 16.6-37.1 37.1v712.7c0 20.5 16.6 37.1 37.1 37.1h559.9c20.5 0 37.1-16.6 37.1-37.1V322.9c0-15.3-5.6-30-15.7-41.5L688.6 139.8a62.8 62.8 0 0 0-47.1-21.3H232z" fill="#474747" p-id="4468"></path><path d="M867.5 360.6H717c-60.8 0-110.2-49.4-110.2-110.2V79.5h73.1v170.8c0 20.5 16.6 37.1 37.1 37.1h150.4v73.1z" fill="#474747" p-id="4469"></path><path d="M373.3 213.7h77.5v54.4h-77.5zM295.8 268h77.5v54.4h-77.5zM373.3 322.4h77.5v54.4h-77.5zM295.8 376.7h77.5v54.4h-77.5zM373.3 431.1h77.5v54.4h-77.5zM373.3 539.8h77.5v54.4h-77.5zM295.8 485.4h77.5v54.4h-77.5z" fill="#4F95FC" p-id="4470"></path><path d="M295.8 590.7v190.1c0 17.9 14.1 32.5 31.5 32.5h92c17.4 0 31.5-14.6 31.5-32.5V590.7H295.8z m120 167.8h-85v-38.3h85v38.3z" fill="#4F95FC" p-id="4471"></path></svg>