<svg xmlns="http://www.w3.org/2000/svg" viewBox="0 0 1024 1024" version="1.1"><path d="M945.9 896.3c-9.7-204.3-131.4-373.4-296.5-434.8 51.5-40.7 84.7-103.7 84.7-174.3 0-122.5-99.6-222.1-222.1-222.1s-222.1 99.6-222.1 222.1c0 70.6 33.1 133.7 84.7 174.3C209.5 522.8 87.8 692 78.1 896.3c-0.8 16.3 5.2 32.4 16.5 44.1 11.3 11.8 27.1 18.6 43.4 18.6h748c16.3 0 32.1-6.8 43.4-18.6 11.2-11.8 17.3-27.9 16.5-44.1zM512 138.1c82.2 0 149 66.8 149 149s-66.8 149-149 149-149-66.8-149-149 66.8-149 149-149zM151.9 885.9c16.3-212.1 172.1-376.2 360.1-376.2s343.8 164.1 360.1 376.2H151.9z" fill="#474747" p-id="3330"></path><path d="M512 802.4c-20.2 0-36.5-16.4-36.5-36.5V640.8c0-20.2 16.4-36.5 36.5-36.5 20.2 0 36.5 16.4 36.5 36.5v125c0 20.2-16.4 36.5-36.5 36.5z" fill="#4F95FC" p-id="3331"></path></svg>