<svg xmlns="http://www.w3.org/2000/svg" viewBox="0 0 1024 1024" version="1.1"><path d="M815.3 248.2H208.7c-20.2 0-36.5-16.4-36.5-36.5 0-20.2 16.4-36.5 36.5-36.5h606.5c20.2 0 36.5 16.4 36.5 36.5 0 20.2-16.4 36.5-36.5 36.5zM815.3 390.9H208.7c-20.2 0-36.5-16.4-36.5-36.5 0-20.2 16.4-36.5 36.5-36.5h606.5c20.2 0 36.5 16.4 36.5 36.5 0 20.2-16.4 36.5-36.5 36.5zM815.3 533.5H208.7c-20.2 0-36.5-16.4-36.5-36.5 0-20.2 16.4-36.5 36.5-36.5h606.5c20.2 0 36.5 16.4 36.5 36.5 0 20.2-16.4 36.5-36.5 36.5z" fill="#474747" p-id="3417"></path><path d="M227.8 634.8m-5.9 36.1a36.5 36.5 0 1 0 11.7-72.1 36.5 36.5 0 1 0-11.7 72.1Z" fill="#4F95FC" p-id="3418"></path><path d="M294.8 722.1m-36.5 0a36.5 36.5 0 1 0 73.1 0 36.5 36.5 0 1 0-73.1 0Z" fill="#4F95FC" p-id="3419"></path><path d="M435.9 722.1m-36.5 0a36.5 36.5 0 1 0 73.1 0 36.5 36.5 0 1 0-73.1 0Z" fill="#4F95FC" p-id="3420"></path><path d="M577.1 722.1m-36.5 0a36.5 36.5 0 1 0 73.1 0 36.5 36.5 0 1 0-73.1 0Z" fill="#4F95FC" p-id="3421"></path><path d="M718.2 722.1m-36.5 0a36.5 36.5 0 1 0 73.1 0 36.5 36.5 0 1 0-73.1 0Z" fill="#4F95FC" p-id="3422"></path><path d="M227.8 812.3m-5.9 36.1a36.5 36.5 0 1 0 11.7-72.1 36.5 36.5 0 1 0-11.7 72.1Z" fill="#4F95FC" p-id="3423"></path><path d="M369.7 634.8m-36.5 0a36.5 36.5 0 1 0 73.1 0 36.5 36.5 0 1 0-73.1 0Z" fill="#4F95FC" p-id="3424"></path><path d="M369.7 812.3m-36.5 0a36.5 36.5 0 1 0 73.1 0 36.5 36.5 0 1 0-73.1 0Z" fill="#4F95FC" p-id="3425"></path><path d="M511.6 634.8m-5.9 36.1a36.5 36.5 0 1 0 11.7-72.1 36.5 36.5 0 1 0-11.7 72.1Z" fill="#4F95FC" p-id="3426"></path><path d="M511.6 812.3m-5.9 36.1a36.5 36.5 0 1 0 11.7-72.1 36.5 36.5 0 1 0-11.7 72.1Z" fill="#4F95FC" p-id="3427"></path><path d="M653.5 634.8m-36.5 0a36.5 36.5 0 1 0 73.1 0 36.5 36.5 0 1 0-73.1 0Z" fill="#4F95FC" p-id="3428"></path><path d="M653.5 812.3m-36.5 0a36.5 36.5 0 1 0 73.1 0 36.5 36.5 0 1 0-73.1 0Z" fill="#4F95FC" p-id="3429"></path><path d="M795.3 634.8m-36.5 0a36.5 36.5 0 1 0 73.1 0 36.5 36.5 0 1 0-73.1 0Z" fill="#4F95FC" p-id="3430"></path><path d="M795.3 812.3m-36.5 0a36.5 36.5 0 1 0 73.1 0 36.5 36.5 0 1 0-73.1 0Z" fill="#4F95FC" p-id="3431"></path></svg>