<svg xmlns="http://www.w3.org/2000/svg" viewBox="0 0 1024 1024" version="1.1"><path d="M788.5 974.9H235.5c-61.1 0-110.8-49.7-110.8-110.8V159.8c0-61.1 49.7-110.8 110.8-110.8h553c61.1 0 110.8 49.7 110.8 110.8v704.3c0 61.1-49.7 110.8-110.8 110.8zM235.5 122.2c-20.8 0-37.7 16.9-37.7 37.7v704.3c0 20.8 16.9 37.7 37.7 37.7h553c20.8 0 37.7-16.9 37.7-37.7V159.8c0-20.8-16.9-37.7-37.7-37.7H235.5z" fill="#474747" p-id="3522"></path><path d="M244.3 187.8c0-15.1 12.3-27.4 27.4-27.4h35.3c15.1 0 27.4 12.3 27.4 27.4 0 15.1-12.3 27.4-27.4 27.4H271.7c-15.1 0-27.4-12.3-27.4-27.4zM357.9 187.8c0-15.1 12.3-27.4 27.4-27.4h35.3c15.1 0 27.4 12.3 27.4 27.4 0 15.1-12.3 27.4-27.4 27.4h-35.3c-15.1 0-27.4-12.3-27.4-27.4zM471.5 187.8c0-15.1 12.3-27.4 27.4-27.4h35.3c15.1 0 27.4 12.3 27.4 27.4 0 15.1-12.3 27.4-27.4 27.4h-35.3c-15.1 0-27.4-12.3-27.4-27.4z" fill="#4F95FC" p-id="3523"></path><path d="M186.6 246.2h670.9v73.1H186.6z" fill="#474747" p-id="3524"></path><path d="M512 845.4c-128.5 0-233-104.5-233-233S383.5 379.4 512 379.4s233 104.5 233 233S640.5 845.4 512 845.4z m0-392.9c-88.2 0-159.9 71.7-159.9 159.9S423.8 772.3 512 772.3s159.9-71.7 159.9-159.9S600.2 452.5 512 452.5z" fill="#4F95FC" p-id="3525"></path><path d="M503.5 516.8c0-14.7-11.9-26.5-26.5-26.5-3.6 0-7 0.7-10.2 2l-0.1-0.3c-49.1 20.7-69.4 59.8-73.7 79.7l0.2 0c-0.5 2-0.7 4.1-0.7 6.2 0 14.7 11.9 26.5 26.5 26.5 13.3 0 24.3-9.8 26.2-22.6 1.8-5.4 10.2-26.1 38.5-39.4 11.4-3 19.8-13.3 19.8-25.7z" fill="#4F95FC" p-id="3526"></path></svg>