<svg xmlns="http://www.w3.org/2000/svg" viewBox="0 0 1024 1024" version="1.1"><path d="M619 309.4C595.6 242.6 556.9 193.8 512 174.1c-44.9 19.7-83.7 68.5-107 135.3l-68-23.8c31.6-90.2 88.6-156.4 156.3-181.6a53.7 53.7 0 0 1 37.4 0C598.4 129.2 655.4 195.4 687 285.6l-68 23.8z" fill="#4F95FC" p-id="5076"></path><path d="M800.6 222.9c-43.8 0-86.3 8.6-126.4 25.5-38.7 16.4-73.4 39.8-103.2 69.5-23.9 23.9-43.7 51-59.1 80.8-15.3-29.8-35.1-56.9-59.1-80.8-29.8-29.8-64.5-53.2-103.2-69.5-40-16.9-82.5-25.5-126.4-25.5h-19.7c-9 0-16.3 7.3-16.3 16.3v155.6c0 43.8 8.6 86.3 25.5 126.4 16.4 38.7 39.8 73.4 69.5 103.2s64.5 53.2 103.2 69.5A321.9 321.9 0 0 0 476 717.4v112.7l-126.7-60.8c-17.9-8.6-39.4-1.1-48 16.9-8.6 17.9-1.1 39.4 16.9 48l176.5 84.7c5.2 2.9 11.1 4.5 17.4 4.5s12.3-1.6 17.4-4.5l176.5-84.7c17.9-8.6 25.5-30.1 16.9-48-8.6-17.9-30.1-25.5-48-16.9l-126.7 60.8V717.4a321.3 321.3 0 0 0 90.4-23.5c38.7-16.4 73.4-39.8 103.2-69.5s53.2-64.5 69.5-103.2c16.9-40 25.5-82.5 25.5-126.4V239.2c0-9-7.3-16.3-16.3-16.3h-19.7zM259.4 394.8v-77.7c0-10.5 9.8-18.2 20-15.9 112.4 25.5 196.6 126.3 196.6 246.3v88.7c0 4.6-4.1 8-8.6 7.2-118.1-21.1-208-124.6-208-248.6z m505.2 0c0 124.1-89.9 227.5-208 248.6-4.5 0.8-8.6-2.6-8.6-7.2v-88.8c0-120 84.2-220.8 196.6-246.3 10.2-2.3 20 5.4 20 15.9v77.7z" fill="#474747" p-id="5077"></path></svg>