<svg xmlns="http://www.w3.org/2000/svg" viewBox="0 0 1024 1024" version="1.1"><path d="M192.8 237.5c0 19.9 16.1 36 36 36h172.1v-72H228.8c-19.9 0-36 16.1-36 36zM795.2 201.5H623.2v72H795.2c19.9 0 36-16.1 36-36s-16.1-36-36-36z" fill="#474747" p-id="5239"></path><path d="M512 379.9c-81.1 0-147.1-66-147.1-147.1S430.9 85.6 512 85.6s147.1 66 147.1 147.1-66 147.1-147.1 147.1z m0-222.3c-41.4 0-75.1 33.7-75.1 75.1s33.7 75.1 75.1 75.1 75.1-33.7 75.1-75.1-33.7-75.1-75.1-75.1z" fill="#474747" p-id="5240"></path><path d="M666.7 835.2h-82.2v-72h82.2c1.3 0 2-0.8 2-1.3V558.8c0-84.2-70.1-152.6-156.3-152.6S356.3 474.4 356 558.3l-0.7 203.6c0 0.1 0 0.3 0.3 0.6 0.4 0.4 1 0.6 1.7 0.6h81.3v72h-81.3c-19.9 0-38.6-7.7-52.7-21.8-13.8-13.9-21.4-32.2-21.3-51.7l0.7-203.6c0.2-60 24.1-116.3 67.4-158.6 43.1-42.1 100.2-65.3 160.9-65.3s118.1 23.3 161.2 65.5c43.3 42.5 67.1 99 67.1 159.1v203.1c0 40.4-33.2 73.3-74 73.3z" fill="#474747" p-id="5241"></path><path d="M512 938.4c-60.4 0-109.5-49.1-109.5-109.5V658.2c0-60.4 49.1-109.5 109.5-109.5s109.5 49.1 109.5 109.5v170.7c0 60.4-49.1 109.5-109.5 109.5z m0-317.6c-20.7 0-37.5 16.8-37.5 37.5v170.7c0 20.7 16.8 37.5 37.5 37.5s37.5-16.8 37.5-37.5V658.2c0-20.7-16.8-37.5-37.5-37.5z" fill="#4F95FC" p-id="5242"></path></svg>