<svg xmlns="http://www.w3.org/2000/svg" viewBox="0 0 1024 1024" version="1.1"><path d="M512 979.6a115.5 115.5 0 0 1-87.1-39.7L37 494.1C3.2 455.2-0.7 398 27.6 354.9L197.2 96.5c21.4-32.6 57.5-52.1 96.6-52.1h436.5c39 0 75.1 19.5 96.5 52.1l169.6 258.4c28.3 43.1 24.4 100.3-9.4 139.2L599.1 939.9A115.4 115.4 0 0 1 512 979.6zM293.8 120.3c-13.4 0-25.8 6.7-33.1 17.9L91 396.5c-9.7 14.8-8.4 34.4 3.2 47.8L482.1 890.1c7.6 8.8 18.3 13.6 29.9 13.6s22.3-4.8 29.9-13.6l387.8-445.9c11.6-13.3 12.9-33 3.2-47.8l-169.6-258.4c-7.3-11.2-19.7-17.9-33.1-17.9H293.8z" fill="#474747" p-id="3392"></path><path d="M485 663.2L293.6 471.8c-14.8-14.8-14.8-38.8 0-53.6 14.8-14.8 38.8-14.8 53.6 0l191.3 191.3c14.8 14.8 14.8 38.8 0 53.6-14.8 14.8-38.8 14.8-53.6 0z" fill="#4F95FC" p-id="3393"></path><path d="M485.4 609.5l191.3-191.3c14.8-14.8 38.8-14.8 53.6 0 14.8 14.8 14.8 38.8 0 53.6L539 663.2c-14.8 14.8-38.8 14.8-53.6 0-14.8-14.8-14.8-38.8 0-53.6z" fill="#4F95FC" p-id="3394"></path></svg>