<svg xmlns="http://www.w3.org/2000/svg" viewBox="0 0 1024 1024" version="1.1"><path d="M913.6 272.6l-0.4-13.8c-11.8-16.4-6.9-25.2-23.3-13.5L512 516.7 145.3 254c-16.4-11.8-12.2-9.8-24 6.5l-6.9 12c-11.8 16.4 0.2 48.4 16.6 60.2l359.4 258.3a36.3 36.3 0 0 0 21.3 6.9h0.7c7.4 0 14.8-2.2 21.3-6.9L893.1 332.8c16.4-11.8 32.3-43.8 20.5-60.2z" fill="#4F95FC" p-id="3353"></path><path d="M848.6 867.6h-673.3c-50.4 0-91.3-41-91.3-91.3v-528.5c0-50.4 41-91.3 91.3-91.3h673.3c50.4 0 91.3 41 91.3 91.3v528.5c0 50.4-41 91.3-91.3 91.3z m-673.3-638.1c-10.1 0-18.3 8.2-18.3 18.3v528.5c0 10.1 8.2 18.3 18.3 18.3h673.3c10.1 0 18.3-8.2 18.3-18.3v-528.5c0-10.1-8.2-18.3-18.3-18.3h-673.3z" fill="#474747" p-id="3354"></path></svg>