<svg xmlns="http://www.w3.org/2000/svg" viewBox="0 0 1024 1024" version="1.1"><path d="M239 623.6c-25-8.6-48.4-20.7-69.5-36.1-32.3-23.5-59.4-54.6-78.3-90.1a39.9 39.9 0 0 1 1.8-40.5 40 40 0 0 1 36.3-18.1c86.5 6 166.5-47.1 194.7-129.1 16.2-47.2 13.6-98.1-7.5-143.3-6.1-13.2-4.6-28.6 3.9-40.4a39.9 39.9 0 0 1 37.2-16.1c19.1 2.4 38 6.8 56.2 13.3 60.3 21.4 110.8 63.7 142.1 119.1 31 54.8 41.5 119 29.5 180.8l-71.7-14c17.3-89-28.9-175.8-110.9-211.8 8.7 45 5.5 91.7-9.7 136.1-31.8 92.4-111.2 158.2-204.1 174.8 7.3 7.3 15.1 14.1 23.4 20.1 15.3 11.1 32.3 19.9 50.4 26.1l-23.8 69.1z" fill="#4F95FC" p-id="3771"></path><path d="M767.9 914.3H309.1l-23.6-0.1c-2 0.1-3.8 0.1-5.5 0.1-91.2 0-165.3-74.2-165.3-165.3 0-69.2 42.8-130.6 107.1-154.8 0-0.6 0.1-1.3 0.1-1.9 2-29.1 14.7-56.3 35.7-76.7 21-20.4 48.6-32.3 77.7-33.4 18.5-0.7 36.7 2.9 53.3 10.4 17-31.7 41.3-59 71.3-79.8 38.5-26.8 83.8-40.9 130.8-40.9 119 0 217.1 91 228.4 207.1 69.8 22.7 118.4 88.2 118.4 163.4 0 45.4-14.8 87.6-41.7 118.8-28.8 33.5-69.7 52.3-115.3 53h-0.5l-12.2 0z m-458.6-73.1H767.8l11.8-0c58.3-1.1 84.8-51.9 84.8-98.8s-34-88.6-80.9-97.2c-21.1-3.9-36.4-22.3-36.4-43.8 0-86.3-70.2-156.4-156.4-156.4-64.9 0-122 39-145.7 99.4-5.7 14.5-18.1 25.6-33.2 29.7-15.1 4.1-31.5 0.7-43.8-9.1-6-4.8-16-10.3-30-9.8-22.8 0.9-41.8 19.4-43.4 42.1-0.1 1.1-0.1 2.2-0.1 3.3 0.1 27.6-17.5 52-43.7 60.7-37.8 12.5-63.2 47.7-63.2 87.6 0 50.9 41.4 92.3 92.3 92.3 1 0 2.2-0 3.5-0.1l0.8-0 25 0.1z m510.9-239.9z" fill="#474747" p-id="3772"></path></svg>