<svg xmlns="http://www.w3.org/2000/svg" viewBox="0 0 1024 1024" version="1.1"><path d="M472.6 363.2m36 0l0 0q36 0 36 36l0 457.4q0 36-36 36l0 0q-36 0-36-36l0-457.4q0-36 36-36Z" fill="#4F95FC" p-id="4657"></path><path d="M908 176.3c-76.1-49.9-171.6-58.8-255.5-23.8-62.1 25.9-111.6 73.2-140.6 132.2-28.9-59-78.5-106.3-140.6-132.2-83.9-34.9-179.4-26-255.5 23.8a39.7 39.7 0 0 0-17.8 37c1.4 14.7 10.7 27.4 24.3 33.1l240.2 100a273.6 273.6 0 0 0-107.8 48.2c-73 54.1-114.4 140.6-110.6 231.5 0.6 14.8 9.3 27.9 22.6 34.3a39.8 39.8 0 0 0 17.2 3.9c8.4 0 16.7-2.6 23.7-7.8L512 431.1l304.2 225.3c7 5.2 15.3 7.8 23.7 7.8 5.8 0 11.7-1.3 17.2-3.9a39.7 39.7 0 0 0 22.6-34.3c3.7-90.9-37.6-177.4-110.6-231.5a273.5 273.5 0 0 0-107.8-48.2l240.2-100a39.7 39.7 0 0 0 24.3-33.1 39.7 39.7 0 0 0-17.8-37z m-564.3 42.6a201.7 201.7 0 0 1 94.5 80.9l-218.6-91c40.8-9.7 84.2-6.5 124 10.1zM225.5 553.7a201.6 201.6 0 0 1 72.3-101.3 201.6 201.6 0 0 1 118-39.6L225.5 553.7z m573 0L608.2 412.8c42 0.4 83.3 13.9 118 39.6a201.6 201.6 0 0 1 72.3 101.3zM585.7 299.9c21.9-35.8 54.7-64.3 94.5-80.9 25-10.4 51.3-15.5 77.5-15.5 15.6 0 31.2 1.8 46.5 5.4l-218.6 91z" fill="#474747" p-id="4658"></path></svg>