<svg xmlns="http://www.w3.org/2000/svg" viewBox="0 0 1024 1024" version="1.1"><path d="M686.4 623.1c-5.2 0-10.5-1.1-15.5-3.5-17.9-8.6-25.5-30.1-16.9-48 20.7-43.2 12.9-91.7-23.1-144-29.5-42.8-66-70.7-66.4-71-15.8-12-18.9-34.6-6.9-50.4 12-15.8 34.6-18.9 50.4-6.9 1.9 1.4 46.1 35.3 82.1 87.5 51 74.1 61 148.8 28.8 216-6.2 12.9-19.1 20.5-32.5 20.5z" fill="#4F95FC" p-id="5183"></path><path d="M503.8 895.3c-1.1 0-2.2 0-3.4-0-199.1-1.8-360.1-165.3-358.9-364.4 0.5-76 24.2-148.7 68.8-210.1 13.1-18.1 34.4-28.9 56.9-28.9h473.1c22.5 0 43.8 10.8 56.9 28.9 45 62.1 68.8 135.5 68.8 212.3 0 49.2-9.7 96.9-28.8 141.8-18.4 43.4-44.9 82.2-78.5 115.5-33.6 33.3-72.7 59.3-116.2 77.4-44.1 18.3-90.7 27.6-138.8 27.6z m-235.8-531.5c-35.3 49-54.1 106.9-54.5 167.5-1 159.6 128 290.6 287.6 292 0.9 0 1.8 0 2.7 0 77.1 0 149.5-29.8 204.3-84.1 55.4-54.9 85.9-128.1 85.9-206.2 0-61.2-18.8-119.7-54.5-169.3H268z m0.6-0.8z" fill="#474747" p-id="5184"></path><path d="M195.6 430.1c-4.1 0-8.3-0.7-12.4-2.2-29.4-10.8-54.5-30-72.7-55.6-18.6-26.2-28.5-57.1-28.5-89.3 0-85.1 69.2-154.3 154.3-154.3s154.3 69.2 154.3 154.3c0 19.9-16.1 36-36 36s-36-16.1-36-36c0-45.4-36.9-82.3-82.3-82.3s-82.3 36.9-82.3 82.3c0 34.4 21.7 65.5 54 77.3 18.7 6.8 28.2 27.5 21.4 46.2-5.3 14.6-19.1 23.6-33.8 23.6zM654.7 363.8c-3.8 0-7.6-0.6-11.4-1.9-18.9-6.3-29.1-26.7-22.8-45.5 7.1-21.4 11.5-29.1 30-61.3 11.4-19.9 28.6-49.9 56.3-100.1l10.3-18.6h188.7c19.9 0 36 16.1 36 36s-16.1 36-36 36H759.7c-22.1 39.8-36.6 65.1-46.6 82.5-18 31.3-19.4 34-24.2 48.3-5 15.1-19.1 24.6-34.1 24.6z" fill="#474747" p-id="5185"></path></svg>