<svg xmlns="http://www.w3.org/2000/svg" viewBox="0 0 1024 1024" version="1.1"><path d="M138.8 342.3h744.3v73.1H138.8z" fill="#474747" p-id="3365"></path><path d="M620.6 717.2c0-20.2 16.4-36.5 36.5-36.5h164.9c20.2 0 36.5 16.4 36.5 36.5 0 20.2-16.4 36.5-36.5 36.5H657.1c-20.2 0-36.5-16.4-36.5-36.5z" fill="#4F95FC" p-id="3366"></path><path d="M856.9 862.9H167.1c-50.2 0-91.1-40.9-91.1-91.1V252.3c0-50.2 40.9-91.1 91.1-91.1h689.8c50.2 0 91.1 40.9 91.1 91.1v519.5c0 50.2-40.9 91.1-91.1 91.1zM167.1 234.2c-9.9 0-18 8.1-18 18v519.5c0 9.9 8.1 18 18 18h689.8c9.9 0 18-8.1 18-18v-519.5c0-9.9-8.1-18-18-18H167.1z" fill="#474747" p-id="3367"></path></svg>