<svg xmlns="http://www.w3.org/2000/svg" viewBox="0 0 1024 1024" version="1.1"><path d="M624.4 641.5l-50.9 50.9-236.7-236.7 50.9-50.9zM459.8 807.5l-50.9 50.9L172.2 621.7l50.9-50.9z" fill="#4F95FC" p-id="4697"></path><path d="M758.7 101.1m25.2 25.2l119.7 119.7q25.2 25.2 0 50.3l-0.6 0.6q-25.2 25.2-50.3 0l-119.7-119.7q-25.2-25.2 0-50.31l0.6-0.6q25.2-25.2 50.31 0Z" fill="#474747" p-id="4698"></path><path d="M275.8 943.9L86 754c-27.2-27.2-27.3-71.4-0.3-98.4l298.8-298.8c8.4-8.4 19-14 30.6-16.2l143.5-27.4c2.7-1.3 5.2-2.8 7.5-4.6l223.9-176.2L897.5 239.9 721.3 463.8a38 38 0 0 0-4.6 7.5l-27.4 143.5c-2.2 11.7-7.8 22.2-16.2 30.6L374.3 944.2c-27.1 27.1-71.2 26.9-98.4-0.3zM138.4 704.7l186.7 186.7 294.1-294.1 28-146.4 1.2-3a110 110 0 0 1 16.3-28.6L801.4 245.6l-17.1-17.1-173.7 136.7A110.5 110.5 0 0 1 582 381.4l-3 1.2-146.4 28-294.1 294.1zM618.5 601.2z" fill="#474747" p-id="4699"></path></svg>