<svg xmlns="http://www.w3.org/2000/svg" viewBox="0 0 1024 1024" version="1.1"><path d="M418.7 687.8c-16.6 0-30-13.4-30-30V266.6c0-15.1 8.4-28.6 22.1-35.2 13.6-6.6 29.4-4.9 41.3 4.4l2.5 1.9h27.3c-9.9-21.6-31.8-36.7-57.2-36.7-34.7 0-62.9 28.2-62.9 62.9v393.8c0 16.6-13.4 30-30 30s-30-13.4-30-30V263.9c0-67.8 55.1-122.9 122.9-122.9s122.9 55.1 122.9 122.9c0 18.7-15.2 33.8-33.8 33.8h-65v360c0 16.6-13.4 30-30 30zM706.5 687.8c-16.6 0-30-13.4-30-30V266.6c0-15.1 8.4-28.6 22.1-35.2 13.6-6.6 29.4-4.9 41.3 4.4l2.5 1.9h27.3c-9.9-21.6-31.8-36.7-57.2-36.7-34.7 0-62.9 28.2-62.9 62.9v393.8c0 16.6-13.4 30-30 30s-30-13.4-30-30V263.9c0-67.8 55.1-122.9 122.9-122.9s122.9 55.1 122.9 122.9c0 18.7-15.2 33.8-33.8 33.8h-65v360c0 16.6-13.4 30-30 30z" fill="#474747" p-id="4764"></path><path d="M898.9 734.2c-28.8 0-48.4-20.3-65.8-38.1-12.5-12.8-25.4-26.1-36.4-26.1-12.6 0-28.7 15.3-43 28.7-18.5 17.5-37.7 35.5-63 35.5s-45.7-17.7-67.4-36.5c-12-10.4-32.2-27.8-41.4-27.8-8.2 0-25.2 15.6-36.5 25.9-20.4 18.7-41.5 38-69 38s-49-20.3-67.8-38.3c-10.7-10.2-26.8-25.6-35-25.6-10.2 0-32.1 17-46.6 28.3-23.6 18.3-45.9 35.7-71 35.7-27.7 0-49.5-21.2-68.7-40-8.1-7.9-23-22.4-29.2-23.9-11.1 0.4-35.8 19-50.8 35.7-11.1 12.3-30 13.3-42.4 2.3s-13.3-30.1-2.3-42.4c8.3-9.3 52.1-55.5 95.8-55.5 28.6 0 51 21.8 70.7 41 7.4 7.2 20.9 20.4 27.1 22.8 7.1-2.1 23.8-15 34-22.9 24.7-19.1 52.6-40.9 83.4-40.9 32.3 0 56.8 23.4 76.5 42.3 7.8 7.5 20.6 19.8 26.4 21.5 6.1-1.7 20.6-15 28.4-22.2 21.3-19.5 45.5-41.6 77-41.6s57.5 22.5 80.5 42.4c8.2 7.1 21.4 18.5 27.9 21.4 5.3-2.9 15.7-12.7 22.1-18.7 21.3-20.1 47.8-45.1 84.2-45.1s61.3 25.6 79.4 44.3c6.4 6.6 18.2 18.8 22.9 19.9 6.4-0 11.1-1.5 14.2-4.2 1-0.9 1.5-1.7 1.7-2 0.1-0.1 0.1-0.2 0.1-0.2 0 0-0.6 1.5-0.6 1.5l56.1 21.3c-6.2 16.2-28.2 43.7-71.7 43.7z m-210-59.8z m-433.5-0.5zM898.9 883c-28.8 0-48.4-20.3-65.8-38.1-12.5-12.8-25.4-26.1-36.4-26.1-12.6 0-28.7 15.3-43 28.7-18.5 17.5-37.7 35.5-63 35.5s-45.7-17.7-67.4-36.5c-12.1-10.4-32.2-27.8-41.4-27.8-8.2 0-25.2 15.6-36.5 25.9-20.4 18.7-41.5 38-69 38s-49-20.3-67.8-38.3c-10.7-10.2-26.8-25.6-35-25.6-10.2 0-32.1 17-46.6 28.3-23.6 18.3-45.9 35.7-71 35.7-27.7 0-49.5-21.2-68.7-40-8.1-7.9-23-22.4-29.2-23.9-11.1 0.4-35.8 19-50.8 35.7-11.1 12.3-30 13.3-42.4 2.3s-13.3-30.1-2.3-42.4c8.3-9.3 52.1-55.5 95.8-55.5 28.6 0 51 21.8 70.7 41 7.4 7.2 20.9 20.4 27.1 22.8 7.1-2.1 23.8-15 34-22.9 24.7-19.1 52.6-40.9 83.4-40.9 32.3 0 56.8 23.4 76.5 42.3 7.8 7.5 20.6 19.8 26.4 21.5 6.1-1.7 20.6-15 28.4-22.2 21.3-19.5 45.5-41.6 77-41.6s57.5 22.5 80.5 42.4c8.2 7.1 21.4 18.5 27.9 21.4 5.3-2.9 15.7-12.7 22.1-18.7 21.3-20.1 47.8-45.1 84.2-45.1s61.3 25.6 79.4 44.3c6.4 6.6 18.2 18.8 22.9 19.9 6.4-0 11.1-1.5 14.2-4.2 1-0.9 1.5-1.7 1.7-2 0.1-0.1 0.1-0.2 0.1-0.2 0 0-0.6 1.5-0.6 1.5l56.1 21.3c-6.2 16.2-28.2 43.7-71.7 43.7z m-210-59.8z m3.1-0.1z m207.3-0.1z m-422.2-0.3z m-1.1-0z" fill="#4F95FC" p-id="4765"></path><path d="M424.6 317.5h187v60H424.6zM424.6 430.4h187v60H424.6zM424.6 532.6h187v60H424.6z" fill="#474747" p-id="4766"></path></svg>