<svg xmlns="http://www.w3.org/2000/svg" viewBox="0 0 1024 1024" version="1.1"><path d="M751.4 88.5m25.5 25.5l132.3 132.3q25.5 25.5 0 50.9l0 0q-25.5 25.5-50.9 0l-132.3-132.3q-25.5-25.5 0-50.9l0 0q25.5-25.5 50.9 0Z" fill="#474747" p-id="4722"></path><path d="M518.8 363.5l215.5-215.5 50.9 50.9-215.5 215.5zM609.3 454l215.5-215.5 50.9 50.9-215.5 215.5z" fill="#474747" p-id="4723"></path><path d="M200.3 824.7c-49.7-49.7-82.6-110.9-92.7-172.3-5.1-31.2-4.1-61 3-88.5 7.7-29.7 22.1-55.3 42.9-76.1 20.6-20.6 45.9-34.9 75.2-42.7 22.5-6 46.6-7.8 71.8-5.5 0.9 0.1 1.8-0.6 1.9-1.5 4.8-28.3 17.2-53 36.3-72 17.1-17.1 38.5-28.8 63.4-34.5 22.6-5.2 47-5.4 72.7-0.4 49.6 9.5 99.5 37.4 140.5 78.3 41 41 68.8 90.9 78.3 140.5 4.9 25.7 4.8 50.2-0.4 72.7-5.8 24.9-17.4 46.3-34.5 63.4-19.1 19.1-43.7 31.4-72 36.3-0.9 0.2-1.6 1-1.5 1.9 2.3 25.2 0.5 49.3-5.5 71.8-7.8 29.4-22.1 54.7-42.7 75.2-20.8 20.8-46.3 35.2-76.1 42.9-27.5 7.1-57.3 8.2-88.5 3-61.4-10-122.6-43-172.3-92.7z m364.3-364.3c-30.5-30.5-68.1-51.8-103.2-58.6-17.7-3.4-50.5-6-71.7 15.2-10.2 10.2-16 24.4-17.2 42-1.1 16.2-9 31.4-21.8 41.6-12.8 10.2-29.3 14.6-45.4 12.1-41.7-6.5-77.5 2.7-100.8 26-23.5 23.5-32.7 59.8-25.8 102.1 7.6 46.6 33.4 93.9 72.5 133 39.1 39.1 86.4 64.9 133 72.5 42.3 6.9 78.5-2.3 102.1-25.8 23.3-23.3 32.5-59.1 26-100.8-2.5-16.1 1.9-32.7 12.1-45.4 10.2-12.8 25.4-20.7 41.6-21.8 17.6-1.2 31.8-7 42-17.2 21.1-21.1 18.6-54 15.2-71.7-6.8-35.1-28.1-72.8-58.6-103.2z m18.8 248.2z" fill="#474747" p-id="4724"></path><path d="M459.1 564.3m-63.9 0a63.9 63.9 0 1 0 127.8 0 63.9 63.9 0 1 0-127.8 0Z" fill="#4F95FC" p-id="4725"></path><path d="M279.1 603.2m25.5 25.5l84.19138 84.19139q25.5 25.5 0 50.9l0 0q-25.5 25.5-50.9 0l-84.19139-84.19139q-25.5-25.5 0-50.9l0 0q25.5-25.5 50.9 0Z" fill="#4F95FC" p-id="4726"></path><path d="M655.3 227m25.5 25.5l84.19139 84.19138q25.5 25.5 0 50.9l0 0q-25.5 25.5-50.9 0l-84.19138-84.19138q-25.5-25.5 0-50.9l0 0q25.5-25.5 50.9 0Z" fill="#474747" p-id="4727"></path></svg>