<svg xmlns="http://www.w3.org/2000/svg" viewBox="0 0 1024 1024" version="1.1"><path d="M694.8 936.8l-3.1-23.9c-10.6 0-15.3-19.9-20.4-10.6-5.1 9.3-6.7-2.8-1 6.2L512 662.1 353.7 908.5c5.8-8.9 0.8 15.9-4.3 6.6-5.1-9.3-3.2-19.3-13.8-19.3l-6.3 41c-16.1 0-30.9-8.8-38.6-22.9a44 44 0 0 1 1.6-44.9l182.8-284.4c8.1-12.7 22-20.2 37-20.2 15.1 0 28.9 7.6 37 20.2l182.8 284.4a44 44 0 0 1 1.6 44.9 44 44 0 0 1-38.6 22.9z" fill="#4F95FC" p-id="3551"></path><path d="M940.4 865L604.5 342.2c-0.9-2.9-2.2-5.6-3.9-8.3l-44.6-69.9 81.8-128.3c10.8-17 5.8-39.6-11.2-50.4-17-10.8-39.6-5.9-50.4 11.2l-63.5 99.6-64.3-100.8c-10.8-17-33.4-22-50.4-11.2-17 10.8-22 33.4-11.2 50.4l82.5 129.4-33.7 52.9c-0.5 0.7-0.9 1.5-1.3 2.2L83.6 865a52.26 52.26 0 0 0-1.9 53.3 52.2 52.2 0 0 0 45.9 27.2h768.9c19.1 0 36.7-10.4 45.9-27.2a52.27 52.27 0 0 0-1.9-53.3z m-774.8 7.5L512 333.4l346.4 539H165.6z" fill="#474747" p-id="3552"></path></svg>