<svg xmlns="http://www.w3.org/2000/svg" viewBox="0 0 1024 1024" version="1.1"><path d="M842.7 854.5H181.3c-51 0-92.5-41.5-92.5-92.5V261.9c0-51 41.5-92.5 92.5-92.5h661.4c51 0 92.5 41.5 92.5 92.5v500.1c0 51-41.5 92.5-92.5 92.5zM181.3 241.5c-11.3 0-20.5 9.2-20.5 20.5v500.1c0 11.3 9.2 20.5 20.5 20.5h661.4c11.3 0 20.5-9.2 20.5-20.5V261.9c0-11.3-9.2-20.5-20.5-20.5H181.3z" fill="#474747" p-id="4682"></path><path d="M387.7 563.5c-66 0-119.8-53.7-119.8-119.8s53.7-119.8 119.8-119.8 119.8 53.7 119.8 119.8-53.7 119.8-119.8 119.8z m0-179.5c-33 0-59.8 26.8-59.8 59.8s26.8 59.8 59.8 59.8 59.8-26.8 59.8-59.8S420.7 384 387.7 384z" fill="#4F95FC" p-id="4683"></path><path d="M574.9 699.8h-31.3c-7.4 0-13.6-5.6-14.3-12.9-6.5-69-64.8-123.2-135.5-123.2s-129 54.2-135.5 123.2c-0.7 7.3-6.9 12.9-14.3 12.9h-31.3c-8.4 0-15-7.1-14.3-15.5 7.9-100.9 92.6-180.6 195.5-180.6s187.6 79.7 195.5 180.6c0.7 8.3-6 15.5-14.3 15.5z" fill="#4F95FC" p-id="4684"></path><path d="M615.7 401.9m30 0l147 0q30 0 30 30l0 0q0 30-30 30l-147 0q-30 0-30-30l0 0q0-30 30-30Z" fill="#474747" p-id="4685"></path><path d="M615.7 525m30 0l58 0q30 0 30 30l0 0q0 30-30 30l-58 0q-30 0-30-30l0 0q0-30 30-30Z" fill="#474747" p-id="4686"></path></svg>