<svg xmlns="http://www.w3.org/2000/svg" viewBox="0 0 1024 1024" version="1.1"><path d="M512.2 442.2c-85.6 0-155.2-69.6-155.2-155.2s69.6-155.2 155.2-155.2 155.2 69.6 155.2 155.2-69.6 155.2-155.2 155.2z m0-238.4c-45.9 0-83.2 37.3-83.2 83.2s37.3 83.2 83.2 83.2 83.2-37.3 83.2-83.2-37.3-83.2-83.2-83.2z" fill="#4F95FC" p-id="4669"></path><path d="M720.7 836.9h-416.9c-19.1 0-37.1-8.4-49.4-22.9a64.5 64.5 0 0 1-14.3-52.5l41.2-242.7a64.5 64.5 0 0 1 63.7-53.8h96.2c16.8 0 32.5 9 40.9 23.6l29.6 50.9 29.7-50.9c8.4-14.5 24.1-23.5 40.9-23.5h97.3c31.6 0 58.4 22.6 63.7 53.8l41.2 242.7c3.2 18.8-2 38-14.3 52.5a64.5 64.5 0 0 1-49.4 22.9z m-408.2-72h399.5l-38.7-227.9h-76.9l-51.1 87.6c-7 11.9-19.9 19.4-33.7 19.4h-0c-13.8 0-26.8-7.5-33.7-19.4l-50.9-87.6h-75.8l-38.7 227.9z" fill="#474747" p-id="4670"></path><path d="M95.7 769.3m36 0l761.1 0q36 0 36 36l0 0q0 36-36 36l-761.1 0q-36 0-36-36l0 0q0-36 36-36Z" fill="#474747" p-id="4671"></path></svg>