<svg xmlns="http://www.w3.org/2000/svg" viewBox="0 0 1024 1024" version="1.1"><path d="M780.9 468.2H744.1v-72h36.8c10.3 0 18.7-8.4 18.7-18.7V223.4c0-10.3-8.4-18.7-18.7-18.7H244.9c-10.3 0-18.7 8.4-18.7 18.7v154.2c0 10.3 8.4 18.7 18.7 18.7h67.2v72h-67.2c-50 0-90.7-40.7-90.7-90.7V223.4c0-50 40.7-90.7 90.7-90.7h536c50 0 90.7 40.7 90.7 90.7v154.2c0 50-40.7 90.7-90.7 90.7z" fill="#474747" p-id="4844"></path><path d="M301.4 865.8c-5.3 0-10.7-1-15.9-3.2-15.5-6.4-25.6-21.5-25.6-38.3V326.1c0-39.5 32.1-71.5 71.5-71.5h357.3c39.5 0 71.5 32.1 71.5 71.5v497.1c0 16.8-10 31.8-25.6 38.3-15.5 6.4-33.3 2.9-45.1-9l-43.2-43.2-38.6 38.6c-7.8 7.8-18.2 12.1-29.3 12.1s-21.5-4.3-29.3-12.1l-38.6-38.6-38.6 38.6c-7.8 7.8-18.2 12.1-29.3 12.1s-21.5-4.3-29.3-12.1l-38.6-38.6-44.3 44.3c-7.9 7.9-18.5 12.2-29.3 12.2z m102.9-129l38.6 38.6 38.6-38.6c7.8-7.8 18.2-12.1 29.3-12.1s21.5 4.3 29.3 12.1l38.6 38.6 38.6-38.6c7.8-7.8 18.2-12.1 29.3-12.1s21.5 4.3 29.3 12.1l12.6 12.6V326.6H332v424l13.8-13.8c7.8-7.8 18.2-12.1 29.3-12.1s21.5 4.3 29.3 12.1z" fill="#474747" p-id="4845"></path><path d="M406.2 446.6m30 0l152.4 0q30 0 30 30l0 0q0 30-30 30l-152.4 0q-30 0-30-30l0 0q0-30 30-30Z" fill="#4F95FC" p-id="4846"></path><path d="M406.2 560.2m30 0l96 0q30 0 30 30l0 0q0 30-30 30l-96 0q-30 0-30-30l0 0q0-30 30-30Z" fill="#4F95FC" p-id="4847"></path></svg>